%TF.GenerationSoftware,Altium Limited,Altium Designer,26.1.1 (7)*%
G04 Layer_Color=255*
%FSLAX45Y45*%
%MOMM*%
%TF.SameCoordinates,6F9AAC4A-738D-4F70-9579-1CED448E312D*%
%TF.FilePolarity,Positive*%
%TF.FileFunction,Pads,Top*%
%TF.Part,Single*%
G01*
G75*
%TA.AperFunction,SMDPad,CuDef*%
%ADD10R,0.95000X1.00000*%
%ADD11R,0.80000X0.80000*%
%ADD12R,1.55000X3.20000*%
%ADD13R,1.00000X0.90000*%
%TA.AperFunction,ComponentPad*%
%ADD19C,1.20000*%
%ADD20C,1.50000*%
%ADD21C,3.25120*%
%ADD22C,1.30000*%
%ADD23C,1.80000*%
%ADD24C,2.00000*%
%ADD25O,1.80000X4.00000*%
%ADD26O,1.60000X4.00000*%
%ADD27O,1.80000X2.60000*%
%ADD28R,1.50000X1.50000*%
%ADD29C,3.26390*%
%ADD30C,1.60000*%
G04:AMPARAMS|DCode=31|XSize=3.4mm|YSize=1.7mm|CornerRadius=0.425mm|HoleSize=0mm|Usage=FLASHONLY|Rotation=180.000|XOffset=0mm|YOffset=0mm|HoleType=Round|Shape=RoundedRectangle|*
%AMROUNDEDRECTD31*
21,1,3.40000,0.85000,0,0,180.0*
21,1,2.55001,1.70000,0,0,180.0*
1,1,0.85000,-1.27500,0.42500*
1,1,0.85000,1.27500,0.42500*
1,1,0.85000,1.27500,-0.42500*
1,1,0.85000,-1.27500,-0.42500*
%
%ADD31ROUNDEDRECTD31*%
%ADD32C,2.20000*%
%ADD33R,1.50000X1.50000*%
%ADD34R,1.80000X1.80000*%
%ADD35C,1.00000*%
%ADD36O,2.80000X1.52000*%
%ADD37C,1.01600*%
%ADD38C,1.52000*%
%ADD39R,1.80000X1.10000*%
%ADD40R,1.10000X1.80000*%
%ADD41R,2.20000X4.50000*%
G04:AMPARAMS|DCode=42|XSize=2.8mm|YSize=1.524mm|CornerRadius=0.381mm|HoleSize=0mm|Usage=FLASHONLY|Rotation=90.000|XOffset=0mm|YOffset=0mm|HoleType=Round|Shape=RoundedRectangle|*
%AMROUNDEDRECTD42*
21,1,2.80000,0.76200,0,0,90.0*
21,1,2.03800,1.52400,0,0,90.0*
1,1,0.76200,0.38100,1.01900*
1,1,0.76200,0.38100,-1.01900*
1,1,0.76200,-0.38100,-1.01900*
1,1,0.76200,-0.38100,1.01900*
%
%ADD42ROUNDEDRECTD42*%
%ADD43C,3.00000*%
%ADD44C,0.99060*%
%TA.AperFunction,WasherPad*%
%ADD45C,6.00000*%
G36*
G01X7288800Y2007440D02*
G01X7487600D01*
G03Y2157440I1200J75000D01*
G01X7288800D01*
G01Y2007440D01*
D02*
G37*
G36*
G01X6808800D02*
G02Y2157440I0J75000D01*
G01X7008800D01*
G01Y2007440D01*
G01X6808800D01*
D02*
G37*
D10*
X2950000Y-1790000D02*
D03*
X2790000D02*
D03*
D11*
X313105Y7376000D02*
D03*
X463104D02*
D03*
X12982025Y7291980D02*
D03*
X12832025D02*
D03*
D12*
X2687662Y7711589D02*
D03*
Y7031589D02*
D03*
X2287662Y7711589D02*
D03*
Y7031589D02*
D03*
D13*
X9068720Y8265230D02*
D03*
Y8435230D02*
D03*
X6422040Y8290630D02*
D03*
Y8460630D02*
D03*
X8660097Y8265230D02*
D03*
Y8435230D02*
D03*
X8251475Y8265230D02*
D03*
Y8435230D02*
D03*
X8387682Y8265230D02*
D03*
Y8435230D02*
D03*
X7979060Y8265230D02*
D03*
Y8435230D02*
D03*
X8796305Y8265230D02*
D03*
Y8435230D02*
D03*
X8523890Y8265230D02*
D03*
Y8435230D02*
D03*
X8115267Y8265230D02*
D03*
Y8435230D02*
D03*
X8932512Y8265230D02*
D03*
Y8435230D02*
D03*
X6844950Y8290630D02*
D03*
Y8460630D02*
D03*
X5858160Y8290630D02*
D03*
Y8460630D02*
D03*
X6703980Y8290630D02*
D03*
Y8460630D02*
D03*
X6140100Y8290630D02*
D03*
Y8460630D02*
D03*
X6281070Y8290630D02*
D03*
Y8460630D02*
D03*
X6985920Y8290630D02*
D03*
Y8460630D02*
D03*
X5999130Y8290630D02*
D03*
Y8460630D02*
D03*
X6563010Y8290630D02*
D03*
Y8460630D02*
D03*
D19*
X13159520Y5519080D02*
D03*
X12909520D02*
D03*
X12659520D02*
D03*
X13159520Y5839080D02*
D03*
X12909520D02*
D03*
X12659520D02*
D03*
D20*
X7433280Y7253880D02*
D03*
X4639280D02*
D03*
X4893280D02*
D03*
X5147280D02*
D03*
X5401280D02*
D03*
X5655280D02*
D03*
X5909280D02*
D03*
X6163280D02*
D03*
X6417280D02*
D03*
X6671280D02*
D03*
X6925280D02*
D03*
X7179280D02*
D03*
X7687280D02*
D03*
X7941280D02*
D03*
X4385280D02*
D03*
X4131280D02*
D03*
X9671020D02*
D03*
X9163020D02*
D03*
X9417020D02*
D03*
X9925020D02*
D03*
X10320040Y-2051410D02*
D03*
X10520040D02*
D03*
X10720040D02*
D03*
X10320040Y-2251410D02*
D03*
X10520040D02*
D03*
D21*
X10895300Y4155080D02*
D03*
Y7203080D02*
D03*
X3402300Y4155080D02*
D03*
Y7203080D02*
D03*
D22*
X8398100Y8800200D02*
D03*
X7398100D02*
D03*
X7898100D02*
D03*
X7648100D02*
D03*
X8148100D02*
D03*
X7648100Y9300200D02*
D03*
X8148100D02*
D03*
X6899500Y8800200D02*
D03*
X5899500D02*
D03*
X6399500D02*
D03*
X6149500D02*
D03*
X6649500D02*
D03*
X6149500Y9300200D02*
D03*
X6649500D02*
D03*
X16399289Y7283980D02*
D03*
X16149289D02*
D03*
Y6283980D02*
D03*
X16399289D02*
D03*
X15149289D02*
D03*
Y7283980D02*
D03*
Y6783980D02*
D03*
Y7033980D02*
D03*
Y6533980D02*
D03*
X8896700Y10050229D02*
D03*
Y9800229D02*
D03*
X9896700D02*
D03*
Y10050229D02*
D03*
Y8800230D02*
D03*
X8896700D02*
D03*
X9396700D02*
D03*
X9146700D02*
D03*
X9646700D02*
D03*
X4400900Y10050230D02*
D03*
Y9800230D02*
D03*
X5400900D02*
D03*
Y10050230D02*
D03*
Y8800230D02*
D03*
X4400900D02*
D03*
X4900900D02*
D03*
X4650900D02*
D03*
X5150900D02*
D03*
D23*
X7898100Y9300200D02*
D03*
X6399500D02*
D03*
X4770090Y-1871070D02*
D03*
X5024090D02*
D03*
X5278090D02*
D03*
X4770090Y-1617070D02*
D03*
X5024090D02*
D03*
X5278090D02*
D03*
X13093671Y1085490D02*
D03*
X14150310Y1077870D02*
D03*
X14404311D02*
D03*
X14658310D02*
D03*
X15649289Y6783980D02*
D03*
X1612870Y4637680D02*
D03*
X1866870D02*
D03*
X2120870D02*
D03*
X2374870D02*
D03*
X9396700Y9300230D02*
D03*
X4900900Y9300230D02*
D03*
D24*
X7273100Y9150200D02*
D03*
X8523100D02*
D03*
X5774500D02*
D03*
X7024500D02*
D03*
X8371650Y-1322250D02*
D03*
X8496650Y-2072250D02*
D03*
X9496650D02*
D03*
Y-1572250D02*
D03*
X9621650Y-1322250D02*
D03*
X8496650Y-1572250D02*
D03*
X6749860Y-1322250D02*
D03*
X6874860Y-2072250D02*
D03*
X7874860D02*
D03*
Y-1572250D02*
D03*
X7999860Y-1322250D02*
D03*
X6874860Y-1572250D02*
D03*
D25*
X7398100Y9925200D02*
D03*
X8398100D02*
D03*
X5899500D02*
D03*
X6899500D02*
D03*
D26*
X7678100Y9900200D02*
D03*
X8118100D02*
D03*
X6179500D02*
D03*
X6619500D02*
D03*
D27*
X7398100Y9360200D02*
D03*
X8398100D02*
D03*
X5899500D02*
D03*
X6899500D02*
D03*
D28*
X7898100Y9800200D02*
D03*
X6399500D02*
D03*
D29*
X644002Y5015000D02*
D03*
D30*
X3273800Y1654640D02*
D03*
Y2154640D02*
D03*
X4723800Y1654640D02*
D03*
Y1904640D02*
D03*
Y2154640D02*
D03*
X11023800D02*
D03*
Y1654640D02*
D03*
X9573800Y2154640D02*
D03*
Y1904640D02*
D03*
Y1654640D02*
D03*
D31*
X3973800Y2474640D02*
D03*
Y1334640D02*
D03*
X10323800D02*
D03*
Y2474640D02*
D03*
D32*
X10040040Y-2151410D02*
D03*
X11000040D02*
D03*
D33*
X10720040Y-2251410D02*
D03*
D34*
X13347670Y1085490D02*
D03*
X14912309Y1077870D02*
D03*
X1358870Y4637680D02*
D03*
D35*
X13347670Y831490D02*
D03*
X13093671D02*
D03*
D36*
X12870200Y6138799D02*
D03*
D37*
X13350200Y6970179D02*
D03*
X11910200Y6138799D02*
D03*
X13350200Y5307419D02*
D03*
D38*
X12551600Y6138799D02*
D03*
X13188800D02*
D03*
D39*
X15649289Y7283980D02*
D03*
Y7033980D02*
D03*
Y6533980D02*
D03*
Y6283980D02*
D03*
X9396700Y9800229D02*
D03*
X4900900Y9800230D02*
D03*
D40*
X16149289Y6783980D02*
D03*
X8896700Y9300230D02*
D03*
X9146700D02*
D03*
X9646700D02*
D03*
X9896700D02*
D03*
X4400900Y9300230D02*
D03*
X4650900D02*
D03*
X5150900D02*
D03*
X5400900D02*
D03*
D41*
X8796650Y-2072250D02*
D03*
X9196650D02*
D03*
X7174860D02*
D03*
X7574860D02*
D03*
D42*
X12255470Y-1429110D02*
D03*
X11735470D02*
D03*
X11395470D02*
D03*
X12345470Y-2159110D02*
D03*
X11355470D02*
D03*
D43*
X11725470Y-2059110D02*
D03*
D44*
X-1840000Y3294300D02*
D03*
Y3497500D02*
D03*
X-1332000Y3395900D02*
D03*
D45*
X0Y0D02*
D03*
Y7800000D02*
D03*
X14300000D02*
D03*
Y0D02*
D03*
%TF.MD5,05c5a207895fa1ad92b3eec5aff3561e*%
M02*
