%TF.GenerationSoftware,Altium Limited,Altium Designer,25.8.1 (18)*%
G04 Layer_Color=0*
%FSLAX45Y45*%
%MOMM*%
%TF.SameCoordinates,916E790F-4380-4A4C-B002-6B38F721AB2E*%
%TF.FilePolarity,Positive*%
%TF.FileFunction,Plated,1,4,PTH,Drill*%
%TF.Part,Single*%
G01*
G75*
%TA.AperFunction,ComponentDrill*%
%ADD259C,1.10000*%
%ADD266C,1.20000*%
%ADD267C,1.00000*%
%ADD268C,1.50000*%
%ADD269O,1.50000X3.70000*%
%ADD270O,1.50000X2.50000*%
%ADD271O,1.50000X0.80000*%
%ADD272O,2.30000X0.92000*%
%ADD273C,0.92000*%
%ADD274C,2.48920*%
%ADD275O,0.80000X1.50000*%
%ADD276C,1.20000*%
%ADD277C,1.00000*%
%ADD278C,1.15000*%
%ADD279R,1.00000X2.20000*%
%ADD280R,1.00000X2.40000*%
%ADD281C,2.25000*%
%ADD282C,0.45000*%
%ADD283C,0.80000*%
%ADD284O,3.00000X1.40000*%
%ADD285C,1.50000*%
%ADD286C,0.80000*%
%TA.AperFunction,ViaDrill,NotFilled*%
%ADD287C,0.40000*%
%ADD288C,0.71120*%
%ADD289C,0.63500*%
%ADD290C,1.06680*%
D259*
X4639280Y7253880D02*
D03*
X4893280D02*
D03*
X5147280D02*
D03*
X5401280D02*
D03*
X5655280D02*
D03*
X5909280D02*
D03*
X6163280D02*
D03*
X6417280D02*
D03*
X6671280D02*
D03*
X6925280D02*
D03*
X7179280D02*
D03*
X7433280D02*
D03*
X7687280D02*
D03*
X7941280D02*
D03*
X4385280D02*
D03*
X4131280D02*
D03*
X9671020D02*
D03*
X9163020D02*
D03*
X9417020D02*
D03*
X9925020D02*
D03*
X13347670Y1085490D02*
D03*
X13093671D02*
D03*
X14150310Y1077870D02*
D03*
X14404311D02*
D03*
X14658310D02*
D03*
X14912309D02*
D03*
D266*
X6899500Y8800200D02*
D03*
X5899500D02*
D03*
X6399500Y9300200D02*
D03*
X7898100D02*
D03*
X7398100Y8800200D02*
D03*
X8398100D02*
D03*
X8896700Y10050229D02*
D03*
Y9800229D02*
D03*
X9896700D02*
D03*
Y10050229D02*
D03*
Y8800230D02*
D03*
X8896700D02*
D03*
X9396700Y9300230D02*
D03*
X4400900Y10050230D02*
D03*
Y9800230D02*
D03*
X5400900D02*
D03*
Y10050230D02*
D03*
Y8800230D02*
D03*
X4400900D02*
D03*
X4900900Y9300230D02*
D03*
X9573800Y1654640D02*
D03*
Y1904640D02*
D03*
Y2154640D02*
D03*
X11023800Y1654640D02*
D03*
Y2154640D02*
D03*
X3273800Y1654640D02*
D03*
Y2154640D02*
D03*
X4723800Y1654640D02*
D03*
Y1904640D02*
D03*
Y2154640D02*
D03*
D267*
X6399500Y8800200D02*
D03*
X6149500D02*
D03*
X6649500D02*
D03*
X6149500Y9300200D02*
D03*
X6649500D02*
D03*
X8148100D02*
D03*
X7648100D02*
D03*
X8148100Y8800200D02*
D03*
X7648100D02*
D03*
X7898100D02*
D03*
X9396700Y8800230D02*
D03*
X9146700D02*
D03*
X9646700D02*
D03*
X4900900Y8800230D02*
D03*
X4650900D02*
D03*
X5150900D02*
D03*
D268*
X5774500Y9150200D02*
D03*
X7024500D02*
D03*
X8523100D02*
D03*
X7273100D02*
D03*
X6874860Y-1572250D02*
D03*
X7999860Y-1322250D02*
D03*
X7874860Y-1572250D02*
D03*
Y-2072250D02*
D03*
X6874860D02*
D03*
X6749860Y-1322250D02*
D03*
X8371650D02*
D03*
X8496650Y-2072250D02*
D03*
X9496650D02*
D03*
Y-1572250D02*
D03*
X9621650Y-1322250D02*
D03*
X8496650Y-1572250D02*
D03*
X10040040Y-2151410D02*
D03*
X11000040D02*
D03*
D269*
X5899500Y9925200D02*
D03*
X6899500D02*
D03*
X8398100D02*
D03*
X7398100D02*
D03*
D270*
X5899500Y9350200D02*
D03*
X6899500D02*
D03*
X8398100D02*
D03*
X7398100D02*
D03*
D271*
X6399500Y9800200D02*
D03*
X7898100D02*
D03*
X15649289Y6283980D02*
D03*
Y6533980D02*
D03*
Y7033980D02*
D03*
Y7283980D02*
D03*
X9396700Y9800229D02*
D03*
X4900900Y9800230D02*
D03*
D272*
X12870200Y6138799D02*
D03*
D273*
X12551600D02*
D03*
X13188800D02*
D03*
D274*
X10895300Y4155080D02*
D03*
Y7203080D02*
D03*
X3402300Y4155080D02*
D03*
Y7203080D02*
D03*
D275*
X16149289Y6783980D02*
D03*
X8896700Y9300230D02*
D03*
X9146700D02*
D03*
X9646700D02*
D03*
X9896700D02*
D03*
X4400900Y9300230D02*
D03*
X4650900D02*
D03*
X5150900D02*
D03*
X5400900D02*
D03*
D276*
X15649289Y6783980D02*
D03*
X15149289Y7283980D02*
D03*
Y6283980D02*
D03*
X16399289D02*
D03*
X16149289D02*
D03*
Y7283980D02*
D03*
X16399289D02*
D03*
X4770090Y-1871070D02*
D03*
X5024090D02*
D03*
X5278090D02*
D03*
X4770090Y-1617070D02*
D03*
X5024090D02*
D03*
X5278090D02*
D03*
D277*
X15149289Y6533980D02*
D03*
Y7033980D02*
D03*
Y6783980D02*
D03*
D278*
X1358870Y4637680D02*
D03*
X1612870D02*
D03*
X1866870D02*
D03*
X2120870D02*
D03*
X2374870D02*
D03*
D279*
X12255470Y-1429110D02*
D03*
X11735470D02*
D03*
X11395470D02*
D03*
D280*
X12345470Y-2159110D02*
D03*
X11355470D02*
D03*
D281*
X11725470Y-2059110D02*
D03*
D282*
X13030811Y-1493790D02*
D03*
X13110809D02*
D03*
Y-1408790D02*
D03*
Y-1323790D02*
D03*
X13030811D02*
D03*
Y-1408790D02*
D03*
D283*
X13159520Y5519080D02*
D03*
X12909520D02*
D03*
X12659520D02*
D03*
X13159520Y5839080D02*
D03*
X12909520D02*
D03*
X12659520D02*
D03*
D284*
X10323800Y2474640D02*
D03*
Y1334640D02*
D03*
X3973800Y2474640D02*
D03*
Y1334640D02*
D03*
D285*
X7288800Y2082440D02*
D03*
X7008800D02*
D03*
D286*
X10320040Y-2051410D02*
D03*
X10520040D02*
D03*
X10720040D02*
D03*
X10320040Y-2251410D02*
D03*
X10520040D02*
D03*
X10720040D02*
D03*
D287*
X5864860Y8035290D02*
D03*
X9077930Y8018780D02*
D03*
X6650960Y7958730D02*
D03*
X6207760Y8014970D02*
D03*
X2021810Y4844690D02*
D03*
X4833620Y7743190D02*
D03*
X6422360Y8029850D02*
D03*
X6885910Y8033660D02*
D03*
X4634230Y7712710D02*
D03*
X4422140Y7725410D02*
D03*
X8436610Y8018780D02*
D03*
X8837930D02*
D03*
X8021320D02*
D03*
X8251160D02*
D03*
X8648670D02*
D03*
X2124387Y8345170D02*
D03*
X2247900Y8364220D02*
D03*
X12221814Y6511755D02*
D03*
X10361900Y9104270D02*
D03*
X5943570Y7752990D02*
D03*
X10236170Y7845700D02*
D03*
X3910300Y9478920D02*
D03*
X7873970Y9548770D02*
D03*
X3221990Y8991600D02*
D03*
X2421890Y9025890D02*
D03*
X6248370Y9491620D02*
D03*
X12125960Y5676900D02*
D03*
X11756390Y5922010D02*
D03*
X13608020Y5503820D02*
D03*
X14843730Y6183270D02*
D03*
X14963139Y5688330D02*
D03*
X15861000Y5040270D02*
D03*
X15685741Y5387161D02*
D03*
X11186130Y4324150D02*
D03*
X12913330Y4177940D02*
D03*
X13016260Y4316370D02*
D03*
X11685240Y4447180D02*
D03*
X15108005Y4324106D02*
D03*
X13826796Y4222508D02*
D03*
X15159959Y5279190D02*
D03*
X15257750Y5233310D02*
D03*
X14096321Y4482002D02*
D03*
X14851028Y5294668D02*
D03*
X14659579Y6179460D02*
D03*
X14676089Y5934350D02*
D03*
X14147771Y3315610D02*
D03*
X2762511Y-2340726D02*
D03*
X15320010Y7430770D02*
D03*
X232380Y5756550D02*
D03*
X567660Y5677810D02*
D03*
X2976160Y-1870040D02*
D03*
X14030960Y6631940D02*
D03*
X14594839Y6314440D02*
D03*
X14307820Y5568950D02*
D03*
X1097280Y7303770D02*
D03*
X13455742Y5867633D02*
D03*
X13461971Y6113420D02*
D03*
X2018030Y8754110D02*
D03*
X1569720Y8762528D02*
D03*
X994410Y7599680D02*
D03*
X1410970Y7863840D02*
D03*
X2523490Y8148320D02*
D03*
X3161326Y8289837D02*
D03*
X1112520Y8124190D02*
D03*
X1869967Y7572815D02*
D03*
X1752489Y7820660D02*
D03*
X2715260Y7930082D02*
D03*
X13521384Y4800136D02*
D03*
X13470000Y4940032D02*
D03*
X333980Y5781600D02*
D03*
X-173990Y5800090D02*
D03*
X-327690Y5922920D02*
D03*
X-763308Y5975411D02*
D03*
X-735360Y5724800D02*
D03*
X-315169Y5795750D02*
D03*
X5760338Y-290965D02*
D03*
X5534025Y-3175D02*
D03*
X5539740Y-205740D02*
D03*
X5098964Y189894D02*
D03*
X5099050Y-238760D02*
D03*
X4942830Y373380D02*
D03*
X4940300Y-320040D02*
D03*
X4564380Y-784860D02*
D03*
X13407359Y3998870D02*
D03*
X13775632Y4607171D02*
D03*
X8860Y5446670D02*
D03*
X1307677Y7746561D02*
D03*
X1586910Y6042133D02*
D03*
X142988Y5540158D02*
D03*
X-159099Y5164730D02*
D03*
X-1412270Y6302650D02*
D03*
X37360Y5553183D02*
D03*
X141978Y4880592D02*
D03*
X40610Y4892950D02*
D03*
X1609060Y7293896D02*
D03*
X7590Y5797190D02*
D03*
X801536Y5740750D02*
D03*
X15414969Y4087937D02*
D03*
X15438091Y4257950D02*
D03*
X14806900Y3826150D02*
D03*
X13510091Y4393360D02*
D03*
X13250603Y4628032D02*
D03*
X14556709Y3841390D02*
D03*
X13966678Y4918868D02*
D03*
X13615640Y4614820D02*
D03*
X15311249Y4397447D02*
D03*
X15715009Y4377272D02*
D03*
X11801381Y6726448D02*
D03*
X13121609Y7291980D02*
D03*
X11882800Y5835230D02*
D03*
X11498490Y5734900D02*
D03*
X11619200Y5464450D02*
D03*
X15506670Y7603130D02*
D03*
X15469841Y5665923D02*
D03*
X14400500Y5025030D02*
D03*
X12852925Y5009790D02*
D03*
X13765500Y3560720D02*
D03*
X14842461Y4664350D02*
D03*
X16022290Y5948320D02*
D03*
X-1696771Y7084100D02*
D03*
X-2056181Y7081560D02*
D03*
X14643069Y4721500D02*
D03*
X8515320Y7364370D02*
D03*
X11635710Y5609230D02*
D03*
X13882339Y3153050D02*
D03*
X14034740Y3030570D02*
D03*
X13481020Y3137810D02*
D03*
X8315930Y-1126850D02*
D03*
X14265880Y3465737D02*
D03*
X6545416Y-360301D02*
D03*
X124430Y3427370D02*
D03*
X129376Y3055999D02*
D03*
X2757531Y-484706D02*
D03*
X3607695Y1013306D02*
D03*
X6510124Y-603079D02*
D03*
X6536660Y-761090D02*
D03*
X6460460Y653690D02*
D03*
X3323560Y1053740D02*
D03*
X-1087171Y5755680D02*
D03*
X-1379196Y6549084D02*
D03*
X772130Y4812230D02*
D03*
X683230Y4919620D02*
D03*
X372080Y5259980D02*
D03*
X607030Y5003440D02*
D03*
X270480Y5276490D02*
D03*
X491382Y5254910D02*
D03*
X615920Y5333080D02*
D03*
X9303990Y-1279250D02*
D03*
X9404213Y-1286870D02*
D03*
X6717000Y-667110D02*
D03*
X6503640Y-969370D02*
D03*
X6052790Y-1083670D02*
D03*
X15180280Y3206390D02*
D03*
X15934660Y2817770D02*
D03*
X11398220Y559710D02*
D03*
X11400760Y409850D02*
D03*
X11515690Y254095D02*
D03*
X11748740Y254910D02*
D03*
X13691840Y1390290D02*
D03*
X14438866Y1387870D02*
D03*
X14570680Y1523640D02*
D03*
X15270450Y1427120D02*
D03*
X12118310Y-847450D02*
D03*
X11630630Y-474070D02*
D03*
X10797510Y-341990D02*
D03*
X15060899Y6077860D02*
D03*
X-1184334Y5636457D02*
D03*
X-1086728Y5353646D02*
D03*
X-1046510Y5176966D02*
D03*
X-584230Y5762900D02*
D03*
X15462219Y197760D02*
D03*
X8653750Y2991760D02*
D03*
X1229330Y-1890120D02*
D03*
X-186720Y2520590D02*
D03*
X-1836450Y1324250D02*
D03*
X759430Y839110D02*
D03*
X3902680Y-1006200D02*
D03*
X5623530Y2488840D02*
D03*
X8281640Y284120D02*
D03*
X8296880Y-99420D02*
D03*
X8414990Y1777640D02*
D03*
X13661360Y-1357990D02*
D03*
X10510490Y331110D02*
D03*
X11893520Y2973980D02*
D03*
X16007050Y4240170D02*
D03*
X16374080Y3247030D02*
D03*
X13089861Y8782960D02*
D03*
X1048990Y9635130D02*
D03*
X2604740Y5312050D02*
D03*
X1705580Y4177940D02*
D03*
X-1078260Y3716930D02*
D03*
X-318800Y4115710D02*
D03*
X236190Y7024010D02*
D03*
X-1750090Y7883800D02*
D03*
X1338550Y3061610D02*
D03*
X-899312Y5644793D02*
D03*
X-805600Y5488643D02*
D03*
X-840770Y5299350D02*
D03*
X-1159540Y5409840D02*
D03*
X-1573506Y5451696D02*
D03*
X-693903Y5500827D02*
D03*
X-1649071Y5376131D02*
D03*
X-602010Y5594140D02*
D03*
X-320070Y5599070D02*
D03*
X-234980Y5562240D02*
D03*
X-295940Y5258710D02*
D03*
X-1913920Y5287920D02*
D03*
X-1861850Y5544460D02*
D03*
X-325150Y5146950D02*
D03*
X-339056Y5062852D02*
D03*
X-277040Y5357650D02*
D03*
X-135672Y5360061D02*
D03*
X-148620Y5265060D02*
D03*
X1144929Y3162629D02*
D03*
X1163290Y3061610D02*
D03*
X824200Y3074310D02*
D03*
X975330D02*
D03*
X1404590Y5900060D02*
D03*
X975330Y5416190D02*
D03*
X850870Y5389520D02*
D03*
X1529050Y5837421D02*
D03*
X-1230660Y6753500D02*
D03*
X-1442750Y6726830D02*
D03*
X-1494469Y6904630D02*
D03*
X151100Y5291730D02*
D03*
X1499840Y5211720D02*
D03*
X706090Y5254900D02*
D03*
X1170910Y5470800D02*
D03*
X1017240Y5530490D02*
D03*
X1598900Y5615020D02*
D03*
X3094960Y2980330D02*
D03*
X-307370Y4593230D02*
D03*
X-582960Y4895490D02*
D03*
X-834420Y4804050D02*
D03*
X-651540Y5055510D02*
D03*
X-396270Y4828180D02*
D03*
X-925860Y4531000D02*
D03*
X378430Y-1551030D02*
D03*
X391840Y-1277980D02*
D03*
X373350Y-1004930D02*
D03*
X961360Y-648060D02*
D03*
X763240Y-796650D02*
D03*
X-323880Y5694320D02*
D03*
X11210260Y8043820D02*
D03*
X1177260Y-1048110D02*
D03*
X1163290Y-1294490D02*
D03*
X1154400Y-1556110D02*
D03*
X8047960Y-380090D02*
D03*
X7465030Y-449940D02*
D03*
X9047450Y-1547220D02*
D03*
X7058630Y-1246230D02*
D03*
X3690590Y2995570D02*
D03*
X4789140Y2990490D02*
D03*
X9394160Y3075580D02*
D03*
X10557480Y2984140D02*
D03*
X11156920Y2990490D02*
D03*
X15948630Y1340760D02*
D03*
X15546040Y2916830D02*
D03*
X14971910Y3377840D02*
D03*
X15843221Y5520330D02*
D03*
X15835600Y5223150D02*
D03*
X16065469Y5529220D02*
D03*
X15699710Y5662570D02*
D03*
X15661610Y2290720D02*
D03*
X13096242Y2510398D02*
D03*
X13334970Y2204360D02*
D03*
X11659840Y4023000D02*
D03*
X12030680Y3931560D02*
D03*
X14827220Y5119010D02*
D03*
X14250694Y4743036D02*
D03*
X14467810Y4731660D02*
D03*
X16106110Y3450230D02*
D03*
X14415050Y3460970D02*
D03*
X13597861Y3559450D02*
D03*
X15514290Y3140350D02*
D03*
X15027879Y3053990D02*
D03*
X14095700Y2149750D02*
D03*
X14380180Y2963820D02*
D03*
X14378909Y2802530D02*
D03*
X14544009Y2801260D02*
D03*
X14710381Y2802530D02*
D03*
X14712920Y2958740D02*
D03*
X14550366Y2965077D02*
D03*
X14385260Y3135270D02*
D03*
X14552901D02*
D03*
X14720540Y3136540D02*
D03*
X13305760Y1549040D02*
D03*
X7242780Y3055260D02*
D03*
X14970760Y2138570D02*
D03*
D288*
X1968500Y7744460D02*
D03*
D289*
X13702000Y535580D02*
D03*
X13595320Y946190D02*
D03*
D290*
X13239720Y2924450D02*
D03*
X12809911Y2549150D02*
D03*
X11849070Y-433430D02*
D03*
X12693620Y-222610D02*
D03*
%TF.MD5,56ffc2b725e0b5105bac5cb6a9a5b563*%
M02*
