%TF.GenerationSoftware,Altium Limited,Altium Designer,26.1.1 (7)*%
G04 Layer_Color=32896*
%FSLAX45Y45*%
%MOMM*%
%TF.SameCoordinates,6F9AAC4A-738D-4F70-9579-1CED448E312D*%
%TF.FilePolarity,Positive*%
%TF.FileFunction,Other,Top_Courtyard*%
%TF.Part,Single*%
G01*
G75*
%TA.AperFunction,NonConductor*%
%ADD149C,0.10000*%
%ADD158C,0.05000*%
D149*
X7098800Y5679080D02*
X7198800D01*
X7148800Y5629080D02*
Y5729080D01*
X2870000Y-1815000D02*
Y-1765000D01*
X2845000Y-1790000D02*
X2895000D01*
X390600Y7326000D02*
Y7426000D01*
X340600Y7376000D02*
X440600D01*
X2435183Y7371589D02*
X2535183D01*
X2485183Y7321589D02*
Y7421589D01*
X3973800Y1854640D02*
Y1954640D01*
X3923800Y1904640D02*
X4023800D01*
X10323800Y1854640D02*
Y1954640D01*
X10273800Y1904640D02*
X10373800D01*
X9068720Y8325230D02*
Y8375230D01*
X9043720Y8350230D02*
X9093720D01*
X6422040Y8350630D02*
Y8400630D01*
X6397040Y8375630D02*
X6447040D01*
X8660097Y8325230D02*
Y8375230D01*
X8635098Y8350230D02*
X8685097D01*
X8251475Y8325230D02*
Y8375230D01*
X8226475Y8350230D02*
X8276475D01*
X8387682Y8325230D02*
Y8375230D01*
X8362683Y8350230D02*
X8412682D01*
X7979060Y8325230D02*
Y8375230D01*
X7954060Y8350230D02*
X8004060D01*
X8796305Y8325230D02*
Y8375230D01*
X8771305Y8350230D02*
X8821305D01*
X8523890Y8325230D02*
Y8375230D01*
X8498890Y8350230D02*
X8548890D01*
X8115267Y8325230D02*
Y8375230D01*
X8090268Y8350230D02*
X8140267D01*
X8932512Y8325230D02*
Y8375230D01*
X8907513Y8350230D02*
X8957512D01*
X6844950Y8350630D02*
Y8400630D01*
X6819950Y8375630D02*
X6869950D01*
X5858160Y8350630D02*
Y8400630D01*
X5833160Y8375630D02*
X5883160D01*
X6703980Y8350630D02*
Y8400630D01*
X6678980Y8375630D02*
X6728980D01*
X6140100Y8350630D02*
Y8400630D01*
X6115100Y8375630D02*
X6165100D01*
X6281070Y8350630D02*
Y8400630D01*
X6256070Y8375630D02*
X6306070D01*
X6985920Y8350630D02*
Y8400630D01*
X6960920Y8375630D02*
X7010920D01*
X5999130Y8350630D02*
Y8400630D01*
X5974130Y8375630D02*
X6024130D01*
X6563010Y8350630D02*
Y8400630D01*
X6538010Y8375630D02*
X6588010D01*
D158*
X7658800Y1904640D02*
G03*
X7658800Y1904640I-510000J0D01*
G01*
X3162270Y3875680D02*
X11135336D01*
X3162270Y7482481D02*
X11135336D01*
Y3875680D02*
Y7482481D01*
X3162270Y3875680D02*
Y7482481D01*
X2732499Y-1730000D02*
X3007500D01*
X2732499Y-1850000D02*
X3007500D01*
X2732499D02*
Y-1730000D01*
X3007500Y-1850000D02*
Y-1730000D01*
X530600Y7310999D02*
Y7441000D01*
X250599Y7310999D02*
Y7441000D01*
Y7310999D02*
X530600D01*
X250599Y7441000D02*
X530600D01*
X2160183Y6846589D02*
X2810183D01*
X2160183Y7896589D02*
X2810183D01*
X2160183Y6846589D02*
Y7896589D01*
X2810183Y6846589D02*
Y7896589D01*
X3168799Y1179640D02*
X4828800D01*
X3168799Y2629641D02*
X4828800D01*
X3168799Y1179640D02*
Y2629641D01*
X4828800Y1179640D02*
Y2629641D01*
X9468800Y2629640D02*
X11128801D01*
X9468800Y1179640D02*
X11128801D01*
Y2629640D01*
X9468800Y1179640D02*
Y2629640D01*
X9008720Y8490230D02*
X9128721D01*
X9008720Y8210228D02*
X9128721D01*
Y8490230D01*
X9008720Y8210228D02*
Y8490230D01*
X6362040Y8515630D02*
X6482041D01*
X6362040Y8235628D02*
X6482041D01*
Y8515630D01*
X6362040Y8235628D02*
Y8515630D01*
X8600097Y8490230D02*
X8720099D01*
X8600097Y8210228D02*
X8720099D01*
Y8490230D01*
X8600097Y8210228D02*
Y8490230D01*
X8191475D02*
X8311476D01*
X8191475Y8210228D02*
X8311476D01*
Y8490230D01*
X8191475Y8210228D02*
Y8490230D01*
X8327682D02*
X8447684D01*
X8327682Y8210228D02*
X8447684D01*
Y8490230D01*
X8327682Y8210228D02*
Y8490230D01*
X7919060D02*
X8039061D01*
X7919060Y8210228D02*
X8039061D01*
Y8490230D01*
X7919060Y8210228D02*
Y8490230D01*
X8736305D02*
X8856306D01*
X8736305Y8210228D02*
X8856306D01*
Y8490230D01*
X8736305Y8210228D02*
Y8490230D01*
X8463890D02*
X8583891D01*
X8463890Y8210228D02*
X8583891D01*
Y8490230D01*
X8463890Y8210228D02*
Y8490230D01*
X8055267D02*
X8175269D01*
X8055267Y8210228D02*
X8175269D01*
Y8490230D01*
X8055267Y8210228D02*
Y8490230D01*
X8872512D02*
X8992514D01*
X8872512Y8210228D02*
X8992514D01*
Y8490230D01*
X8872512Y8210228D02*
Y8490230D01*
X6784950Y8515630D02*
X6904951D01*
X6784950Y8235628D02*
X6904951D01*
Y8515630D01*
X6784950Y8235628D02*
Y8515630D01*
X5798160D02*
X5918161D01*
X5798160Y8235628D02*
X5918161D01*
Y8515630D01*
X5798160Y8235628D02*
Y8515630D01*
X6643980D02*
X6763981D01*
X6643980Y8235628D02*
X6763981D01*
Y8515630D01*
X6643980Y8235628D02*
Y8515630D01*
X6080100D02*
X6200101D01*
X6080100Y8235628D02*
X6200101D01*
Y8515630D01*
X6080100Y8235628D02*
Y8515630D01*
X6221070D02*
X6341071D01*
X6221070Y8235628D02*
X6341071D01*
Y8515630D01*
X6221070Y8235628D02*
Y8515630D01*
X6925920D02*
X7045921D01*
X6925920Y8235628D02*
X7045921D01*
Y8515630D01*
X6925920Y8235628D02*
Y8515630D01*
X5939130D02*
X6059131D01*
X5939130Y8235628D02*
X6059131D01*
Y8515630D01*
X5939130Y8235628D02*
Y8515630D01*
X6503010D02*
X6623011D01*
X6503010Y8235628D02*
X6623011D01*
Y8515630D01*
X6503010Y8235628D02*
Y8515630D01*
%TF.MD5,438c87293d3956bf6df01c0b40c5e9ea*%
M02*
