%TF.GenerationSoftware,Altium Limited,Altium Designer,25.8.1 (18)*%
G04 Layer_Color=16711935*
%FSLAX45Y45*%
%MOMM*%
%TF.SameCoordinates,916E790F-4380-4A4C-B002-6B38F721AB2E*%
%TF.FilePolarity,Positive*%
%TF.FileFunction,Other,Mechanical_13*%
%TF.Part,Single*%
G01*
G75*
%TA.AperFunction,NonConductor*%
%ADD156C,0.10000*%
%ADD158C,0.12700*%
%ADD159C,0.20000*%
%ADD164C,0.05000*%
D156*
X15723280Y3893460D02*
G03*
X15723280Y3893460I-35000J0D01*
G01*
X15596280Y3459120D02*
G03*
X15596280Y3459120I-35000J0D01*
G01*
X15949355Y5046714D02*
X16039349Y5046706D01*
X15949350Y5216710D02*
X16039346D01*
X14366451Y3864690D02*
X14456450D01*
X14366451Y4034690D02*
X14456450D01*
X13840279Y3933293D02*
Y4023293D01*
X14010278Y3933293D02*
Y4023293D01*
X14657280Y4034690D02*
X14747279D01*
X14657280Y3864690D02*
X14747279D01*
X15266550Y3912873D02*
Y4002873D01*
X15096550Y3912873D02*
Y4002873D01*
X14118730Y4270050D02*
X14298730D01*
X14118730Y3930050D02*
X14298730D01*
X14118730D02*
Y4270050D01*
X14298730Y3930050D02*
Y4270050D01*
X13816150Y4547650D02*
X13956149D01*
X13816150Y4247650D02*
X13956149D01*
Y4547650D01*
X13816150Y4247650D02*
Y4547650D01*
X14515041Y3967562D02*
X14605038D01*
X14515041Y4137559D02*
X14605038D01*
X14828960Y4270678D02*
X15008960D01*
X14828960Y3930677D02*
X15008960D01*
X14828960D02*
Y4270678D01*
X15008960Y3930677D02*
Y4270678D01*
X13458020Y4098080D02*
X13758020D01*
X13458020Y3958080D02*
X13758020D01*
X13458020D02*
Y4098080D01*
X13758020Y3958080D02*
Y4098080D01*
X12956360Y3805690D02*
Y4105690D01*
X13096359Y3805690D02*
Y4105690D01*
X12956360Y3805690D02*
X13096359D01*
X12956360Y4105690D02*
X13096359D01*
X13206700Y4194310D02*
Y4494310D01*
X13346700Y4194310D02*
Y4494310D01*
X13206700Y4194310D02*
X13346700D01*
X13206700Y4494310D02*
X13346700D01*
X5915370Y-271900D02*
Y-181900D01*
X6085370Y-271900D02*
Y-181900D01*
X13026704Y4928026D02*
X13090344Y4991666D01*
X12906496Y5048235D02*
X12970135Y5111874D01*
X13599310Y2953110D02*
X13599310Y3043110D01*
X13769310Y2953110D02*
Y3043110D01*
X13599220Y3095350D02*
Y3185350D01*
X13769220Y3095350D02*
Y3185350D01*
X13595410Y3403960D02*
Y3493960D01*
X13765410Y3403960D02*
Y3493960D01*
X15374500Y3058520D02*
Y3148520D01*
X15204500Y3058520D02*
Y3148520D01*
X15148351Y3457300D02*
Y3547300D01*
X14978349Y3457300D02*
Y3547300D01*
X15445815Y2910394D02*
Y3000394D01*
X15275816Y2910394D02*
Y3000394D01*
X11348600Y230230D02*
Y320230D01*
X11178600Y230230D02*
Y320230D01*
X13155830Y4804120D02*
X13219470Y4867760D01*
X13276038Y4683912D02*
X13339677Y4747552D01*
X3908960Y2996400D02*
X3998960D01*
X3908960Y2826400D02*
X3998960D01*
X9688730Y2991320D02*
X9778730D01*
X9688730Y2821320D02*
X9778730D01*
X3392070Y2991320D02*
X3482070D01*
X3392070Y2821320D02*
X3482070D01*
X10773310Y2987510D02*
X10863310D01*
X10773310Y2817510D02*
X10863310D01*
X4455060Y2996400D02*
X4545060D01*
X4455060Y2826400D02*
X4545060D01*
X10187840Y2992590D02*
X10277840D01*
X10187840Y2822590D02*
X10277840D01*
X10227190Y-1485560D02*
Y-1395560D01*
X10057190Y-1485560D02*
Y-1395560D01*
X14555399Y6630228D02*
X14645401Y6630228D01*
X14555399Y6460231D02*
X14645401D01*
X13867542Y6391341D02*
Y6481343D01*
X14037540D02*
X14037540Y6391341D01*
X14184779Y1498960D02*
Y1588960D01*
X14354781Y1498960D02*
Y1588960D01*
X13839250Y1498960D02*
Y1588960D01*
X14009250Y1498960D02*
Y1588960D01*
X14355040Y2234770D02*
Y2324770D01*
X14185040Y2234770D02*
Y2324770D01*
X14009599Y2244930D02*
Y2334930D01*
X13839600Y2244930D02*
Y2334930D01*
X15213560Y2230960D02*
Y2320960D01*
X15043559Y2230960D02*
Y2320960D01*
X14880820Y2232230D02*
Y2322230D01*
X14710820Y2232230D02*
Y2322230D01*
X15054640Y1498960D02*
Y1588960D01*
X15224640Y1498960D02*
Y1588960D01*
X14705389Y1500230D02*
Y1590230D01*
X14875391Y1500230D02*
Y1590230D01*
X13959900Y4592680D02*
Y4682680D01*
X14129900Y4592680D02*
Y4682680D01*
X15119231Y4572360D02*
Y4662360D01*
X14949229Y4572360D02*
Y4662360D01*
X12190150Y-858790D02*
X12280150D01*
X12190150Y-688790D02*
X12280150D01*
X11956470Y-835930D02*
X12046470D01*
X11956470Y-665930D02*
X12046470D01*
X10057190Y-1648060D02*
X10227190D01*
X10057190Y-1553060D02*
X10227190D01*
X10057190Y-1648060D02*
Y-1553060D01*
X10227190Y-1648060D02*
Y-1553060D01*
X10923960Y-358590D02*
X11013960D01*
X10923960Y-528590D02*
X11013960D01*
X1725351Y-1967500D02*
X1815348D01*
X1725351Y-1797498D02*
X1815348D01*
X73080Y4175490D02*
X163080D01*
X73080Y4345490D02*
X163080D01*
X332160Y4174220D02*
X422160D01*
X332160Y4344220D02*
X422160D01*
X15847031Y5330551D02*
Y5420549D01*
X16017027Y5330551D02*
X16017032Y5420549D01*
X14949228Y4712060D02*
Y4802062D01*
X15119231Y4712060D02*
Y4802062D01*
X711101Y-616569D02*
X801098D01*
X711101Y-446572D02*
X801098D01*
X-485081Y4668880D02*
Y4758882D01*
X-315078Y4668880D02*
Y4758882D01*
X13706053Y5237563D02*
X13796049D01*
X13706053Y5407560D02*
X13796049D01*
X14593626Y5990952D02*
Y6080950D01*
X14763628Y5990952D02*
Y6080950D01*
X14128278Y4724280D02*
Y4814282D01*
X13958279Y4724280D02*
Y4814282D01*
X12007908Y4131668D02*
Y4221671D01*
X12177910Y4131668D02*
Y4221671D01*
X11855332Y4281529D02*
Y4371532D01*
X11685330Y4281529D02*
Y4371532D01*
X13754790Y4738100D02*
X13844792D01*
X13754790Y4908097D02*
X13844792D01*
X7065002Y2864999D02*
Y2955002D01*
X7234999Y2864999D02*
Y2955002D01*
X13378281Y4792943D02*
X13441919Y4856581D01*
X13258070Y4913153D02*
X13321709Y4976791D01*
X13013390Y5155377D02*
X13077031Y5219019D01*
X13133600Y5035168D02*
X13197241Y5098809D01*
X14642630Y4561721D02*
Y4651718D01*
X14472627Y4561721D02*
Y4651718D01*
X15462309Y5773779D02*
X15462314Y5863779D01*
X15632306Y5773782D02*
Y5863779D01*
X3386833Y8815311D02*
Y8905308D01*
X3556830Y8815311D02*
Y8905308D01*
D158*
X5729180Y-310770D02*
X6267180D01*
X5729180Y-1043770D02*
X6267180D01*
X2332510Y-2536329D02*
Y-2436329D01*
X3290621Y8231002D02*
Y8769004D01*
X2557622Y8231002D02*
Y8769004D01*
D159*
X6524180Y-336770D02*
G03*
X6524180Y-336770I-10000J0D01*
G01*
X724190Y-746650D02*
G03*
X724190Y-746650I-10000J0D01*
G01*
X3274621Y7984000D02*
G03*
X3274621Y7984000I-10000J0D01*
G01*
X13497670Y775490D02*
Y1395490D01*
X12943671D02*
X13497670D01*
X12943671Y775490D02*
Y1395490D01*
Y775490D02*
X13497670D01*
X14000310Y767870D02*
X15062309D01*
X14000310D02*
Y1387870D01*
X15062309D01*
Y767870D02*
Y1387870D01*
D164*
X13566100Y6970179D02*
G03*
X13566100Y6970179I-215900J0D01*
G01*
X12126100Y6138799D02*
G03*
X12126100Y6138799I-215900J0D01*
G01*
X13566100Y5307419D02*
G03*
X13566100Y5307419I-215900J0D01*
G01*
%TF.MD5,90a7e04e8653bd9bf13439d7753da611*%
M02*
