%TF.GenerationSoftware,Altium Limited,Altium Designer,26.5.0 (11)*%
G04 Layer_Color=16711935*
G04 Board_Origin=48523622|48129921*
%FSLAX45Y45*%
%MOMM*%
%TF.SameCoordinates,4A54F1C4-411E-4758-A6F6-B641860D93E9*%
%TF.FilePolarity,Positive*%
%TF.FileFunction,Other,Assembly_Notes*%
%TF.Part,Single*%
G01*
G75*
%TA.AperFunction,NonConductor*%
%ADD150C,0.10000*%
%ADD151C,0.20000*%
G36*
X-226090Y-1533492D02*
X-226125Y-1534544D01*
X-226160Y-1535525D01*
X-226265Y-1536402D01*
X-226370Y-1537173D01*
X-226405Y-1537488D01*
X-226440Y-1537769D01*
X-226511Y-1538049D01*
X-226546Y-1538259D01*
X-226581Y-1538435D01*
Y-1538540D01*
X-226616Y-1538610D01*
Y-1538645D01*
X-226861Y-1539451D01*
X-227106Y-1540222D01*
X-227387Y-1540888D01*
X-227632Y-1541449D01*
X-227878Y-1541905D01*
X-228053Y-1542255D01*
X-228193Y-1542466D01*
X-228228Y-1542501D01*
Y-1542536D01*
X-228684Y-1543132D01*
X-229139Y-1543692D01*
X-229630Y-1544183D01*
X-230121Y-1544604D01*
X-230542Y-1544989D01*
X-230857Y-1545235D01*
X-230997Y-1545340D01*
X-231102Y-1545410D01*
X-231137Y-1545480D01*
X-231173D01*
X-231909Y-1545971D01*
X-232680Y-1546391D01*
X-233486Y-1546777D01*
X-234222Y-1547092D01*
X-234888Y-1547338D01*
X-235168Y-1547443D01*
X-235414Y-1547548D01*
X-235589Y-1547583D01*
X-235729Y-1547653D01*
X-235834Y-1547688D01*
X-235869D01*
X-236991Y-1547969D01*
X-238113Y-1548179D01*
X-239199Y-1548354D01*
X-240216Y-1548459D01*
X-240672Y-1548494D01*
X-241092Y-1548530D01*
X-241478D01*
X-241793Y-1548565D01*
X-242074D01*
X-242249D01*
X-242389D01*
X-242424D01*
X-244002Y-1548494D01*
X-244738Y-1548459D01*
X-245439Y-1548354D01*
X-246105Y-1548249D01*
X-246736Y-1548144D01*
X-247331Y-1548039D01*
X-247892Y-1547934D01*
X-248383Y-1547793D01*
X-248804Y-1547688D01*
X-249189Y-1547583D01*
X-249505Y-1547478D01*
X-249750Y-1547373D01*
X-249960Y-1547338D01*
X-250066Y-1547268D01*
X-250101D01*
X-251292Y-1546742D01*
X-252379Y-1546146D01*
X-252870Y-1545831D01*
X-253325Y-1545515D01*
X-253746Y-1545200D01*
X-254132Y-1544884D01*
X-254482Y-1544604D01*
X-254763Y-1544323D01*
X-255043Y-1544078D01*
X-255253Y-1543868D01*
X-255428Y-1543692D01*
X-255534Y-1543552D01*
X-255604Y-1543482D01*
X-255639Y-1543447D01*
X-256235Y-1542676D01*
X-256725Y-1541870D01*
X-257111Y-1541099D01*
X-257426Y-1540362D01*
X-257672Y-1539696D01*
X-257742Y-1539416D01*
X-257812Y-1539171D01*
X-257882Y-1538995D01*
X-257917Y-1538855D01*
X-257952Y-1538750D01*
Y-1538715D01*
X-258022Y-1538329D01*
X-258128Y-1537909D01*
X-258233Y-1536962D01*
X-258338Y-1536016D01*
X-258373Y-1535070D01*
X-258408Y-1534649D01*
Y-1534228D01*
X-258443Y-1533878D01*
Y-1521820D01*
X-226090D01*
Y-1533492D01*
D02*
G37*
G36*
X-239690Y-1552701D02*
X-238288Y-1552806D01*
X-236991Y-1552946D01*
X-235799Y-1553156D01*
X-234713Y-1553402D01*
X-233731Y-1553647D01*
X-232855Y-1553928D01*
X-232084Y-1554243D01*
X-231383Y-1554523D01*
X-230787Y-1554804D01*
X-230296Y-1555049D01*
X-229911Y-1555295D01*
X-229595Y-1555505D01*
X-229385Y-1555645D01*
X-229245Y-1555750D01*
X-229210Y-1555785D01*
X-228579Y-1556381D01*
X-228018Y-1557047D01*
X-227527Y-1557678D01*
X-227106Y-1558379D01*
X-226756Y-1559045D01*
X-226440Y-1559711D01*
X-226230Y-1560377D01*
X-226020Y-1561008D01*
X-225880Y-1561604D01*
X-225775Y-1562130D01*
X-225669Y-1562620D01*
X-225634Y-1563041D01*
X-225599Y-1563392D01*
X-225564Y-1563672D01*
Y-1563882D01*
X-225634Y-1564934D01*
X-225775Y-1565915D01*
X-225985Y-1566827D01*
X-226265Y-1567598D01*
X-226370Y-1567913D01*
X-226511Y-1568229D01*
X-226616Y-1568474D01*
X-226721Y-1568684D01*
X-226791Y-1568860D01*
X-226861Y-1569000D01*
X-226931Y-1569070D01*
Y-1569105D01*
X-227492Y-1569911D01*
X-228158Y-1570647D01*
X-228824Y-1571278D01*
X-229455Y-1571769D01*
X-230051Y-1572190D01*
X-230296Y-1572330D01*
X-230507Y-1572470D01*
X-230682Y-1572575D01*
X-230822Y-1572645D01*
X-230892Y-1572715D01*
X-230927D01*
X-231944Y-1573171D01*
X-232925Y-1573487D01*
X-233872Y-1573732D01*
X-234748Y-1573872D01*
X-235133Y-1573942D01*
X-235519Y-1573977D01*
X-235834Y-1574012D01*
X-236080D01*
X-236325Y-1574047D01*
X-236465D01*
X-236571D01*
X-236606D01*
X-237447Y-1574012D01*
X-238253Y-1573942D01*
X-239024Y-1573802D01*
X-239725Y-1573627D01*
X-240391Y-1573381D01*
X-241022Y-1573171D01*
X-241583Y-1572891D01*
X-242109Y-1572645D01*
X-242564Y-1572400D01*
X-242985Y-1572120D01*
X-243336Y-1571909D01*
X-243616Y-1571699D01*
X-243861Y-1571489D01*
X-244002Y-1571348D01*
X-244107Y-1571278D01*
X-244142Y-1571243D01*
X-244668Y-1570717D01*
X-245123Y-1570157D01*
X-245509Y-1569596D01*
X-245859Y-1569000D01*
X-246140Y-1568439D01*
X-246385Y-1567878D01*
X-246560Y-1567317D01*
X-246736Y-1566827D01*
X-246841Y-1566336D01*
X-246946Y-1565880D01*
X-246981Y-1565495D01*
X-247051Y-1565144D01*
Y-1564864D01*
X-247086Y-1564653D01*
Y-1564478D01*
X-247051Y-1563637D01*
X-246911Y-1562831D01*
X-246736Y-1562095D01*
X-246560Y-1561429D01*
X-246350Y-1560868D01*
X-246245Y-1560658D01*
X-246175Y-1560447D01*
X-246105Y-1560307D01*
X-246035Y-1560202D01*
X-246000Y-1560132D01*
Y-1560097D01*
X-245544Y-1559361D01*
X-245053Y-1558695D01*
X-244527Y-1558099D01*
X-244002Y-1557573D01*
X-243511Y-1557187D01*
X-243125Y-1556872D01*
X-242985Y-1556767D01*
X-242880Y-1556697D01*
X-242811Y-1556628D01*
X-243651Y-1556662D01*
X-244492Y-1556697D01*
X-245263Y-1556732D01*
X-245964Y-1556802D01*
X-246630Y-1556907D01*
X-247261Y-1557012D01*
X-247822Y-1557082D01*
X-248313Y-1557187D01*
X-248734Y-1557293D01*
X-249119Y-1557398D01*
X-249470Y-1557503D01*
X-249715Y-1557573D01*
X-249925Y-1557643D01*
X-250101Y-1557713D01*
X-250171Y-1557748D01*
X-250206D01*
X-251117Y-1558204D01*
X-251923Y-1558660D01*
X-252624Y-1559150D01*
X-253185Y-1559641D01*
X-253641Y-1560062D01*
X-253956Y-1560377D01*
X-254061Y-1560517D01*
X-254132Y-1560622D01*
X-254202Y-1560658D01*
Y-1560693D01*
X-254552Y-1561253D01*
X-254833Y-1561814D01*
X-255008Y-1562375D01*
X-255148Y-1562901D01*
X-255218Y-1563357D01*
X-255288Y-1563742D01*
Y-1564058D01*
X-255253Y-1564478D01*
X-255218Y-1564899D01*
X-255008Y-1565670D01*
X-254763Y-1566371D01*
X-254447Y-1566932D01*
X-254132Y-1567423D01*
X-253851Y-1567773D01*
X-253746Y-1567878D01*
X-253641Y-1567983D01*
X-253606Y-1568018D01*
X-253571Y-1568054D01*
X-253115Y-1568404D01*
X-252589Y-1568684D01*
X-252028Y-1568965D01*
X-251468Y-1569175D01*
X-250977Y-1569350D01*
X-250556Y-1569456D01*
X-250381Y-1569491D01*
X-250276Y-1569526D01*
X-250206Y-1569561D01*
X-250171D01*
X-250486Y-1573522D01*
X-251187Y-1573416D01*
X-251818Y-1573241D01*
X-252414Y-1573066D01*
X-252975Y-1572856D01*
X-253501Y-1572610D01*
X-253991Y-1572365D01*
X-254447Y-1572120D01*
X-254833Y-1571874D01*
X-255183Y-1571629D01*
X-255499Y-1571383D01*
X-255779Y-1571173D01*
X-255989Y-1570963D01*
X-256165Y-1570823D01*
X-256270Y-1570682D01*
X-256340Y-1570612D01*
X-256375Y-1570577D01*
X-256760Y-1570087D01*
X-257076Y-1569596D01*
X-257391Y-1569105D01*
X-257637Y-1568579D01*
X-257847Y-1568018D01*
X-258022Y-1567528D01*
X-258268Y-1566511D01*
X-258373Y-1566056D01*
X-258443Y-1565635D01*
X-258478Y-1565249D01*
X-258513Y-1564934D01*
X-258548Y-1564689D01*
Y-1564303D01*
X-258513Y-1563357D01*
X-258373Y-1562480D01*
X-258198Y-1561639D01*
X-257952Y-1560868D01*
X-257672Y-1560132D01*
X-257356Y-1559466D01*
X-257041Y-1558835D01*
X-256690Y-1558274D01*
X-256340Y-1557783D01*
X-256024Y-1557363D01*
X-255709Y-1556977D01*
X-255428Y-1556697D01*
X-255183Y-1556451D01*
X-255008Y-1556276D01*
X-254868Y-1556171D01*
X-254833Y-1556136D01*
X-253991Y-1555540D01*
X-253045Y-1554979D01*
X-251993Y-1554523D01*
X-250907Y-1554138D01*
X-249785Y-1553787D01*
X-248663Y-1553507D01*
X-247542Y-1553297D01*
X-246420Y-1553086D01*
X-245369Y-1552946D01*
X-244387Y-1552841D01*
X-243511Y-1552771D01*
X-242740Y-1552736D01*
X-242389Y-1552701D01*
X-242109D01*
X-241828Y-1552666D01*
X-241618D01*
X-241443D01*
X-241303D01*
X-241232D01*
X-241197D01*
X-239690Y-1552701D01*
D02*
G37*
G36*
X12645252Y-852506D02*
X12642730D01*
X12642281Y-851712D01*
X12641763Y-850952D01*
X12641176Y-850226D01*
X12640589Y-849604D01*
X12640070Y-849017D01*
X12639829Y-848810D01*
X12639656Y-848603D01*
X12639483Y-848430D01*
X12639345Y-848326D01*
X12639276Y-848257D01*
X12639241Y-848223D01*
X12638309Y-847428D01*
X12637307Y-846737D01*
X12636340Y-846081D01*
X12635442Y-845528D01*
X12635062Y-845321D01*
X12634682Y-845114D01*
X12634336Y-844906D01*
X12634060Y-844768D01*
X12633818Y-844665D01*
X12633645Y-844561D01*
X12633542Y-844526D01*
X12633507Y-844492D01*
Y-840727D01*
X12634198Y-841003D01*
X12634923Y-841314D01*
X12635614Y-841659D01*
X12636236Y-841970D01*
X12636789Y-842281D01*
X12637031Y-842385D01*
X12637238Y-842523D01*
X12637411Y-842592D01*
X12637514Y-842661D01*
X12637583Y-842730D01*
X12637618D01*
X12638447Y-843248D01*
X12639172Y-843732D01*
X12639829Y-844181D01*
X12640347Y-844595D01*
X12640796Y-844941D01*
X12641107Y-845183D01*
X12641280Y-845355D01*
X12641349Y-845425D01*
Y-820518D01*
X12645252D01*
Y-852506D01*
D02*
G37*
G36*
X12613437Y-820035D02*
X12614232Y-820069D01*
X12614992Y-820173D01*
X12615717Y-820276D01*
X12616373Y-820415D01*
X12616995Y-820553D01*
X12617548Y-820726D01*
X12618031Y-820898D01*
X12618515Y-821036D01*
X12618895Y-821209D01*
X12619240Y-821347D01*
X12619517Y-821486D01*
X12619759Y-821589D01*
X12619897Y-821693D01*
X12620000Y-821727D01*
X12620035Y-821762D01*
X12620553Y-822107D01*
X12621037Y-822453D01*
X12621451Y-822833D01*
X12621866Y-823213D01*
X12622211Y-823593D01*
X12622557Y-824007D01*
X12622833Y-824353D01*
X12623075Y-824733D01*
X12623489Y-825354D01*
X12623628Y-825631D01*
X12623766Y-825873D01*
X12623869Y-826080D01*
X12623938Y-826218D01*
X12623973Y-826322D01*
Y-826356D01*
X12624180Y-826909D01*
X12624353Y-827496D01*
X12624629Y-828740D01*
X12624802Y-830018D01*
X12624940Y-831227D01*
X12624975Y-831814D01*
X12625009Y-832332D01*
X12625044Y-832781D01*
X12625078Y-833196D01*
Y-833541D01*
Y-833783D01*
Y-833921D01*
Y-833990D01*
Y-852402D01*
X12620864D01*
Y-833990D01*
X12620829Y-832920D01*
X12620795Y-831918D01*
X12620691Y-831020D01*
X12620553Y-830191D01*
X12620415Y-829465D01*
X12620242Y-828809D01*
X12620035Y-828222D01*
X12619862Y-827703D01*
X12619690Y-827254D01*
X12619482Y-826874D01*
X12619310Y-826563D01*
X12619171Y-826322D01*
X12619033Y-826149D01*
X12618964Y-826011D01*
X12618895Y-825942D01*
X12618860Y-825907D01*
X12618446Y-825527D01*
X12617997Y-825216D01*
X12617513Y-824940D01*
X12616995Y-824698D01*
X12616442Y-824491D01*
X12615890Y-824318D01*
X12614819Y-824076D01*
X12614301Y-823973D01*
X12613817Y-823904D01*
X12613368Y-823869D01*
X12612988Y-823835D01*
X12612677Y-823800D01*
X12612228D01*
X12611261Y-823835D01*
X12610363Y-823973D01*
X12609568Y-824145D01*
X12608877Y-824318D01*
X12608601Y-824422D01*
X12608359Y-824525D01*
X12608117Y-824594D01*
X12607945Y-824664D01*
X12607806Y-824733D01*
X12607703Y-824802D01*
X12607634Y-824836D01*
X12607599D01*
X12606943Y-825285D01*
X12606390Y-825769D01*
X12605941Y-826253D01*
X12605596Y-826771D01*
X12605319Y-827185D01*
X12605112Y-827565D01*
X12605043Y-827703D01*
X12605008Y-827807D01*
X12604974Y-827842D01*
Y-827876D01*
X12604836Y-828256D01*
X12604732Y-828705D01*
X12604525Y-829672D01*
X12604387Y-830674D01*
X12604317Y-831676D01*
X12604283Y-832125D01*
X12604248Y-832574D01*
Y-832954D01*
X12604214Y-833300D01*
Y-833610D01*
Y-833818D01*
Y-833956D01*
Y-833990D01*
Y-852402D01*
X12599999D01*
Y-833990D01*
Y-833058D01*
X12600069Y-832194D01*
X12600103Y-831365D01*
X12600207Y-830605D01*
X12600276Y-829880D01*
X12600379Y-829223D01*
X12600483Y-828636D01*
X12600621Y-828083D01*
X12600725Y-827600D01*
X12600828Y-827185D01*
X12600932Y-826805D01*
X12601036Y-826529D01*
X12601105Y-826287D01*
X12601174Y-826114D01*
X12601208Y-826011D01*
Y-825976D01*
X12601450Y-825458D01*
X12601727Y-824940D01*
X12602348Y-824042D01*
X12603005Y-823282D01*
X12603696Y-822660D01*
X12604007Y-822384D01*
X12604283Y-822176D01*
X12604559Y-821969D01*
X12604801Y-821796D01*
X12604974Y-821693D01*
X12605112Y-821589D01*
X12605216Y-821555D01*
X12605250Y-821520D01*
X12605803Y-821244D01*
X12606390Y-821036D01*
X12607599Y-820656D01*
X12608843Y-820380D01*
X12610017Y-820207D01*
X12610535Y-820138D01*
X12611054Y-820069D01*
X12611468Y-820035D01*
X12611848D01*
X12612159Y-820000D01*
X12612608D01*
X12613437Y-820035D01*
D02*
G37*
%LPC*%
G36*
X-229911Y-1526096D02*
X-254622D01*
Y-1533562D01*
X-254587Y-1534193D01*
X-254552Y-1534789D01*
X-254517Y-1535350D01*
X-254482Y-1535841D01*
X-254412Y-1536296D01*
X-254342Y-1536717D01*
X-254307Y-1537068D01*
X-254237Y-1537383D01*
X-254167Y-1537663D01*
X-254097Y-1537874D01*
X-254061Y-1538084D01*
X-254026Y-1538224D01*
X-253991Y-1538329D01*
X-253956Y-1538364D01*
Y-1538400D01*
X-253746Y-1538855D01*
X-253536Y-1539276D01*
X-252975Y-1540047D01*
X-252379Y-1540748D01*
X-251748Y-1541344D01*
X-251187Y-1541800D01*
X-250942Y-1542010D01*
X-250732Y-1542150D01*
X-250521Y-1542290D01*
X-250381Y-1542395D01*
X-250311Y-1542430D01*
X-250276Y-1542466D01*
X-249750Y-1542746D01*
X-249154Y-1543026D01*
X-247927Y-1543447D01*
X-246630Y-1543727D01*
X-245369Y-1543938D01*
X-244773Y-1544008D01*
X-244247Y-1544078D01*
X-243756Y-1544113D01*
X-243336D01*
X-242985Y-1544148D01*
X-242705D01*
X-242564D01*
X-242494D01*
X-241162Y-1544113D01*
X-239971Y-1544008D01*
X-239410Y-1543938D01*
X-238919Y-1543868D01*
X-238428Y-1543798D01*
X-238008Y-1543727D01*
X-237622Y-1543622D01*
X-237272Y-1543552D01*
X-236956Y-1543482D01*
X-236711Y-1543412D01*
X-236500Y-1543342D01*
X-236360Y-1543307D01*
X-236290Y-1543272D01*
X-236255D01*
X-235344Y-1542921D01*
X-234538Y-1542536D01*
X-233836Y-1542150D01*
X-233241Y-1541800D01*
X-232785Y-1541449D01*
X-232434Y-1541169D01*
X-232224Y-1540993D01*
X-232189Y-1540958D01*
X-232154Y-1540923D01*
X-231768Y-1540503D01*
X-231418Y-1540012D01*
X-231137Y-1539521D01*
X-230892Y-1539066D01*
X-230717Y-1538645D01*
X-230577Y-1538329D01*
X-230542Y-1538189D01*
X-230507Y-1538084D01*
X-230471Y-1538049D01*
Y-1538014D01*
X-230296Y-1537278D01*
X-230156Y-1536472D01*
X-230051Y-1535630D01*
X-229981Y-1534824D01*
X-229946Y-1534123D01*
Y-1533808D01*
X-229911Y-1533527D01*
Y-1526096D01*
D02*
G37*
G36*
X-242775Y-1556627D02*
X-242810D01*
X-242811Y-1556628D01*
X-242775Y-1556627D01*
D02*
G37*
G36*
X-236220Y-1557222D02*
X-236360D01*
X-236465D01*
X-236535D01*
X-236571D01*
X-237131Y-1557257D01*
X-237692Y-1557293D01*
X-238674Y-1557503D01*
X-239550Y-1557818D01*
X-239936Y-1557994D01*
X-240251Y-1558169D01*
X-240566Y-1558309D01*
X-240847Y-1558484D01*
X-241092Y-1558660D01*
X-241267Y-1558800D01*
X-241408Y-1558905D01*
X-241513Y-1559010D01*
X-241583Y-1559045D01*
X-241618Y-1559080D01*
X-241969Y-1559431D01*
X-242284Y-1559816D01*
X-242529Y-1560202D01*
X-242740Y-1560587D01*
X-243090Y-1561359D01*
X-243336Y-1562095D01*
X-243476Y-1562726D01*
X-243511Y-1563006D01*
X-243546Y-1563216D01*
X-243581Y-1563427D01*
Y-1563672D01*
X-243546Y-1564163D01*
X-243511Y-1564653D01*
X-243265Y-1565530D01*
X-242950Y-1566301D01*
X-242599Y-1566967D01*
X-242249Y-1567493D01*
X-242074Y-1567703D01*
X-241933Y-1567878D01*
X-241793Y-1568018D01*
X-241688Y-1568124D01*
X-241653Y-1568159D01*
X-241618Y-1568194D01*
X-241232Y-1568509D01*
X-240847Y-1568790D01*
X-240426Y-1569035D01*
X-239971Y-1569245D01*
X-239094Y-1569561D01*
X-238253Y-1569771D01*
X-237867Y-1569841D01*
X-237517Y-1569876D01*
X-237201Y-1569911D01*
X-236921Y-1569946D01*
X-236676Y-1569981D01*
X-236500D01*
X-236395D01*
X-236360D01*
X-235729Y-1569946D01*
X-235133Y-1569911D01*
X-234538Y-1569806D01*
X-234012Y-1569701D01*
X-233521Y-1569561D01*
X-233065Y-1569421D01*
X-232645Y-1569245D01*
X-232294Y-1569070D01*
X-231944Y-1568895D01*
X-231663Y-1568719D01*
X-231418Y-1568579D01*
X-231208Y-1568439D01*
X-231032Y-1568334D01*
X-230927Y-1568229D01*
X-230857Y-1568194D01*
X-230822Y-1568159D01*
X-230471Y-1567808D01*
X-230156Y-1567458D01*
X-229911Y-1567107D01*
X-229665Y-1566722D01*
X-229490Y-1566371D01*
X-229315Y-1565985D01*
X-229069Y-1565319D01*
X-228929Y-1564724D01*
X-228894Y-1564478D01*
X-228859Y-1564233D01*
X-228824Y-1564058D01*
Y-1563812D01*
X-228859Y-1563181D01*
X-228964Y-1562550D01*
X-229139Y-1561990D01*
X-229315Y-1561499D01*
X-229490Y-1561078D01*
X-229665Y-1560763D01*
X-229770Y-1560552D01*
X-229805Y-1560517D01*
Y-1560482D01*
X-230226Y-1559921D01*
X-230682Y-1559466D01*
X-231137Y-1559045D01*
X-231593Y-1558695D01*
X-232014Y-1558414D01*
X-232329Y-1558239D01*
X-232469Y-1558169D01*
X-232575Y-1558099D01*
X-232610Y-1558064D01*
X-232645D01*
X-233346Y-1557783D01*
X-234047Y-1557573D01*
X-234713Y-1557433D01*
X-235309Y-1557328D01*
X-235834Y-1557257D01*
X-236045D01*
X-236220Y-1557222D01*
D02*
G37*
%LPD*%
D150*
X-301290Y-1501115D02*
X-176290D01*
Y-1798615D02*
Y-1501115D01*
X-301290Y-1798615D02*
X-176290D01*
X-301290D02*
Y-1501115D01*
D151*
X12585000Y-615000D02*
X12885001D01*
Y-1065000D02*
Y-615000D01*
X12535000Y-1065000D02*
X12885001D01*
X12535000D02*
Y-665000D01*
X12585000Y-615000D01*
%TF.MD5,0f610aecfd1e88d211060ea2d1e4ea43*%
M02*
