%TF.GenerationSoftware,Altium Limited,Altium Designer,25.8.1 (18)*%
G04 Layer_Color=16711935*
%FSLAX45Y45*%
%MOMM*%
%TF.SameCoordinates,916E790F-4380-4A4C-B002-6B38F721AB2E*%
%TF.FilePolarity,Positive*%
%TF.FileFunction,Keep-out,Top*%
%TF.Part,Single*%
G01*
G75*
%TA.AperFunction,NonConductor*%
%ADD54C,0.25400*%
%ADD155C,0.50000*%
%ADD156C,0.10000*%
D54*
X1866900Y-2531910D02*
G03*
X1534990Y-2200000I-331910J0D01*
G01*
X3476324Y-2454000D02*
G03*
X3349324Y-2581000I0J-127000D01*
G01*
X16506190Y8223000D02*
G03*
X16379190Y8350000I-127000J0D01*
G01*
X15200000Y-550000D02*
G03*
X14850000Y-900000I0J-350000D01*
G01*
X12709988Y-2200000D02*
G03*
X12583130Y-2327000I71J-126929D01*
G01*
X16473000Y-550000D02*
G03*
X16600000Y-423001I0J126999D01*
G01*
X14723000Y-2200000D02*
G03*
X14849998Y-2073000I0J127000D01*
G01*
X12456130Y-2454000D02*
G03*
X12583130Y-2327000I0J127000D01*
G01*
X-550001Y-2073000D02*
G03*
X-423001Y-2200000I127000J-0D01*
G01*
X-550000Y-900000D02*
G03*
X-900000Y-550000I-350000J0D01*
G01*
X-2300000Y-423001D02*
G03*
X-2173000Y-550000I127000J0D01*
G01*
Y8350000D02*
G03*
X-2300000Y8222999I0J-127001D01*
G01*
X14850000Y9889130D02*
G03*
X14723000Y10016130I-127001J-1D01*
G01*
X-423001Y10000000D02*
G03*
X-550000Y9873001I0J-126999D01*
G01*
X1590010Y10000000D02*
G03*
X1717010Y10127000I0J127000D01*
G01*
X12583130Y10143130D02*
G03*
X12710130Y10016130I127000J0D01*
G01*
X-900000Y8350000D02*
G03*
X-550000Y8700000I0J350000D01*
G01*
X14850000D02*
G03*
X15200000Y8350000I350000J0D01*
G01*
X16600002Y5855324D02*
G03*
X16600000Y5855327I0J1D01*
G01*
X16600000Y5911510D02*
G03*
X16578293Y5963915I-74112J0D01*
G01*
X16506190Y6079534D02*
G03*
X16536960Y6005248I105056J0D01*
G01*
X1866900Y-2537519D02*
Y-2531910D01*
Y-2607310D02*
Y-2537519D01*
X3476324Y-2454000D02*
X3638170D01*
X3349324Y-2607310D02*
Y-2581000D01*
X1866900Y-2607310D02*
X3349324D01*
X1439270Y-2200000D02*
X1534990D01*
X16362357Y8350000D02*
X16379190D01*
X15200002D02*
X16362357D01*
X-423001Y-2200000D02*
X1439270D01*
X14849998Y-2073000D02*
Y-900000D01*
X12709988Y-2200000D02*
X14723000D01*
X-2173000Y-550000D02*
X-900000D01*
X15200000D02*
X16473000D01*
X-550001Y-2073000D02*
Y-900000D01*
X-2300000Y-423001D02*
Y8222999D01*
X-2173000Y8350000D02*
X-900000D01*
X1844010Y10150000D02*
X12456130D01*
X14850000Y8700000D02*
Y9889130D01*
X12710130Y10016130D02*
X14723000D01*
X-423001Y10000000D02*
X1590010D01*
X-550000Y8700001D02*
Y9873001D01*
X16506190Y7502206D02*
Y8222999D01*
X3638170Y-2454000D02*
X12456130D01*
X16600000Y5855327D02*
Y5911510D01*
X16536960Y6005248D02*
X16578293Y5963915D01*
X16506190Y6079534D02*
Y6081805D01*
Y7502206D01*
X16600002Y-423000D02*
Y5855326D01*
X1717010Y10127000D02*
Y10150000D01*
X12583000Y10143131D02*
Y10150000D01*
Y10143131D02*
X12583130D01*
X12582734Y10150000D02*
X12583131D01*
X1717010D02*
X1844010D01*
X12456130D02*
X12582734D01*
D155*
X3521610Y4446100D02*
G03*
X3674010Y4293700I152400J0D01*
G01*
Y7062300D02*
G03*
X3521610Y6909900I0J-152400D01*
G01*
X10778390D02*
G03*
X10625990Y7062300I-152400J0D01*
G01*
Y4293700D02*
G03*
X10778390Y4446100I0J152400D01*
G01*
X11231704Y5321762D02*
G03*
X11283762Y5438221I-100333J114714D01*
G01*
X11278175Y5926156D02*
G03*
X11226117Y6039125I-152390J-1745D01*
G01*
X3521610Y4446100D02*
Y6909900D01*
X3674010Y7062300D02*
X10625990D01*
X3674010Y4293700D02*
X10625990D01*
X10778390Y4446100D02*
Y4925278D01*
X11231704Y5321763D01*
X10778390Y6430722D02*
Y6909900D01*
Y6430722D02*
X11226117Y6039124D01*
X11278174Y5926156D02*
X11283762Y5438221D01*
D156*
X7290000Y2644600D02*
G03*
X7264600Y2670000I-25400J0D01*
G01*
Y1047399D02*
G03*
X7290000Y1072799I0J25400D01*
G01*
X7035650Y2670000D02*
G03*
X7010250Y2644600I0J-25400D01*
G01*
Y1072799D02*
G03*
X7035650Y1047399I25400J0D01*
G01*
X7264600D01*
X7035650Y2670000D02*
X7264600D01*
X7290000Y1072799D02*
Y2644600D01*
X7010250Y1072799D02*
Y2644600D01*
%TF.MD5,6d387a005d26aa7f9c0865ed1c3bb65a*%
M02*
