%TF.GenerationSoftware,Altium Limited,Altium Designer,26.2.0 (7)*%
G04 Layer_Color=8388736*
%FSLAX45Y45*%
%MOMM*%
%TF.SameCoordinates,19529689-9DA4-4D3B-AC8C-EF9351660A47*%
%TF.FilePolarity,Positive*%
%TF.FileFunction,Other,Top_Assembly*%
%TF.Part,Single*%
G01*
G75*
%TA.AperFunction,NonConductor*%
%ADD150C,0.10000*%
%ADD151C,0.20000*%
%ADD157C,0.05000*%
G36*
X3964880Y1932588D02*
X3973053D01*
Y1925074D01*
X3964880D01*
Y1908507D01*
X3958113D01*
X3932363Y1926040D01*
Y1932588D01*
X3958069D01*
Y1937641D01*
X3964880D01*
Y1932588D01*
D02*
G37*
G36*
X3961848Y1904641D02*
X3962155D01*
X3962551Y1904597D01*
X3962946Y1904509D01*
X3963386Y1904421D01*
X3964396Y1904201D01*
X3965495Y1903850D01*
X3966637Y1903366D01*
X3967253Y1903059D01*
X3967824Y1902707D01*
X3967868D01*
X3967956Y1902619D01*
X3968132Y1902487D01*
X3968307Y1902356D01*
X3968571Y1902136D01*
X3968879Y1901916D01*
X3969538Y1901301D01*
X3970241Y1900510D01*
X3971032Y1899587D01*
X3971735Y1898489D01*
X3972350Y1897214D01*
Y1897170D01*
X3972394Y1897039D01*
X3972482Y1896863D01*
X3972570Y1896599D01*
X3972701Y1896248D01*
X3972789Y1895808D01*
X3972921Y1895325D01*
X3973053Y1894798D01*
X3973229Y1894182D01*
X3973361Y1893523D01*
X3973448Y1892776D01*
X3973580Y1891985D01*
X3973668Y1891194D01*
X3973756Y1890272D01*
X3973800Y1889349D01*
Y1888031D01*
X3973756Y1887635D01*
Y1887108D01*
X3973712Y1886493D01*
X3973624Y1885746D01*
X3973492Y1884911D01*
X3973361Y1884032D01*
X3973185Y1883065D01*
X3972921Y1882098D01*
X3972658Y1881132D01*
X3972306Y1880165D01*
X3971911Y1879198D01*
X3971427Y1878275D01*
X3970900Y1877397D01*
X3970285Y1876562D01*
X3970241Y1876518D01*
X3970109Y1876386D01*
X3969889Y1876166D01*
X3969626Y1875903D01*
X3969230Y1875595D01*
X3968791Y1875199D01*
X3968263Y1874804D01*
X3967648Y1874408D01*
X3966945Y1873969D01*
X3966198Y1873530D01*
X3965319Y1873134D01*
X3964396Y1872739D01*
X3963386Y1872387D01*
X3962331Y1872080D01*
X3961145Y1871816D01*
X3959914Y1871640D01*
X3959123Y1879594D01*
X3959167D01*
X3959299Y1879638D01*
X3959519Y1879682D01*
X3959783Y1879725D01*
X3960134Y1879813D01*
X3960486Y1879945D01*
X3961364Y1880209D01*
X3962331Y1880604D01*
X3963342Y1881132D01*
X3964265Y1881747D01*
X3964660Y1882098D01*
X3965056Y1882494D01*
Y1882538D01*
X3965143Y1882582D01*
X3965231Y1882714D01*
X3965363Y1882889D01*
X3965495Y1883109D01*
X3965627Y1883417D01*
X3965803Y1883724D01*
X3965978Y1884076D01*
X3966330Y1884955D01*
X3966594Y1885965D01*
X3966813Y1887152D01*
X3966901Y1888470D01*
Y1888865D01*
X3966857Y1889129D01*
Y1889481D01*
X3966813Y1889832D01*
X3966681Y1890711D01*
X3966506Y1891678D01*
X3966198Y1892688D01*
X3965803Y1893655D01*
X3965539Y1894095D01*
X3965231Y1894490D01*
Y1894534D01*
X3965143Y1894578D01*
X3964924Y1894798D01*
X3964572Y1895149D01*
X3964133Y1895501D01*
X3963562Y1895852D01*
X3962858Y1896204D01*
X3962111Y1896423D01*
X3961716Y1896511D01*
X3961321D01*
X3961277D01*
X3961057D01*
X3960793Y1896467D01*
X3960486Y1896423D01*
X3960090Y1896292D01*
X3959651Y1896160D01*
X3959255Y1895940D01*
X3958860Y1895632D01*
X3958816Y1895589D01*
X3958684Y1895457D01*
X3958508Y1895237D01*
X3958245Y1894973D01*
X3957981Y1894534D01*
X3957673Y1894051D01*
X3957410Y1893435D01*
X3957102Y1892688D01*
X3957058Y1892600D01*
Y1892513D01*
X3957014Y1892381D01*
X3956970Y1892205D01*
X3956882Y1891941D01*
X3956794Y1891678D01*
X3956707Y1891326D01*
X3956575Y1890931D01*
X3956443Y1890447D01*
X3956311Y1889920D01*
X3956135Y1889305D01*
X3955960Y1888646D01*
X3955784Y1887899D01*
X3955564Y1887064D01*
X3955344Y1886141D01*
Y1886053D01*
X3955257Y1885833D01*
X3955169Y1885526D01*
X3955037Y1885086D01*
X3954905Y1884515D01*
X3954685Y1883900D01*
X3954466Y1883241D01*
X3954246Y1882538D01*
X3953631Y1881000D01*
X3952972Y1879462D01*
X3952576Y1878759D01*
X3952181Y1878056D01*
X3951785Y1877440D01*
X3951346Y1876913D01*
X3951302Y1876869D01*
X3951170Y1876737D01*
X3950994Y1876562D01*
X3950730Y1876342D01*
X3950423Y1876034D01*
X3950027Y1875727D01*
X3949588Y1875375D01*
X3949061Y1875068D01*
X3948489Y1874716D01*
X3947874Y1874365D01*
X3947171Y1874057D01*
X3946468Y1873749D01*
X3945721Y1873530D01*
X3944886Y1873354D01*
X3944051Y1873222D01*
X3943172Y1873178D01*
X3943129D01*
X3943041D01*
X3942865D01*
X3942645Y1873222D01*
X3942381D01*
X3942030Y1873266D01*
X3941283Y1873398D01*
X3940404Y1873618D01*
X3939393Y1873925D01*
X3938383Y1874365D01*
X3937372Y1874936D01*
X3937328D01*
X3937240Y1875024D01*
X3937108Y1875112D01*
X3936933Y1875243D01*
X3936449Y1875683D01*
X3935834Y1876210D01*
X3935175Y1876957D01*
X3934516Y1877792D01*
X3933857Y1878847D01*
X3933286Y1879989D01*
Y1880033D01*
X3933242Y1880121D01*
X3933154Y1880341D01*
X3933066Y1880560D01*
X3932934Y1880912D01*
X3932846Y1881263D01*
X3932714Y1881703D01*
X3932538Y1882230D01*
X3932407Y1882801D01*
X3932275Y1883373D01*
X3932187Y1884032D01*
X3932055Y1884735D01*
X3931967Y1885526D01*
X3931879Y1886273D01*
X3931835Y1887987D01*
Y1888734D01*
X3931879Y1889217D01*
X3931923Y1889876D01*
X3932011Y1890579D01*
X3932099Y1891414D01*
X3932275Y1892293D01*
X3932451Y1893172D01*
X3932670Y1894138D01*
X3932934Y1895105D01*
X3933242Y1896028D01*
X3933637Y1896951D01*
X3934120Y1897874D01*
X3934604Y1898708D01*
X3935219Y1899455D01*
X3935263Y1899499D01*
X3935351Y1899631D01*
X3935570Y1899807D01*
X3935834Y1900071D01*
X3936142Y1900378D01*
X3936581Y1900686D01*
X3937065Y1901037D01*
X3937592Y1901433D01*
X3938207Y1901784D01*
X3938866Y1902136D01*
X3939613Y1902487D01*
X3940404Y1902795D01*
X3941239Y1903103D01*
X3942162Y1903322D01*
X3943129Y1903454D01*
X3944139Y1903542D01*
X3944447Y1895369D01*
X3944403D01*
X3944315Y1895325D01*
X3944139D01*
X3943963Y1895281D01*
X3943700Y1895193D01*
X3943392Y1895105D01*
X3942733Y1894885D01*
X3942030Y1894578D01*
X3941283Y1894182D01*
X3940580Y1893699D01*
X3940009Y1893084D01*
X3939965Y1892996D01*
X3939789Y1892776D01*
X3939569Y1892381D01*
X3939306Y1891810D01*
X3939042Y1891063D01*
X3938822Y1890184D01*
X3938646Y1889129D01*
X3938602Y1887899D01*
Y1887327D01*
X3938646Y1887020D01*
X3938690Y1886668D01*
X3938778Y1885833D01*
X3938954Y1884955D01*
X3939218Y1883988D01*
X3939613Y1883109D01*
X3940097Y1882274D01*
X3940140Y1882230D01*
X3940272Y1882098D01*
X3940492Y1881879D01*
X3940756Y1881659D01*
X3941107Y1881395D01*
X3941547Y1881220D01*
X3942030Y1881044D01*
X3942601Y1881000D01*
X3942645D01*
X3942821D01*
X3943129Y1881044D01*
X3943436Y1881132D01*
X3943832Y1881307D01*
X3944271Y1881483D01*
X3944666Y1881791D01*
X3945062Y1882186D01*
X3945106Y1882274D01*
X3945194Y1882362D01*
X3945282Y1882538D01*
X3945413Y1882714D01*
X3945545Y1882977D01*
X3945721Y1883329D01*
X3945897Y1883724D01*
X3946073Y1884164D01*
X3946292Y1884691D01*
X3946512Y1885306D01*
X3946732Y1886009D01*
X3946995Y1886800D01*
X3947259Y1887679D01*
X3947523Y1888646D01*
X3947786Y1889700D01*
Y1889788D01*
X3947830Y1889964D01*
X3947918Y1890272D01*
X3948006Y1890667D01*
X3948138Y1891194D01*
X3948314Y1891722D01*
X3948489Y1892381D01*
X3948665Y1893040D01*
X3949105Y1894490D01*
X3949588Y1895940D01*
X3949852Y1896643D01*
X3950115Y1897346D01*
X3950423Y1897961D01*
X3950687Y1898533D01*
Y1898577D01*
X3950774Y1898664D01*
X3950862Y1898796D01*
X3950950Y1899016D01*
X3951302Y1899543D01*
X3951741Y1900202D01*
X3952356Y1900906D01*
X3953059Y1901653D01*
X3953894Y1902400D01*
X3954817Y1903059D01*
X3954861D01*
X3954949Y1903147D01*
X3955081Y1903191D01*
X3955300Y1903322D01*
X3955564Y1903454D01*
X3955872Y1903586D01*
X3956223Y1903718D01*
X3956619Y1903894D01*
X3957058Y1904025D01*
X3957541Y1904157D01*
X3958640Y1904421D01*
X3959914Y1904597D01*
X3961277Y1904685D01*
X3961321D01*
X3961408D01*
X3961628D01*
X3961848Y1904641D01*
D02*
G37*
G36*
X10338477Y1929137D02*
X10338433D01*
X10338301Y1929093D01*
X10338081Y1929049D01*
X10337818Y1929006D01*
X10337466Y1928918D01*
X10337115Y1928786D01*
X10336236Y1928522D01*
X10335269Y1928127D01*
X10334258Y1927599D01*
X10333336Y1926984D01*
X10332940Y1926633D01*
X10332545Y1926237D01*
Y1926193D01*
X10332457Y1926149D01*
X10332369Y1926017D01*
X10332237Y1925842D01*
X10332105Y1925622D01*
X10331973Y1925314D01*
X10331798Y1925007D01*
X10331622Y1924655D01*
X10331270Y1923776D01*
X10331007Y1922766D01*
X10330787Y1921579D01*
X10330699Y1920261D01*
Y1919866D01*
X10330743Y1919602D01*
Y1919250D01*
X10330787Y1918899D01*
X10330919Y1918020D01*
X10331095Y1917053D01*
X10331402Y1916043D01*
X10331798Y1915076D01*
X10332061Y1914637D01*
X10332369Y1914241D01*
Y1914197D01*
X10332457Y1914153D01*
X10332677Y1913933D01*
X10333028Y1913582D01*
X10333468Y1913230D01*
X10334039Y1912879D01*
X10334742Y1912527D01*
X10335489Y1912308D01*
X10335884Y1912220D01*
X10336280D01*
X10336324D01*
X10336543D01*
X10336807Y1912264D01*
X10337115Y1912308D01*
X10337510Y1912439D01*
X10337950Y1912571D01*
X10338345Y1912791D01*
X10338741Y1913099D01*
X10338785Y1913142D01*
X10338916Y1913274D01*
X10339092Y1913494D01*
X10339356Y1913758D01*
X10339619Y1914197D01*
X10339927Y1914680D01*
X10340191Y1915296D01*
X10340498Y1916043D01*
X10340542Y1916131D01*
Y1916218D01*
X10340586Y1916350D01*
X10340630Y1916526D01*
X10340718Y1916790D01*
X10340806Y1917053D01*
X10340894Y1917405D01*
X10341026Y1917800D01*
X10341157Y1918284D01*
X10341289Y1918811D01*
X10341465Y1919426D01*
X10341641Y1920085D01*
X10341817Y1920832D01*
X10342036Y1921667D01*
X10342256Y1922590D01*
Y1922678D01*
X10342344Y1922898D01*
X10342432Y1923205D01*
X10342564Y1923645D01*
X10342695Y1924216D01*
X10342915Y1924831D01*
X10343135Y1925490D01*
X10343354Y1926193D01*
X10343970Y1927731D01*
X10344629Y1929269D01*
X10345024Y1929972D01*
X10345420Y1930675D01*
X10345815Y1931291D01*
X10346255Y1931818D01*
X10346299Y1931862D01*
X10346430Y1931994D01*
X10346606Y1932169D01*
X10346870Y1932389D01*
X10347177Y1932697D01*
X10347573Y1933004D01*
X10348012Y1933356D01*
X10348540Y1933663D01*
X10349111Y1934015D01*
X10349726Y1934366D01*
X10350429Y1934674D01*
X10351132Y1934982D01*
X10351879Y1935201D01*
X10352714Y1935377D01*
X10353549Y1935509D01*
X10354428Y1935553D01*
X10354472D01*
X10354560D01*
X10354735D01*
X10354955Y1935509D01*
X10355219D01*
X10355570Y1935465D01*
X10356317Y1935333D01*
X10357196Y1935113D01*
X10358207Y1934806D01*
X10359218Y1934366D01*
X10360228Y1933795D01*
X10360272D01*
X10360360Y1933707D01*
X10360492Y1933619D01*
X10360668Y1933488D01*
X10361151Y1933048D01*
X10361766Y1932521D01*
X10362425Y1931774D01*
X10363084Y1930939D01*
X10363744Y1929884D01*
X10364315Y1928742D01*
Y1928698D01*
X10364359Y1928610D01*
X10364447Y1928390D01*
X10364535Y1928171D01*
X10364666Y1927819D01*
X10364754Y1927468D01*
X10364886Y1927028D01*
X10365062Y1926501D01*
X10365194Y1925930D01*
X10365325Y1925358D01*
X10365413Y1924699D01*
X10365545Y1923996D01*
X10365633Y1923205D01*
X10365721Y1922458D01*
X10365765Y1920744D01*
Y1919997D01*
X10365721Y1919514D01*
X10365677Y1918855D01*
X10365589Y1918152D01*
X10365501Y1917317D01*
X10365325Y1916438D01*
X10365150Y1915559D01*
X10364930Y1914593D01*
X10364666Y1913626D01*
X10364359Y1912703D01*
X10363963Y1911780D01*
X10363480Y1910857D01*
X10362997Y1910023D01*
X10362381Y1909276D01*
X10362337Y1909232D01*
X10362250Y1909100D01*
X10362030Y1908924D01*
X10361766Y1908660D01*
X10361459Y1908353D01*
X10361019Y1908045D01*
X10360536Y1907694D01*
X10360008Y1907298D01*
X10359393Y1906947D01*
X10358734Y1906595D01*
X10357987Y1906244D01*
X10357196Y1905936D01*
X10356361Y1905628D01*
X10355439Y1905409D01*
X10354472Y1905277D01*
X10353461Y1905189D01*
X10353154Y1913362D01*
X10353197D01*
X10353285Y1913406D01*
X10353461D01*
X10353637Y1913450D01*
X10353901Y1913538D01*
X10354208Y1913626D01*
X10354867Y1913846D01*
X10355570Y1914153D01*
X10356317Y1914549D01*
X10357020Y1915032D01*
X10357592Y1915647D01*
X10357636Y1915735D01*
X10357811Y1915955D01*
X10358031Y1916350D01*
X10358295Y1916921D01*
X10358558Y1917669D01*
X10358778Y1918547D01*
X10358954Y1919602D01*
X10358998Y1920832D01*
Y1921404D01*
X10358954Y1921711D01*
X10358910Y1922063D01*
X10358822Y1922898D01*
X10358646Y1923776D01*
X10358383Y1924743D01*
X10357987Y1925622D01*
X10357504Y1926457D01*
X10357460Y1926501D01*
X10357328Y1926633D01*
X10357108Y1926852D01*
X10356845Y1927072D01*
X10356493Y1927336D01*
X10356054Y1927512D01*
X10355570Y1927687D01*
X10354999Y1927731D01*
X10354955D01*
X10354779D01*
X10354472Y1927687D01*
X10354164Y1927599D01*
X10353769Y1927424D01*
X10353329Y1927248D01*
X10352934Y1926940D01*
X10352538Y1926545D01*
X10352494Y1926457D01*
X10352407Y1926369D01*
X10352319Y1926193D01*
X10352187Y1926017D01*
X10352055Y1925754D01*
X10351879Y1925402D01*
X10351703Y1925007D01*
X10351528Y1924567D01*
X10351308Y1924040D01*
X10351088Y1923425D01*
X10350869Y1922722D01*
X10350605Y1921931D01*
X10350341Y1921052D01*
X10350078Y1920085D01*
X10349814Y1919031D01*
Y1918943D01*
X10349770Y1918767D01*
X10349682Y1918459D01*
X10349594Y1918064D01*
X10349462Y1917537D01*
X10349287Y1917009D01*
X10349111Y1916350D01*
X10348935Y1915691D01*
X10348496Y1914241D01*
X10348012Y1912791D01*
X10347749Y1912088D01*
X10347485Y1911385D01*
X10347177Y1910770D01*
X10346914Y1910198D01*
Y1910154D01*
X10346826Y1910067D01*
X10346738Y1909935D01*
X10346650Y1909715D01*
X10346299Y1909188D01*
X10345859Y1908529D01*
X10345244Y1907825D01*
X10344541Y1907078D01*
X10343706Y1906331D01*
X10342783Y1905672D01*
X10342739D01*
X10342651Y1905584D01*
X10342520Y1905541D01*
X10342300Y1905409D01*
X10342036Y1905277D01*
X10341729Y1905145D01*
X10341377Y1905013D01*
X10340982Y1904837D01*
X10340542Y1904706D01*
X10340059Y1904574D01*
X10338960Y1904310D01*
X10337686Y1904134D01*
X10336324Y1904046D01*
X10336280D01*
X10336192D01*
X10335972D01*
X10335753Y1904090D01*
X10335445D01*
X10335049Y1904134D01*
X10334654Y1904222D01*
X10334215Y1904310D01*
X10333204Y1904530D01*
X10332105Y1904881D01*
X10330963Y1905365D01*
X10330348Y1905672D01*
X10329776Y1906024D01*
X10329732D01*
X10329645Y1906112D01*
X10329469Y1906244D01*
X10329293Y1906375D01*
X10329029Y1906595D01*
X10328722Y1906815D01*
X10328063Y1907430D01*
X10327360Y1908221D01*
X10326569Y1909144D01*
X10325866Y1910242D01*
X10325250Y1911517D01*
Y1911561D01*
X10325206Y1911692D01*
X10325119Y1911868D01*
X10325031Y1912132D01*
X10324899Y1912483D01*
X10324811Y1912923D01*
X10324679Y1913406D01*
X10324547Y1913933D01*
X10324372Y1914549D01*
X10324240Y1915208D01*
X10324152Y1915955D01*
X10324020Y1916746D01*
X10323932Y1917537D01*
X10323844Y1918459D01*
X10323800Y1919382D01*
Y1920701D01*
X10323844Y1921096D01*
Y1921623D01*
X10323888Y1922238D01*
X10323976Y1922985D01*
X10324108Y1923820D01*
X10324240Y1924699D01*
X10324415Y1925666D01*
X10324679Y1926633D01*
X10324943Y1927599D01*
X10325294Y1928566D01*
X10325690Y1929533D01*
X10326173Y1930456D01*
X10326700Y1931334D01*
X10327316Y1932169D01*
X10327360Y1932213D01*
X10327491Y1932345D01*
X10327711Y1932565D01*
X10327975Y1932828D01*
X10328370Y1933136D01*
X10328810Y1933532D01*
X10329337Y1933927D01*
X10329952Y1934323D01*
X10330655Y1934762D01*
X10331402Y1935201D01*
X10332281Y1935597D01*
X10333204Y1935992D01*
X10334215Y1936344D01*
X10335269Y1936651D01*
X10336456Y1936915D01*
X10337686Y1937091D01*
X10338477Y1929137D01*
D02*
G37*
G36*
X10336192Y1891655D02*
X10336148D01*
X10336060D01*
X10335928Y1891611D01*
X10335709Y1891567D01*
X10335181Y1891479D01*
X10334566Y1891259D01*
X10333819Y1891040D01*
X10333116Y1890688D01*
X10332369Y1890249D01*
X10331754Y1889721D01*
X10331710Y1889634D01*
X10331534Y1889458D01*
X10331270Y1889106D01*
X10331007Y1888667D01*
X10330743Y1888096D01*
X10330479Y1887436D01*
X10330304Y1886689D01*
X10330260Y1885898D01*
Y1885679D01*
X10330304Y1885503D01*
X10330348Y1885064D01*
X10330479Y1884492D01*
X10330699Y1883833D01*
X10331007Y1883174D01*
X10331446Y1882471D01*
X10332061Y1881812D01*
X10332149Y1881724D01*
X10332413Y1881548D01*
X10332808Y1881285D01*
X10333380Y1880977D01*
X10334083Y1880669D01*
X10334918Y1880406D01*
X10335884Y1880230D01*
X10336983Y1880142D01*
X10337027D01*
X10337115D01*
X10337247D01*
X10337466Y1880186D01*
X10337730D01*
X10337994Y1880230D01*
X10338653Y1880318D01*
X10339400Y1880538D01*
X10340191Y1880801D01*
X10340938Y1881197D01*
X10341641Y1881724D01*
X10341729Y1881812D01*
X10341904Y1881988D01*
X10342212Y1882339D01*
X10342520Y1882779D01*
X10342827Y1883350D01*
X10343135Y1884009D01*
X10343311Y1884756D01*
X10343398Y1885591D01*
Y1885854D01*
X10343354Y1886162D01*
X10343311Y1886602D01*
X10343267Y1887129D01*
X10343135Y1887700D01*
X10343003Y1888403D01*
X10342783Y1889150D01*
X10349111Y1888315D01*
Y1887788D01*
X10349155Y1887524D01*
Y1887217D01*
X10349243Y1886514D01*
X10349375Y1885723D01*
X10349638Y1884932D01*
X10349990Y1884185D01*
X10350429Y1883482D01*
X10350517Y1883394D01*
X10350693Y1883218D01*
X10351000Y1882954D01*
X10351440Y1882603D01*
X10352011Y1882295D01*
X10352670Y1882032D01*
X10353417Y1881856D01*
X10354296Y1881768D01*
X10354340D01*
X10354384D01*
X10354648D01*
X10354999Y1881812D01*
X10355482Y1881900D01*
X10355966Y1882075D01*
X10356537Y1882295D01*
X10357064Y1882603D01*
X10357548Y1882998D01*
X10357592Y1883042D01*
X10357724Y1883218D01*
X10357943Y1883482D01*
X10358163Y1883877D01*
X10358383Y1884360D01*
X10358602Y1884888D01*
X10358734Y1885547D01*
X10358778Y1886294D01*
Y1886645D01*
X10358690Y1886997D01*
X10358602Y1887480D01*
X10358427Y1888008D01*
X10358207Y1888579D01*
X10357855Y1889150D01*
X10357372Y1889721D01*
X10357328Y1889765D01*
X10357108Y1889941D01*
X10356801Y1890161D01*
X10356361Y1890468D01*
X10355790Y1890776D01*
X10355131Y1891040D01*
X10354296Y1891259D01*
X10353373Y1891435D01*
X10354560Y1898598D01*
X10354604D01*
X10354735Y1898554D01*
X10354911Y1898510D01*
X10355175Y1898466D01*
X10355482Y1898378D01*
X10355834Y1898290D01*
X10356669Y1898026D01*
X10357636Y1897719D01*
X10358602Y1897323D01*
X10359569Y1896884D01*
X10360448Y1896357D01*
X10360492D01*
X10360536Y1896269D01*
X10360799Y1896093D01*
X10361239Y1895741D01*
X10361722Y1895258D01*
X10362293Y1894687D01*
X10362865Y1893984D01*
X10363436Y1893149D01*
X10363963Y1892182D01*
Y1892138D01*
X10364007Y1892050D01*
X10364095Y1891918D01*
X10364183Y1891699D01*
X10364271Y1891435D01*
X10364359Y1891128D01*
X10364491Y1890776D01*
X10364622Y1890381D01*
X10364842Y1889502D01*
X10365062Y1888447D01*
X10365194Y1887305D01*
X10365238Y1886074D01*
Y1885811D01*
X10365194Y1885503D01*
Y1885107D01*
X10365106Y1884624D01*
X10365062Y1884053D01*
X10364930Y1883438D01*
X10364798Y1882779D01*
X10364578Y1882032D01*
X10364359Y1881285D01*
X10364051Y1880538D01*
X10363700Y1879791D01*
X10363260Y1879000D01*
X10362777Y1878253D01*
X10362206Y1877549D01*
X10361546Y1876890D01*
X10361503Y1876846D01*
X10361415Y1876759D01*
X10361239Y1876627D01*
X10361019Y1876451D01*
X10360756Y1876231D01*
X10360404Y1875968D01*
X10360008Y1875704D01*
X10359569Y1875440D01*
X10358602Y1874913D01*
X10357460Y1874430D01*
X10356845Y1874254D01*
X10356186Y1874122D01*
X10355526Y1874034D01*
X10354823Y1873990D01*
X10354779D01*
X10354604D01*
X10354296Y1874034D01*
X10353944Y1874078D01*
X10353505Y1874166D01*
X10352978Y1874298D01*
X10352363Y1874474D01*
X10351747Y1874737D01*
X10351088Y1875045D01*
X10350385Y1875396D01*
X10349682Y1875880D01*
X10348979Y1876451D01*
X10348276Y1877110D01*
X10347573Y1877901D01*
X10346914Y1878824D01*
X10346299Y1879834D01*
Y1879791D01*
X10346255Y1879659D01*
X10346211Y1879483D01*
X10346123Y1879263D01*
X10346035Y1878956D01*
X10345903Y1878604D01*
X10345596Y1877857D01*
X10345156Y1876934D01*
X10344541Y1876011D01*
X10343838Y1875133D01*
X10343398Y1874693D01*
X10342915Y1874298D01*
X10342871Y1874254D01*
X10342783Y1874210D01*
X10342651Y1874122D01*
X10342476Y1873946D01*
X10342212Y1873814D01*
X10341904Y1873639D01*
X10341553Y1873419D01*
X10341157Y1873243D01*
X10340235Y1872848D01*
X10339180Y1872496D01*
X10337950Y1872276D01*
X10337290Y1872232D01*
X10336631Y1872189D01*
X10336587D01*
X10336412D01*
X10336104Y1872232D01*
X10335753D01*
X10335269Y1872320D01*
X10334742Y1872408D01*
X10334171Y1872496D01*
X10333511Y1872672D01*
X10332808Y1872892D01*
X10332061Y1873155D01*
X10331314Y1873463D01*
X10330567Y1873858D01*
X10329776Y1874298D01*
X10329029Y1874825D01*
X10328282Y1875396D01*
X10327535Y1876099D01*
X10327491Y1876143D01*
X10327360Y1876275D01*
X10327184Y1876495D01*
X10326964Y1876802D01*
X10326657Y1877198D01*
X10326349Y1877637D01*
X10325997Y1878165D01*
X10325690Y1878780D01*
X10325338Y1879439D01*
X10324987Y1880186D01*
X10324679Y1881021D01*
X10324372Y1881856D01*
X10324152Y1882779D01*
X10323976Y1883745D01*
X10323844Y1884800D01*
X10323800Y1885854D01*
Y1886118D01*
X10323844Y1886382D01*
Y1886777D01*
X10323888Y1887217D01*
X10323976Y1887788D01*
X10324064Y1888403D01*
X10324196Y1889062D01*
X10324372Y1889765D01*
X10324591Y1890512D01*
X10324811Y1891259D01*
X10325119Y1892006D01*
X10325514Y1892797D01*
X10325909Y1893544D01*
X10326393Y1894291D01*
X10326964Y1894994D01*
X10327008Y1895038D01*
X10327096Y1895170D01*
X10327272Y1895346D01*
X10327535Y1895566D01*
X10327843Y1895829D01*
X10328238Y1896181D01*
X10328678Y1896488D01*
X10329205Y1896884D01*
X10329776Y1897235D01*
X10330392Y1897587D01*
X10331051Y1897939D01*
X10331798Y1898290D01*
X10332589Y1898554D01*
X10333424Y1898817D01*
X10334346Y1899037D01*
X10335269Y1899169D01*
X10336192Y1891655D01*
D02*
G37*
G36*
X7105059Y5697387D02*
X7107967Y5697122D01*
X7110876Y5696858D01*
X7114313Y5696593D01*
X7121717Y5695536D01*
X7129914Y5693949D01*
X7138110Y5691570D01*
X7146043Y5688661D01*
X7146307D01*
X7146836Y5688132D01*
X7148158Y5687868D01*
X7149480Y5687074D01*
X7151067Y5686017D01*
X7153182Y5684959D01*
X7157677Y5682315D01*
X7162965Y5678613D01*
X7168254Y5674118D01*
X7173278Y5669094D01*
X7177773Y5663013D01*
X7178037Y5662748D01*
X7178301Y5662220D01*
X7178830Y5661426D01*
X7179623Y5660104D01*
X7180417Y5658518D01*
X7181474Y5656667D01*
X7182268Y5654287D01*
X7183590Y5651907D01*
X7185705Y5646355D01*
X7187556Y5639744D01*
X7189142Y5632605D01*
X7189936Y5624673D01*
X7158999Y5622293D01*
Y5622557D01*
X7158735Y5623351D01*
Y5624408D01*
X7158470Y5625995D01*
X7157941Y5628110D01*
X7157413Y5630225D01*
X7155826Y5635249D01*
X7153711Y5640802D01*
X7150538Y5646619D01*
X7146836Y5652172D01*
X7144456Y5654552D01*
X7141812Y5656931D01*
X7141548Y5657196D01*
X7141283Y5657460D01*
X7140226Y5657989D01*
X7139168Y5658782D01*
X7137582Y5659575D01*
X7135731Y5660633D01*
X7133615Y5661691D01*
X7131236Y5663013D01*
X7128327Y5664070D01*
X7125154Y5665128D01*
X7121717Y5666186D01*
X7118015Y5666979D01*
X7113784Y5667772D01*
X7109289Y5668301D01*
X7104530Y5668830D01*
X7096862D01*
X7094747Y5668565D01*
X7092367D01*
X7089723Y5668301D01*
X7086550Y5668037D01*
X7083377Y5667508D01*
X7076238Y5666186D01*
X7069363Y5664335D01*
X7062752Y5661691D01*
X7059579Y5659840D01*
X7056935Y5657989D01*
X7056671D01*
X7056407Y5657460D01*
X7054820Y5656138D01*
X7052705Y5653758D01*
X7050325Y5650585D01*
X7047945Y5646884D01*
X7045830Y5642389D01*
X7044243Y5637629D01*
X7043979Y5634985D01*
X7043715Y5632076D01*
Y5631812D01*
Y5631548D01*
X7043979Y5629961D01*
X7044243Y5627581D01*
X7044772Y5624673D01*
X7046094Y5621235D01*
X7047681Y5617534D01*
X7049796Y5614096D01*
X7052969Y5610659D01*
X7053498Y5610394D01*
X7054027Y5609866D01*
X7055084Y5609072D01*
X7056407Y5608279D01*
X7057993Y5607486D01*
X7060108Y5606428D01*
X7062488Y5605106D01*
X7065397Y5603784D01*
X7068834Y5602462D01*
X7072800Y5601140D01*
X7077295Y5599553D01*
X7082583Y5597967D01*
X7088136Y5596380D01*
X7094482Y5594530D01*
X7101621Y5592943D01*
X7102150D01*
X7103472Y5592679D01*
X7105323Y5592150D01*
X7107967Y5591357D01*
X7111140Y5590828D01*
X7114842Y5589770D01*
X7118808Y5588977D01*
X7123039Y5587655D01*
X7132029Y5585275D01*
X7141019Y5582895D01*
X7145250Y5581573D01*
X7148951Y5580251D01*
X7152653Y5578929D01*
X7155562Y5577607D01*
X7155826D01*
X7156619Y5577078D01*
X7157677Y5576549D01*
X7158999Y5575756D01*
X7160850Y5574963D01*
X7162965Y5573641D01*
X7167460Y5570732D01*
X7172749Y5567295D01*
X7177773Y5563064D01*
X7182796Y5558040D01*
X7184912Y5555396D01*
X7187027Y5552752D01*
Y5552488D01*
X7187556Y5551959D01*
X7188085Y5551166D01*
X7188614Y5550108D01*
X7189407Y5548786D01*
X7190200Y5546935D01*
X7192315Y5542704D01*
X7194166Y5537681D01*
X7195753Y5531863D01*
X7196810Y5525253D01*
X7197339Y5518114D01*
Y5517850D01*
Y5517321D01*
Y5516263D01*
X7197075Y5514941D01*
Y5513090D01*
X7196810Y5511239D01*
X7196017Y5506215D01*
X7194695Y5500663D01*
X7192580Y5494581D01*
X7189671Y5488235D01*
X7188085Y5484798D01*
X7185969Y5481625D01*
Y5481360D01*
X7185441Y5480832D01*
X7184912Y5480038D01*
X7183854Y5478716D01*
X7181474Y5475808D01*
X7177773Y5471841D01*
X7173278Y5467611D01*
X7167725Y5463116D01*
X7161379Y5458885D01*
X7153975Y5454919D01*
X7153711D01*
X7152918Y5454390D01*
X7151860Y5454126D01*
X7150273Y5453333D01*
X7148423Y5452804D01*
X7146043Y5452010D01*
X7143399Y5450953D01*
X7140226Y5450160D01*
X7137053Y5449366D01*
X7133351Y5448309D01*
X7125419Y5446987D01*
X7116693Y5445929D01*
X7107174Y5445400D01*
X7104001D01*
X7101621Y5445664D01*
X7098713D01*
X7095540Y5445929D01*
X7091838Y5446193D01*
X7087607Y5446722D01*
X7078882Y5447780D01*
X7069627Y5449366D01*
X7060373Y5451746D01*
X7051383Y5454919D01*
X7051118D01*
X7050325Y5455448D01*
X7049267Y5455977D01*
X7047681Y5456770D01*
X7045830Y5457828D01*
X7043715Y5458885D01*
X7038691Y5462058D01*
X7033138Y5466024D01*
X7027321Y5471048D01*
X7021504Y5476865D01*
X7016480Y5483740D01*
X7016216Y5484005D01*
X7015951Y5484533D01*
X7015422Y5485591D01*
X7014629Y5487177D01*
X7013571Y5489028D01*
X7012514Y5491144D01*
X7011192Y5493788D01*
X7010134Y5496696D01*
X7008812Y5499605D01*
X7007754Y5503042D01*
X7005639Y5510710D01*
X7004053Y5518907D01*
X7003524Y5523402D01*
X7003259Y5527897D01*
X7033667Y5530541D01*
Y5530277D01*
Y5529748D01*
X7033931Y5528690D01*
X7034196Y5527368D01*
X7034460Y5525782D01*
X7034725Y5524195D01*
X7035782Y5519700D01*
X7037104Y5514941D01*
X7038691Y5509917D01*
X7040806Y5504893D01*
X7043450Y5500134D01*
X7043715Y5499605D01*
X7045037Y5498283D01*
X7046888Y5496168D01*
X7049532Y5493523D01*
X7052969Y5490350D01*
X7057200Y5487442D01*
X7062224Y5484269D01*
X7068041Y5481360D01*
X7068305D01*
X7068834Y5481096D01*
X7069627Y5480832D01*
X7070949Y5480303D01*
X7072536Y5479774D01*
X7074387Y5478981D01*
X7076502Y5478452D01*
X7078882Y5477923D01*
X7084434Y5476601D01*
X7091045Y5475279D01*
X7097920Y5474486D01*
X7105588Y5474221D01*
X7108760D01*
X7110347Y5474486D01*
X7112198D01*
X7116428Y5475014D01*
X7121452Y5475543D01*
X7127005Y5476337D01*
X7132558Y5477659D01*
X7137846Y5479509D01*
X7138110D01*
X7138375Y5479774D01*
X7139168Y5480038D01*
X7140226Y5480567D01*
X7142605Y5481889D01*
X7145778Y5483476D01*
X7149216Y5485591D01*
X7152918Y5488235D01*
X7156091Y5491144D01*
X7158999Y5494581D01*
X7159264Y5495110D01*
X7160057Y5496168D01*
X7161379Y5498283D01*
X7162701Y5500927D01*
X7163759Y5504100D01*
X7165081Y5507537D01*
X7165874Y5511504D01*
X7166138Y5515470D01*
Y5515734D01*
Y5515999D01*
Y5517321D01*
X7165874Y5519700D01*
X7165345Y5522345D01*
X7164552Y5525518D01*
X7163230Y5528955D01*
X7161643Y5532392D01*
X7159264Y5535565D01*
X7158999Y5535830D01*
X7157941Y5536887D01*
X7156355Y5538474D01*
X7153975Y5540589D01*
X7151067Y5542704D01*
X7147101Y5545084D01*
X7142605Y5547464D01*
X7137317Y5549844D01*
X7136788Y5550108D01*
X7136260Y5550372D01*
X7135202Y5550637D01*
X7134144Y5550901D01*
X7132558Y5551430D01*
X7130442Y5552223D01*
X7128327Y5552752D01*
X7125419Y5553545D01*
X7122510Y5554603D01*
X7118808Y5555396D01*
X7114842Y5556454D01*
X7110347Y5557776D01*
X7105588Y5558834D01*
X7100035Y5560420D01*
X7093953Y5561742D01*
X7093689D01*
X7092631Y5562007D01*
X7090780Y5562535D01*
X7088665Y5563064D01*
X7085756Y5563858D01*
X7082583Y5564651D01*
X7079411Y5565708D01*
X7075709Y5566766D01*
X7067776Y5569146D01*
X7060108Y5571790D01*
X7056407Y5573112D01*
X7052969Y5574434D01*
X7049796Y5575756D01*
X7047152Y5577078D01*
X7046888D01*
X7046359Y5577607D01*
X7045566Y5578136D01*
X7044243Y5578665D01*
X7041070Y5580516D01*
X7037369Y5583160D01*
X7032874Y5586597D01*
X7028643Y5590299D01*
X7024412Y5594794D01*
X7020975Y5599553D01*
Y5599818D01*
X7020711Y5600082D01*
X7020182Y5600876D01*
X7019653Y5601933D01*
X7018331Y5604842D01*
X7016744Y5608544D01*
X7015158Y5613039D01*
X7013836Y5618327D01*
X7012778Y5624144D01*
X7012514Y5630225D01*
Y5630490D01*
Y5631019D01*
Y5632076D01*
X7012778Y5633398D01*
Y5634985D01*
X7013043Y5636836D01*
X7013836Y5641595D01*
X7015158Y5646884D01*
X7016744Y5652436D01*
X7019389Y5658518D01*
X7022826Y5664599D01*
Y5664864D01*
X7023355Y5665393D01*
X7023884Y5666186D01*
X7024677Y5667243D01*
X7027321Y5670152D01*
X7030758Y5673854D01*
X7034989Y5677820D01*
X7040277Y5681786D01*
X7046359Y5685752D01*
X7053498Y5689190D01*
X7053762D01*
X7054291Y5689454D01*
X7055613Y5689983D01*
X7056935Y5690512D01*
X7058786Y5691041D01*
X7061166Y5691834D01*
X7063810Y5692627D01*
X7066719Y5693420D01*
X7069892Y5694214D01*
X7073329Y5695007D01*
X7080733Y5696329D01*
X7089194Y5697387D01*
X7098184Y5697651D01*
X7102679D01*
X7105059Y5697387D01*
D02*
G37*
G36*
X7341974Y5449366D02*
X7312095D01*
Y5640009D01*
X7311566Y5639480D01*
X7310244Y5638158D01*
X7307864Y5636307D01*
X7304427Y5633663D01*
X7300461Y5630490D01*
X7295437Y5627052D01*
X7289884Y5623351D01*
X7283538Y5619384D01*
X7283274D01*
X7282745Y5618856D01*
X7281952Y5618327D01*
X7280630Y5617798D01*
X7279043Y5616740D01*
X7277192Y5615947D01*
X7272962Y5613567D01*
X7268202Y5611188D01*
X7262914Y5608544D01*
X7257361Y5606164D01*
X7252073Y5604048D01*
Y5632870D01*
X7252337Y5633134D01*
X7253131Y5633398D01*
X7254453Y5634192D01*
X7256303Y5634985D01*
X7258419Y5636043D01*
X7261063Y5637629D01*
X7263972Y5639216D01*
X7266880Y5640802D01*
X7273755Y5645033D01*
X7281158Y5650057D01*
X7288826Y5655345D01*
X7295966Y5661426D01*
X7296230Y5661691D01*
X7296759Y5662220D01*
X7297816Y5663013D01*
X7299139Y5664335D01*
X7300461Y5665921D01*
X7302312Y5667508D01*
X7306278Y5672003D01*
X7310773Y5676762D01*
X7315268Y5682315D01*
X7319234Y5688132D01*
X7322671Y5694214D01*
X7341974D01*
Y5449366D01*
D02*
G37*
G36*
X6861269Y5693156D02*
X6864442D01*
X6867615Y5692892D01*
X6874754Y5692627D01*
X6881893Y5691834D01*
X6889032Y5691041D01*
X6892205Y5690247D01*
X6895114Y5689719D01*
X6895378D01*
X6896172Y5689454D01*
X6897229Y5689190D01*
X6898551Y5688661D01*
X6900402Y5688132D01*
X6902518Y5687603D01*
X6907541Y5685752D01*
X6913094Y5683373D01*
X6918911Y5680464D01*
X6924993Y5676762D01*
X6930810Y5672267D01*
X6931074Y5672003D01*
X6931603Y5671474D01*
X6932661Y5670681D01*
X6933983Y5669359D01*
X6935569Y5667772D01*
X6937420Y5665657D01*
X6939536Y5663542D01*
X6941651Y5660897D01*
X6944031Y5657989D01*
X6946410Y5654816D01*
X6948790Y5651379D01*
X6951170Y5647677D01*
X6955665Y5639480D01*
X6959631Y5630490D01*
Y5630225D01*
X6960160Y5629432D01*
X6960424Y5627846D01*
X6961217Y5625995D01*
X6962011Y5623615D01*
X6962804Y5620707D01*
X6963597Y5617534D01*
X6964655Y5613832D01*
X6965448Y5609601D01*
X6966241Y5605106D01*
X6967035Y5600347D01*
X6967828Y5595323D01*
X6968621Y5590035D01*
X6968885Y5584482D01*
X6969414Y5572583D01*
Y5572319D01*
Y5571261D01*
Y5569939D01*
Y5567824D01*
X6969150Y5565444D01*
Y5562535D01*
X6968885Y5559363D01*
X6968621Y5555925D01*
X6967828Y5548257D01*
X6966506Y5540060D01*
X6964919Y5531599D01*
X6962804Y5523138D01*
Y5522873D01*
X6962540Y5522080D01*
X6962011Y5521022D01*
X6961746Y5519700D01*
X6960953Y5517850D01*
X6960160Y5515734D01*
X6958309Y5510710D01*
X6955929Y5505158D01*
X6953021Y5499076D01*
X6949848Y5493259D01*
X6946146Y5487706D01*
Y5487442D01*
X6945617Y5487177D01*
X6945088Y5486384D01*
X6944295Y5485327D01*
X6942444Y5482947D01*
X6939536Y5479774D01*
X6936363Y5476072D01*
X6932661Y5472370D01*
X6928430Y5468933D01*
X6923935Y5465496D01*
X6923671D01*
X6923406Y5465231D01*
X6921820Y5464173D01*
X6919176Y5462851D01*
X6915738Y5461001D01*
X6911508Y5459150D01*
X6906484Y5457034D01*
X6900667Y5455183D01*
X6894585Y5453333D01*
X6894321D01*
X6893792Y5453068D01*
X6892999D01*
X6891677Y5452804D01*
X6890090Y5452539D01*
X6887975Y5452010D01*
X6885859Y5451746D01*
X6883480Y5451482D01*
X6877663Y5450688D01*
X6871052Y5449895D01*
X6863649Y5449631D01*
X6855716Y5449366D01*
X6767666D01*
Y5693420D01*
X6858625D01*
X6861269Y5693156D01*
D02*
G37*
%LPC*%
G36*
X3958069Y1925074D02*
X3944271D01*
X3958069Y1915802D01*
Y1925074D01*
D02*
G37*
G36*
X6856245Y5664599D02*
X6799925D01*
Y5478187D01*
X6855981D01*
X6858096Y5478452D01*
X6860476D01*
X6865764Y5478716D01*
X6871846Y5479245D01*
X6878191Y5480038D01*
X6884273Y5481096D01*
X6889826Y5482418D01*
X6890090D01*
X6890355Y5482682D01*
X6891148Y5482947D01*
X6892205Y5483211D01*
X6894585Y5484269D01*
X6897758Y5485591D01*
X6901195Y5487442D01*
X6904897Y5489557D01*
X6908599Y5492201D01*
X6911772Y5495110D01*
X6912036Y5495374D01*
X6912301Y5495639D01*
X6913623Y5497225D01*
X6915738Y5499869D01*
X6918382Y5503307D01*
X6921027Y5507802D01*
X6923935Y5513090D01*
X6926844Y5519172D01*
X6929488Y5526046D01*
Y5526311D01*
X6929752Y5526840D01*
X6930017Y5527897D01*
X6930545Y5529484D01*
X6931074Y5531335D01*
X6931603Y5533714D01*
X6932132Y5536358D01*
X6932925Y5539267D01*
X6933454Y5542440D01*
X6933983Y5546142D01*
X6934512Y5549844D01*
X6935040Y5554074D01*
X6935834Y5563064D01*
X6936098Y5573112D01*
Y5573641D01*
Y5574699D01*
Y5576814D01*
X6935834Y5579458D01*
Y5582631D01*
X6935569Y5586333D01*
X6935040Y5590299D01*
X6934512Y5594794D01*
X6932925Y5604313D01*
X6930810Y5614096D01*
X6927637Y5623351D01*
X6925522Y5627846D01*
X6923406Y5631812D01*
X6923142Y5632076D01*
X6922877Y5632605D01*
X6922084Y5633663D01*
X6921027Y5635249D01*
X6919969Y5636836D01*
X6918382Y5638687D01*
X6914945Y5642917D01*
X6910450Y5647677D01*
X6905162Y5652172D01*
X6899345Y5656402D01*
X6896172Y5657989D01*
X6892734Y5659575D01*
X6892470D01*
X6892205Y5659840D01*
X6891412Y5660104D01*
X6890355Y5660369D01*
X6888768Y5660633D01*
X6887182Y5661162D01*
X6885066Y5661691D01*
X6882687Y5662220D01*
X6880042Y5662484D01*
X6876869Y5663013D01*
X6873432Y5663542D01*
X6869730Y5663806D01*
X6865500Y5664070D01*
X6861005Y5664335D01*
X6856245Y5664599D01*
D02*
G37*
%LPD*%
D150*
X3410369Y1304640D02*
G03*
X3410369Y1304640I-56569J0D01*
G01*
X11000369Y2504640D02*
G03*
X11000369Y2504640I-56569J0D01*
G01*
X7388800Y2164640D02*
Y2264640D01*
X7338800Y2214640D02*
X7438800D01*
X12951173Y7266988D02*
Y7316971D01*
X12926181D01*
X12917850Y7308641D01*
Y7275318D01*
X12926181Y7266988D01*
X12951173D01*
X12867867D02*
X12901189D01*
Y7291980D01*
X12884528Y7283649D01*
X12876198D01*
X12867867Y7291980D01*
Y7308641D01*
X12876198Y7316971D01*
X12892859D01*
X12901189Y7308641D01*
X7005009Y8416644D02*
X7054992D01*
Y8391653D01*
X7046662Y8383322D01*
X7030000D01*
X7021670Y8391653D01*
Y8416644D01*
Y8399983D02*
X7005009Y8383322D01*
X7046662Y8366661D02*
X7054992Y8358330D01*
Y8341669D01*
X7046662Y8333338D01*
X7038331D01*
X7030000Y8341669D01*
X7021670Y8333338D01*
X7013339D01*
X7005009Y8341669D01*
Y8358330D01*
X7013339Y8366661D01*
X7021670D01*
X7030000Y8358330D01*
X7038331Y8366661D01*
X7046662D01*
X7030000Y8358330D02*
Y8341669D01*
X7046662Y8316677D02*
X7054992Y8308346D01*
Y8291685D01*
X7046662Y8283355D01*
X7013339D01*
X7005009Y8291685D01*
Y8308346D01*
X7013339Y8316677D01*
X7046662D01*
X8215009Y8416644D02*
X8264992D01*
Y8391653D01*
X8256662Y8383322D01*
X8240001D01*
X8231670Y8391653D01*
Y8416644D01*
Y8399983D02*
X8215009Y8383322D01*
X8256662Y8366661D02*
X8264992Y8358330D01*
Y8341669D01*
X8256662Y8333338D01*
X8248331D01*
X8240001Y8341669D01*
X8231670Y8333338D01*
X8223339D01*
X8215009Y8341669D01*
Y8358330D01*
X8223339Y8366661D01*
X8231670D01*
X8240001Y8358330D01*
X8248331Y8366661D01*
X8256662D01*
X8240001Y8358330D02*
Y8341669D01*
X8256662Y8316677D02*
X8264992Y8308346D01*
Y8291685D01*
X8256662Y8283355D01*
X8248331D01*
X8240001Y8291685D01*
X8231670Y8283355D01*
X8223339D01*
X8215009Y8291685D01*
Y8308346D01*
X8223339Y8316677D01*
X8231670D01*
X8240001Y8308346D01*
X8248331Y8316677D01*
X8256662D01*
X8240001Y8308346D02*
Y8291685D01*
X8075009Y8416644D02*
X8124992D01*
Y8391653D01*
X8116662Y8383322D01*
X8100001D01*
X8091670Y8391653D01*
Y8416644D01*
Y8399983D02*
X8075009Y8383322D01*
X8116662Y8366661D02*
X8124992Y8358330D01*
Y8341669D01*
X8116662Y8333338D01*
X8108331D01*
X8100001Y8341669D01*
X8091670Y8333338D01*
X8083339D01*
X8075009Y8341669D01*
Y8358330D01*
X8083339Y8366661D01*
X8091670D01*
X8100001Y8358330D01*
X8108331Y8366661D01*
X8116662D01*
X8100001Y8358330D02*
Y8341669D01*
X8124992Y8316677D02*
Y8283355D01*
X8116662D01*
X8083339Y8316677D01*
X8075009D01*
X6165009Y8416644D02*
X6214992D01*
Y8391653D01*
X6206662Y8383322D01*
X6190001D01*
X6181670Y8391653D01*
Y8416644D01*
Y8399983D02*
X6165009Y8383322D01*
X6214992Y8366661D02*
Y8333338D01*
X6206662D01*
X6173339Y8366661D01*
X6165009D01*
X6173339Y8316677D02*
X6165009Y8308346D01*
Y8291685D01*
X6173339Y8283355D01*
X6206662D01*
X6214992Y8291685D01*
Y8308346D01*
X6206662Y8316677D01*
X6198331D01*
X6190001Y8308346D01*
Y8283355D01*
X8915009Y8416644D02*
X8964992D01*
Y8391653D01*
X8956662Y8383322D01*
X8940000D01*
X8931670Y8391653D01*
Y8416644D01*
Y8399983D02*
X8915009Y8383322D01*
X8956662Y8366661D02*
X8964992Y8358330D01*
Y8341669D01*
X8956662Y8333338D01*
X8948331D01*
X8940000Y8341669D01*
X8931670Y8333338D01*
X8923339D01*
X8915009Y8341669D01*
Y8358330D01*
X8923339Y8366661D01*
X8931670D01*
X8940000Y8358330D01*
X8948331Y8366661D01*
X8956662D01*
X8940000Y8358330D02*
Y8341669D01*
X8964992Y8283355D02*
X8956662Y8300016D01*
X8940000Y8316677D01*
X8923339D01*
X8915009Y8308346D01*
Y8291685D01*
X8923339Y8283355D01*
X8931670D01*
X8940000Y8291685D01*
Y8316677D01*
X6305009Y8416644D02*
X6354992D01*
Y8391653D01*
X6346662Y8383322D01*
X6330001D01*
X6321670Y8391653D01*
Y8416644D01*
Y8399983D02*
X6305009Y8383322D01*
X6354992Y8366661D02*
Y8333338D01*
X6346662D01*
X6313339Y8366661D01*
X6305009D01*
X6346662Y8316677D02*
X6354992Y8308346D01*
Y8291685D01*
X6346662Y8283355D01*
X6338331D01*
X6330001Y8291685D01*
X6321670Y8283355D01*
X6313339D01*
X6305009Y8291685D01*
Y8308346D01*
X6313339Y8316677D01*
X6321670D01*
X6330001Y8308346D01*
X6338331Y8316677D01*
X6346662D01*
X6330001Y8308346D02*
Y8291685D01*
X2903321Y-1806661D02*
X2911652Y-1814992D01*
X2928313D01*
X2936644Y-1806661D01*
Y-1773339D01*
X2928313Y-1765008D01*
X2911652D01*
X2903321Y-1773339D01*
X2853338Y-1814992D02*
X2869999Y-1806661D01*
X2886660Y-1790000D01*
Y-1773339D01*
X2878330Y-1765008D01*
X2861668D01*
X2853338Y-1773339D01*
Y-1781669D01*
X2861668Y-1790000D01*
X2886660D01*
X2836677Y-1806661D02*
X2828346Y-1814992D01*
X2811685D01*
X2803354Y-1806661D01*
Y-1798331D01*
X2811685Y-1790000D01*
X2820015D01*
X2811685D01*
X2803354Y-1781669D01*
Y-1773339D01*
X2811685Y-1765008D01*
X2828346D01*
X2836677Y-1773339D01*
X8355009Y8416644D02*
X8404992D01*
Y8391653D01*
X8396662Y8383322D01*
X8380001D01*
X8371670Y8391653D01*
Y8416644D01*
Y8399983D02*
X8355009Y8383322D01*
X8396662Y8366661D02*
X8404992Y8358330D01*
Y8341669D01*
X8396662Y8333338D01*
X8388331D01*
X8380001Y8341669D01*
X8371670Y8333338D01*
X8363339D01*
X8355009Y8341669D01*
Y8358330D01*
X8363339Y8366661D01*
X8371670D01*
X8380001Y8358330D01*
X8388331Y8366661D01*
X8396662D01*
X8380001Y8358330D02*
Y8341669D01*
X8404992Y8283355D02*
Y8316677D01*
X8380001D01*
X8388331Y8300016D01*
Y8291685D01*
X8380001Y8283355D01*
X8363339D01*
X8355009Y8291685D01*
Y8308346D01*
X8363339Y8316677D01*
X6865009Y8416644D02*
X6914992D01*
Y8391653D01*
X6906662Y8383322D01*
X6890000D01*
X6881670Y8391653D01*
Y8416644D01*
Y8399983D02*
X6865009Y8383322D01*
X6914992Y8366661D02*
Y8333338D01*
X6906662D01*
X6873339Y8366661D01*
X6865009D01*
X6914992Y8316677D02*
Y8283355D01*
X6906662D01*
X6873339Y8316677D01*
X6865009D01*
X6025009Y8416644D02*
X6074992D01*
Y8391653D01*
X6066662Y8383322D01*
X6050000D01*
X6041670Y8391653D01*
Y8416644D01*
Y8399983D02*
X6025009Y8383322D01*
X6074992Y8366661D02*
Y8333338D01*
X6066662D01*
X6033339Y8366661D01*
X6025009D01*
X6074992Y8283355D02*
X6066662Y8300016D01*
X6050000Y8316677D01*
X6033339D01*
X6025009Y8308346D01*
Y8291685D01*
X6033339Y8283355D01*
X6041670D01*
X6050000Y8291685D01*
Y8316677D01*
X7935009Y8416644D02*
X7984992D01*
Y8391653D01*
X7976662Y8383322D01*
X7960001D01*
X7951670Y8391653D01*
Y8416644D01*
Y8399983D02*
X7935009Y8383322D01*
X7976662Y8366661D02*
X7984992Y8358330D01*
Y8341669D01*
X7976662Y8333338D01*
X7968331D01*
X7960001Y8341669D01*
X7951670Y8333338D01*
X7943339D01*
X7935009Y8341669D01*
Y8358330D01*
X7943339Y8366661D01*
X7951670D01*
X7960001Y8358330D01*
X7968331Y8366661D01*
X7976662D01*
X7960001Y8358330D02*
Y8341669D01*
X7935009Y8291685D02*
X7984992D01*
X7960001Y8316677D01*
Y8283355D01*
X432253Y7351008D02*
Y7400992D01*
X407261D01*
X398930Y7392661D01*
Y7359339D01*
X407261Y7351008D01*
X432253D01*
X357277Y7400992D02*
Y7351008D01*
X382269Y7376000D01*
X348947D01*
X6445009Y8416644D02*
X6494992D01*
Y8391653D01*
X6486662Y8383322D01*
X6470001D01*
X6461670Y8391653D01*
Y8416644D01*
Y8399983D02*
X6445009Y8383322D01*
X6494992Y8366661D02*
Y8333338D01*
X6486662D01*
X6453339Y8366661D01*
X6445009D01*
X6494992Y8283355D02*
Y8316677D01*
X6470001D01*
X6478331Y8300016D01*
Y8291685D01*
X6470001Y8283355D01*
X6453339D01*
X6445009Y8291685D01*
Y8308346D01*
X6453339Y8316677D01*
X8775009Y8416644D02*
X8824992D01*
Y8391653D01*
X8816662Y8383322D01*
X8800000D01*
X8791670Y8391653D01*
Y8416644D01*
Y8399983D02*
X8775009Y8383322D01*
X8816662Y8366661D02*
X8824992Y8358330D01*
Y8341669D01*
X8816662Y8333338D01*
X8808331D01*
X8800000Y8341669D01*
X8791670Y8333338D01*
X8783339D01*
X8775009Y8341669D01*
Y8358330D01*
X8783339Y8366661D01*
X8791670D01*
X8800000Y8358330D01*
X8808331Y8366661D01*
X8816662D01*
X8800000Y8358330D02*
Y8341669D01*
X8816662Y8316677D02*
X8824992Y8308346D01*
Y8291685D01*
X8816662Y8283355D01*
X8808331D01*
X8800000Y8291685D01*
Y8300016D01*
Y8291685D01*
X8791670Y8283355D01*
X8783339D01*
X8775009Y8291685D01*
Y8308346D01*
X8783339Y8316677D01*
X6585009Y8408314D02*
X6634992D01*
Y8383322D01*
X6626662Y8374991D01*
X6610000D01*
X6601670Y8383322D01*
Y8408314D01*
Y8391653D02*
X6585009Y8374991D01*
X6593339Y8358330D02*
X6585009Y8349999D01*
Y8333338D01*
X6593339Y8325007D01*
X6626662D01*
X6634992Y8333338D01*
Y8349999D01*
X6626662Y8358330D01*
X6618331D01*
X6610000Y8349999D01*
Y8325007D01*
X6585009Y8308346D02*
Y8291685D01*
Y8300016D01*
X6634992D01*
X6626662Y8308346D01*
X6725009Y8416644D02*
X6774992D01*
Y8391653D01*
X6766662Y8383322D01*
X6750000D01*
X6741670Y8391653D01*
Y8416644D01*
Y8399983D02*
X6725009Y8383322D01*
X6766662Y8366661D02*
X6774992Y8358330D01*
Y8341669D01*
X6766662Y8333338D01*
X6758331D01*
X6750000Y8341669D01*
X6741670Y8333338D01*
X6733339D01*
X6725009Y8341669D01*
Y8358330D01*
X6733339Y8366661D01*
X6741670D01*
X6750000Y8358330D01*
X6758331Y8366661D01*
X6766662D01*
X6750000Y8358330D02*
Y8341669D01*
X6725009Y8283355D02*
Y8316677D01*
X6758331Y8283355D01*
X6766662D01*
X6774992Y8291685D01*
Y8308346D01*
X6766662Y8316677D01*
X8495009Y8416644D02*
X8544992D01*
Y8391653D01*
X8536662Y8383322D01*
X8520000D01*
X8511670Y8391653D01*
Y8416644D01*
Y8399983D02*
X8495009Y8383322D01*
X8503339Y8366661D02*
X8495009Y8358330D01*
Y8341669D01*
X8503339Y8333338D01*
X8536662D01*
X8544992Y8341669D01*
Y8358330D01*
X8536662Y8366661D01*
X8528331D01*
X8520000Y8358330D01*
Y8333338D01*
X8536662Y8316677D02*
X8544992Y8308346D01*
Y8291685D01*
X8536662Y8283355D01*
X8503339D01*
X8495009Y8291685D01*
Y8308346D01*
X8503339Y8316677D01*
X8536662D01*
X8635009Y8416644D02*
X8684992D01*
Y8391653D01*
X8676662Y8383322D01*
X8660000D01*
X8651670Y8391653D01*
Y8416644D01*
Y8399983D02*
X8635009Y8383322D01*
X8643339Y8366661D02*
X8635009Y8358330D01*
Y8341669D01*
X8643339Y8333338D01*
X8676662D01*
X8684992Y8341669D01*
Y8358330D01*
X8676662Y8366661D01*
X8668331D01*
X8660000Y8358330D01*
Y8333338D01*
X8635009Y8283355D02*
Y8316677D01*
X8668331Y8283355D01*
X8676662D01*
X8684992Y8291685D01*
Y8308346D01*
X8676662Y8316677D01*
X5885009Y8408314D02*
X5934992D01*
Y8383322D01*
X5926662Y8374991D01*
X5910000D01*
X5901670Y8383322D01*
Y8408314D01*
Y8391653D02*
X5885009Y8374991D01*
X5926662Y8358330D02*
X5934992Y8349999D01*
Y8333338D01*
X5926662Y8325007D01*
X5918331D01*
X5910000Y8333338D01*
X5901670Y8325007D01*
X5893339D01*
X5885009Y8333338D01*
Y8349999D01*
X5893339Y8358330D01*
X5901670D01*
X5910000Y8349999D01*
X5918331Y8358330D01*
X5926662D01*
X5910000Y8349999D02*
Y8333338D01*
X5885009Y8308346D02*
Y8291685D01*
Y8300016D01*
X5934992D01*
X5926662Y8308346D01*
X7795009Y8416644D02*
X7844992D01*
Y8391653D01*
X7836662Y8383322D01*
X7820001D01*
X7811670Y8391653D01*
Y8416644D01*
Y8399983D02*
X7795009Y8383322D01*
X7836662Y8366661D02*
X7844992Y8358330D01*
Y8341669D01*
X7836662Y8333338D01*
X7828331D01*
X7820001Y8341669D01*
X7811670Y8333338D01*
X7803339D01*
X7795009Y8341669D01*
Y8358330D01*
X7803339Y8366661D01*
X7811670D01*
X7820001Y8358330D01*
X7828331Y8366661D01*
X7836662D01*
X7820001Y8358330D02*
Y8341669D01*
X7803339Y8316677D02*
X7795009Y8308346D01*
Y8291685D01*
X7803339Y8283355D01*
X7836662D01*
X7844992Y8291685D01*
Y8308346D01*
X7836662Y8316677D01*
X7828331D01*
X7820001Y8308346D01*
Y8283355D01*
X7843322Y7553339D02*
X7851653Y7545008D01*
X7868314D01*
X7876645Y7553339D01*
Y7586661D01*
X7868314Y7594992D01*
X7851653D01*
X7843322Y7586661D01*
X7793338Y7545008D02*
X7810000Y7553339D01*
X7826661Y7570000D01*
Y7586661D01*
X7818330Y7594992D01*
X7801669D01*
X7793338Y7586661D01*
Y7578331D01*
X7801669Y7570000D01*
X7826661D01*
X7776677Y7586661D02*
X7768347Y7594992D01*
X7751686D01*
X7743355Y7586661D01*
Y7553339D01*
X7751686Y7545008D01*
X7768347D01*
X7776677Y7553339D01*
Y7561669D01*
X7768347Y7570000D01*
X7743355D01*
D151*
X2451860Y7354928D02*
X2435199Y7338267D01*
Y7304944D01*
X2451860Y7288283D01*
X2468522D01*
X2485183Y7304944D01*
Y7338267D01*
X2501844Y7354928D01*
X2518505D01*
X2535167Y7338267D01*
Y7304944D01*
X2518505Y7288283D01*
X2435199Y7454896D02*
Y7388251D01*
X2485183D01*
X2468522Y7421573D01*
Y7438235D01*
X2485183Y7454896D01*
X2518505D01*
X2535167Y7438235D01*
Y7404912D01*
X2518505Y7388251D01*
X7032171Y1854656D02*
Y1954624D01*
X7065494Y1921301D01*
X7098816Y1954624D01*
Y1854656D01*
X7132139Y1954624D02*
Y1854656D01*
Y1887979D01*
X7198784Y1954624D01*
X7148800Y1904640D01*
X7198784Y1854656D01*
X7232107D02*
X7265429D01*
X7248768D01*
Y1954624D01*
X7232107Y1937963D01*
D157*
X7633800Y1904640D02*
G03*
X7633800Y1904640I-485000J0D01*
G01*
X12989520Y7251979D02*
Y7331980D01*
X12829520Y7251979D02*
Y7331980D01*
Y7251979D02*
X12989520D01*
X12829520Y7331980D02*
X12989520D01*
X2785183Y7041589D02*
Y7701589D01*
X2185182Y7041589D02*
Y7701589D01*
X2785183D01*
X2185182Y7041589D02*
X2785183D01*
X6990000Y8269999D02*
Y8430000D01*
X7070001Y8269999D02*
Y8430000D01*
X6990000Y8269999D02*
X7070001D01*
X6990000Y8430000D02*
X7070001D01*
X8200000Y8269999D02*
Y8430000D01*
X8280001Y8269999D02*
Y8430000D01*
X8200000Y8269999D02*
X8280001D01*
X8200000Y8430000D02*
X8280001D01*
X3162270Y3875680D02*
Y7482480D01*
X11135336Y3875680D02*
Y7482480D01*
X3162270D02*
X11135336D01*
X3162270Y3875680D02*
X11135336D01*
X8060000Y8269999D02*
Y8430000D01*
X8140001Y8269999D02*
Y8430000D01*
X8060000Y8269999D02*
X8140001D01*
X8060000Y8430000D02*
X8140001D01*
X6150000Y8269999D02*
Y8430000D01*
X6230001Y8269999D02*
Y8430000D01*
X6150000Y8269999D02*
X6230001D01*
X6150000Y8430000D02*
X6230001D01*
X8900000Y8269999D02*
Y8430000D01*
X8980001Y8269999D02*
Y8430000D01*
X8900000Y8269999D02*
X8980001D01*
X8900000Y8430000D02*
X8980001D01*
X6290000Y8269999D02*
Y8430000D01*
X6370001Y8269999D02*
Y8430000D01*
X6290000Y8269999D02*
X6370001D01*
X6290000Y8430000D02*
X6370001D01*
X2950000Y-1830001D02*
Y-1750000D01*
X2789999Y-1830001D02*
Y-1750000D01*
Y-1830001D02*
X2950000D01*
X2789999Y-1750000D02*
X2950000D01*
X8340000Y8269999D02*
Y8430000D01*
X8420001Y8269999D02*
Y8430000D01*
X8340000Y8269999D02*
X8420001D01*
X8340000Y8430000D02*
X8420001D01*
X6850000Y8269999D02*
Y8430000D01*
X6930001Y8269999D02*
Y8430000D01*
X6850000Y8269999D02*
X6930001D01*
X6850000Y8430000D02*
X6930001D01*
X6010000Y8269999D02*
Y8430000D01*
X6090001Y8269999D02*
Y8430000D01*
X6010000Y8269999D02*
X6090001D01*
X6010000Y8430000D02*
X6090001D01*
X7920000Y8269999D02*
Y8430000D01*
X8000001Y8269999D02*
Y8430000D01*
X7920000Y8269999D02*
X8000001D01*
X7920000Y8430000D02*
X8000001D01*
X310600Y7416000D02*
X470600D01*
X310600Y7335999D02*
X470600D01*
X310600D02*
Y7416000D01*
X470600Y7335999D02*
Y7416000D01*
X6430000Y8269999D02*
Y8430000D01*
X6510001Y8269999D02*
Y8430000D01*
X6430000Y8269999D02*
X6510001D01*
X6430000Y8430000D02*
X6510001D01*
X8760000Y8269999D02*
Y8430000D01*
X8840001Y8269999D02*
Y8430000D01*
X8760000Y8269999D02*
X8840001D01*
X8760000Y8430000D02*
X8840001D01*
X6570000Y8269999D02*
Y8430000D01*
X6650001Y8269999D02*
Y8430000D01*
X6570000Y8269999D02*
X6650001D01*
X6570000Y8430000D02*
X6650001D01*
X4740680Y1199602D02*
Y2598296D01*
X3252069Y1199602D02*
Y2598296D01*
X4740680D01*
X3252069Y1199602D02*
X4740680D01*
X9556920Y1210985D02*
Y2609678D01*
X11045531Y1210985D02*
Y2609678D01*
X9556920Y1210985D02*
X11045531D01*
X9556920Y2609678D02*
X11045531D01*
X6710000Y8269999D02*
Y8430000D01*
X6790001Y8269999D02*
Y8430000D01*
X6710000Y8269999D02*
X6790001D01*
X6710000Y8430000D02*
X6790001D01*
X8480000Y8269999D02*
Y8430000D01*
X8560001Y8269999D02*
Y8430000D01*
X8480000Y8269999D02*
X8560001D01*
X8480000Y8430000D02*
X8560001D01*
X8620000Y8269999D02*
Y8430000D01*
X8700001Y8269999D02*
Y8430000D01*
X8620000Y8269999D02*
X8700001D01*
X8620000Y8430000D02*
X8700001D01*
X5870000Y8269999D02*
Y8430000D01*
X5950001Y8269999D02*
Y8430000D01*
X5870000Y8269999D02*
X5950001D01*
X5870000Y8430000D02*
X5950001D01*
X7780000Y8269999D02*
Y8430000D01*
X7860001Y8269999D02*
Y8430000D01*
X7780000Y8269999D02*
X7860001D01*
X7780000Y8430000D02*
X7860001D01*
X7890000Y7529999D02*
Y7610000D01*
X7729999Y7529999D02*
Y7610000D01*
Y7529999D02*
X7890000D01*
X7729999Y7610000D02*
X7890000D01*
%TF.MD5,f69cab2dcfacf6f4c217e5ae020b189a*%
M02*
