%TF.GenerationSoftware,Altium Limited,Altium Designer,25.8.1 (18)*%
G04 Layer_Color=255*
%FSLAX45Y45*%
%MOMM*%
%TF.SameCoordinates,916E790F-4380-4A4C-B002-6B38F721AB2E*%
%TF.FilePolarity,Positive*%
%TF.FileFunction,Pads,Bot*%
%TF.Part,Single*%
G01*
G75*
%TA.AperFunction,SMDPad,CuDef*%
%ADD10R,1.00000X0.90000*%
%ADD11R,0.80000X0.80000*%
%TA.AperFunction,ComponentPad*%
%ADD18C,1.30000*%
%ADD19C,1.80000*%
%ADD20C,2.00000*%
%ADD21O,1.80000X3.80000*%
%ADD22O,1.60000X4.00000*%
%ADD23O,1.80000X2.60000*%
%ADD24R,1.50000X1.50000*%
%ADD25C,3.26390*%
%ADD26O,2.80000X1.52000*%
%ADD27C,1.01600*%
%ADD28C,1.52000*%
%ADD29C,1.50000*%
%ADD30C,3.25120*%
%ADD31R,1.10000X1.80000*%
%ADD32R,1.80000X1.10000*%
%ADD33C,1.00000*%
%ADD34R,1.80000X1.80000*%
%ADD35R,1.72500X1.72500*%
%ADD36C,1.72500*%
%ADD37R,2.20000X4.50000*%
%ADD38R,1.52400X2.80000*%
%ADD39R,2.50000X2.50000*%
%ADD40R,0.50000X0.60000*%
%TA.AperFunction,WasherPad*%
%ADD41C,6.00000*%
%TA.AperFunction,ComponentPad*%
%ADD42C,1.20000*%
G04:AMPARAMS|DCode=43|XSize=3.4mm|YSize=1.7mm|CornerRadius=0.425mm|HoleSize=0mm|Usage=FLASHONLY|Rotation=0.000|XOffset=0mm|YOffset=0mm|HoleType=Round|Shape=RoundedRectangle|*
%AMROUNDEDRECTD43*
21,1,3.40000,0.85000,0,0,0.0*
21,1,2.55001,1.70000,0,0,0.0*
1,1,0.85000,1.27500,-0.42500*
1,1,0.85000,-1.27500,-0.42500*
1,1,0.85000,-1.27500,0.42500*
1,1,0.85000,1.27500,0.42500*
%
%ADD43ROUNDEDRECTD43*%
%ADD44C,1.60000*%
%ADD45C,1.52540*%
%ADD46C,2.20000*%
%ADD47R,1.50000X1.50000*%
%ADD48C,0.99060*%
%TA.AperFunction,SMDPad,CuDef*%
%ADD100R,0.90000X1.00000*%
%ADD101R,0.90000X0.90000*%
%ADD102R,0.60000X0.40000*%
%ADD103R,0.40000X0.60000*%
%ADD104R,1.00000X1.10000*%
%ADD105R,0.40000X1.50000*%
%ADD106R,0.80000X1.50000*%
%ADD107R,0.90000X0.90000*%
%ADD108R,1.35000X2.35000*%
%ADD109R,1.05000X0.60000*%
%ADD110R,0.60000X1.05000*%
%ADD111C,2.54000*%
G04:AMPARAMS|DCode=112|XSize=2.8mm|YSize=1.5mm|CornerRadius=0mm|HoleSize=0mm|Usage=FLASHONLY|Rotation=135.000|XOffset=0mm|YOffset=0mm|HoleType=Round|Shape=Rectangle|*
%AMROTATEDRECTD112*
4,1,4,1.52028,-0.45962,0.45962,-1.52028,-1.52028,0.45962,-0.45962,1.52028,1.52028,-0.45962,0.0*
%
%ADD112ROTATEDRECTD112*%

%ADD113R,2.77000X0.65000*%
G04:AMPARAMS|DCode=114|XSize=1.7mm|YSize=0.42mm|CornerRadius=0.0525mm|HoleSize=0mm|Usage=FLASHONLY|Rotation=180.000|XOffset=0mm|YOffset=0mm|HoleType=Round|Shape=RoundedRectangle|*
%AMROUNDEDRECTD114*
21,1,1.70000,0.31500,0,0,180.0*
21,1,1.59500,0.42000,0,0,180.0*
1,1,0.10500,-0.79750,0.15750*
1,1,0.10500,0.79750,0.15750*
1,1,0.10500,0.79750,-0.15750*
1,1,0.10500,-0.79750,-0.15750*
%
%ADD114ROUNDEDRECTD114*%
%ADD115P,1.27279X4X270.0*%
%ADD116R,2.00000X5.10000*%
%ADD117R,1.01600X3.50400*%
%ADD118R,1.01600X3.50400*%
%ADD119R,10.49000X10.00000*%
%ADD120R,1.19380X1.39700*%
%ADD121R,1.80000X1.40000*%
%ADD122R,1.40000X1.90000*%
%ADD123R,0.80000X1.50000*%
%ADD124R,1.55000X2.48000*%
%ADD125R,0.65000X0.30000*%
%ADD126R,0.30000X0.95000*%
%ADD127R,0.95000X0.30000*%
%ADD128R,4.78000X4.78000*%
%ADD129R,1.50000X0.30000*%
%ADD130R,0.30000X1.50000*%
%ADD131R,0.90000X1.30000*%
%ADD132C,2.00000*%
G04:AMPARAMS|DCode=133|XSize=1.7mm|YSize=0.42mm|CornerRadius=0.0525mm|HoleSize=0mm|Usage=FLASHONLY|Rotation=90.000|XOffset=0mm|YOffset=0mm|HoleType=Round|Shape=RoundedRectangle|*
%AMROUNDEDRECTD133*
21,1,1.70000,0.31500,0,0,90.0*
21,1,1.59500,0.42000,0,0,90.0*
1,1,0.10500,0.15750,0.79750*
1,1,0.10500,0.15750,-0.79750*
1,1,0.10500,-0.15750,-0.79750*
1,1,0.10500,-0.15750,0.79750*
%
%ADD133ROUNDEDRECTD133*%
%ADD134R,1.60000X1.80000*%
%ADD135R,1.50000X1.30000*%
%ADD136R,0.40000X0.95000*%
%ADD137R,1.10000X1.00000*%
G04:AMPARAMS|DCode=138|XSize=1mm|YSize=0.9mm|CornerRadius=0mm|HoleSize=0mm|Usage=FLASHONLY|Rotation=315.000|XOffset=0mm|YOffset=0mm|HoleType=Round|Shape=Rectangle|*
%AMROTATEDRECTD138*
4,1,4,-0.67175,0.03535,-0.03535,0.67175,0.67175,-0.03535,0.03535,-0.67175,-0.67175,0.03535,0.0*
%
%ADD138ROTATEDRECTD138*%

%ADD139R,0.80000X0.90000*%
%ADD140R,0.70000X0.90000*%
G04:AMPARAMS|DCode=141|XSize=1.97mm|YSize=0.6mm|CornerRadius=0.075mm|HoleSize=0mm|Usage=FLASHONLY|Rotation=180.000|XOffset=0mm|YOffset=0mm|HoleType=Round|Shape=RoundedRectangle|*
%AMROUNDEDRECTD141*
21,1,1.97000,0.45000,0,0,180.0*
21,1,1.82000,0.60000,0,0,180.0*
1,1,0.15000,-0.91000,0.22500*
1,1,0.15000,0.91000,0.22500*
1,1,0.15000,0.91000,-0.22500*
1,1,0.15000,-0.91000,-0.22500*
%
%ADD141ROUNDEDRECTD141*%
%ADD142R,0.80000X0.80000*%
%TA.AperFunction,BGAPad,CuDef*%
%ADD143C,0.78740*%
%TA.AperFunction,SMDPad,CuDef*%
%ADD144R,2.50000X2.30000*%
%ADD145C,0.60000*%
%ADD146R,1.10000X1.90000*%
%ADD147R,0.60000X1.10000*%
%ADD148P,1.13137X4X180.0*%
%ADD149P,1.13137X4X270.0*%
D10*
X14950090Y6082050D02*
D03*
Y5919490D02*
D03*
X13488640Y4524650D02*
D03*
Y4687210D02*
D03*
X13641040Y4938670D02*
D03*
Y4776110D02*
D03*
X14554170Y4445910D02*
D03*
Y4283350D02*
D03*
X14706570Y4332880D02*
D03*
Y4170320D02*
D03*
X14411929Y4331610D02*
D03*
Y4169050D02*
D03*
X13624530Y4303670D02*
D03*
Y4466230D02*
D03*
X7719422Y-1024961D02*
D03*
Y-862401D02*
D03*
X13233369Y-1686920D02*
D03*
Y-1849480D02*
D03*
X6084538Y7585352D02*
D03*
Y7747912D02*
D03*
X15139262Y5804179D02*
D03*
Y5966739D02*
D03*
X2934940Y-645520D02*
D03*
Y-482960D02*
D03*
X11394410Y-375010D02*
D03*
Y-537570D02*
D03*
X11025000Y2981280D02*
D03*
Y2818720D02*
D03*
X10436900Y2981680D02*
D03*
Y2819120D02*
D03*
X9550000Y2987560D02*
D03*
Y2825000D02*
D03*
X4650000Y2987560D02*
D03*
Y2825000D02*
D03*
X3250000Y2987560D02*
D03*
Y2825000D02*
D03*
X3800000Y2987560D02*
D03*
Y2825000D02*
D03*
X6769070Y7963811D02*
D03*
Y7801251D02*
D03*
D11*
X12636670Y6325870D02*
D03*
X12816670D02*
D03*
X13029100Y6324600D02*
D03*
X13209100D02*
D03*
X12819521Y7291980D02*
D03*
X12999519D02*
D03*
X14442271Y6127752D02*
D03*
X14262271D02*
D03*
X139670Y-1909170D02*
D03*
X-40330D02*
D03*
X11847630Y4174131D02*
D03*
X11667630D02*
D03*
D18*
X6899500Y8800200D02*
D03*
X5899500D02*
D03*
X6399500D02*
D03*
X6149500D02*
D03*
X6649500D02*
D03*
X6149500Y9300200D02*
D03*
X6649500D02*
D03*
X8148100D02*
D03*
X7648100D02*
D03*
X8148100Y8800200D02*
D03*
X7648100D02*
D03*
X7898100D02*
D03*
X7398100D02*
D03*
X8398100D02*
D03*
X15149289Y6533980D02*
D03*
Y7033980D02*
D03*
Y6783980D02*
D03*
Y7283980D02*
D03*
Y6283980D02*
D03*
X16399289D02*
D03*
X16149289D02*
D03*
Y7283980D02*
D03*
X16399289D02*
D03*
X8896700Y10050229D02*
D03*
Y9800229D02*
D03*
X9896700D02*
D03*
Y10050229D02*
D03*
Y8800230D02*
D03*
X8896700D02*
D03*
X9396700D02*
D03*
X9146700D02*
D03*
X9646700D02*
D03*
X4400900Y10050230D02*
D03*
Y9800230D02*
D03*
X5400900D02*
D03*
Y10050230D02*
D03*
Y8800230D02*
D03*
X4400900D02*
D03*
X4900900D02*
D03*
X4650900D02*
D03*
X5150900D02*
D03*
D19*
X6399500Y9300200D02*
D03*
X7898100D02*
D03*
X15649289Y6783980D02*
D03*
X9396700Y9300230D02*
D03*
X13093671Y1085490D02*
D03*
X4770090Y-1871070D02*
D03*
X5024090D02*
D03*
X5278090D02*
D03*
X4770090Y-1617070D02*
D03*
X5024090D02*
D03*
X5278090D02*
D03*
X4900900Y9300230D02*
D03*
X14150310Y1077870D02*
D03*
X14404311D02*
D03*
X14658310D02*
D03*
D20*
X5774500Y9150200D02*
D03*
X7024500D02*
D03*
X8523100D02*
D03*
X7273100D02*
D03*
X6874860Y-1572250D02*
D03*
X7999860Y-1322250D02*
D03*
X7874860Y-1572250D02*
D03*
Y-2072250D02*
D03*
X6874860D02*
D03*
X6749860Y-1322250D02*
D03*
X8371650D02*
D03*
X8496650Y-2072250D02*
D03*
X9496650D02*
D03*
Y-1572250D02*
D03*
X9621650Y-1322250D02*
D03*
X8496650Y-1572250D02*
D03*
D21*
X5899500Y9925200D02*
D03*
X6899500D02*
D03*
X8398100D02*
D03*
X7398100D02*
D03*
D22*
X6179500Y9900200D02*
D03*
X6619500D02*
D03*
X8118100D02*
D03*
X7678100D02*
D03*
D23*
X5899500Y9360200D02*
D03*
X6899500D02*
D03*
X8398100D02*
D03*
X7398100D02*
D03*
D24*
X6399500Y9800200D02*
D03*
X7898100D02*
D03*
D25*
X-33619Y3678611D02*
D03*
X-859119Y7044111D02*
D03*
X791881D02*
D03*
D26*
X12870200Y6138799D02*
D03*
D27*
X13350200Y6970179D02*
D03*
X11910200Y6138799D02*
D03*
X13350200Y5307419D02*
D03*
D28*
X12551600Y6138799D02*
D03*
X13188800D02*
D03*
D29*
X4639280Y7253880D02*
D03*
X4893280D02*
D03*
X5147280D02*
D03*
X5401280D02*
D03*
X5655280D02*
D03*
X5909280D02*
D03*
X6163280D02*
D03*
X6417280D02*
D03*
X6671280D02*
D03*
X6925280D02*
D03*
X7179280D02*
D03*
X7433280D02*
D03*
X7687280D02*
D03*
X7941280D02*
D03*
X4385280D02*
D03*
X4131280D02*
D03*
X9671020D02*
D03*
X9163020D02*
D03*
X9417020D02*
D03*
X9925020D02*
D03*
X10320040Y-2051410D02*
D03*
X10520040D02*
D03*
X10720040D02*
D03*
X10320040Y-2251410D02*
D03*
X10520040D02*
D03*
D30*
X10895300Y4155080D02*
D03*
Y7203080D02*
D03*
X3402300Y4155080D02*
D03*
Y7203080D02*
D03*
D31*
X16149289Y6783980D02*
D03*
X8896700Y9300230D02*
D03*
X9146700D02*
D03*
X9646700D02*
D03*
X9896700D02*
D03*
X4400900Y9300230D02*
D03*
X4650900D02*
D03*
X5150900D02*
D03*
X5400900D02*
D03*
D32*
X15649289Y6283980D02*
D03*
Y6533980D02*
D03*
Y7033980D02*
D03*
Y7283980D02*
D03*
X9396700Y9800229D02*
D03*
X4900900Y9800230D02*
D03*
D33*
X13093671Y831490D02*
D03*
X13347670D02*
D03*
D34*
X13347670Y1085490D02*
D03*
X14912309Y1077870D02*
D03*
D35*
X1358870Y4637680D02*
D03*
D36*
X1612870D02*
D03*
X1866870D02*
D03*
X2120870D02*
D03*
X2374870D02*
D03*
D37*
X7574860Y-2072250D02*
D03*
X7174860D02*
D03*
X8796650D02*
D03*
X9196650D02*
D03*
D38*
X12255470Y-1429110D02*
D03*
X11735470D02*
D03*
X11395470D02*
D03*
X12345470Y-2159110D02*
D03*
X11355470D02*
D03*
D39*
X11725470Y-2059110D02*
D03*
D40*
X13030811Y-1493790D02*
D03*
X13110809D02*
D03*
Y-1408790D02*
D03*
Y-1323790D02*
D03*
X13030811D02*
D03*
Y-1408790D02*
D03*
D41*
X0Y0D02*
D03*
Y7800000D02*
D03*
X14300000D02*
D03*
Y0D02*
D03*
D42*
X13159520Y5519080D02*
D03*
X12909520D02*
D03*
X12659520D02*
D03*
X13159520Y5839080D02*
D03*
X12909520D02*
D03*
X12659520D02*
D03*
D43*
X10323800Y2474640D02*
D03*
Y1334640D02*
D03*
X3973800Y2474640D02*
D03*
Y1334640D02*
D03*
D44*
X9573800Y1654640D02*
D03*
Y1904640D02*
D03*
Y2154640D02*
D03*
X11023800Y1654640D02*
D03*
Y2154640D02*
D03*
X3273800Y1654640D02*
D03*
Y2154640D02*
D03*
X4723800Y1654640D02*
D03*
Y1904640D02*
D03*
Y2154640D02*
D03*
D45*
X7288800Y2082440D02*
D03*
X7008800D02*
D03*
D46*
X10040040Y-2151410D02*
D03*
X11000040D02*
D03*
D47*
X10720040Y-2251410D02*
D03*
D48*
X-1215420Y5816240D02*
D03*
X-1723420Y5917840D02*
D03*
Y5714640D02*
D03*
D100*
X15694679Y5040980D02*
D03*
X15532120D02*
D03*
X1155680Y4231290D02*
D03*
X993120D02*
D03*
X1882140Y8770148D02*
D03*
X1719580D02*
D03*
X15251401Y4086500D02*
D03*
X15088840D02*
D03*
X15266640Y3824523D02*
D03*
X15104080D02*
D03*
X13180029Y4097930D02*
D03*
X13342590D02*
D03*
X14009340Y4108090D02*
D03*
X13846780D02*
D03*
X9635460Y-858749D02*
D03*
X9798020D02*
D03*
X9895810Y-1145900D02*
D03*
X10058370D02*
D03*
X6470620Y-1604370D02*
D03*
X6308060D02*
D03*
X10351740Y-1598020D02*
D03*
X10514300D02*
D03*
X15534612Y4532272D02*
D03*
X15697173Y4532272D02*
D03*
X15532072Y4707530D02*
D03*
X15694632D02*
D03*
X15531351Y4877710D02*
D03*
X15693910D02*
D03*
X13788362Y5874659D02*
D03*
X13625803Y5874659D02*
D03*
X13783293Y6021976D02*
D03*
X13620734Y6021976D02*
D03*
X13782022Y6197239D02*
D03*
X13619463D02*
D03*
X13622710Y5734965D02*
D03*
X13785271Y5734965D02*
D03*
X15730190Y3607710D02*
D03*
X15892751D02*
D03*
X15731461Y3459120D02*
D03*
X15894020D02*
D03*
X15891479Y3299100D02*
D03*
X15728920D02*
D03*
X14250639Y4470040D02*
D03*
X14413200D02*
D03*
X14874210Y4468770D02*
D03*
X14711650D02*
D03*
X14005530Y3842660D02*
D03*
X13842970D02*
D03*
X14611320Y3681370D02*
D03*
X14773880D02*
D03*
X14460190D02*
D03*
X14297630D02*
D03*
X6531580Y449220D02*
D03*
X6369020D02*
D03*
X6537930Y278990D02*
D03*
X6375370D02*
D03*
X6537930Y88990D02*
D03*
X6375370D02*
D03*
X6537930Y-121010D02*
D03*
X6375370D02*
D03*
X1022320Y-1554840D02*
D03*
X859760D02*
D03*
X1024860Y-1297030D02*
D03*
X862300D02*
D03*
X1024860Y-1049380D02*
D03*
X862300D02*
D03*
D101*
X15994350Y5046706D02*
D03*
X15994353Y5216710D02*
D03*
X14411450Y3864690D02*
D03*
Y4034690D02*
D03*
X14702280D02*
D03*
Y3864690D02*
D03*
X14560040Y3967562D02*
D03*
Y4137559D02*
D03*
X3953960Y2996400D02*
D03*
Y2826400D02*
D03*
X9733730Y2991320D02*
D03*
Y2821320D02*
D03*
X3437070Y2991320D02*
D03*
Y2821320D02*
D03*
X10818310Y2987510D02*
D03*
Y2817510D02*
D03*
X4500060Y2996400D02*
D03*
Y2826400D02*
D03*
X10232840Y2992590D02*
D03*
Y2822590D02*
D03*
X14600397Y6630228D02*
D03*
X14600398Y6460231D02*
D03*
X12235150Y-858790D02*
D03*
Y-688790D02*
D03*
X12001470Y-835930D02*
D03*
Y-665930D02*
D03*
X10968960Y-358590D02*
D03*
Y-528590D02*
D03*
X1770349Y-1797498D02*
D03*
X1770349Y-1967500D02*
D03*
X118080Y4175490D02*
D03*
Y4345490D02*
D03*
X377160Y4174220D02*
D03*
Y4344220D02*
D03*
X756100Y-616569D02*
D03*
Y-446572D02*
D03*
X15602959Y4389609D02*
D03*
X15450558D02*
D03*
X13751051Y5237563D02*
D03*
Y5407560D02*
D03*
X13799789Y4908097D02*
D03*
Y4738100D02*
D03*
X15264099Y4217311D02*
D03*
X15111699D02*
D03*
D102*
X431382Y6072612D02*
D03*
X341382Y5362611D02*
D03*
X431382Y5642613D02*
D03*
Y5562613D02*
D03*
X-498619Y6072612D02*
D03*
X-408619Y6002615D02*
D03*
Y5842613D02*
D03*
X-498619Y5882613D02*
D03*
Y5962612D02*
D03*
X341382Y5522613D02*
D03*
Y5442613D02*
D03*
X-498619Y5722613D02*
D03*
X-408619Y5682613D02*
D03*
Y5522611D02*
D03*
X-498619Y5562611D02*
D03*
Y5402611D02*
D03*
Y5162611D02*
D03*
X-408619Y5202611D02*
D03*
X341382Y5602613D02*
D03*
Y5682613D02*
D03*
X-498619Y5322611D02*
D03*
Y5082612D02*
D03*
Y5642611D02*
D03*
X431382Y5322611D02*
D03*
Y5402611D02*
D03*
X-498619Y5242611D02*
D03*
X-408619Y5282611D02*
D03*
Y5442613D02*
D03*
Y5602613D02*
D03*
Y5362611D02*
D03*
X431382Y5722613D02*
D03*
X-408619Y5762610D02*
D03*
Y5922615D02*
D03*
X431382Y5482611D02*
D03*
Y5882613D02*
D03*
Y5962610D02*
D03*
D103*
X-353618Y4982612D02*
D03*
X-233618Y5642613D02*
D03*
X-153618D02*
D03*
X6381D02*
D03*
X-513618Y4982612D02*
D03*
X366381D02*
D03*
X-433618D02*
D03*
X286383D02*
D03*
X-33619D02*
D03*
X46381D02*
D03*
X126381D02*
D03*
X-113621D02*
D03*
X-193618D02*
D03*
X-273621D02*
D03*
X206383D02*
D03*
X86381Y5072614D02*
D03*
X-73619D02*
D03*
X-233618D02*
D03*
X-153618D02*
D03*
X6381D02*
D03*
X166381D02*
D03*
X446380Y4982612D02*
D03*
X86381Y5642613D02*
D03*
X166381D02*
D03*
X-73619D02*
D03*
D104*
X5410200Y-413930D02*
D03*
Y-243930D02*
D03*
X5253990Y-488860D02*
D03*
Y-318860D02*
D03*
X4942840Y-623480D02*
D03*
Y-453480D02*
D03*
X5095240Y-551090D02*
D03*
Y-381090D02*
D03*
X9716740Y-725440D02*
D03*
Y-555440D02*
D03*
X8486110Y-710200D02*
D03*
Y-540200D02*
D03*
X8080980Y-697500D02*
D03*
Y-527500D02*
D03*
X6855430Y-700040D02*
D03*
Y-530040D02*
D03*
D105*
X1433620Y8281970D02*
D03*
X1483620Y8001970D02*
D03*
X1533620Y8281970D02*
D03*
X1583620Y8001970D02*
D03*
X1633620Y8281970D02*
D03*
X1683620Y8001970D02*
D03*
X1733620Y8281970D02*
D03*
X1783620Y8001970D02*
D03*
X1833620Y8281970D02*
D03*
X1883620Y8001970D02*
D03*
D106*
X1333620Y8281970D02*
D03*
Y8001970D02*
D03*
X1983620Y8281970D02*
D03*
Y8001970D02*
D03*
D107*
X13840279Y3978293D02*
D03*
X14010278D02*
D03*
X15266550Y3957873D02*
D03*
X15096550D02*
D03*
X5915370Y-226900D02*
D03*
X6085370D02*
D03*
X13599310Y2998110D02*
D03*
X13769310D02*
D03*
X13599220Y3140350D02*
D03*
X13769220D02*
D03*
X13595410Y3448960D02*
D03*
X13765410D02*
D03*
X15374500Y3103520D02*
D03*
X15204500D02*
D03*
X15148351Y3502300D02*
D03*
X14978349D02*
D03*
X15445815Y2955394D02*
D03*
X15275816D02*
D03*
X11348600Y275230D02*
D03*
X11178600D02*
D03*
X10227190Y-1440560D02*
D03*
X10057190D02*
D03*
X13702400Y839110D02*
D03*
Y686710D02*
D03*
X13867542Y6436340D02*
D03*
X14037540D02*
D03*
X14184779Y1543960D02*
D03*
X14354781D02*
D03*
X13839250D02*
D03*
X14009250D02*
D03*
X14355040Y2279770D02*
D03*
X14185040D02*
D03*
X14009599Y2289930D02*
D03*
X13839600D02*
D03*
X15213560Y2275960D02*
D03*
X15043559D02*
D03*
X14880820Y2277230D02*
D03*
X14710820D02*
D03*
X15054640Y1543960D02*
D03*
X15224640D02*
D03*
X14705389Y1545230D02*
D03*
X14875391D02*
D03*
X13959900Y4637680D02*
D03*
X14129900D02*
D03*
X15119231Y4617360D02*
D03*
X14949229D02*
D03*
X15847031Y5375550D02*
D03*
X16017032D02*
D03*
X15119231Y4757059D02*
D03*
X14949228D02*
D03*
X-315078Y4713878D02*
D03*
X-485081D02*
D03*
X14763628Y6035951D02*
D03*
X14593626D02*
D03*
X14128278Y4769278D02*
D03*
X13958279D02*
D03*
X12007908Y4176672D02*
D03*
X12177910D02*
D03*
X11855332Y4326528D02*
D03*
X11685330D02*
D03*
X7065002Y2909998D02*
D03*
X7234999D02*
D03*
X14642630Y4606719D02*
D03*
X14472627D02*
D03*
X15462309Y5818781D02*
D03*
X15632310D02*
D03*
X3386833Y8860310D02*
D03*
X3556830D02*
D03*
D108*
X14208730Y4232550D02*
D03*
Y3967550D02*
D03*
X14918961Y4233177D02*
D03*
Y3968177D02*
D03*
D109*
X14001151Y4397650D02*
D03*
X13771150Y4492650D02*
D03*
Y4302650D02*
D03*
X12911360Y3860690D02*
D03*
Y4050690D02*
D03*
X13141360Y3955690D02*
D03*
X13161700Y4249310D02*
D03*
Y4439310D02*
D03*
X13391701Y4344310D02*
D03*
D110*
X13513020Y4143080D02*
D03*
X13703020D02*
D03*
X13608020Y3913080D02*
D03*
D111*
X14413200Y-1755500D02*
D03*
X-1665000Y-41000D02*
D03*
X13648660Y8155580D02*
D03*
D112*
X12405879Y4888479D02*
D03*
X12151321Y4633921D02*
D03*
X12459321Y4327721D02*
D03*
X12713879Y4582279D02*
D03*
D113*
X-2062940Y6711590D02*
D03*
Y6965590D02*
D03*
Y6838590D02*
D03*
Y6457590D02*
D03*
Y6584590D02*
D03*
X-1692940Y6457590D02*
D03*
Y6584590D02*
D03*
Y6711590D02*
D03*
Y6838590D02*
D03*
Y6965590D02*
D03*
D114*
X6344180Y-384770D02*
D03*
Y-449770D02*
D03*
Y-514770D02*
D03*
Y-579770D02*
D03*
Y-644770D02*
D03*
Y-709770D02*
D03*
Y-774770D02*
D03*
Y-839770D02*
D03*
Y-904770D02*
D03*
Y-969770D02*
D03*
X5652180D02*
D03*
Y-904770D02*
D03*
Y-839770D02*
D03*
Y-774770D02*
D03*
Y-709770D02*
D03*
Y-644770D02*
D03*
Y-579770D02*
D03*
Y-514770D02*
D03*
Y-449770D02*
D03*
Y-384770D02*
D03*
D115*
X13058524Y4959846D02*
D03*
X12938316Y5080054D02*
D03*
X13187650Y4835940D02*
D03*
X13307858Y4715732D02*
D03*
X13289890Y4944972D02*
D03*
X13410100Y4824762D02*
D03*
X13165422Y5066990D02*
D03*
X13045212Y5187200D02*
D03*
D116*
X15934660Y2476370D02*
D03*
Y1711370D02*
D03*
X13108910Y1743120D02*
D03*
Y2508120D02*
D03*
D117*
X12169690Y396560D02*
D03*
D118*
X11661690D02*
D03*
D119*
X11915690Y1417860D02*
D03*
D120*
X14197330Y6609080D02*
D03*
Y6388100D02*
D03*
X14367509Y6609080D02*
D03*
Y6388100D02*
D03*
D121*
X2551510Y-1056329D02*
D03*
X3121510D02*
D03*
D122*
X1966510Y-2471329D02*
D03*
X3281510Y-2371329D02*
D03*
D123*
X3202510Y-2086329D02*
D03*
X3092510D02*
D03*
X2982510Y-2106329D02*
D03*
X2872510Y-2086329D02*
D03*
X2762510Y-2106329D02*
D03*
X2652510Y-2086329D02*
D03*
X2542510Y-2046329D02*
D03*
X2432510Y-2086329D02*
D03*
D124*
X13070810Y-1408790D02*
D03*
D125*
X13225810Y-1308790D02*
D03*
Y-1358790D02*
D03*
Y-1408790D02*
D03*
Y-1458790D02*
D03*
Y-1508790D02*
D03*
X12915810Y-1308790D02*
D03*
Y-1358790D02*
D03*
Y-1408790D02*
D03*
Y-1458790D02*
D03*
Y-1508790D02*
D03*
D126*
X14300362Y2632590D02*
D03*
X14350360D02*
D03*
X14400360D02*
D03*
X14450360D02*
D03*
X14500360D02*
D03*
X14550360D02*
D03*
X14600360D02*
D03*
X14650360D02*
D03*
X14700360D02*
D03*
X14750360D02*
D03*
X14800360D02*
D03*
Y3297590D02*
D03*
X14750360D02*
D03*
X14700360D02*
D03*
X14650360D02*
D03*
X14600360D02*
D03*
X14550360D02*
D03*
X14500360D02*
D03*
X14450360D02*
D03*
X14400360D02*
D03*
X14350360D02*
D03*
X14300362D02*
D03*
D127*
X14882860Y2715090D02*
D03*
Y2765090D02*
D03*
Y2815090D02*
D03*
Y2865090D02*
D03*
Y2915090D02*
D03*
Y2965090D02*
D03*
Y3015090D02*
D03*
Y3065090D02*
D03*
Y3115090D02*
D03*
Y3165089D02*
D03*
Y3215089D02*
D03*
X14217860D02*
D03*
Y3165089D02*
D03*
Y3115090D02*
D03*
Y3065090D02*
D03*
Y3015090D02*
D03*
Y2965090D02*
D03*
Y2915090D02*
D03*
Y2865090D02*
D03*
Y2815090D02*
D03*
Y2765090D02*
D03*
Y2715090D02*
D03*
D128*
X14550360Y2965090D02*
D03*
D129*
X14090120Y5044670D02*
D03*
Y5094670D02*
D03*
Y5144670D02*
D03*
Y5194670D02*
D03*
Y5244670D02*
D03*
Y5294670D02*
D03*
Y5344670D02*
D03*
Y5394670D02*
D03*
Y5444670D02*
D03*
Y5494670D02*
D03*
Y5544670D02*
D03*
Y5594670D02*
D03*
X14980119D02*
D03*
Y5544670D02*
D03*
Y5494670D02*
D03*
Y5444670D02*
D03*
Y5394670D02*
D03*
Y5344670D02*
D03*
Y5294670D02*
D03*
Y5244670D02*
D03*
Y5194670D02*
D03*
Y5144670D02*
D03*
Y5094670D02*
D03*
Y5044670D02*
D03*
D130*
X14260120Y5764670D02*
D03*
X14310120D02*
D03*
X14360120D02*
D03*
X14410120D02*
D03*
X14460120D02*
D03*
X14510120D02*
D03*
X14560120D02*
D03*
X14610120D02*
D03*
X14660120D02*
D03*
X14710120D02*
D03*
X14760120D02*
D03*
X14810120D02*
D03*
Y4874670D02*
D03*
X14760120D02*
D03*
X14710120D02*
D03*
X14660120D02*
D03*
X14610120D02*
D03*
X14560120D02*
D03*
X14510120D02*
D03*
X14460120D02*
D03*
X14410120D02*
D03*
X14360120D02*
D03*
X14310120D02*
D03*
X14260120D02*
D03*
D131*
X7587420Y136450D02*
D03*
X7841420D02*
D03*
Y-563550D02*
D03*
X7587420D02*
D03*
X7087420D02*
D03*
X7341420D02*
D03*
Y136450D02*
D03*
X7087420D02*
D03*
X8723590Y139930D02*
D03*
X8977590D02*
D03*
Y-560070D02*
D03*
X8723590D02*
D03*
X9220590D02*
D03*
X9474590D02*
D03*
Y139930D02*
D03*
X9220590D02*
D03*
D132*
X-1322102Y5191398D02*
D03*
Y4429402D02*
D03*
X-1322098Y4048401D02*
D03*
X-1322100Y4810400D02*
D03*
X12585048Y7040520D02*
D03*
X6437601Y7727590D02*
D03*
X7132290Y7873640D02*
D03*
D133*
X2956621Y8846001D02*
D03*
X3151622D02*
D03*
X3086623Y8846002D02*
D03*
X3021619D02*
D03*
X2891622D02*
D03*
X3216620Y8154004D02*
D03*
X3151622D02*
D03*
X3086623D02*
D03*
X3021619D02*
D03*
X2956621D02*
D03*
X2891622D02*
D03*
X2826624Y8154004D02*
D03*
X2761620Y8154004D02*
D03*
X2696621D02*
D03*
X2631623Y8154004D02*
D03*
Y8846002D02*
D03*
X2696621D02*
D03*
X2761620Y8846001D02*
D03*
X2826624Y8846002D02*
D03*
X3216620D02*
D03*
D134*
X15281580Y2758080D02*
D03*
X15561580D02*
D03*
X13750560Y2812690D02*
D03*
X13470560D02*
D03*
D135*
X15193010Y1992270D02*
D03*
Y1802270D02*
D03*
X14739619Y1996080D02*
D03*
Y1806080D02*
D03*
X14320490Y1995830D02*
D03*
Y1805830D02*
D03*
X13858211Y1998370D02*
D03*
Y1808370D02*
D03*
D136*
X15033220Y1805050D02*
D03*
X14903220D02*
D03*
X14968221Y2025050D02*
D03*
X14154350Y1809880D02*
D03*
X14024350D02*
D03*
X14089349Y2029880D02*
D03*
D137*
X15145900Y3659780D02*
D03*
X14975900D02*
D03*
D138*
X13074850Y4744433D02*
D03*
X12959904Y4629485D02*
D03*
X12845856Y4748922D02*
D03*
X12960802Y4863870D02*
D03*
D139*
X12094470Y-252030D02*
D03*
X11999470Y-452030D02*
D03*
X12189470D02*
D03*
D140*
X10067190Y-1600560D02*
D03*
X10217190D02*
D03*
D141*
X52190Y-796648D02*
D03*
Y-923648D02*
D03*
Y-1050648D02*
D03*
Y-1177648D02*
D03*
Y-1304648D02*
D03*
Y-1431648D02*
D03*
Y-1558648D02*
D03*
X547190Y-1685648D02*
D03*
X547190Y-1431648D02*
D03*
X547190Y-1177648D02*
D03*
X547190Y-923648D02*
D03*
X547190Y-1050648D02*
D03*
X52190Y-1685648D02*
D03*
X547190Y-1558648D02*
D03*
X547190Y-1304648D02*
D03*
X547190Y-796648D02*
D03*
D142*
X-238790Y-1713618D02*
D03*
Y-1563615D02*
D03*
X12009091Y4331953D02*
D03*
X12009091Y4511952D02*
D03*
X1607789Y7160999D02*
D03*
Y6981000D02*
D03*
D143*
X-1342420Y5879740D02*
D03*
X-1342420Y5752740D02*
D03*
X-1469420Y5879740D02*
D03*
Y5752740D02*
D03*
X-1596420Y5879740D02*
D03*
X-1596420Y5752740D02*
D03*
X-1342420Y5879740D02*
D03*
X-1342420Y5752740D02*
D03*
X-1469420Y5879740D02*
D03*
Y5752740D02*
D03*
X-1596420Y5879740D02*
D03*
X-1596420Y5752740D02*
D03*
D144*
X10963510Y-860150D02*
D03*
X11393510D02*
D03*
D145*
X15688280Y3893460D02*
D03*
X15561279Y3459120D02*
D03*
D146*
X373892Y4586878D02*
D03*
X123890D02*
D03*
D147*
X15686761Y5496200D02*
D03*
X15591760D02*
D03*
X15686761Y5236201D02*
D03*
X15591760D02*
D03*
X15496759D02*
D03*
Y5496200D02*
D03*
D148*
X12367093Y4103150D02*
D03*
X12494372Y3975871D02*
D03*
D149*
X12264499Y3987578D02*
D03*
X12137221Y3860299D02*
D03*
%TF.MD5,bc5bf3afed8921c7fca63021667b3c4b*%
M02*
