%TF.GenerationSoftware,Altium Limited,Altium Designer,26.2.0 (7)*%
G04 Layer_Color=0*
%FSLAX45Y45*%
%MOMM*%
%TF.SameCoordinates,19529689-9DA4-4D3B-AC8C-EF9351660A47*%
%TF.FilePolarity,Positive*%
%TF.FileFunction,NonPlated,1,4,NPTH,Drill*%
%TF.Part,Single*%
G01*
G75*
%TA.AperFunction,ComponentDrill*%
%ADD245C,3.20000*%
%ADD246O,1.60000X4.00000*%
%ADD247C,3.26390*%
%ADD248O,2.00000X4.00000*%
%ADD249C,1.10000*%
%ADD250C,0.99060*%
%TA.AperFunction,OtherDrill,Pad Free-0 (0mm,0mm)*%
%ADD251C,2.50000*%
%TA.AperFunction,OtherDrill,Pad Free-0 (0mm,78mm)*%
%ADD252C,2.50000*%
%TA.AperFunction,OtherDrill,Pad Free-0 (143mm,78mm)*%
%ADD253C,2.50000*%
%TA.AperFunction,OtherDrill,Pad Free-0 (143mm,0mm)*%
%ADD254C,2.50000*%
G36*
X7010250Y1072799D02*
Y2644600D01*
Y2649652D01*
X7014117Y2658988D01*
X7021262Y2666133D01*
X7030597Y2670000D01*
X7035650D01*
D01*
X7264600D01*
X7269652D01*
X7278988Y2666133D01*
X7286133Y2658988D01*
X7290000Y2649652D01*
Y2644600D01*
D01*
Y1072799D01*
Y1067747D01*
X7286133Y1058411D01*
X7278988Y1051266D01*
X7269652Y1047399D01*
X7264600D01*
D01*
X7035650D01*
X7030597D01*
X7021262Y1051266D01*
X7014117Y1058411D01*
X7010250Y1067747D01*
Y1072799D01*
D01*
D02*
G37*
G36*
X3674010Y4293700D02*
X3659000D01*
X3629556Y4299557D01*
X3601821Y4311045D01*
X3576861Y4327723D01*
X3555633Y4348951D01*
X3538955Y4373911D01*
X3527467Y4401647D01*
X3521610Y4431090D01*
Y4446100D01*
X3521610D01*
X3521610Y6909900D01*
Y6924910D01*
X3527467Y6954353D01*
X3538955Y6982088D01*
X3555633Y7007049D01*
X3576861Y7028277D01*
X3601821Y7044955D01*
X3629556Y7056443D01*
X3659000Y7062300D01*
X3674010D01*
Y7062300D01*
X10625990Y7062300D01*
X10641000D01*
X10670443Y7056443D01*
X10698178Y7044955D01*
X10723139Y7028277D01*
X10744366Y7007049D01*
X10761045Y6982088D01*
X10772533Y6954353D01*
X10778390Y6924910D01*
Y6909900D01*
X10778390D01*
Y6430722D01*
X11226116Y6039124D01*
X11238217Y6028541D01*
X11257468Y6002792D01*
X11270923Y5973593D01*
X11277990Y5942230D01*
X11278174Y5926156D01*
X11278175Y5926156D01*
X11283761Y5438221D01*
X11283951Y5421705D01*
X11277244Y5389361D01*
X11263764Y5359204D01*
X11244136Y5332636D01*
X11231704Y5321762D01*
X11231704Y5321762D01*
X10778390Y4925278D01*
X10778390Y4446100D01*
Y4431090D01*
X10772533Y4401647D01*
X10761045Y4373911D01*
X10744366Y4348951D01*
X10723139Y4327723D01*
X10698178Y4311045D01*
X10670443Y4299557D01*
X10641000Y4293700D01*
X10625990D01*
Y4293700D01*
X3674010Y4293700D01*
D02*
G37*
D245*
X13350200Y5307419D02*
D03*
X11910200Y6138799D02*
D03*
X13350200Y6970179D02*
D03*
D246*
X6619500Y9900200D02*
D03*
X6179500D02*
D03*
X8118100D02*
D03*
X7678100D02*
D03*
D247*
X644002Y5015000D02*
D03*
D248*
X9196650Y-2072250D02*
D03*
X8796650D02*
D03*
X7574860D02*
D03*
X7174860D02*
D03*
D249*
X13093671Y831490D02*
D03*
X13347670D02*
D03*
D250*
X-1840000Y3294300D02*
D03*
Y3497500D02*
D03*
X-1332000Y3395900D02*
D03*
D251*
X0Y0D02*
D03*
D252*
Y7800000D02*
D03*
D253*
X14300000D02*
D03*
D254*
Y0D02*
D03*
%TF.MD5,42352afaee85561b00df91e5f9d5400f*%
M02*
