%TF.GenerationSoftware,Altium Limited,Altium Designer,26.2.0 (7)*%
G04 Layer_Color=2752767*
%FSLAX45Y45*%
%MOMM*%
%TF.SameCoordinates,19529689-9DA4-4D3B-AC8C-EF9351660A47*%
%TF.FilePolarity,Positive*%
%TF.FileFunction,Drawing*%
%TF.Part,Single*%
G01*
G75*
%TA.AperFunction,NonConductor*%
%ADD94C,0.12700*%
%ADD282C,0.16933*%
D94*
X13273441Y6265758D02*
X13231120D01*
X13252280D01*
Y6159959D01*
X13231120Y6138799D01*
X13209959D01*
X13188800Y6159959D01*
X12636240Y6265758D02*
X12593920D01*
X12615080D01*
Y6159959D01*
X12593920Y6138799D01*
X12572760D01*
X12551600Y6159959D01*
X13350200Y5434378D02*
Y5307419D01*
Y5349739D01*
X13434840Y5434378D01*
X13371359Y5370898D01*
X13434840Y5307419D01*
X11910200Y6265758D02*
Y6138799D01*
Y6181119D01*
X11994840Y6265758D01*
X11931360Y6202278D01*
X11994840Y6138799D01*
X13350200Y7097138D02*
Y6970179D01*
Y7012499D01*
X13434840Y7097138D01*
X13371359Y7033659D01*
X13434840Y6970179D01*
X12954840Y6244598D02*
X12933681Y6265758D01*
X12891360D01*
X12870200Y6244598D01*
Y6159959D01*
X12891360Y6138799D01*
X12933681D01*
X12954840Y6159959D01*
Y6202278D01*
X12912520D01*
X3402300Y7152280D02*
X3427700Y7177680D01*
X3453100D01*
X3427700Y7203080D01*
X3453100Y7228480D01*
X3427700D01*
X3402300Y7253880D01*
X3376900Y7228480D01*
X3351500D01*
X3376900Y7203080D01*
X3351500Y7177680D01*
X3376900D01*
X3402300Y7152280D01*
Y7172600D02*
X3417540Y7187840D01*
X3432780D01*
X3417540Y7203080D01*
X3432780Y7218320D01*
X3417540D01*
X3402300Y7233560D01*
X3387060Y7218320D01*
X3371820D01*
X3387060Y7203080D01*
X3371820Y7187840D01*
X3387060D01*
X3402300Y7172600D01*
Y4104280D02*
X3427700Y4129680D01*
X3453100D01*
X3427700Y4155080D01*
X3453100Y4180480D01*
X3427700D01*
X3402300Y4205880D01*
X3376900Y4180480D01*
X3351500D01*
X3376900Y4155080D01*
X3351500Y4129680D01*
X3376900D01*
X3402300Y4104280D01*
Y4124600D02*
X3417540Y4139840D01*
X3432780D01*
X3417540Y4155080D01*
X3432780Y4170320D01*
X3417540D01*
X3402300Y4185560D01*
X3387060Y4170320D01*
X3371820D01*
X3387060Y4155080D01*
X3371820Y4139840D01*
X3387060D01*
X3402300Y4124600D01*
X10895300Y7152280D02*
X10920700Y7177680D01*
X10946100D01*
X10920700Y7203080D01*
X10946100Y7228480D01*
X10920700D01*
X10895300Y7253880D01*
X10869900Y7228480D01*
X10844500D01*
X10869900Y7203080D01*
X10844500Y7177680D01*
X10869900D01*
X10895300Y7152280D01*
Y7172600D02*
X10910540Y7187840D01*
X10925780D01*
X10910540Y7203080D01*
X10925780Y7218320D01*
X10910540D01*
X10895300Y7233560D01*
X10880060Y7218320D01*
X10864820D01*
X10880060Y7203080D01*
X10864820Y7187840D01*
X10880060D01*
X10895300Y7172600D01*
Y4104280D02*
X10920700Y4129680D01*
X10946100D01*
X10920700Y4155080D01*
X10946100Y4180480D01*
X10920700D01*
X10895300Y4205880D01*
X10869900Y4180480D01*
X10844500D01*
X10869900Y4155080D01*
X10844500Y4129680D01*
X10869900D01*
X10895300Y4104280D01*
Y4124600D02*
X10910540Y4139840D01*
X10925780D01*
X10910540Y4155080D01*
X10925780Y4170320D01*
X10910540D01*
X10895300Y4185560D01*
X10880060Y4170320D01*
X10864820D01*
X10880060Y4155080D01*
X10864820Y4139840D01*
X10880060D01*
X10895300Y4124600D01*
X9874220Y7203080D02*
X9899620Y7253880D01*
X9874220Y7304680D01*
X9925020Y7279280D01*
X9975820Y7304680D01*
X9950420Y7253880D01*
X9975820Y7203080D01*
X9925020Y7228480D01*
X9874220Y7203080D01*
X9366220D02*
X9391620Y7253880D01*
X9366220Y7304680D01*
X9417020Y7279280D01*
X9467820Y7304680D01*
X9442420Y7253880D01*
X9467820Y7203080D01*
X9417020Y7228480D01*
X9366220Y7203080D01*
X9112220D02*
X9137620Y7253880D01*
X9112220Y7304680D01*
X9163020Y7279280D01*
X9213820Y7304680D01*
X9188420Y7253880D01*
X9213820Y7203080D01*
X9163020Y7228480D01*
X9112220Y7203080D01*
X9620220D02*
X9645620Y7253880D01*
X9620220Y7304680D01*
X9671020Y7279280D01*
X9721820Y7304680D01*
X9696420Y7253880D01*
X9721820Y7203080D01*
X9671020Y7228480D01*
X9620220Y7203080D01*
X4080480D02*
X4105880Y7253880D01*
X4080480Y7304680D01*
X4131280Y7279280D01*
X4182080Y7304680D01*
X4156680Y7253880D01*
X4182080Y7203080D01*
X4131280Y7228480D01*
X4080480Y7203080D01*
X4334480D02*
X4359880Y7253880D01*
X4334480Y7304680D01*
X4385280Y7279280D01*
X4436080Y7304680D01*
X4410680Y7253880D01*
X4436080Y7203080D01*
X4385280Y7228480D01*
X4334480Y7203080D01*
X7890480D02*
X7915880Y7253880D01*
X7890480Y7304680D01*
X7941280Y7279280D01*
X7992080Y7304680D01*
X7966680Y7253880D01*
X7992080Y7203080D01*
X7941280Y7228480D01*
X7890480Y7203080D01*
X6874480D02*
X6899880Y7253880D01*
X6874480Y7304680D01*
X6925280Y7279280D01*
X6976080Y7304680D01*
X6950680Y7253880D01*
X6976080Y7203080D01*
X6925280Y7228480D01*
X6874480Y7203080D01*
X6620480D02*
X6645880Y7253880D01*
X6620480Y7304680D01*
X6671280Y7279280D01*
X6722080Y7304680D01*
X6696680Y7253880D01*
X6722080Y7203080D01*
X6671280Y7228480D01*
X6620480Y7203080D01*
X6366480D02*
X6391880Y7253880D01*
X6366480Y7304680D01*
X6417280Y7279280D01*
X6468080Y7304680D01*
X6442680Y7253880D01*
X6468080Y7203080D01*
X6417280Y7228480D01*
X6366480Y7203080D01*
X6112480D02*
X6137880Y7253880D01*
X6112480Y7304680D01*
X6163280Y7279280D01*
X6214080Y7304680D01*
X6188680Y7253880D01*
X6214080Y7203080D01*
X6163280Y7228480D01*
X6112480Y7203080D01*
X5858480D02*
X5883880Y7253880D01*
X5858480Y7304680D01*
X5909280Y7279280D01*
X5960080Y7304680D01*
X5934680Y7253880D01*
X5960080Y7203080D01*
X5909280Y7228480D01*
X5858480Y7203080D01*
X5604480D02*
X5629880Y7253880D01*
X5604480Y7304680D01*
X5655280Y7279280D01*
X5706080Y7304680D01*
X5680680Y7253880D01*
X5706080Y7203080D01*
X5655280Y7228480D01*
X5604480Y7203080D01*
X5350480D02*
X5375880Y7253880D01*
X5350480Y7304680D01*
X5401280Y7279280D01*
X5452080Y7304680D01*
X5426680Y7253880D01*
X5452080Y7203080D01*
X5401280Y7228480D01*
X5350480Y7203080D01*
X5096480D02*
X5121880Y7253880D01*
X5096480Y7304680D01*
X5147280Y7279280D01*
X5198080Y7304680D01*
X5172680Y7253880D01*
X5198080Y7203080D01*
X5147280Y7228480D01*
X5096480Y7203080D01*
X4842480D02*
X4867880Y7253880D01*
X4842480Y7304680D01*
X4893280Y7279280D01*
X4944080Y7304680D01*
X4918680Y7253880D01*
X4944080Y7203080D01*
X4893280Y7228480D01*
X4842480Y7203080D01*
X4588480D02*
X4613880Y7253880D01*
X4588480Y7304680D01*
X4639280Y7279280D01*
X4690080Y7304680D01*
X4664680Y7253880D01*
X4690080Y7203080D01*
X4639280Y7228480D01*
X4588480Y7203080D01*
X7382480D02*
X7407880Y7253880D01*
X7382480Y7304680D01*
X7433280Y7279280D01*
X7484080Y7304680D01*
X7458680Y7253880D01*
X7484080Y7203080D01*
X7433280Y7228480D01*
X7382480Y7203080D01*
X7128480D02*
X7153880Y7253880D01*
X7128480Y7304680D01*
X7179280Y7279280D01*
X7230080Y7304680D01*
X7204680Y7253880D01*
X7230080Y7203080D01*
X7179280Y7228480D01*
X7128480Y7203080D01*
X7636480D02*
X7661880Y7253880D01*
X7636480Y7304680D01*
X7687280Y7279280D01*
X7738080Y7304680D01*
X7712680Y7253880D01*
X7738080Y7203080D01*
X7687280Y7228480D01*
X7636480Y7203080D01*
X6899500Y9477159D02*
Y9350200D01*
Y9413680D01*
X6984139D01*
Y9477159D01*
Y9350200D01*
X6399500Y9749400D02*
X6424900Y9774800D01*
X6450300D01*
X6424900Y9800200D01*
X6450300Y9825600D01*
X6424900D01*
X6399500Y9851000D01*
X6374100Y9825600D01*
X6348700D01*
X6374100Y9800200D01*
X6348700Y9774800D01*
X6374100D01*
X6399500Y9749400D01*
X5899500Y9477159D02*
Y9350200D01*
Y9413680D01*
X5984139D01*
Y9477159D01*
Y9350200D01*
X6899500Y10052159D02*
Y9925200D01*
X6984139D01*
X7024500Y9099400D02*
X6973700Y9201000D01*
X7075300D01*
X7024500Y9099400D01*
Y9119720D02*
X6994020Y9180680D01*
X7054980D01*
X7024500Y9119720D01*
X6619500Y9900200D02*
Y10027159D01*
X6661820Y9984840D01*
X6704139Y10027159D01*
Y9900200D01*
X6179500D02*
Y10027159D01*
X6221820Y9984840D01*
X6264139Y10027159D01*
Y9900200D01*
X5899500Y10052159D02*
Y9925200D01*
X5984139D01*
X5774500Y9099400D02*
X5723700Y9201000D01*
X5825300D01*
X5774500Y9099400D01*
Y9119720D02*
X5744020Y9180680D01*
X5804980D01*
X5774500Y9119720D01*
X6399500Y9249400D02*
X6348700Y9351000D01*
X6450300D01*
X6399500Y9249400D01*
X5899500Y8749400D02*
X5848700Y8851000D01*
X5950300D01*
X5899500Y8749400D01*
X6899500D02*
X6848700Y8851000D01*
X6950300D01*
X6899500Y8749400D01*
X12634120Y5813680D02*
Y5788280D01*
X12684920D01*
Y5813680D01*
X12710320D01*
Y5864480D01*
X12684920D01*
Y5889880D01*
X12634120D01*
Y5864480D01*
X12608720D01*
Y5813680D01*
X12634120D01*
X12644280Y5823840D02*
Y5808600D01*
X12674760D01*
Y5823840D01*
X12690000D01*
Y5854320D01*
X12674760D01*
Y5869560D01*
X12644280D01*
Y5854320D01*
X12629040D01*
Y5823840D01*
X12644280D01*
X12884120Y5813680D02*
Y5788280D01*
X12934920D01*
Y5813680D01*
X12960320D01*
Y5864480D01*
X12934920D01*
Y5889880D01*
X12884120D01*
Y5864480D01*
X12858720D01*
Y5813680D01*
X12884120D01*
X12894279Y5823840D02*
Y5808600D01*
X12924760D01*
Y5823840D01*
X12939999D01*
Y5854320D01*
X12924760D01*
Y5869560D01*
X12894279D01*
Y5854320D01*
X12879041D01*
Y5823840D01*
X12894279D01*
X13134120Y5813680D02*
Y5788280D01*
X13184920D01*
Y5813680D01*
X13210320D01*
Y5864480D01*
X13184920D01*
Y5889880D01*
X13134120D01*
Y5864480D01*
X13108720D01*
Y5813680D01*
X13134120D01*
X13144279Y5823840D02*
Y5808600D01*
X13174760D01*
Y5823840D01*
X13189999D01*
Y5854320D01*
X13174760D01*
Y5869560D01*
X13144279D01*
Y5854320D01*
X13129041D01*
Y5823840D01*
X13144279D01*
X12634120Y5493680D02*
Y5468280D01*
X12684920D01*
Y5493680D01*
X12710320D01*
Y5544480D01*
X12684920D01*
Y5569880D01*
X12634120D01*
Y5544480D01*
X12608720D01*
Y5493680D01*
X12634120D01*
X12644280Y5503840D02*
Y5488600D01*
X12674760D01*
Y5503840D01*
X12690000D01*
Y5534320D01*
X12674760D01*
Y5549560D01*
X12644280D01*
Y5534320D01*
X12629040D01*
Y5503840D01*
X12644280D01*
X12884120Y5493680D02*
Y5468280D01*
X12934920D01*
Y5493680D01*
X12960320D01*
Y5544480D01*
X12934920D01*
Y5569880D01*
X12884120D01*
Y5544480D01*
X12858720D01*
Y5493680D01*
X12884120D01*
X12894279Y5503840D02*
Y5488600D01*
X12924760D01*
Y5503840D01*
X12939999D01*
Y5534320D01*
X12924760D01*
Y5549560D01*
X12894279D01*
Y5534320D01*
X12879041D01*
Y5503840D01*
X12894279D01*
X13134120Y5493680D02*
Y5468280D01*
X13184920D01*
Y5493680D01*
X13210320D01*
Y5544480D01*
X13184920D01*
Y5569880D01*
X13134120D01*
Y5544480D01*
X13108720D01*
Y5493680D01*
X13134120D01*
X13144279Y5503840D02*
Y5488600D01*
X13174760D01*
Y5503840D01*
X13189999D01*
Y5534320D01*
X13174760D01*
Y5549560D01*
X13144279D01*
Y5534320D01*
X13129041D01*
Y5503840D01*
X13144279D01*
X593202Y4964200D02*
Y5065800D01*
X694802D01*
Y4964200D01*
X593202D01*
X2374870Y4764639D02*
Y4637680D01*
X2438349D01*
X2459509Y4658840D01*
Y4680000D01*
X2438349Y4701160D01*
X2374870D01*
X2438349D01*
X2459509Y4722319D01*
Y4743479D01*
X2438349Y4764639D01*
X2374870D01*
X1866870D02*
Y4637680D01*
X1930349D01*
X1951509Y4658840D01*
Y4680000D01*
X1930349Y4701160D01*
X1866870D01*
X1930349D01*
X1951509Y4722319D01*
Y4743479D01*
X1930349Y4764639D01*
X1866870D01*
X1612870D02*
Y4637680D01*
X1676349D01*
X1697509Y4658840D01*
Y4680000D01*
X1676349Y4701160D01*
X1612870D01*
X1676349D01*
X1697509Y4722319D01*
Y4743479D01*
X1676349Y4764639D01*
X1612870D01*
X1358870D02*
Y4637680D01*
X1422349D01*
X1443509Y4658840D01*
Y4680000D01*
X1422349Y4701160D01*
X1358870D01*
X1422349D01*
X1443509Y4722319D01*
Y4743479D01*
X1422349Y4764639D01*
X1358870D01*
X2120870D02*
Y4637680D01*
X2184349D01*
X2205509Y4658840D01*
Y4680000D01*
X2184349Y4701160D01*
X2120870D01*
X2184349D01*
X2205509Y4722319D01*
Y4743479D01*
X2184349Y4764639D01*
X2120870D01*
X7008800Y2031640D02*
X6958000Y2133240D01*
X7059600D01*
X7008800Y2031640D01*
Y2051960D02*
X6978320Y2112920D01*
X7039280D01*
X7008800Y2051960D01*
X7288800Y2031640D02*
X7238000Y2133240D01*
X7339600D01*
X7288800Y2031640D01*
Y2051960D02*
X7258320Y2112920D01*
X7319280D01*
X7288800Y2051960D01*
X8496650Y-1623050D02*
X8445850Y-1521450D01*
X8547450D01*
X8496650Y-1623050D01*
Y-1602730D02*
X8466170Y-1541770D01*
X8527130D01*
X8496650Y-1602730D01*
X9621650Y-1373050D02*
X9570850Y-1271450D01*
X9672450D01*
X9621650Y-1373050D01*
Y-1352730D02*
X9591170Y-1291770D01*
X9652130D01*
X9621650Y-1352730D01*
X9496650Y-1623050D02*
X9445850Y-1521450D01*
X9547450D01*
X9496650Y-1623050D01*
Y-1602730D02*
X9466170Y-1541770D01*
X9527130D01*
X9496650Y-1602730D01*
Y-2123050D02*
X9445850Y-2021450D01*
X9547450D01*
X9496650Y-2123050D01*
Y-2102730D02*
X9466170Y-2041770D01*
X9527130D01*
X9496650Y-2102730D01*
X9281290Y-1966451D02*
X9260130Y-1945291D01*
X9217810D01*
X9196650Y-1966451D01*
Y-2051090D01*
X9217810Y-2072250D01*
X9260130D01*
X9281290Y-2051090D01*
X8881289Y-1966451D02*
X8860129Y-1945291D01*
X8817810D01*
X8796650Y-1966451D01*
Y-2051090D01*
X8817810Y-2072250D01*
X8860129D01*
X8881289Y-2051090D01*
X8496650Y-2123050D02*
X8445850Y-2021450D01*
X8547450D01*
X8496650Y-2123050D01*
Y-2102730D02*
X8466170Y-2041770D01*
X8527130D01*
X8496650Y-2102730D01*
X8371650Y-1373050D02*
X8320850Y-1271450D01*
X8422450D01*
X8371650Y-1373050D01*
Y-1352730D02*
X8341170Y-1291770D01*
X8402130D01*
X8371650Y-1352730D01*
X15649289Y6233180D02*
X15674689Y6258580D01*
X15700089D01*
X15674689Y6283980D01*
X15700089Y6309380D01*
X15674689D01*
X15649289Y6334780D01*
X15623889Y6309380D01*
X15598489D01*
X15623889Y6283980D01*
X15598489Y6258580D01*
X15623889D01*
X15649289Y6233180D01*
Y6483180D02*
X15674689Y6508580D01*
X15700089D01*
X15674689Y6533980D01*
X15700089Y6559380D01*
X15674689D01*
X15649289Y6584780D01*
X15623889Y6559380D01*
X15598489D01*
X15623889Y6533980D01*
X15598489Y6508580D01*
X15623889D01*
X15649289Y6483180D01*
Y6983180D02*
X15674689Y7008580D01*
X15700089D01*
X15674689Y7033980D01*
X15700089Y7059380D01*
X15674689D01*
X15649289Y7084780D01*
X15623889Y7059380D01*
X15598489D01*
X15623889Y7033980D01*
X15598489Y7008580D01*
X15623889D01*
X15649289Y6983180D01*
Y7233180D02*
X15674689Y7258580D01*
X15700089D01*
X15674689Y7283980D01*
X15700089Y7309380D01*
X15674689D01*
X15649289Y7334780D01*
X15623889Y7309380D01*
X15598489D01*
X15623889Y7283980D01*
X15598489Y7258580D01*
X15623889D01*
X15649289Y7233180D01*
Y6733180D02*
X15598489Y6834780D01*
X15700089D01*
X15649289Y6733180D01*
X15149289Y7233180D02*
X15098489Y7334780D01*
X15200089D01*
X15149289Y7233180D01*
Y6233180D02*
X15098489Y6334780D01*
X15200089D01*
X15149289Y6233180D01*
X16399289D02*
X16348489Y6334780D01*
X16450089D01*
X16399289Y6233180D01*
X16149289D02*
X16098489Y6334780D01*
X16200089D01*
X16149289Y6233180D01*
Y7233180D02*
X16098489Y7334780D01*
X16200089D01*
X16149289Y7233180D01*
X16399289D02*
X16348489Y7334780D01*
X16450089D01*
X16399289Y7233180D01*
X16149289Y6733180D02*
X16174689Y6758580D01*
X16200089D01*
X16174689Y6783980D01*
X16200089Y6809380D01*
X16174689D01*
X16149289Y6834780D01*
X16123889Y6809380D01*
X16098489D01*
X16123889Y6783980D01*
X16098489Y6758580D01*
X16123889D01*
X16149289Y6733180D01*
X6874860Y-1623050D02*
X6824060Y-1521450D01*
X6925660D01*
X6874860Y-1623050D01*
Y-1602730D02*
X6844380Y-1541770D01*
X6905340D01*
X6874860Y-1602730D01*
X7999860Y-1373050D02*
X7949060Y-1271450D01*
X8050660D01*
X7999860Y-1373050D01*
Y-1352730D02*
X7969380Y-1291770D01*
X8030340D01*
X7999860Y-1352730D01*
X7874860Y-1623050D02*
X7824060Y-1521450D01*
X7925660D01*
X7874860Y-1623050D01*
Y-1602730D02*
X7844380Y-1541770D01*
X7905340D01*
X7874860Y-1602730D01*
Y-2123050D02*
X7824060Y-2021450D01*
X7925660D01*
X7874860Y-2123050D01*
Y-2102730D02*
X7844380Y-2041770D01*
X7905340D01*
X7874860Y-2102730D01*
X7659500Y-1966451D02*
X7638340Y-1945291D01*
X7596020D01*
X7574860Y-1966451D01*
Y-2051090D01*
X7596020Y-2072250D01*
X7638340D01*
X7659500Y-2051090D01*
X7259499Y-1966451D02*
X7238339Y-1945291D01*
X7196020D01*
X7174860Y-1966451D01*
Y-2051090D01*
X7196020Y-2072250D01*
X7238339D01*
X7259499Y-2051090D01*
X6874860Y-2123050D02*
X6824060Y-2021450D01*
X6925660D01*
X6874860Y-2123050D01*
Y-2102730D02*
X6844380Y-2041770D01*
X6905340D01*
X6874860Y-2102730D01*
X6749860Y-1373050D02*
X6699060Y-1271450D01*
X6800660D01*
X6749860Y-1373050D01*
Y-1352730D02*
X6719380Y-1291770D01*
X6780340D01*
X6749860Y-1352730D01*
X14861510Y1027070D02*
X14886909Y1077870D01*
X14861510Y1128670D01*
X14912309Y1103270D01*
X14963110Y1128670D01*
X14937711Y1077870D01*
X14963110Y1027070D01*
X14912309Y1052470D01*
X14861510Y1027070D01*
X14607510D02*
X14632910Y1077870D01*
X14607510Y1128670D01*
X14658310Y1103270D01*
X14709109Y1128670D01*
X14683710Y1077870D01*
X14709109Y1027070D01*
X14658310Y1052470D01*
X14607510Y1027070D01*
X14353510D02*
X14378909Y1077870D01*
X14353510Y1128670D01*
X14404311Y1103270D01*
X14455110Y1128670D01*
X14429710Y1077870D01*
X14455110Y1027070D01*
X14404311Y1052470D01*
X14353510Y1027070D01*
X14099510D02*
X14124910Y1077870D01*
X14099510Y1128670D01*
X14150310Y1103270D01*
X14201109Y1128670D01*
X14175710Y1077870D01*
X14201109Y1027070D01*
X14150310Y1052470D01*
X14099510Y1027070D01*
X9396700Y9749429D02*
X9422100Y9774829D01*
X9447500D01*
X9422100Y9800229D01*
X9447500Y9825629D01*
X9422100D01*
X9396700Y9851029D01*
X9371300Y9825629D01*
X9345900D01*
X9371300Y9800229D01*
X9345900Y9774829D01*
X9371300D01*
X9396700Y9749429D01*
X9896700Y9249430D02*
X9922100Y9274830D01*
X9947500D01*
X9922100Y9300230D01*
X9947500Y9325630D01*
X9922100D01*
X9896700Y9351030D01*
X9871300Y9325630D01*
X9845900D01*
X9871300Y9300230D01*
X9845900Y9274830D01*
X9871300D01*
X9896700Y9249430D01*
X9646700D02*
X9672100Y9274830D01*
X9697500D01*
X9672100Y9300230D01*
X9697500Y9325630D01*
X9672100D01*
X9646700Y9351030D01*
X9621300Y9325630D01*
X9595900D01*
X9621300Y9300230D01*
X9595900Y9274830D01*
X9621300D01*
X9646700Y9249430D01*
X9146700D02*
X9172100Y9274830D01*
X9197500D01*
X9172100Y9300230D01*
X9197500Y9325630D01*
X9172100D01*
X9146700Y9351030D01*
X9121300Y9325630D01*
X9095900D01*
X9121300Y9300230D01*
X9095900Y9274830D01*
X9121300D01*
X9146700Y9249430D01*
X8896700D02*
X8922100Y9274830D01*
X8947500D01*
X8922100Y9300230D01*
X8947500Y9325630D01*
X8922100D01*
X8896700Y9351030D01*
X8871300Y9325630D01*
X8845900D01*
X8871300Y9300230D01*
X8845900Y9274830D01*
X8871300D01*
X8896700Y9249430D01*
X9396700D02*
X9345900Y9351030D01*
X9447500D01*
X9396700Y9249430D01*
X8896700Y8749430D02*
X8845900Y8851030D01*
X8947500D01*
X8896700Y8749430D01*
X9896700D02*
X9845900Y8851030D01*
X9947500D01*
X9896700Y8749430D01*
Y9999429D02*
X9845900Y10101029D01*
X9947500D01*
X9896700Y9999429D01*
Y9749429D02*
X9845900Y9851029D01*
X9947500D01*
X9896700Y9749429D01*
X8896700D02*
X8845900Y9851029D01*
X8947500D01*
X8896700Y9749429D01*
Y9999429D02*
X8845900Y10101029D01*
X8947500D01*
X8896700Y9999429D01*
X13042870Y780690D02*
X13068269D01*
X13093671Y806090D01*
X13119070Y780690D01*
X13144470D01*
Y806090D01*
X13119070Y831490D01*
X13144470Y856890D01*
Y882290D01*
X13119070D01*
X13093671Y856890D01*
X13068269Y882290D01*
X13042870D01*
Y856890D01*
X13068269Y831490D01*
X13042870Y806090D01*
Y780690D01*
X13063190Y801010D02*
X13078430D01*
X13093671Y816250D01*
X13108910Y801010D01*
X13124150D01*
Y816250D01*
X13108910Y831490D01*
X13124150Y846730D01*
Y861970D01*
X13108910D01*
X13093671Y846730D01*
X13078430Y861970D01*
X13063190D01*
Y846730D01*
X13078430Y831490D01*
X13063190Y816250D01*
Y801010D01*
X13296870Y780690D02*
X13322270D01*
X13347670Y806090D01*
X13373070Y780690D01*
X13398470D01*
Y806090D01*
X13373070Y831490D01*
X13398470Y856890D01*
Y882290D01*
X13373070D01*
X13347670Y856890D01*
X13322270Y882290D01*
X13296870D01*
Y856890D01*
X13322270Y831490D01*
X13296870Y806090D01*
Y780690D01*
X13317191Y801010D02*
X13332430D01*
X13347670Y816250D01*
X13362910Y801010D01*
X13378149D01*
Y816250D01*
X13362910Y831490D01*
X13378149Y846730D01*
Y861970D01*
X13362910D01*
X13347670Y846730D01*
X13332430Y861970D01*
X13317191D01*
Y846730D01*
X13332430Y831490D01*
X13317191Y816250D01*
Y801010D01*
X13296870Y1034690D02*
X13322270Y1085490D01*
X13296870Y1136290D01*
X13347670Y1110890D01*
X13398470Y1136290D01*
X13373070Y1085490D01*
X13398470Y1034690D01*
X13347670Y1060090D01*
X13296870Y1034690D01*
X13042870D02*
X13068269Y1085490D01*
X13042870Y1136290D01*
X13093671Y1110890D01*
X13144470Y1136290D01*
X13119070Y1085490D01*
X13144470Y1034690D01*
X13093671Y1060090D01*
X13042870Y1034690D01*
X4900900Y9749430D02*
X4926300Y9774830D01*
X4951700D01*
X4926300Y9800230D01*
X4951700Y9825630D01*
X4926300D01*
X4900900Y9851030D01*
X4875500Y9825630D01*
X4850100D01*
X4875500Y9800230D01*
X4850100Y9774830D01*
X4875500D01*
X4900900Y9749430D01*
X5400900Y9249430D02*
X5426300Y9274830D01*
X5451700D01*
X5426300Y9300230D01*
X5451700Y9325630D01*
X5426300D01*
X5400900Y9351030D01*
X5375500Y9325630D01*
X5350100D01*
X5375500Y9300230D01*
X5350100Y9274830D01*
X5375500D01*
X5400900Y9249430D01*
X5150900D02*
X5176300Y9274830D01*
X5201700D01*
X5176300Y9300230D01*
X5201700Y9325630D01*
X5176300D01*
X5150900Y9351030D01*
X5125500Y9325630D01*
X5100100D01*
X5125500Y9300230D01*
X5100100Y9274830D01*
X5125500D01*
X5150900Y9249430D01*
X4650900D02*
X4676300Y9274830D01*
X4701700D01*
X4676300Y9300230D01*
X4701700Y9325630D01*
X4676300D01*
X4650900Y9351030D01*
X4625500Y9325630D01*
X4600100D01*
X4625500Y9300230D01*
X4600100Y9274830D01*
X4625500D01*
X4650900Y9249430D01*
X4400900D02*
X4426300Y9274830D01*
X4451700D01*
X4426300Y9300230D01*
X4451700Y9325630D01*
X4426300D01*
X4400900Y9351030D01*
X4375500Y9325630D01*
X4350100D01*
X4375500Y9300230D01*
X4350100Y9274830D01*
X4375500D01*
X4400900Y9249430D01*
X4900900D02*
X4850100Y9351030D01*
X4951700D01*
X4900900Y9249430D01*
X4400900Y8749430D02*
X4350100Y8851030D01*
X4451700D01*
X4400900Y8749430D01*
X5400900D02*
X5350100Y8851030D01*
X5451700D01*
X5400900Y8749430D01*
Y9999430D02*
X5350100Y10101030D01*
X5451700D01*
X5400900Y9999430D01*
Y9749430D02*
X5350100Y9851030D01*
X5451700D01*
X5400900Y9749430D01*
X4400900D02*
X4350100Y9851030D01*
X4451700D01*
X4400900Y9749430D01*
Y9999430D02*
X4350100Y10101030D01*
X4451700D01*
X4400900Y9999430D01*
X11725470Y-2059110D02*
Y-1932151D01*
X11788949D01*
X11810109Y-1953311D01*
Y-1995631D01*
X11788949Y-2016790D01*
X11725470D01*
X11767790D02*
X11810109Y-2059110D01*
X11355470Y-2159110D02*
Y-2032151D01*
X11440109Y-2159110D01*
Y-2032151D01*
X12345470Y-2159110D02*
Y-2032151D01*
X12430110Y-2159110D01*
Y-2032151D01*
X11395470Y-1429110D02*
Y-1344471D01*
X11437790Y-1302151D01*
X11480109Y-1344471D01*
Y-1429110D01*
Y-1365630D01*
X11395470D01*
X11735470Y-1429110D02*
Y-1344471D01*
X11777790Y-1302151D01*
X11820109Y-1344471D01*
Y-1429110D01*
Y-1365630D01*
X11735470D01*
X12255470Y-1429110D02*
Y-1344471D01*
X12297790Y-1302151D01*
X12340109Y-1344471D01*
Y-1429110D01*
Y-1365630D01*
X12255470D01*
X10694640Y-2276810D02*
Y-2302210D01*
X10745440D01*
Y-2276810D01*
X10770840D01*
Y-2226010D01*
X10745440D01*
Y-2200610D01*
X10694640D01*
Y-2226010D01*
X10669240D01*
Y-2276810D01*
X10694640D01*
X10704800Y-2266650D02*
Y-2281890D01*
X10735280D01*
Y-2266650D01*
X10750520D01*
Y-2236170D01*
X10735280D01*
Y-2220930D01*
X10704800D01*
Y-2236170D01*
X10689560D01*
Y-2266650D01*
X10704800D01*
X10494640Y-2276810D02*
Y-2302210D01*
X10545440D01*
Y-2276810D01*
X10570840D01*
Y-2226010D01*
X10545440D01*
Y-2200610D01*
X10494640D01*
Y-2226010D01*
X10469240D01*
Y-2276810D01*
X10494640D01*
X10504800Y-2266650D02*
Y-2281890D01*
X10535280D01*
Y-2266650D01*
X10550520D01*
Y-2236170D01*
X10535280D01*
Y-2220930D01*
X10504800D01*
Y-2236170D01*
X10489560D01*
Y-2266650D01*
X10504800D01*
X10294640Y-2276810D02*
Y-2302210D01*
X10345440D01*
Y-2276810D01*
X10370840D01*
Y-2226010D01*
X10345440D01*
Y-2200610D01*
X10294640D01*
Y-2226010D01*
X10269240D01*
Y-2276810D01*
X10294640D01*
X10304800Y-2266650D02*
Y-2281890D01*
X10335280D01*
Y-2266650D01*
X10350520D01*
Y-2236170D01*
X10335280D01*
Y-2220930D01*
X10304800D01*
Y-2236170D01*
X10289560D01*
Y-2266650D01*
X10304800D01*
X10694640Y-2076810D02*
Y-2102210D01*
X10745440D01*
Y-2076810D01*
X10770840D01*
Y-2026010D01*
X10745440D01*
Y-2000610D01*
X10694640D01*
Y-2026010D01*
X10669240D01*
Y-2076810D01*
X10694640D01*
X10704800Y-2066650D02*
Y-2081890D01*
X10735280D01*
Y-2066650D01*
X10750520D01*
Y-2036170D01*
X10735280D01*
Y-2020930D01*
X10704800D01*
Y-2036170D01*
X10689560D01*
Y-2066650D01*
X10704800D01*
X10494640Y-2076810D02*
Y-2102210D01*
X10545440D01*
Y-2076810D01*
X10570840D01*
Y-2026010D01*
X10545440D01*
Y-2000610D01*
X10494640D01*
Y-2026010D01*
X10469240D01*
Y-2076810D01*
X10494640D01*
X10504800Y-2066650D02*
Y-2081890D01*
X10535280D01*
Y-2066650D01*
X10550520D01*
Y-2036170D01*
X10535280D01*
Y-2020930D01*
X10504800D01*
Y-2036170D01*
X10489560D01*
Y-2066650D01*
X10504800D01*
X10294640Y-2076810D02*
Y-2102210D01*
X10345440D01*
Y-2076810D01*
X10370840D01*
Y-2026010D01*
X10345440D01*
Y-2000610D01*
X10294640D01*
Y-2026010D01*
X10269240D01*
Y-2076810D01*
X10294640D01*
X10304800Y-2066650D02*
Y-2081890D01*
X10335280D01*
Y-2066650D01*
X10350520D01*
Y-2036170D01*
X10335280D01*
Y-2020930D01*
X10304800D01*
Y-2036170D01*
X10289560D01*
Y-2066650D01*
X10304800D01*
X11000040Y-2202210D02*
X10949240Y-2100610D01*
X11050840D01*
X11000040Y-2202210D01*
Y-2181890D02*
X10969560Y-2120930D01*
X11030520D01*
X11000040Y-2181890D01*
X10040040Y-2202210D02*
X9989240Y-2100610D01*
X10090840D01*
X10040040Y-2202210D01*
Y-2181890D02*
X10009560Y-2120930D01*
X10070520D01*
X10040040Y-2181890D01*
X3923000Y1283840D02*
X3948400Y1334640D01*
X3923000Y1385440D01*
X3973800Y1360040D01*
X4024600Y1385440D01*
X3999200Y1334640D01*
X4024600Y1283840D01*
X3973800Y1309240D01*
X3923000Y1283840D01*
X3943320Y1304160D02*
X3958560Y1334640D01*
X3943320Y1365120D01*
X3973800Y1349880D01*
X4004280Y1365120D01*
X3989040Y1334640D01*
X4004280Y1304160D01*
X3973800Y1319400D01*
X3943320Y1304160D01*
X3923000Y2423840D02*
X3948400Y2474640D01*
X3923000Y2525440D01*
X3973800Y2500040D01*
X4024600Y2525440D01*
X3999200Y2474640D01*
X4024600Y2423840D01*
X3973800Y2449240D01*
X3923000Y2423840D01*
X3943320Y2444160D02*
X3958560Y2474640D01*
X3943320Y2505120D01*
X3973800Y2489880D01*
X4004280Y2505120D01*
X3989040Y2474640D01*
X4004280Y2444160D01*
X3973800Y2459400D01*
X3943320Y2444160D01*
X4723800Y2103840D02*
X4673000Y2205440D01*
X4774600D01*
X4723800Y2103840D01*
Y1853840D02*
X4673000Y1955440D01*
X4774600D01*
X4723800Y1853840D01*
Y1603840D02*
X4673000Y1705440D01*
X4774600D01*
X4723800Y1603840D01*
X3273800Y2103840D02*
X3223000Y2205440D01*
X3324600D01*
X3273800Y2103840D01*
Y1603840D02*
X3223000Y1705440D01*
X3324600D01*
X3273800Y1603840D01*
X10273000Y2423840D02*
X10298400Y2474640D01*
X10273000Y2525440D01*
X10323800Y2500040D01*
X10374600Y2525440D01*
X10349200Y2474640D01*
X10374600Y2423840D01*
X10323800Y2449240D01*
X10273000Y2423840D01*
X10293320Y2444160D02*
X10308560Y2474640D01*
X10293320Y2505120D01*
X10323800Y2489880D01*
X10354280Y2505120D01*
X10339040Y2474640D01*
X10354280Y2444160D01*
X10323800Y2459400D01*
X10293320Y2444160D01*
X10273000Y1283840D02*
X10298400Y1334640D01*
X10273000Y1385440D01*
X10323800Y1360040D01*
X10374600Y1385440D01*
X10349200Y1334640D01*
X10374600Y1283840D01*
X10323800Y1309240D01*
X10273000Y1283840D01*
X10293320Y1304160D02*
X10308560Y1334640D01*
X10293320Y1365120D01*
X10323800Y1349880D01*
X10354280Y1365120D01*
X10339040Y1334640D01*
X10354280Y1304160D01*
X10323800Y1319400D01*
X10293320Y1304160D01*
X9573800Y1603840D02*
X9523000Y1705440D01*
X9624600D01*
X9573800Y1603840D01*
Y1853840D02*
X9523000Y1955440D01*
X9624600D01*
X9573800Y1853840D01*
Y2103840D02*
X9523000Y2205440D01*
X9624600D01*
X9573800Y2103840D01*
X11023800Y1603840D02*
X10973000Y1705440D01*
X11074600D01*
X11023800Y1603840D01*
Y2103840D02*
X10973000Y2205440D01*
X11074600D01*
X11023800Y2103840D01*
X8398100Y9477159D02*
Y9350200D01*
Y9413680D01*
X8482739D01*
Y9477159D01*
Y9350200D01*
X7898100Y9749400D02*
X7923500Y9774800D01*
X7948900D01*
X7923500Y9800200D01*
X7948900Y9825600D01*
X7923500D01*
X7898100Y9851000D01*
X7872700Y9825600D01*
X7847300D01*
X7872700Y9800200D01*
X7847300Y9774800D01*
X7872700D01*
X7898100Y9749400D01*
X7398100Y9477159D02*
Y9350200D01*
Y9413680D01*
X7482739D01*
Y9477159D01*
Y9350200D01*
X8398100Y10052159D02*
Y9925200D01*
X8482739D01*
X8523100Y9099400D02*
X8472300Y9201000D01*
X8573900D01*
X8523100Y9099400D01*
Y9119720D02*
X8492620Y9180680D01*
X8553580D01*
X8523100Y9119720D01*
X8118100Y9900200D02*
Y10027159D01*
X8160420Y9984840D01*
X8202739Y10027159D01*
Y9900200D01*
X7678100D02*
Y10027159D01*
X7720420Y9984840D01*
X7762739Y10027159D01*
Y9900200D01*
X7398100Y10052159D02*
Y9925200D01*
X7482739D01*
X7273100Y9099400D02*
X7222300Y9201000D01*
X7323900D01*
X7273100Y9099400D01*
Y9119720D02*
X7242620Y9180680D01*
X7303580D01*
X7273100Y9119720D01*
X7898100Y9249400D02*
X7847300Y9351000D01*
X7948900D01*
X7898100Y9249400D01*
X7398100Y8749400D02*
X7347300Y8851000D01*
X7448900D01*
X7398100Y8749400D01*
X8398100D02*
X8347300Y8851000D01*
X8448900D01*
X8398100Y8749400D01*
X5024090Y-1667870D02*
X4973290Y-1566270D01*
X5074890D01*
X5024090Y-1667870D01*
X4770090D02*
X4719290Y-1566270D01*
X4820890D01*
X4770090Y-1667870D01*
X5278090Y-1921870D02*
X5227290Y-1820270D01*
X5328890D01*
X5278090Y-1921870D01*
X5024090D02*
X4973290Y-1820270D01*
X5074890D01*
X5024090Y-1921870D01*
X4770090D02*
X4719290Y-1820270D01*
X4820890D01*
X4770090Y-1921870D01*
X5278090Y-1667870D02*
X5227290Y-1566270D01*
X5328890D01*
X5278090Y-1667870D01*
X-1865400Y3268900D02*
Y3243500D01*
X-1814600D01*
Y3268900D01*
X-1789200D01*
Y3319700D01*
X-1814600D01*
Y3345100D01*
X-1865400D01*
Y3319700D01*
X-1890800D01*
Y3268900D01*
X-1865400D01*
Y3472100D02*
Y3446700D01*
X-1814600D01*
Y3472100D01*
X-1789200D01*
Y3522900D01*
X-1814600D01*
Y3548300D01*
X-1865400D01*
Y3522900D01*
X-1890800D01*
Y3472100D01*
X-1865400D01*
X-1357400Y3370500D02*
Y3345100D01*
X-1306600D01*
Y3370500D01*
X-1281200D01*
Y3421300D01*
X-1306600D01*
Y3446700D01*
X-1357400D01*
Y3421300D01*
X-1382800D01*
Y3370500D01*
X-1357400D01*
X-50800Y-50800D02*
X-25400D01*
X0Y-25400D01*
X25400Y-50800D01*
X50800D01*
Y-25400D01*
X25400Y0D01*
X50800Y25400D01*
Y50800D01*
X25400D01*
X0Y25400D01*
X-25400Y50800D01*
X-50800D01*
Y25400D01*
X-25400Y0D01*
X-50800Y-25400D01*
Y-50800D01*
Y7749200D02*
X-25400D01*
X0Y7774600D01*
X25400Y7749200D01*
X50800D01*
Y7774600D01*
X25400Y7800000D01*
X50800Y7825400D01*
Y7850800D01*
X25400D01*
X0Y7825400D01*
X-25400Y7850800D01*
X-50800D01*
Y7825400D01*
X-25400Y7800000D01*
X-50800Y7774600D01*
Y7749200D01*
X14249200D02*
X14274600D01*
X14300000Y7774600D01*
X14325400Y7749200D01*
X14350800D01*
Y7774600D01*
X14325400Y7800000D01*
X14350800Y7825400D01*
Y7850800D01*
X14325400D01*
X14300000Y7825400D01*
X14274600Y7850800D01*
X14249200D01*
Y7825400D01*
X14274600Y7800000D01*
X14249200Y7774600D01*
Y7749200D01*
Y-50800D02*
X14274600D01*
X14300000Y-25400D01*
X14325400Y-50800D01*
X14350800D01*
Y-25400D01*
X14325400Y0D01*
X14350800Y25400D01*
Y50800D01*
X14325400D01*
X14300000Y25400D01*
X14274600Y50800D01*
X14249200D01*
Y25400D01*
X14274600Y0D01*
X14249200Y-25400D01*
Y-50800D01*
X13093480Y1846959D02*
X13051160D01*
X13030000Y1825799D01*
Y1741160D01*
X13051160Y1720000D01*
X13093480D01*
X13114639Y1741160D01*
Y1825799D01*
X13093480Y1846959D01*
X15953479Y2036959D02*
X15911160D01*
X15889999Y2015799D01*
Y1931160D01*
X15911160Y1910000D01*
X15953479D01*
X15974638Y1931160D01*
Y2015799D01*
X15953479Y2036959D01*
X1163480Y-683041D02*
X1121160D01*
X1100000Y-704201D01*
Y-788840D01*
X1121160Y-810000D01*
X1163480D01*
X1184639Y-788840D01*
Y-704201D01*
X1163480Y-683041D01*
X2613479Y-1793041D02*
X2571160D01*
X2550000Y-1814201D01*
Y-1898840D01*
X2571160Y-1920000D01*
X2613479D01*
X2634639Y-1898840D01*
Y-1814201D01*
X2613479Y-1793041D01*
X1943479Y-1203041D02*
X1901160D01*
X1880000Y-1224201D01*
Y-1308840D01*
X1901160Y-1330000D01*
X1943479D01*
X1964639Y-1308840D01*
Y-1224201D01*
X1943479Y-1203041D01*
X373479Y-1283041D02*
X331160D01*
X310000Y-1304201D01*
Y-1388840D01*
X331160Y-1410000D01*
X373479D01*
X394639Y-1388840D01*
Y-1304201D01*
X373479Y-1283041D01*
X2643479Y-1593041D02*
X2601160D01*
X2580000Y-1614201D01*
Y-1698840D01*
X2601160Y-1720000D01*
X2643479D01*
X2664639Y-1698840D01*
Y-1614201D01*
X2643479Y-1593041D01*
X4823479Y1146959D02*
X4781160D01*
X4760000Y1125799D01*
Y1041160D01*
X4781160Y1020000D01*
X4823479D01*
X4844639Y1041160D01*
Y1125799D01*
X4823479Y1146959D01*
X4543479Y626959D02*
X4501160D01*
X4480000Y605799D01*
Y521160D01*
X4501160Y500000D01*
X4543479D01*
X4564639Y521160D01*
Y605799D01*
X4543479Y626959D01*
X4493479Y926959D02*
X4451160D01*
X4430000Y905799D01*
Y821160D01*
X4451160Y800000D01*
X4493479D01*
X4514639Y821160D01*
Y905799D01*
X4493479Y926959D01*
X4533479Y776959D02*
X4491160D01*
X4470000Y755799D01*
Y671160D01*
X4491160Y650000D01*
X4533479D01*
X4554639Y671160D01*
Y755799D01*
X4533479Y776959D01*
X4573480Y506959D02*
X4531160D01*
X4510000Y485799D01*
Y401160D01*
X4531160Y380000D01*
X4573480D01*
X4594640Y401160D01*
Y485799D01*
X4573480Y506959D01*
X4623479Y316959D02*
X4581160D01*
X4560000Y295799D01*
Y211160D01*
X4581160Y190000D01*
X4623479D01*
X4644639Y211160D01*
Y295799D01*
X4623479Y316959D01*
X4643479Y106959D02*
X4601160D01*
X4580000Y85799D01*
Y1160D01*
X4601160Y-20000D01*
X4643479D01*
X4664639Y1160D01*
Y85799D01*
X4643479Y106959D01*
X3763479Y316959D02*
X3721160D01*
X3700000Y295799D01*
Y211160D01*
X3721160Y190000D01*
X3763479D01*
X3784639Y211160D01*
Y295799D01*
X3763479Y316959D01*
X3953480Y106959D02*
X3911160D01*
X3890000Y85799D01*
Y1160D01*
X3911160Y-20000D01*
X3953480D01*
X3974639Y1160D01*
Y85799D01*
X3953480Y106959D01*
X13663480Y6476959D02*
X13621159D01*
X13600000Y6455799D01*
Y6371160D01*
X13621159Y6350000D01*
X13663480D01*
X13684639Y6371160D01*
Y6455799D01*
X13663480Y6476959D01*
X11583479Y7866959D02*
X11541160D01*
X11520000Y7845799D01*
Y7761160D01*
X11541160Y7740000D01*
X11583479D01*
X11604639Y7761160D01*
Y7845799D01*
X11583479Y7866959D01*
X8843479D02*
X8801160D01*
X8780000Y7845799D01*
Y7761160D01*
X8801160Y7740000D01*
X8843479D01*
X8864639Y7761160D01*
Y7845799D01*
X8843479Y7866959D01*
X7453479Y8206959D02*
X7411160D01*
X7390000Y8185799D01*
Y8101160D01*
X7411160Y8080000D01*
X7453479D01*
X7474639Y8101160D01*
Y8185799D01*
X7453479Y8206959D01*
X7243480Y7686959D02*
X7201160D01*
X7180000Y7665799D01*
Y7581160D01*
X7201160Y7560000D01*
X7243480D01*
X7264640Y7581160D01*
Y7665799D01*
X7243480Y7686959D01*
X6563479Y7866959D02*
X6521160D01*
X6500000Y7845799D01*
Y7761160D01*
X6521160Y7740000D01*
X6563479D01*
X6584639Y7761160D01*
Y7845799D01*
X6563479Y7866959D01*
X5013479Y7876959D02*
X4971160D01*
X4950000Y7855799D01*
Y7771160D01*
X4971160Y7750000D01*
X5013479D01*
X5034639Y7771160D01*
Y7855799D01*
X5013479Y7876959D01*
X4263479Y7726959D02*
X4221160D01*
X4200000Y7705799D01*
Y7621160D01*
X4221160Y7600000D01*
X4263479D01*
X4284639Y7621160D01*
Y7705799D01*
X4263479Y7726959D01*
X5583479Y8346959D02*
X5541160D01*
X5520000Y8325799D01*
Y8241160D01*
X5541160Y8220000D01*
X5583479D01*
X5604639Y8241160D01*
Y8325799D01*
X5583479Y8346959D01*
X4713480Y8316959D02*
X4671160D01*
X4650000Y8295799D01*
Y8211160D01*
X4671160Y8190000D01*
X4713480D01*
X4734640Y8211160D01*
Y8295799D01*
X4713480Y8316959D01*
X2623479Y5866959D02*
X2581160D01*
X2560000Y5845799D01*
Y5761160D01*
X2581160Y5740000D01*
X2623479D01*
X2644639Y5761160D01*
Y5845799D01*
X2623479Y5866959D01*
X1823479Y5436959D02*
X1781160D01*
X1760000Y5415799D01*
Y5331160D01*
X1781160Y5310000D01*
X1823479D01*
X1844639Y5331160D01*
Y5415799D01*
X1823479Y5436959D01*
X1303479Y5416959D02*
X1261160D01*
X1240000Y5395799D01*
Y5311160D01*
X1261160Y5290000D01*
X1303479D01*
X1324639Y5311160D01*
Y5395799D01*
X1303479Y5416959D01*
X-116520Y3966959D02*
X-158840D01*
X-180000Y3945799D01*
Y3861160D01*
X-158840Y3840000D01*
X-116520D01*
X-95360Y3861160D01*
Y3945799D01*
X-116520Y3966959D01*
X3480Y3676959D02*
X-38840D01*
X-60000Y3655799D01*
Y3571160D01*
X-38840Y3550000D01*
X3480D01*
X24640Y3571160D01*
Y3655799D01*
X3480Y3676959D01*
X-586521Y3966959D02*
X-628840D01*
X-650000Y3945799D01*
Y3861160D01*
X-628840Y3840000D01*
X-586521D01*
X-565361Y3861160D01*
Y3945799D01*
X-586521Y3966959D01*
X-326521Y3976959D02*
X-368840D01*
X-390000Y3955799D01*
Y3871160D01*
X-368840Y3850000D01*
X-326521D01*
X-305361Y3871160D01*
Y3955799D01*
X-326521Y3976959D01*
X-46521Y-1304041D02*
X-88840D01*
X-110000Y-1325201D01*
Y-1409840D01*
X-88840Y-1431000D01*
X-46521D01*
X-25361Y-1409840D01*
Y-1325201D01*
X-46521Y-1304041D01*
X3293479Y-1183041D02*
X3251160D01*
X3230000Y-1204201D01*
Y-1288840D01*
X3251160Y-1310000D01*
X3293479D01*
X3314639Y-1288840D01*
Y-1204201D01*
X3293479Y-1183041D01*
X2163480Y-1913041D02*
X2121160D01*
X2100000Y-1934201D01*
Y-2018840D01*
X2121160Y-2040000D01*
X2163480D01*
X2184640Y-2018840D01*
Y-1934201D01*
X2163480Y-1913041D01*
X2793479Y-1223041D02*
X2751160D01*
X2730000Y-1244201D01*
Y-1328840D01*
X2751160Y-1350000D01*
X2793479D01*
X2814639Y-1328840D01*
Y-1244201D01*
X2793479Y-1223041D01*
X8003480Y-603041D02*
X7961160D01*
X7940000Y-624201D01*
Y-708840D01*
X7961160Y-730000D01*
X8003480D01*
X8024640Y-708840D01*
Y-624201D01*
X8003480Y-603041D01*
X7543479Y-443041D02*
X7501160D01*
X7480000Y-464201D01*
Y-548840D01*
X7501160Y-570000D01*
X7543479D01*
X7564639Y-548840D01*
Y-464201D01*
X7543479Y-443041D01*
X7283479Y-463041D02*
X7241160D01*
X7220000Y-484201D01*
Y-568840D01*
X7241160Y-590000D01*
X7283479D01*
X7304639Y-568840D01*
Y-484201D01*
X7283479Y-463041D01*
X7053479Y-343041D02*
X7011160D01*
X6990000Y-364201D01*
Y-448840D01*
X7011160Y-470000D01*
X7053479D01*
X7074639Y-448840D01*
Y-364201D01*
X7053479Y-343041D01*
X7023479Y-963041D02*
X6981160D01*
X6960000Y-984201D01*
Y-1068840D01*
X6981160Y-1090000D01*
X7023479D01*
X7044639Y-1068840D01*
Y-984201D01*
X7023479Y-963041D01*
X7283479Y-923041D02*
X7241160D01*
X7220000Y-944201D01*
Y-1028840D01*
X7241160Y-1050000D01*
X7283479D01*
X7304639Y-1028840D01*
Y-944201D01*
X7283479Y-923041D01*
X7503480Y-933041D02*
X7461160D01*
X7440000Y-954201D01*
Y-1038840D01*
X7461160Y-1060000D01*
X7503480D01*
X7524640Y-1038840D01*
Y-954201D01*
X7503480Y-933041D01*
X7693479Y-1243041D02*
X7651160D01*
X7630000Y-1264201D01*
Y-1348840D01*
X7651160Y-1370000D01*
X7693479D01*
X7714639Y-1348840D01*
Y-1264201D01*
X7693479Y-1243041D01*
X7403479Y-1603041D02*
X7361160D01*
X7340000Y-1624201D01*
Y-1708840D01*
X7361160Y-1730000D01*
X7403479D01*
X7424639Y-1708840D01*
Y-1624201D01*
X7403479Y-1603041D01*
X7443479Y-2223041D02*
X7401160D01*
X7380000Y-2244201D01*
Y-2328840D01*
X7401160Y-2350000D01*
X7443479D01*
X7464639Y-2328840D01*
Y-2244201D01*
X7443479Y-2223041D01*
X9053479Y-2213041D02*
X9011160D01*
X8990000Y-2234201D01*
Y-2318840D01*
X9011160Y-2340000D01*
X9053479D01*
X9074639Y-2318840D01*
Y-2234201D01*
X9053479Y-2213041D01*
X8373479Y-713041D02*
X8331160D01*
X8310000Y-734201D01*
Y-818840D01*
X8331160Y-840000D01*
X8373479D01*
X8394639Y-818840D01*
Y-734201D01*
X8373479Y-713041D01*
X8683479Y-783041D02*
X8641160D01*
X8620000Y-804201D01*
Y-888840D01*
X8641160Y-910000D01*
X8683479D01*
X8704639Y-888840D01*
Y-804201D01*
X8683479Y-783041D01*
X8913480Y-693041D02*
X8871160D01*
X8850000Y-714201D01*
Y-798840D01*
X8871160Y-820000D01*
X8913480D01*
X8934639Y-798840D01*
Y-714201D01*
X8913480Y-693041D01*
X9163480Y-713041D02*
X9121160D01*
X9100000Y-734201D01*
Y-818840D01*
X9121160Y-840000D01*
X9163480D01*
X9184639Y-818840D01*
Y-734201D01*
X9163480Y-713041D01*
X9393479Y-653041D02*
X9351160D01*
X9330000Y-674201D01*
Y-758840D01*
X9351160Y-780000D01*
X9393479D01*
X9414639Y-758840D01*
Y-674201D01*
X9393479Y-653041D01*
X9633479Y-593041D02*
X9591160D01*
X9570000Y-614201D01*
Y-698840D01*
X9591160Y-720000D01*
X9633479D01*
X9654639Y-698840D01*
Y-614201D01*
X9633479Y-593041D01*
X9233479Y3996959D02*
X9191160D01*
X9170000Y3975799D01*
Y3891160D01*
X9191160Y3870000D01*
X9233479D01*
X9254639Y3891160D01*
Y3975799D01*
X9233479Y3996959D01*
X10963479D02*
X10921160D01*
X10900000Y3975799D01*
Y3891160D01*
X10921160Y3870000D01*
X10963479D01*
X10984639Y3891160D01*
Y3975799D01*
X10963479Y3996959D01*
X3043479D02*
X3001160D01*
X2980000Y3975799D01*
Y3891160D01*
X3001160Y3870000D01*
X3043479D01*
X3064639Y3891160D01*
Y3975799D01*
X3043479Y3996959D01*
X15273479Y1306959D02*
X15231160D01*
X15210001Y1285799D01*
Y1201160D01*
X15231160Y1180000D01*
X15273479D01*
X15294640Y1201160D01*
Y1285799D01*
X15273479Y1306959D01*
X13383479Y1586959D02*
X13341161D01*
X13320000Y1565799D01*
Y1481160D01*
X13341161Y1460000D01*
X13383479D01*
X13404639Y1481160D01*
Y1565799D01*
X13383479Y1586959D01*
X13803479Y1326959D02*
X13761160D01*
X13739999Y1305799D01*
Y1221160D01*
X13761160Y1200000D01*
X13803479D01*
X13824638Y1221160D01*
Y1305799D01*
X13803479Y1326959D01*
X13303479Y5146959D02*
X13261160D01*
X13239999Y5125799D01*
Y5041160D01*
X13261160Y5020000D01*
X13303479D01*
X13324638Y5041160D01*
Y5125799D01*
X13303479Y5146959D01*
X12583480Y4846959D02*
X12541160D01*
X12520000Y4825799D01*
Y4741160D01*
X12541160Y4720000D01*
X12583480D01*
X12604640Y4741160D01*
Y4825799D01*
X12583480Y4846959D01*
X12443479Y4716959D02*
X12401160D01*
X12380000Y4695799D01*
Y4611160D01*
X12401160Y4590000D01*
X12443479D01*
X12464639Y4611160D01*
Y4695799D01*
X12443479Y4716959D01*
X12253479Y4476959D02*
X12211160D01*
X12190000Y4455799D01*
Y4371160D01*
X12211160Y4350000D01*
X12253479D01*
X12274639Y4371160D01*
Y4455799D01*
X12253479Y4476959D01*
X10783479Y2536959D02*
X10741160D01*
X10720000Y2515799D01*
Y2431160D01*
X10741160Y2410000D01*
X10783479D01*
X10804639Y2431160D01*
Y2515799D01*
X10783479Y2536959D01*
X11133479Y2016959D02*
X11091160D01*
X11070000Y1995799D01*
Y1911160D01*
X11091160Y1890000D01*
X11133479D01*
X11154639Y1911160D01*
Y1995799D01*
X11133479Y2016959D01*
X11173479Y2476959D02*
X11131160D01*
X11110000Y2455799D01*
Y2371160D01*
X11131160Y2350000D01*
X11173479D01*
X11194639Y2371160D01*
Y2455799D01*
X11173479Y2476959D01*
X-1296521Y4846959D02*
X-1338840D01*
X-1360000Y4825799D01*
Y4741160D01*
X-1338840Y4720000D01*
X-1296521D01*
X-1275361Y4741160D01*
Y4825799D01*
X-1296521Y4846959D01*
X-1124107Y4270583D02*
Y4355222D01*
X-1145267Y4376382D01*
X-1187587D01*
X-1208747Y4355222D01*
Y4270583D01*
X-1187587Y4249423D01*
X-1145267D01*
X-1166427Y4291743D02*
X-1124107Y4249423D01*
X-1145267D02*
X-1124107Y4270583D01*
X-787668Y4305811D02*
X-829988D01*
X-851148Y4284651D01*
Y4200012D01*
X-829988Y4178852D01*
X-787668D01*
X-766508Y4200012D01*
Y4284651D01*
X-787668Y4305811D01*
X-1165361Y4321160D02*
Y4405799D01*
X-1186521Y4426959D01*
X-1228840D01*
X-1250000Y4405799D01*
Y4321160D01*
X-1228840Y4300000D01*
X-1186521D01*
X-1207680Y4342320D02*
X-1165361Y4300000D01*
X-1186521D02*
X-1165361Y4321160D01*
X-1016521Y3816959D02*
X-1058840D01*
X-1080000Y3795799D01*
Y3711160D01*
X-1058840Y3690000D01*
X-1016521D01*
X-995361Y3711160D01*
Y3795799D01*
X-1016521Y3816959D01*
X-1286521Y4156959D02*
X-1328840D01*
X-1350000Y4135799D01*
Y4051160D01*
X-1328840Y4030000D01*
X-1286521D01*
X-1265361Y4051160D01*
Y4135799D01*
X-1286521Y4156959D01*
X16123479Y596959D02*
X16081160D01*
X16060001Y575799D01*
Y491160D01*
X16081160Y470000D01*
X16123479D01*
X16144640Y491160D01*
Y575799D01*
X16123479Y596959D01*
X12833479Y1406959D02*
X12791160D01*
X12770000Y1385799D01*
Y1301160D01*
X12791160Y1280000D01*
X12833479D01*
X12854640Y1301160D01*
Y1385799D01*
X12833479Y1406959D01*
X12843480Y3456959D02*
X12801160D01*
X12780000Y3435799D01*
Y3351160D01*
X12801160Y3330000D01*
X12843480D01*
X12864639Y3351160D01*
Y3435799D01*
X12843480Y3456959D01*
X13843480Y3376959D02*
X13801160D01*
X13780000Y3355799D01*
Y3271160D01*
X13801160Y3250000D01*
X13843480D01*
X13864639Y3271160D01*
Y3355799D01*
X13843480Y3376959D01*
X15003481Y3496959D02*
X14961160D01*
X14939999Y3475799D01*
Y3391160D01*
X14961160Y3370000D01*
X15003481D01*
X15024638Y3391160D01*
Y3475799D01*
X15003481Y3496959D01*
X11893479Y5946959D02*
X11851160D01*
X11830000Y5925799D01*
Y5841160D01*
X11851160Y5820000D01*
X11893479D01*
X11914639Y5841160D01*
Y5925799D01*
X11893479Y5946959D01*
X14233479Y7086959D02*
X14191161D01*
X14170000Y7065799D01*
Y6981160D01*
X14191161Y6960000D01*
X14233479D01*
X14254640Y6981160D01*
Y7065799D01*
X14233479Y7086959D01*
X8423479Y9126959D02*
X8381160D01*
X8360000Y9105799D01*
Y9021160D01*
X8381160Y9000000D01*
X8423479D01*
X8444639Y9021160D01*
Y9105799D01*
X8423479Y9126959D01*
X9333479Y9186959D02*
X9291160D01*
X9270000Y9165799D01*
Y9081160D01*
X9291160Y9060000D01*
X9333479D01*
X9354639Y9081160D01*
Y9165799D01*
X9333479Y9186959D01*
X6323479Y9256959D02*
X6281160D01*
X6260000Y9235799D01*
Y9151160D01*
X6281160Y9130000D01*
X6323479D01*
X6344639Y9151160D01*
Y9235799D01*
X6323479Y9256959D01*
X5493479Y9226959D02*
X5451160D01*
X5430000Y9205799D01*
Y9121160D01*
X5451160Y9100000D01*
X5493479D01*
X5514639Y9121160D01*
Y9205799D01*
X5493479Y9226959D01*
X4183479Y9096959D02*
X4141160D01*
X4120000Y9075799D01*
Y8991160D01*
X4141160Y8970000D01*
X4183479D01*
X4204639Y8991160D01*
Y9075799D01*
X4183479Y9096959D01*
X2063479Y9856959D02*
X2021160D01*
X2000000Y9835799D01*
Y9751160D01*
X2021160Y9730000D01*
X2063479D01*
X2084639Y9751160D01*
Y9835799D01*
X2063479Y9856959D01*
X3093479Y8636959D02*
X3051160D01*
X3030000Y8615799D01*
Y8531160D01*
X3051160Y8510000D01*
X3093479D01*
X3114639Y8531160D01*
Y8615799D01*
X3093479Y8636959D01*
X2743479Y8536959D02*
X2701160D01*
X2680000Y8515799D01*
Y8431160D01*
X2701160Y8410000D01*
X2743479D01*
X2764639Y8431160D01*
Y8515799D01*
X2743479Y8536959D01*
X1433479Y8636959D02*
X1391160D01*
X1370000Y8615799D01*
Y8531160D01*
X1391160Y8510000D01*
X1433479D01*
X1454639Y8531160D01*
Y8615799D01*
X1433479Y8636959D01*
X363479Y8596959D02*
X321160D01*
X300000Y8575799D01*
Y8491160D01*
X321160Y8470000D01*
X363479D01*
X384639Y8491160D01*
Y8575799D01*
X363479Y8596959D01*
X1773479Y9026959D02*
X1731160D01*
X1710000Y9005799D01*
Y8921160D01*
X1731160Y8900000D01*
X1773479D01*
X1794639Y8921160D01*
Y9005799D01*
X1773479Y9026959D01*
X743479D02*
X701160D01*
X680000Y9005799D01*
Y8921160D01*
X701160Y8900000D01*
X743479D01*
X764639Y8921160D01*
Y9005799D01*
X743479Y9026959D01*
X-576521Y7536959D02*
X-618840D01*
X-640000Y7515799D01*
Y7431160D01*
X-618840Y7410000D01*
X-576521D01*
X-555361Y7431160D01*
Y7515799D01*
X-576521Y7536959D01*
X-1816521Y6546959D02*
X-1858840D01*
X-1880000Y6525799D01*
Y6441160D01*
X-1858840Y6420000D01*
X-1816521D01*
X-1795361Y6441160D01*
Y6525799D01*
X-1816521Y6546959D01*
X-1116520Y6436959D02*
X-1158840D01*
X-1180000Y6415799D01*
Y6331160D01*
X-1158840Y6310000D01*
X-1116520D01*
X-1095361Y6331160D01*
Y6415799D01*
X-1116520Y6436959D01*
X-316521Y6686959D02*
X-358840D01*
X-380000Y6665799D01*
Y6581160D01*
X-358840Y6560000D01*
X-316521D01*
X-295361Y6581160D01*
Y6665799D01*
X-316521Y6686959D01*
X1253479Y6596959D02*
X1211160D01*
X1190000Y6575799D01*
Y6491160D01*
X1211160Y6470000D01*
X1253479D01*
X1274639Y6491160D01*
Y6575799D01*
X1253479Y6596959D01*
X563479Y6566959D02*
X521160D01*
X500000Y6545799D01*
Y6461160D01*
X521160Y6440000D01*
X563479D01*
X584639Y6461160D01*
Y6545799D01*
X563479Y6566959D01*
X2453479Y2236959D02*
X2411160D01*
X2390000Y2215799D01*
Y2131160D01*
X2411160Y2110000D01*
X2453479D01*
X2474639Y2131160D01*
Y2215799D01*
X2453479Y2236959D01*
X2053480Y2946959D02*
X2011160D01*
X1990000Y2925799D01*
Y2841160D01*
X2011160Y2820000D01*
X2053480D01*
X2074639Y2841160D01*
Y2925799D01*
X2053480Y2946959D01*
X1403480Y3416959D02*
X1361160D01*
X1340000Y3395799D01*
Y3311160D01*
X1361160Y3290000D01*
X1403480D01*
X1424640Y3311160D01*
Y3395799D01*
X1403480Y3416959D01*
X4503479Y2276959D02*
X4461160D01*
X4440000Y2255799D01*
Y2171160D01*
X4461160Y2150000D01*
X4503479D01*
X4524639Y2171160D01*
Y2255799D01*
X4503479Y2276959D01*
X4113479Y1936959D02*
X4071160D01*
X4050000Y1915799D01*
Y1831160D01*
X4071160Y1810000D01*
X4113479D01*
X4134639Y1831160D01*
Y1915799D01*
X4113479Y1936959D01*
X3353479Y2886959D02*
X3311160D01*
X3290000Y2865799D01*
Y2781160D01*
X3311160Y2760000D01*
X3353479D01*
X3374639Y2781160D01*
Y2865799D01*
X3353479Y2886959D01*
X3953480Y3646959D02*
X3911160D01*
X3890000Y3625799D01*
Y3541160D01*
X3911160Y3520000D01*
X3953480D01*
X3974639Y3541160D01*
Y3625799D01*
X3953480Y3646959D01*
X8253479Y2656959D02*
X8211160D01*
X8190000Y2635799D01*
Y2551160D01*
X8211160Y2530000D01*
X8253479D01*
X8274639Y2551160D01*
Y2635799D01*
X8253479Y2656959D01*
X9983479Y3236959D02*
X9941160D01*
X9920000Y3215799D01*
Y3131160D01*
X9941160Y3110000D01*
X9983479D01*
X10004639Y3131160D01*
Y3215799D01*
X9983479Y3236959D01*
X10013479Y2276959D02*
X9971160D01*
X9950000Y2255799D01*
Y2171160D01*
X9971160Y2150000D01*
X10013479D01*
X10034639Y2171160D01*
Y2255799D01*
X10013479Y2276959D01*
X10733479Y1776959D02*
X10691160D01*
X10670000Y1755799D01*
Y1671160D01*
X10691160Y1650000D01*
X10733479D01*
X10754639Y1671160D01*
Y1755799D01*
X10733479Y1776959D01*
X9993479Y846959D02*
X9951160D01*
X9930000Y825799D01*
Y741160D01*
X9951160Y720000D01*
X9993479D01*
X10014639Y741160D01*
Y825799D01*
X9993479Y846959D01*
X10553480Y406959D02*
X10511160D01*
X10490000Y385799D01*
Y301160D01*
X10511160Y280000D01*
X10553480D01*
X10574640Y301160D01*
Y385799D01*
X10553480Y406959D01*
X10463479Y-363041D02*
X10421160D01*
X10400000Y-384201D01*
Y-468840D01*
X10421160Y-490000D01*
X10463479D01*
X10484639Y-468840D01*
Y-384201D01*
X10463479Y-363041D01*
X10403479Y-1663041D02*
X10361160D01*
X10340000Y-1684201D01*
Y-1768840D01*
X10361160Y-1790000D01*
X10403479D01*
X10424639Y-1768840D01*
Y-1684201D01*
X10403479Y-1663041D01*
X10433480Y-1073041D02*
X10391160D01*
X10370000Y-1094201D01*
Y-1178840D01*
X10391160Y-1200000D01*
X10433480D01*
X10454639Y-1178840D01*
Y-1094201D01*
X10433480Y-1073041D01*
X14603479Y2266959D02*
X14561160D01*
X14539999Y2245799D01*
Y2161160D01*
X14561160Y2140000D01*
X14603479D01*
X14624638Y2161160D01*
Y2245799D01*
X14603479Y2266959D01*
X14613480Y2586959D02*
X14571159D01*
X14550000Y2565799D01*
Y2481160D01*
X14571159Y2460000D01*
X14613480D01*
X14634641Y2481160D01*
Y2565799D01*
X14613480Y2586959D01*
X14993480Y1396959D02*
X14951160D01*
X14930000Y1375799D01*
Y1291160D01*
X14951160Y1270000D01*
X14993480D01*
X15014639Y1291160D01*
Y1375799D01*
X14993480Y1396959D01*
X14203479Y1406959D02*
X14161160D01*
X14139999Y1385799D01*
Y1301160D01*
X14161160Y1280000D01*
X14203479D01*
X14224638Y1301160D01*
Y1385799D01*
X14203479Y1406959D01*
X14193478Y1756959D02*
X14151160D01*
X14130000Y1735799D01*
Y1651160D01*
X14151160Y1630000D01*
X14193478D01*
X14214639Y1651160D01*
Y1735799D01*
X14193478Y1756959D01*
X14983479Y1766959D02*
X14941161D01*
X14920000Y1745799D01*
Y1661160D01*
X14941161Y1640000D01*
X14983479D01*
X15004639Y1661160D01*
Y1745799D01*
X14983479Y1766959D01*
X-524778Y4661959D02*
Y4535001D01*
X-461299D01*
X-440139Y4556160D01*
Y4640800D01*
X-461299Y4661959D01*
X-524778D01*
X9936960Y-731790D02*
Y-858749D01*
X10000440D01*
X10021600Y-837589D01*
Y-752950D01*
X10000440Y-731790D01*
X9936960D01*
X10192310Y-1018941D02*
Y-1145900D01*
X10255790D01*
X10276950Y-1124740D01*
Y-1040101D01*
X10255790Y-1018941D01*
X10192310D01*
X9999780Y-1373041D02*
Y-1500000D01*
X10063259D01*
X10084419Y-1478840D01*
Y-1394201D01*
X10063259Y-1373041D01*
X9999780D01*
X10004780Y-1213041D02*
Y-1340000D01*
X10068259D01*
X10089419Y-1318840D01*
Y-1234201D01*
X10068259Y-1213041D01*
X10004780D01*
X12099779Y-870541D02*
Y-997499D01*
X12163258D01*
X12184418Y-976340D01*
Y-891700D01*
X12163258Y-870541D01*
X12099779D01*
X12533479Y-693041D02*
X12491160D01*
X12470000Y-714201D01*
Y-798840D01*
X12491160Y-820000D01*
X12533479D01*
X12554639Y-798840D01*
Y-714201D01*
X12533479Y-693041D01*
X11793479Y-1013041D02*
X11751160D01*
X11730000Y-1034201D01*
Y-1118840D01*
X11751160Y-1140000D01*
X11793479D01*
X11814639Y-1118840D01*
Y-1034201D01*
X11793479Y-1013041D01*
X11803479Y-663041D02*
X11761160D01*
X11740000Y-684201D01*
Y-768840D01*
X11761160Y-790000D01*
X11803479D01*
X11824639Y-768840D01*
Y-684201D01*
X11803479Y-663041D01*
X12903479Y-1493041D02*
X12861160D01*
X12839999Y-1514201D01*
Y-1598840D01*
X12861160Y-1620000D01*
X12903479D01*
X12924638Y-1598840D01*
Y-1514201D01*
X12903479Y-1493041D01*
X14193478Y-803041D02*
X14151160D01*
X14130000Y-824201D01*
Y-908840D01*
X14151160Y-930000D01*
X14193478D01*
X14214639Y-908840D01*
Y-824201D01*
X14193478Y-803041D01*
X13523479Y-113041D02*
X13481160D01*
X13460001Y-134201D01*
Y-218840D01*
X13481160Y-240000D01*
X13523479D01*
X13544640Y-218840D01*
Y-134201D01*
X13523479Y-113041D01*
X16403481Y5536959D02*
X16361160D01*
X16339999Y5515799D01*
Y5431160D01*
X16361160Y5410000D01*
X16403481D01*
X16424638Y5431160D01*
Y5515799D01*
X16403481Y5536959D01*
X16413480Y4766959D02*
X16371159D01*
X16350000Y4745799D01*
Y4661160D01*
X16371159Y4640000D01*
X16413480D01*
X16434639Y4661160D01*
Y4745799D01*
X16413480Y4766959D01*
Y4026959D02*
X16371159D01*
X16350000Y4005799D01*
Y3921160D01*
X16371159Y3900000D01*
X16413480D01*
X16434639Y3921160D01*
Y4005799D01*
X16413480Y4026959D01*
X16053479Y4736959D02*
X16011160D01*
X15989999Y4715799D01*
Y4631160D01*
X16011160Y4610000D01*
X16053479D01*
X16074638Y4631160D01*
Y4715799D01*
X16053479Y4736959D01*
Y5106959D02*
X16011160D01*
X15989999Y5085799D01*
Y5001160D01*
X16011160Y4980000D01*
X16053479D01*
X16074638Y5001160D01*
Y5085799D01*
X16053479Y5106959D01*
X16063480Y5346959D02*
X16021159D01*
X16000000Y5325799D01*
Y5241160D01*
X16021159Y5220000D01*
X16063480D01*
X16084639Y5241160D01*
Y5325799D01*
X16063480Y5346959D01*
X14613480Y5636959D02*
X14571159D01*
X14550000Y5615799D01*
Y5531160D01*
X14571159Y5510000D01*
X14613480D01*
X14634641Y5531160D01*
Y5615799D01*
X14613480Y5636959D01*
X14473479Y5536959D02*
X14431160D01*
X14410001Y5515799D01*
Y5431160D01*
X14431160Y5410000D01*
X14473479D01*
X14494640Y5431160D01*
Y5515799D01*
X14473479Y5536959D01*
X14753481D02*
X14711160D01*
X14689999Y5515799D01*
Y5431160D01*
X14711160Y5410000D01*
X14753481D01*
X14774638Y5431160D01*
Y5515799D01*
X14753481Y5536959D01*
X14383479Y5266959D02*
X14341161D01*
X14320000Y5245799D01*
Y5161160D01*
X14341161Y5140000D01*
X14383479D01*
X14404639Y5161160D01*
Y5245799D01*
X14383479Y5266959D01*
X14633479Y5256959D02*
X14591161D01*
X14570000Y5235799D01*
Y5151160D01*
X14591161Y5130000D01*
X14633479D01*
X14654639Y5151160D01*
Y5235799D01*
X14633479Y5256959D01*
X15083479Y5086959D02*
X15041161D01*
X15020000Y5065799D01*
Y4981160D01*
X15041161Y4960000D01*
X15083479D01*
X15104639Y4981160D01*
Y5065799D01*
X15083479Y5086959D01*
X14183479Y5076959D02*
X14141161D01*
X14120000Y5055799D01*
Y4971160D01*
X14141161Y4950000D01*
X14183479D01*
X14204639Y4971160D01*
Y5055799D01*
X14183479Y5076959D01*
X13433479Y4756959D02*
X13391161D01*
X13370000Y4735799D01*
Y4651160D01*
X13391161Y4630000D01*
X13433479D01*
X13454639Y4651160D01*
Y4735799D01*
X13433479Y4756959D01*
X13276959Y4470359D02*
X13234641D01*
X13213480Y4449199D01*
Y4364560D01*
X13234641Y4343400D01*
X13276959D01*
X13298119Y4364560D01*
Y4449199D01*
X13276959Y4470359D01*
X13924631Y4524609D02*
X13882310D01*
X13861150Y4503449D01*
Y4418810D01*
X13882310Y4397650D01*
X13924631D01*
X13945789Y4418810D01*
Y4503449D01*
X13924631Y4524609D01*
X13860001Y3716959D02*
Y3590000D01*
X13923479D01*
X13944640Y3611160D01*
Y3695799D01*
X13923479Y3716959D01*
X13860001D01*
X2101730Y-2344370D02*
Y-2471329D01*
X2165210D01*
X2186370Y-2450169D01*
Y-2365529D01*
X2165210Y-2344370D01*
X2101730D01*
X3146290Y-2244370D02*
Y-2371329D01*
X3209769D01*
X3230929Y-2350169D01*
Y-2265530D01*
X3209769Y-2244370D01*
X3146290D01*
X6564400Y-257811D02*
Y-384770D01*
X6627880D01*
X6649040Y-363610D01*
Y-278971D01*
X6627880Y-257811D01*
X6564400D01*
X6081990Y-234681D02*
Y-361640D01*
X6145470D01*
X6166630Y-340480D01*
Y-255841D01*
X6145470Y-234681D01*
X6081990D01*
X9347591Y266889D02*
Y139930D01*
X9411070D01*
X9432230Y161090D01*
Y245729D01*
X9411070Y266889D01*
X9347591D01*
X7970000Y266959D02*
Y140000D01*
X8033479D01*
X8054639Y161160D01*
Y245799D01*
X8033479Y266959D01*
X7970000D01*
X7214420Y263409D02*
Y136450D01*
X7277900D01*
X7299060Y157610D01*
Y242249D01*
X7277900Y263409D01*
X7214420D01*
X8977590Y402109D02*
Y275150D01*
X9041070D01*
X9062230Y296310D01*
Y380949D01*
X9041070Y402109D01*
X8977590D01*
X9373596Y727158D02*
X9331277D01*
X9310117Y705998D01*
Y621358D01*
X9331277Y600199D01*
X9373596D01*
X9394756Y621358D01*
Y705998D01*
X9373596Y727158D01*
X15220000Y5276959D02*
Y5150000D01*
X15283479D01*
X15304639Y5171160D01*
Y5255799D01*
X15283479Y5276959D01*
X15220000D01*
X6080000Y-643041D02*
Y-770000D01*
X6143479D01*
X6164639Y-748840D01*
Y-664201D01*
X6143479Y-643041D01*
X6080000D01*
X16041840Y6094828D02*
Y5967869D01*
X16105318D01*
X16126479Y5989028D01*
Y6073668D01*
X16105318Y6094828D01*
X16041840D01*
X15463480Y6196959D02*
X15421159D01*
X15400000Y6175799D01*
Y6091160D01*
X15421159Y6070000D01*
X15463480D01*
X15484639Y6091160D01*
Y6175799D01*
X15463480Y6196959D01*
X3390101Y8280959D02*
X3347781D01*
X3326621Y8259799D01*
Y8175160D01*
X3347781Y8154000D01*
X3390101D01*
X3411261Y8175160D01*
Y8259799D01*
X3390101Y8280959D01*
X1693479Y8536959D02*
X1651160D01*
X1630000Y8515799D01*
Y8431160D01*
X1651160Y8410000D01*
X1693479D01*
X1714639Y8431160D01*
Y8515799D01*
X1693479Y8536959D01*
X376584Y7392959D02*
X334264D01*
X313105Y7371799D01*
Y7287160D01*
X334264Y7266000D01*
X376584D01*
X397744Y7287160D01*
Y7371799D01*
X376584Y7392959D01*
X773480Y-1563041D02*
X731160D01*
X710000Y-1584201D01*
Y-1668840D01*
X731160Y-1690000D01*
X773480D01*
X794640Y-1668840D01*
Y-1584201D01*
X773480Y-1563041D01*
X-46521Y-923041D02*
X-88840D01*
X-110000Y-944201D01*
Y-1028840D01*
X-88840Y-1050000D01*
X-46521D01*
X-25361Y-1028840D01*
Y-944201D01*
X-46521Y-923041D01*
X730000Y-1433041D02*
Y-1560000D01*
X793479D01*
X814639Y-1538840D01*
Y-1454201D01*
X793479Y-1433041D01*
X730000D01*
X709099Y-322991D02*
X666780D01*
X645620Y-344151D01*
Y-428790D01*
X666780Y-449950D01*
X709099D01*
X730259Y-428790D01*
Y-344151D01*
X709099Y-322991D01*
X15314380Y3786739D02*
X15272060D01*
X15250900Y3765580D01*
Y3680940D01*
X15272060Y3659781D01*
X15314380D01*
X15335539Y3680940D01*
Y3765580D01*
X15314380Y3786739D01*
X15316829Y3629259D02*
X15274510D01*
X15253349Y3608100D01*
Y3523460D01*
X15274510Y3502301D01*
X15316829D01*
X15337988Y3523460D01*
Y3608100D01*
X15316829Y3629259D01*
X14863480Y3976959D02*
X14821159D01*
X14800000Y3955799D01*
Y3871160D01*
X14821159Y3850000D01*
X14863480D01*
X14884641Y3871160D01*
Y3955799D01*
X14863480Y3976959D01*
X14383479Y3966959D02*
X14341161D01*
X14320000Y3945799D01*
Y3861160D01*
X14341161Y3840000D01*
X14383479D01*
X14404639Y3861160D01*
Y3945799D01*
X14383479Y3966959D01*
X15039999Y4086959D02*
Y3960000D01*
X15103479D01*
X15124638Y3981160D01*
Y4065799D01*
X15103479Y4086959D01*
X15039999D01*
X13442500Y4414459D02*
Y4287500D01*
X13505978D01*
X13527139Y4308660D01*
Y4393299D01*
X13505978Y4414459D01*
X13442500D01*
X15420000Y4376959D02*
Y4250000D01*
X15483479D01*
X15504639Y4271160D01*
Y4355799D01*
X15483479Y4376959D01*
X15420000D01*
X13083479Y4566959D02*
X13041161D01*
X13020000Y4545799D01*
Y4461160D01*
X13041161Y4440000D01*
X13083479D01*
X13104640Y4461160D01*
Y4545799D01*
X13083479Y4566959D01*
X13250603Y4754991D02*
Y4628032D01*
X13314082D01*
X13335242Y4649192D01*
Y4733832D01*
X13314082Y4754991D01*
X13250603D01*
X13563480Y4906959D02*
X13521159D01*
X13500000Y4885799D01*
Y4801160D01*
X13521159Y4780000D01*
X13563480D01*
X13584639Y4801160D01*
Y4885799D01*
X13563480Y4906959D01*
X13559433Y4986392D02*
Y4859433D01*
X13622913D01*
X13644073Y4880593D01*
Y4965232D01*
X13622913Y4986392D01*
X13559433D01*
X13033479Y5386959D02*
X12991161D01*
X12970000Y5365799D01*
Y5281160D01*
X12991161Y5260000D01*
X13033479D01*
X13054639Y5281160D01*
Y5365799D01*
X13033479Y5386959D01*
X12860001Y5286959D02*
Y5160000D01*
X12923479D01*
X12944640Y5181160D01*
Y5265799D01*
X12923479Y5286959D01*
X12860001D01*
X11223479Y3886959D02*
X11181160D01*
X11160000Y3865799D01*
Y3781160D01*
X11181160Y3760000D01*
X11223479D01*
X11244639Y3781160D01*
Y3865799D01*
X11223479Y3886959D01*
X11500000Y4136959D02*
Y4010000D01*
X11563479D01*
X11584639Y4031160D01*
Y4115799D01*
X11563479Y4136959D01*
X11500000D01*
X11510000Y4456959D02*
Y4330000D01*
X11573479D01*
X11594639Y4351160D01*
Y4435799D01*
X11573479Y4456959D01*
X11510000D01*
X-1975361Y2121160D02*
Y2205799D01*
X-1996521Y2226959D01*
X-2038840D01*
X-2060000Y2205799D01*
Y2121160D01*
X-2038840Y2100000D01*
X-1996521D01*
X-2017680Y2142320D02*
X-1975361Y2100000D01*
X-1996521D02*
X-1975361Y2121160D01*
X-1996521Y2476959D02*
X-2038840D01*
X-2060000Y2455799D01*
Y2371160D01*
X-2038840Y2350000D01*
X-1996521D01*
X-1975361Y2371160D01*
Y2455799D01*
X-1996521Y2476959D01*
Y2346959D02*
X-2038840D01*
X-2060000Y2325799D01*
Y2241160D01*
X-2038840Y2220000D01*
X-1996521D01*
X-1975361Y2241160D01*
Y2325799D01*
X-1996521Y2346959D01*
X10763479Y3116959D02*
X10721160D01*
X10700000Y3095799D01*
Y3011160D01*
X10721160Y2990000D01*
X10763479D01*
X10784639Y3011160D01*
Y3095799D01*
X10763479Y3116959D01*
X13784639Y1096959D02*
X13700000D01*
Y1033480D01*
X13742320D01*
X13700000D01*
Y970000D01*
X12439780Y374459D02*
Y247500D01*
X12503259D01*
X12524419Y268660D01*
Y353299D01*
X12503259Y374459D01*
X12439780D01*
X2351142Y7501067D02*
X2308822D01*
X2287662Y7479908D01*
Y7395268D01*
X2308822Y7374108D01*
X2351142D01*
X2372302Y7395268D01*
Y7479908D01*
X2351142Y7501067D01*
X12220000Y6024019D02*
Y5897060D01*
X12283479D01*
X12304639Y5918220D01*
Y6002859D01*
X12283479Y6024019D01*
X12220000D01*
X11970000Y5946959D02*
Y5820000D01*
X12033479D01*
X12054639Y5841160D01*
Y5925799D01*
X12033479Y5946959D01*
X11970000D01*
X13479781Y6276959D02*
Y6150000D01*
X13543259D01*
X13564420Y6171160D01*
Y6255799D01*
X13543259Y6276959D01*
X13479781D01*
X13489838Y6142018D02*
Y6015060D01*
X13553317D01*
X13574478Y6036219D01*
Y6120859D01*
X13553317Y6142018D01*
X13489838D01*
X13614050Y5630779D02*
Y5503820D01*
X13677530D01*
X13698689Y5524980D01*
Y5609619D01*
X13677530Y5630779D01*
X13614050D01*
X13479781Y5856959D02*
Y5730000D01*
X13543259D01*
X13564420Y5751160D01*
Y5835799D01*
X13543259Y5856959D01*
X13479781D01*
X13470000Y5066990D02*
Y4940032D01*
X13533478D01*
X13554639Y4961191D01*
Y5045831D01*
X13533478Y5066990D01*
X13470000D01*
X13479781Y5996959D02*
Y5870000D01*
X13543259D01*
X13564420Y5891160D01*
Y5975799D01*
X13543259Y5996959D01*
X13479781D01*
X12428857Y7252337D02*
X12386538D01*
X12365378Y7231177D01*
Y7146538D01*
X12386538Y7125378D01*
X12428857D01*
X12450017Y7146538D01*
Y7231177D01*
X12428857Y7252337D01*
X14005511Y5321629D02*
X13963193D01*
X13942032Y5300469D01*
Y5215830D01*
X13963193Y5194670D01*
X14005511D01*
X14026672Y5215830D01*
Y5300469D01*
X14005511Y5321629D01*
X15831030Y4659229D02*
Y4532270D01*
X15894510D01*
X15915669Y4553430D01*
Y4638069D01*
X15894510Y4659229D01*
X15831030D01*
X15828490Y4834489D02*
Y4707530D01*
X15891969D01*
X15913130Y4728690D01*
Y4813329D01*
X15891969Y4834489D01*
X15828490D01*
X15827768Y5004671D02*
Y4877712D01*
X15891248D01*
X15912408Y4898872D01*
Y4983511D01*
X15891248Y5004671D01*
X15827768D01*
X15970390Y4403788D02*
Y4276829D01*
X16033870D01*
X16055029Y4297989D01*
Y4382629D01*
X16033870Y4403788D01*
X15970390D01*
X15500000Y3226959D02*
Y3100000D01*
X15563480D01*
X15584639Y3121160D01*
Y3205799D01*
X15563480Y3226959D01*
X15500000D01*
X15120000Y3136959D02*
Y3010000D01*
X15183479D01*
X15204639Y3031160D01*
Y3115799D01*
X15183479Y3136959D01*
X15120000D01*
X10714780Y976959D02*
Y850000D01*
X10778259D01*
X10799419Y871160D01*
Y955799D01*
X10778259Y976959D01*
X10714780D01*
Y1106959D02*
Y980000D01*
X10778259D01*
X10799419Y1001160D01*
Y1085799D01*
X10778259Y1106959D01*
X10714780D01*
X13013480Y2766959D02*
X12971159D01*
X12950000Y2745799D01*
Y2661160D01*
X12971159Y2640000D01*
X13013480D01*
X13034639Y2661160D01*
Y2745799D01*
X13013480Y2766959D01*
X13083479Y2456959D02*
X13041161D01*
X13020000Y2435799D01*
Y2351160D01*
X13041161Y2330000D01*
X13083479D01*
X13104640Y2351160D01*
Y2435799D01*
X13083479Y2456959D01*
X13213480Y2566959D02*
X13171159D01*
X13150000Y2545799D01*
Y2461160D01*
X13171159Y2440000D01*
X13213480D01*
X13234641Y2461160D01*
Y2545799D01*
X13213480Y2566959D01*
X13323479Y2686959D02*
X13281160D01*
X13260001Y2665799D01*
Y2581160D01*
X13281160Y2560000D01*
X13323479D01*
X13344640Y2581160D01*
Y2665799D01*
X13323479Y2686959D01*
X8713479Y1076959D02*
X8671160D01*
X8650000Y1055799D01*
Y971160D01*
X8671160Y950000D01*
X8713479D01*
X8734639Y971160D01*
Y1055799D01*
X8713479Y1076959D01*
X8292332Y1228107D02*
X8250012D01*
X8228852Y1206947D01*
Y1122308D01*
X8250012Y1101148D01*
X8292332D01*
X8313492Y1122308D01*
Y1206947D01*
X8292332Y1228107D01*
X8954780Y1776959D02*
Y1650000D01*
X9018259D01*
X9039419Y1671160D01*
Y1755799D01*
X9018259Y1776959D01*
X8954780D01*
X8964780Y1606959D02*
Y1480000D01*
X9028259D01*
X9049419Y1501160D01*
Y1585799D01*
X9028259Y1606959D01*
X8964780D01*
X8954780Y2106959D02*
Y1980000D01*
X9018259D01*
X9039419Y2001160D01*
Y2085799D01*
X9018259Y2106959D01*
X8954780D01*
X13970000Y3446959D02*
Y3320000D01*
X14033479D01*
X14054639Y3341160D01*
Y3425799D01*
X14033479Y3446959D01*
X13970000D01*
X14856430Y3607669D02*
Y3480710D01*
X14919910D01*
X14941069Y3501870D01*
Y3586509D01*
X14919910Y3607669D01*
X14856430D01*
X2770000Y-1823041D02*
Y-1950000D01*
X2833479D01*
X2854639Y-1928840D01*
Y-1844201D01*
X2833479Y-1823041D01*
X2770000D01*
X15870000Y5596959D02*
Y5470000D01*
X15933479D01*
X15954639Y5491160D01*
Y5575799D01*
X15933479Y5596959D01*
X15870000D01*
X11230000Y996959D02*
Y870000D01*
X11293479D01*
X11314639Y891160D01*
Y975799D01*
X11293479Y996959D01*
X11230000D01*
X11449310Y1002519D02*
Y875560D01*
X11512790D01*
X11533949Y896720D01*
Y981359D01*
X11512790Y1002519D01*
X11449310D01*
X11231690Y1145179D02*
Y1018220D01*
X11295169D01*
X11316329Y1039380D01*
Y1124019D01*
X11295169Y1145179D01*
X11231690D01*
X11229150Y1295039D02*
Y1168080D01*
X11292629D01*
X11313789Y1189240D01*
Y1273879D01*
X11292629Y1295039D01*
X11229150D01*
X1968500Y7871419D02*
X2010820D01*
X1989660D01*
Y7744460D01*
X1968500D01*
X2010820D01*
X5760338Y-164006D02*
Y-290965D01*
X5823818D01*
X5844978Y-269805D01*
Y-185166D01*
X5823818Y-164006D01*
X5760338D01*
X13882339Y3280009D02*
Y3153050D01*
X13945819D01*
X13966978Y3174210D01*
Y3258849D01*
X13945819Y3280009D01*
X13882339D01*
X14265880Y3592696D02*
Y3465737D01*
X14329359D01*
X14350519Y3486897D01*
Y3571536D01*
X14329359Y3592696D01*
X14265880D01*
X2757531Y-357747D02*
Y-484706D01*
X2821010D01*
X2842170Y-463546D01*
Y-378907D01*
X2821010Y-357747D01*
X2757531D01*
X763240Y-669691D02*
Y-796650D01*
X826719D01*
X847879Y-775490D01*
Y-690851D01*
X826719Y-669691D01*
X763240D01*
X1177260Y-921151D02*
Y-1048110D01*
X1240739D01*
X1261899Y-1026950D01*
Y-942311D01*
X1240739Y-921151D01*
X1177260D01*
X1163290Y-1167531D02*
Y-1294490D01*
X1226769D01*
X1247929Y-1273330D01*
Y-1188691D01*
X1226769Y-1167531D01*
X1163290D01*
X1154400Y-1429151D02*
Y-1556110D01*
X1217879D01*
X1239039Y-1534950D01*
Y-1450311D01*
X1217879Y-1429151D01*
X1154400D01*
X11156920Y3117449D02*
Y2990490D01*
X11220399D01*
X11241559Y3011650D01*
Y3096289D01*
X11220399Y3117449D01*
X11156920D01*
X-1394021Y3351959D02*
X-1436340D01*
X-1457500Y3330799D01*
Y3246160D01*
X-1436340Y3225000D01*
X-1394021D01*
X-1372861Y3246160D01*
Y3330799D01*
X-1394021Y3351959D01*
X-550000Y4814996D02*
Y4941955D01*
X-486520D01*
X-465361Y4920796D01*
Y4878476D01*
X-486520Y4857316D01*
X-550000D01*
X4919030Y8393319D02*
Y8266360D01*
X4982509D01*
X5003669Y8287520D01*
Y8372159D01*
X4982509Y8393319D01*
X4919030D01*
X3220321Y9050200D02*
Y8923241D01*
X3283801D01*
X3304961Y8944401D01*
Y9029040D01*
X3283801Y9050200D01*
X3220321D01*
X8303479Y8286959D02*
X8261160D01*
X8240000Y8265799D01*
Y8181160D01*
X8261160Y8160000D01*
X8303479D01*
X8324639Y8181160D01*
Y8265799D01*
X8303479Y8286959D01*
X8163479D02*
X8121160D01*
X8100000Y8265799D01*
Y8181160D01*
X8121160Y8160000D01*
X8163479D01*
X8184639Y8181160D01*
Y8265799D01*
X8163479Y8286959D01*
X6253479D02*
X6211160D01*
X6190000Y8265799D01*
Y8181160D01*
X6211160Y8160000D01*
X6253479D01*
X6274639Y8181160D01*
Y8265799D01*
X6253479Y8286959D01*
X6393479D02*
X6351160D01*
X6330000Y8265799D01*
Y8181160D01*
X6351160Y8160000D01*
X6393479D01*
X6414639Y8181160D01*
Y8265799D01*
X6393479Y8286959D01*
X5250000Y7869899D02*
Y7742940D01*
X5313479D01*
X5334639Y7764100D01*
Y7848739D01*
X5313479Y7869899D01*
X5250000D01*
X9003479Y8276959D02*
X8961160D01*
X8940000Y8255799D01*
Y8171160D01*
X8961160Y8150000D01*
X9003479D01*
X9024639Y8171160D01*
Y8255799D01*
X9003479Y8276959D01*
X7093479D02*
X7051160D01*
X7030000Y8255799D01*
Y8171160D01*
X7051160Y8150000D01*
X7093479D01*
X7114639Y8171160D01*
Y8255799D01*
X7093479Y8276959D01*
X5323479Y1786959D02*
X5281160D01*
X5260000Y1765799D01*
Y1681160D01*
X5281160Y1660000D01*
X5323479D01*
X5344639Y1681160D01*
Y1765799D01*
X5323479Y1786959D01*
X5333479Y2276959D02*
X5291160D01*
X5270000Y2255799D01*
Y2171160D01*
X5291160Y2150000D01*
X5333479D01*
X5354639Y2171160D01*
Y2255799D01*
X5333479Y2276959D01*
X2701280Y1766959D02*
Y1640000D01*
X2764760D01*
X2785919Y1661160D01*
Y1745799D01*
X2764760Y1766959D01*
X2701280D01*
X16083479Y3746959D02*
X16041161D01*
X16020000Y3725799D01*
Y3641160D01*
X16041161Y3620000D01*
X16083479D01*
X16104639Y3641160D01*
Y3725799D01*
X16083479Y3746959D01*
Y3426959D02*
X16041161D01*
X16020000Y3405799D01*
Y3321160D01*
X16041161Y3300000D01*
X16083479D01*
X16104639Y3321160D01*
Y3405799D01*
X16083479Y3426959D01*
Y3586959D02*
X16041161D01*
X16020000Y3565799D01*
Y3481160D01*
X16041161Y3460000D01*
X16083479D01*
X16104639Y3481160D01*
Y3565799D01*
X16083479Y3586959D01*
X15800000Y5636959D02*
Y5510000D01*
X15863480D01*
X15884639Y5531160D01*
Y5615799D01*
X15863480Y5636959D01*
X15800000D01*
X15695889Y5514120D02*
Y5387161D01*
X15759369D01*
X15780528Y5408321D01*
Y5492960D01*
X15759369Y5514120D01*
X15695889D01*
X-993851Y4071160D02*
Y4155799D01*
X-1015011Y4176959D01*
X-1057331D01*
X-1078490Y4155799D01*
Y4071160D01*
X-1057331Y4050000D01*
X-1015011D01*
X-1036171Y4092320D02*
X-993851Y4050000D01*
X-1015011D02*
X-993851Y4071160D01*
X524639Y3323860D02*
Y3408499D01*
X503479Y3429659D01*
X461160D01*
X440000Y3408499D01*
Y3323860D01*
X461160Y3302700D01*
X503479D01*
X482320Y3345020D02*
X524639Y3302700D01*
X503479D02*
X524639Y3323860D01*
X8964780Y2266959D02*
Y2140000D01*
X9028259D01*
X9049419Y2161160D01*
Y2245799D01*
X9028259Y2266959D01*
X8964780D01*
X374639Y6000760D02*
Y6085399D01*
X353479Y6106559D01*
X311160D01*
X290000Y6085399D01*
Y6000760D01*
X311160Y5979600D01*
X353479D01*
X332320Y6021920D02*
X374639Y5979600D01*
X353479D02*
X374639Y6000760D01*
X-106520Y4806959D02*
X-148840D01*
X-170000Y4785799D01*
Y4701160D01*
X-148840Y4680000D01*
X-106520D01*
X-85361Y4701160D01*
Y4785799D01*
X-106520Y4806959D01*
X-1586521Y3656959D02*
X-1628840D01*
X-1650000Y3635799D01*
Y3551160D01*
X-1628840Y3530000D01*
X-1586521D01*
X-1565361Y3551160D01*
Y3635799D01*
X-1586521Y3656959D01*
X15695889Y5796959D02*
Y5670000D01*
X15759369D01*
X15780528Y5691160D01*
Y5775799D01*
X15759369Y5796959D01*
X15695889D01*
X14810001Y5416959D02*
Y5290000D01*
X14873480D01*
X14894640Y5311160D01*
Y5395799D01*
X14873480Y5416959D01*
X14810001D01*
X15230000Y5366959D02*
Y5240000D01*
X15293478D01*
X15314639Y5261160D01*
Y5345799D01*
X15293478Y5366959D01*
X15230000D01*
X14950000Y5896959D02*
Y5770000D01*
X15013480D01*
X15034639Y5791160D01*
Y5875799D01*
X15013480Y5896959D01*
X14950000D01*
X15860001Y5226959D02*
Y5100000D01*
X15923479D01*
X15944640Y5121160D01*
Y5205799D01*
X15923479Y5226959D01*
X15860001D01*
X15339999Y5646959D02*
Y5520000D01*
X15403479D01*
X15424638Y5541160D01*
Y5625799D01*
X15403479Y5646959D01*
X15339999D01*
X14110001Y4516959D02*
Y4390000D01*
X14173479D01*
X14194640Y4411160D01*
Y4495799D01*
X14173479Y4516959D01*
X14110001D01*
X14970760Y2265529D02*
Y2138570D01*
X15034239D01*
X15055399Y2159730D01*
Y2244369D01*
X15034239Y2265529D01*
X14970760D01*
X2793480Y1916958D02*
X2751160D01*
X2730001Y1895799D01*
Y1811159D01*
X2751160Y1789999D01*
X2793480D01*
X2814640Y1811159D01*
Y1895799D01*
X2793480Y1916958D01*
X524639Y3661160D02*
Y3745799D01*
X503479Y3766959D01*
X461160D01*
X440000Y3745799D01*
Y3661160D01*
X461160Y3640000D01*
X503479D01*
X482320Y3682320D02*
X524639Y3640000D01*
X503479D02*
X524639Y3661160D01*
X2893479Y3515609D02*
X2851160D01*
X2830000Y3494449D01*
Y3409810D01*
X2851160Y3388650D01*
X2893479D01*
X2914639Y3409810D01*
Y3494449D01*
X2893479Y3515609D01*
X5323479Y2126959D02*
X5281160D01*
X5260000Y2105799D01*
Y2021160D01*
X5281160Y2000000D01*
X5323479D01*
X5344639Y2021160D01*
Y2105799D01*
X5323479Y2126959D01*
Y2036959D02*
X5281160D01*
X5260000Y2015799D01*
Y1931160D01*
X5281160Y1910000D01*
X5323479D01*
X5344639Y1931160D01*
Y2015799D01*
X5323479Y2036959D01*
Y1936959D02*
X5281160D01*
X5260000Y1915799D01*
Y1831160D01*
X5281160Y1810000D01*
X5323479D01*
X5344639Y1831160D01*
Y1915799D01*
X5323479Y1936959D01*
X1423479Y6346959D02*
X1381160D01*
X1360000Y6325799D01*
Y6241160D01*
X1381160Y6220000D01*
X1423479D01*
X1444639Y6241160D01*
Y6325799D01*
X1423479Y6346959D01*
X934639Y5811160D02*
Y5895799D01*
X913480Y5916959D01*
X871160D01*
X850000Y5895799D01*
Y5811160D01*
X871160Y5790000D01*
X913480D01*
X892320Y5832320D02*
X934639Y5790000D01*
X913480D02*
X934639Y5811160D01*
X1433479Y6274259D02*
X1391160D01*
X1370000Y6253099D01*
Y6168460D01*
X1391160Y6147300D01*
X1433479D01*
X1454639Y6168460D01*
Y6253099D01*
X1433479Y6274259D01*
X3503479Y9266958D02*
X3461159D01*
X3440000Y9245798D01*
Y9161159D01*
X3461159Y9139999D01*
X3503479D01*
X3524639Y9161159D01*
Y9245798D01*
X3503479Y9266958D01*
X5973479Y8276959D02*
X5931160D01*
X5910000Y8255799D01*
Y8171160D01*
X5931160Y8150000D01*
X5973479D01*
X5994639Y8171160D01*
Y8255799D01*
X5973479Y8276959D01*
X7883480D02*
X7841160D01*
X7820000Y8255799D01*
Y8171160D01*
X7841160Y8150000D01*
X7883480D01*
X7904640Y8171160D01*
Y8255799D01*
X7883480Y8276959D01*
X1050000Y3256959D02*
Y3130000D01*
X1113479D01*
X1134639Y3151160D01*
Y3235799D01*
X1113479Y3256959D01*
X1050000D01*
X713479Y3826959D02*
X671160D01*
X650000Y3805799D01*
Y3721160D01*
X671160Y3700000D01*
X713479D01*
X734639Y3721160D01*
Y3805799D01*
X713479Y3826959D01*
X883479Y2916959D02*
X841160D01*
X820000Y2895799D01*
Y2811160D01*
X841160Y2790000D01*
X883479D01*
X904639Y2811160D01*
Y2895799D01*
X883479Y2916959D01*
X1130000Y2556959D02*
Y2430000D01*
X1193479D01*
X1214639Y2451160D01*
Y2535799D01*
X1193479Y2556959D01*
X1130000D01*
X524639Y3391160D02*
Y3475799D01*
X503479Y3496959D01*
X461160D01*
X440000Y3475799D01*
Y3391160D01*
X461160Y3370000D01*
X503479D01*
X482320Y3412320D02*
X524639Y3370000D01*
X503479D02*
X524639Y3391160D01*
Y3261160D02*
Y3345799D01*
X503479Y3366959D01*
X461160D01*
X440000Y3345799D01*
Y3261160D01*
X461160Y3240000D01*
X503479D01*
X482320Y3282320D02*
X524639Y3240000D01*
X503479D02*
X524639Y3261160D01*
X-1195361Y4731160D02*
Y4815799D01*
X-1216521Y4836959D01*
X-1258840D01*
X-1280000Y4815799D01*
Y4731160D01*
X-1258840Y4710000D01*
X-1216521D01*
X-1237680Y4752320D02*
X-1195361Y4710000D01*
X-1216521D02*
X-1195361Y4731160D01*
X310000Y4166959D02*
Y4040000D01*
X373479D01*
X394639Y4061160D01*
Y4145799D01*
X373479Y4166959D01*
X310000D01*
X250000Y4046959D02*
Y3920000D01*
X313479D01*
X334639Y3941160D01*
Y4025799D01*
X313479Y4046959D01*
X250000D01*
X380000Y3996959D02*
Y3870000D01*
X443479D01*
X464639Y3891160D01*
Y3975799D01*
X443479Y3996959D01*
X380000D01*
X3151622Y8137359D02*
Y8010400D01*
X3215101D01*
X3236261Y8031560D01*
Y8116199D01*
X3215101Y8137359D01*
X3151622D01*
X10236170Y7989150D02*
Y7862191D01*
X10299649D01*
X10320809Y7883351D01*
Y7967990D01*
X10299649Y7989150D01*
X10236170D01*
X4910000Y8067359D02*
Y7940400D01*
X4973480D01*
X4994639Y7961560D01*
Y8046199D01*
X4973480Y8067359D01*
X4910000D01*
X4670000Y8006959D02*
Y7880000D01*
X4733479D01*
X4754639Y7901160D01*
Y7985799D01*
X4733479Y8006959D01*
X4670000D01*
X6673479Y8286959D02*
X6631160D01*
X6610000Y8265799D01*
Y8181160D01*
X6631160Y8160000D01*
X6673479D01*
X6694639Y8181160D01*
Y8265799D01*
X6673479Y8286959D01*
X6813479D02*
X6771160D01*
X6750000Y8265799D01*
Y8181160D01*
X6771160Y8160000D01*
X6813479D01*
X6834639Y8181160D01*
Y8265799D01*
X6813479Y8286959D01*
X8723479D02*
X8681160D01*
X8660000Y8265799D01*
Y8181160D01*
X8681160Y8160000D01*
X8723479D01*
X8744639Y8181160D01*
Y8265799D01*
X8723479Y8286959D01*
X8583479D02*
X8541160D01*
X8520000Y8265799D01*
Y8181160D01*
X8541160Y8160000D01*
X8583479D01*
X8604639Y8181160D01*
Y8265799D01*
X8583479Y8286959D01*
X2973879Y6836959D02*
X2931560D01*
X2910400Y6815799D01*
Y6731160D01*
X2931560Y6710000D01*
X2973879D01*
X2995039Y6731160D01*
Y6815799D01*
X2973879Y6836959D01*
X-647721Y5862279D02*
X-690040D01*
X-711200Y5841119D01*
Y5756480D01*
X-690040Y5735320D01*
X-647721D01*
X-626561Y5756480D01*
Y5841119D01*
X-647721Y5862279D01*
X-657881Y5773379D02*
X-700200D01*
X-721360Y5752219D01*
Y5667580D01*
X-700200Y5646420D01*
X-657881D01*
X-636721Y5667580D01*
Y5752219D01*
X-657881Y5773379D01*
X432619Y5759020D02*
Y5843659D01*
X411459Y5864819D01*
X369140D01*
X347980Y5843659D01*
Y5759020D01*
X369140Y5737860D01*
X411459D01*
X390300Y5780180D02*
X432619Y5737860D01*
X411459D02*
X432619Y5759020D01*
X-652954Y5892803D02*
Y5977442D01*
X-674114Y5998602D01*
X-716433D01*
X-737593Y5977442D01*
Y5892803D01*
X-716433Y5871643D01*
X-674114D01*
X-695273Y5913963D02*
X-652954Y5871643D01*
X-674114D02*
X-652954Y5892803D01*
X-712921Y5761560D02*
Y5846199D01*
X-734081Y5867359D01*
X-776400D01*
X-797560Y5846199D01*
Y5761560D01*
X-776400Y5740400D01*
X-734081D01*
X-755240Y5782720D02*
X-712921Y5740400D01*
X-734081D02*
X-712921Y5761560D01*
X263624Y5419419D02*
X221304D01*
X200145Y5398259D01*
Y5313620D01*
X221304Y5292460D01*
X263624D01*
X284784Y5313620D01*
Y5398259D01*
X263624Y5419419D01*
X83479Y5416959D02*
X41160D01*
X20000Y5395799D01*
Y5311160D01*
X41160Y5290000D01*
X83479D01*
X104639Y5311160D01*
Y5395799D01*
X83479Y5416959D01*
X435507Y5404931D02*
X393188D01*
X372028Y5383771D01*
Y5299132D01*
X393188Y5277972D01*
X435507D01*
X456667Y5299132D01*
Y5383771D01*
X435507Y5404931D01*
X523219Y5679399D02*
X480900D01*
X459740Y5658239D01*
Y5573600D01*
X480900Y5552440D01*
X523219D01*
X544379Y5573600D01*
Y5658239D01*
X523219Y5679399D01*
X1544299Y5577799D02*
X1501980D01*
X1480820Y5556639D01*
Y5472000D01*
X1501980Y5450840D01*
X1544299D01*
X1565459Y5472000D01*
Y5556639D01*
X1544299Y5577799D01*
X1653879Y5186959D02*
X1611560D01*
X1590400Y5165799D01*
Y5081160D01*
X1611560Y5060000D01*
X1653879D01*
X1675039Y5081160D01*
Y5165799D01*
X1653879Y5186959D01*
X604639Y5621160D02*
Y5705799D01*
X583479Y5726959D01*
X541160D01*
X520000Y5705799D01*
Y5621160D01*
X541160Y5600000D01*
X583479D01*
X562320Y5642320D02*
X604639Y5600000D01*
X583479D02*
X604639Y5621160D01*
X-456521Y5256959D02*
X-498840D01*
X-520000Y5235799D01*
Y5151160D01*
X-498840Y5130000D01*
X-456521D01*
X-435361Y5151160D01*
Y5235799D01*
X-456521Y5256959D01*
X-735360Y5161160D02*
Y5245799D01*
X-756520Y5266959D01*
X-798840D01*
X-820000Y5245799D01*
Y5161160D01*
X-798840Y5140000D01*
X-756520D01*
X-777680Y5182320D02*
X-735360Y5140000D01*
X-756520D02*
X-735360Y5161160D01*
X173479Y5096959D02*
X131160D01*
X110000Y5075799D01*
Y4991160D01*
X131160Y4970000D01*
X173479D01*
X194639Y4991160D01*
Y5075799D01*
X173479Y5096959D01*
X43479Y5036959D02*
X1160D01*
X-20000Y5015799D01*
Y4931160D01*
X1160Y4910000D01*
X43479D01*
X64639Y4931160D01*
Y5015799D01*
X43479Y5036959D01*
X654639Y5761160D02*
Y5845799D01*
X633479Y5866959D01*
X591160D01*
X570000Y5845799D01*
Y5761160D01*
X591160Y5740000D01*
X633479D01*
X612320Y5782320D02*
X654639Y5740000D01*
X633479D02*
X654639Y5761160D01*
X-365361Y5941560D02*
Y6026199D01*
X-386521Y6047359D01*
X-428840D01*
X-450000Y6026199D01*
Y5941560D01*
X-428840Y5920400D01*
X-386521D01*
X-407680Y5962720D02*
X-365361Y5920400D01*
X-386521D02*
X-365361Y5941560D01*
X3463479Y6286959D02*
X3421160D01*
X3400000Y6265799D01*
Y6181160D01*
X3421160Y6160000D01*
X3463479D01*
X3484639Y6181160D01*
Y6265799D01*
X3463479Y6286959D01*
X3493479Y6916959D02*
X3451160D01*
X3430000Y6895799D01*
Y6811160D01*
X3451160Y6790000D01*
X3493479D01*
X3514639Y6811160D01*
Y6895799D01*
X3493479Y6916959D01*
X980000Y5206959D02*
Y5080000D01*
X1043479D01*
X1064639Y5101160D01*
Y5185799D01*
X1043479Y5206959D01*
X980000D01*
X2155787Y6700012D02*
Y6784651D01*
X2134627Y6805811D01*
X2092308D01*
X2071148Y6784651D01*
Y6700012D01*
X2092308Y6678852D01*
X2134627D01*
X2113468Y6721172D02*
X2155787Y6678852D01*
X2134627D02*
X2155787Y6700012D01*
X2247900Y8491179D02*
Y8364220D01*
X2311379D01*
X2332539Y8385380D01*
Y8470019D01*
X2311379Y8491179D01*
X2247900D01*
X1593479Y6746959D02*
X1551160D01*
X1530000Y6725799D01*
Y6641160D01*
X1551160Y6620000D01*
X1593479D01*
X1614639Y6641160D01*
Y6725799D01*
X1593479Y6746959D01*
X2313479Y9086959D02*
X2271160D01*
X2250000Y9065799D01*
Y8981160D01*
X2271160Y8960000D01*
X2313479D01*
X2334639Y8981160D01*
Y9065799D01*
X2313479Y9086959D01*
X4430000Y7916959D02*
Y7790000D01*
X4493479D01*
X4514639Y7811160D01*
Y7895799D01*
X4493479Y7916959D01*
X4430000D01*
X3463479Y8436959D02*
X3421160D01*
X3400000Y8415799D01*
Y8331160D01*
X3421160Y8310000D01*
X3463479D01*
X3484639Y8331160D01*
Y8415799D01*
X3463479Y8436959D01*
X1780000Y7926959D02*
Y7800000D01*
X1843479D01*
X1864639Y7821160D01*
Y7905799D01*
X1843479Y7926959D01*
X1780000D01*
X854639Y5811160D02*
Y5895799D01*
X833479Y5916959D01*
X791160D01*
X770000Y5895799D01*
Y5811160D01*
X791160Y5790000D01*
X833479D01*
X812320Y5832320D02*
X854639Y5790000D01*
X833479D02*
X854639Y5811160D01*
X-456521Y5616959D02*
X-498840D01*
X-520000Y5595799D01*
Y5511160D01*
X-498840Y5490000D01*
X-456521D01*
X-435361Y5511160D01*
Y5595799D01*
X-456521Y5616959D01*
X761270Y7499855D02*
Y7372896D01*
X824749D01*
X845909Y7394056D01*
Y7478695D01*
X824749Y7499855D01*
X761270D01*
X-816509Y5782307D02*
Y5866947D01*
X-837669Y5888107D01*
X-879988D01*
X-901148Y5866947D01*
Y5782307D01*
X-879988Y5761148D01*
X-837669D01*
X-858828Y5803467D02*
X-816509Y5761148D01*
X-837669D02*
X-816509Y5782307D01*
X-875361Y5881160D02*
Y5965799D01*
X-896521Y5986959D01*
X-938840D01*
X-960000Y5965799D01*
Y5881160D01*
X-938840Y5860000D01*
X-896521D01*
X-917680Y5902320D02*
X-875361Y5860000D01*
X-896521D02*
X-875361Y5881160D01*
X-85361Y6451160D02*
Y6535799D01*
X-106520Y6556959D01*
X-148840D01*
X-170000Y6535799D01*
Y6451160D01*
X-148840Y6430000D01*
X-106520D01*
X-127680Y6472320D02*
X-85361Y6430000D01*
X-106520D02*
X-85361Y6451160D01*
X236190Y7150969D02*
Y7024010D01*
X299669D01*
X320829Y7045170D01*
Y7129809D01*
X299669Y7150969D01*
X236190D01*
X2599627Y6160811D02*
X2557308D01*
X2536148Y6139651D01*
Y6055012D01*
X2557308Y6033852D01*
X2599627D01*
X2620787Y6055012D01*
Y6139651D01*
X2599627Y6160811D01*
X2154627Y5605811D02*
X2112307D01*
X2091148Y5584651D01*
Y5500012D01*
X2112307Y5478852D01*
X2154627D01*
X2175787Y5500012D01*
Y5584651D01*
X2154627Y5605811D01*
X14250694Y4869995D02*
Y4743036D01*
X14314172D01*
X14335333Y4764196D01*
Y4848836D01*
X14314172Y4869995D01*
X14250694D01*
X14643069Y4848459D02*
Y4721500D01*
X14706549D01*
X14727708Y4742660D01*
Y4827299D01*
X14706549Y4848459D01*
X14643069D01*
X15311249Y4524406D02*
Y4397447D01*
X15374728D01*
X15395888Y4418607D01*
Y4503246D01*
X15374728Y4524406D01*
X15311249D01*
X14556709Y3968349D02*
Y3841390D01*
X14620189D01*
X14641348Y3862550D01*
Y3947189D01*
X14620189Y3968349D01*
X14556709D01*
X15464848Y4238395D02*
Y4111437D01*
X15528328D01*
X15549487Y4132596D01*
Y4217236D01*
X15528328Y4238395D01*
X15464848D01*
X13775632Y4734130D02*
Y4607171D01*
X13839110D01*
X13860271Y4628331D01*
Y4712970D01*
X13839110Y4734130D01*
X13775632D01*
X13016260Y4443329D02*
Y4316370D01*
X13079739D01*
X13100900Y4337530D01*
Y4422169D01*
X13079739Y4443329D01*
X13016260D01*
X12989560Y4231599D02*
Y4104640D01*
X13053040D01*
X13074199Y4125800D01*
Y4210439D01*
X13053040Y4231599D01*
X12989560D01*
X13766620Y4324869D02*
Y4197910D01*
X13830099D01*
X13851260Y4219070D01*
Y4303709D01*
X13830099Y4324869D01*
X13766620D01*
X11510000Y4296959D02*
Y4170000D01*
X11573479D01*
X11594639Y4191160D01*
Y4275799D01*
X11573479Y4296959D01*
X11510000D01*
X15873479Y3286959D02*
X15831160D01*
X15810001Y3265799D01*
Y3181160D01*
X15831160Y3160000D01*
X15873479D01*
X15894640Y3181160D01*
Y3265799D01*
X15873479Y3286959D01*
X15485059Y2885039D02*
X15442740D01*
X15421581Y2863879D01*
Y2779240D01*
X15442740Y2758080D01*
X15485059D01*
X15506219Y2779240D01*
Y2863879D01*
X15485059Y2885039D01*
X15093478Y2696959D02*
X15051160D01*
X15030000Y2675799D01*
Y2591160D01*
X15051160Y2570000D01*
X15093478D01*
X15114639Y2591160D01*
Y2675799D01*
X15093478Y2696959D01*
X11823480Y2866959D02*
X11781160D01*
X11760000Y2845799D01*
Y2761160D01*
X11781160Y2740000D01*
X11823480D01*
X11844640Y2761160D01*
Y2845799D01*
X11823480Y2866959D01*
X11443480Y1726959D02*
X11401160D01*
X11380000Y1705799D01*
Y1621160D01*
X11401160Y1600000D01*
X11443480D01*
X11464640Y1621160D01*
Y1705799D01*
X11443480Y1726959D01*
X11803479D02*
X11761160D01*
X11740000Y1705799D01*
Y1621160D01*
X11761160Y1600000D01*
X11803479D01*
X11824639Y1621160D01*
Y1705799D01*
X11803479Y1726959D01*
X12093479D02*
X12051160D01*
X12030000Y1705799D01*
Y1621160D01*
X12051160Y1600000D01*
X12093479D01*
X12114639Y1621160D01*
Y1705799D01*
X12093479Y1726959D01*
X12513479Y1096959D02*
X12471160D01*
X12450000Y1075799D01*
Y991160D01*
X12471160Y970000D01*
X12513479D01*
X12534639Y991160D01*
Y1075799D01*
X12513479Y1096959D01*
X12173479Y446959D02*
X12131160D01*
X12110000Y425799D01*
Y341160D01*
X12131160Y320000D01*
X12173479D01*
X12194639Y341160D01*
Y425799D01*
X12173479Y446959D01*
X11223479Y-253041D02*
X11181160D01*
X11160000Y-274201D01*
Y-358840D01*
X11181160Y-380000D01*
X11223479D01*
X11244639Y-358840D01*
Y-274201D01*
X11223479Y-253041D01*
X10763479Y-1583041D02*
X10721160D01*
X10700000Y-1604201D01*
Y-1688840D01*
X10721160Y-1710000D01*
X10763479D01*
X10784639Y-1688840D01*
Y-1604201D01*
X10763479Y-1583041D01*
X9943479Y-1683041D02*
X9901160D01*
X9880000Y-1704201D01*
Y-1788840D01*
X9901160Y-1810000D01*
X9943479D01*
X9964639Y-1788840D01*
Y-1704201D01*
X9943479Y-1683041D01*
X-676521Y6896959D02*
X-718840D01*
X-740000Y6875799D01*
Y6791160D01*
X-718840Y6770000D01*
X-676521D01*
X-655361Y6791160D01*
Y6875799D01*
X-676521Y6896959D01*
X1473479Y7826959D02*
X1431160D01*
X1410000Y7805799D01*
Y7721160D01*
X1431160Y7700000D01*
X1473479D01*
X1494639Y7721160D01*
Y7805799D01*
X1473479Y7826959D01*
X2923480Y8026959D02*
X2881160D01*
X2860000Y8005799D01*
Y7921160D01*
X2881160Y7900000D01*
X2923480D01*
X2944640Y7921160D01*
Y8005799D01*
X2923480Y8026959D01*
X12443479Y8706959D02*
X12401160D01*
X12380000Y8685799D01*
Y8601160D01*
X12401160Y8580000D01*
X12443479D01*
X12464639Y8601160D01*
Y8685799D01*
X12443479Y8706959D01*
X13853481Y8666959D02*
X13811160D01*
X13789999Y8645799D01*
Y8561160D01*
X13811160Y8540000D01*
X13853481D01*
X13874640Y8561160D01*
Y8645799D01*
X13853481Y8666959D01*
X15083479Y8136959D02*
X15041161D01*
X15020000Y8115799D01*
Y8031160D01*
X15041161Y8010000D01*
X15083479D01*
X15104639Y8031160D01*
Y8115799D01*
X15083479Y8136959D01*
X12243479Y7736959D02*
X12201160D01*
X12180000Y7715799D01*
Y7631160D01*
X12201160Y7610000D01*
X12243479D01*
X12264639Y7631160D01*
Y7715799D01*
X12243479Y7736959D01*
X13003479Y7096959D02*
X12961160D01*
X12939999Y7075799D01*
Y6991160D01*
X12961160Y6970000D01*
X13003479D01*
X13024638Y6991160D01*
Y7075799D01*
X13003479Y7096959D01*
X11243479Y8436959D02*
X11201160D01*
X11180000Y8415799D01*
Y8331160D01*
X11201160Y8310000D01*
X11243479D01*
X11264639Y8331160D01*
Y8415799D01*
X11243479Y8436959D01*
X11003479D02*
X10961160D01*
X10940000Y8415799D01*
Y8331160D01*
X10961160Y8310000D01*
X11003479D01*
X11024639Y8331160D01*
Y8415799D01*
X11003479Y8436959D01*
X11663479Y7146959D02*
X11621160D01*
X11600000Y7125799D01*
Y7041160D01*
X11621160Y7020000D01*
X11663479D01*
X11684639Y7041160D01*
Y7125799D01*
X11663479Y7146959D01*
X11833480Y5486959D02*
X11791160D01*
X11770000Y5465799D01*
Y5381160D01*
X11791160Y5360000D01*
X11833480D01*
X11854639Y5381160D01*
Y5465799D01*
X11833480Y5486959D01*
X11463479Y5916959D02*
X11421160D01*
X11400000Y5895799D01*
Y5811160D01*
X11421160Y5790000D01*
X11463479D01*
X11484639Y5811160D01*
Y5895799D01*
X11463479Y5916959D01*
X11433480Y5366959D02*
X11391160D01*
X11370000Y5345799D01*
Y5261160D01*
X11391160Y5240000D01*
X11433480D01*
X11454640Y5261160D01*
Y5345799D01*
X11433480Y5366959D01*
X10553480Y4186959D02*
X10511160D01*
X10490000Y4165799D01*
Y4081160D01*
X10511160Y4060000D01*
X10553480D01*
X10574640Y4081160D01*
Y4165799D01*
X10553480Y4186959D01*
X10983479Y4766959D02*
X10941160D01*
X10920000Y4745799D01*
Y4661160D01*
X10941160Y4640000D01*
X10983479D01*
X11004639Y4661160D01*
Y4745799D01*
X10983479Y4766959D01*
X12673479Y4276959D02*
X12631160D01*
X12610000Y4255799D01*
Y4171160D01*
X12631160Y4150000D01*
X12673479D01*
X12694639Y4171160D01*
Y4255799D01*
X12673479Y4276959D01*
X11603479Y3376959D02*
X11561160D01*
X11540000Y3355799D01*
Y3271160D01*
X11561160Y3250000D01*
X11603479D01*
X11624639Y3271160D01*
Y3355799D01*
X11603479Y3376959D01*
X8723479Y3146959D02*
X8681160D01*
X8660000Y3125799D01*
Y3041160D01*
X8681160Y3020000D01*
X8723479D01*
X8744639Y3041160D01*
Y3125799D01*
X8723479Y3146959D01*
X-1126520Y1286959D02*
X-1168840D01*
X-1190000Y1265799D01*
Y1181160D01*
X-1168840Y1160000D01*
X-1126520D01*
X-1105361Y1181160D01*
Y1265799D01*
X-1126520Y1286959D01*
X-436521Y2186959D02*
X-478840D01*
X-500000Y2165799D01*
Y2081160D01*
X-478840Y2060000D01*
X-436521D01*
X-415361Y2081160D01*
Y2165799D01*
X-436521Y2186959D01*
X583479Y646959D02*
X541160D01*
X520000Y625799D01*
Y541160D01*
X541160Y520000D01*
X583479D01*
X604639Y541160D01*
Y625799D01*
X583479Y646959D01*
X1633479Y-113041D02*
X1591160D01*
X1570000Y-134201D01*
Y-218840D01*
X1591160Y-240000D01*
X1633479D01*
X1654639Y-218840D01*
Y-134201D01*
X1633479Y-113041D01*
X2023479Y476959D02*
X1981160D01*
X1960000Y455799D01*
Y371160D01*
X1981160Y350000D01*
X2023479D01*
X2044639Y371160D01*
Y455799D01*
X2023479Y476959D01*
X2003479Y306959D02*
X1961160D01*
X1940000Y285799D01*
Y201160D01*
X1961160Y180000D01*
X2003479D01*
X2024639Y201160D01*
Y285799D01*
X2003479Y306959D01*
X593479Y1906959D02*
X551160D01*
X530000Y1885799D01*
Y1801160D01*
X551160Y1780000D01*
X593479D01*
X614639Y1801160D01*
Y1885799D01*
X593479Y1906959D01*
X483479Y1836959D02*
X441160D01*
X420000Y1815799D01*
Y1731160D01*
X441160Y1710000D01*
X483479D01*
X504639Y1731160D01*
Y1815799D01*
X483479Y1836959D01*
X133480Y2206959D02*
X91160D01*
X70000Y2185799D01*
Y2101160D01*
X91160Y2080000D01*
X133480D01*
X154640Y2101160D01*
Y2185799D01*
X133480Y2206959D01*
X-106520Y4946959D02*
X-148840D01*
X-170000Y4925799D01*
Y4841160D01*
X-148840Y4820000D01*
X-106520D01*
X-85361Y4841160D01*
Y4925799D01*
X-106520Y4946959D01*
X-246520Y4516959D02*
X-288840D01*
X-310000Y4495799D01*
Y4411160D01*
X-288840Y4390000D01*
X-246520D01*
X-225360Y4411160D01*
Y4495799D01*
X-246520Y4516959D01*
X2783479Y4366959D02*
X2741160D01*
X2720000Y4345799D01*
Y4261160D01*
X2741160Y4240000D01*
X2783479D01*
X2804639Y4261160D01*
Y4345799D01*
X2783479Y4366959D01*
X3013479Y4896959D02*
X2971160D01*
X2950000Y4875799D01*
Y4791160D01*
X2971160Y4770000D01*
X3013479D01*
X3034639Y4791160D01*
Y4875799D01*
X3013479Y4896959D01*
X3353479Y5156959D02*
X3311160D01*
X3290000Y5135799D01*
Y5051160D01*
X3311160Y5030000D01*
X3353479D01*
X3374639Y5051160D01*
Y5135799D01*
X3353479Y5156959D01*
X2183480Y5166959D02*
X2141160D01*
X2120000Y5145799D01*
Y5061160D01*
X2141160Y5040000D01*
X2183480D01*
X2204639Y5061160D01*
Y5145799D01*
X2183480Y5166959D01*
X1303479Y4066959D02*
X1261160D01*
X1240000Y4045799D01*
Y3961160D01*
X1261160Y3940000D01*
X1303479D01*
X1324639Y3961160D01*
Y4045799D01*
X1303479Y4066959D01*
X203479Y4556959D02*
X161160D01*
X140000Y4535799D01*
Y4451160D01*
X161160Y4430000D01*
X203479D01*
X224639Y4451160D01*
Y4535799D01*
X203479Y4556959D01*
X313479Y4976959D02*
X271160D01*
X250000Y4955799D01*
Y4871160D01*
X271160Y4850000D01*
X313479D01*
X334639Y4871160D01*
Y4955799D01*
X313479Y4976959D01*
X593479Y4706959D02*
X551160D01*
X530000Y4685799D01*
Y4601160D01*
X551160Y4580000D01*
X593479D01*
X614639Y4601160D01*
Y4685799D01*
X593479Y4706959D01*
X863479Y4826959D02*
X821160D01*
X800000Y4805799D01*
Y4721160D01*
X821160Y4700000D01*
X863479D01*
X884639Y4721160D01*
Y4805799D01*
X863479Y4826959D01*
X453479Y5076959D02*
X411160D01*
X390000Y5055799D01*
Y4971160D01*
X411160Y4950000D01*
X453479D01*
X474639Y4971160D01*
Y5055799D01*
X453479Y5076959D01*
X-1616521D02*
X-1658840D01*
X-1680000Y5055799D01*
Y4971160D01*
X-1658840Y4950000D01*
X-1616521D01*
X-1595361Y4971160D01*
Y5055799D01*
X-1616521Y5076959D01*
Y5196959D02*
X-1658840D01*
X-1680000Y5175799D01*
Y5091160D01*
X-1658840Y5070000D01*
X-1616521D01*
X-1595361Y5091160D01*
Y5175799D01*
X-1616521Y5196959D01*
X-1036521Y5136959D02*
X-1078840D01*
X-1100000Y5115799D01*
Y5031160D01*
X-1078840Y5010000D01*
X-1036521D01*
X-1015361Y5031160D01*
Y5115799D01*
X-1036521Y5136959D01*
X-826521Y4956959D02*
X-868840D01*
X-890000Y4935799D01*
Y4851160D01*
X-868840Y4830000D01*
X-826521D01*
X-805361Y4851160D01*
Y4935799D01*
X-826521Y4956959D01*
Y5176959D02*
X-868840D01*
X-890000Y5155799D01*
Y5071160D01*
X-868840Y5050000D01*
X-826521D01*
X-805361Y5071160D01*
Y5155799D01*
X-826521Y5176959D01*
Y5346959D02*
X-868840D01*
X-890000Y5325799D01*
Y5241160D01*
X-868840Y5220000D01*
X-826521D01*
X-805361Y5241160D01*
Y5325799D01*
X-826521Y5346959D01*
X-1776520Y986959D02*
X-1818840D01*
X-1840000Y965799D01*
Y881160D01*
X-1818840Y860000D01*
X-1776520D01*
X-1755360Y881160D01*
Y965799D01*
X-1776520Y986959D01*
X-436521Y976959D02*
X-478840D01*
X-500000Y955799D01*
Y871160D01*
X-478840Y850000D01*
X-436521D01*
X-415361Y871160D01*
Y955799D01*
X-436521Y976959D01*
X2313479Y826959D02*
X2271160D01*
X2250000Y805799D01*
Y721160D01*
X2271160Y700000D01*
X2313479D01*
X2334639Y721160D01*
Y805799D01*
X2313479Y826959D01*
X1323479Y1686959D02*
X1281160D01*
X1260000Y1665799D01*
Y1581160D01*
X1281160Y1560000D01*
X1323479D01*
X1344639Y1581160D01*
Y1665799D01*
X1323479Y1686959D01*
X5613480Y1536959D02*
X5571160D01*
X5550000Y1515799D01*
Y1431160D01*
X5571160Y1410000D01*
X5613480D01*
X5634639Y1431160D01*
Y1515799D01*
X5613480Y1536959D01*
X6273479Y1716959D02*
X6231160D01*
X6210000Y1695799D01*
Y1611160D01*
X6231160Y1590000D01*
X6273479D01*
X6294639Y1611160D01*
Y1695799D01*
X6273479Y1716959D01*
X5543479Y3376959D02*
X5501160D01*
X5480000Y3355799D01*
Y3271160D01*
X5501160Y3250000D01*
X5543479D01*
X5564639Y3271160D01*
Y3355799D01*
X5543479Y3376959D01*
X6343479D02*
X6301160D01*
X6280000Y3355799D01*
Y3271160D01*
X6301160Y3250000D01*
X6343479D01*
X6364639Y3271160D01*
Y3355799D01*
X6343479Y3376959D01*
X7833479Y736959D02*
X7791160D01*
X7770000Y715799D01*
Y631160D01*
X7791160Y610000D01*
X7833479D01*
X7854639Y631160D01*
Y715799D01*
X7833479Y736959D01*
X8933479Y886959D02*
X8891160D01*
X8870000Y865799D01*
Y781160D01*
X8891160Y760000D01*
X8933479D01*
X8954639Y781160D01*
Y865799D01*
X8933479Y886959D01*
X6873480Y926959D02*
X6831160D01*
X6810000Y905799D01*
Y821160D01*
X6831160Y800000D01*
X6873480D01*
X6894639Y821160D01*
Y905799D01*
X6873480Y926959D01*
X6713479Y116959D02*
X6671160D01*
X6650000Y95799D01*
Y11160D01*
X6671160Y-10000D01*
X6713479D01*
X6734639Y11160D01*
Y95799D01*
X6713479Y116959D01*
X6733480Y636959D02*
X6691160D01*
X6670000Y615799D01*
Y531160D01*
X6691160Y510000D01*
X6733480D01*
X6754640Y531160D01*
Y615799D01*
X6733480Y636959D01*
X6723479Y496959D02*
X6681160D01*
X6660000Y475799D01*
Y391160D01*
X6681160Y370000D01*
X6723479D01*
X6744639Y391160D01*
Y475799D01*
X6723479Y496959D01*
X6833479Y336959D02*
X6791160D01*
X6770000Y315799D01*
Y231160D01*
X6791160Y210000D01*
X6833479D01*
X6854639Y231160D01*
Y315799D01*
X6833479Y336959D01*
X5933479Y916959D02*
X5891160D01*
X5870000Y895799D01*
Y811160D01*
X5891160Y790000D01*
X5933479D01*
X5954639Y811160D01*
Y895799D01*
X5933479Y916959D01*
Y786959D02*
X5891160D01*
X5870000Y765799D01*
Y681160D01*
X5891160Y660000D01*
X5933479D01*
X5954639Y681160D01*
Y765799D01*
X5933479Y786959D01*
Y636959D02*
X5891160D01*
X5870000Y615799D01*
Y531160D01*
X5891160Y510000D01*
X5933479D01*
X5954639Y531160D01*
Y615799D01*
X5933479Y636959D01*
Y496959D02*
X5891160D01*
X5870000Y475799D01*
Y391160D01*
X5891160Y370000D01*
X5933479D01*
X5954639Y391160D01*
Y475799D01*
X5933479Y496959D01*
Y316959D02*
X5891160D01*
X5870000Y295799D01*
Y211160D01*
X5891160Y190000D01*
X5933479D01*
X5954639Y211160D01*
Y295799D01*
X5933479Y316959D01*
X5973480Y106959D02*
X5931160D01*
X5910000Y85799D01*
Y1160D01*
X5931160Y-20000D01*
X5973480D01*
X5994640Y1160D01*
Y85799D01*
X5973480Y106959D01*
X3283479Y496959D02*
X3241160D01*
X3220000Y475799D01*
Y391160D01*
X3241160Y370000D01*
X3283479D01*
X3304639Y391160D01*
Y475799D01*
X3283479Y496959D01*
X2553480Y316959D02*
X2511160D01*
X2490000Y295799D01*
Y211160D01*
X2511160Y190000D01*
X2553480D01*
X2574640Y211160D01*
Y295799D01*
X2553480Y316959D01*
Y116959D02*
X2511160D01*
X2490000Y95799D01*
Y11160D01*
X2511160Y-10000D01*
X2553480D01*
X2574640Y11160D01*
Y95799D01*
X2553480Y116959D01*
Y-43041D02*
X2511160D01*
X2490000Y-64201D01*
Y-148840D01*
X2511160Y-170000D01*
X2553480D01*
X2574640Y-148840D01*
Y-64201D01*
X2553480Y-43041D01*
X12683479Y-758041D02*
X12641160D01*
X12620000Y-779201D01*
Y-863840D01*
X12641160Y-885000D01*
X12683479D01*
X12704639Y-863840D01*
Y-779201D01*
X12683479Y-758041D01*
X12773479D02*
X12731160D01*
X12710000Y-779201D01*
Y-863840D01*
X12731160Y-885000D01*
X12773479D01*
X12794639Y-863840D01*
Y-779201D01*
X12773479Y-758041D01*
X12863480D02*
X12821159D01*
X12800000Y-779201D01*
Y-863840D01*
X12821159Y-885000D01*
X12863480D01*
X12884639Y-863840D01*
Y-779201D01*
X12863480Y-758041D01*
Y-668041D02*
X12821159D01*
X12800000Y-689201D01*
Y-773840D01*
X12821159Y-795000D01*
X12863480D01*
X12884639Y-773840D01*
Y-689201D01*
X12863480Y-668041D01*
X12773479D02*
X12731160D01*
X12710000Y-689201D01*
Y-773840D01*
X12731160Y-795000D01*
X12773479D01*
X12794639Y-773840D01*
Y-689201D01*
X12773479Y-668041D01*
X12683479D02*
X12641160D01*
X12620000Y-689201D01*
Y-773840D01*
X12641160Y-795000D01*
X12683479D01*
X12704639Y-773840D01*
Y-689201D01*
X12683479Y-668041D01*
X15363480Y2586959D02*
X15321159D01*
X15300000Y2565799D01*
Y2481160D01*
X15321159Y2460000D01*
X15363480D01*
X15384639Y2481160D01*
Y2565799D01*
X15363480Y2586959D01*
X13813480Y2606959D02*
X13771159D01*
X13750000Y2585799D01*
Y2501160D01*
X13771159Y2480000D01*
X13813480D01*
X13834639Y2501160D01*
Y2585799D01*
X13813480Y2606959D01*
X14113480Y2936959D02*
X14071159D01*
X14050000Y2915799D01*
Y2831160D01*
X14071159Y2810000D01*
X14113480D01*
X14134639Y2831160D01*
Y2915799D01*
X14113480Y2936959D01*
X13524638Y1976959D02*
X13439999D01*
Y1850000D01*
X13524638D01*
X13439999Y1913480D02*
X13482320D01*
X8281640Y393859D02*
Y266900D01*
X8345119D01*
X8366279Y288060D01*
Y372699D01*
X8345119Y393859D01*
X8281640D01*
X2970000Y-1793041D02*
Y-1920000D01*
X3033479D01*
X3054639Y-1898840D01*
Y-1814201D01*
X3033479Y-1793041D01*
X2970000D01*
X340000Y-943041D02*
Y-1070000D01*
X403480D01*
X424639Y-1048840D01*
Y-964201D01*
X403480Y-943041D01*
X340000D01*
X15230000Y1546959D02*
Y1420000D01*
X15293478D01*
X15314639Y1441160D01*
Y1525799D01*
X15293478Y1546959D01*
X15230000D01*
X13720000Y1676959D02*
Y1550000D01*
X13783479D01*
X13804639Y1571160D01*
Y1655799D01*
X13783479Y1676959D01*
X13720000D01*
X14531310Y1514830D02*
X14573630D01*
X14552469D01*
Y1387871D01*
X14531310D01*
X14573630D01*
X14539999Y1776959D02*
X14582320D01*
X14561160D01*
Y1650000D01*
X14539999D01*
X14582320D01*
X-1407791Y4519459D02*
X-1450111D01*
X-1471271Y4498299D01*
Y4413660D01*
X-1450111Y4392500D01*
X-1407791D01*
X-1386631Y4413660D01*
Y4498299D01*
X-1407791Y4519459D01*
X14669240Y5770479D02*
X14626920D01*
X14605760Y5749319D01*
Y5664680D01*
X14626920Y5643520D01*
X14669240D01*
X14690401Y5664680D01*
Y5749319D01*
X14669240Y5770479D01*
X-1649021Y3351959D02*
X-1691340D01*
X-1712500Y3330799D01*
Y3246160D01*
X-1691340Y3225000D01*
X-1649021D01*
X-1627861Y3246160D01*
Y3330799D01*
X-1649021Y3351959D01*
X-1523821Y3254459D02*
X-1566140D01*
X-1587300Y3233299D01*
Y3148660D01*
X-1566140Y3127500D01*
X-1523821D01*
X-1502661Y3148660D01*
Y3233299D01*
X-1523821Y3254459D01*
X1835560Y8567519D02*
Y8440560D01*
X1899039D01*
X1920199Y8461720D01*
Y8546359D01*
X1899039Y8567519D01*
X1835560D01*
X-919409Y4408660D02*
Y4493299D01*
X-940569Y4514459D01*
X-982888D01*
X-1004048Y4493299D01*
Y4408660D01*
X-982888Y4387500D01*
X-940569D01*
X-961728Y4429820D02*
X-919409Y4387500D01*
X-940569D02*
X-919409Y4408660D01*
X-1124021Y4941959D02*
X-1166340D01*
X-1187500Y4920799D01*
Y4836160D01*
X-1166340Y4815000D01*
X-1124021D01*
X-1102861Y4836160D01*
Y4920799D01*
X-1124021Y4941959D01*
X-1616521Y4931959D02*
X-1658840D01*
X-1680000Y4910799D01*
Y4826160D01*
X-1658840Y4805000D01*
X-1616521D01*
X-1595361Y4826160D01*
Y4910799D01*
X-1616521Y4931959D01*
X-1676521Y4844459D02*
X-1718840D01*
X-1740000Y4823299D01*
Y4738660D01*
X-1718840Y4717500D01*
X-1676521D01*
X-1655361Y4738660D01*
Y4823299D01*
X-1676521Y4844459D01*
X-1409219Y6989346D02*
X-1451539D01*
X-1472699Y6968186D01*
Y6883547D01*
X-1451539Y6862387D01*
X-1409219D01*
X-1388059Y6883547D01*
Y6968186D01*
X-1409219Y6989346D01*
X-1346519Y6989459D02*
X-1388839D01*
X-1409999Y6968299D01*
Y6883660D01*
X-1388839Y6862500D01*
X-1346519D01*
X-1325359Y6883660D01*
Y6968299D01*
X-1346519Y6989459D01*
X15892500Y1296959D02*
Y1170000D01*
X15955980D01*
X15977139Y1191160D01*
Y1275799D01*
X15955980Y1296959D01*
X15892500D01*
X15560001Y2416959D02*
Y2290000D01*
X15623480D01*
X15644640Y2311160D01*
Y2395799D01*
X15623480Y2416959D01*
X15560001D01*
X-1574020Y5539459D02*
X-1616340D01*
X-1637500Y5518299D01*
Y5433660D01*
X-1616340Y5412500D01*
X-1574020D01*
X-1552860Y5433660D01*
Y5518299D01*
X-1574020Y5539459D01*
Y5696959D02*
X-1616340D01*
X-1637500Y5675799D01*
Y5591160D01*
X-1616340Y5570000D01*
X-1574020D01*
X-1552860Y5591160D01*
Y5675799D01*
X-1574020Y5696959D01*
Y5799459D02*
X-1616340D01*
X-1637500Y5778299D01*
Y5693660D01*
X-1616340Y5672500D01*
X-1574020D01*
X-1552860Y5693660D01*
Y5778299D01*
X-1574020Y5799459D01*
Y5479459D02*
X-1616340D01*
X-1637500Y5458299D01*
Y5373660D01*
X-1616340Y5352500D01*
X-1574020D01*
X-1552860Y5373660D01*
Y5458299D01*
X-1574020Y5479459D01*
X759430Y966069D02*
Y839110D01*
X822909D01*
X844069Y860270D01*
Y944909D01*
X822909Y966069D01*
X759430D01*
X-1676521Y5799459D02*
X-1718840D01*
X-1740000Y5778299D01*
Y5693660D01*
X-1718840Y5672500D01*
X-1676521D01*
X-1655361Y5693660D01*
Y5778299D01*
X-1676521Y5799459D01*
Y5696959D02*
X-1718840D01*
X-1740000Y5675799D01*
Y5591160D01*
X-1718840Y5570000D01*
X-1676521D01*
X-1655361Y5591160D01*
Y5675799D01*
X-1676521Y5696959D01*
X-1679021Y5539459D02*
X-1721340D01*
X-1742500Y5518299D01*
Y5433660D01*
X-1721340Y5412500D01*
X-1679021D01*
X-1657861Y5433660D01*
Y5518299D01*
X-1679021Y5539459D01*
X-1676521Y4586959D02*
X-1718840D01*
X-1740000Y4565799D01*
Y4481159D01*
X-1718840Y4460000D01*
X-1676521D01*
X-1655361Y4481159D01*
Y4565799D01*
X-1676521Y4586959D01*
Y4484459D02*
X-1718840D01*
X-1740000Y4463299D01*
Y4378660D01*
X-1718840Y4357500D01*
X-1676521D01*
X-1655361Y4378660D01*
Y4463299D01*
X-1676521Y4484459D01*
X-1679021Y5479459D02*
X-1721340D01*
X-1742500Y5458299D01*
Y5373660D01*
X-1721340Y5352500D01*
X-1679021D01*
X-1657861Y5373660D01*
Y5458299D01*
X-1679021Y5479459D01*
X11935000Y196959D02*
Y70000D01*
X11998479D01*
X12019639Y91160D01*
Y175799D01*
X11998479Y196959D01*
X11935000D01*
X10361900Y9231229D02*
Y9104270D01*
X10425379D01*
X10446539Y9125430D01*
Y9210069D01*
X10425379Y9231229D01*
X10361900D01*
X3910300Y9605879D02*
Y9478920D01*
X3973779D01*
X3994939Y9500080D01*
Y9584719D01*
X3973779Y9605879D01*
X3910300D01*
X7873970Y9675729D02*
Y9548770D01*
X7937449D01*
X7958609Y9569930D01*
Y9654569D01*
X7937449Y9675729D01*
X7873970D01*
X6248370Y9618579D02*
Y9491620D01*
X6311849D01*
X6333009Y9512780D01*
Y9597419D01*
X6311849Y9618579D01*
X6248370D01*
X12125960Y5803859D02*
Y5676900D01*
X12189439D01*
X12210599Y5698060D01*
Y5782699D01*
X12189439Y5803859D01*
X12125960D01*
X14676089Y6061309D02*
Y5934350D01*
X14739569D01*
X14760728Y5955510D01*
Y6040149D01*
X14739569Y6061309D01*
X14676089D01*
X14147771Y3442569D02*
Y3315610D01*
X14211249D01*
X14232410Y3336770D01*
Y3421409D01*
X14211249Y3442569D01*
X14147771D01*
X14030960Y6758899D02*
Y6631940D01*
X14094440D01*
X14115599Y6653100D01*
Y6737739D01*
X14094440Y6758899D01*
X14030960D01*
X14594839Y6441399D02*
Y6314440D01*
X14658319D01*
X14679478Y6335600D01*
Y6420239D01*
X14658319Y6441399D01*
X14594839D01*
X2523490Y8275279D02*
Y8148320D01*
X2586969D01*
X2608129Y8169480D01*
Y8254119D01*
X2586969Y8275279D01*
X2523490D01*
X1112520Y8251149D02*
Y8124190D01*
X1175999D01*
X1197159Y8145350D01*
Y8229989D01*
X1175999Y8251149D01*
X1112520D01*
X15715009Y4504231D02*
Y4377272D01*
X15778488D01*
X15799648Y4398432D01*
Y4483071D01*
X15778488Y4504231D01*
X15715009D01*
X11801381Y6853407D02*
Y6726448D01*
X11864860D01*
X11886020Y6747608D01*
Y6832247D01*
X11864860Y6853407D01*
X11801381D01*
X15506670Y7730089D02*
Y7603130D01*
X15570149D01*
X15591309Y7624290D01*
Y7708929D01*
X15570149Y7730089D01*
X15506670D01*
X11635710Y5736189D02*
Y5609230D01*
X11699189D01*
X11720349Y5630390D01*
Y5715029D01*
X11699189Y5736189D01*
X11635710D01*
X14034740Y3157529D02*
Y3030570D01*
X14098219D01*
X14119379Y3051730D01*
Y3136369D01*
X14098219Y3157529D01*
X14034740D01*
X13481020Y3264769D02*
Y3137810D01*
X13544499D01*
X13565659Y3158970D01*
Y3243609D01*
X13544499Y3264769D01*
X13481020D01*
X6355000Y-173041D02*
Y-300000D01*
X6418479D01*
X6439639Y-278840D01*
Y-194201D01*
X6418479Y-173041D01*
X6355000D01*
X6503640Y-842411D02*
Y-969370D01*
X6567119D01*
X6588279Y-948210D01*
Y-863571D01*
X6567119Y-842411D01*
X6503640D01*
X6052790Y-956711D02*
Y-1083670D01*
X6116269D01*
X6137429Y-1062510D01*
Y-977871D01*
X6116269Y-956711D01*
X6052790D01*
X15060899Y6204819D02*
Y6077860D01*
X15124379D01*
X15145538Y6099020D01*
Y6183659D01*
X15124379Y6204819D01*
X15060899D01*
X13786639Y662539D02*
X13702000D01*
Y599060D01*
X13744321D01*
X13702000D01*
Y535580D01*
X15462219Y324719D02*
Y197760D01*
X15525699D01*
X15546860Y218920D01*
Y303559D01*
X15525699Y324719D01*
X15462219D01*
X1229330Y-1763161D02*
Y-1890120D01*
X1292809D01*
X1313969Y-1868960D01*
Y-1784321D01*
X1292809Y-1763161D01*
X1229330D01*
X-1836450Y1451209D02*
Y1324250D01*
X-1772971D01*
X-1751811Y1345410D01*
Y1430049D01*
X-1772971Y1451209D01*
X-1836450D01*
X3902680Y-879241D02*
Y-1006200D01*
X3966159D01*
X3987319Y-985040D01*
Y-900401D01*
X3966159Y-879241D01*
X3902680D01*
X5623530Y2615799D02*
Y2488840D01*
X5687009D01*
X5708169Y2510000D01*
Y2594639D01*
X5687009Y2615799D01*
X5623530D01*
X8296880Y27539D02*
Y-99420D01*
X8360359D01*
X8381519Y-78260D01*
Y6379D01*
X8360359Y27539D01*
X8296880D01*
X8414990Y1904599D02*
Y1777640D01*
X8478469D01*
X8499629Y1798800D01*
Y1883439D01*
X8478469Y1904599D01*
X8414990D01*
X13661360Y-1231031D02*
Y-1357990D01*
X13724838D01*
X13745999Y-1336830D01*
Y-1252191D01*
X13724838Y-1231031D01*
X13661360D01*
X16374080Y3373989D02*
Y3247030D01*
X16437560D01*
X16458719Y3268190D01*
Y3352829D01*
X16437560Y3373989D01*
X16374080D01*
X13089861Y8909919D02*
Y8782960D01*
X13153339D01*
X13174500Y8804120D01*
Y8888759D01*
X13153339Y8909919D01*
X13089861D01*
X1048990Y9762089D02*
Y9635130D01*
X1112469D01*
X1133629Y9656290D01*
Y9740929D01*
X1112469Y9762089D01*
X1048990D01*
X2604740Y5439009D02*
Y5312050D01*
X2668219D01*
X2689379Y5333210D01*
Y5417849D01*
X2668219Y5439009D01*
X2604740D01*
X1705580Y4304899D02*
Y4177940D01*
X1769059D01*
X1790219Y4199100D01*
Y4283739D01*
X1769059Y4304899D01*
X1705580D01*
X-1750090Y8010759D02*
Y7883800D01*
X-1686611D01*
X-1665451Y7904960D01*
Y7989599D01*
X-1686611Y8010759D01*
X-1750090D01*
X14827220Y5245969D02*
Y5119010D01*
X14890698D01*
X14911859Y5140170D01*
Y5224809D01*
X14890698Y5245969D01*
X14827220D01*
X14415050Y3587929D02*
Y3460970D01*
X14478529D01*
X14499689Y3482129D01*
Y3566769D01*
X14478529Y3587929D01*
X14415050D01*
X15027879Y3180949D02*
Y3053990D01*
X15091359D01*
X15112518Y3075150D01*
Y3159789D01*
X15091359Y3180949D01*
X15027879D01*
X12442949Y76959D02*
Y-50000D01*
X12506429D01*
X12527589Y-28840D01*
Y55799D01*
X12506429Y76959D01*
X12442949D01*
X7783479Y-593041D02*
X7741160D01*
X7720000Y-614201D01*
Y-698840D01*
X7741160Y-720000D01*
X7783479D01*
X7804639Y-698840D01*
Y-614201D01*
X7783479Y-593041D01*
X9404213Y-1159911D02*
Y-1286870D01*
X9467692D01*
X9488852Y-1265710D01*
Y-1181071D01*
X9467692Y-1159911D01*
X9404213D01*
X6685000Y-510541D02*
Y-637500D01*
X6748480D01*
X6769639Y-616340D01*
Y-531701D01*
X6748480Y-510541D01*
X6685000D01*
X7058630Y-1119271D02*
Y-1246230D01*
X7122109D01*
X7143269Y-1225070D01*
Y-1140431D01*
X7122109Y-1119271D01*
X7058630D01*
X7465030Y-322981D02*
Y-449940D01*
X7528509D01*
X7549669Y-428780D01*
Y-344141D01*
X7528509Y-322981D01*
X7465030D01*
X8047960Y-253131D02*
Y-380090D01*
X8111439D01*
X8132599Y-358930D01*
Y-274291D01*
X8111439Y-253131D01*
X8047960D01*
X13324638Y2936959D02*
X13239999D01*
Y2810000D01*
X13324638D01*
X13239999Y2873479D02*
X13282320D01*
X12580000Y2016959D02*
Y1890000D01*
X12643479D01*
X12664639Y1911160D01*
Y1995799D01*
X12643479Y2016959D01*
X12580000D01*
X14720540Y3263499D02*
Y3136540D01*
X14784019D01*
X14805179Y3157700D01*
Y3242339D01*
X14784019Y3263499D01*
X14720540D01*
X14552901Y3262229D02*
Y3135270D01*
X14616379D01*
X14637540Y3156430D01*
Y3241069D01*
X14616379Y3262229D01*
X14552901D01*
X14385260D02*
Y3135270D01*
X14448740D01*
X14469899Y3156430D01*
Y3241069D01*
X14448740Y3262229D01*
X14385260D01*
X14550366Y3092036D02*
Y2965077D01*
X14613846D01*
X14635007Y2986237D01*
Y3070876D01*
X14613846Y3092036D01*
X14550366D01*
X14712920Y3085699D02*
Y2958740D01*
X14776399D01*
X14797559Y2979900D01*
Y3064539D01*
X14776399Y3085699D01*
X14712920D01*
X14710381Y2929489D02*
Y2802530D01*
X14773859D01*
X14795020Y2823690D01*
Y2908329D01*
X14773859Y2929489D01*
X14710381D01*
X14544009Y2928219D02*
Y2801260D01*
X14607489D01*
X14628648Y2822420D01*
Y2907059D01*
X14607489Y2928219D01*
X14544009D01*
X14378909Y2929489D02*
Y2802530D01*
X14442389D01*
X14463548Y2823690D01*
Y2908329D01*
X14442389Y2929489D01*
X14378909D01*
X14380180Y3090779D02*
Y2963820D01*
X14443658D01*
X14464819Y2984980D01*
Y3069619D01*
X14443658Y3090779D01*
X14380180D01*
X14095700Y2276709D02*
Y2149750D01*
X14159180D01*
X14180339Y2170910D01*
Y2255549D01*
X14159180Y2276709D01*
X14095700D01*
X15546040Y3043789D02*
Y2916830D01*
X15609518D01*
X15630679Y2937990D01*
Y3022629D01*
X15609518Y3043789D01*
X15546040D01*
X-1320361Y4403660D02*
Y4488299D01*
X-1341521Y4509459D01*
X-1383840D01*
X-1405000Y4488299D01*
Y4403660D01*
X-1383840Y4382500D01*
X-1341521D01*
X-1362680Y4424820D02*
X-1320361Y4382500D01*
X-1341521D02*
X-1320361Y4403660D01*
X-1281521Y6989459D02*
X-1323840D01*
X-1345000Y6968299D01*
Y6883660D01*
X-1323840Y6862500D01*
X-1281521D01*
X-1260361Y6883660D01*
Y6968299D01*
X-1281521Y6989459D01*
X-1216517D02*
X-1258837D01*
X-1279996Y6968299D01*
Y6883660D01*
X-1258837Y6862500D01*
X-1216517D01*
X-1195357Y6883660D01*
Y6968299D01*
X-1216517Y6989459D01*
X-929020Y7761959D02*
X-971340D01*
X-992500Y7740799D01*
Y7656160D01*
X-971340Y7635000D01*
X-929020D01*
X-907861Y7656160D01*
Y7740799D01*
X-929020Y7761959D01*
X6527500Y-583041D02*
Y-710000D01*
X6590979D01*
X6612139Y-688840D01*
Y-604201D01*
X6590979Y-583041D01*
X6527500D01*
Y-450541D02*
Y-577500D01*
X6590979D01*
X6612139Y-556340D01*
Y-471701D01*
X6590979Y-450541D01*
X6527500D01*
X-1296521Y4401959D02*
X-1338840D01*
X-1360000Y4380799D01*
Y4296160D01*
X-1338840Y4275000D01*
X-1296521D01*
X-1275361Y4296160D01*
Y4380799D01*
X-1296521Y4401959D01*
X-1225361Y4453660D02*
Y4538299D01*
X-1246520Y4559459D01*
X-1288840D01*
X-1310000Y4538299D01*
Y4453660D01*
X-1288840Y4432500D01*
X-1246520D01*
X-1267680Y4474820D02*
X-1225361Y4432500D01*
X-1246520D02*
X-1225361Y4453660D01*
X-959021Y4039459D02*
X-1001340D01*
X-1022500Y4018299D01*
Y3933660D01*
X-1001340Y3912500D01*
X-959021D01*
X-937861Y3933660D01*
Y4018299D01*
X-959021Y4039459D01*
X-1045361Y4003660D02*
Y4088299D01*
X-1066521Y4109459D01*
X-1108840D01*
X-1130000Y4088299D01*
Y4003660D01*
X-1108840Y3982500D01*
X-1066521D01*
X-1087680Y4024820D02*
X-1045361Y3982500D01*
X-1066521D02*
X-1045361Y4003660D01*
X-1536521Y4859459D02*
X-1578840D01*
X-1600000Y4838299D01*
Y4753660D01*
X-1578840Y4732500D01*
X-1536521D01*
X-1515361Y4753660D01*
Y4838299D01*
X-1536521Y4859459D01*
X-635361Y3531160D02*
Y3615799D01*
X-656521Y3636959D01*
X-698840D01*
X-720000Y3615799D01*
Y3531160D01*
X-698840Y3510000D01*
X-656521D01*
X-677680Y3552320D02*
X-635361Y3510000D01*
X-656521D02*
X-635361Y3531160D01*
X-785361Y3351160D02*
Y3435799D01*
X-806521Y3456959D01*
X-848840D01*
X-870000Y3435799D01*
Y3351160D01*
X-848840Y3330000D01*
X-806521D01*
X-827680Y3372320D02*
X-785361Y3330000D01*
X-806521D02*
X-785361Y3351160D01*
X-715361Y3449011D02*
Y3533651D01*
X-736520Y3554811D01*
X-778840D01*
X-800000Y3533651D01*
Y3449011D01*
X-778840Y3427852D01*
X-736520D01*
X-757680Y3470171D02*
X-715361Y3427852D01*
X-736520D02*
X-715361Y3449011D01*
X-731626Y3774895D02*
Y3859534D01*
X-752786Y3880694D01*
X-795105D01*
X-816265Y3859534D01*
Y3774895D01*
X-795105Y3753735D01*
X-752786D01*
X-773945Y3796055D02*
X-731626Y3753735D01*
X-752786D02*
X-731626Y3774895D01*
X5532500Y-118041D02*
Y-245000D01*
X5595979D01*
X5617139Y-223840D01*
Y-139201D01*
X5595979Y-118041D01*
X5532500D01*
X5533021Y215949D02*
Y88990D01*
X5596500D01*
X5617660Y110149D01*
Y194789D01*
X5596500Y215949D01*
X5533021D01*
X5104559Y405949D02*
Y278990D01*
X5168039D01*
X5189199Y300150D01*
Y384789D01*
X5168039Y405949D01*
X5104559D01*
X4940548Y576179D02*
Y449220D01*
X5004028D01*
X5025188Y470380D01*
Y555019D01*
X5004028Y576179D01*
X4940548D01*
X-1174021Y5341959D02*
X-1216340D01*
X-1237500Y5320799D01*
Y5236160D01*
X-1216340Y5215000D01*
X-1174021D01*
X-1152861Y5236160D01*
Y5320799D01*
X-1174021Y5341959D01*
Y5261959D02*
X-1216340D01*
X-1237500Y5240799D01*
Y5156160D01*
X-1216340Y5135000D01*
X-1174021D01*
X-1152861Y5156160D01*
Y5240799D01*
X-1174021Y5261959D01*
Y5105459D02*
X-1216340D01*
X-1237500Y5084299D01*
Y4999660D01*
X-1216340Y4978500D01*
X-1174021D01*
X-1152861Y4999660D01*
Y5084299D01*
X-1174021Y5105459D01*
Y5021959D02*
X-1216340D01*
X-1237500Y5000799D01*
Y4916160D01*
X-1216340Y4895000D01*
X-1174021D01*
X-1152861Y4916160D01*
Y5000799D01*
X-1174021Y5021959D01*
Y5181959D02*
X-1216340D01*
X-1237500Y5160799D01*
Y5076160D01*
X-1216340Y5055000D01*
X-1174021D01*
X-1152861Y5076160D01*
Y5160799D01*
X-1174021Y5181959D01*
X4940300Y-193081D02*
Y-320040D01*
X5003779D01*
X5024939Y-298880D01*
Y-214241D01*
X5003779Y-193081D01*
X4940300D01*
X1410970Y7990799D02*
Y7863840D01*
X1474449D01*
X1495609Y7885000D01*
Y7969639D01*
X1474449Y7990799D01*
X1410970D01*
X391840Y-1151021D02*
Y-1277980D01*
X455320D01*
X476480Y-1256820D01*
Y-1172181D01*
X455320Y-1151021D01*
X391840D01*
X11619200Y5591409D02*
Y5464450D01*
X11682679D01*
X11703839Y5485610D01*
Y5570249D01*
X11682679Y5591409D01*
X11619200D01*
X5099050Y-111801D02*
Y-238760D01*
X5162529D01*
X5183689Y-217600D01*
Y-132961D01*
X5162529Y-111801D01*
X5099050D01*
X11498490Y5861859D02*
Y5734900D01*
X11561970D01*
X11583129Y5756060D01*
Y5840699D01*
X11561970Y5861859D01*
X11498490D01*
X961360Y-521101D02*
Y-648060D01*
X1024839D01*
X1045999Y-626900D01*
Y-542261D01*
X1024839Y-521101D01*
X961360D01*
X11932589Y-233041D02*
X11847949D01*
Y-360000D01*
X11932589D01*
X11847949Y-296521D02*
X11890269D01*
X12872589Y-233041D02*
X12787949D01*
Y-360000D01*
X12872589D01*
X12787949Y-296521D02*
X12830269D01*
X14843730Y6310229D02*
Y6183270D01*
X14907208D01*
X14928369Y6204430D01*
Y6289069D01*
X14907208Y6310229D01*
X14843730D01*
X11186130Y4451109D02*
Y4324150D01*
X11249609D01*
X11270769Y4345310D01*
Y4429949D01*
X11249609Y4451109D01*
X11186130D01*
X15140105Y4483754D02*
Y4356795D01*
X15203584D01*
X15224744Y4377955D01*
Y4462595D01*
X15203584Y4483754D01*
X15140105D01*
X14659579Y6306419D02*
Y6179460D01*
X14723059D01*
X14744218Y6200620D01*
Y6285259D01*
X14723059Y6306419D01*
X14659579D01*
X14307820Y5695909D02*
Y5568950D01*
X14371300D01*
X14392459Y5590110D01*
Y5674749D01*
X14371300Y5695909D01*
X14307820D01*
X2715260Y8057041D02*
Y7930082D01*
X2778739D01*
X2799899Y7951242D01*
Y8035881D01*
X2778739Y8057041D01*
X2715260D01*
X13407359Y4125829D02*
Y3998870D01*
X13470839D01*
X13491998Y4020030D01*
Y4104669D01*
X13470839Y4125829D01*
X13407359D01*
X13966678Y5045827D02*
Y4918868D01*
X14030157D01*
X14051318Y4940028D01*
Y5024667D01*
X14030157Y5045827D01*
X13966678D01*
X13615640Y4741779D02*
Y4614820D01*
X13679118D01*
X13700279Y4635980D01*
Y4720619D01*
X13679118Y4741779D01*
X13615640D01*
X13121609Y7418939D02*
Y7291980D01*
X13185089D01*
X13206248Y7313140D01*
Y7397779D01*
X13185089Y7418939D01*
X13121609D01*
X15469841Y5792882D02*
Y5665923D01*
X15533321D01*
X15554482Y5687083D01*
Y5771722D01*
X15533321Y5792882D01*
X15469841D01*
X14400500Y5151989D02*
Y5025030D01*
X14463979D01*
X14485139Y5046190D01*
Y5130829D01*
X14463979Y5151989D01*
X14400500D01*
X14842461Y4791309D02*
Y4664350D01*
X14905939D01*
X14927100Y4685510D01*
Y4770149D01*
X14905939Y4791309D01*
X14842461D01*
X8315930Y-999891D02*
Y-1126850D01*
X8379409D01*
X8400569Y-1105690D01*
Y-1021051D01*
X8379409Y-999891D01*
X8315930D01*
X6460460Y780649D02*
Y653690D01*
X6523939D01*
X6545099Y674850D01*
Y759489D01*
X6523939Y780649D01*
X6460460D01*
X9303990Y-1152291D02*
Y-1279250D01*
X9367469D01*
X9388629Y-1258090D01*
Y-1173451D01*
X9367469Y-1152291D01*
X9303990D01*
X9047450Y-1420261D02*
Y-1547220D01*
X9110929D01*
X9132089Y-1526060D01*
Y-1441421D01*
X9110929Y-1420261D01*
X9047450D01*
X14467810Y4858619D02*
Y4731660D01*
X14531290D01*
X14552449Y4752820D01*
Y4837459D01*
X14531290Y4858619D01*
X14467810D01*
X7242780Y3182219D02*
Y3055260D01*
X7306259D01*
X7327419Y3076420D01*
Y3161059D01*
X7306259Y3182219D01*
X7242780D01*
D282*
X6700300Y9300200D02*
G03*
X6700300Y9300200I-50800J0D01*
G01*
X6200300D02*
G03*
X6200300Y9300200I-50800J0D01*
G01*
X6700300Y8800200D02*
G03*
X6700300Y8800200I-50800J0D01*
G01*
X6200300D02*
G03*
X6200300Y8800200I-50800J0D01*
G01*
X6450300D02*
G03*
X6450300Y8800200I-50800J0D01*
G01*
X15200089Y6533980D02*
G03*
X15200089Y6533980I-50800J0D01*
G01*
Y6783980D02*
G03*
X15200089Y6783980I-50800J0D01*
G01*
Y7033980D02*
G03*
X15200089Y7033980I-50800J0D01*
G01*
X9697500Y8800230D02*
G03*
X9697500Y8800230I-50800J0D01*
G01*
X9197500D02*
G03*
X9197500Y8800230I-50800J0D01*
G01*
X9447500D02*
G03*
X9447500Y8800230I-50800J0D01*
G01*
X5201700Y8800230D02*
G03*
X5201700Y8800230I-50800J0D01*
G01*
X4701700D02*
G03*
X4701700Y8800230I-50800J0D01*
G01*
X4951700D02*
G03*
X4951700Y8800230I-50800J0D01*
G01*
X8198900Y9300200D02*
G03*
X8198900Y9300200I-50800J0D01*
G01*
X7698900D02*
G03*
X7698900Y9300200I-50800J0D01*
G01*
X8198900Y8800200D02*
G03*
X8198900Y8800200I-50800J0D01*
G01*
X7698900D02*
G03*
X7698900Y8800200I-50800J0D01*
G01*
X7948900D02*
G03*
X7948900Y8800200I-50800J0D01*
G01*
%TF.MD5,3f5ec95bf22657df2864d1b0a97142cf*%
M02*
