%TF.GenerationSoftware,Altium Limited,Altium Designer,25.8.1 (18)*%
G04 Layer_Color=8421504*
%FSLAX45Y45*%
%MOMM*%
%TF.SameCoordinates,916E790F-4380-4A4C-B002-6B38F721AB2E*%
%TF.FilePolarity,Positive*%
%TF.FileFunction,Paste,Top*%
%TF.Part,Single*%
G01*
G75*
%TA.AperFunction,SMDPad,CuDef*%
%ADD10R,1.00000X0.90000*%
%ADD11R,0.80000X0.80000*%
%ADD12R,1.55000X2.40000*%
G36*
X7008800Y2007440D02*
X6802897D01*
X6791237Y2009287D01*
X6780010Y2012935D01*
X6769491Y2018294D01*
X6759941Y2025233D01*
X6751593Y2033581D01*
X6744654Y2043131D01*
X6739294Y2053650D01*
X6735646Y2064878D01*
X6733800Y2076537D01*
Y2088343D01*
X6735646Y2100002D01*
X6739294Y2111230D01*
X6744654Y2121749D01*
X6751593Y2131299D01*
X6759941Y2139647D01*
X6769491Y2146586D01*
X6780010Y2151945D01*
X6791237Y2155593D01*
X6802897Y2157440D01*
X7008800D01*
Y2007440D01*
D02*
G37*
G36*
X7505370Y2155839D02*
X7516759Y2152299D01*
X7527447Y2147003D01*
X7537163Y2140086D01*
X7545665Y2131719D01*
X7552737Y2122115D01*
X7558203Y2111513D01*
X7561925Y2100181D01*
X7563810Y2088404D01*
Y2076476D01*
X7561925Y2064698D01*
X7558203Y2053366D01*
X7552737Y2042765D01*
X7545665Y2033161D01*
X7537163Y2024794D01*
X7527447Y2017877D01*
X7516759Y2012581D01*
X7505370Y2009040D01*
X7493563Y2007344D01*
X7487600Y2007440D01*
X7288800Y2007440D01*
Y2157440D01*
X7487600D01*
X7493563Y2157535D01*
X7505370Y2155839D01*
D02*
G37*
D10*
X5858160Y8456910D02*
D03*
Y8294350D02*
D03*
X5999130Y8456910D02*
D03*
Y8294350D02*
D03*
X6140100Y8456910D02*
D03*
Y8294350D02*
D03*
X6281070Y8456910D02*
D03*
Y8294350D02*
D03*
X6422040Y8456910D02*
D03*
Y8294350D02*
D03*
X6563010Y8456910D02*
D03*
Y8294350D02*
D03*
X6703980Y8456910D02*
D03*
Y8294350D02*
D03*
X6844950Y8456910D02*
D03*
Y8294350D02*
D03*
X6985920Y8456910D02*
D03*
Y8294350D02*
D03*
X7979060Y8431510D02*
D03*
Y8268950D02*
D03*
X8115267Y8431510D02*
D03*
Y8268950D02*
D03*
X8251475Y8431510D02*
D03*
Y8268950D02*
D03*
X8387682Y8431510D02*
D03*
Y8268950D02*
D03*
X8523890Y8431510D02*
D03*
Y8268950D02*
D03*
X8660097Y8431510D02*
D03*
Y8268950D02*
D03*
X8796305Y8431510D02*
D03*
Y8268950D02*
D03*
X8932512Y8431510D02*
D03*
Y8268950D02*
D03*
X9068720Y8431510D02*
D03*
Y8268950D02*
D03*
D11*
X12832027Y7291980D02*
D03*
X12982024D02*
D03*
X313105Y7376000D02*
D03*
X463104D02*
D03*
D12*
X2287662Y7054108D02*
D03*
Y7694109D02*
D03*
X2687662Y7054108D02*
D03*
Y7694109D02*
D03*
%TF.MD5,c9c3bd59b1fcf079f27e4ada9e911af2*%
M02*
