%TF.GenerationSoftware,Altium Limited,Altium Designer,26.5.0 (11)*%
G04 Layer_Color=8388736*
G04 Board_Origin=48523622|48129921*
%FSLAX45Y45*%
%MOMM*%
%TF.SameCoordinates,4A54F1C4-411E-4758-A6F6-B641860D93E9*%
%TF.FilePolarity,Positive*%
%TF.FileFunction,Other,Top_Assembly*%
%TF.Part,Single*%
G01*
G75*
%TA.AperFunction,NonConductor*%
%ADD148C,0.50000*%
%ADD150C,0.10000*%
%ADD151C,0.20000*%
%ADD157C,0.05000*%
%ADD242C,1.00000*%
D148*
X3950016Y1999968D02*
X3900032Y2049951D01*
X3800065D01*
X3750081Y1999968D01*
Y1949984D01*
X3800065Y1900000D01*
X3900032D01*
X3950016Y1850016D01*
Y1800032D01*
X3900032Y1750049D01*
X3800065D01*
X3750081Y1800032D01*
X4199935Y1750049D02*
Y2049951D01*
X4049984Y1900000D01*
X4249919D01*
X10300016Y2019968D02*
X10250032Y2069951D01*
X10150065D01*
X10100081Y2019968D01*
Y1969984D01*
X10150065Y1920000D01*
X10250032D01*
X10300016Y1870016D01*
Y1820032D01*
X10250032Y1770049D01*
X10150065D01*
X10100081Y1820032D01*
X10399984Y2019968D02*
X10449968Y2069951D01*
X10549935D01*
X10599919Y2019968D01*
Y1969984D01*
X10549935Y1920000D01*
X10499951D01*
X10549935D01*
X10599919Y1870016D01*
Y1820032D01*
X10549935Y1770049D01*
X10449968D01*
X10399984Y1820032D01*
D150*
X3410369Y1304640D02*
G03*
X3410369Y1304640I-56569J0D01*
G01*
X11000369Y2504640D02*
G03*
X11000369Y2504640I-56569J0D01*
G01*
X7388800Y2164640D02*
Y2264640D01*
X7338800Y2214640D02*
X7438800D01*
X12867867Y7316972D02*
Y7266988D01*
X12892859D01*
X12901190Y7275319D01*
Y7308641D01*
X12892859Y7316972D01*
X12867867D01*
X12951173D02*
X12917851D01*
Y7291980D01*
X12934512Y7300311D01*
X12942844D01*
X12951173Y7291980D01*
Y7275319D01*
X12942844Y7266988D01*
X12926181D01*
X12917851Y7275319D01*
X7005009Y8416644D02*
X7054992D01*
Y8391653D01*
X7046662Y8383322D01*
X7030000D01*
X7021670Y8391653D01*
Y8416644D01*
Y8399983D02*
X7005009Y8383322D01*
X7046662Y8366661D02*
X7054992Y8358330D01*
Y8341669D01*
X7046662Y8333338D01*
X7038331D01*
X7030000Y8341669D01*
X7021670Y8333338D01*
X7013339D01*
X7005009Y8341669D01*
Y8358330D01*
X7013339Y8366661D01*
X7021670D01*
X7030000Y8358330D01*
X7038331Y8366661D01*
X7046662D01*
X7030000Y8358330D02*
Y8341669D01*
X7046662Y8316677D02*
X7054992Y8308346D01*
Y8291685D01*
X7046662Y8283355D01*
X7013339D01*
X7005009Y8291685D01*
Y8308346D01*
X7013339Y8316677D01*
X7046662D01*
X8215009Y8416644D02*
X8264992D01*
Y8391653D01*
X8256662Y8383322D01*
X8240001D01*
X8231670Y8391653D01*
Y8416644D01*
Y8399983D02*
X8215009Y8383322D01*
X8256662Y8366661D02*
X8264992Y8358330D01*
Y8341669D01*
X8256662Y8333338D01*
X8248331D01*
X8240001Y8341669D01*
X8231670Y8333338D01*
X8223339D01*
X8215009Y8341669D01*
Y8358330D01*
X8223339Y8366661D01*
X8231670D01*
X8240001Y8358330D01*
X8248331Y8366661D01*
X8256662D01*
X8240001Y8358330D02*
Y8341669D01*
X8256662Y8316677D02*
X8264992Y8308346D01*
Y8291685D01*
X8256662Y8283355D01*
X8248331D01*
X8240001Y8291685D01*
X8231670Y8283355D01*
X8223339D01*
X8215009Y8291685D01*
Y8308346D01*
X8223339Y8316677D01*
X8231670D01*
X8240001Y8308346D01*
X8248331Y8316677D01*
X8256662D01*
X8240001Y8308346D02*
Y8291685D01*
X8075009Y8416644D02*
X8124992D01*
Y8391653D01*
X8116662Y8383322D01*
X8100001D01*
X8091670Y8391653D01*
Y8416644D01*
Y8399983D02*
X8075009Y8383322D01*
X8116662Y8366661D02*
X8124992Y8358330D01*
Y8341669D01*
X8116662Y8333338D01*
X8108331D01*
X8100001Y8341669D01*
X8091670Y8333338D01*
X8083339D01*
X8075009Y8341669D01*
Y8358330D01*
X8083339Y8366661D01*
X8091670D01*
X8100001Y8358330D01*
X8108331Y8366661D01*
X8116662D01*
X8100001Y8358330D02*
Y8341669D01*
X8124992Y8316677D02*
Y8283355D01*
X8116662D01*
X8083339Y8316677D01*
X8075009D01*
X6165009Y8416644D02*
X6214992D01*
Y8391653D01*
X6206662Y8383322D01*
X6190001D01*
X6181670Y8391653D01*
Y8416644D01*
Y8399983D02*
X6165009Y8383322D01*
X6214992Y8366661D02*
Y8333338D01*
X6206662D01*
X6173339Y8366661D01*
X6165009D01*
X6173339Y8316677D02*
X6165009Y8308346D01*
Y8291685D01*
X6173339Y8283355D01*
X6206662D01*
X6214992Y8291685D01*
Y8308346D01*
X6206662Y8316677D01*
X6198331D01*
X6190001Y8308346D01*
Y8283355D01*
X8915009Y8416644D02*
X8964992D01*
Y8391653D01*
X8956662Y8383322D01*
X8940000D01*
X8931670Y8391653D01*
Y8416644D01*
Y8399983D02*
X8915009Y8383322D01*
X8956662Y8366661D02*
X8964992Y8358330D01*
Y8341669D01*
X8956662Y8333338D01*
X8948331D01*
X8940000Y8341669D01*
X8931670Y8333338D01*
X8923339D01*
X8915009Y8341669D01*
Y8358330D01*
X8923339Y8366661D01*
X8931670D01*
X8940000Y8358330D01*
X8948331Y8366661D01*
X8956662D01*
X8940000Y8358330D02*
Y8341669D01*
X8964992Y8283355D02*
X8956662Y8300016D01*
X8940000Y8316677D01*
X8923339D01*
X8915009Y8308346D01*
Y8291685D01*
X8923339Y8283355D01*
X8931670D01*
X8940000Y8291685D01*
Y8316677D01*
X6305009Y8416644D02*
X6354992D01*
Y8391653D01*
X6346662Y8383322D01*
X6330001D01*
X6321670Y8391653D01*
Y8416644D01*
Y8399983D02*
X6305009Y8383322D01*
X6354992Y8366661D02*
Y8333338D01*
X6346662D01*
X6313339Y8366661D01*
X6305009D01*
X6346662Y8316677D02*
X6354992Y8308346D01*
Y8291685D01*
X6346662Y8283355D01*
X6338331D01*
X6330001Y8291685D01*
X6321670Y8283355D01*
X6313339D01*
X6305009Y8291685D01*
Y8308346D01*
X6313339Y8316677D01*
X6321670D01*
X6330001Y8308346D01*
X6338331Y8316677D01*
X6346662D01*
X6330001Y8308346D02*
Y8291685D01*
X2836677Y-1773339D02*
X2828346Y-1765008D01*
X2811685D01*
X2803354Y-1773339D01*
Y-1806661D01*
X2811685Y-1814992D01*
X2828346D01*
X2836677Y-1806661D01*
X2886660Y-1765008D02*
X2869999Y-1773339D01*
X2853338Y-1790000D01*
Y-1806661D01*
X2861669Y-1814992D01*
X2878330D01*
X2886660Y-1806661D01*
Y-1798331D01*
X2878330Y-1790000D01*
X2853338D01*
X2903322Y-1773339D02*
X2911652Y-1765008D01*
X2928313D01*
X2936644Y-1773339D01*
Y-1781669D01*
X2928313Y-1790000D01*
X2919983D01*
X2928313D01*
X2936644Y-1798331D01*
Y-1806661D01*
X2928313Y-1814992D01*
X2911652D01*
X2903322Y-1806661D01*
X8355009Y8416644D02*
X8404992D01*
Y8391653D01*
X8396662Y8383322D01*
X8380001D01*
X8371670Y8391653D01*
Y8416644D01*
Y8399983D02*
X8355009Y8383322D01*
X8396662Y8366661D02*
X8404992Y8358330D01*
Y8341669D01*
X8396662Y8333338D01*
X8388331D01*
X8380001Y8341669D01*
X8371670Y8333338D01*
X8363339D01*
X8355009Y8341669D01*
Y8358330D01*
X8363339Y8366661D01*
X8371670D01*
X8380001Y8358330D01*
X8388331Y8366661D01*
X8396662D01*
X8380001Y8358330D02*
Y8341669D01*
X8404992Y8283355D02*
Y8316677D01*
X8380001D01*
X8388331Y8300016D01*
Y8291685D01*
X8380001Y8283355D01*
X8363339D01*
X8355009Y8291685D01*
Y8308346D01*
X8363339Y8316677D01*
X6865009Y8416644D02*
X6914992D01*
Y8391653D01*
X6906662Y8383322D01*
X6890000D01*
X6881670Y8391653D01*
Y8416644D01*
Y8399983D02*
X6865009Y8383322D01*
X6914992Y8366661D02*
Y8333338D01*
X6906662D01*
X6873339Y8366661D01*
X6865009D01*
X6914992Y8316677D02*
Y8283355D01*
X6906662D01*
X6873339Y8316677D01*
X6865009D01*
X6025009Y8416644D02*
X6074992D01*
Y8391653D01*
X6066662Y8383322D01*
X6050000D01*
X6041670Y8391653D01*
Y8416644D01*
Y8399983D02*
X6025009Y8383322D01*
X6074992Y8366661D02*
Y8333338D01*
X6066662D01*
X6033339Y8366661D01*
X6025009D01*
X6074992Y8283355D02*
X6066662Y8300016D01*
X6050000Y8316677D01*
X6033339D01*
X6025009Y8308346D01*
Y8291685D01*
X6033339Y8283355D01*
X6041670D01*
X6050000Y8291685D01*
Y8316677D01*
X7935009Y8416644D02*
X7984992D01*
Y8391653D01*
X7976662Y8383322D01*
X7960001D01*
X7951670Y8391653D01*
Y8416644D01*
Y8399983D02*
X7935009Y8383322D01*
X7976662Y8366661D02*
X7984992Y8358330D01*
Y8341669D01*
X7976662Y8333338D01*
X7968331D01*
X7960001Y8341669D01*
X7951670Y8333338D01*
X7943339D01*
X7935009Y8341669D01*
Y8358330D01*
X7943339Y8366661D01*
X7951670D01*
X7960001Y8358330D01*
X7968331Y8366661D01*
X7976662D01*
X7960001Y8358330D02*
Y8341669D01*
X7935009Y8291685D02*
X7984992D01*
X7960001Y8316677D01*
Y8283355D01*
X348947Y7400992D02*
Y7351008D01*
X373939D01*
X382269Y7359339D01*
Y7392661D01*
X373939Y7400992D01*
X348947D01*
X423922Y7351008D02*
Y7400992D01*
X398931Y7376000D01*
X432253D01*
X6445009Y8416644D02*
X6494992D01*
Y8391653D01*
X6486662Y8383322D01*
X6470001D01*
X6461670Y8391653D01*
Y8416644D01*
Y8399983D02*
X6445009Y8383322D01*
X6494992Y8366661D02*
Y8333338D01*
X6486662D01*
X6453339Y8366661D01*
X6445009D01*
X6494992Y8283355D02*
Y8316677D01*
X6470001D01*
X6478331Y8300016D01*
Y8291685D01*
X6470001Y8283355D01*
X6453339D01*
X6445009Y8291685D01*
Y8308346D01*
X6453339Y8316677D01*
X8775009Y8416644D02*
X8824992D01*
Y8391653D01*
X8816662Y8383322D01*
X8800000D01*
X8791670Y8391653D01*
Y8416644D01*
Y8399983D02*
X8775009Y8383322D01*
X8816662Y8366661D02*
X8824992Y8358330D01*
Y8341669D01*
X8816662Y8333338D01*
X8808331D01*
X8800000Y8341669D01*
X8791670Y8333338D01*
X8783339D01*
X8775009Y8341669D01*
Y8358330D01*
X8783339Y8366661D01*
X8791670D01*
X8800000Y8358330D01*
X8808331Y8366661D01*
X8816662D01*
X8800000Y8358330D02*
Y8341669D01*
X8816662Y8316677D02*
X8824992Y8308346D01*
Y8291685D01*
X8816662Y8283355D01*
X8808331D01*
X8800000Y8291685D01*
Y8300016D01*
Y8291685D01*
X8791670Y8283355D01*
X8783339D01*
X8775009Y8291685D01*
Y8308346D01*
X8783339Y8316677D01*
X6585009Y8408314D02*
X6634992D01*
Y8383322D01*
X6626662Y8374991D01*
X6610000D01*
X6601670Y8383322D01*
Y8408314D01*
Y8391653D02*
X6585009Y8374991D01*
X6593339Y8358330D02*
X6585009Y8349999D01*
Y8333338D01*
X6593339Y8325007D01*
X6626662D01*
X6634992Y8333338D01*
Y8349999D01*
X6626662Y8358330D01*
X6618331D01*
X6610000Y8349999D01*
Y8325007D01*
X6585009Y8308346D02*
Y8291685D01*
Y8300016D01*
X6634992D01*
X6626662Y8308346D01*
X6725009Y8416644D02*
X6774992D01*
Y8391653D01*
X6766662Y8383322D01*
X6750000D01*
X6741670Y8391653D01*
Y8416644D01*
Y8399983D02*
X6725009Y8383322D01*
X6766662Y8366661D02*
X6774992Y8358330D01*
Y8341669D01*
X6766662Y8333338D01*
X6758331D01*
X6750000Y8341669D01*
X6741670Y8333338D01*
X6733339D01*
X6725009Y8341669D01*
Y8358330D01*
X6733339Y8366661D01*
X6741670D01*
X6750000Y8358330D01*
X6758331Y8366661D01*
X6766662D01*
X6750000Y8358330D02*
Y8341669D01*
X6725009Y8283355D02*
Y8316677D01*
X6758331Y8283355D01*
X6766662D01*
X6774992Y8291685D01*
Y8308346D01*
X6766662Y8316677D01*
X8495009Y8416644D02*
X8544992D01*
Y8391653D01*
X8536662Y8383322D01*
X8520000D01*
X8511670Y8391653D01*
Y8416644D01*
Y8399983D02*
X8495009Y8383322D01*
X8503339Y8366661D02*
X8495009Y8358330D01*
Y8341669D01*
X8503339Y8333338D01*
X8536662D01*
X8544992Y8341669D01*
Y8358330D01*
X8536662Y8366661D01*
X8528331D01*
X8520000Y8358330D01*
Y8333338D01*
X8536662Y8316677D02*
X8544992Y8308346D01*
Y8291685D01*
X8536662Y8283355D01*
X8503339D01*
X8495009Y8291685D01*
Y8308346D01*
X8503339Y8316677D01*
X8536662D01*
X8635009Y8416644D02*
X8684992D01*
Y8391653D01*
X8676662Y8383322D01*
X8660000D01*
X8651670Y8391653D01*
Y8416644D01*
Y8399983D02*
X8635009Y8383322D01*
X8643339Y8366661D02*
X8635009Y8358330D01*
Y8341669D01*
X8643339Y8333338D01*
X8676662D01*
X8684992Y8341669D01*
Y8358330D01*
X8676662Y8366661D01*
X8668331D01*
X8660000Y8358330D01*
Y8333338D01*
X8635009Y8283355D02*
Y8316677D01*
X8668331Y8283355D01*
X8676662D01*
X8684992Y8291685D01*
Y8308346D01*
X8676662Y8316677D01*
X5885009Y8408314D02*
X5934992D01*
Y8383322D01*
X5926662Y8374991D01*
X5910000D01*
X5901670Y8383322D01*
Y8408314D01*
Y8391653D02*
X5885009Y8374991D01*
X5926662Y8358330D02*
X5934992Y8349999D01*
Y8333338D01*
X5926662Y8325007D01*
X5918331D01*
X5910000Y8333338D01*
X5901670Y8325007D01*
X5893339D01*
X5885009Y8333338D01*
Y8349999D01*
X5893339Y8358330D01*
X5901670D01*
X5910000Y8349999D01*
X5918331Y8358330D01*
X5926662D01*
X5910000Y8349999D02*
Y8333338D01*
X5885009Y8308346D02*
Y8291685D01*
Y8300016D01*
X5934992D01*
X5926662Y8308346D01*
X7795009Y8416644D02*
X7844992D01*
Y8391653D01*
X7836662Y8383322D01*
X7820001D01*
X7811670Y8391653D01*
Y8416644D01*
Y8399983D02*
X7795009Y8383322D01*
X7836662Y8366661D02*
X7844992Y8358330D01*
Y8341669D01*
X7836662Y8333338D01*
X7828331D01*
X7820001Y8341669D01*
X7811670Y8333338D01*
X7803339D01*
X7795009Y8341669D01*
Y8358330D01*
X7803339Y8366661D01*
X7811670D01*
X7820001Y8358330D01*
X7828331Y8366661D01*
X7836662D01*
X7820001Y8358330D02*
Y8341669D01*
X7803339Y8316677D02*
X7795009Y8308346D01*
Y8291685D01*
X7803339Y8283355D01*
X7836662D01*
X7844992Y8291685D01*
Y8308346D01*
X7836662Y8316677D01*
X7828331D01*
X7820001Y8308346D01*
Y8283355D01*
X7776678Y7586661D02*
X7768347Y7594992D01*
X7751686D01*
X7743355Y7586661D01*
Y7553339D01*
X7751686Y7545008D01*
X7768347D01*
X7776678Y7553339D01*
X7826661Y7594992D02*
X7810000Y7586661D01*
X7793339Y7570000D01*
Y7553339D01*
X7801669Y7545008D01*
X7818331D01*
X7826661Y7553339D01*
Y7561669D01*
X7818331Y7570000D01*
X7793339D01*
X7843322Y7553339D02*
X7851653Y7545008D01*
X7868314D01*
X7876645Y7553339D01*
Y7586661D01*
X7868314Y7594992D01*
X7851653D01*
X7843322Y7586661D01*
Y7578331D01*
X7851653Y7570000D01*
X7876645D01*
D151*
X2468522Y7404912D02*
X2451860Y7421573D01*
X2418538D01*
X2401877Y7404912D01*
Y7388250D01*
X2418538Y7371589D01*
X2451860D01*
X2468522Y7354928D01*
Y7338267D01*
X2451860Y7321605D01*
X2418538D01*
X2401877Y7338267D01*
X2568489Y7421573D02*
X2501844D01*
Y7371589D01*
X2535167Y7388250D01*
X2551828D01*
X2568489Y7371589D01*
Y7338267D01*
X2551828Y7321605D01*
X2518506D01*
X2501844Y7338267D01*
X7032171Y1854656D02*
Y1954624D01*
X7065494Y1921301D01*
X7098816Y1954624D01*
Y1854656D01*
X7132139Y1954624D02*
Y1854656D01*
Y1887979D01*
X7198784Y1954624D01*
X7148800Y1904640D01*
X7198784Y1854656D01*
X7232107D02*
X7265429D01*
X7248768D01*
Y1954624D01*
X7232107Y1937963D01*
D157*
X7633800Y1904640D02*
G03*
X7633800Y1904640I-485000J0D01*
G01*
X12989520Y7251979D02*
Y7331980D01*
X12829520Y7251979D02*
Y7331980D01*
Y7251979D02*
X12989520D01*
X12829520Y7331980D02*
X12989520D01*
X2785183Y7041589D02*
Y7701589D01*
X2185182Y7041589D02*
Y7701589D01*
X2785183D01*
X2185182Y7041589D02*
X2785183D01*
X6990000Y8269999D02*
Y8430000D01*
X7070001Y8269999D02*
Y8430000D01*
X6990000Y8269999D02*
X7070001D01*
X6990000Y8430000D02*
X7070001D01*
X8200000Y8269999D02*
Y8430000D01*
X8280001Y8269999D02*
Y8430000D01*
X8200000Y8269999D02*
X8280001D01*
X8200000Y8430000D02*
X8280001D01*
X3162270Y3875680D02*
Y7482480D01*
X11135336Y3875680D02*
Y7482480D01*
X3162270D02*
X11135336D01*
X3162270Y3875680D02*
X11135336D01*
X8060000Y8269999D02*
Y8430000D01*
X8140001Y8269999D02*
Y8430000D01*
X8060000Y8269999D02*
X8140001D01*
X8060000Y8430000D02*
X8140001D01*
X6150000Y8269999D02*
Y8430000D01*
X6230001Y8269999D02*
Y8430000D01*
X6150000Y8269999D02*
X6230001D01*
X6150000Y8430000D02*
X6230001D01*
X8900000Y8269999D02*
Y8430000D01*
X8980001Y8269999D02*
Y8430000D01*
X8900000Y8269999D02*
X8980001D01*
X8900000Y8430000D02*
X8980001D01*
X6290000Y8269999D02*
Y8430000D01*
X6370001Y8269999D02*
Y8430000D01*
X6290000Y8269999D02*
X6370001D01*
X6290000Y8430000D02*
X6370001D01*
X2950000Y-1830001D02*
Y-1750000D01*
X2789999Y-1830001D02*
Y-1750000D01*
Y-1830001D02*
X2950000D01*
X2789999Y-1750000D02*
X2950000D01*
X8340000Y8269999D02*
Y8430000D01*
X8420001Y8269999D02*
Y8430000D01*
X8340000Y8269999D02*
X8420001D01*
X8340000Y8430000D02*
X8420001D01*
X6850000Y8269999D02*
Y8430000D01*
X6930001Y8269999D02*
Y8430000D01*
X6850000Y8269999D02*
X6930001D01*
X6850000Y8430000D02*
X6930001D01*
X6010000Y8269999D02*
Y8430000D01*
X6090001Y8269999D02*
Y8430000D01*
X6010000Y8269999D02*
X6090001D01*
X6010000Y8430000D02*
X6090001D01*
X7920000Y8269999D02*
Y8430000D01*
X8000001Y8269999D02*
Y8430000D01*
X7920000Y8269999D02*
X8000001D01*
X7920000Y8430000D02*
X8000001D01*
X310600Y7416000D02*
X470600D01*
X310600Y7335999D02*
X470600D01*
X310600D02*
Y7416000D01*
X470600Y7335999D02*
Y7416000D01*
X6430000Y8269999D02*
Y8430000D01*
X6510001Y8269999D02*
Y8430000D01*
X6430000Y8269999D02*
X6510001D01*
X6430000Y8430000D02*
X6510001D01*
X8760000Y8269999D02*
Y8430000D01*
X8840001Y8269999D02*
Y8430000D01*
X8760000Y8269999D02*
X8840001D01*
X8760000Y8430000D02*
X8840001D01*
X6570000Y8269999D02*
Y8430000D01*
X6650001Y8269999D02*
Y8430000D01*
X6570000Y8269999D02*
X6650001D01*
X6570000Y8430000D02*
X6650001D01*
X4740680Y1199602D02*
Y2598296D01*
X3252069Y1199602D02*
Y2598296D01*
X4740680D01*
X3252069Y1199602D02*
X4740680D01*
X9556920Y1210985D02*
Y2609678D01*
X11045531Y1210985D02*
Y2609678D01*
X9556920Y1210985D02*
X11045531D01*
X9556920Y2609678D02*
X11045531D01*
X6710000Y8269999D02*
Y8430000D01*
X6790001Y8269999D02*
Y8430000D01*
X6710000Y8269999D02*
X6790001D01*
X6710000Y8430000D02*
X6790001D01*
X8480000Y8269999D02*
Y8430000D01*
X8560001Y8269999D02*
Y8430000D01*
X8480000Y8269999D02*
X8560001D01*
X8480000Y8430000D02*
X8560001D01*
X8620000Y8269999D02*
Y8430000D01*
X8700001Y8269999D02*
Y8430000D01*
X8620000Y8269999D02*
X8700001D01*
X8620000Y8430000D02*
X8700001D01*
X5870000Y8269999D02*
Y8430000D01*
X5950001Y8269999D02*
Y8430000D01*
X5870000Y8269999D02*
X5950001D01*
X5870000Y8430000D02*
X5950001D01*
X7780000Y8269999D02*
Y8430000D01*
X7860001Y8269999D02*
Y8430000D01*
X7780000Y8269999D02*
X7860001D01*
X7780000Y8430000D02*
X7860001D01*
X7890000Y7529999D02*
Y7610000D01*
X7729999Y7529999D02*
Y7610000D01*
Y7529999D02*
X7890000D01*
X7729999Y7610000D02*
X7890000D01*
D242*
X6470226Y5959903D02*
Y5360097D01*
X6770129D01*
X6870097Y5460065D01*
Y5859936D01*
X6770129Y5959903D01*
X6470226D01*
X7469903Y5859936D02*
X7369935Y5959903D01*
X7170000D01*
X7070032Y5859936D01*
Y5759968D01*
X7170000Y5660000D01*
X7369935D01*
X7469903Y5560033D01*
Y5460065D01*
X7369935Y5360097D01*
X7170000D01*
X7070032Y5460065D01*
X7669838Y5360097D02*
X7869774D01*
X7769806D01*
Y5959903D01*
X7669838Y5859936D01*
%TF.MD5,9683c48af44894f6d996aad080caa218*%
M02*
