%TF.GenerationSoftware,Altium Limited,Altium Designer,26.1.1 (7)*%
G04 Layer_Color=0*
%FSLAX45Y45*%
%MOMM*%
%TF.SameCoordinates,6F9AAC4A-738D-4F70-9579-1CED448E312D*%
%TF.FilePolarity,Positive*%
%TF.FileFunction,NonPlated,1,4,NPTH,Drill*%
%TF.Part,Single*%
G01*
G75*
%TA.AperFunction,ComponentDrill*%
%ADD248O,1.60000X4.00000*%
%ADD249C,3.26390*%
%ADD250C,1.10000*%
%ADD251C,3.20000*%
%ADD252O,2.00000X4.00000*%
%ADD253C,0.99060*%
%TA.AperFunction,OtherDrill,Pad Free-0 (0mm,0mm)*%
%ADD254C,2.50000*%
%TA.AperFunction,OtherDrill,Pad Free-0 (0mm,78mm)*%
%ADD255C,2.50000*%
%TA.AperFunction,OtherDrill,Pad Free-0 (143mm,78mm)*%
%ADD256C,2.50000*%
%TA.AperFunction,OtherDrill,Pad Free-0 (143mm,0mm)*%
%ADD257C,2.50000*%
G36*
X7010250Y1072799D02*
Y2644600D01*
Y2649652D01*
X7014117Y2658988D01*
X7021262Y2666133D01*
X7030597Y2670000D01*
X7035650D01*
D01*
X7264600D01*
X7269652D01*
X7278988Y2666133D01*
X7286133Y2658988D01*
X7290000Y2649652D01*
Y2644600D01*
D01*
Y1072799D01*
Y1067747D01*
X7286133Y1058411D01*
X7278988Y1051266D01*
X7269652Y1047399D01*
X7264600D01*
D01*
X7035650D01*
X7030597D01*
X7021262Y1051266D01*
X7014117Y1058411D01*
X7010250Y1067747D01*
Y1072799D01*
D01*
D02*
G37*
G36*
X3674010Y4293700D02*
X3659000D01*
X3629556Y4299557D01*
X3601821Y4311045D01*
X3576861Y4327723D01*
X3555633Y4348951D01*
X3538955Y4373911D01*
X3527467Y4401647D01*
X3521610Y4431090D01*
Y4446100D01*
X3521610D01*
X3521610Y6909900D01*
Y6924910D01*
X3527467Y6954353D01*
X3538955Y6982088D01*
X3555633Y7007049D01*
X3576861Y7028277D01*
X3601821Y7044955D01*
X3629556Y7056443D01*
X3659000Y7062300D01*
X3674010D01*
Y7062300D01*
X10625990Y7062300D01*
X10641000D01*
X10670443Y7056443D01*
X10698178Y7044955D01*
X10723139Y7028277D01*
X10744366Y7007049D01*
X10761045Y6982088D01*
X10772533Y6954353D01*
X10778390Y6924910D01*
Y6909900D01*
X10778390D01*
Y6430722D01*
X11226116Y6039124D01*
X11238217Y6028541D01*
X11257468Y6002792D01*
X11270923Y5973593D01*
X11277990Y5942230D01*
X11278174Y5926156D01*
X11278175Y5926156D01*
X11283761Y5438221D01*
X11283951Y5421705D01*
X11277244Y5389361D01*
X11263764Y5359204D01*
X11244136Y5332636D01*
X11231704Y5321762D01*
X11231704Y5321762D01*
X10778390Y4925278D01*
X10778390Y4446100D01*
Y4431090D01*
X10772533Y4401647D01*
X10761045Y4373911D01*
X10744366Y4348951D01*
X10723139Y4327723D01*
X10698178Y4311045D01*
X10670443Y4299557D01*
X10641000Y4293700D01*
X10625990D01*
Y4293700D01*
X3674010Y4293700D01*
D02*
G37*
G36*
X3403500Y7068650D02*
X3390366D01*
X3364603Y7073775D01*
X3340335Y7083827D01*
X3318494Y7098420D01*
X3299920Y7116994D01*
X3285327Y7138835D01*
X3275274Y7163103D01*
X3270150Y7188866D01*
Y7202000D01*
Y7215134D01*
X3275274Y7240897D01*
X3285327Y7265165D01*
X3299920Y7287005D01*
X3318494Y7305580D01*
X3340335Y7320173D01*
X3364603Y7330225D01*
X3390366Y7335350D01*
X3403500D01*
X3416634D01*
X3442396Y7330225D01*
X3466665Y7320173D01*
X3488505Y7305580D01*
X3507080Y7287005D01*
X3521673Y7265165D01*
X3531725Y7240897D01*
X3536850Y7215134D01*
Y7202000D01*
Y7188866D01*
X3531725Y7163103D01*
X3521673Y7138835D01*
X3507080Y7116994D01*
X3488505Y7098420D01*
X3466665Y7083827D01*
X3442396Y7073775D01*
X3416634Y7068650D01*
X3403500D01*
D01*
D02*
G37*
G36*
X10763150Y7202000D02*
Y7188866D01*
X10768274Y7163103D01*
X10778327Y7138835D01*
X10792920Y7116994D01*
X10811494Y7098420D01*
X10833335Y7083827D01*
X10857603Y7073775D01*
X10883366Y7068650D01*
X10896500D01*
X10909634D01*
X10935396Y7073775D01*
X10959665Y7083827D01*
X10981505Y7098420D01*
X11000080Y7116994D01*
X11014673Y7138835D01*
X11024725Y7163103D01*
X11029850Y7188866D01*
Y7202000D01*
Y7215134D01*
X11024725Y7240897D01*
X11014673Y7265165D01*
X11000080Y7287005D01*
X10981505Y7305580D01*
X10959665Y7320173D01*
X10935396Y7330225D01*
X10909634Y7335350D01*
X10896500D01*
X10883366D01*
X10857603Y7330225D01*
X10833335Y7320173D01*
X10811494Y7305580D01*
X10792920Y7287005D01*
X10778327Y7265165D01*
X10768274Y7240897D01*
X10763150Y7215134D01*
Y7202000D01*
D01*
D02*
G37*
G36*
Y4154000D02*
Y4140866D01*
X10768274Y4115103D01*
X10778327Y4090835D01*
X10792920Y4068994D01*
X10811494Y4050420D01*
X10833335Y4035827D01*
X10857603Y4025775D01*
X10883366Y4020650D01*
X10896500D01*
X10909634D01*
X10935396Y4025775D01*
X10959665Y4035827D01*
X10981505Y4050420D01*
X11000080Y4068994D01*
X11014673Y4090835D01*
X11024725Y4115103D01*
X11029850Y4140866D01*
Y4154000D01*
Y4167134D01*
X11024725Y4192897D01*
X11014673Y4217165D01*
X11000080Y4239005D01*
X10981505Y4257580D01*
X10959665Y4272173D01*
X10935396Y4282225D01*
X10909634Y4287350D01*
X10896500D01*
X10883366D01*
X10857603Y4282225D01*
X10833335Y4272173D01*
X10811494Y4257580D01*
X10792920Y4239005D01*
X10778327Y4217165D01*
X10768274Y4192897D01*
X10763150Y4167134D01*
Y4154000D01*
D01*
D02*
G37*
G36*
X3403500Y4020650D02*
X3390366D01*
X3364603Y4025775D01*
X3340335Y4035827D01*
X3318494Y4050420D01*
X3299920Y4068994D01*
X3285327Y4090835D01*
X3275274Y4115103D01*
X3270150Y4140866D01*
Y4154000D01*
Y4167134D01*
X3275274Y4192897D01*
X3285327Y4217165D01*
X3299920Y4239005D01*
X3318494Y4257580D01*
X3340335Y4272173D01*
X3364603Y4282225D01*
X3390366Y4287350D01*
X3403500D01*
X3416634D01*
X3442396Y4282225D01*
X3466665Y4272173D01*
X3488505Y4257580D01*
X3507080Y4239005D01*
X3521673Y4217165D01*
X3531725Y4192897D01*
X3536850Y4167134D01*
Y4154000D01*
Y4140866D01*
X3531725Y4115103D01*
X3521673Y4090835D01*
X3507080Y4068994D01*
X3488505Y4050420D01*
X3466665Y4035827D01*
X3442396Y4025775D01*
X3416634Y4020650D01*
X3403500D01*
D01*
D02*
G37*
D248*
X7678100Y9900200D02*
D03*
X8118100D02*
D03*
X6179500D02*
D03*
X6619500D02*
D03*
D249*
X644002Y5015000D02*
D03*
D250*
X13347670Y831490D02*
D03*
X13093671D02*
D03*
D251*
X13350200Y6970179D02*
D03*
X11910200Y6138799D02*
D03*
X13350200Y5307419D02*
D03*
D252*
X8796650Y-2072250D02*
D03*
X9196650D02*
D03*
X7174860D02*
D03*
X7574860D02*
D03*
D253*
X-1840000Y3294300D02*
D03*
Y3497500D02*
D03*
X-1332000Y3395900D02*
D03*
D254*
X0Y0D02*
D03*
D255*
Y7800000D02*
D03*
D256*
X14300000D02*
D03*
D257*
Y0D02*
D03*
%TF.MD5,63a9955dc00fd6fa4f423606e8a16cd0*%
M02*
