%TF.GenerationSoftware,Altium Limited,Altium Designer,26.5.0 (11)*%
G04 Layer_Color=65535*
G04 Board_Origin=48523622|48129921*
%FSLAX45Y45*%
%MOMM*%
%TF.SameCoordinates,4A54F1C4-411E-4758-A6F6-B641860D93E9*%
%TF.FilePolarity,Positive*%
%TF.FileFunction,Legend,Top*%
%TF.Part,Single*%
G01*
G75*
%TA.AperFunction,NonConductor*%
%ADD52C,0.25400*%
%ADD148C,0.50000*%
%ADD149C,0.15000*%
%ADD150C,0.10000*%
%ADD151C,0.20000*%
%ADD152C,0.25000*%
%ADD153R,0.22494X1.25000*%
G36*
X7194975Y3798578D02*
X7196138Y3798472D01*
X7197300Y3798367D01*
X7198673Y3798261D01*
X7201632Y3797838D01*
X7204908Y3797204D01*
X7208183Y3796253D01*
X7211353Y3795091D01*
X7211459D01*
X7211670Y3794880D01*
X7212198Y3794774D01*
X7212727Y3794457D01*
X7213361Y3794034D01*
X7214206Y3793612D01*
X7216002Y3792555D01*
X7218116Y3791076D01*
X7220229Y3789279D01*
X7222237Y3787272D01*
X7224033Y3784842D01*
X7224138Y3784736D01*
X7224244Y3784525D01*
X7224455Y3784208D01*
X7224772Y3783679D01*
X7225089Y3783045D01*
X7225512Y3782306D01*
X7225829Y3781355D01*
X7226357Y3780404D01*
X7227203Y3778185D01*
X7227942Y3775543D01*
X7228576Y3772690D01*
X7228893Y3769520D01*
X7216531Y3768569D01*
Y3768675D01*
X7216425Y3768992D01*
Y3769415D01*
X7216319Y3770049D01*
X7216108Y3770894D01*
X7215897Y3771739D01*
X7215263Y3773747D01*
X7214417Y3775966D01*
X7213149Y3778290D01*
X7211670Y3780509D01*
X7210719Y3781460D01*
X7209662Y3782411D01*
X7209557Y3782517D01*
X7209451Y3782623D01*
X7209029Y3782834D01*
X7208606Y3783151D01*
X7207972Y3783468D01*
X7207232Y3783891D01*
X7206387Y3784313D01*
X7205436Y3784842D01*
X7204274Y3785264D01*
X7203006Y3785687D01*
X7201632Y3786110D01*
X7200153Y3786427D01*
X7198462Y3786744D01*
X7196666Y3786955D01*
X7194764Y3787166D01*
X7191700D01*
X7190854Y3787060D01*
X7189903D01*
X7188847Y3786955D01*
X7187579Y3786849D01*
X7186311Y3786638D01*
X7183458Y3786110D01*
X7180711Y3785370D01*
X7178069Y3784313D01*
X7176801Y3783574D01*
X7175744Y3782834D01*
X7175639D01*
X7175533Y3782623D01*
X7174899Y3782094D01*
X7174054Y3781143D01*
X7173103Y3779875D01*
X7172152Y3778396D01*
X7171306Y3776600D01*
X7170672Y3774698D01*
X7170567Y3773641D01*
X7170461Y3772479D01*
Y3772373D01*
Y3772268D01*
X7170567Y3771634D01*
X7170672Y3770683D01*
X7170884Y3769520D01*
X7171412Y3768147D01*
X7172046Y3766667D01*
X7172891Y3765294D01*
X7174159Y3763920D01*
X7174371Y3763814D01*
X7174582Y3763603D01*
X7175005Y3763286D01*
X7175533Y3762969D01*
X7176167Y3762652D01*
X7177012Y3762229D01*
X7177963Y3761701D01*
X7179126Y3761173D01*
X7180499Y3760644D01*
X7182084Y3760116D01*
X7183880Y3759482D01*
X7185994Y3758848D01*
X7188213Y3758214D01*
X7190749Y3757475D01*
X7193602Y3756841D01*
X7193813D01*
X7194341Y3756735D01*
X7195081Y3756524D01*
X7196138Y3756207D01*
X7197405Y3755995D01*
X7198885Y3755573D01*
X7200470Y3755256D01*
X7202160Y3754727D01*
X7205753Y3753776D01*
X7209345Y3752825D01*
X7211036Y3752297D01*
X7212515Y3751769D01*
X7213995Y3751240D01*
X7215157Y3750712D01*
X7215263D01*
X7215580Y3750501D01*
X7216002Y3750289D01*
X7216531Y3749972D01*
X7217270Y3749655D01*
X7218116Y3749127D01*
X7219912Y3747965D01*
X7222025Y3746591D01*
X7224033Y3744901D01*
X7226040Y3742893D01*
X7226886Y3741836D01*
X7227731Y3740780D01*
Y3740674D01*
X7227942Y3740463D01*
X7228154Y3740146D01*
X7228365Y3739723D01*
X7228682Y3739195D01*
X7228999Y3738455D01*
X7229844Y3736764D01*
X7230584Y3734757D01*
X7231218Y3732432D01*
X7231641Y3729791D01*
X7231852Y3726938D01*
Y3726832D01*
Y3726621D01*
Y3726198D01*
X7231746Y3725670D01*
Y3724930D01*
X7231641Y3724190D01*
X7231324Y3722183D01*
X7230795Y3719964D01*
X7229950Y3717534D01*
X7228788Y3714998D01*
X7228154Y3713624D01*
X7227308Y3712356D01*
Y3712250D01*
X7227097Y3712039D01*
X7226886Y3711722D01*
X7226463Y3711194D01*
X7225512Y3710031D01*
X7224033Y3708446D01*
X7222237Y3706756D01*
X7220018Y3704960D01*
X7217482Y3703269D01*
X7214523Y3701684D01*
X7214417D01*
X7214100Y3701473D01*
X7213678Y3701367D01*
X7213044Y3701050D01*
X7212304Y3700839D01*
X7211353Y3700522D01*
X7210296Y3700099D01*
X7209029Y3699782D01*
X7207761Y3699465D01*
X7206281Y3699042D01*
X7203111Y3698514D01*
X7199624Y3698091D01*
X7195821Y3697880D01*
X7194553D01*
X7193602Y3697986D01*
X7192439D01*
X7191171Y3698091D01*
X7189692Y3698197D01*
X7188001Y3698408D01*
X7184514Y3698831D01*
X7180816Y3699465D01*
X7177118Y3700416D01*
X7173525Y3701684D01*
X7173420D01*
X7173103Y3701895D01*
X7172680Y3702107D01*
X7172046Y3702424D01*
X7171306Y3702846D01*
X7170461Y3703269D01*
X7168454Y3704537D01*
X7166235Y3706122D01*
X7163910Y3708129D01*
X7161585Y3710454D01*
X7159578Y3713201D01*
X7159472Y3713307D01*
X7159366Y3713518D01*
X7159155Y3713941D01*
X7158838Y3714575D01*
X7158415Y3715315D01*
X7157993Y3716160D01*
X7157464Y3717217D01*
X7157042Y3718379D01*
X7156513Y3719541D01*
X7156091Y3720915D01*
X7155246Y3723979D01*
X7154612Y3727255D01*
X7154400Y3729051D01*
X7154295Y3730847D01*
X7166446Y3731904D01*
Y3731798D01*
Y3731587D01*
X7166552Y3731164D01*
X7166657Y3730636D01*
X7166763Y3730002D01*
X7166869Y3729368D01*
X7167291Y3727572D01*
X7167820Y3725670D01*
X7168454Y3723662D01*
X7169299Y3721654D01*
X7170355Y3719753D01*
X7170461Y3719541D01*
X7170989Y3719013D01*
X7171729Y3718168D01*
X7172786Y3717111D01*
X7174159Y3715843D01*
X7175850Y3714681D01*
X7177858Y3713413D01*
X7180182Y3712250D01*
X7180288D01*
X7180499Y3712145D01*
X7180816Y3712039D01*
X7181345Y3711828D01*
X7181979Y3711616D01*
X7182718Y3711299D01*
X7183563Y3711088D01*
X7184514Y3710877D01*
X7186733Y3710348D01*
X7189375Y3709820D01*
X7192122Y3709503D01*
X7195187Y3709397D01*
X7196454D01*
X7197088Y3709503D01*
X7197828D01*
X7199519Y3709714D01*
X7201526Y3709926D01*
X7203745Y3710243D01*
X7205964Y3710771D01*
X7208078Y3711511D01*
X7208183D01*
X7208289Y3711616D01*
X7208606Y3711722D01*
X7209029Y3711933D01*
X7209979Y3712462D01*
X7211247Y3713096D01*
X7212621Y3713941D01*
X7214100Y3714998D01*
X7215368Y3716160D01*
X7216531Y3717534D01*
X7216636Y3717745D01*
X7216953Y3718168D01*
X7217482Y3719013D01*
X7218010Y3720070D01*
X7218433Y3721337D01*
X7218961Y3722711D01*
X7219278Y3724296D01*
X7219384Y3725881D01*
Y3725987D01*
Y3726092D01*
Y3726621D01*
X7219278Y3727572D01*
X7219067Y3728628D01*
X7218750Y3729896D01*
X7218221Y3731270D01*
X7217587Y3732644D01*
X7216636Y3733912D01*
X7216531Y3734017D01*
X7216108Y3734440D01*
X7215474Y3735074D01*
X7214523Y3735919D01*
X7213361Y3736764D01*
X7211776Y3737715D01*
X7209979Y3738666D01*
X7207866Y3739617D01*
X7207655Y3739723D01*
X7207444Y3739829D01*
X7207021Y3739934D01*
X7206598Y3740040D01*
X7205964Y3740251D01*
X7205119Y3740568D01*
X7204274Y3740780D01*
X7203111Y3741097D01*
X7201949Y3741519D01*
X7200470Y3741836D01*
X7198885Y3742259D01*
X7197088Y3742787D01*
X7195187Y3743210D01*
X7192968Y3743844D01*
X7190537Y3744372D01*
X7190432D01*
X7190009Y3744478D01*
X7189269Y3744689D01*
X7188424Y3744901D01*
X7187262Y3745218D01*
X7185994Y3745535D01*
X7184726Y3745957D01*
X7183246Y3746380D01*
X7180077Y3747331D01*
X7177012Y3748387D01*
X7175533Y3748916D01*
X7174159Y3749444D01*
X7172891Y3749972D01*
X7171835Y3750501D01*
X7171729D01*
X7171518Y3750712D01*
X7171201Y3750923D01*
X7170672Y3751135D01*
X7169405Y3751874D01*
X7167925Y3752931D01*
X7166129Y3754305D01*
X7164438Y3755784D01*
X7162748Y3757580D01*
X7161374Y3759482D01*
Y3759588D01*
X7161268Y3759694D01*
X7161057Y3760011D01*
X7160846Y3760433D01*
X7160317Y3761595D01*
X7159683Y3763075D01*
X7159049Y3764871D01*
X7158521Y3766984D01*
X7158098Y3769309D01*
X7157993Y3771739D01*
Y3771845D01*
Y3772056D01*
Y3772479D01*
X7158098Y3773007D01*
Y3773641D01*
X7158204Y3774381D01*
X7158521Y3776283D01*
X7159049Y3778396D01*
X7159683Y3780615D01*
X7160740Y3783045D01*
X7162114Y3785476D01*
Y3785581D01*
X7162325Y3785793D01*
X7162536Y3786110D01*
X7162853Y3786532D01*
X7163910Y3787694D01*
X7165284Y3789174D01*
X7166974Y3790759D01*
X7169088Y3792344D01*
X7171518Y3793929D01*
X7174371Y3795302D01*
X7174476D01*
X7174688Y3795408D01*
X7175216Y3795619D01*
X7175744Y3795831D01*
X7176484Y3796042D01*
X7177435Y3796359D01*
X7178492Y3796676D01*
X7179654Y3796993D01*
X7180922Y3797310D01*
X7182296Y3797627D01*
X7185254Y3798155D01*
X7188635Y3798578D01*
X7192228Y3798684D01*
X7194024D01*
X7194975Y3798578D01*
D02*
G37*
G36*
X6832442D02*
X6833710Y3798472D01*
X6835189Y3798261D01*
X6836774Y3798050D01*
X6838571Y3797733D01*
X6840472Y3797310D01*
X6842480Y3796887D01*
X6844488Y3796253D01*
X6846601Y3795514D01*
X6848714Y3794668D01*
X6850722Y3793612D01*
X6852729Y3792555D01*
X6854631Y3791181D01*
X6854737Y3791076D01*
X6855054Y3790864D01*
X6855582Y3790442D01*
X6856216Y3789808D01*
X6857062Y3789068D01*
X6858013Y3788117D01*
X6858964Y3787060D01*
X6860126Y3785793D01*
X6861288Y3784419D01*
X6862451Y3782834D01*
X6863613Y3781143D01*
X6864670Y3779241D01*
X6865832Y3777234D01*
X6866783Y3775015D01*
X6867734Y3772690D01*
X6868579Y3770260D01*
X6855899Y3767301D01*
Y3767407D01*
X6855688Y3767724D01*
X6855582Y3768358D01*
X6855265Y3769098D01*
X6854948Y3769943D01*
X6854420Y3770894D01*
X6853363Y3773219D01*
X6851990Y3775754D01*
X6850194Y3778396D01*
X6848292Y3780826D01*
X6847129Y3781883D01*
X6845967Y3782834D01*
X6845861Y3782940D01*
X6845650Y3783045D01*
X6845333Y3783257D01*
X6844805Y3783574D01*
X6844171Y3783996D01*
X6843431Y3784419D01*
X6842586Y3784842D01*
X6841529Y3785264D01*
X6840367Y3785687D01*
X6839205Y3786110D01*
X6836457Y3786955D01*
X6833287Y3787483D01*
X6831597Y3787694D01*
X6828744D01*
X6827898Y3787589D01*
X6826947Y3787483D01*
X6825785Y3787377D01*
X6824517Y3787272D01*
X6823249Y3787060D01*
X6820185Y3786321D01*
X6817015Y3785370D01*
X6815430Y3784736D01*
X6813845Y3783996D01*
X6812366Y3783151D01*
X6810887Y3782200D01*
X6810781Y3782094D01*
X6810570Y3781989D01*
X6810147Y3781672D01*
X6809619Y3781249D01*
X6809090Y3780721D01*
X6808351Y3779981D01*
X6807611Y3779241D01*
X6806766Y3778396D01*
X6805920Y3777339D01*
X6804969Y3776283D01*
X6803279Y3773852D01*
X6801694Y3771000D01*
X6800320Y3767724D01*
Y3767618D01*
X6800214Y3767301D01*
X6800003Y3766773D01*
X6799898Y3766139D01*
X6799686Y3765294D01*
X6799369Y3764343D01*
X6799158Y3763180D01*
X6798841Y3762018D01*
X6798524Y3760644D01*
X6798313Y3759165D01*
X6797784Y3755995D01*
X6797467Y3752614D01*
X6797362Y3749021D01*
Y3748916D01*
Y3748493D01*
Y3747859D01*
X6797467Y3746908D01*
Y3745852D01*
X6797573Y3744584D01*
X6797679Y3743210D01*
X6797784Y3741625D01*
X6797996Y3739934D01*
X6798207Y3738244D01*
X6798841Y3734545D01*
X6799792Y3730847D01*
X6800954Y3727255D01*
Y3727149D01*
X6801165Y3726832D01*
X6801377Y3726409D01*
X6801588Y3725775D01*
X6802011Y3724930D01*
X6802539Y3724085D01*
X6803701Y3722077D01*
X6805286Y3719753D01*
X6807188Y3717534D01*
X6809513Y3715315D01*
X6810781Y3714364D01*
X6812155Y3713413D01*
X6812260D01*
X6812472Y3713201D01*
X6812894Y3712990D01*
X6813528Y3712673D01*
X6814268Y3712356D01*
X6815113Y3711933D01*
X6816064Y3711616D01*
X6817121Y3711194D01*
X6819551Y3710348D01*
X6822404Y3709609D01*
X6825468Y3709080D01*
X6827053Y3708975D01*
X6828744Y3708869D01*
X6829800D01*
X6830540Y3708975D01*
X6831491Y3709080D01*
X6832548Y3709186D01*
X6833816Y3709397D01*
X6835084Y3709609D01*
X6838042Y3710348D01*
X6839522Y3710877D01*
X6841106Y3711511D01*
X6842691Y3712250D01*
X6844171Y3713096D01*
X6845650Y3714047D01*
X6847129Y3715103D01*
X6847235Y3715209D01*
X6847446Y3715420D01*
X6847869Y3715737D01*
X6848397Y3716266D01*
X6848926Y3716900D01*
X6849665Y3717745D01*
X6850405Y3718696D01*
X6851250Y3719753D01*
X6852096Y3721020D01*
X6852941Y3722394D01*
X6853786Y3723873D01*
X6854631Y3725564D01*
X6855371Y3727360D01*
X6856111Y3729368D01*
X6856850Y3731481D01*
X6857379Y3733700D01*
X6870270Y3730425D01*
Y3730213D01*
X6870058Y3729685D01*
X6869847Y3728945D01*
X6869424Y3727783D01*
X6869002Y3726515D01*
X6868368Y3724930D01*
X6867734Y3723239D01*
X6866888Y3721443D01*
X6865937Y3719436D01*
X6864881Y3717534D01*
X6863719Y3715420D01*
X6862345Y3713413D01*
X6860866Y3711511D01*
X6859281Y3709609D01*
X6857484Y3707812D01*
X6855582Y3706122D01*
X6855477Y3706016D01*
X6855054Y3705805D01*
X6854526Y3705382D01*
X6853680Y3704854D01*
X6852729Y3704220D01*
X6851462Y3703480D01*
X6850088Y3702741D01*
X6848397Y3702001D01*
X6846601Y3701261D01*
X6844699Y3700522D01*
X6842586Y3699782D01*
X6840261Y3699148D01*
X6837831Y3698620D01*
X6835295Y3698197D01*
X6832653Y3697986D01*
X6829800Y3697880D01*
X6828321D01*
X6827159Y3697986D01*
X6825891Y3698091D01*
X6824306Y3698197D01*
X6822615Y3698408D01*
X6820713Y3698725D01*
X6818706Y3699042D01*
X6816592Y3699465D01*
X6814479Y3699993D01*
X6812366Y3700522D01*
X6810147Y3701261D01*
X6808034Y3702107D01*
X6806026Y3703058D01*
X6804124Y3704220D01*
X6804018Y3704326D01*
X6803701Y3704537D01*
X6803173Y3704854D01*
X6802539Y3705382D01*
X6801694Y3706122D01*
X6800743Y3706862D01*
X6799686Y3707812D01*
X6798524Y3708975D01*
X6797362Y3710243D01*
X6796094Y3711616D01*
X6794931Y3713096D01*
X6793663Y3714786D01*
X6792395Y3716583D01*
X6791233Y3718485D01*
X6790176Y3720598D01*
X6789120Y3722817D01*
X6789014Y3722922D01*
X6788908Y3723345D01*
X6788697Y3724085D01*
X6788380Y3724930D01*
X6787957Y3726092D01*
X6787535Y3727360D01*
X6787112Y3728945D01*
X6786584Y3730636D01*
X6786161Y3732538D01*
X6785633Y3734545D01*
X6785210Y3736659D01*
X6784893Y3738983D01*
X6784259Y3743844D01*
X6784154Y3746380D01*
X6784048Y3748916D01*
Y3749127D01*
Y3749550D01*
Y3750395D01*
X6784154Y3751452D01*
X6784259Y3752825D01*
X6784365Y3754410D01*
X6784576Y3756101D01*
X6784788Y3758003D01*
X6785105Y3760011D01*
X6785422Y3762124D01*
X6786478Y3766667D01*
X6787218Y3768886D01*
X6787957Y3771105D01*
X6788803Y3773430D01*
X6789859Y3775543D01*
X6789965Y3775649D01*
X6790176Y3776071D01*
X6790493Y3776600D01*
X6790916Y3777445D01*
X6791550Y3778396D01*
X6792290Y3779453D01*
X6793135Y3780615D01*
X6794086Y3781989D01*
X6795248Y3783257D01*
X6796411Y3784736D01*
X6797784Y3786110D01*
X6799264Y3787589D01*
X6800848Y3788962D01*
X6802539Y3790336D01*
X6804441Y3791604D01*
X6806343Y3792766D01*
X6806449Y3792872D01*
X6806871Y3792978D01*
X6807400Y3793295D01*
X6808245Y3793717D01*
X6809196Y3794140D01*
X6810464Y3794668D01*
X6811838Y3795197D01*
X6813317Y3795725D01*
X6815007Y3796253D01*
X6816909Y3796782D01*
X6818811Y3797310D01*
X6820925Y3797733D01*
X6825257Y3798472D01*
X6827581Y3798578D01*
X6830012Y3798684D01*
X6831385D01*
X6832442Y3798578D01*
D02*
G37*
G36*
X7547259Y3740674D02*
Y3699465D01*
X7534368D01*
Y3740674D01*
X7496752Y3796993D01*
X7512390D01*
X7531621Y3767513D01*
X7531726Y3767407D01*
X7531832Y3767196D01*
X7532149Y3766668D01*
X7532572Y3766139D01*
X7532994Y3765400D01*
X7533523Y3764449D01*
X7534157Y3763498D01*
X7534896Y3762335D01*
X7536376Y3759905D01*
X7538066Y3757158D01*
X7539862Y3754199D01*
X7541553Y3751135D01*
X7541659Y3751241D01*
X7541764Y3751452D01*
X7541976Y3751875D01*
X7542398Y3752509D01*
X7542821Y3753143D01*
X7543244Y3753988D01*
X7543878Y3755045D01*
X7544512Y3756101D01*
X7545251Y3757264D01*
X7546097Y3758637D01*
X7547893Y3761490D01*
X7550006Y3764766D01*
X7552225Y3768253D01*
X7571139Y3796993D01*
X7586143D01*
X7547259Y3740674D01*
D02*
G37*
G36*
X7496646Y3699465D02*
X7481959D01*
X7470653Y3728946D01*
X7429655Y3728945D01*
X7419089Y3699465D01*
X7405458D01*
X7442757Y3796993D01*
X7456705D01*
X7496646Y3699465D01*
D02*
G37*
G36*
X7352626Y3710982D02*
X7400703D01*
Y3699465D01*
X7339735D01*
Y3796993D01*
X7352626D01*
Y3710982D01*
D02*
G37*
G36*
X7291658Y3796887D02*
X7294088Y3796782D01*
X7296518Y3796570D01*
X7298843Y3796359D01*
X7300005Y3796253D01*
X7300956Y3796042D01*
X7301062D01*
X7301273Y3795936D01*
X7301696D01*
X7302118Y3795831D01*
X7302752Y3795619D01*
X7303492Y3795514D01*
X7305183Y3794985D01*
X7307085Y3794351D01*
X7309092Y3793506D01*
X7311100Y3792555D01*
X7313002Y3791393D01*
X7313108D01*
X7313213Y3791287D01*
X7313847Y3790759D01*
X7314693Y3790019D01*
X7315855Y3788962D01*
X7317017Y3787694D01*
X7318391Y3786004D01*
X7319659Y3784208D01*
X7320821Y3781989D01*
Y3781883D01*
X7320927Y3781672D01*
X7321138Y3781355D01*
X7321349Y3780932D01*
X7321561Y3780404D01*
X7321772Y3779664D01*
X7322406Y3778079D01*
X7322934Y3776071D01*
X7323463Y3773852D01*
X7323780Y3771317D01*
X7323885Y3768675D01*
Y3768569D01*
Y3768147D01*
Y3767513D01*
X7323780Y3766562D01*
X7323674Y3765505D01*
X7323463Y3764343D01*
X7323251Y3762969D01*
X7322934Y3761384D01*
X7322512Y3759799D01*
X7321983Y3758109D01*
X7321349Y3756418D01*
X7320504Y3754622D01*
X7319659Y3752825D01*
X7318602Y3751029D01*
X7317334Y3749338D01*
X7315960Y3747648D01*
X7315855Y3747542D01*
X7315538Y3747331D01*
X7315115Y3746908D01*
X7314376Y3746274D01*
X7313530Y3745640D01*
X7312368Y3744901D01*
X7310994Y3744161D01*
X7309409Y3743421D01*
X7307507Y3742576D01*
X7305500Y3741836D01*
X7303069Y3741097D01*
X7300534Y3740463D01*
X7297575Y3739934D01*
X7294405Y3739512D01*
X7291024Y3739195D01*
X7287220Y3739089D01*
X7262283D01*
Y3699465D01*
X7249392D01*
Y3796993D01*
X7289544D01*
X7291658Y3796887D01*
D02*
G37*
G36*
X7135803Y3699465D02*
X7122912D01*
Y3796993D01*
X7135803D01*
Y3699465D01*
D02*
G37*
G36*
X7059725Y3796887D02*
X7060993D01*
X7062261Y3796782D01*
X7065114Y3796676D01*
X7067967Y3796359D01*
X7070820Y3796042D01*
X7072088Y3795725D01*
X7073250Y3795514D01*
X7073356D01*
X7073673Y3795408D01*
X7074096Y3795302D01*
X7074624Y3795091D01*
X7075364Y3794880D01*
X7076209Y3794668D01*
X7078216Y3793929D01*
X7080435Y3792978D01*
X7082760Y3791815D01*
X7085190Y3790336D01*
X7087515Y3788540D01*
X7087621Y3788434D01*
X7087832Y3788223D01*
X7088255Y3787906D01*
X7088783Y3787377D01*
X7089417Y3786744D01*
X7090157Y3785898D01*
X7091002Y3785053D01*
X7091847Y3783996D01*
X7092798Y3782834D01*
X7093749Y3781566D01*
X7094700Y3780192D01*
X7095651Y3778713D01*
X7097447Y3775437D01*
X7099032Y3771845D01*
Y3771739D01*
X7099244Y3771422D01*
X7099349Y3770788D01*
X7099666Y3770049D01*
X7099983Y3769098D01*
X7100300Y3767935D01*
X7100617Y3766667D01*
X7101040Y3765188D01*
X7101357Y3763497D01*
X7101674Y3761701D01*
X7101991Y3759799D01*
X7102308Y3757792D01*
X7102625Y3755678D01*
X7102731Y3753459D01*
X7102942Y3748704D01*
Y3748599D01*
Y3748176D01*
Y3747648D01*
Y3746803D01*
X7102836Y3745852D01*
Y3744689D01*
X7102731Y3743421D01*
X7102625Y3742048D01*
X7102308Y3738983D01*
X7101780Y3735708D01*
X7101146Y3732327D01*
X7100300Y3728945D01*
Y3728840D01*
X7100195Y3728523D01*
X7099983Y3728100D01*
X7099878Y3727572D01*
X7099561Y3726832D01*
X7099244Y3725987D01*
X7098504Y3723979D01*
X7097553Y3721760D01*
X7096391Y3719330D01*
X7095123Y3717005D01*
X7093643Y3714786D01*
Y3714681D01*
X7093432Y3714575D01*
X7093221Y3714258D01*
X7092904Y3713835D01*
X7092164Y3712884D01*
X7091002Y3711616D01*
X7089734Y3710137D01*
X7088255Y3708658D01*
X7086564Y3707284D01*
X7084768Y3705911D01*
X7084662D01*
X7084556Y3705805D01*
X7083922Y3705382D01*
X7082866Y3704854D01*
X7081492Y3704114D01*
X7079801Y3703375D01*
X7077794Y3702529D01*
X7075469Y3701790D01*
X7073039Y3701050D01*
X7072933D01*
X7072722Y3700944D01*
X7072405D01*
X7071877Y3700839D01*
X7071243Y3700733D01*
X7070397Y3700522D01*
X7069552Y3700416D01*
X7068601Y3700310D01*
X7066276Y3699993D01*
X7063635Y3699676D01*
X7060676Y3699571D01*
X7057506Y3699465D01*
X7022320D01*
Y3796993D01*
X7058669D01*
X7059725Y3796887D01*
D02*
G37*
G36*
X6923524D02*
X6924792D01*
X6926060Y3796782D01*
X6928913Y3796676D01*
X6931766Y3796359D01*
X6934619Y3796042D01*
X6935887Y3795725D01*
X6937049Y3795514D01*
X6937155D01*
X6937472Y3795408D01*
X6937895Y3795302D01*
X6938423Y3795091D01*
X6939163Y3794880D01*
X6940008Y3794668D01*
X6942016Y3793929D01*
X6944235Y3792978D01*
X6946559Y3791815D01*
X6948989Y3790336D01*
X6951314Y3788540D01*
X6951420Y3788434D01*
X6951631Y3788223D01*
X6952054Y3787906D01*
X6952582Y3787377D01*
X6953216Y3786744D01*
X6953956Y3785898D01*
X6954801Y3785053D01*
X6955646Y3783996D01*
X6956597Y3782834D01*
X6957548Y3781566D01*
X6958499Y3780192D01*
X6959450Y3778713D01*
X6961246Y3775437D01*
X6962831Y3771845D01*
Y3771739D01*
X6963043Y3771422D01*
X6963148Y3770788D01*
X6963465Y3770049D01*
X6963782Y3769098D01*
X6964099Y3767935D01*
X6964416Y3766667D01*
X6964839Y3765188D01*
X6965156Y3763497D01*
X6965473Y3761701D01*
X6965790Y3759799D01*
X6966107Y3757792D01*
X6966424Y3755678D01*
X6966530Y3753459D01*
X6966741Y3748704D01*
Y3748599D01*
Y3748176D01*
Y3747648D01*
Y3746803D01*
X6966635Y3745852D01*
Y3744689D01*
X6966530Y3743421D01*
X6966424Y3742048D01*
X6966107Y3738983D01*
X6965579Y3735708D01*
X6964945Y3732327D01*
X6964099Y3728945D01*
Y3728840D01*
X6963994Y3728523D01*
X6963782Y3728100D01*
X6963677Y3727572D01*
X6963360Y3726832D01*
X6963043Y3725987D01*
X6962303Y3723979D01*
X6961352Y3721760D01*
X6960190Y3719330D01*
X6958922Y3717005D01*
X6957443Y3714786D01*
Y3714681D01*
X6957231Y3714575D01*
X6957020Y3714258D01*
X6956703Y3713835D01*
X6955963Y3712884D01*
X6954801Y3711616D01*
X6953533Y3710137D01*
X6952054Y3708658D01*
X6950363Y3707284D01*
X6948567Y3705911D01*
X6948461D01*
X6948355Y3705805D01*
X6947721Y3705382D01*
X6946665Y3704854D01*
X6945291Y3704114D01*
X6943601Y3703375D01*
X6941593Y3702529D01*
X6939268Y3701790D01*
X6936838Y3701050D01*
X6936732D01*
X6936521Y3700944D01*
X6936204D01*
X6935676Y3700839D01*
X6935042Y3700733D01*
X6934196Y3700522D01*
X6933351Y3700416D01*
X6932400Y3700310D01*
X6930076Y3699993D01*
X6927434Y3699676D01*
X6924475Y3699571D01*
X6921305Y3699465D01*
X6886119D01*
Y3796993D01*
X6922468D01*
X6923524Y3796887D01*
D02*
G37*
G36*
X6724348Y3710982D02*
X6772425D01*
Y3699465D01*
X6711457D01*
Y3796993D01*
X6724348D01*
Y3710982D01*
D02*
G37*
%LPC*%
G36*
X7449414Y3786849D02*
Y3786744D01*
X7449308Y3786427D01*
X7449203Y3785898D01*
X7449097Y3785264D01*
X7448886Y3784313D01*
X7448674Y3783363D01*
X7448357Y3782200D01*
X7448040Y3780932D01*
X7447723Y3779559D01*
X7447301Y3778079D01*
X7446350Y3774909D01*
X7445293Y3771528D01*
X7444131Y3768041D01*
X7433353Y3739406D01*
X7466637Y3739406D01*
X7456388Y3766456D01*
Y3766562D01*
X7456177Y3766985D01*
X7455965Y3767619D01*
X7455648Y3768570D01*
X7455226Y3769521D01*
X7454803Y3770788D01*
X7454275Y3772162D01*
X7453746Y3773641D01*
X7452690Y3776917D01*
X7451527Y3780298D01*
X7450365Y3783680D01*
X7449414Y3786849D01*
D02*
G37*
G36*
X7290284Y3785476D02*
X7262283D01*
Y3750606D01*
X7288594D01*
X7289439Y3750712D01*
X7290495D01*
X7291658Y3750818D01*
X7293031Y3751029D01*
X7294405Y3751240D01*
X7297364Y3751769D01*
X7300322Y3752614D01*
X7301696Y3753142D01*
X7302964Y3753776D01*
X7304232Y3754410D01*
X7305288Y3755256D01*
X7305394Y3755361D01*
X7305500Y3755467D01*
X7305817Y3755784D01*
X7306134Y3756101D01*
X7306979Y3757158D01*
X7307930Y3758637D01*
X7308881Y3760539D01*
X7309726Y3762758D01*
X7310360Y3765399D01*
X7310466Y3766773D01*
X7310572Y3768358D01*
Y3768464D01*
Y3768675D01*
Y3768992D01*
Y3769415D01*
X7310360Y3770577D01*
X7310149Y3771951D01*
X7309832Y3773641D01*
X7309198Y3775332D01*
X7308458Y3777128D01*
X7307402Y3778819D01*
X7307296Y3779030D01*
X7306873Y3779558D01*
X7306134Y3780298D01*
X7305288Y3781143D01*
X7304020Y3782094D01*
X7302647Y3783045D01*
X7301062Y3783891D01*
X7299266Y3784525D01*
X7299160D01*
X7298632Y3784630D01*
X7297786Y3784842D01*
X7296518Y3785053D01*
X7295779D01*
X7294933Y3785159D01*
X7293877Y3785264D01*
X7292820Y3785370D01*
X7291552D01*
X7290284Y3785476D01*
D02*
G37*
G36*
X7057718D02*
X7035211D01*
Y3710982D01*
X7057612D01*
X7058457Y3711088D01*
X7059408D01*
X7061522Y3711194D01*
X7063952Y3711405D01*
X7066488Y3711722D01*
X7068918Y3712145D01*
X7071137Y3712673D01*
X7071243D01*
X7071348Y3712779D01*
X7071665Y3712884D01*
X7072088Y3712990D01*
X7073039Y3713413D01*
X7074307Y3713941D01*
X7075681Y3714681D01*
X7077160Y3715526D01*
X7078639Y3716583D01*
X7079907Y3717745D01*
X7080013Y3717851D01*
X7080118Y3717956D01*
X7080647Y3718590D01*
X7081492Y3719647D01*
X7082549Y3721020D01*
X7083605Y3722817D01*
X7084768Y3724930D01*
X7085930Y3727360D01*
X7086987Y3730108D01*
Y3730213D01*
X7087092Y3730425D01*
X7087198Y3730847D01*
X7087409Y3731481D01*
X7087621Y3732221D01*
X7087832Y3733172D01*
X7088043Y3734228D01*
X7088360Y3735391D01*
X7088572Y3736659D01*
X7088783Y3738138D01*
X7088994Y3739617D01*
X7089206Y3741308D01*
X7089523Y3744901D01*
X7089628Y3748916D01*
Y3749127D01*
Y3749550D01*
Y3750395D01*
X7089523Y3751452D01*
Y3752720D01*
X7089417Y3754199D01*
X7089206Y3755784D01*
X7088994Y3757580D01*
X7088360Y3761384D01*
X7087515Y3765294D01*
X7086247Y3768992D01*
X7085402Y3770788D01*
X7084556Y3772373D01*
X7084451Y3772479D01*
X7084345Y3772690D01*
X7084028Y3773113D01*
X7083605Y3773747D01*
X7083183Y3774381D01*
X7082549Y3775120D01*
X7081175Y3776811D01*
X7079379Y3778713D01*
X7077265Y3780509D01*
X7074941Y3782200D01*
X7073673Y3782834D01*
X7072299Y3783468D01*
X7072194D01*
X7072088Y3783574D01*
X7071771Y3783679D01*
X7071348Y3783785D01*
X7070714Y3783891D01*
X7070080Y3784102D01*
X7069235Y3784313D01*
X7068284Y3784525D01*
X7067227Y3784630D01*
X7065959Y3784842D01*
X7064586Y3785053D01*
X7063107Y3785159D01*
X7061416Y3785264D01*
X7059620Y3785370D01*
X7057718Y3785476D01*
D02*
G37*
G36*
X6921517D02*
X6899010D01*
Y3710982D01*
X6921411D01*
X6922256Y3711088D01*
X6923207D01*
X6925321Y3711194D01*
X6927751Y3711405D01*
X6930287Y3711722D01*
X6932717Y3712145D01*
X6934936Y3712673D01*
X6935042D01*
X6935147Y3712779D01*
X6935464Y3712884D01*
X6935887Y3712990D01*
X6936838Y3713413D01*
X6938106Y3713941D01*
X6939480Y3714681D01*
X6940959Y3715526D01*
X6942438Y3716583D01*
X6943706Y3717745D01*
X6943812Y3717851D01*
X6943918Y3717956D01*
X6944446Y3718590D01*
X6945291Y3719647D01*
X6946348Y3721020D01*
X6947404Y3722817D01*
X6948567Y3724930D01*
X6949729Y3727360D01*
X6950786Y3730108D01*
Y3730213D01*
X6950891Y3730425D01*
X6950997Y3730847D01*
X6951208Y3731481D01*
X6951420Y3732221D01*
X6951631Y3733172D01*
X6951842Y3734228D01*
X6952159Y3735391D01*
X6952371Y3736659D01*
X6952582Y3738138D01*
X6952793Y3739617D01*
X6953005Y3741308D01*
X6953322Y3744901D01*
X6953427Y3748916D01*
Y3749127D01*
Y3749550D01*
Y3750395D01*
X6953322Y3751452D01*
Y3752720D01*
X6953216Y3754199D01*
X6953005Y3755784D01*
X6952793Y3757580D01*
X6952159Y3761384D01*
X6951314Y3765294D01*
X6950046Y3768992D01*
X6949201Y3770788D01*
X6948355Y3772373D01*
X6948250Y3772479D01*
X6948144Y3772690D01*
X6947827Y3773113D01*
X6947404Y3773747D01*
X6946982Y3774381D01*
X6946348Y3775120D01*
X6944974Y3776811D01*
X6943178Y3778713D01*
X6941065Y3780509D01*
X6938740Y3782200D01*
X6937472Y3782834D01*
X6936098Y3783468D01*
X6935993D01*
X6935887Y3783574D01*
X6935570Y3783679D01*
X6935147Y3783785D01*
X6934513Y3783891D01*
X6933879Y3784102D01*
X6933034Y3784313D01*
X6932083Y3784525D01*
X6931027Y3784630D01*
X6929759Y3784842D01*
X6928385Y3785053D01*
X6926906Y3785159D01*
X6925215Y3785264D01*
X6923419Y3785370D01*
X6921517Y3785476D01*
D02*
G37*
%LPD*%
D52*
X3159730Y3875680D02*
Y7482480D01*
X11135330Y3875680D02*
Y7482480D01*
X3159730D02*
X11135330D01*
X3159730Y3875680D02*
X11135330D01*
X12474520Y5429080D02*
X13347020D01*
X12474520Y5926580D02*
X13347020D01*
Y5429080D02*
Y5926580D01*
X12474520Y5429080D02*
Y5926580D01*
X12796449Y6557899D02*
X12946400D01*
X12896416D01*
X12796449Y6657867D01*
X12871425Y6582891D01*
X12946400Y6657867D01*
D148*
X14108450Y6138799D02*
G03*
X14108450Y6138799I-1238250J0D01*
G01*
X13470274D02*
G03*
X13470274Y6138799I-600075J0D01*
G01*
X13510201Y6970179D02*
G03*
X13510201Y6970179I-160000J0D01*
G01*
Y5307419D02*
G03*
X13510201Y5307419I-160000J0D01*
G01*
X12070200Y6138799D02*
G03*
X12070200Y6138799I-160000J0D01*
G01*
D149*
X7658800Y1904640D02*
G03*
X7658800Y1904640I-510000J0D01*
G01*
X2385183Y7721589D02*
X2585183D01*
X2385183Y7021589D02*
X2585183D01*
X2165183Y7721589D02*
X2185183D01*
X2165183Y7021589D02*
X2185183D01*
X2165183D02*
Y7721589D01*
X2785183D02*
X2805183D01*
X2785183Y7021589D02*
X2805183D01*
Y7721589D01*
X6966500Y8324600D02*
Y8375400D01*
X7093500Y8324600D02*
Y8375400D01*
X8176500Y8324600D02*
Y8375400D01*
X8303500Y8324600D02*
Y8375400D01*
X8036500Y8324600D02*
Y8375400D01*
X8163500Y8324600D02*
Y8375400D01*
X6126500Y8324600D02*
Y8375400D01*
X6253500Y8324600D02*
Y8375400D01*
X8876500Y8324600D02*
Y8375400D01*
X9003500Y8324600D02*
Y8375400D01*
X6266500Y8324600D02*
Y8375400D01*
X6393500Y8324600D02*
Y8375400D01*
X2850000Y-1850000D02*
X2890000D01*
X2850000Y-1730000D02*
X2890000D01*
X8316500Y8324600D02*
Y8375400D01*
X8443500Y8324600D02*
Y8375400D01*
X6826500Y8324600D02*
Y8375400D01*
X6953500Y8324600D02*
Y8375400D01*
X5986500Y8324600D02*
Y8375400D01*
X6113500Y8324600D02*
Y8375400D01*
X7896500Y8324600D02*
Y8375400D01*
X8023500Y8324600D02*
Y8375400D01*
X6406500Y8324600D02*
Y8375400D01*
X6533500Y8324600D02*
Y8375400D01*
X8736500Y8324600D02*
Y8375400D01*
X8863500Y8324600D02*
Y8375400D01*
X6546500Y8324600D02*
Y8375400D01*
X6673500Y8324600D02*
Y8375400D01*
X4828800Y1179640D02*
Y2629640D01*
X3168800Y1179640D02*
Y2629640D01*
X4828800D01*
X3168800Y1179640D02*
X4828800D01*
X9468800Y1179640D02*
Y2629640D01*
X11128800Y1179640D02*
Y2629640D01*
X9468800Y1179640D02*
X11128800D01*
X9468800Y2629640D02*
X11128800D01*
X6686500Y8324600D02*
Y8375400D01*
X6813500Y8324600D02*
Y8375400D01*
X8456500Y8324600D02*
Y8375400D01*
X8583500Y8324600D02*
Y8375400D01*
X8596500Y8324600D02*
Y8375400D01*
X8723500Y8324600D02*
Y8375400D01*
X5846500Y8324600D02*
Y8375400D01*
X5973500Y8324600D02*
Y8375400D01*
X7756500Y8324600D02*
Y8375400D01*
X7883500Y8324600D02*
Y8375400D01*
X7790000Y7510000D02*
X7830000D01*
X7790000Y7630000D02*
X7830000D01*
X7731772Y7762155D02*
X7720109Y7773818D01*
X7696783D01*
X7685120Y7762155D01*
Y7715503D01*
X7696783Y7703840D01*
X7720109D01*
X7731772Y7715503D01*
X7801749Y7773818D02*
X7778423Y7762155D01*
X7755098Y7738829D01*
Y7715503D01*
X7766760Y7703840D01*
X7790086D01*
X7801749Y7715503D01*
Y7727166D01*
X7790086Y7738829D01*
X7755098D01*
X7825075Y7715503D02*
X7836738Y7703840D01*
X7860064D01*
X7871727Y7715503D01*
Y7762155D01*
X7860064Y7773818D01*
X7836738D01*
X7825075Y7762155D01*
Y7750492D01*
X7836738Y7738829D01*
X7871727D01*
X8635011Y8075000D02*
X8704989D01*
Y8040011D01*
X8693326Y8028348D01*
X8670000D01*
X8658337Y8040011D01*
Y8075000D01*
Y8051674D02*
X8635011Y8028348D01*
X8646674Y8005022D02*
X8635011Y7993359D01*
Y7970034D01*
X8646674Y7958371D01*
X8693326D01*
X8704989Y7970034D01*
Y7993359D01*
X8693326Y8005022D01*
X8681663D01*
X8670000Y7993359D01*
Y7958371D01*
X8635011Y7888393D02*
Y7935045D01*
X8681663Y7888393D01*
X8693326D01*
X8704989Y7900056D01*
Y7923382D01*
X8693326Y7935045D01*
X6580441Y8075000D02*
X6650419D01*
Y8040011D01*
X6638756Y8028348D01*
X6615430D01*
X6603767Y8040011D01*
Y8075000D01*
Y8051674D02*
X6580441Y8028348D01*
X6592104Y8005022D02*
X6580441Y7993359D01*
Y7970034D01*
X6592104Y7958371D01*
X6638756D01*
X6650419Y7970034D01*
Y7993359D01*
X6638756Y8005022D01*
X6627093D01*
X6615430Y7993359D01*
Y7958371D01*
X6580441Y7935045D02*
Y7911719D01*
Y7923382D01*
X6650419D01*
X6638756Y7935045D01*
X8485011Y8075000D02*
X8554988D01*
Y8040011D01*
X8543326Y8028348D01*
X8520000D01*
X8508337Y8040011D01*
Y8075000D01*
Y8051674D02*
X8485011Y8028348D01*
X8496674Y8005023D02*
X8485011Y7993360D01*
Y7970034D01*
X8496674Y7958371D01*
X8543326D01*
X8554988Y7970034D01*
Y7993360D01*
X8543326Y8005023D01*
X8531663D01*
X8520000Y7993360D01*
Y7958371D01*
X8543326Y7935045D02*
X8554988Y7923382D01*
Y7900056D01*
X8543326Y7888393D01*
X8496674D01*
X8485011Y7900056D01*
Y7923382D01*
X8496674Y7935045D01*
X8543326D01*
X7785011Y8075000D02*
X7854989D01*
Y8040011D01*
X7843326Y8028348D01*
X7820000D01*
X7808337Y8040011D01*
Y8075000D01*
Y8051674D02*
X7785011Y8028348D01*
X7843326Y8005022D02*
X7854989Y7993359D01*
Y7970034D01*
X7843326Y7958371D01*
X7831663D01*
X7820000Y7970034D01*
X7808337Y7958371D01*
X7796674D01*
X7785011Y7970034D01*
Y7993359D01*
X7796674Y8005022D01*
X7808337D01*
X7820000Y7993359D01*
X7831663Y8005022D01*
X7843326D01*
X7820000Y7993359D02*
Y7970034D01*
X7796674Y7935045D02*
X7785011Y7923382D01*
Y7900056D01*
X7796674Y7888393D01*
X7843326D01*
X7854989Y7900056D01*
Y7923382D01*
X7843326Y7935045D01*
X7831663D01*
X7820000Y7923382D01*
Y7888393D01*
X8205011Y8075000D02*
X8274989D01*
Y8040011D01*
X8263326Y8028348D01*
X8240000D01*
X8228337Y8040011D01*
Y8075000D01*
Y8051674D02*
X8205011Y8028348D01*
X8263326Y8005023D02*
X8274989Y7993360D01*
Y7970034D01*
X8263326Y7958371D01*
X8251663D01*
X8240000Y7970034D01*
X8228337Y7958371D01*
X8216674D01*
X8205011Y7970034D01*
Y7993360D01*
X8216674Y8005023D01*
X8228337D01*
X8240000Y7993360D01*
X8251663Y8005023D01*
X8263326D01*
X8240000Y7993360D02*
Y7970034D01*
X8263326Y7935045D02*
X8274989Y7923382D01*
Y7900056D01*
X8263326Y7888393D01*
X8251663D01*
X8240000Y7900056D01*
X8228337Y7888393D01*
X8216674D01*
X8205011Y7900056D01*
Y7923382D01*
X8216674Y7935045D01*
X8228337D01*
X8240000Y7923382D01*
X8251663Y7935045D01*
X8263326D01*
X8240000Y7923382D02*
Y7900056D01*
X8065011Y8075000D02*
X8134989D01*
Y8040011D01*
X8123326Y8028348D01*
X8100000D01*
X8088337Y8040011D01*
Y8075000D01*
Y8051674D02*
X8065011Y8028348D01*
X8123326Y8005022D02*
X8134989Y7993359D01*
Y7970034D01*
X8123326Y7958371D01*
X8111663D01*
X8100000Y7970034D01*
X8088337Y7958371D01*
X8076674D01*
X8065011Y7970034D01*
Y7993359D01*
X8076674Y8005022D01*
X8088337D01*
X8100000Y7993359D01*
X8111663Y8005022D01*
X8123326D01*
X8100000Y7993359D02*
Y7970034D01*
X8134989Y7935045D02*
Y7888393D01*
X8123326D01*
X8076674Y7935045D01*
X8065011D01*
X8915011Y8075000D02*
X8984989D01*
Y8040011D01*
X8973326Y8028348D01*
X8950000D01*
X8938337Y8040011D01*
Y8075000D01*
Y8051674D02*
X8915011Y8028348D01*
X8973326Y8005022D02*
X8984989Y7993359D01*
Y7970034D01*
X8973326Y7958371D01*
X8961663D01*
X8950000Y7970034D01*
X8938337Y7958371D01*
X8926674D01*
X8915011Y7970034D01*
Y7993359D01*
X8926674Y8005022D01*
X8938337D01*
X8950000Y7993359D01*
X8961663Y8005022D01*
X8973326D01*
X8950000Y7993359D02*
Y7970034D01*
X8984989Y7888393D02*
X8973326Y7911719D01*
X8950000Y7935045D01*
X8926674D01*
X8915011Y7923382D01*
Y7900056D01*
X8926674Y7888393D01*
X8938337D01*
X8950000Y7900056D01*
Y7935045D01*
X8345011Y8075000D02*
X8414989D01*
Y8040011D01*
X8403326Y8028348D01*
X8380000D01*
X8368337Y8040011D01*
Y8075000D01*
Y8051674D02*
X8345011Y8028348D01*
X8403326Y8005022D02*
X8414989Y7993359D01*
Y7970034D01*
X8403326Y7958371D01*
X8391663D01*
X8380000Y7970034D01*
X8368337Y7958371D01*
X8356674D01*
X8345011Y7970034D01*
Y7993359D01*
X8356674Y8005022D01*
X8368337D01*
X8380000Y7993359D01*
X8391663Y8005022D01*
X8403326D01*
X8380000Y7993359D02*
Y7970034D01*
X8414989Y7888393D02*
Y7935045D01*
X8380000D01*
X8391663Y7911719D01*
Y7900056D01*
X8380000Y7888393D01*
X8356674D01*
X8345011Y7900056D01*
Y7923382D01*
X8356674Y7935045D01*
X7925011Y8075000D02*
X7994989D01*
Y8040011D01*
X7983326Y8028348D01*
X7960000D01*
X7948337Y8040011D01*
Y8075000D01*
Y8051674D02*
X7925011Y8028348D01*
X7983326Y8005023D02*
X7994989Y7993360D01*
Y7970034D01*
X7983326Y7958371D01*
X7971663D01*
X7960000Y7970034D01*
X7948337Y7958371D01*
X7936674D01*
X7925011Y7970034D01*
Y7993360D01*
X7936674Y8005023D01*
X7948337D01*
X7960000Y7993360D01*
X7971663Y8005023D01*
X7983326D01*
X7960000Y7993360D02*
Y7970034D01*
X7925011Y7900056D02*
X7994989D01*
X7960000Y7935045D01*
Y7888393D01*
X8765011Y8075000D02*
X8834988D01*
Y8040011D01*
X8823326Y8028348D01*
X8800000D01*
X8788337Y8040011D01*
Y8075000D01*
Y8051674D02*
X8765011Y8028348D01*
X8823326Y8005023D02*
X8834988Y7993360D01*
Y7970034D01*
X8823326Y7958371D01*
X8811663D01*
X8800000Y7970034D01*
X8788337Y7958371D01*
X8776674D01*
X8765011Y7970034D01*
Y7993360D01*
X8776674Y8005023D01*
X8788337D01*
X8800000Y7993360D01*
X8811663Y8005023D01*
X8823326D01*
X8800000Y7993360D02*
Y7970034D01*
X8823326Y7935045D02*
X8834988Y7923382D01*
Y7900056D01*
X8823326Y7888393D01*
X8811663D01*
X8800000Y7900056D01*
Y7911719D01*
Y7900056D01*
X8788337Y7888393D01*
X8776674D01*
X8765011Y7900056D01*
Y7923382D01*
X8776674Y7935045D01*
X6715011Y8075000D02*
X6784988D01*
Y8040011D01*
X6773326Y8028348D01*
X6750000D01*
X6738337Y8040011D01*
Y8075000D01*
Y8051674D02*
X6715011Y8028348D01*
X6773326Y8005023D02*
X6784988Y7993360D01*
Y7970034D01*
X6773326Y7958371D01*
X6761663D01*
X6750000Y7970034D01*
X6738337Y7958371D01*
X6726674D01*
X6715011Y7970034D01*
Y7993360D01*
X6726674Y8005023D01*
X6738337D01*
X6750000Y7993360D01*
X6761663Y8005023D01*
X6773326D01*
X6750000Y7993360D02*
Y7970034D01*
X6715011Y7888393D02*
Y7935045D01*
X6761663Y7888393D01*
X6773326D01*
X6784988Y7900056D01*
Y7923382D01*
X6773326Y7935045D01*
X5865011Y8075000D02*
X5934989D01*
Y8040011D01*
X5923326Y8028348D01*
X5900000D01*
X5888337Y8040011D01*
Y8075000D01*
Y8051674D02*
X5865011Y8028348D01*
X5923326Y8005022D02*
X5934989Y7993359D01*
Y7970034D01*
X5923326Y7958371D01*
X5911663D01*
X5900000Y7970034D01*
X5888337Y7958371D01*
X5876674D01*
X5865011Y7970034D01*
Y7993359D01*
X5876674Y8005022D01*
X5888337D01*
X5900000Y7993359D01*
X5911663Y8005022D01*
X5923326D01*
X5900000Y7993359D02*
Y7970034D01*
X5865011Y7935045D02*
Y7911719D01*
Y7923382D01*
X5934989D01*
X5923326Y7935045D01*
X6995011Y8075000D02*
X7064988D01*
Y8040011D01*
X7053325Y8028348D01*
X7030000D01*
X7018337Y8040011D01*
Y8075000D01*
Y8051674D02*
X6995011Y8028348D01*
X7053325Y8005023D02*
X7064988Y7993360D01*
Y7970034D01*
X7053325Y7958371D01*
X7041663D01*
X7030000Y7970034D01*
X7018337Y7958371D01*
X7006674D01*
X6995011Y7970034D01*
Y7993360D01*
X7006674Y8005023D01*
X7018337D01*
X7030000Y7993360D01*
X7041663Y8005023D01*
X7053325D01*
X7030000Y7993360D02*
Y7970034D01*
X7053325Y7935045D02*
X7064988Y7923382D01*
Y7900056D01*
X7053325Y7888393D01*
X7006674D01*
X6995011Y7900056D01*
Y7923382D01*
X7006674Y7935045D01*
X7053325D01*
X6155011Y8075000D02*
X6224989D01*
Y8040011D01*
X6213326Y8028348D01*
X6190000D01*
X6178337Y8040011D01*
Y8075000D01*
Y8051674D02*
X6155011Y8028348D01*
X6224989Y8005023D02*
Y7958371D01*
X6213326D01*
X6166674Y8005023D01*
X6155011D01*
X6166674Y7935045D02*
X6155011Y7923382D01*
Y7900056D01*
X6166674Y7888393D01*
X6213326D01*
X6224989Y7900056D01*
Y7923382D01*
X6213326Y7935045D01*
X6201663D01*
X6190000Y7923382D01*
Y7888393D01*
X6296868Y8075000D02*
X6366846D01*
Y8040011D01*
X6355183Y8028348D01*
X6331857D01*
X6320194Y8040011D01*
Y8075000D01*
Y8051674D02*
X6296868Y8028348D01*
X6366846Y8005023D02*
Y7958371D01*
X6355183D01*
X6308531Y8005023D01*
X6296868D01*
X6355183Y7935045D02*
X6366846Y7923382D01*
Y7900056D01*
X6355183Y7888393D01*
X6343520D01*
X6331857Y7900056D01*
X6320194Y7888393D01*
X6308531D01*
X6296868Y7900056D01*
Y7923382D01*
X6308531Y7935045D01*
X6320194D01*
X6331857Y7923382D01*
X6343520Y7935045D01*
X6355183D01*
X6331857Y7923382D02*
Y7900056D01*
X6855011Y8075000D02*
X6924989D01*
Y8040011D01*
X6913326Y8028348D01*
X6890000D01*
X6878337Y8040011D01*
Y8075000D01*
Y8051674D02*
X6855011Y8028348D01*
X6924989Y8005022D02*
Y7958371D01*
X6913326D01*
X6866674Y8005022D01*
X6855011D01*
X6924989Y7935045D02*
Y7888393D01*
X6913326D01*
X6866674Y7935045D01*
X6855011D01*
X6015011Y8075000D02*
X6084989D01*
Y8040011D01*
X6073326Y8028348D01*
X6050000D01*
X6038337Y8040011D01*
Y8075000D01*
Y8051674D02*
X6015011Y8028348D01*
X6084989Y8005022D02*
Y7958371D01*
X6073326D01*
X6026674Y8005022D01*
X6015011D01*
X6084989Y7888393D02*
X6073326Y7911719D01*
X6050000Y7935045D01*
X6026674D01*
X6015011Y7923382D01*
Y7900056D01*
X6026674Y7888393D01*
X6038337D01*
X6050000Y7900056D01*
Y7935045D01*
X6435011Y8075000D02*
X6504989D01*
Y8040011D01*
X6493326Y8028348D01*
X6470000D01*
X6458337Y8040011D01*
Y8075000D01*
Y8051674D02*
X6435011Y8028348D01*
X6504989Y8005023D02*
Y7958371D01*
X6493326D01*
X6446674Y8005023D01*
X6435011D01*
X6504989Y7888393D02*
Y7935045D01*
X6470000D01*
X6481663Y7911719D01*
Y7900056D01*
X6470000Y7888393D01*
X6446674D01*
X6435011Y7900056D01*
Y7923382D01*
X6446674Y7935045D01*
X11953348Y7425011D02*
Y7494989D01*
X11976674Y7471663D01*
X12000000Y7494989D01*
Y7425011D01*
X12023326D02*
X12046652D01*
X12034989D01*
Y7494989D01*
X12023326Y7483326D01*
X2478337Y7953326D02*
X2466674Y7964989D01*
X2443348D01*
X2431686Y7953326D01*
Y7941663D01*
X2443348Y7930000D01*
X2466674D01*
X2478337Y7918337D01*
Y7906674D01*
X2466674Y7895011D01*
X2443348D01*
X2431686Y7906674D01*
X2548315Y7964989D02*
X2501663D01*
Y7930000D01*
X2524989Y7941663D01*
X2536652D01*
X2548315Y7930000D01*
Y7906674D01*
X2536652Y7895011D01*
X2513326D01*
X2501663Y7906674D01*
X6696320Y2508461D02*
Y2578439D01*
X6719645Y2555113D01*
X6742971Y2578439D01*
Y2508461D01*
X6766297Y2578439D02*
Y2508461D01*
Y2531787D01*
X6812949Y2578439D01*
X6777960Y2543450D01*
X6812949Y2508461D01*
X6836275D02*
X6859600D01*
X6847938D01*
Y2578439D01*
X6836275Y2566776D01*
X12338337Y5573326D02*
X12326674Y5584989D01*
X12303348D01*
X12291685Y5573326D01*
Y5561663D01*
X12303348Y5550000D01*
X12326674D01*
X12338337Y5538337D01*
Y5526674D01*
X12326674Y5515011D01*
X12303348D01*
X12291685Y5526674D01*
X12408315Y5515011D02*
X12361663D01*
X12408315Y5561663D01*
Y5573326D01*
X12396652Y5584989D01*
X12373326D01*
X12361663Y5573326D01*
X381685Y7564989D02*
Y7495011D01*
X416674D01*
X428337Y7506674D01*
Y7553326D01*
X416674Y7564989D01*
X381685D01*
X486652Y7495011D02*
Y7564989D01*
X451663Y7530000D01*
X498314D01*
X3223272Y2760895D02*
X3211609Y2772558D01*
X3188283D01*
X3176620Y2760895D01*
Y2749232D01*
X3188283Y2737569D01*
X3211609D01*
X3223272Y2725906D01*
Y2714243D01*
X3211609Y2702580D01*
X3188283D01*
X3176620Y2714243D01*
X3281586Y2702580D02*
Y2772558D01*
X3246598Y2737569D01*
X3293249D01*
X9522472Y2760895D02*
X9510809Y2772558D01*
X9487483D01*
X9475820Y2760895D01*
Y2749232D01*
X9487483Y2737569D01*
X9510809D01*
X9522472Y2725906D01*
Y2714243D01*
X9510809Y2702580D01*
X9487483D01*
X9475820Y2714243D01*
X9545798Y2760895D02*
X9557460Y2772558D01*
X9580786D01*
X9592449Y2760895D01*
Y2749232D01*
X9580786Y2737569D01*
X9569123D01*
X9580786D01*
X9592449Y2725906D01*
Y2714243D01*
X9580786Y2702580D01*
X9557460D01*
X9545798Y2714243D01*
X12847424Y7502589D02*
Y7432611D01*
X12882414D01*
X12894077Y7444274D01*
Y7490926D01*
X12882414Y7502589D01*
X12847424D01*
X12964055D02*
X12917403D01*
Y7467600D01*
X12940729Y7479263D01*
X12952393D01*
X12964055Y7467600D01*
Y7444274D01*
X12952393Y7432611D01*
X12929066D01*
X12917403Y7444274D01*
X2823348Y-1616674D02*
X2811686Y-1605011D01*
X2788360D01*
X2776697Y-1616674D01*
Y-1663326D01*
X2788360Y-1674989D01*
X2811686D01*
X2823348Y-1663326D01*
X2893326Y-1605011D02*
X2870000Y-1616674D01*
X2846674Y-1640000D01*
Y-1663326D01*
X2858337Y-1674989D01*
X2881663D01*
X2893326Y-1663326D01*
Y-1651663D01*
X2881663Y-1640000D01*
X2846674D01*
X2916652Y-1616674D02*
X2928315Y-1605011D01*
X2951641D01*
X2963303Y-1616674D01*
Y-1628337D01*
X2951641Y-1640000D01*
X2939978D01*
X2951641D01*
X2963303Y-1651663D01*
Y-1663326D01*
X2951641Y-1674989D01*
X2928315D01*
X2916652Y-1663326D01*
D150*
X7488800Y1987440D02*
G03*
X7488800Y2177440I0J95000D01*
G01*
X6808800D02*
G03*
X6808800Y1987440I0J-95000D01*
G01*
X12769525Y7229480D02*
Y7354480D01*
X13049220Y7229480D02*
Y7354480D01*
X12747025Y7229480D02*
X13049220D01*
X12747025D02*
Y7354480D01*
X13049220D01*
X7290600Y2177440D02*
X7490600D01*
X6808800Y1987440D02*
X7008800D01*
X6808800Y2177440D02*
X7008800D01*
X7290000Y1987440D02*
X7490000D01*
X228105Y7438500D02*
X530300D01*
X228105Y7313500D02*
Y7438500D01*
Y7313500D02*
X530300D01*
Y7438500D01*
X250605Y7313500D02*
Y7438500D01*
D151*
X7538833Y2394640D02*
X7738768D01*
X7638800Y2494608D02*
Y2294673D01*
D152*
X3325057Y7754976D02*
Y7605024D01*
X3400033D01*
X3425024Y7630016D01*
Y7729984D01*
X3400033Y7754976D01*
X3325057D01*
X3574976Y7729984D02*
X3549984Y7754976D01*
X3500000D01*
X3475008Y7729984D01*
Y7704992D01*
X3500000Y7680000D01*
X3549984D01*
X3574976Y7655008D01*
Y7630016D01*
X3549984Y7605024D01*
X3500000D01*
X3475008Y7630016D01*
X3624960Y7605024D02*
X3674944D01*
X3649952D01*
Y7754976D01*
X3624960Y7729984D01*
D153*
X12758274Y7291980D02*
D03*
X239354Y7376000D02*
D03*
%TF.MD5,b9b00c31e9168979cd0021d7bd39defc*%
M02*
