%TF.GenerationSoftware,Altium Limited,Altium Designer,26.1.1 (7)*%
G04 Layer_Color=8388736*
%FSLAX45Y45*%
%MOMM*%
%TF.SameCoordinates,6F9AAC4A-738D-4F70-9579-1CED448E312D*%
%TF.FilePolarity,Negative*%
%TF.FileFunction,Soldermask,Top*%
%TF.Part,Single*%
G01*
G75*
%TA.AperFunction,SMDPad,CuDef*%
%ADD164R,1.15320X1.20320*%
%ADD165R,1.00320X1.00320*%
%ADD166R,1.75320X3.40320*%
%ADD167R,1.20320X1.10320*%
%TA.AperFunction,ComponentPad*%
%ADD168C,1.40320*%
%ADD169C,1.70320*%
%ADD170C,3.45440*%
%ADD171C,1.50320*%
%ADD172C,2.00320*%
%ADD173C,2.20320*%
%ADD174O,2.00320X4.20320*%
%ADD175O,1.80320X4.20320*%
%ADD176O,2.00320X2.80320*%
%ADD177R,1.70320X1.70320*%
%ADD178C,3.46710*%
%ADD179C,1.80320*%
G04:AMPARAMS|DCode=180|XSize=3.6032mm|YSize=1.9032mm|CornerRadius=0.5266mm|HoleSize=0mm|Usage=FLASHONLY|Rotation=180.000|XOffset=0mm|YOffset=0mm|HoleType=Round|Shape=RoundedRectangle|*
%AMROUNDEDRECTD180*
21,1,3.60320,0.85000,0,0,180.0*
21,1,2.55001,1.90320,0,0,180.0*
1,1,1.05320,-1.27500,0.42500*
1,1,1.05320,1.27500,0.42500*
1,1,1.05320,1.27500,-0.42500*
1,1,1.05320,-1.27500,-0.42500*
%
%ADD180ROUNDEDRECTD180*%
%ADD181C,2.40320*%
%ADD182R,1.70320X1.70320*%
%ADD183R,2.00320X2.00320*%
%ADD184C,1.20320*%
%ADD185O,3.00320X1.72320*%
%ADD186C,1.21920*%
%ADD187C,1.72320*%
%ADD188R,2.00320X1.30320*%
%ADD189R,1.30320X2.00320*%
%ADD190R,2.40320X4.70320*%
G04:AMPARAMS|DCode=191|XSize=3.0032mm|YSize=1.7272mm|CornerRadius=0.4826mm|HoleSize=0mm|Usage=FLASHONLY|Rotation=90.000|XOffset=0mm|YOffset=0mm|HoleType=Round|Shape=RoundedRectangle|*
%AMROUNDEDRECTD191*
21,1,3.00320,0.76200,0,0,90.0*
21,1,2.03800,1.72720,0,0,90.0*
1,1,0.96520,0.38100,1.01900*
1,1,0.96520,0.38100,-1.01900*
1,1,0.96520,-0.38100,-1.01900*
1,1,0.96520,-0.38100,1.01900*
%
%ADD191ROUNDEDRECTD191*%
%ADD192C,3.20320*%
%ADD193C,1.19380*%
%TA.AperFunction,WasherPad*%
%ADD194C,6.20320*%
G36*
X7494209Y2167676D02*
X7494731Y2167650D01*
X7494868Y2167625D01*
X7495011Y2167614D01*
X7506817Y2165918D01*
X7506957Y2165888D01*
X7507097Y2165874D01*
X7507608Y2165751D01*
X7508120Y2165643D01*
X7508254Y2165596D01*
X7508392Y2165562D01*
X7519782Y2162022D01*
X7519914Y2161971D01*
X7520050Y2161934D01*
X7520534Y2161733D01*
X7521025Y2161544D01*
X7521150Y2161476D01*
X7521280Y2161422D01*
X7531967Y2156126D01*
X7532089Y2156056D01*
X7532219Y2155997D01*
X7532667Y2155721D01*
X7533120Y2155458D01*
X7533232Y2155372D01*
X7533352Y2155298D01*
X7543068Y2148380D01*
X7543178Y2148291D01*
X7543297Y2148213D01*
X7543693Y2147871D01*
X7544101Y2147538D01*
X7544198Y2147435D01*
X7544305Y2147343D01*
X7552807Y2138976D01*
X7552901Y2138870D01*
X7553005Y2138775D01*
X7553344Y2138373D01*
X7553693Y2137982D01*
X7553772Y2137866D01*
X7553863Y2137756D01*
X7560936Y2128152D01*
X7561012Y2128033D01*
X7561100Y2127922D01*
X7561372Y2127470D01*
X7561654Y2127030D01*
X7561714Y2126903D01*
X7561787Y2126781D01*
X7567253Y2116179D01*
X7567309Y2116050D01*
X7567379Y2115926D01*
X7567575Y2115438D01*
X7567784Y2114958D01*
X7567823Y2114822D01*
X7567876Y2114691D01*
X7571598Y2103359D01*
X7571633Y2103223D01*
X7571683Y2103089D01*
X7571800Y2102575D01*
X7571930Y2102069D01*
X7571947Y2101928D01*
X7571979Y2101791D01*
X7573864Y2090013D01*
X7573877Y2089872D01*
X7573905Y2089733D01*
X7573939Y2089206D01*
X7573988Y2088687D01*
X7573982Y2088546D01*
X7573992Y2088404D01*
Y2076476D01*
X7573982Y2076334D01*
X7573988Y2076193D01*
X7573939Y2075675D01*
X7573905Y2075147D01*
X7573877Y2075008D01*
X7573864Y2074867D01*
X7571979Y2063090D01*
X7571947Y2062952D01*
X7571930Y2062811D01*
X7571800Y2062305D01*
X7571683Y2061791D01*
X7571633Y2061658D01*
X7571598Y2061521D01*
X7567876Y2050189D01*
X7567823Y2050058D01*
X7567784Y2049922D01*
X7567575Y2049442D01*
X7567379Y2048954D01*
X7567309Y2048830D01*
X7567253Y2048701D01*
X7561787Y2038100D01*
X7561713Y2037978D01*
X7561654Y2037850D01*
X7561372Y2037410D01*
X7561100Y2036958D01*
X7561012Y2036847D01*
X7560936Y2036728D01*
X7553863Y2027124D01*
X7553772Y2027014D01*
X7553693Y2026898D01*
X7553344Y2026507D01*
X7553005Y2026105D01*
X7552902Y2026010D01*
X7552807Y2025904D01*
X7544305Y2017537D01*
X7544197Y2017445D01*
X7544101Y2017342D01*
X7543693Y2017009D01*
X7543297Y2016668D01*
X7543179Y2016590D01*
X7543069Y2016500D01*
X7533352Y2009582D01*
X7533232Y2009508D01*
X7533120Y2009422D01*
X7532664Y2009158D01*
X7532219Y2008883D01*
X7532091Y2008825D01*
X7531967Y2008753D01*
X7521280Y2003458D01*
X7521151Y2003404D01*
X7521025Y2003336D01*
X7520532Y2003147D01*
X7520050Y2002946D01*
X7519914Y2002909D01*
X7519782Y2002858D01*
X7508392Y1999318D01*
X7508254Y1999285D01*
X7508120Y1999238D01*
X7507608Y1999129D01*
X7507097Y1999006D01*
X7506956Y1998992D01*
X7506817Y1998962D01*
X7495011Y1997266D01*
X7494868Y1997255D01*
X7494731Y1997230D01*
X7494209Y1997204D01*
X7493683Y1997164D01*
X7493542Y1997171D01*
X7493401Y1997164D01*
X7487517Y1997258D01*
X7288800D01*
X7287471Y1997345D01*
X7286165Y1997605D01*
X7284904Y1998033D01*
X7283709Y1998622D01*
X7282602Y1999362D01*
X7281600Y2000240D01*
X7280722Y2001242D01*
X7279982Y2002349D01*
X7279393Y2003544D01*
X7278965Y2004805D01*
X7278705Y2006111D01*
X7278618Y2007440D01*
Y2157440D01*
X7278705Y2158769D01*
X7278965Y2160075D01*
X7279393Y2161337D01*
X7279982Y2162531D01*
X7280722Y2163639D01*
X7281600Y2164640D01*
X7282602Y2165518D01*
X7283709Y2166258D01*
X7284904Y2166847D01*
X7286165Y2167275D01*
X7287471Y2167535D01*
X7288800Y2167622D01*
X7487517D01*
X7493401Y2167716D01*
X7493542Y2167709D01*
X7493683Y2167717D01*
X7494209Y2167676D01*
D02*
G37*
G36*
X7010129Y2167535D02*
X7011435Y2167275D01*
X7012696Y2166847D01*
X7013891Y2166258D01*
X7014998Y2165518D01*
X7016000Y2164640D01*
X7016878Y2163639D01*
X7017618Y2162531D01*
X7018207Y2161337D01*
X7018635Y2160075D01*
X7018895Y2158769D01*
X7018982Y2157440D01*
Y2007440D01*
X7018895Y2006111D01*
X7018635Y2004805D01*
X7018207Y2003544D01*
X7017618Y2002349D01*
X7016878Y2001242D01*
X7016000Y2000240D01*
X7014998Y1999362D01*
X7013891Y1998622D01*
X7012696Y1998033D01*
X7011435Y1997605D01*
X7010129Y1997345D01*
X7008800Y1997258D01*
X6802897D01*
X6802764Y1997267D01*
X6802631Y1997262D01*
X6802103Y1997310D01*
X6801569Y1997345D01*
X6801437Y1997371D01*
X6801305Y1997384D01*
X6789645Y1999230D01*
X6789516Y1999260D01*
X6789382Y1999275D01*
X6788862Y1999407D01*
X6788346Y1999524D01*
X6788221Y1999570D01*
X6788091Y1999603D01*
X6776864Y2003251D01*
X6776739Y2003301D01*
X6776611Y2003337D01*
X6776121Y2003548D01*
X6775627Y2003745D01*
X6775511Y2003810D01*
X6775388Y2003863D01*
X6764869Y2009222D01*
X6764754Y2009291D01*
X6764633Y2009347D01*
X6764184Y2009630D01*
X6763724Y2009903D01*
X6763619Y2009986D01*
X6763507Y2010057D01*
X6753956Y2016996D01*
X6753853Y2017082D01*
X6753742Y2017156D01*
X6753343Y2017506D01*
X6752932Y2017848D01*
X6752841Y2017946D01*
X6752741Y2018034D01*
X6744394Y2026381D01*
X6744305Y2026482D01*
X6744208Y2026572D01*
X6743868Y2026980D01*
X6743516Y2027383D01*
X6743441Y2027494D01*
X6743356Y2027596D01*
X6736417Y2037147D01*
X6736346Y2037259D01*
X6736263Y2037364D01*
X6735988Y2037827D01*
X6735706Y2038273D01*
X6735651Y2038393D01*
X6735582Y2038509D01*
X6730223Y2049028D01*
X6730169Y2049151D01*
X6730105Y2049267D01*
X6729908Y2049761D01*
X6729697Y2050251D01*
X6729661Y2050379D01*
X6729611Y2050504D01*
X6725963Y2061731D01*
X6725930Y2061861D01*
X6725884Y2061986D01*
X6725767Y2062502D01*
X6725635Y2063022D01*
X6725620Y2063156D01*
X6725590Y2063285D01*
X6723743Y2074945D01*
X6723731Y2075077D01*
X6723705Y2075209D01*
X6723670Y2075743D01*
X6723622Y2076271D01*
X6723627Y2076404D01*
X6723618Y2076538D01*
Y2088343D01*
X6723627Y2088476D01*
X6723622Y2088609D01*
X6723670Y2089137D01*
X6723705Y2089671D01*
X6723731Y2089803D01*
X6723743Y2089935D01*
X6725590Y2101595D01*
X6725620Y2101724D01*
X6725635Y2101858D01*
X6725767Y2102378D01*
X6725884Y2102894D01*
X6725930Y2103019D01*
X6725963Y2103149D01*
X6729611Y2114376D01*
X6729661Y2114501D01*
X6729697Y2114629D01*
X6729908Y2115119D01*
X6730105Y2115613D01*
X6730169Y2115729D01*
X6730223Y2115853D01*
X6735582Y2126371D01*
X6735651Y2126486D01*
X6735706Y2126607D01*
X6735990Y2127056D01*
X6736263Y2127516D01*
X6736346Y2127621D01*
X6736417Y2127733D01*
X6743356Y2137284D01*
X6743441Y2137387D01*
X6743516Y2137498D01*
X6743866Y2137897D01*
X6744208Y2138308D01*
X6744306Y2138399D01*
X6744394Y2138499D01*
X6752741Y2146846D01*
X6752842Y2146935D01*
X6752932Y2147032D01*
X6753340Y2147372D01*
X6753742Y2147724D01*
X6753854Y2147799D01*
X6753956Y2147884D01*
X6763507Y2154823D01*
X6763619Y2154894D01*
X6763724Y2154977D01*
X6764186Y2155252D01*
X6764633Y2155534D01*
X6764753Y2155589D01*
X6764869Y2155658D01*
X6775388Y2161018D01*
X6775511Y2161071D01*
X6775627Y2161135D01*
X6776121Y2161332D01*
X6776611Y2161543D01*
X6776739Y2161579D01*
X6776864Y2161629D01*
X6788091Y2165277D01*
X6788221Y2165310D01*
X6788346Y2165356D01*
X6788862Y2165473D01*
X6789382Y2165605D01*
X6789516Y2165621D01*
X6789645Y2165650D01*
X6801305Y2167497D01*
X6801437Y2167509D01*
X6801569Y2167535D01*
X6802103Y2167570D01*
X6802631Y2167618D01*
X6802764Y2167613D01*
X6802897Y2167622D01*
X7008800D01*
X7010129Y2167535D01*
D02*
G37*
D164*
X2950000Y-1790000D02*
D03*
X2790000D02*
D03*
D165*
X313105Y7376000D02*
D03*
X463104D02*
D03*
X12982025Y7291980D02*
D03*
X12832025D02*
D03*
D166*
X2687662Y7711589D02*
D03*
Y7031589D02*
D03*
X2287662Y7711589D02*
D03*
Y7031589D02*
D03*
D167*
X9068720Y8265230D02*
D03*
Y8435230D02*
D03*
X6422040Y8290630D02*
D03*
Y8460630D02*
D03*
X8660097Y8265230D02*
D03*
Y8435230D02*
D03*
X8251475Y8265230D02*
D03*
Y8435230D02*
D03*
X8387682Y8265230D02*
D03*
Y8435230D02*
D03*
X7979060Y8265230D02*
D03*
Y8435230D02*
D03*
X8796305Y8265230D02*
D03*
Y8435230D02*
D03*
X8523890Y8265230D02*
D03*
Y8435230D02*
D03*
X8115267Y8265230D02*
D03*
Y8435230D02*
D03*
X8932512Y8265230D02*
D03*
Y8435230D02*
D03*
X6844950Y8290630D02*
D03*
Y8460630D02*
D03*
X5858160Y8290630D02*
D03*
Y8460630D02*
D03*
X6703980Y8290630D02*
D03*
Y8460630D02*
D03*
X6140100Y8290630D02*
D03*
Y8460630D02*
D03*
X6281070Y8290630D02*
D03*
Y8460630D02*
D03*
X6985920Y8290630D02*
D03*
Y8460630D02*
D03*
X5999130Y8290630D02*
D03*
Y8460630D02*
D03*
X6563010Y8290630D02*
D03*
Y8460630D02*
D03*
D168*
X13159520Y5519080D02*
D03*
X12909520D02*
D03*
X12659520D02*
D03*
X13159520Y5839080D02*
D03*
X12909520D02*
D03*
X12659520D02*
D03*
D169*
X7433280Y7253880D02*
D03*
X4639280D02*
D03*
X4893280D02*
D03*
X5147280D02*
D03*
X5401280D02*
D03*
X5655280D02*
D03*
X5909280D02*
D03*
X6163280D02*
D03*
X6417280D02*
D03*
X6671280D02*
D03*
X6925280D02*
D03*
X7179280D02*
D03*
X7687280D02*
D03*
X7941280D02*
D03*
X4385280D02*
D03*
X4131280D02*
D03*
X9671020D02*
D03*
X9163020D02*
D03*
X9417020D02*
D03*
X9925020D02*
D03*
X10320040Y-2051410D02*
D03*
X10520040D02*
D03*
X10720040D02*
D03*
X10320040Y-2251410D02*
D03*
X10520040D02*
D03*
D170*
X10895300Y4155080D02*
D03*
Y7203080D02*
D03*
X3402300Y4155080D02*
D03*
Y7203080D02*
D03*
D171*
X8398100Y8800200D02*
D03*
X7398100D02*
D03*
X7898100D02*
D03*
X7648100D02*
D03*
X8148100D02*
D03*
X7648100Y9300200D02*
D03*
X8148100D02*
D03*
X6899500Y8800200D02*
D03*
X5899500D02*
D03*
X6399500D02*
D03*
X6149500D02*
D03*
X6649500D02*
D03*
X6149500Y9300200D02*
D03*
X6649500D02*
D03*
X16399289Y7283980D02*
D03*
X16149289D02*
D03*
Y6283980D02*
D03*
X16399289D02*
D03*
X15149289D02*
D03*
Y7283980D02*
D03*
Y6783980D02*
D03*
Y7033980D02*
D03*
Y6533980D02*
D03*
X8896700Y10050229D02*
D03*
Y9800229D02*
D03*
X9896700D02*
D03*
Y10050229D02*
D03*
Y8800230D02*
D03*
X8896700D02*
D03*
X9396700D02*
D03*
X9146700D02*
D03*
X9646700D02*
D03*
X4400900Y10050230D02*
D03*
Y9800230D02*
D03*
X5400900D02*
D03*
Y10050230D02*
D03*
Y8800230D02*
D03*
X4400900D02*
D03*
X4900900D02*
D03*
X4650900D02*
D03*
X5150900D02*
D03*
D172*
X7898100Y9300200D02*
D03*
X6399500D02*
D03*
X4770090Y-1871070D02*
D03*
X5024090D02*
D03*
X5278090D02*
D03*
X4770090Y-1617070D02*
D03*
X5024090D02*
D03*
X5278090D02*
D03*
X13093671Y1085490D02*
D03*
X14150310Y1077870D02*
D03*
X14404311D02*
D03*
X14658310D02*
D03*
X15649289Y6783980D02*
D03*
X1612870Y4637680D02*
D03*
X1866870D02*
D03*
X2120870D02*
D03*
X2374870D02*
D03*
X9396700Y9300230D02*
D03*
X4900900Y9300230D02*
D03*
D173*
X7273100Y9150200D02*
D03*
X8523100D02*
D03*
X5774500D02*
D03*
X7024500D02*
D03*
X8371650Y-1322250D02*
D03*
X8496650Y-2072250D02*
D03*
X9496650D02*
D03*
Y-1572250D02*
D03*
X9621650Y-1322250D02*
D03*
X8496650Y-1572250D02*
D03*
X6749860Y-1322250D02*
D03*
X6874860Y-2072250D02*
D03*
X7874860D02*
D03*
Y-1572250D02*
D03*
X7999860Y-1322250D02*
D03*
X6874860Y-1572250D02*
D03*
D174*
X7398100Y9925200D02*
D03*
X8398100D02*
D03*
X5899500D02*
D03*
X6899500D02*
D03*
D175*
X7678100Y9900200D02*
D03*
X8118100D02*
D03*
X6179500D02*
D03*
X6619500D02*
D03*
D176*
X7398100Y9360200D02*
D03*
X8398100D02*
D03*
X5899500D02*
D03*
X6899500D02*
D03*
D177*
X7898100Y9800200D02*
D03*
X6399500D02*
D03*
D178*
X644002Y5015000D02*
D03*
D179*
X3273800Y1654640D02*
D03*
Y2154640D02*
D03*
X4723800Y1654640D02*
D03*
Y1904640D02*
D03*
Y2154640D02*
D03*
X11023800D02*
D03*
Y1654640D02*
D03*
X9573800Y2154640D02*
D03*
Y1904640D02*
D03*
Y1654640D02*
D03*
D180*
X3973800Y2474640D02*
D03*
Y1334640D02*
D03*
X10323800D02*
D03*
Y2474640D02*
D03*
D181*
X10040040Y-2151410D02*
D03*
X11000040D02*
D03*
D182*
X10720040Y-2251410D02*
D03*
D183*
X13347670Y1085490D02*
D03*
X14912309Y1077870D02*
D03*
X1358870Y4637680D02*
D03*
D184*
X13347670Y831490D02*
D03*
X13093671D02*
D03*
D185*
X12870200Y6138799D02*
D03*
D186*
X13350200Y6970179D02*
D03*
X11910200Y6138799D02*
D03*
X13350200Y5307419D02*
D03*
D187*
X12551600Y6138799D02*
D03*
X13188800D02*
D03*
D188*
X15649289Y7283980D02*
D03*
Y7033980D02*
D03*
Y6533980D02*
D03*
Y6283980D02*
D03*
X9396700Y9800229D02*
D03*
X4900900Y9800230D02*
D03*
D189*
X16149289Y6783980D02*
D03*
X8896700Y9300230D02*
D03*
X9146700D02*
D03*
X9646700D02*
D03*
X9896700D02*
D03*
X4400900Y9300230D02*
D03*
X4650900D02*
D03*
X5150900D02*
D03*
X5400900D02*
D03*
D190*
X8796650Y-2072250D02*
D03*
X9196650D02*
D03*
X7174860D02*
D03*
X7574860D02*
D03*
D191*
X12255470Y-1429110D02*
D03*
X11735470D02*
D03*
X11395470D02*
D03*
X12345470Y-2159110D02*
D03*
X11355470D02*
D03*
D192*
X11725470Y-2059110D02*
D03*
D193*
X-1840000Y3294300D02*
D03*
Y3497500D02*
D03*
X-1332000Y3395900D02*
D03*
D194*
X0Y0D02*
D03*
Y7800000D02*
D03*
X14300000D02*
D03*
Y0D02*
D03*
%TF.MD5,f711aff5840b22aa85489aab5fdb34f9*%
M02*
