%TF.GenerationSoftware,Altium Limited,Altium Designer,26.2.0 (7)*%
G04 Layer_Color=255*
%FSLAX45Y45*%
%MOMM*%
%TF.SameCoordinates,19529689-9DA4-4D3B-AC8C-EF9351660A47*%
%TF.FilePolarity,Positive*%
%TF.FileFunction,Pads,Top*%
%TF.Part,Single*%
G01*
G75*
%TA.AperFunction,SMDPad,CuDef*%
%ADD10R,0.80000X0.80000*%
%ADD11R,1.55000X3.20000*%
%ADD12R,1.00000X0.90000*%
%ADD13R,0.95000X1.00000*%
%TA.AperFunction,ComponentPad*%
%ADD19C,1.52000*%
%ADD20C,1.01600*%
%ADD21O,2.80000X1.52000*%
%ADD22C,3.25120*%
%ADD23C,1.50000*%
%ADD24O,1.80000X2.60000*%
%ADD25C,1.30000*%
%ADD26R,1.50000X1.50000*%
%ADD27O,1.80000X4.00000*%
%ADD28C,2.00000*%
%ADD29O,1.60000X4.00000*%
%ADD30C,1.80000*%
%ADD31C,1.20000*%
%ADD32C,3.26390*%
%ADD33R,1.80000X1.80000*%
%ADD34R,2.20000X4.50000*%
%ADD35R,1.80000X1.10000*%
%ADD36R,1.10000X1.80000*%
%ADD37C,1.00000*%
%ADD38C,3.00000*%
G04:AMPARAMS|DCode=39|XSize=2.8mm|YSize=1.524mm|CornerRadius=0.381mm|HoleSize=0mm|Usage=FLASHONLY|Rotation=90.000|XOffset=0mm|YOffset=0mm|HoleType=Round|Shape=RoundedRectangle|*
%AMROUNDEDRECTD39*
21,1,2.80000,0.76200,0,0,90.0*
21,1,2.03800,1.52400,0,0,90.0*
1,1,0.76200,0.38100,1.01900*
1,1,0.76200,0.38100,-1.01900*
1,1,0.76200,-0.38100,-1.01900*
1,1,0.76200,-0.38100,1.01900*
%
%ADD39ROUNDEDRECTD39*%
%ADD40R,1.50000X1.50000*%
%ADD41C,2.20000*%
G04:AMPARAMS|DCode=42|XSize=3.4mm|YSize=1.7mm|CornerRadius=0.425mm|HoleSize=0mm|Usage=FLASHONLY|Rotation=180.000|XOffset=0mm|YOffset=0mm|HoleType=Round|Shape=RoundedRectangle|*
%AMROUNDEDRECTD42*
21,1,3.40000,0.85000,0,0,180.0*
21,1,2.55001,1.70000,0,0,180.0*
1,1,0.85000,-1.27500,0.42500*
1,1,0.85000,1.27500,0.42500*
1,1,0.85000,1.27500,-0.42500*
1,1,0.85000,-1.27500,-0.42500*
%
%ADD42ROUNDEDRECTD42*%
%ADD43C,1.60000*%
%ADD44C,0.99060*%
%TA.AperFunction,WasherPad*%
%ADD45C,6.00000*%
G36*
G01X6808800Y2007440D02*
G02Y2157440I0J75000D01*
G01X7008800D01*
G01Y2007440D01*
G01X6808800D01*
D02*
G37*
G36*
G01X7288800D02*
G01X7487600D01*
G03Y2157440I1200J75000D01*
G01X7288800D01*
G01Y2007440D01*
D02*
G37*
D10*
X12832025Y7291980D02*
D03*
X12982025D02*
D03*
X463104Y7376000D02*
D03*
X313105D02*
D03*
D11*
X2287662Y7031589D02*
D03*
Y7711589D02*
D03*
X2687662Y7031589D02*
D03*
Y7711589D02*
D03*
D12*
X7030000Y8435000D02*
D03*
Y8265000D02*
D03*
X8240000Y8435000D02*
D03*
Y8265000D02*
D03*
X8100000Y8435000D02*
D03*
Y8265000D02*
D03*
X6190000Y8435000D02*
D03*
Y8265000D02*
D03*
X8940000Y8435000D02*
D03*
Y8265000D02*
D03*
X6330000Y8435000D02*
D03*
Y8265000D02*
D03*
X8380000Y8435000D02*
D03*
Y8265000D02*
D03*
X6890000Y8435000D02*
D03*
Y8265000D02*
D03*
X6050000Y8435000D02*
D03*
Y8265000D02*
D03*
X7960000Y8435000D02*
D03*
Y8265000D02*
D03*
X6470000Y8435000D02*
D03*
Y8265000D02*
D03*
X8800000Y8435000D02*
D03*
Y8265000D02*
D03*
X6610000Y8435000D02*
D03*
Y8265000D02*
D03*
X6750000Y8435000D02*
D03*
Y8265000D02*
D03*
X8520000Y8435000D02*
D03*
Y8265000D02*
D03*
X8660000Y8435000D02*
D03*
Y8265000D02*
D03*
X5910000Y8435000D02*
D03*
Y8265000D02*
D03*
X7820000Y8435000D02*
D03*
Y8265000D02*
D03*
D13*
X2950000Y-1790000D02*
D03*
X2790000D02*
D03*
X7730000Y7570000D02*
D03*
X7890000D02*
D03*
D19*
X13188800Y6138799D02*
D03*
X12551600D02*
D03*
D20*
X13350200Y5307419D02*
D03*
X11910200Y6138799D02*
D03*
X13350200Y6970179D02*
D03*
D21*
X12870200Y6138799D02*
D03*
D22*
X3402300Y7203080D02*
D03*
Y4155080D02*
D03*
X10895300Y7203080D02*
D03*
Y4155080D02*
D03*
D23*
X9925020Y7253880D02*
D03*
X9417020D02*
D03*
X9163020D02*
D03*
X9671020D02*
D03*
X4131280D02*
D03*
X4385280D02*
D03*
X7941280D02*
D03*
X6925280D02*
D03*
X6671280D02*
D03*
X6417280D02*
D03*
X6163280D02*
D03*
X5909280D02*
D03*
X5655280D02*
D03*
X5401280D02*
D03*
X5147280D02*
D03*
X4893280D02*
D03*
X4639280D02*
D03*
X7433280D02*
D03*
X7179280D02*
D03*
X7687280D02*
D03*
X10520040Y-2251410D02*
D03*
X10320040D02*
D03*
X10720040Y-2051410D02*
D03*
X10520040D02*
D03*
X10320040D02*
D03*
D24*
X6899500Y9360200D02*
D03*
X5899500D02*
D03*
X8398100D02*
D03*
X7398100D02*
D03*
D25*
X6649500Y9300200D02*
D03*
X6149500D02*
D03*
X6649500Y8800200D02*
D03*
X6149500D02*
D03*
X6399500D02*
D03*
X5899500D02*
D03*
X6899500D02*
D03*
X15149289Y6533980D02*
D03*
Y6783980D02*
D03*
Y7283980D02*
D03*
Y6283980D02*
D03*
X16399289D02*
D03*
X16149289D02*
D03*
Y7283980D02*
D03*
X16399289D02*
D03*
X15149289Y7033980D02*
D03*
X9646700Y8800230D02*
D03*
X9146700D02*
D03*
X9396700D02*
D03*
X8896700D02*
D03*
X9896700D02*
D03*
Y10050229D02*
D03*
Y9800229D02*
D03*
X8896700D02*
D03*
Y10050229D02*
D03*
X5150900Y8800230D02*
D03*
X4650900D02*
D03*
X4900900D02*
D03*
X4400900D02*
D03*
X5400900D02*
D03*
Y10050230D02*
D03*
Y9800230D02*
D03*
X4400900D02*
D03*
Y10050230D02*
D03*
X8148100Y9300200D02*
D03*
X7648100D02*
D03*
X8148100Y8800200D02*
D03*
X7648100D02*
D03*
X7898100D02*
D03*
X7398100D02*
D03*
X8398100D02*
D03*
D26*
X6399500Y9800200D02*
D03*
X7898100D02*
D03*
D27*
X6899500Y9925200D02*
D03*
X5899500D02*
D03*
X8398100D02*
D03*
X7398100D02*
D03*
D28*
X7024500Y9150200D02*
D03*
X5774500D02*
D03*
X8496650Y-1572250D02*
D03*
X9621650Y-1322250D02*
D03*
X9496650Y-1572250D02*
D03*
Y-2072250D02*
D03*
X8496650D02*
D03*
X8371650Y-1322250D02*
D03*
X6874860Y-1572250D02*
D03*
X7999860Y-1322250D02*
D03*
X7874860Y-1572250D02*
D03*
Y-2072250D02*
D03*
X6874860D02*
D03*
X6749860Y-1322250D02*
D03*
X8523100Y9150200D02*
D03*
X7273100D02*
D03*
D29*
X6619500Y9900200D02*
D03*
X6179500D02*
D03*
X8118100D02*
D03*
X7678100D02*
D03*
D30*
X6399500Y9300200D02*
D03*
X2374870Y4637680D02*
D03*
X1866870D02*
D03*
X1612870D02*
D03*
X2120870D02*
D03*
X15649289Y6783980D02*
D03*
X14658310Y1077870D02*
D03*
X14404311D02*
D03*
X14150310D02*
D03*
X9396700Y9300230D02*
D03*
X13093671Y1085490D02*
D03*
X4900900Y9300230D02*
D03*
X7898100Y9300200D02*
D03*
X5024090Y-1617070D02*
D03*
X4770090D02*
D03*
X5278090Y-1871070D02*
D03*
X5024090D02*
D03*
X4770090D02*
D03*
X5278090Y-1617070D02*
D03*
D31*
X12659520Y5839080D02*
D03*
X12909520D02*
D03*
X13159520D02*
D03*
X12659520Y5519080D02*
D03*
X12909520D02*
D03*
X13159520D02*
D03*
D32*
X644002Y5015000D02*
D03*
D33*
X1358870Y4637680D02*
D03*
X14912309Y1077870D02*
D03*
X13347670Y1085490D02*
D03*
D34*
X9196650Y-2072250D02*
D03*
X8796650D02*
D03*
X7574860D02*
D03*
X7174860D02*
D03*
D35*
X15649289Y6283980D02*
D03*
Y6533980D02*
D03*
Y7033980D02*
D03*
Y7283980D02*
D03*
X9396700Y9800229D02*
D03*
X4900900Y9800230D02*
D03*
D36*
X16149289Y6783980D02*
D03*
X9896700Y9300230D02*
D03*
X9646700D02*
D03*
X9146700D02*
D03*
X8896700D02*
D03*
X5400900Y9300230D02*
D03*
X5150900D02*
D03*
X4650900D02*
D03*
X4400900D02*
D03*
D37*
X13093671Y831490D02*
D03*
X13347670D02*
D03*
D38*
X11725470Y-2059110D02*
D03*
D39*
X11355470Y-2159110D02*
D03*
X12345470D02*
D03*
X11395470Y-1429110D02*
D03*
X11735470D02*
D03*
X12255470D02*
D03*
D40*
X10720040Y-2251410D02*
D03*
D41*
X11000040Y-2151410D02*
D03*
X10040040D02*
D03*
D42*
X3973800Y1334640D02*
D03*
Y2474640D02*
D03*
X10323800D02*
D03*
Y1334640D02*
D03*
D43*
X4723800Y2154640D02*
D03*
Y1904640D02*
D03*
Y1654640D02*
D03*
X3273800Y2154640D02*
D03*
Y1654640D02*
D03*
X9573800D02*
D03*
Y1904640D02*
D03*
Y2154640D02*
D03*
X11023800Y1654640D02*
D03*
Y2154640D02*
D03*
D44*
X-1840000Y3294300D02*
D03*
Y3497500D02*
D03*
X-1332000Y3395900D02*
D03*
D45*
X0Y0D02*
D03*
Y7800000D02*
D03*
X14300000D02*
D03*
Y0D02*
D03*
%TF.MD5,7a5c5dab25fce77f9e5d0f0683b94900*%
M02*
