%TF.GenerationSoftware,Altium Limited,Altium Designer,26.5.0 (11)*%
G04 Layer_Color=128*
G04 Board_Origin=48523622|48129921*
%FSLAX45Y45*%
%MOMM*%
%TF.SameCoordinates,4A54F1C4-411E-4758-A6F6-B641860D93E9*%
%TF.FilePolarity,Positive*%
%TF.FileFunction,Drillmap*%
%TF.Part,Single*%
G01*
G75*
%TA.AperFunction,NonConductor*%
%ADD94C,0.12700*%
D94*
X12205470Y-1429110D02*
X12305470D01*
X12255470Y-1479110D02*
Y-1379110D01*
X11685470Y-1429110D02*
X11785470D01*
X11735470Y-1479110D02*
Y-1379110D01*
X11345470Y-1429110D02*
X11445470D01*
X11395470Y-1479110D02*
Y-1379110D01*
X12295470Y-2159110D02*
X12395470D01*
X12345470Y-2209110D02*
Y-2109110D01*
X11305470Y-2159110D02*
X11405470D01*
X11355470Y-2209110D02*
Y-2109110D01*
X11605470Y-2059110D02*
X11845470D01*
X11725470Y-2179110D02*
Y-1939110D01*
X6674860Y-1322250D02*
X6824860D01*
X6749860Y-1397250D02*
Y-1247250D01*
X6799860Y-2072250D02*
X6949860D01*
X6874860Y-2147250D02*
Y-1997250D01*
X7074860Y-2072250D02*
X7274860D01*
X7174860Y-2172250D02*
Y-1972250D01*
X7474860Y-2072250D02*
X7674860D01*
X7574860Y-2172250D02*
Y-1972250D01*
X7799860Y-2072250D02*
X7949860D01*
X7874860Y-2147250D02*
Y-1997250D01*
X7799860Y-1572250D02*
X7949860D01*
X7874860Y-1647250D02*
Y-1497250D01*
X7924860Y-1322250D02*
X8074860D01*
X7999860Y-1397250D02*
Y-1247250D01*
X6799860Y-1572250D02*
X6949860D01*
X6874860Y-1647250D02*
Y-1497250D01*
X8296650Y-1322250D02*
X8446650D01*
X8371650Y-1397250D02*
Y-1247250D01*
X8421650Y-2072250D02*
X8571650D01*
X8496650Y-2147250D02*
Y-1997250D01*
X8696650Y-2072250D02*
X8896650D01*
X8796650Y-2172250D02*
Y-1972250D01*
X9096650Y-2072250D02*
X9296650D01*
X9196650Y-2172250D02*
Y-1972250D01*
X9421650Y-2072250D02*
X9571650D01*
X9496650Y-2147250D02*
Y-1997250D01*
X9421650Y-1572250D02*
X9571650D01*
X9496650Y-1647250D02*
Y-1497250D01*
X9546650Y-1322250D02*
X9696650D01*
X9621650Y-1397250D02*
Y-1247250D01*
X8421650Y-1572250D02*
X8571650D01*
X8496650Y-1647250D02*
Y-1497250D01*
X13142799Y6138799D02*
X13234801D01*
X13188800Y6092799D02*
Y6184799D01*
X12505600Y6138799D02*
X12597600D01*
X12551600Y6092799D02*
Y6184799D01*
X13190199Y5307419D02*
X13510201D01*
X13350200Y5147419D02*
Y5467419D01*
X11750200Y6138799D02*
X12070200D01*
X11910200Y5978799D02*
Y6298799D01*
X13190199Y6970179D02*
X13510201D01*
X13350200Y6810179D02*
Y7130179D01*
X12824200Y6138799D02*
X12916200D01*
X12870200Y6092799D02*
Y6184799D01*
X3277840Y7203080D02*
X3526760D01*
X3402300Y7078620D02*
Y7327540D01*
X3277840Y4155080D02*
X3526760D01*
X3402300Y4030620D02*
Y4279540D01*
X10770840Y7203080D02*
X11019760D01*
X10895300Y7078620D02*
Y7327540D01*
X10770840Y4155080D02*
X11019760D01*
X10895300Y4030620D02*
Y4279540D01*
X9870020Y7253880D02*
X9980020D01*
X9925020Y7198880D02*
Y7308880D01*
X9362020Y7253880D02*
X9472020D01*
X9417020Y7198880D02*
Y7308880D01*
X9108020Y7253880D02*
X9218020D01*
X9163020Y7198880D02*
Y7308880D01*
X9616020Y7253880D02*
X9726020D01*
X9671020Y7198880D02*
Y7308880D01*
X4076280Y7253880D02*
X4186280D01*
X4131280Y7198880D02*
Y7308880D01*
X4330280Y7253880D02*
X4440280D01*
X4385280Y7198880D02*
Y7308880D01*
X7886280Y7253880D02*
X7996280D01*
X7941280Y7198880D02*
Y7308880D01*
X6870280Y7253880D02*
X6980280D01*
X6925280Y7198880D02*
Y7308880D01*
X6616280Y7253880D02*
X6726280D01*
X6671280Y7198880D02*
Y7308880D01*
X6362280Y7253880D02*
X6472280D01*
X6417280Y7198880D02*
Y7308880D01*
X6108280Y7253880D02*
X6218280D01*
X6163280Y7198880D02*
Y7308880D01*
X5854280Y7253880D02*
X5964280D01*
X5909280Y7198880D02*
Y7308880D01*
X5600280Y7253880D02*
X5710280D01*
X5655280Y7198880D02*
Y7308880D01*
X5346280Y7253880D02*
X5456280D01*
X5401280Y7198880D02*
Y7308880D01*
X5092280Y7253880D02*
X5202280D01*
X5147280Y7198880D02*
Y7308880D01*
X4838280Y7253880D02*
X4948280D01*
X4893280Y7198880D02*
Y7308880D01*
X4584280Y7253880D02*
X4694280D01*
X4639280Y7198880D02*
Y7308880D01*
X7378280Y7253880D02*
X7488280D01*
X7433280Y7198880D02*
Y7308880D01*
X7124280Y7253880D02*
X7234280D01*
X7179280Y7198880D02*
Y7308880D01*
X7632280Y7253880D02*
X7742280D01*
X7687280Y7198880D02*
Y7308880D01*
X6824500Y9350200D02*
X6974500D01*
X6899500Y9275200D02*
Y9425200D01*
X6599500Y9300200D02*
X6699500D01*
X6649500Y9250200D02*
Y9350200D01*
X6099500Y9300200D02*
X6199500D01*
X6149500Y9250200D02*
Y9350200D01*
X6359500Y9800200D02*
X6439500D01*
X6399500Y9760200D02*
Y9840200D01*
X5824500Y9350200D02*
X5974500D01*
X5899500Y9275200D02*
Y9425200D01*
X6824500Y9925200D02*
X6974500D01*
X6899500Y9850200D02*
Y10000200D01*
X6949500Y9150200D02*
X7099500D01*
X7024500Y9075200D02*
Y9225200D01*
X6539500Y9900200D02*
X6699500D01*
X6619500Y9820200D02*
Y9980200D01*
X6099500Y9900200D02*
X6259500D01*
X6179500Y9820200D02*
Y9980200D01*
X5824500Y9925200D02*
X5974500D01*
X5899500Y9850200D02*
Y10000200D01*
X5699500Y9150200D02*
X5849500D01*
X5774500Y9075200D02*
Y9225200D01*
X6339500Y9300200D02*
X6459500D01*
X6399500Y9240200D02*
Y9360200D01*
X6599500Y8800200D02*
X6699500D01*
X6649500Y8750200D02*
Y8850200D01*
X6099500Y8800200D02*
X6199500D01*
X6149500Y8750200D02*
Y8850200D01*
X6349500Y8800200D02*
X6449500D01*
X6399500Y8750200D02*
Y8850200D01*
X5839500Y8800200D02*
X5959500D01*
X5899500Y8740200D02*
Y8860200D01*
X6839500Y8800200D02*
X6959500D01*
X6899500Y8740200D02*
Y8860200D01*
X12619520Y5839080D02*
X12699520D01*
X12659520Y5799080D02*
Y5879080D01*
X12869521Y5839080D02*
X12949519D01*
X12909520Y5799080D02*
Y5879080D01*
X13119521Y5839080D02*
X13199519D01*
X13159520Y5799080D02*
Y5879080D01*
X12619520Y5519080D02*
X12699520D01*
X12659520Y5479080D02*
Y5559080D01*
X12869521Y5519080D02*
X12949519D01*
X12909520Y5479080D02*
Y5559080D01*
X13119521Y5519080D02*
X13199519D01*
X13159520Y5479080D02*
Y5559080D01*
X480807Y5015000D02*
X807197D01*
X644002Y4851805D02*
Y5178195D01*
X2317370Y4637680D02*
X2432370D01*
X2374870Y4580180D02*
Y4695180D01*
X1809370Y4637680D02*
X1924370D01*
X1866870Y4580180D02*
Y4695180D01*
X1555370Y4637680D02*
X1670370D01*
X1612870Y4580180D02*
Y4695180D01*
X1301370Y4637680D02*
X1416370D01*
X1358870Y4580180D02*
Y4695180D01*
X2063370Y4637680D02*
X2178370D01*
X2120870Y4580180D02*
Y4695180D01*
X6933800Y2082440D02*
X7083800D01*
X7008800Y2007440D02*
Y2157440D01*
X7213800Y2082440D02*
X7363800D01*
X7288800Y2007440D02*
Y2157440D01*
X15609290Y6283980D02*
X15689288D01*
X15649289Y6243980D02*
Y6323980D01*
X15609290Y6533980D02*
X15689288D01*
X15649289Y6493980D02*
Y6573980D01*
X15609290Y7033980D02*
X15689288D01*
X15649289Y6993980D02*
Y7073980D01*
X15609290Y7283980D02*
X15689288D01*
X15649289Y7243980D02*
Y7323980D01*
X15589288Y6783980D02*
X15709290D01*
X15649289Y6723980D02*
Y6843980D01*
X15099289Y6533980D02*
X15199289D01*
X15149289Y6483980D02*
Y6583980D01*
X15099289Y6783980D02*
X15199289D01*
X15149289Y6733980D02*
Y6833980D01*
X15089288Y7283980D02*
X15209290D01*
X15149289Y7223980D02*
Y7343980D01*
X15089288Y6283980D02*
X15209290D01*
X15149289Y6223980D02*
Y6343980D01*
X16339288Y6283980D02*
X16459290D01*
X16399289Y6223980D02*
Y6343980D01*
X16089288Y6283980D02*
X16209290D01*
X16149289Y6223980D02*
Y6343980D01*
X16089288Y7283980D02*
X16209290D01*
X16149289Y7223980D02*
Y7343980D01*
X16339288Y7283980D02*
X16459290D01*
X16399289Y7223980D02*
Y7343980D01*
X15099289Y7033980D02*
X15199289D01*
X15149289Y6983980D02*
Y7083980D01*
X16109290Y6783980D02*
X16189288D01*
X16149289Y6743980D02*
Y6823980D01*
X14857310Y1077870D02*
X14967310D01*
X14912309Y1022870D02*
Y1132870D01*
X14603310Y1077870D02*
X14713310D01*
X14658310Y1022870D02*
Y1132870D01*
X14349310Y1077870D02*
X14459309D01*
X14404311Y1022870D02*
Y1132870D01*
X14095309Y1077870D02*
X14205310D01*
X14150310Y1022870D02*
Y1132870D01*
X9356700Y9800229D02*
X9436700D01*
X9396700Y9760229D02*
Y9840229D01*
X9856700Y9300230D02*
X9936700D01*
X9896700Y9260230D02*
Y9340229D01*
X9606700Y9300230D02*
X9686700D01*
X9646700Y9260230D02*
Y9340229D01*
X9106700Y9300230D02*
X9186700D01*
X9146700Y9260230D02*
Y9340229D01*
X8856700Y9300230D02*
X8936700D01*
X8896700Y9260230D02*
Y9340229D01*
X9336700Y9300230D02*
X9456700D01*
X9396700Y9240230D02*
Y9360229D01*
X9596700Y8800230D02*
X9696700D01*
X9646700Y8750230D02*
Y8850229D01*
X9096700Y8800230D02*
X9196700D01*
X9146700Y8750230D02*
Y8850229D01*
X9346700Y8800230D02*
X9446700D01*
X9396700Y8750230D02*
Y8850229D01*
X8836700Y8800230D02*
X8956700D01*
X8896700Y8740230D02*
Y8860229D01*
X9836700Y8800230D02*
X9956700D01*
X9896700Y8740230D02*
Y8860229D01*
X9836700Y10050229D02*
X9956700D01*
X9896700Y9990229D02*
Y10110229D01*
X9836700Y9800229D02*
X9956700D01*
X9896700Y9740229D02*
Y9860229D01*
X8836700Y9800229D02*
X8956700D01*
X8896700Y9740229D02*
Y9860229D01*
X8836700Y10050229D02*
X8956700D01*
X8896700Y9990229D02*
Y10110229D01*
X13038670Y831490D02*
X13148669D01*
X13093671Y776490D02*
Y886490D01*
X13292670Y831490D02*
X13402670D01*
X13347670Y776490D02*
Y886490D01*
X13292670Y1085490D02*
X13402670D01*
X13347670Y1030490D02*
Y1140490D01*
X13038670Y1085490D02*
X13148669D01*
X13093671Y1030490D02*
Y1140490D01*
X4860900Y9800230D02*
X4940900D01*
X4900900Y9760230D02*
Y9840230D01*
X5360900Y9300230D02*
X5440900D01*
X5400900Y9260230D02*
Y9340230D01*
X5110900Y9300230D02*
X5190900D01*
X5150900Y9260230D02*
Y9340230D01*
X4610900Y9300230D02*
X4690900D01*
X4650900Y9260230D02*
Y9340230D01*
X4360900Y9300230D02*
X4440900D01*
X4400900Y9260230D02*
Y9340230D01*
X4840900Y9300230D02*
X4960900D01*
X4900900Y9240230D02*
Y9360230D01*
X5100900Y8800230D02*
X5200900D01*
X5150900Y8750230D02*
Y8850230D01*
X4600900Y8800230D02*
X4700900D01*
X4650900Y8750230D02*
Y8850230D01*
X4850900Y8800230D02*
X4950900D01*
X4900900Y8750230D02*
Y8850230D01*
X4340900Y8800230D02*
X4460900D01*
X4400900Y8740230D02*
Y8860230D01*
X5340900Y8800230D02*
X5460900D01*
X5400900Y8740230D02*
Y8860230D01*
X5340900Y10050230D02*
X5460900D01*
X5400900Y9990230D02*
Y10110230D01*
X5340900Y9800230D02*
X5460900D01*
X5400900Y9740230D02*
Y9860230D01*
X4340900Y9800230D02*
X4460900D01*
X4400900Y9740230D02*
Y9860230D01*
X4340900Y10050230D02*
X4460900D01*
X4400900Y9990230D02*
Y10110230D01*
X10680040Y-2251410D02*
X10760040D01*
X10720040Y-2291410D02*
Y-2211410D01*
X10480040Y-2251410D02*
X10560040D01*
X10520040Y-2291410D02*
Y-2211410D01*
X10280040Y-2251410D02*
X10360040D01*
X10320040Y-2291410D02*
Y-2211410D01*
X10680040Y-2051410D02*
X10760040D01*
X10720040Y-2091410D02*
Y-2011410D01*
X10480040Y-2051410D02*
X10560040D01*
X10520040Y-2091410D02*
Y-2011410D01*
X10280040Y-2051410D02*
X10360040D01*
X10320040Y-2091410D02*
Y-2011410D01*
X10925040Y-2151410D02*
X11075040D01*
X11000040Y-2226410D02*
Y-2076410D01*
X9965040Y-2151410D02*
X10115040D01*
X10040040Y-2226410D02*
Y-2076410D01*
X3903800Y1334640D02*
X4043800D01*
X3973800Y1264640D02*
Y1404640D01*
X3903800Y2474640D02*
X4043800D01*
X3973800Y2404640D02*
Y2544640D01*
X4663800Y2154640D02*
X4783800D01*
X4723800Y2094640D02*
Y2214640D01*
X4663800Y1904640D02*
X4783800D01*
X4723800Y1844640D02*
Y1964640D01*
X4663800Y1654640D02*
X4783800D01*
X4723800Y1594640D02*
Y1714640D01*
X3213800Y2154640D02*
X3333800D01*
X3273800Y2094640D02*
Y2214640D01*
X3213800Y1654640D02*
X3333800D01*
X3273800Y1594640D02*
Y1714640D01*
X10253800Y2474640D02*
X10393800D01*
X10323800Y2404640D02*
Y2544640D01*
X10253800Y1334640D02*
X10393800D01*
X10323800Y1264640D02*
Y1404640D01*
X9513800Y1654640D02*
X9633800D01*
X9573800Y1594640D02*
Y1714640D01*
X9513800Y1904640D02*
X9633800D01*
X9573800Y1844640D02*
Y1964640D01*
X9513800Y2154640D02*
X9633800D01*
X9573800Y2094640D02*
Y2214640D01*
X10963800Y1654640D02*
X11083800D01*
X11023800Y1594640D02*
Y1714640D01*
X10963800Y2154640D02*
X11083800D01*
X11023800Y2094640D02*
Y2214640D01*
X8323100Y9350200D02*
X8473100D01*
X8398100Y9275200D02*
Y9425200D01*
X8098100Y9300200D02*
X8198100D01*
X8148100Y9250200D02*
Y9350200D01*
X7598100Y9300200D02*
X7698100D01*
X7648100Y9250200D02*
Y9350200D01*
X7858100Y9800200D02*
X7938100D01*
X7898100Y9760200D02*
Y9840200D01*
X7323100Y9350200D02*
X7473100D01*
X7398100Y9275200D02*
Y9425200D01*
X8323100Y9925200D02*
X8473100D01*
X8398100Y9850200D02*
Y10000200D01*
X8448100Y9150200D02*
X8598100D01*
X8523100Y9075200D02*
Y9225200D01*
X8038100Y9900200D02*
X8198100D01*
X8118100Y9820200D02*
Y9980200D01*
X7598100Y9900200D02*
X7758100D01*
X7678100Y9820200D02*
Y9980200D01*
X7323100Y9925200D02*
X7473100D01*
X7398100Y9850200D02*
Y10000200D01*
X7198100Y9150200D02*
X7348100D01*
X7273100Y9075200D02*
Y9225200D01*
X7838100Y9300200D02*
X7958100D01*
X7898100Y9240200D02*
Y9360200D01*
X8098100Y8800200D02*
X8198100D01*
X8148100Y8750200D02*
Y8850200D01*
X7598100Y8800200D02*
X7698100D01*
X7648100Y8750200D02*
Y8850200D01*
X7848100Y8800200D02*
X7948100D01*
X7898100Y8750200D02*
Y8850200D01*
X7338100Y8800200D02*
X7458100D01*
X7398100Y8740200D02*
Y8860200D01*
X8338100Y8800200D02*
X8458100D01*
X8398100Y8740200D02*
Y8860200D01*
X4964090Y-1617070D02*
X5084090D01*
X5024090Y-1677070D02*
Y-1557070D01*
X4710090Y-1617070D02*
X4830090D01*
X4770090Y-1677070D02*
Y-1557070D01*
X5218090Y-1871070D02*
X5338090D01*
X5278090Y-1931070D02*
Y-1811070D01*
X4964090Y-1871070D02*
X5084090D01*
X5024090Y-1931070D02*
Y-1811070D01*
X4710090Y-1871070D02*
X4830090D01*
X4770090Y-1931070D02*
Y-1811070D01*
X5218090Y-1617070D02*
X5338090D01*
X5278090Y-1677070D02*
Y-1557070D01*
X-1889530Y3294300D02*
X-1790470D01*
X-1840000Y3244770D02*
Y3343830D01*
X-1889530Y3497500D02*
X-1790470D01*
X-1840000Y3447970D02*
Y3547030D01*
X-1381530Y3395900D02*
X-1282470D01*
X-1332000Y3346370D02*
Y3445430D01*
X-125000Y0D02*
X125000D01*
X0Y-125000D02*
Y125000D01*
X-125000Y7800000D02*
X125000D01*
X0Y7675000D02*
Y7925000D01*
X14175000Y7800000D02*
X14425000D01*
X14300000Y7675000D02*
Y7925000D01*
X14175000Y0D02*
X14425000D01*
X14300000Y-125000D02*
Y125000D01*
X13017500Y1720000D02*
X13042500D01*
X13030000Y1707500D02*
Y1732500D01*
X15877499Y1910000D02*
X15902499D01*
X15889999Y1897500D02*
Y1922500D01*
X1087500Y-810000D02*
X1112500D01*
X1100000Y-822500D02*
Y-797500D01*
X2537500Y-1920000D02*
X2562500D01*
X2550000Y-1932500D02*
Y-1907500D01*
X1867500Y-1330000D02*
X1892500D01*
X1880000Y-1342500D02*
Y-1317500D01*
X297500Y-1410000D02*
X322500D01*
X310000Y-1422500D02*
Y-1397500D01*
X2567500Y-1720000D02*
X2592500D01*
X2580000Y-1732500D02*
Y-1707500D01*
X4747500Y1020000D02*
X4772500D01*
X4760000Y1007500D02*
Y1032500D01*
X4467500Y500000D02*
X4492500D01*
X4480000Y487500D02*
Y512500D01*
X4417500Y800000D02*
X4442500D01*
X4430000Y787500D02*
Y812500D01*
X4457500Y650000D02*
X4482500D01*
X4470000Y637500D02*
Y662500D01*
X4497500Y380000D02*
X4522500D01*
X4510000Y367500D02*
Y392500D01*
X4547500Y190000D02*
X4572500D01*
X4560000Y177500D02*
Y202500D01*
X4567500Y-20000D02*
X4592500D01*
X4580000Y-32500D02*
Y-7500D01*
X3687500Y190000D02*
X3712500D01*
X3700000Y177500D02*
Y202500D01*
X3877500Y-20000D02*
X3902500D01*
X3890000Y-32500D02*
Y-7500D01*
X13587500Y6350000D02*
X13612500D01*
X13600000Y6337500D02*
Y6362500D01*
X11507500Y7740000D02*
X11532500D01*
X11520000Y7727500D02*
Y7752500D01*
X8767500Y7740000D02*
X8792500D01*
X8780000Y7727500D02*
Y7752500D01*
X7377500Y8080000D02*
X7402500D01*
X7390000Y8067500D02*
Y8092500D01*
X7167500Y7560000D02*
X7192500D01*
X7180000Y7547500D02*
Y7572500D01*
X6487500Y7740000D02*
X6512500D01*
X6500000Y7727500D02*
Y7752500D01*
X4937500Y7750000D02*
X4962500D01*
X4950000Y7737500D02*
Y7762500D01*
X4187500Y7600000D02*
X4212500D01*
X4200000Y7587500D02*
Y7612500D01*
X5507500Y8220000D02*
X5532500D01*
X5520000Y8207500D02*
Y8232500D01*
X4637500Y8190000D02*
X4662500D01*
X4650000Y8177500D02*
Y8202500D01*
X2547500Y5740000D02*
X2572500D01*
X2560000Y5727500D02*
Y5752500D01*
X1747500Y5310000D02*
X1772500D01*
X1760000Y5297500D02*
Y5322500D01*
X1227500Y5290000D02*
X1252500D01*
X1240000Y5277500D02*
Y5302500D01*
X-192500Y3840000D02*
X-167500D01*
X-180000Y3827500D02*
Y3852500D01*
X-72500Y3550000D02*
X-47500D01*
X-60000Y3537500D02*
Y3562500D01*
X-662500Y3840000D02*
X-637500D01*
X-650000Y3827500D02*
Y3852500D01*
X-402500Y3850000D02*
X-377500D01*
X-390000Y3837500D02*
Y3862500D01*
X-122500Y-1431000D02*
X-97500D01*
X-110000Y-1443500D02*
Y-1418500D01*
X3217500Y-1310000D02*
X3242500D01*
X3230000Y-1322500D02*
Y-1297500D01*
X2087500Y-2040000D02*
X2112500D01*
X2100000Y-2052500D02*
Y-2027500D01*
X2717500Y-1350000D02*
X2742500D01*
X2730000Y-1362500D02*
Y-1337500D01*
X7927500Y-730000D02*
X7952500D01*
X7940000Y-742500D02*
Y-717500D01*
X7467500Y-570000D02*
X7492500D01*
X7480000Y-582500D02*
Y-557500D01*
X7207500Y-590000D02*
X7232500D01*
X7220000Y-602500D02*
Y-577500D01*
X6977500Y-470000D02*
X7002500D01*
X6990000Y-482500D02*
Y-457500D01*
X6947500Y-1090000D02*
X6972500D01*
X6960000Y-1102500D02*
Y-1077500D01*
X7207500Y-1050000D02*
X7232500D01*
X7220000Y-1062500D02*
Y-1037500D01*
X7427500Y-1060000D02*
X7452500D01*
X7440000Y-1072500D02*
Y-1047500D01*
X7617500Y-1370000D02*
X7642500D01*
X7630000Y-1382500D02*
Y-1357500D01*
X7327500Y-1730000D02*
X7352500D01*
X7340000Y-1742500D02*
Y-1717500D01*
X7367500Y-2350000D02*
X7392500D01*
X7380000Y-2362500D02*
Y-2337500D01*
X8977500Y-2340000D02*
X9002500D01*
X8990000Y-2352500D02*
Y-2327500D01*
X8297500Y-840000D02*
X8322500D01*
X8310000Y-852500D02*
Y-827500D01*
X8607500Y-910000D02*
X8632500D01*
X8620000Y-922500D02*
Y-897500D01*
X8837500Y-820000D02*
X8862500D01*
X8850000Y-832500D02*
Y-807500D01*
X9087500Y-840000D02*
X9112500D01*
X9100000Y-852500D02*
Y-827500D01*
X9317500Y-780000D02*
X9342500D01*
X9330000Y-792500D02*
Y-767500D01*
X9557500Y-720000D02*
X9582500D01*
X9570000Y-732500D02*
Y-707500D01*
X9157500Y3870000D02*
X9182500D01*
X9170000Y3857500D02*
Y3882500D01*
X10887500Y3870000D02*
X10912500D01*
X10900000Y3857500D02*
Y3882500D01*
X2967500Y3870000D02*
X2992500D01*
X2980000Y3857500D02*
Y3882500D01*
X15197501Y1180000D02*
X15222501D01*
X15210001Y1167500D02*
Y1192500D01*
X13307500Y1460000D02*
X13332500D01*
X13320000Y1447500D02*
Y1472500D01*
X13727499Y1200000D02*
X13752499D01*
X13739999Y1187500D02*
Y1212500D01*
X13227499Y5020000D02*
X13252499D01*
X13239999Y5007500D02*
Y5032500D01*
X12507500Y4720000D02*
X12532500D01*
X12520000Y4707500D02*
Y4732500D01*
X12367500Y4590000D02*
X12392500D01*
X12380000Y4577500D02*
Y4602500D01*
X12177500Y4350000D02*
X12202500D01*
X12190000Y4337500D02*
Y4362500D01*
X10707500Y2410000D02*
X10732500D01*
X10720000Y2397500D02*
Y2422500D01*
X11057500Y1890000D02*
X11082500D01*
X11070000Y1877500D02*
Y1902500D01*
X11097500Y2350000D02*
X11122500D01*
X11110000Y2337500D02*
Y2362500D01*
X-1372500Y4720000D02*
X-1347500D01*
X-1360000Y4707500D02*
Y4732500D01*
X-1221246Y4249423D02*
X-1196247D01*
X-1208747Y4236923D02*
Y4261923D01*
X-863648Y4178852D02*
X-838648D01*
X-851148Y4166352D02*
Y4191352D01*
X-1262500Y4300000D02*
X-1237500D01*
X-1250000Y4287500D02*
Y4312500D01*
X-1092500Y3690000D02*
X-1067500D01*
X-1080000Y3677500D02*
Y3702500D01*
X-1362500Y4030000D02*
X-1337500D01*
X-1350000Y4017500D02*
Y4042500D01*
X16047501Y470000D02*
X16072501D01*
X16060001Y457500D02*
Y482500D01*
X12757500Y1280000D02*
X12782500D01*
X12770000Y1267500D02*
Y1292500D01*
X12767500Y3330000D02*
X12792500D01*
X12780000Y3317500D02*
Y3342500D01*
X13767500Y3250000D02*
X13792500D01*
X13780000Y3237500D02*
Y3262500D01*
X14927499Y3370000D02*
X14952499D01*
X14939999Y3357500D02*
Y3382500D01*
X11817500Y5820000D02*
X11842500D01*
X11830000Y5807500D02*
Y5832500D01*
X14157500Y6960000D02*
X14182500D01*
X14170000Y6947500D02*
Y6972500D01*
X8347500Y9000000D02*
X8372500D01*
X8360000Y8987500D02*
Y9012500D01*
X9257500Y9060000D02*
X9282500D01*
X9270000Y9047500D02*
Y9072500D01*
X6247500Y9130000D02*
X6272500D01*
X6260000Y9117500D02*
Y9142500D01*
X5417500Y9100000D02*
X5442500D01*
X5430000Y9087500D02*
Y9112500D01*
X4107500Y8970000D02*
X4132500D01*
X4120000Y8957500D02*
Y8982500D01*
X1987500Y9730000D02*
X2012500D01*
X2000000Y9717500D02*
Y9742500D01*
X3017500Y8510000D02*
X3042500D01*
X3030000Y8497500D02*
Y8522500D01*
X2667500Y8410000D02*
X2692500D01*
X2680000Y8397500D02*
Y8422500D01*
X1357500Y8510000D02*
X1382500D01*
X1370000Y8497500D02*
Y8522500D01*
X287500Y8470000D02*
X312500D01*
X300000Y8457500D02*
Y8482500D01*
X1697500Y8900000D02*
X1722500D01*
X1710000Y8887500D02*
Y8912500D01*
X667500Y8900000D02*
X692500D01*
X680000Y8887500D02*
Y8912500D01*
X-652500Y7410000D02*
X-627500D01*
X-640000Y7397500D02*
Y7422500D01*
X-1892500Y6420000D02*
X-1867500D01*
X-1880000Y6407500D02*
Y6432500D01*
X-1192500Y6310000D02*
X-1167500D01*
X-1180000Y6297500D02*
Y6322500D01*
X-392500Y6560000D02*
X-367500D01*
X-380000Y6547500D02*
Y6572500D01*
X1177500Y6470000D02*
X1202500D01*
X1190000Y6457500D02*
Y6482500D01*
X487500Y6440000D02*
X512500D01*
X500000Y6427500D02*
Y6452500D01*
X2377500Y2110000D02*
X2402500D01*
X2390000Y2097500D02*
Y2122500D01*
X1977500Y2820000D02*
X2002500D01*
X1990000Y2807500D02*
Y2832500D01*
X1327500Y3290000D02*
X1352500D01*
X1340000Y3277500D02*
Y3302500D01*
X4427500Y2150000D02*
X4452500D01*
X4440000Y2137500D02*
Y2162500D01*
X4037500Y1810000D02*
X4062500D01*
X4050000Y1797500D02*
Y1822500D01*
X3277500Y2760000D02*
X3302500D01*
X3290000Y2747500D02*
Y2772500D01*
X3877500Y3520000D02*
X3902500D01*
X3890000Y3507500D02*
Y3532500D01*
X8177500Y2530000D02*
X8202500D01*
X8190000Y2517500D02*
Y2542500D01*
X9907500Y3110000D02*
X9932500D01*
X9920000Y3097500D02*
Y3122500D01*
X9937500Y2150000D02*
X9962500D01*
X9950000Y2137500D02*
Y2162500D01*
X10657500Y1650000D02*
X10682500D01*
X10670000Y1637500D02*
Y1662500D01*
X9917500Y720000D02*
X9942500D01*
X9930000Y707500D02*
Y732500D01*
X10477500Y280000D02*
X10502500D01*
X10490000Y267500D02*
Y292500D01*
X10387500Y-490000D02*
X10412500D01*
X10400000Y-502500D02*
Y-477500D01*
X10327500Y-1790000D02*
X10352500D01*
X10340000Y-1802500D02*
Y-1777500D01*
X10357500Y-1200000D02*
X10382500D01*
X10370000Y-1212500D02*
Y-1187500D01*
X14527499Y2140000D02*
X14552499D01*
X14539999Y2127500D02*
Y2152500D01*
X14537500Y2460000D02*
X14562500D01*
X14550000Y2447500D02*
Y2472500D01*
X14917500Y1270000D02*
X14942500D01*
X14930000Y1257500D02*
Y1282500D01*
X14127499Y1280000D02*
X14152499D01*
X14139999Y1267500D02*
Y1292500D01*
X14117500Y1630000D02*
X14142500D01*
X14130000Y1617500D02*
Y1642500D01*
X14907500Y1640000D02*
X14932500D01*
X14920000Y1627500D02*
Y1652500D01*
X-544778Y4535001D02*
X-504779D01*
X-524778Y4515001D02*
Y4555001D01*
X9916960Y-858749D02*
X9956960D01*
X9936960Y-878749D02*
Y-838749D01*
X10172310Y-1145900D02*
X10212310D01*
X10192310Y-1165900D02*
Y-1125900D01*
X9979780Y-1500000D02*
X10019780D01*
X9999780Y-1520000D02*
Y-1480000D01*
X9984780Y-1340000D02*
X10024780D01*
X10004780Y-1360000D02*
Y-1320000D01*
X12079779Y-997499D02*
X12119779D01*
X12099779Y-1017499D02*
Y-977499D01*
X12457500Y-820000D02*
X12482500D01*
X12470000Y-832500D02*
Y-807500D01*
X11717500Y-1140000D02*
X11742500D01*
X11730000Y-1152500D02*
Y-1127500D01*
X11727500Y-790000D02*
X11752500D01*
X11740000Y-802500D02*
Y-777500D01*
X12827499Y-1620000D02*
X12852499D01*
X12839999Y-1632500D02*
Y-1607500D01*
X14117500Y-930000D02*
X14142500D01*
X14130000Y-942500D02*
Y-917500D01*
X13447501Y-240000D02*
X13472501D01*
X13460001Y-252500D02*
Y-227500D01*
X16327499Y5410000D02*
X16352499D01*
X16339999Y5397500D02*
Y5422500D01*
X16337500Y4640000D02*
X16362500D01*
X16350000Y4627500D02*
Y4652500D01*
X16337500Y3900000D02*
X16362500D01*
X16350000Y3887500D02*
Y3912500D01*
X15977499Y4610000D02*
X16002499D01*
X15989999Y4597500D02*
Y4622500D01*
X15977499Y4980000D02*
X16002499D01*
X15989999Y4967500D02*
Y4992500D01*
X15987500Y5220000D02*
X16012500D01*
X16000000Y5207500D02*
Y5232500D01*
X14537500Y5510000D02*
X14562500D01*
X14550000Y5497500D02*
Y5522500D01*
X14397501Y5410000D02*
X14422501D01*
X14410001Y5397500D02*
Y5422500D01*
X14677499Y5410000D02*
X14702499D01*
X14689999Y5397500D02*
Y5422500D01*
X14307500Y5140000D02*
X14332500D01*
X14320000Y5127500D02*
Y5152500D01*
X14557500Y5130000D02*
X14582500D01*
X14570000Y5117500D02*
Y5142500D01*
X15007500Y4960000D02*
X15032500D01*
X15020000Y4947500D02*
Y4972500D01*
X14107500Y4950000D02*
X14132500D01*
X14120000Y4937500D02*
Y4962500D01*
X13367500Y4660000D02*
X13392500D01*
X13380000Y4647500D02*
Y4672500D01*
X13200980Y4343400D02*
X13225980D01*
X13213480Y4330900D02*
Y4355900D01*
X13848650Y4397650D02*
X13873650D01*
X13861150Y4385150D02*
Y4410150D01*
X13839999Y3590000D02*
X13880000D01*
X13860001Y3570000D02*
Y3610000D01*
X2081730Y-2471329D02*
X2121730D01*
X2101730Y-2491329D02*
Y-2451329D01*
X3126290Y-2371329D02*
X3166290D01*
X3146290Y-2391329D02*
Y-2351329D01*
X6544400Y-384770D02*
X6584400D01*
X6564400Y-404770D02*
Y-364770D01*
X6061990Y-361640D02*
X6101990D01*
X6081990Y-381640D02*
Y-341640D01*
X9327591Y139930D02*
X9367591D01*
X9347591Y119930D02*
Y159930D01*
X7950000Y140000D02*
X7990000D01*
X7970000Y120000D02*
Y160000D01*
X7194420Y136450D02*
X7234420D01*
X7214420Y116450D02*
Y156450D01*
X8957590Y275150D02*
X8997590D01*
X8977590Y255150D02*
Y295150D01*
X9297617Y600199D02*
X9322617D01*
X9310117Y587699D02*
Y612699D01*
X15200000Y5150000D02*
X15239999D01*
X15220000Y5130000D02*
Y5170000D01*
X6060000Y-770000D02*
X6100000D01*
X6080000Y-790000D02*
Y-750000D01*
X16021838Y5967869D02*
X16061839D01*
X16041840Y5947869D02*
Y5987869D01*
X15387500Y6070000D02*
X15412500D01*
X15400000Y6057500D02*
Y6082500D01*
X3314121Y8154000D02*
X3339121D01*
X3326621Y8141500D02*
Y8166500D01*
X1617500Y8410000D02*
X1642500D01*
X1630000Y8397500D02*
Y8422500D01*
X300605Y7266000D02*
X325604D01*
X313105Y7253500D02*
Y7278500D01*
X697500Y-1690000D02*
X722500D01*
X710000Y-1702500D02*
Y-1677500D01*
X-122500Y-1050000D02*
X-97500D01*
X-110000Y-1062500D02*
Y-1037500D01*
X710000Y-1560000D02*
X750000D01*
X730000Y-1580000D02*
Y-1540000D01*
X633120Y-449950D02*
X658120D01*
X645620Y-462450D02*
Y-437450D01*
X15238400Y3659781D02*
X15263400D01*
X15250900Y3647281D02*
Y3672280D01*
X15240849Y3502301D02*
X15265849D01*
X15253349Y3489801D02*
Y3514800D01*
X14787500Y3850000D02*
X14812500D01*
X14800000Y3837500D02*
Y3862500D01*
X14307500Y3840000D02*
X14332500D01*
X14320000Y3827500D02*
Y3852500D01*
X15020000Y3960000D02*
X15060001D01*
X15039999Y3940000D02*
Y3980000D01*
X13422501Y4287500D02*
X13462500D01*
X13442500Y4267500D02*
Y4307500D01*
X15400000Y4250000D02*
X15439999D01*
X15420000Y4230000D02*
Y4270000D01*
X13007500Y4440000D02*
X13032500D01*
X13020000Y4427500D02*
Y4452500D01*
X13230603Y4628032D02*
X13270602D01*
X13250603Y4608032D02*
Y4648032D01*
X13487500Y4780000D02*
X13512500D01*
X13500000Y4767500D02*
Y4792500D01*
X13539433Y4859433D02*
X13579433D01*
X13559433Y4839433D02*
Y4879433D01*
X12957500Y5260000D02*
X12982500D01*
X12970000Y5247500D02*
Y5272500D01*
X12839999Y5160000D02*
X12880000D01*
X12860001Y5140000D02*
Y5180000D01*
X11147500Y3760000D02*
X11172500D01*
X11160000Y3747500D02*
Y3772500D01*
X11480000Y4010000D02*
X11520000D01*
X11500000Y3990000D02*
Y4030000D01*
X11490000Y4330000D02*
X11530000D01*
X11510000Y4310000D02*
Y4350000D01*
X-2072500Y2100000D02*
X-2047500D01*
X-2060000Y2087500D02*
Y2112500D01*
X-2072500Y2350000D02*
X-2047500D01*
X-2060000Y2337500D02*
Y2362500D01*
X-2072500Y2220000D02*
X-2047500D01*
X-2060000Y2207500D02*
Y2232500D01*
X10687500Y2990000D02*
X10712500D01*
X10700000Y2977500D02*
Y3002500D01*
X13668250Y970000D02*
X13731750D01*
X13700000Y938250D02*
Y1001750D01*
X12419780Y247500D02*
X12459780D01*
X12439780Y227500D02*
Y267500D01*
X2275162Y7374108D02*
X2300162D01*
X2287662Y7361609D02*
Y7386608D01*
X12200000Y5897060D02*
X12240000D01*
X12220000Y5877060D02*
Y5917060D01*
X11950000Y5820000D02*
X11990000D01*
X11970000Y5800000D02*
Y5840000D01*
X13459779Y6150000D02*
X13499780D01*
X13479781Y6130000D02*
Y6170000D01*
X13469838Y6015060D02*
X13509837D01*
X13489838Y5995060D02*
Y6035060D01*
X13594051Y5503820D02*
X13634050D01*
X13614050Y5483820D02*
Y5523820D01*
X13459779Y5730000D02*
X13499780D01*
X13479781Y5710000D02*
Y5750000D01*
X13449998Y4940032D02*
X13489999D01*
X13470000Y4920032D02*
Y4960031D01*
X13459779Y5870000D02*
X13499780D01*
X13479781Y5850000D02*
Y5890000D01*
X12352878Y7125378D02*
X12377878D01*
X12365378Y7112878D02*
Y7137878D01*
X13929532Y5194670D02*
X13954532D01*
X13942032Y5182170D02*
Y5207170D01*
X15811031Y4532270D02*
X15851030D01*
X15831030Y4512270D02*
Y4552270D01*
X15808490Y4707530D02*
X15848489D01*
X15828490Y4687530D02*
Y4727530D01*
X15807768Y4877712D02*
X15847768D01*
X15827768Y4857712D02*
Y4897712D01*
X15950391Y4276829D02*
X15990392D01*
X15970390Y4256829D02*
Y4296829D01*
X15480000Y3100000D02*
X15520000D01*
X15500000Y3080000D02*
Y3120000D01*
X15100000Y3010000D02*
X15139999D01*
X15120000Y2990000D02*
Y3030000D01*
X10694780Y850000D02*
X10734780D01*
X10714780Y830000D02*
Y870000D01*
X10694780Y980000D02*
X10734780D01*
X10714780Y960000D02*
Y1000000D01*
X12937500Y2640000D02*
X12962500D01*
X12950000Y2627500D02*
Y2652500D01*
X13007500Y2330000D02*
X13032500D01*
X13020000Y2317500D02*
Y2342500D01*
X13137500Y2440000D02*
X13162500D01*
X13150000Y2427500D02*
Y2452500D01*
X13247501Y2560000D02*
X13272501D01*
X13260001Y2547500D02*
Y2572500D01*
X8637500Y950000D02*
X8662500D01*
X8650000Y937500D02*
Y962500D01*
X8216352Y1101148D02*
X8241352D01*
X8228852Y1088648D02*
Y1113648D01*
X8934780Y1650000D02*
X8974780D01*
X8954780Y1630000D02*
Y1670000D01*
X8944780Y1480000D02*
X8984780D01*
X8964780Y1460000D02*
Y1500000D01*
X8934780Y1980000D02*
X8974780D01*
X8954780Y1960000D02*
Y2000000D01*
X13950000Y3320000D02*
X13989999D01*
X13970000Y3300000D02*
Y3340000D01*
X14836430Y3480710D02*
X14876430D01*
X14856430Y3460710D02*
Y3500710D01*
X2750000Y-1950000D02*
X2790000D01*
X2770000Y-1970000D02*
Y-1930000D01*
X15850000Y5470000D02*
X15889999D01*
X15870000Y5450000D02*
Y5490000D01*
X11210000Y870000D02*
X11250000D01*
X11230000Y850000D02*
Y890000D01*
X11429310Y875560D02*
X11469310D01*
X11449310Y855560D02*
Y895560D01*
X11211690Y1018220D02*
X11251690D01*
X11231690Y998220D02*
Y1038220D01*
X11209150Y1168080D02*
X11249150D01*
X11229150Y1148080D02*
Y1188080D01*
X1932940Y7744460D02*
X2004060D01*
X1968500Y7708900D02*
Y7780020D01*
X5740338Y-290965D02*
X5780338D01*
X5760338Y-310965D02*
Y-270965D01*
X13862340Y3153050D02*
X13902341D01*
X13882339Y3133050D02*
Y3173050D01*
X14245880Y3465737D02*
X14285880D01*
X14265880Y3445737D02*
Y3485737D01*
X2737531Y-484706D02*
X2777531D01*
X2757531Y-504706D02*
Y-464706D01*
X743240Y-796650D02*
X783240D01*
X763240Y-816650D02*
Y-776650D01*
X1157260Y-1048110D02*
X1197260D01*
X1177260Y-1068110D02*
Y-1028110D01*
X1143290Y-1294490D02*
X1183290D01*
X1163290Y-1314490D02*
Y-1274490D01*
X1134400Y-1556110D02*
X1174400D01*
X1154400Y-1576110D02*
Y-1536110D01*
X11136920Y2990490D02*
X11176920D01*
X11156920Y2970490D02*
Y3010490D01*
X-1470000Y3225000D02*
X-1445000D01*
X-1457500Y3212500D02*
Y3237500D01*
X-569050Y4814996D02*
X-530950D01*
X-550000Y4795946D02*
Y4834046D01*
X4899030Y8266360D02*
X4939030D01*
X4919030Y8246360D02*
Y8286360D01*
X3200321Y8923241D02*
X3240321D01*
X3220321Y8903241D02*
Y8943241D01*
X8227500Y8160000D02*
X8252500D01*
X8240000Y8147500D02*
Y8172500D01*
X8087500Y8160000D02*
X8112500D01*
X8100000Y8147500D02*
Y8172500D01*
X6177500Y8160000D02*
X6202500D01*
X6190000Y8147500D02*
Y8172500D01*
X6317500Y8160000D02*
X6342500D01*
X6330000Y8147500D02*
Y8172500D01*
X5230000Y7742940D02*
X5270000D01*
X5250000Y7722940D02*
Y7762940D01*
X8927500Y8150000D02*
X8952500D01*
X8940000Y8137500D02*
Y8162500D01*
X7017500Y8150000D02*
X7042500D01*
X7030000Y8137500D02*
Y8162500D01*
X5247500Y1660000D02*
X5272500D01*
X5260000Y1647500D02*
Y1672500D01*
X5257500Y2150000D02*
X5282500D01*
X5270000Y2137500D02*
Y2162500D01*
X2681280Y1640000D02*
X2721280D01*
X2701280Y1620000D02*
Y1660000D01*
X16007500Y3620000D02*
X16032500D01*
X16020000Y3607500D02*
Y3632500D01*
X16007500Y3300000D02*
X16032500D01*
X16020000Y3287500D02*
Y3312500D01*
X16007500Y3460000D02*
X16032500D01*
X16020000Y3447500D02*
Y3472500D01*
X15780000Y5510000D02*
X15820000D01*
X15800000Y5490000D02*
Y5530000D01*
X15675890Y5387161D02*
X15715889D01*
X15695889Y5367161D02*
Y5407161D01*
X-1090990Y4050000D02*
X-1065991D01*
X-1078490Y4037500D02*
Y4062500D01*
X427500Y3302700D02*
X452500D01*
X440000Y3290200D02*
Y3315200D01*
X8944780Y2140000D02*
X8984780D01*
X8964780Y2120000D02*
Y2160000D01*
X277500Y5979600D02*
X302500D01*
X290000Y5967100D02*
Y5992100D01*
X-182500Y4680000D02*
X-157500D01*
X-170000Y4667500D02*
Y4692500D01*
X-1662500Y3530000D02*
X-1637500D01*
X-1650000Y3517500D02*
Y3542500D01*
X15675890Y5670000D02*
X15715889D01*
X15695889Y5650000D02*
Y5690000D01*
X14789999Y5290000D02*
X14830000D01*
X14810001Y5270000D02*
Y5310000D01*
X15210001Y5240000D02*
X15250000D01*
X15230000Y5220000D02*
Y5260000D01*
X14930000Y5770000D02*
X14970000D01*
X14950000Y5750000D02*
Y5790000D01*
X15839999Y5100000D02*
X15880000D01*
X15860001Y5080000D02*
Y5120000D01*
X15320000Y5520000D02*
X15360001D01*
X15339999Y5500000D02*
Y5540000D01*
X14089999Y4390000D02*
X14130000D01*
X14110001Y4370000D02*
Y4410000D01*
X14950760Y2138570D02*
X14990759D01*
X14970760Y2118570D02*
Y2158570D01*
X2717501Y1789999D02*
X2742500D01*
X2730001Y1777500D02*
Y1802499D01*
X427500Y3640000D02*
X452500D01*
X440000Y3627500D02*
Y3652500D01*
X2817500Y3388650D02*
X2842500D01*
X2830000Y3376150D02*
Y3401150D01*
X5247500Y2000000D02*
X5272500D01*
X5260000Y1987500D02*
Y2012500D01*
X5247500Y1910000D02*
X5272500D01*
X5260000Y1897500D02*
Y1922500D01*
X5247500Y1810000D02*
X5272500D01*
X5260000Y1797500D02*
Y1822500D01*
X1347500Y6220000D02*
X1372500D01*
X1360000Y6207500D02*
Y6232500D01*
X837500Y5790000D02*
X862500D01*
X850000Y5777500D02*
Y5802500D01*
X1357500Y6147300D02*
X1382500D01*
X1370000Y6134800D02*
Y6159800D01*
X3427500Y9139999D02*
X3452500D01*
X3440000Y9127499D02*
Y9152499D01*
X5897500Y8150000D02*
X5922500D01*
X5910000Y8137500D02*
Y8162500D01*
X7807500Y8150000D02*
X7832500D01*
X7820000Y8137500D02*
Y8162500D01*
X1030000Y3130000D02*
X1070000D01*
X1050000Y3110000D02*
Y3150000D01*
X637500Y3700000D02*
X662500D01*
X650000Y3687500D02*
Y3712500D01*
X807500Y2790000D02*
X832500D01*
X820000Y2777500D02*
Y2802500D01*
X1110000Y2430000D02*
X1150000D01*
X1130000Y2410000D02*
Y2450000D01*
X427500Y3370000D02*
X452500D01*
X440000Y3357500D02*
Y3382500D01*
X427500Y3240000D02*
X452500D01*
X440000Y3227500D02*
Y3252500D01*
X-1292500Y4710000D02*
X-1267500D01*
X-1280000Y4697500D02*
Y4722500D01*
X290000Y4040000D02*
X330000D01*
X310000Y4020000D02*
Y4060000D01*
X230000Y3920000D02*
X270000D01*
X250000Y3900000D02*
Y3940000D01*
X360000Y3870000D02*
X400000D01*
X380000Y3850000D02*
Y3890000D01*
X3131622Y8010400D02*
X3171622D01*
X3151622Y7990400D02*
Y8030400D01*
X10216170Y7862191D02*
X10256170D01*
X10236170Y7842191D02*
Y7882191D01*
X4890000Y7940400D02*
X4930000D01*
X4910000Y7920400D02*
Y7960400D01*
X4650000Y7880000D02*
X4690000D01*
X4670000Y7860000D02*
Y7900000D01*
X6597500Y8160000D02*
X6622500D01*
X6610000Y8147500D02*
Y8172500D01*
X6737500Y8160000D02*
X6762500D01*
X6750000Y8147500D02*
Y8172500D01*
X8647500Y8160000D02*
X8672500D01*
X8660000Y8147500D02*
Y8172500D01*
X8507500Y8160000D02*
X8532500D01*
X8520000Y8147500D02*
Y8172500D01*
X2897900Y6710000D02*
X2922900D01*
X2910400Y6697500D02*
Y6722500D01*
X-723700Y5735320D02*
X-698700D01*
X-711200Y5722820D02*
Y5747820D01*
X-733860Y5646420D02*
X-708860D01*
X-721360Y5633920D02*
Y5658920D01*
X335480Y5737860D02*
X360480D01*
X347980Y5725360D02*
Y5750360D01*
X-750093Y5871643D02*
X-725093D01*
X-737593Y5859143D02*
Y5884143D01*
X-810060Y5740400D02*
X-785060D01*
X-797560Y5727900D02*
Y5752900D01*
X187645Y5292460D02*
X212644D01*
X200145Y5279960D02*
Y5304960D01*
X7500Y5290000D02*
X32500D01*
X20000Y5277500D02*
Y5302500D01*
X359528Y5277972D02*
X384528D01*
X372028Y5265472D02*
Y5290472D01*
X447240Y5552440D02*
X472240D01*
X459740Y5539940D02*
Y5564940D01*
X1468320Y5450840D02*
X1493320D01*
X1480820Y5438340D02*
Y5463340D01*
X1577900Y5060000D02*
X1602900D01*
X1590400Y5047500D02*
Y5072500D01*
X507500Y5600000D02*
X532500D01*
X520000Y5587500D02*
Y5612500D01*
X-532500Y5130000D02*
X-507500D01*
X-520000Y5117500D02*
Y5142500D01*
X-832500Y5140000D02*
X-807500D01*
X-820000Y5127500D02*
Y5152500D01*
X97500Y4970000D02*
X122500D01*
X110000Y4957500D02*
Y4982500D01*
X-32500Y4910000D02*
X-7500D01*
X-20000Y4897500D02*
Y4922500D01*
X557500Y5740000D02*
X582500D01*
X570000Y5727500D02*
Y5752500D01*
X-462500Y5920400D02*
X-437500D01*
X-450000Y5907900D02*
Y5932900D01*
X3387500Y6160000D02*
X3412500D01*
X3400000Y6147500D02*
Y6172500D01*
X3417500Y6790000D02*
X3442500D01*
X3430000Y6777500D02*
Y6802500D01*
X960000Y5080000D02*
X1000000D01*
X980000Y5060000D02*
Y5100000D01*
X2058648Y6678852D02*
X2083648D01*
X2071148Y6666352D02*
Y6691352D01*
X2227900Y8364220D02*
X2267900D01*
X2247900Y8344220D02*
Y8384220D01*
X1517500Y6620000D02*
X1542500D01*
X1530000Y6607500D02*
Y6632500D01*
X2237500Y8960000D02*
X2262500D01*
X2250000Y8947500D02*
Y8972500D01*
X4410000Y7790000D02*
X4450000D01*
X4430000Y7770000D02*
Y7810000D01*
X3387500Y8310000D02*
X3412500D01*
X3400000Y8297500D02*
Y8322500D01*
X1760000Y7800000D02*
X1800000D01*
X1780000Y7780000D02*
Y7820000D01*
X757500Y5790000D02*
X782500D01*
X770000Y5777500D02*
Y5802500D01*
X-532500Y5490000D02*
X-507500D01*
X-520000Y5477500D02*
Y5502500D01*
X741270Y7372896D02*
X781270D01*
X761270Y7352896D02*
Y7392896D01*
X-913648Y5761148D02*
X-888648D01*
X-901148Y5748648D02*
Y5773648D01*
X-972500Y5860000D02*
X-947500D01*
X-960000Y5847500D02*
Y5872500D01*
X-182500Y6430000D02*
X-157500D01*
X-170000Y6417500D02*
Y6442500D01*
X216190Y7024010D02*
X256190D01*
X236190Y7004010D02*
Y7044010D01*
X2523648Y6033852D02*
X2548648D01*
X2536148Y6021352D02*
Y6046352D01*
X2078648Y5478852D02*
X2103648D01*
X2091148Y5466352D02*
Y5491352D01*
X14230695Y4743036D02*
X14270694D01*
X14250694Y4723037D02*
Y4763036D01*
X14623070Y4721500D02*
X14663071D01*
X14643069Y4701500D02*
Y4741500D01*
X15291249Y4397447D02*
X15331248D01*
X15311249Y4377447D02*
Y4417447D01*
X14536710Y3841390D02*
X14576711D01*
X14556709Y3821390D02*
Y3861390D01*
X15444849Y4111437D02*
X15484850D01*
X15464848Y4091437D02*
Y4131436D01*
X13755630Y4607171D02*
X13795631D01*
X13775632Y4587171D02*
Y4627171D01*
X12996260Y4316370D02*
X13036259D01*
X13016260Y4296370D02*
Y4336370D01*
X12969560Y4104640D02*
X13009560D01*
X12989560Y4084640D02*
Y4124640D01*
X13746620Y4197910D02*
X13786620D01*
X13766620Y4177910D02*
Y4217910D01*
X11490000Y4170000D02*
X11530000D01*
X11510000Y4150000D02*
Y4190000D01*
X15797501Y3160000D02*
X15822501D01*
X15810001Y3147500D02*
Y3172500D01*
X15409081Y2758080D02*
X15434081D01*
X15421581Y2745580D02*
Y2770580D01*
X15017500Y2570000D02*
X15042500D01*
X15030000Y2557500D02*
Y2582500D01*
X11747500Y2740000D02*
X11772500D01*
X11760000Y2727500D02*
Y2752500D01*
X11367500Y1600000D02*
X11392500D01*
X11380000Y1587500D02*
Y1612500D01*
X11727500Y1600000D02*
X11752500D01*
X11740000Y1587500D02*
Y1612500D01*
X12017500Y1600000D02*
X12042500D01*
X12030000Y1587500D02*
Y1612500D01*
X12437500Y970000D02*
X12462500D01*
X12450000Y957500D02*
Y982500D01*
X12097500Y320000D02*
X12122500D01*
X12110000Y307500D02*
Y332500D01*
X11147500Y-380000D02*
X11172500D01*
X11160000Y-392500D02*
Y-367500D01*
X10687500Y-1710000D02*
X10712500D01*
X10700000Y-1722500D02*
Y-1697500D01*
X9867500Y-1810000D02*
X9892500D01*
X9880000Y-1822500D02*
Y-1797500D01*
X-752500Y6770000D02*
X-727500D01*
X-740000Y6757500D02*
Y6782500D01*
X1397500Y7700000D02*
X1422500D01*
X1410000Y7687500D02*
Y7712500D01*
X2847500Y7900000D02*
X2872500D01*
X2860000Y7887500D02*
Y7912500D01*
X12367500Y8580000D02*
X12392500D01*
X12380000Y8567500D02*
Y8592500D01*
X13777499Y8540000D02*
X13802499D01*
X13789999Y8527500D02*
Y8552500D01*
X15007500Y8010000D02*
X15032500D01*
X15020000Y7997500D02*
Y8022500D01*
X12167500Y7610000D02*
X12192500D01*
X12180000Y7597500D02*
Y7622500D01*
X12927499Y6970000D02*
X12952499D01*
X12939999Y6957500D02*
Y6982500D01*
X11167500Y8310000D02*
X11192500D01*
X11180000Y8297500D02*
Y8322500D01*
X10927500Y8310000D02*
X10952500D01*
X10940000Y8297500D02*
Y8322500D01*
X11587500Y7020000D02*
X11612500D01*
X11600000Y7007500D02*
Y7032500D01*
X11757500Y5360000D02*
X11782500D01*
X11770000Y5347500D02*
Y5372500D01*
X11387500Y5790000D02*
X11412500D01*
X11400000Y5777500D02*
Y5802500D01*
X11357500Y5240000D02*
X11382500D01*
X11370000Y5227500D02*
Y5252500D01*
X10477500Y4060000D02*
X10502500D01*
X10490000Y4047500D02*
Y4072500D01*
X10907500Y4640000D02*
X10932500D01*
X10920000Y4627500D02*
Y4652500D01*
X12597500Y4150000D02*
X12622500D01*
X12610000Y4137500D02*
Y4162500D01*
X11527500Y3250000D02*
X11552500D01*
X11540000Y3237500D02*
Y3262500D01*
X8647500Y3020000D02*
X8672500D01*
X8660000Y3007500D02*
Y3032500D01*
X-1202500Y1160000D02*
X-1177500D01*
X-1190000Y1147500D02*
Y1172500D01*
X-512500Y2060000D02*
X-487500D01*
X-500000Y2047500D02*
Y2072500D01*
X507500Y520000D02*
X532500D01*
X520000Y507500D02*
Y532500D01*
X1557500Y-240000D02*
X1582500D01*
X1570000Y-252500D02*
Y-227500D01*
X1947500Y350000D02*
X1972500D01*
X1960000Y337500D02*
Y362500D01*
X1927500Y180000D02*
X1952500D01*
X1940000Y167500D02*
Y192500D01*
X517500Y1780000D02*
X542500D01*
X530000Y1767500D02*
Y1792500D01*
X407500Y1710000D02*
X432500D01*
X420000Y1697500D02*
Y1722500D01*
X57500Y2080000D02*
X82500D01*
X70000Y2067500D02*
Y2092500D01*
X-182500Y4820000D02*
X-157500D01*
X-170000Y4807500D02*
Y4832500D01*
X-322500Y4390000D02*
X-297500D01*
X-310000Y4377500D02*
Y4402500D01*
X2707500Y4240000D02*
X2732500D01*
X2720000Y4227500D02*
Y4252500D01*
X2937500Y4770000D02*
X2962500D01*
X2950000Y4757500D02*
Y4782500D01*
X3277500Y5030000D02*
X3302500D01*
X3290000Y5017500D02*
Y5042500D01*
X2107500Y5040000D02*
X2132500D01*
X2120000Y5027500D02*
Y5052500D01*
X1227500Y3940000D02*
X1252500D01*
X1240000Y3927500D02*
Y3952500D01*
X127500Y4430000D02*
X152500D01*
X140000Y4417500D02*
Y4442500D01*
X237500Y4850000D02*
X262500D01*
X250000Y4837500D02*
Y4862500D01*
X517500Y4580000D02*
X542500D01*
X530000Y4567500D02*
Y4592500D01*
X787500Y4700000D02*
X812500D01*
X800000Y4687500D02*
Y4712500D01*
X377500Y4950000D02*
X402500D01*
X390000Y4937500D02*
Y4962500D01*
X-1692500Y4950000D02*
X-1667500D01*
X-1680000Y4937500D02*
Y4962500D01*
X-1692500Y5070000D02*
X-1667500D01*
X-1680000Y5057500D02*
Y5082500D01*
X-1112500Y5010000D02*
X-1087500D01*
X-1100000Y4997500D02*
Y5022500D01*
X-902500Y4830000D02*
X-877500D01*
X-890000Y4817500D02*
Y4842500D01*
X-902500Y5050000D02*
X-877500D01*
X-890000Y5037500D02*
Y5062500D01*
X-902500Y5220000D02*
X-877500D01*
X-890000Y5207500D02*
Y5232500D01*
X-1852500Y860000D02*
X-1827500D01*
X-1840000Y847500D02*
Y872500D01*
X-512500Y850000D02*
X-487500D01*
X-500000Y837500D02*
Y862500D01*
X2237500Y700000D02*
X2262500D01*
X2250000Y687500D02*
Y712500D01*
X1247500Y1560000D02*
X1272500D01*
X1260000Y1547500D02*
Y1572500D01*
X5537500Y1410000D02*
X5562500D01*
X5550000Y1397500D02*
Y1422500D01*
X6197500Y1590000D02*
X6222500D01*
X6210000Y1577500D02*
Y1602500D01*
X5467500Y3250000D02*
X5492500D01*
X5480000Y3237500D02*
Y3262500D01*
X6267500Y3250000D02*
X6292500D01*
X6280000Y3237500D02*
Y3262500D01*
X7757500Y610000D02*
X7782500D01*
X7770000Y597500D02*
Y622500D01*
X8857500Y760000D02*
X8882500D01*
X8870000Y747500D02*
Y772500D01*
X6797500Y800000D02*
X6822500D01*
X6810000Y787500D02*
Y812500D01*
X6637500Y-10000D02*
X6662500D01*
X6650000Y-22500D02*
Y2500D01*
X6657500Y510000D02*
X6682500D01*
X6670000Y497500D02*
Y522500D01*
X6647500Y370000D02*
X6672500D01*
X6660000Y357500D02*
Y382500D01*
X6757500Y210000D02*
X6782500D01*
X6770000Y197500D02*
Y222500D01*
X5857500Y790000D02*
X5882500D01*
X5870000Y777500D02*
Y802500D01*
X5857500Y660000D02*
X5882500D01*
X5870000Y647500D02*
Y672500D01*
X5857500Y510000D02*
X5882500D01*
X5870000Y497500D02*
Y522500D01*
X5857500Y370000D02*
X5882500D01*
X5870000Y357500D02*
Y382500D01*
X5857500Y190000D02*
X5882500D01*
X5870000Y177500D02*
Y202500D01*
X5897500Y-20000D02*
X5922500D01*
X5910000Y-32500D02*
Y-7500D01*
X3207500Y370000D02*
X3232500D01*
X3220000Y357500D02*
Y382500D01*
X2477500Y190000D02*
X2502500D01*
X2490000Y177500D02*
Y202500D01*
X2477500Y-10000D02*
X2502500D01*
X2490000Y-22500D02*
Y2500D01*
X2477500Y-170000D02*
X2502500D01*
X2490000Y-182500D02*
Y-157500D01*
X12607500Y-885000D02*
X12632500D01*
X12620000Y-897500D02*
Y-872500D01*
X12697500Y-885000D02*
X12722500D01*
X12710000Y-897500D02*
Y-872500D01*
X12787500Y-885000D02*
X12812500D01*
X12800000Y-897500D02*
Y-872500D01*
X12787500Y-795000D02*
X12812500D01*
X12800000Y-807500D02*
Y-782500D01*
X12697500Y-795000D02*
X12722500D01*
X12710000Y-807500D02*
Y-782500D01*
X12607500Y-795000D02*
X12632500D01*
X12620000Y-807500D02*
Y-782500D01*
X15287500Y2460000D02*
X15312500D01*
X15300000Y2447500D02*
Y2472500D01*
X13737500Y2480000D02*
X13762500D01*
X13750000Y2467500D02*
Y2492500D01*
X14037500Y2810000D02*
X14062500D01*
X14050000Y2797500D02*
Y2822500D01*
X13386659Y1850000D02*
X13493340D01*
X13439999Y1796660D02*
Y1903340D01*
X8261640Y266900D02*
X8301640D01*
X8281640Y246900D02*
Y286900D01*
X2950000Y-1920000D02*
X2990000D01*
X2970000Y-1940000D02*
Y-1900000D01*
X320000Y-1070000D02*
X360000D01*
X340000Y-1090000D02*
Y-1050000D01*
X15210001Y1420000D02*
X15250000D01*
X15230000Y1400000D02*
Y1440000D01*
X13700000Y1550000D02*
X13739999D01*
X13720000Y1530000D02*
Y1570000D01*
X14495750Y1387871D02*
X14566870D01*
X14531310Y1352311D02*
Y1423431D01*
X14504440Y1650000D02*
X14575560D01*
X14539999Y1614440D02*
Y1685560D01*
X-1483771Y4392500D02*
X-1458771D01*
X-1471271Y4380000D02*
Y4405000D01*
X14593262Y5643520D02*
X14618260D01*
X14605760Y5631020D02*
Y5656020D01*
X-1725000Y3225000D02*
X-1700000D01*
X-1712500Y3212500D02*
Y3237500D01*
X-1599800Y3127500D02*
X-1574800D01*
X-1587300Y3115000D02*
Y3140000D01*
X1815560Y8440560D02*
X1855560D01*
X1835560Y8420560D02*
Y8460560D01*
X-1016548Y4387500D02*
X-991548D01*
X-1004048Y4375000D02*
Y4400000D01*
X-1200000Y4815000D02*
X-1175000D01*
X-1187500Y4802500D02*
Y4827500D01*
X-1692500Y4805000D02*
X-1667500D01*
X-1680000Y4792500D02*
Y4817500D01*
X-1752500Y4717500D02*
X-1727500D01*
X-1740000Y4705000D02*
Y4730000D01*
X-1485198Y6862387D02*
X-1460199D01*
X-1472699Y6849887D02*
Y6874887D01*
X-1422499Y6862500D02*
X-1397499D01*
X-1409999Y6850000D02*
Y6875000D01*
X15872501Y1170000D02*
X15912500D01*
X15892500Y1150000D02*
Y1190000D01*
X15539999Y2290000D02*
X15580000D01*
X15560001Y2270000D02*
Y2310000D01*
X-1650000Y5412500D02*
X-1625000D01*
X-1637500Y5400000D02*
Y5425000D01*
X-1650000Y5570000D02*
X-1625000D01*
X-1637500Y5557500D02*
Y5582500D01*
X-1650000Y5672500D02*
X-1625000D01*
X-1637500Y5660000D02*
Y5685000D01*
X-1650000Y5352500D02*
X-1625000D01*
X-1637500Y5340000D02*
Y5365000D01*
X739430Y839110D02*
X779430D01*
X759430Y819110D02*
Y859110D01*
X-1752500Y5672500D02*
X-1727500D01*
X-1740000Y5660000D02*
Y5685000D01*
X-1752500Y5570000D02*
X-1727500D01*
X-1740000Y5557500D02*
Y5582500D01*
X-1755000Y5412500D02*
X-1730000D01*
X-1742500Y5400000D02*
Y5425000D01*
X-1752500Y4460000D02*
X-1727500D01*
X-1740000Y4447500D02*
Y4472500D01*
X-1752500Y4357500D02*
X-1727500D01*
X-1740000Y4345000D02*
Y4370000D01*
X-1755000Y5352500D02*
X-1730000D01*
X-1742500Y5340000D02*
Y5365000D01*
X11915000Y70000D02*
X11955000D01*
X11935000Y50000D02*
Y90000D01*
X10341900Y9104270D02*
X10381900D01*
X10361900Y9084270D02*
Y9124270D01*
X3890300Y9478920D02*
X3930300D01*
X3910300Y9458920D02*
Y9498920D01*
X7853970Y9548770D02*
X7893970D01*
X7873970Y9528770D02*
Y9568770D01*
X6228370Y9491620D02*
X6268370D01*
X6248370Y9471620D02*
Y9511620D01*
X12105960Y5676900D02*
X12145960D01*
X12125960Y5656900D02*
Y5696900D01*
X14656090Y5934350D02*
X14696091D01*
X14676089Y5914350D02*
Y5954350D01*
X14127769Y3315610D02*
X14167770D01*
X14147771Y3295610D02*
Y3335610D01*
X14010960Y6631940D02*
X14050960D01*
X14030960Y6611940D02*
Y6651940D01*
X14574840Y6314440D02*
X14614841D01*
X14594839Y6294440D02*
Y6334440D01*
X2503490Y8148320D02*
X2543490D01*
X2523490Y8128320D02*
Y8168320D01*
X1092520Y8124190D02*
X1132520D01*
X1112520Y8104190D02*
Y8144190D01*
X15695007Y4377272D02*
X15735008D01*
X15715009Y4357272D02*
Y4397272D01*
X11781381Y6726448D02*
X11821381D01*
X11801381Y6706448D02*
Y6746448D01*
X15486670Y7603130D02*
X15526669D01*
X15506670Y7583130D02*
Y7623130D01*
X11615710Y5609230D02*
X11655710D01*
X11635710Y5589230D02*
Y5629230D01*
X14014740Y3030570D02*
X14054739D01*
X14034740Y3010570D02*
Y3050570D01*
X13461020Y3137810D02*
X13501019D01*
X13481020Y3117810D02*
Y3157810D01*
X6335000Y-300000D02*
X6375000D01*
X6355000Y-320000D02*
Y-280000D01*
X6483640Y-969370D02*
X6523640D01*
X6503640Y-989370D02*
Y-949370D01*
X6032790Y-1083670D02*
X6072790D01*
X6052790Y-1103670D02*
Y-1063670D01*
X15040900Y6077860D02*
X15080901D01*
X15060899Y6057860D02*
Y6097860D01*
X13670250Y535580D02*
X13733749D01*
X13702000Y503830D02*
Y567330D01*
X15442220Y197760D02*
X15482220D01*
X15462219Y177760D02*
Y217760D01*
X1209330Y-1890120D02*
X1249330D01*
X1229330Y-1910120D02*
Y-1870120D01*
X-1856450Y1324250D02*
X-1816450D01*
X-1836450Y1304250D02*
Y1344250D01*
X3882680Y-1006200D02*
X3922680D01*
X3902680Y-1026200D02*
Y-986200D01*
X5603530Y2488840D02*
X5643530D01*
X5623530Y2468840D02*
Y2508840D01*
X8276880Y-99420D02*
X8316880D01*
X8296880Y-119420D02*
Y-79420D01*
X8394990Y1777640D02*
X8434990D01*
X8414990Y1757640D02*
Y1797640D01*
X13641360Y-1357990D02*
X13681360D01*
X13661360Y-1377990D02*
Y-1337990D01*
X16354080Y3247030D02*
X16394080D01*
X16374080Y3227030D02*
Y3267030D01*
X13069859Y8782960D02*
X13109860D01*
X13089861Y8762960D02*
Y8802960D01*
X1028990Y9635130D02*
X1068990D01*
X1048990Y9615130D02*
Y9655130D01*
X2584740Y5312050D02*
X2624740D01*
X2604740Y5292050D02*
Y5332050D01*
X1685580Y4177940D02*
X1725580D01*
X1705580Y4157940D02*
Y4197940D01*
X-1770090Y7883800D02*
X-1730090D01*
X-1750090Y7863800D02*
Y7903800D01*
X14807220Y5119010D02*
X14847220D01*
X14827220Y5099010D02*
Y5139010D01*
X14395050Y3460970D02*
X14435049D01*
X14415050Y3440970D02*
Y3480970D01*
X15007880Y3053990D02*
X15047881D01*
X15027879Y3033990D02*
Y3073990D01*
X12422949Y-50000D02*
X12462949D01*
X12442949Y-70000D02*
Y-30000D01*
X7707500Y-720000D02*
X7732500D01*
X7720000Y-732500D02*
Y-707500D01*
X9384213Y-1286870D02*
X9424213D01*
X9404213Y-1306870D02*
Y-1266870D01*
X6665000Y-637500D02*
X6705000D01*
X6685000Y-657500D02*
Y-617500D01*
X7038630Y-1246230D02*
X7078630D01*
X7058630Y-1266230D02*
Y-1226230D01*
X7445030Y-449940D02*
X7485030D01*
X7465030Y-469940D02*
Y-429940D01*
X8027960Y-380090D02*
X8067960D01*
X8047960Y-400090D02*
Y-360090D01*
X13186659Y2810000D02*
X13293340D01*
X13239999Y2756660D02*
Y2863340D01*
X12560000Y1890000D02*
X12600000D01*
X12580000Y1870000D02*
Y1910000D01*
X14700540Y3136540D02*
X14740540D01*
X14720540Y3116540D02*
Y3156540D01*
X14532899Y3135270D02*
X14572900D01*
X14552901Y3115270D02*
Y3155270D01*
X14365260Y3135270D02*
X14405260D01*
X14385260Y3115270D02*
Y3155270D01*
X14530367Y2965077D02*
X14570366D01*
X14550366Y2945077D02*
Y2985077D01*
X14692920Y2958740D02*
X14732919D01*
X14712920Y2938740D02*
Y2978740D01*
X14690379Y2802530D02*
X14730380D01*
X14710381Y2782530D02*
Y2822530D01*
X14524010Y2801260D02*
X14564011D01*
X14544009Y2781260D02*
Y2821260D01*
X14358910Y2802530D02*
X14398911D01*
X14378909Y2782530D02*
Y2822530D01*
X14360181Y2963820D02*
X14400180D01*
X14380180Y2943820D02*
Y2983820D01*
X14075700Y2149750D02*
X14115700D01*
X14095700Y2129750D02*
Y2169750D01*
X15526041Y2916830D02*
X15566040D01*
X15546040Y2896830D02*
Y2936830D01*
X-1417500Y4382500D02*
X-1392500D01*
X-1405000Y4370000D02*
Y4395000D01*
X-1357500Y6862500D02*
X-1332500D01*
X-1345000Y6850000D02*
Y6875000D01*
X-1292496Y6862500D02*
X-1267497D01*
X-1279996Y6850000D02*
Y6875000D01*
X-1005000Y7635000D02*
X-980000D01*
X-992500Y7622500D02*
Y7647500D01*
X6507500Y-710000D02*
X6547500D01*
X6527500Y-730000D02*
Y-690000D01*
X6507500Y-577500D02*
X6547500D01*
X6527500Y-597500D02*
Y-557500D01*
X-1372500Y4275000D02*
X-1347500D01*
X-1360000Y4262500D02*
Y4287500D01*
X-1322500Y4432500D02*
X-1297500D01*
X-1310000Y4420000D02*
Y4445000D01*
X-1035000Y3912500D02*
X-1010000D01*
X-1022500Y3900000D02*
Y3925000D01*
X-1142500Y3982500D02*
X-1117500D01*
X-1130000Y3970000D02*
Y3995000D01*
X-1612500Y4732500D02*
X-1587500D01*
X-1600000Y4720000D02*
Y4745000D01*
X-732500Y3510000D02*
X-707500D01*
X-720000Y3497500D02*
Y3522500D01*
X-882500Y3330000D02*
X-857500D01*
X-870000Y3317500D02*
Y3342500D01*
X-812500Y3427852D02*
X-787500D01*
X-800000Y3415352D02*
Y3440352D01*
X-828765Y3753735D02*
X-803765D01*
X-816265Y3741235D02*
Y3766235D01*
X5512500Y-245000D02*
X5552500D01*
X5532500Y-265000D02*
Y-225000D01*
X5513021Y88990D02*
X5553021D01*
X5533021Y68990D02*
Y108990D01*
X5084559Y278990D02*
X5124559D01*
X5104559Y258990D02*
Y298990D01*
X4920548Y449220D02*
X4960548D01*
X4940548Y429220D02*
Y469220D01*
X-1250000Y5215000D02*
X-1225000D01*
X-1237500Y5202500D02*
Y5227500D01*
X-1250000Y5135000D02*
X-1225000D01*
X-1237500Y5122500D02*
Y5147500D01*
X-1250000Y4978500D02*
X-1225000D01*
X-1237500Y4966000D02*
Y4991000D01*
X-1250000Y4895000D02*
X-1225000D01*
X-1237500Y4882500D02*
Y4907500D01*
X-1250000Y5055000D02*
X-1225000D01*
X-1237500Y5042500D02*
Y5067500D01*
X4920300Y-320040D02*
X4960300D01*
X4940300Y-340040D02*
Y-300040D01*
X1390970Y7863840D02*
X1430970D01*
X1410970Y7843840D02*
Y7883840D01*
X371840Y-1277980D02*
X411840D01*
X391840Y-1297980D02*
Y-1257980D01*
X11599200Y5464450D02*
X11639200D01*
X11619200Y5444450D02*
Y5484450D01*
X5079050Y-238760D02*
X5119050D01*
X5099050Y-258760D02*
Y-218760D01*
X11478490Y5734900D02*
X11518490D01*
X11498490Y5714900D02*
Y5754900D01*
X941360Y-648060D02*
X981360D01*
X961360Y-668060D02*
Y-628060D01*
X11794609Y-360000D02*
X11901289D01*
X11847949Y-413340D02*
Y-306660D01*
X12734609Y-360000D02*
X12841289D01*
X12787949Y-413340D02*
Y-306660D01*
X14823730Y6183270D02*
X14863730D01*
X14843730Y6163270D02*
Y6203270D01*
X11166130Y4324150D02*
X11206130D01*
X11186130Y4304150D02*
Y4344150D01*
X15120105Y4356795D02*
X15160104D01*
X15140105Y4336795D02*
Y4376795D01*
X14639580Y6179460D02*
X14679581D01*
X14659579Y6159460D02*
Y6199460D01*
X14287820Y5568950D02*
X14327820D01*
X14307820Y5548950D02*
Y5588950D01*
X2695260Y7930082D02*
X2735260D01*
X2715260Y7910082D02*
Y7950082D01*
X13387360Y3998870D02*
X13427361D01*
X13407359Y3978870D02*
Y4018870D01*
X13946678Y4918868D02*
X13986678D01*
X13966678Y4898868D02*
Y4938868D01*
X13595641Y4614820D02*
X13635640D01*
X13615640Y4594820D02*
Y4634820D01*
X13101610Y7291980D02*
X13141611D01*
X13121609Y7271980D02*
Y7311980D01*
X15449841Y5665923D02*
X15489841D01*
X15469841Y5645923D02*
Y5685923D01*
X14380499Y5025030D02*
X14420500D01*
X14400500Y5005030D02*
Y5045030D01*
X14822459Y4664350D02*
X14862460D01*
X14842461Y4644350D02*
Y4684350D01*
X8295930Y-1126850D02*
X8335930D01*
X8315930Y-1146850D02*
Y-1106850D01*
X6440460Y653690D02*
X6480460D01*
X6460460Y633690D02*
Y673690D01*
X9283990Y-1279250D02*
X9323990D01*
X9303990Y-1299250D02*
Y-1259250D01*
X9027450Y-1547220D02*
X9067450D01*
X9047450Y-1567220D02*
Y-1527220D01*
X14447810Y4731660D02*
X14487810D01*
X14467810Y4711660D02*
Y4751660D01*
X7222780Y3055260D02*
X7262780D01*
X7242780Y3035260D02*
Y3075260D01*
%TF.MD5,2bfa91333bb85a77fc5c053a20b0955c*%
M02*
