%TF.GenerationSoftware,Altium Limited,Altium Designer,26.1.1 (7)*%
G04 Layer_Physical_Order=2*
G04 Layer_Color=32768*
%FSLAX45Y45*%
%MOMM*%
%TF.SameCoordinates,6F9AAC4A-738D-4F70-9579-1CED448E312D*%
%TF.FilePolarity,Negative*%
%TF.FileFunction,Copper,L2,Inr,Plane*%
%TF.Part,Single*%
G01*
G75*
%TA.AperFunction,NonConductor*%
%ADD52C,0.25400*%
%ADD53C,1.01600*%
%ADD54R,5.52539X22.90002*%
%TA.AperFunction,ComponentPad*%
%ADD55C,1.05400*%
G04:AMPARAMS|DCode=56|XSize=1.816mm|YSize=1.816mm|CornerRadius=0mm|HoleSize=0mm|Usage=FLASHONLY|Rotation=0.000|XOffset=0mm|YOffset=0mm|HoleType=Round|Shape=Relief|Width=0.1778mm|Gap=0.254mm|Entries=4|*
%AMTHD56*
7,0,0,1.81600,1.30800,0.17780,45*
%
%ADD56THD56*%
%ADD57C,1.35400*%
G04:AMPARAMS|DCode=58|XSize=2.116mm|YSize=2.116mm|CornerRadius=0mm|HoleSize=0mm|Usage=FLASHONLY|Rotation=0.000|XOffset=0mm|YOffset=0mm|HoleType=Round|Shape=Relief|Width=0.1778mm|Gap=0.254mm|Entries=4|*
%AMTHD58*
7,0,0,2.11600,1.60800,0.17780,45*
%
%ADD58THD58*%
%ADD59C,2.74320*%
%ADD60C,1.45400*%
%ADD61C,1.25400*%
%ADD62C,1.75400*%
%AMTHOVALD63*
21,1,2.20000,2.51600,0,0,270.0*
1,1,2.51600,0.00000,1.10000*
1,1,2.51600,0.00000,-1.10000*
21,0,2.20000,2.00800,0,0,270.0*
1,0,2.00800,0.00000,1.10000*
1,0,2.00800,0.00000,-1.10000*
4,0,4,-0.06286,1.03714,-0.95240,1.92668,-0.82668,2.05240,0.06286,1.16286,-0.06286,1.03714,0.0*
4,0,4,-0.06286,-1.16286,0.82668,-2.05240,0.95240,-1.92668,0.06286,-1.03714,-0.06286,-1.16286,0.0*
4,0,4,-0.06286,1.16286,0.82668,2.05240,0.95240,1.92668,0.06286,1.03714,-0.06286,1.16286,0.0*
4,0,4,-0.06286,-1.03714,-0.95240,-1.92668,-0.82668,-2.05240,0.06286,-1.16286,-0.06286,-1.03714,0.0*
%
%ADD63THOVALD63*%

%ADD64O,1.85400X4.25400*%
%ADD65O,1.75400X3.95400*%
%AMTHOVALD66*
21,1,1.00000,2.51600,0,0,270.0*
1,1,2.51600,0.00000,0.50000*
1,1,2.51600,0.00000,-0.50000*
21,0,1.00000,2.00800,0,0,270.0*
1,0,2.00800,0.00000,0.50000*
1,0,2.00800,0.00000,-0.50000*
4,0,4,-0.06286,0.43714,-0.95240,1.32668,-0.82668,1.45240,0.06286,0.56286,-0.06286,0.43714,0.0*
4,0,4,-0.06286,-0.56286,0.82668,-1.45240,0.95240,-1.32668,0.06286,-0.43714,-0.06286,-0.56286,0.0*
4,0,4,-0.06286,0.56286,0.82668,1.45240,0.95240,1.32668,0.06286,0.43714,-0.06286,0.56286,0.0*
4,0,4,-0.06286,-0.43714,-0.95240,-1.32668,-0.82668,-1.45240,0.06286,-0.56286,-0.06286,-0.43714,0.0*
%
%ADD66THOVALD66*%

%AMTHOVALD67*
21,1,0.70000,1.81600,0,0,180.0*
1,1,1.81600,0.35000,0.00000*
1,1,1.81600,-0.35000,0.00000*
21,0,0.70000,1.30800,0,0,180.0*
1,0,1.30800,0.35000,0.00000*
1,0,1.30800,-0.35000,0.00000*
4,0,4,0.28714,0.06286,0.92919,0.70491,1.05491,0.57919,0.41286,-0.06286,0.28714,0.06286,0.0*
4,0,4,-0.41286,0.06286,-1.05491,-0.57919,-0.92919,-0.70491,-0.28714,-0.06286,-0.41286,0.06286,0.0*
4,0,4,0.41286,0.06286,1.05491,-0.57919,0.92919,-0.70491,0.28714,-0.06286,0.41286,0.06286,0.0*
4,0,4,-0.28714,0.06286,-0.92919,0.70491,-1.05491,0.57919,-0.41286,-0.06286,-0.28714,0.06286,0.0*
%
%ADD67THOVALD67*%

%ADD68O,1.75400X2.75400*%
G04:AMPARAMS|DCode=69|XSize=2.216mm|YSize=2.216mm|CornerRadius=0mm|HoleSize=0mm|Usage=FLASHONLY|Rotation=0.000|XOffset=0mm|YOffset=0mm|HoleType=Round|Shape=Relief|Width=0.1778mm|Gap=0.254mm|Entries=4|*
%AMTHD69*
7,0,0,2.21600,1.70800,0.17780,45*
%
%ADD69THD69*%
%ADD70C,3.51790*%
%ADD71O,3.25400X1.65400*%
%AMTHOVALD72*
21,1,1.38000,1.93600,0,0,360.0*
1,1,1.93600,-0.69000,0.00000*
1,1,1.93600,0.69000,0.00000*
21,0,1.38000,1.42800,0,0,360.0*
1,0,1.42800,-0.69000,0.00000*
1,0,1.42800,0.69000,0.00000*
4,0,4,-0.62714,-0.06286,-1.31162,-0.74734,-1.43734,-0.62162,-0.75286,0.06286,-0.62714,-0.06286,0.0*
4,0,4,0.75286,-0.06286,1.43734,0.62162,1.31162,0.74734,0.62714,0.06286,0.75286,-0.06286,0.0*
4,0,4,-0.75286,-0.06286,-1.43734,0.62162,-1.31162,0.74734,-0.62714,0.06286,-0.75286,-0.06286,0.0*
4,0,4,0.62714,-0.06286,1.31162,-0.74734,1.43734,-0.62162,0.75286,0.06286,0.62714,-0.06286,0.0*
%
%ADD72THOVALD72*%

%ADD73C,3.45400*%
%ADD74C,1.17400*%
G04:AMPARAMS|DCode=75|XSize=2.016mm|YSize=2.016mm|CornerRadius=0mm|HoleSize=0mm|Usage=FLASHONLY|Rotation=0.000|XOffset=0mm|YOffset=0mm|HoleType=Round|Shape=Relief|Width=0.1778mm|Gap=0.254mm|Entries=4|*
%AMTHD75*
7,0,0,2.01600,1.50800,0.17780,45*
%
%ADD75THD75*%
%ADD76O,1.75400X1.05400*%
%AMTHOVALD77*
21,1,0.70000,1.81600,0,0,90.0*
1,1,1.81600,0.00000,-0.35000*
1,1,1.81600,0.00000,0.35000*
21,0,0.70000,1.30800,0,0,90.0*
1,0,1.30800,0.00000,-0.35000*
1,0,1.30800,0.00000,0.35000*
4,0,4,0.06286,-0.28714,0.70491,-0.92919,0.57919,-1.05491,-0.06286,-0.41286,0.06286,-0.28714,0.0*
4,0,4,0.06286,0.41286,-0.57919,1.05491,-0.70491,0.92919,-0.06286,0.28714,0.06286,0.41286,0.0*
4,0,4,0.06286,-0.41286,-0.57919,-1.05491,-0.70491,-0.92919,-0.06286,-0.28714,0.06286,-0.41286,0.0*
4,0,4,0.06286,0.28714,0.70491,0.92919,0.57919,1.05491,-0.06286,0.41286,0.06286,0.28714,0.0*
%
%ADD77THOVALD77*%

%ADD78C,1.40400*%
G04:AMPARAMS|DCode=79|XSize=2.166mm|YSize=2.166mm|CornerRadius=0mm|HoleSize=0mm|Usage=FLASHONLY|Rotation=0.000|XOffset=0mm|YOffset=0mm|HoleType=Round|Shape=Relief|Width=0.1778mm|Gap=0.254mm|Entries=4|*
%AMTHD79*
7,0,0,2.16600,1.65800,0.17780,45*
%
%ADD79THD79*%
%ADD80O,2.25400X4.25400*%
%AMTHOVALD81*
21,1,0.70000,1.81600,0,0,270.0*
1,1,1.81600,0.00000,0.35000*
1,1,1.81600,0.00000,-0.35000*
21,0,0.70000,1.30800,0,0,270.0*
1,0,1.30800,0.00000,0.35000*
1,0,1.30800,0.00000,-0.35000*
4,0,4,-0.06286,0.28714,-0.70491,0.92919,-0.57919,1.05491,0.06286,0.41286,-0.06286,0.28714,0.0*
4,0,4,-0.06286,-0.41286,0.57919,-1.05491,0.70491,-0.92919,0.06286,-0.28714,-0.06286,-0.41286,0.0*
4,0,4,-0.06286,0.41286,0.57919,1.05491,0.70491,0.92919,0.06286,0.28714,-0.06286,0.41286,0.0*
4,0,4,-0.06286,-0.28714,-0.70491,-0.92919,-0.57919,-1.05491,0.06286,-0.41286,-0.06286,-0.28714,0.0*
%
%ADD81THOVALD81*%

%ADD82O,1.05400X1.75400*%
%AMTHOVALD83*
21,1,1.20000,2.01600,0,0,90.0*
1,1,2.01600,0.00000,-0.60000*
1,1,2.01600,0.00000,0.60000*
21,0,1.20000,1.50800,0,0,90.0*
1,0,1.50800,0.00000,-0.60000*
1,0,1.50800,0.00000,0.60000*
4,0,4,0.06286,-0.53714,0.77562,-1.24990,0.64990,-1.37562,-0.06286,-0.66286,0.06286,-0.53714,0.0*
4,0,4,0.06286,0.66286,-0.64990,1.37562,-0.77562,1.24990,-0.06286,0.53714,0.06286,0.66286,0.0*
4,0,4,0.06286,-0.66286,-0.64990,-1.37562,-0.77562,-1.24990,-0.06286,-0.53714,0.06286,-0.66286,0.0*
4,0,4,0.06286,0.53714,0.77562,1.24990,0.64990,1.37562,-0.06286,0.66286,0.06286,0.53714,0.0*
%
%ADD83THOVALD83*%

%ADD84O,1.25400X2.45400*%
%ADD85O,1.25400X2.65400*%
%ADD86C,2.65400*%
%ADD87C,1.24460*%
%TA.AperFunction,WasherPad*%
%ADD88C,2.75400*%
%TA.AperFunction,ViaPad*%
%ADD89C,0.50400*%
%ADD90C,1.32080*%
%ADD91C,0.65400*%
%ADD92C,0.96520*%
%ADD93C,0.63500*%
G36*
X10935396Y7330225D02*
X10959665Y7320173D01*
X10981505Y7305580D01*
X11000080Y7287005D01*
X11014673Y7265165D01*
X11024725Y7240897D01*
X11029850Y7215134D01*
Y7202000D01*
Y7188866D01*
X11024725Y7163103D01*
X11014673Y7138835D01*
X11000080Y7116994D01*
X10981505Y7098420D01*
X10959665Y7083827D01*
X10935396Y7073775D01*
X10909634Y7068650D01*
X10883366D01*
X10857603Y7073775D01*
X10833335Y7083827D01*
X10811494Y7098420D01*
X10792920Y7116994D01*
X10778327Y7138835D01*
X10768274Y7163103D01*
X10763150Y7188866D01*
Y7202000D01*
Y7215134D01*
X10768274Y7240897D01*
X10778327Y7265165D01*
X10792920Y7287005D01*
X10811494Y7305580D01*
X10833335Y7320173D01*
X10857603Y7330225D01*
X10883366Y7335350D01*
X10909634D01*
X10935396Y7330225D01*
D02*
G37*
G36*
X3442396D02*
X3466665Y7320173D01*
X3488505Y7305580D01*
X3507080Y7287005D01*
X3521673Y7265165D01*
X3531725Y7240897D01*
X3536850Y7215134D01*
Y7202000D01*
Y7188866D01*
X3531725Y7163103D01*
X3521673Y7138835D01*
X3507080Y7116994D01*
X3488505Y7098420D01*
X3466665Y7083827D01*
X3442396Y7073775D01*
X3416634Y7068650D01*
X3390366D01*
X3364603Y7073775D01*
X3340335Y7083827D01*
X3318494Y7098420D01*
X3299920Y7116994D01*
X3285327Y7138835D01*
X3275274Y7163103D01*
X3270150Y7188866D01*
Y7202000D01*
Y7215134D01*
X3275274Y7240897D01*
X3285327Y7265165D01*
X3299920Y7287005D01*
X3318494Y7305580D01*
X3340335Y7320173D01*
X3364603Y7330225D01*
X3390366Y7335350D01*
X3416634D01*
X3442396Y7330225D01*
D02*
G37*
G36*
X10625990Y7062300D02*
X10641000D01*
X10670443Y7056443D01*
X10698178Y7044955D01*
X10723139Y7028277D01*
X10744366Y7007049D01*
X10761045Y6982088D01*
X10772533Y6954353D01*
X10778390Y6924910D01*
Y6909900D01*
X10778390D01*
Y6430722D01*
X11226116Y6039124D01*
X11238217Y6028541D01*
X11257468Y6002792D01*
X11270923Y5973593D01*
X11277990Y5942230D01*
X11278174Y5926156D01*
X11278175Y5926156D01*
X11283761Y5438221D01*
X11283951Y5421705D01*
X11277244Y5389361D01*
X11263764Y5359204D01*
X11244136Y5332636D01*
X11231704Y5321762D01*
X11231704Y5321762D01*
X10778390Y4925278D01*
X10778390Y4446100D01*
Y4431090D01*
X10772533Y4401647D01*
X10761045Y4373911D01*
X10744366Y4348951D01*
X10723139Y4327723D01*
X10698178Y4311045D01*
X10670443Y4299557D01*
X10641000Y4293700D01*
X10625990D01*
Y4293700D01*
X3674010Y4293700D01*
X3659000D01*
X3629556Y4299557D01*
X3601821Y4311045D01*
X3576861Y4327723D01*
X3555633Y4348951D01*
X3538955Y4373911D01*
X3527467Y4401647D01*
X3521610Y4431090D01*
Y4446100D01*
X3521610D01*
X3521610Y6909900D01*
Y6924910D01*
X3527467Y6954353D01*
X3538955Y6982088D01*
X3555633Y7007049D01*
X3576861Y7028277D01*
X3601821Y7044955D01*
X3629556Y7056443D01*
X3659000Y7062300D01*
X3674010D01*
Y7062300D01*
X10625990Y7062300D01*
D02*
G37*
G36*
X10935396Y4282225D02*
X10959665Y4272173D01*
X10981505Y4257580D01*
X11000080Y4239005D01*
X11014673Y4217165D01*
X11024725Y4192897D01*
X11029850Y4167134D01*
Y4154000D01*
Y4140866D01*
X11024725Y4115103D01*
X11014673Y4090835D01*
X11000080Y4068994D01*
X10981505Y4050420D01*
X10959665Y4035827D01*
X10935396Y4025775D01*
X10909634Y4020650D01*
X10883366D01*
X10857603Y4025775D01*
X10833335Y4035827D01*
X10811494Y4050420D01*
X10792920Y4068994D01*
X10778327Y4090835D01*
X10768274Y4115103D01*
X10763150Y4140866D01*
Y4154000D01*
Y4167134D01*
X10768274Y4192897D01*
X10778327Y4217165D01*
X10792920Y4239005D01*
X10811494Y4257580D01*
X10833335Y4272173D01*
X10857603Y4282225D01*
X10883366Y4287350D01*
X10909634D01*
X10935396Y4282225D01*
D02*
G37*
G36*
X3442396D02*
X3466665Y4272173D01*
X3488505Y4257580D01*
X3507080Y4239005D01*
X3521673Y4217165D01*
X3531725Y4192897D01*
X3536850Y4167134D01*
Y4154000D01*
Y4140866D01*
X3531725Y4115103D01*
X3521673Y4090835D01*
X3507080Y4068994D01*
X3488505Y4050420D01*
X3466665Y4035827D01*
X3442396Y4025775D01*
X3416634Y4020650D01*
X3390366D01*
X3364603Y4025775D01*
X3340335Y4035827D01*
X3318494Y4050420D01*
X3299920Y4068994D01*
X3285327Y4090835D01*
X3275274Y4115103D01*
X3270150Y4140866D01*
Y4154000D01*
Y4167134D01*
X3275274Y4192897D01*
X3285327Y4217165D01*
X3299920Y4239005D01*
X3318494Y4257580D01*
X3340335Y4272173D01*
X3364603Y4282225D01*
X3390366Y4287350D01*
X3416634D01*
X3442396Y4282225D01*
D02*
G37*
G36*
X7278988Y2666133D02*
X7286133Y2658988D01*
X7290000Y2649652D01*
Y2644600D01*
Y1072799D01*
Y1067747D01*
X7286133Y1058411D01*
X7278988Y1051266D01*
X7269652Y1047399D01*
X7030597D01*
X7021262Y1051266D01*
X7014117Y1058411D01*
X7010250Y1067747D01*
Y1072799D01*
Y2644600D01*
Y2649652D01*
X7014117Y2658988D01*
X7021262Y2666133D01*
X7030597Y2670000D01*
X7269652D01*
X7278988Y2666133D01*
D02*
G37*
D52*
X11262330Y3502330D02*
Y3937910D01*
X15701370Y7217050D02*
X15813420Y7105000D01*
X15572070Y4156910D02*
Y5541586D01*
X15163840Y3748680D02*
X15572070Y4156910D01*
X13493494Y3748680D02*
X15163840D01*
X15572070Y5541586D02*
Y5845029D01*
X15813420Y7105000D02*
X16272510D01*
X15572070Y5845029D02*
X16272510Y6545470D01*
Y7105000D01*
X14996130Y7217050D02*
X15701370D01*
X14850000Y5030000D02*
X14996130Y5176130D01*
X12510000Y1763160D02*
Y2949949D01*
Y1763160D02*
X12848579Y1424580D01*
X13510249Y762910D02*
Y1424580D01*
X12848579D02*
X13510249D01*
Y762910D02*
X16600002D01*
X11262330Y3937910D02*
Y4701180D01*
X11858320Y5297170D01*
X12621590D01*
X11262330Y3499760D02*
X13244574Y3499760D01*
X13300000Y5030000D02*
X14850000D01*
X12621590Y5297170D02*
X13032829D01*
X13244574Y3499760D02*
X13493494Y3748680D01*
X13032829Y5297170D02*
X13300000Y5030000D01*
X14996130Y5176130D02*
Y7217050D01*
X14804359Y2941036D02*
Y3219090D01*
X14296359D02*
X14804359D01*
X14296359Y2949949D02*
Y3219090D01*
X13930040Y2949949D02*
X14296359D01*
X12510000D02*
X13930040D01*
X16600002Y762910D02*
Y3025253D01*
X15182820D02*
X16600002D01*
X15182820Y2941036D02*
Y3025253D01*
X14804359Y2941036D02*
X15182820D01*
D53*
X7269652Y2670000D02*
X7278988Y2666133D01*
X7286133Y2658988D01*
X7290000Y2649652D01*
Y2644600D02*
Y2649652D01*
Y1072799D02*
Y2644600D01*
Y1067747D02*
Y1072799D01*
X7286133Y1058411D02*
X7290000Y1067747D01*
X7278988Y1051266D02*
X7286133Y1058411D01*
X7269652Y1047399D02*
X7278988Y1051266D01*
X7030597Y1047399D02*
X7269652D01*
X7021262Y1051266D02*
X7030597Y1047399D01*
X7014117Y1058411D02*
X7021262Y1051266D01*
X7010250Y1067747D02*
X7014117Y1058411D01*
X7010250Y1067747D02*
Y1072799D01*
Y2644600D01*
Y2649652D01*
X7014117Y2658988D01*
X7021262Y2666133D01*
X7030597Y2670000D01*
X7269652D01*
X3416634Y4287350D02*
X3442396Y4282225D01*
X3466665Y4272173D01*
X3488505Y4257580D01*
X3507080Y4239005D01*
X3521673Y4217165D01*
X3531725Y4192897D01*
X3536850Y4167134D01*
Y4154000D02*
Y4167134D01*
Y4140866D02*
Y4154000D01*
X3531725Y4115103D02*
X3536850Y4140866D01*
X3521673Y4090835D02*
X3531725Y4115103D01*
X3507080Y4068994D02*
X3521673Y4090835D01*
X3488505Y4050420D02*
X3507080Y4068994D01*
X3466665Y4035827D02*
X3488505Y4050420D01*
X3442396Y4025775D02*
X3466665Y4035827D01*
X3416634Y4020650D02*
X3442396Y4025775D01*
X3390366Y4020650D02*
X3416634D01*
X3364603Y4025775D02*
X3390366Y4020650D01*
X3340335Y4035827D02*
X3364603Y4025775D01*
X3318494Y4050420D02*
X3340335Y4035827D01*
X3299920Y4068994D02*
X3318494Y4050420D01*
X3285327Y4090835D02*
X3299920Y4068994D01*
X3275274Y4115103D02*
X3285327Y4090835D01*
X3270150Y4140866D02*
X3275274Y4115103D01*
X3270150Y4140866D02*
Y4154000D01*
Y4167134D01*
X3275274Y4192897D01*
X3285327Y4217165D01*
X3299920Y4239005D01*
X3318494Y4257580D01*
X3340335Y4272173D01*
X3364603Y4282225D01*
X3390366Y4287350D01*
X3416634D01*
X10909634D02*
X10935396Y4282225D01*
X10959665Y4272173D01*
X10981505Y4257580D01*
X11000080Y4239005D01*
X11014673Y4217165D01*
X11024725Y4192897D01*
X11029850Y4167134D01*
Y4154000D02*
Y4167134D01*
Y4140866D02*
Y4154000D01*
X11024725Y4115103D02*
X11029850Y4140866D01*
X11014673Y4090835D02*
X11024725Y4115103D01*
X11000080Y4068994D02*
X11014673Y4090835D01*
X10981505Y4050420D02*
X11000080Y4068994D01*
X10959665Y4035827D02*
X10981505Y4050420D01*
X10935396Y4025775D02*
X10959665Y4035827D01*
X10909634Y4020650D02*
X10935396Y4025775D01*
X10883366Y4020650D02*
X10909634D01*
X10857603Y4025775D02*
X10883366Y4020650D01*
X10833335Y4035827D02*
X10857603Y4025775D01*
X10811494Y4050420D02*
X10833335Y4035827D01*
X10792920Y4068994D02*
X10811494Y4050420D01*
X10778327Y4090835D02*
X10792920Y4068994D01*
X10768274Y4115103D02*
X10778327Y4090835D01*
X10763150Y4140866D02*
X10768274Y4115103D01*
X10763150Y4140866D02*
Y4154000D01*
Y4167134D01*
X10768274Y4192897D01*
X10778327Y4217165D01*
X10792920Y4239005D01*
X10811494Y4257580D01*
X10833335Y4272173D01*
X10857603Y4282225D01*
X10883366Y4287350D01*
X10909634D01*
X3674010Y7062300D02*
X10625990Y7062300D01*
X10641000D01*
X10670443Y7056443D01*
X10698178Y7044955D01*
X10723139Y7028277D01*
X10744366Y7007049D01*
X10761045Y6982088D01*
X10772533Y6954353D01*
X10778390Y6924910D01*
Y6909900D02*
Y6924910D01*
Y6909900D02*
X10778390D01*
Y6430722D02*
Y6909900D01*
Y6430722D02*
X11226116Y6039124D01*
X11238217Y6028541D01*
X11257468Y6002792D01*
X11270923Y5973593D01*
X11277990Y5942230D01*
X11278174Y5926156D01*
X11278175Y5926156D01*
X11283761Y5438221D01*
X11283951Y5421705D01*
X11277244Y5389361D02*
X11283951Y5421705D01*
X11263764Y5359204D02*
X11277244Y5389361D01*
X11244136Y5332636D02*
X11263764Y5359204D01*
X11231704Y5321762D02*
X11244136Y5332636D01*
X11231704Y5321762D02*
X11231704Y5321762D01*
X10778390Y4925278D02*
X11231704Y5321762D01*
X10778390Y4446100D02*
X10778390Y4925278D01*
X10778390Y4431090D02*
Y4446100D01*
X10772533Y4401647D02*
X10778390Y4431090D01*
X10761045Y4373911D02*
X10772533Y4401647D01*
X10744366Y4348951D02*
X10761045Y4373911D01*
X10723139Y4327723D02*
X10744366Y4348951D01*
X10698178Y4311045D02*
X10723139Y4327723D01*
X10670443Y4299557D02*
X10698178Y4311045D01*
X10641000Y4293700D02*
X10670443Y4299557D01*
X10625990Y4293700D02*
X10641000D01*
X10625990Y4293700D02*
Y4293700D01*
X3674010D02*
X10625990Y4293700D01*
X3659000Y4293700D02*
X3674010D01*
X3629556Y4299557D02*
X3659000Y4293700D01*
X3601821Y4311045D02*
X3629556Y4299557D01*
X3576861Y4327723D02*
X3601821Y4311045D01*
X3555633Y4348951D02*
X3576861Y4327723D01*
X3538955Y4373911D02*
X3555633Y4348951D01*
X3527467Y4401647D02*
X3538955Y4373911D01*
X3521610Y4431090D02*
X3527467Y4401647D01*
X3521610Y4431090D02*
Y4446100D01*
X3521610D02*
X3521610D01*
X3521610D02*
X3521610Y6909900D01*
Y6924910D01*
X3527467Y6954353D01*
X3538955Y6982088D01*
X3555633Y7007049D01*
X3576861Y7028277D01*
X3601821Y7044955D01*
X3629556Y7056443D01*
X3659000Y7062300D01*
X3674010D01*
Y7062300D01*
X3416634Y7335350D02*
X3442396Y7330225D01*
X3466665Y7320173D01*
X3488505Y7305580D01*
X3507080Y7287005D01*
X3521673Y7265165D01*
X3531725Y7240897D01*
X3536850Y7215134D01*
Y7202000D02*
Y7215134D01*
Y7188866D02*
Y7202000D01*
X3531725Y7163103D02*
X3536850Y7188866D01*
X3521673Y7138835D02*
X3531725Y7163103D01*
X3507080Y7116994D02*
X3521673Y7138835D01*
X3488505Y7098420D02*
X3507080Y7116994D01*
X3466665Y7083827D02*
X3488505Y7098420D01*
X3442396Y7073775D02*
X3466665Y7083827D01*
X3416634Y7068650D02*
X3442396Y7073775D01*
X3390366Y7068650D02*
X3416634D01*
X3364603Y7073775D02*
X3390366Y7068650D01*
X3340335Y7083827D02*
X3364603Y7073775D01*
X3318494Y7098420D02*
X3340335Y7083827D01*
X3299920Y7116994D02*
X3318494Y7098420D01*
X3285327Y7138835D02*
X3299920Y7116994D01*
X3275274Y7163103D02*
X3285327Y7138835D01*
X3270150Y7188866D02*
X3275274Y7163103D01*
X3270150Y7188866D02*
Y7202000D01*
Y7215134D01*
X3275274Y7240897D01*
X3285327Y7265165D01*
X3299920Y7287005D01*
X3318494Y7305580D01*
X3340335Y7320173D01*
X3364603Y7330225D01*
X3390366Y7335350D01*
X3416634D01*
X10909634D02*
X10935396Y7330225D01*
X10959665Y7320173D01*
X10981505Y7305580D01*
X11000080Y7287005D01*
X11014673Y7265165D01*
X11024725Y7240897D01*
X11029850Y7215134D01*
Y7202000D02*
Y7215134D01*
Y7188866D02*
Y7202000D01*
X11024725Y7163103D02*
X11029850Y7188866D01*
X11014673Y7138835D02*
X11024725Y7163103D01*
X11000080Y7116994D02*
X11014673Y7138835D01*
X10981505Y7098420D02*
X11000080Y7116994D01*
X10959665Y7083827D02*
X10981505Y7098420D01*
X10935396Y7073775D02*
X10959665Y7083827D01*
X10909634Y7068650D02*
X10935396Y7073775D01*
X10883366Y7068650D02*
X10909634D01*
X10857603Y7073775D02*
X10883366Y7068650D01*
X10833335Y7083827D02*
X10857603Y7073775D01*
X10811494Y7098420D02*
X10833335Y7083827D01*
X10792920Y7116994D02*
X10811494Y7098420D01*
X10778327Y7138835D02*
X10792920Y7116994D01*
X10768274Y7163103D02*
X10778327Y7138835D01*
X10763150Y7188866D02*
X10768274Y7163103D01*
X10763150Y7188866D02*
Y7202000D01*
Y7215134D01*
X10768274Y7240897D01*
X10778327Y7265165D01*
X10792920Y7287005D01*
X10811494Y7305580D01*
X10833335Y7320173D01*
X10857603Y7330225D01*
X10883366Y7335350D01*
X10909634D01*
X12583000Y10150000D02*
X12583130Y10143130D01*
X1717010Y10150000D02*
X12583000D01*
X1717010Y10127000D02*
X1717010Y10150000D01*
X1716406Y10114549D02*
X1717010Y10127000D01*
X1711560Y10090124D02*
X1716406Y10114549D01*
X1702039Y10067116D02*
X1711560Y10090124D01*
X1688208Y10046409D02*
X1702039Y10067116D01*
X1670601Y10028801D02*
X1688208Y10046409D01*
X1649894Y10014971D02*
X1670601Y10028801D01*
X1626885Y10005449D02*
X1649894Y10014971D01*
X1602461Y10000604D02*
X1626885Y10005449D01*
X1590010Y10000000D02*
X1602461Y10000604D01*
X-423001Y10000000D02*
X1590010Y10000000D01*
X-435512Y10000008D02*
X-423001Y10000000D01*
X-460055Y9995139D02*
X-435512Y10000008D01*
X-483175Y9985572D02*
X-460055Y9995139D01*
X-503982Y9971674D02*
X-483175Y9985572D01*
X-521675Y9953981D02*
X-503982Y9971674D01*
X-535572Y9933174D02*
X-521675Y9953981D01*
X-545140Y9910055D02*
X-535572Y9933174D01*
X-550009Y9885511D02*
X-545140Y9910055D01*
X-550009Y9885511D02*
X-550000Y9873001D01*
Y8700000D02*
Y9873001D01*
X-550749Y8677109D02*
X-550000Y8700000D01*
X-556725Y8631718D02*
X-550749Y8677109D01*
X-568574Y8587496D02*
X-556725Y8631718D01*
X-586095Y8545199D02*
X-568574Y8587496D01*
X-608986Y8505550D02*
X-586095Y8545199D01*
X-636856Y8469229D02*
X-608986Y8505550D01*
X-669229Y8436856D02*
X-636856Y8469229D01*
X-705551Y8408985D02*
X-669229Y8436856D01*
X-745199Y8386094D02*
X-705551Y8408985D01*
X-787496Y8368574D02*
X-745199Y8386094D01*
X-831718Y8356725D02*
X-787496Y8368574D01*
X-877109Y8350749D02*
X-831718Y8356725D01*
X-900000Y8350000D02*
X-877109Y8350749D01*
X-2173000Y8350000D02*
X-900000Y8350000D01*
X-2185511Y8350008D02*
X-2173000Y8350000D01*
X-2210055Y8345139D02*
X-2185511Y8350008D01*
X-2233175Y8335572D02*
X-2210055Y8345139D01*
X-2253982Y8321674D02*
X-2233175Y8335572D01*
X-2271675Y8303981D02*
X-2253982Y8321674D01*
X-2285573Y8283174D02*
X-2271675Y8303981D01*
X-2295140Y8260053D02*
X-2285573Y8283174D01*
X-2300009Y8235510D02*
X-2295140Y8260053D01*
X-2300009Y8235510D02*
X-2300000Y8222999D01*
X-2300000Y-423001D01*
Y-435509D02*
Y-423001D01*
Y-435509D02*
X-2295120Y-460045D01*
X-2285546Y-483158D01*
X-2271647Y-503958D01*
X-2253958Y-521648D01*
X-2233157Y-535546D01*
X-2210045Y-545120D01*
X-2185509Y-550000D01*
X-2173000Y-550000D01*
X-900000Y-550000D01*
X-877109Y-550749D01*
X-831718Y-556725D01*
X-787496Y-568574D01*
X-745199Y-586095D01*
X-705551Y-608986D01*
X-669229Y-636856D01*
X-636856Y-669229D01*
X-608986Y-705551D01*
X-586095Y-745199D01*
X-568574Y-787496D01*
X-556725Y-831718D01*
X-550749Y-877109D01*
X-550000Y-900000D01*
X-550001Y-2073000D02*
X-550000Y-900000D01*
X-550004Y-2085509D02*
X-550001Y-2073000D01*
X-550004Y-2085509D02*
X-545128Y-2110046D01*
X-535558Y-2133160D01*
X-521662Y-2153962D01*
X-503973Y-2171652D01*
X-483173Y-2185551D01*
X-460060Y-2195124D01*
X-435523Y-2200002D01*
X-423001Y-2200000D01*
X1516843Y-2200001D01*
X1540104Y-2200762D01*
X1586230Y-2206834D01*
X1631168Y-2218876D01*
X1674150Y-2236680D01*
X1714440Y-2259942D01*
X1751349Y-2288265D01*
X1784245Y-2321162D01*
X1812566Y-2358073D01*
X1835826Y-2398364D01*
X1853628Y-2441347D01*
X1865667Y-2486286D01*
X1871737Y-2532412D01*
X1872509Y-2555665D01*
Y-2591329D02*
Y-2555665D01*
Y-2591329D02*
X3349324Y-2591329D01*
X3349985Y-2577868D01*
X3355237Y-2551464D01*
X3365539Y-2526592D01*
X3380496Y-2504208D01*
X3399532Y-2485172D01*
X3421916Y-2470216D01*
X3446788Y-2459913D01*
X3473192Y-2454662D01*
X3486653Y-2454000D01*
X12468637D01*
X12493171Y-2449120D01*
X12516281Y-2439547D01*
X12537079Y-2425650D01*
X12554767Y-2407962D01*
X12568664Y-2387164D01*
X12578236Y-2364054D01*
X12583116Y-2339520D01*
X12583117Y-2327013D01*
X12583713Y-2314567D01*
X12588543Y-2290151D01*
X12598047Y-2267148D01*
X12611860Y-2246443D01*
X12629449Y-2228833D01*
X12650139Y-2214997D01*
X12673132Y-2205468D01*
X12697543Y-2200611D01*
X12709988Y-2200000D01*
X14722998Y-2200000D01*
X14735507Y-2200000D01*
X14760043Y-2195120D01*
X14783156Y-2185546D01*
X14803957Y-2171647D01*
X14821646Y-2153958D01*
X14835545Y-2133157D01*
X14845119Y-2110045D01*
X14849998Y-2085509D01*
X14849998Y-2073000D01*
X14849998Y-900000D02*
X14849998Y-2073000D01*
X14849998Y-900000D02*
X14850748Y-877109D01*
X14856725Y-831718D01*
X14868573Y-787496D01*
X14886093Y-745199D01*
X14908984Y-705551D01*
X14936855Y-669229D01*
X14969228Y-636856D01*
X15005550Y-608986D01*
X15045200Y-586095D01*
X15087495Y-568575D01*
X15131718Y-556725D01*
X15177109Y-550750D01*
X15200000Y-550000D01*
X16473000D01*
X16485509Y-550000D01*
X16510043Y-545120D01*
X16533157Y-535546D01*
X16553957Y-521648D01*
X16571648Y-503958D01*
X16585545Y-483158D01*
X16595119Y-460045D01*
X16600000Y-435509D01*
X16600000Y-423001D01*
X16600000Y5911510D02*
X16600000Y-423001D01*
X16600000Y5911510D02*
X16600009Y5923608D01*
X16594080Y5947066D02*
X16600009Y5923608D01*
X16582568Y5968348D02*
X16594080Y5947066D01*
X16566180Y5986150D02*
X16582568Y5968348D01*
X16556052Y5992765D02*
X16566180Y5986150D01*
X16536960Y6005248D02*
X16556052Y5992765D01*
X16529265Y6010992D02*
X16536960Y6005248D01*
X16516289Y6025099D02*
X16529265Y6010992D01*
X16507169Y6041958D02*
X16516289Y6025099D01*
X16502464Y6060540D02*
X16507169Y6041958D01*
X16501868Y6070124D02*
X16502464Y6060540D01*
X16501868Y8222999D02*
X16501868Y6070124D01*
X16500552Y8236708D02*
X16501868Y8222999D01*
X16492667Y8263099D02*
X16500552Y8236708D01*
X16479820Y8287464D02*
X16492667Y8263099D01*
X16462500Y8308881D02*
X16479820Y8287464D01*
X16441360Y8326539D02*
X16462500Y8308881D01*
X16417203Y8339771D02*
X16441360Y8326539D01*
X16390939Y8348076D02*
X16417203Y8339771D01*
X16363567Y8351139D02*
X16390939Y8348076D01*
X16349843Y8349992D02*
X16363567Y8351139D01*
X15200000Y8350000D02*
X16349843Y8349992D01*
X15177109Y8350749D02*
X15200000Y8350000D01*
X15131718Y8356725D02*
X15177109Y8350749D01*
X15087495Y8368574D02*
X15131718Y8356725D01*
X15045200Y8386094D02*
X15087495Y8368574D01*
X15005550Y8408985D02*
X15045200Y8386094D01*
X14969229Y8436856D02*
X15005550Y8408985D01*
X14936856Y8469229D02*
X14969229Y8436856D01*
X14908984Y8505550D02*
X14936856Y8469229D01*
X14886095Y8545199D02*
X14908984Y8505550D01*
X14868575Y8587496D02*
X14886095Y8545199D01*
X14856725Y8631718D02*
X14868575Y8587496D01*
X14850749Y8677109D02*
X14856725Y8631718D01*
X14850000Y8700000D02*
X14850749Y8677109D01*
X14850000Y9889130D02*
X14850000Y8700000D01*
X14850000Y9889130D02*
X14850005Y9901640D01*
X14845132Y9926181D02*
X14850005Y9901640D01*
X14835562Y9949298D02*
X14845132Y9926181D01*
X14821664Y9970104D02*
X14835562Y9949298D01*
X14803972Y9987795D02*
X14821664Y9970104D01*
X14783167Y10001693D02*
X14803972Y9987795D01*
X14760049Y10011263D02*
X14783167Y10001693D01*
X14735509Y10016136D02*
X14760049Y10011263D01*
X14723000Y10016130D02*
X14735509Y10016136D01*
X12710130Y10016130D02*
X14723000Y10016130D01*
X12697681Y10016739D02*
X12710130Y10016130D01*
X12673261Y10021593D02*
X12697681Y10016739D01*
X12650257Y10031118D02*
X12673261Y10021593D01*
X12629555Y10044950D02*
X12650257Y10031118D01*
X12611950Y10062555D02*
X12629555Y10044950D01*
X12598118Y10083257D02*
X12611950Y10062555D01*
X12588593Y10106261D02*
X12598118Y10083257D01*
X12583739Y10130681D02*
X12588593Y10106261D01*
X12583130Y10143130D02*
X12583739Y10130681D01*
D54*
X-2033770Y5015004D02*
D03*
D55*
X13159520Y5519080D02*
D03*
X12909520D02*
D03*
X12659520D02*
D03*
X12909520Y5839080D02*
D03*
X12659520D02*
D03*
X10320040Y-2051410D02*
D03*
X10520040D02*
D03*
X10720040D02*
D03*
X10320040Y-2251410D02*
D03*
X10520040D02*
D03*
X10720040D02*
D03*
D56*
X13159520Y5839080D02*
D03*
D57*
X7433280Y7253880D02*
D03*
X4639280D02*
D03*
X4893280D02*
D03*
X5147280D02*
D03*
X5401280D02*
D03*
X5655280D02*
D03*
X5909280D02*
D03*
X6163280D02*
D03*
X6417280D02*
D03*
X6671280D02*
D03*
X6925280D02*
D03*
X7179280D02*
D03*
X7687280D02*
D03*
X4385280D02*
D03*
X4131280D02*
D03*
X9671020D02*
D03*
X9163020D02*
D03*
X9925020D02*
D03*
X13093671Y1085490D02*
D03*
X13347670Y831490D02*
D03*
X13093671D02*
D03*
X14150310Y1077870D02*
D03*
X14404311D02*
D03*
X14658310D02*
D03*
X14912309D02*
D03*
D58*
X7941280Y7253880D02*
D03*
X9417020D02*
D03*
X13347670Y1085490D02*
D03*
D59*
X10895300Y4155080D02*
D03*
Y7203080D02*
D03*
X3402300Y4155080D02*
D03*
Y7203080D02*
D03*
D60*
X8398100Y8800200D02*
D03*
X7398100D02*
D03*
X7898100Y9300200D02*
D03*
X6899500Y8800200D02*
D03*
X5899500D02*
D03*
X6399500Y9300200D02*
D03*
X4770090Y-1871070D02*
D03*
X5024090D02*
D03*
X5278090D02*
D03*
X5024090Y-1617070D02*
D03*
X5278090D02*
D03*
X3273800Y1654640D02*
D03*
X4723800D02*
D03*
Y2154640D02*
D03*
X11023800D02*
D03*
X9573800D02*
D03*
Y1654640D02*
D03*
X16399289Y7283980D02*
D03*
X16149289D02*
D03*
Y6283980D02*
D03*
X16399289D02*
D03*
X15149289D02*
D03*
Y7283980D02*
D03*
X15649289Y6783980D02*
D03*
X8896700Y10050229D02*
D03*
Y9800229D02*
D03*
X9896700D02*
D03*
Y10050229D02*
D03*
Y8800230D02*
D03*
X8896700D02*
D03*
X9396700Y9300230D02*
D03*
X4400900Y10050230D02*
D03*
Y9800230D02*
D03*
X5400900D02*
D03*
Y10050230D02*
D03*
Y8800230D02*
D03*
X4400900D02*
D03*
X4900900Y9300230D02*
D03*
D61*
X7898100Y8800200D02*
D03*
X7648100D02*
D03*
X8148100D02*
D03*
X7648100Y9300200D02*
D03*
X8148100D02*
D03*
X6399500Y8800200D02*
D03*
X6149500D02*
D03*
X6649500D02*
D03*
X6149500Y9300200D02*
D03*
X6649500D02*
D03*
X15149289Y6783980D02*
D03*
Y6533980D02*
D03*
X9396700Y8800230D02*
D03*
X9146700D02*
D03*
X9646700D02*
D03*
X4900900Y8800230D02*
D03*
X4650900D02*
D03*
X5150900D02*
D03*
D62*
X7273100Y9150200D02*
D03*
X8523100D02*
D03*
X5774500D02*
D03*
X7024500D02*
D03*
X10040040Y-2151410D02*
D03*
X11000040D02*
D03*
X7288800Y2082440D02*
D03*
X7008800D02*
D03*
X8371650Y-1322250D02*
D03*
X8496650Y-2072250D02*
D03*
X9496650D02*
D03*
Y-1572250D02*
D03*
X9621650Y-1322250D02*
D03*
X8496650Y-1572250D02*
D03*
X6749860Y-1322250D02*
D03*
X6874860Y-2072250D02*
D03*
X7874860D02*
D03*
Y-1572250D02*
D03*
X7999860Y-1322250D02*
D03*
X6874860Y-1572250D02*
D03*
D63*
X7398100Y9925200D02*
D03*
X5899500D02*
D03*
D64*
X7678100Y9900200D02*
D03*
X8118100D02*
D03*
X6179500D02*
D03*
X6619500D02*
D03*
D65*
X8398100Y9925200D02*
D03*
X6899500D02*
D03*
D66*
X7398100Y9350200D02*
D03*
X5899500D02*
D03*
D67*
X7898100Y9800200D02*
D03*
X6399500D02*
D03*
X9396700Y9800229D02*
D03*
X4900900Y9800230D02*
D03*
D68*
X8398100Y9350200D02*
D03*
X6899500D02*
D03*
D69*
X4770090Y-1617070D02*
D03*
X3273800Y2154640D02*
D03*
X4723800Y1904640D02*
D03*
X11023800Y1654640D02*
D03*
X9573800Y1904640D02*
D03*
D70*
X644002Y5015000D02*
D03*
D71*
X3973800Y2474640D02*
D03*
Y1334640D02*
D03*
X10323800D02*
D03*
Y2474640D02*
D03*
D72*
X12870200Y6138799D02*
D03*
D73*
X13350200Y6970179D02*
D03*
X11910200Y6138799D02*
D03*
X13350200Y5307419D02*
D03*
D74*
X12551600Y6138799D02*
D03*
X13188800D02*
D03*
D75*
X15149289Y7033980D02*
D03*
D76*
X15649289Y7283980D02*
D03*
Y7033980D02*
D03*
Y6533980D02*
D03*
Y6283980D02*
D03*
D77*
X16149289Y6783980D02*
D03*
D78*
X1358870Y4637680D02*
D03*
X1612870D02*
D03*
X1866870D02*
D03*
X2120870D02*
D03*
D79*
X2374870D02*
D03*
D80*
X8796650Y-2072250D02*
D03*
X9196650D02*
D03*
X7174860D02*
D03*
X7574860D02*
D03*
D81*
X8896700Y9300230D02*
D03*
X4400900Y9300230D02*
D03*
D82*
X9146700Y9300230D02*
D03*
X9646700D02*
D03*
X9896700D02*
D03*
X4650900Y9300230D02*
D03*
X5150900D02*
D03*
X5400900D02*
D03*
D83*
X12255470Y-1429110D02*
D03*
D84*
X11735470D02*
D03*
X11395470D02*
D03*
D85*
X12345470Y-2159110D02*
D03*
X11355470D02*
D03*
D86*
X11725470Y-2059110D02*
D03*
D87*
X-1840000Y3294300D02*
D03*
Y3497500D02*
D03*
X-1332000Y3395900D02*
D03*
D88*
X0Y0D02*
D03*
Y7800000D02*
D03*
X14300000D02*
D03*
Y0D02*
D03*
D89*
X15400000Y6070000D02*
D03*
X15421581Y2758080D02*
D03*
X15030000Y2570000D02*
D03*
X12610000Y4150000D02*
D03*
X15300000Y2460000D02*
D03*
X13750000Y2480000D02*
D03*
X14050000Y2810000D02*
D03*
X-1078490Y4050000D02*
D03*
X620000Y3440000D02*
D03*
X-1471271Y4392500D02*
D03*
X-1645000Y3202500D02*
D03*
X-1587300Y3127500D02*
D03*
X6703980Y8133910D02*
D03*
X-53098Y4960567D02*
D03*
X80000Y5015000D02*
D03*
X-30000Y5692500D02*
D03*
X882501Y5752300D02*
D03*
X1788039Y6338645D02*
D03*
X850000Y3252500D02*
D03*
X-1004048Y4387500D02*
D03*
X-1187500Y4815000D02*
D03*
X-1680000Y4805000D02*
D03*
X-1472699Y6862387D02*
D03*
X-1409999Y6862500D02*
D03*
X-1284296Y4708204D02*
D03*
X-515000Y5135000D02*
D03*
X-450000Y5165000D02*
D03*
X-1457500Y3225000D02*
D03*
X-2067000Y2102000D02*
D03*
X-1405000Y4382500D02*
D03*
X-1345000Y6862500D02*
D03*
X-1279996D02*
D03*
X-992500Y7635000D02*
D03*
X-1241508Y4230000D02*
D03*
X-1195000Y4167500D02*
D03*
X790000Y5790000D02*
D03*
X-1360000Y4275000D02*
D03*
X-1310000Y4432500D02*
D03*
X-1022500Y3912500D02*
D03*
X-1130000Y3982500D02*
D03*
X-1600000Y4732500D02*
D03*
X-200000Y5740000D02*
D03*
X-270000Y5850000D02*
D03*
X-150000D02*
D03*
X160000Y5930000D02*
D03*
X2450000Y6890000D02*
D03*
X580000Y5690000D02*
D03*
X730000D02*
D03*
X-130000Y6170000D02*
D03*
X350000Y6100000D02*
D03*
X20000Y5622140D02*
D03*
X690000Y5550000D02*
D03*
X620000Y5500000D02*
D03*
X490000Y5450000D02*
D03*
X540000Y5400000D02*
D03*
X1404590Y5900060D02*
D03*
X1529050Y5837421D02*
D03*
X550000Y3380000D02*
D03*
X-720000Y3510000D02*
D03*
X660000Y3320000D02*
D03*
X-870000Y3330000D02*
D03*
X-800000Y3427852D02*
D03*
X-816265Y3753735D02*
D03*
X-1237500Y5215000D02*
D03*
Y5135000D02*
D03*
Y4978500D02*
D03*
Y4895000D02*
D03*
Y5055000D02*
D03*
D90*
X13439999Y1850000D02*
D03*
X11847949Y-360000D02*
D03*
X12787949D02*
D03*
D91*
X11682370Y4065870D02*
D03*
X245950Y4122500D02*
D03*
X2770000Y-1950000D02*
D03*
X378430Y-1551030D02*
D03*
X340000Y-1070000D02*
D03*
X13442500Y4287500D02*
D03*
X15835600Y5223150D02*
D03*
X1835560Y8440560D02*
D03*
X977060Y4700000D02*
D03*
X1030641Y3114929D02*
D03*
X1132500Y2977500D02*
D03*
X15560001Y2290000D02*
D03*
X11230000Y870000D02*
D03*
X3630000Y1530000D02*
D03*
X11630000Y7530000D02*
D03*
X15060899Y6077860D02*
D03*
X9404213Y-1286870D02*
D03*
X6685000Y-637500D02*
D03*
X7058630Y-1246230D02*
D03*
X7465030Y-449940D02*
D03*
X8047960Y-380090D02*
D03*
X11449310Y875560D02*
D03*
X11231690Y1018220D02*
D03*
X11229150Y1168080D02*
D03*
X6166890Y7993700D02*
D03*
X3221990Y8991600D02*
D03*
X15685741Y5387161D02*
D03*
X5760338Y-290965D02*
D03*
X13765500Y3560720D02*
D03*
X13882339Y3153050D02*
D03*
X14265880Y3465737D02*
D03*
X2757531Y-484706D02*
D03*
X15180280Y3206390D02*
D03*
X3094960Y2980330D02*
D03*
X763240Y-796650D02*
D03*
X1177260Y-1048110D02*
D03*
X1163290Y-1294490D02*
D03*
X1154400Y-1556110D02*
D03*
X3690590Y2995570D02*
D03*
X4789140Y2990490D02*
D03*
X9394160Y3075580D02*
D03*
X10557480Y2984140D02*
D03*
X11156920Y2990490D02*
D03*
X14971910Y3377840D02*
D03*
X15843221Y5520330D02*
D03*
X16106110Y3450230D02*
D03*
X6205000Y8142500D02*
D03*
X8390000Y8020000D02*
D03*
X7980000D02*
D03*
X8800000D02*
D03*
X7356360Y7840970D02*
D03*
X6527500Y-710000D02*
D03*
Y-577500D02*
D03*
X1609060Y7293896D02*
D03*
X380000Y4200000D02*
D03*
X300000Y4280000D02*
D03*
X5532500Y-245000D02*
D03*
X5533021Y88990D02*
D03*
X5104559Y278990D02*
D03*
X4940548Y449220D02*
D03*
X4833620Y7743190D02*
D03*
X4940300Y-320040D02*
D03*
X15320010Y7430770D02*
D03*
X13521384Y4800136D02*
D03*
X1410970Y7863840D02*
D03*
X391840Y-1277980D02*
D03*
X1752489Y7820660D02*
D03*
X11882800Y5835230D02*
D03*
X11619200Y5464450D02*
D03*
X2021810Y4844690D02*
D03*
X5099050Y-238760D02*
D03*
X11756390Y5922010D02*
D03*
X11498490Y5734900D02*
D03*
X1569720Y8762528D02*
D03*
X961360Y-648060D02*
D03*
X4634230Y7712710D02*
D03*
X12221814Y6511755D02*
D03*
X2421890Y9025890D02*
D03*
X13608020Y5503820D02*
D03*
X14843730Y6183270D02*
D03*
X14963139Y5688330D02*
D03*
X11186130Y4324150D02*
D03*
X15108005Y4324106D02*
D03*
X15159959Y5279190D02*
D03*
X15257750Y5233310D02*
D03*
X14096321Y4482002D02*
D03*
X14851028Y5294668D02*
D03*
X14659579Y6179460D02*
D03*
X14307820Y5568950D02*
D03*
X2018030Y8754110D02*
D03*
X3161326Y8289837D02*
D03*
X2715260Y7930082D02*
D03*
X13470000Y4940032D02*
D03*
X4564380Y-784860D02*
D03*
X13407359Y3998870D02*
D03*
X15438091Y4257950D02*
D03*
X14806900Y3826150D02*
D03*
X13966678Y4918868D02*
D03*
X13615640Y4614820D02*
D03*
X13121609Y7291980D02*
D03*
X15469841Y5665923D02*
D03*
X14400500Y5025030D02*
D03*
X14842461Y4664350D02*
D03*
X8315930Y-1126850D02*
D03*
X6460460Y653690D02*
D03*
X9303990Y-1279250D02*
D03*
X9047450Y-1547220D02*
D03*
X14467810Y4731660D02*
D03*
X7242780Y3055260D02*
D03*
D92*
X1968500Y7744460D02*
D03*
D93*
X-550000Y4814996D02*
D03*
%TF.MD5,7129b818d0fde55af643c940e8d8f505*%
M02*
