%TF.GenerationSoftware,Altium Limited,Altium Designer,26.1.1 (7)*%
G04 Layer_Color=0*
%FSLAX45Y45*%
%MOMM*%
%TF.SameCoordinates,6F9AAC4A-738D-4F70-9579-1CED448E312D*%
%TF.FilePolarity,Positive*%
%TF.FileFunction,Plated,1,4,PTH,Drill*%
%TF.Part,Single*%
G01*
G75*
%TA.AperFunction,ComponentDrill*%
%ADD250C,1.10000*%
%ADD258C,0.80000*%
%ADD259C,2.48920*%
%ADD260C,1.20000*%
%ADD261C,1.00000*%
%ADD262C,1.50000*%
%ADD263O,1.50000X3.70000*%
%ADD264O,1.50000X2.50000*%
%ADD265O,1.50000X0.80000*%
%ADD266C,1.20000*%
%ADD267O,3.00000X1.40000*%
%ADD268C,0.80000*%
%ADD269C,1.50000*%
%ADD270O,2.30000X0.92000*%
%ADD271C,0.92000*%
%ADD272C,1.00000*%
%ADD273O,0.80000X1.50000*%
%ADD274C,1.15000*%
%ADD275O,1.00000X2.20000*%
%ADD276O,1.00000X2.40000*%
%ADD277C,2.40000*%
%TA.AperFunction,ViaDrill,NotFilled*%
%ADD278C,0.25000*%
%ADD279C,1.06680*%
%ADD280C,0.40000*%
%ADD281C,0.71120*%
%ADD282C,0.63500*%
%ADD283C,0.38100*%
D250*
X7433280Y7253880D02*
D03*
X4639280D02*
D03*
X4893280D02*
D03*
X5147280D02*
D03*
X5401280D02*
D03*
X5655280D02*
D03*
X5909280D02*
D03*
X6163280D02*
D03*
X6417280D02*
D03*
X6671280D02*
D03*
X6925280D02*
D03*
X7179280D02*
D03*
X7687280D02*
D03*
X7941280D02*
D03*
X4385280D02*
D03*
X4131280D02*
D03*
X9671020D02*
D03*
X9163020D02*
D03*
X9417020D02*
D03*
X9925020D02*
D03*
X13093671Y1085490D02*
D03*
X13347670D02*
D03*
X14150310Y1077870D02*
D03*
X14404311D02*
D03*
X14658310D02*
D03*
X14912309D02*
D03*
D258*
X13159520Y5519080D02*
D03*
X12909520D02*
D03*
X12659520D02*
D03*
X13159520Y5839080D02*
D03*
X12909520D02*
D03*
X12659520D02*
D03*
D259*
X10895300Y4155080D02*
D03*
Y7203080D02*
D03*
X3402300Y4155080D02*
D03*
Y7203080D02*
D03*
D260*
X8398100Y8800200D02*
D03*
X7398100D02*
D03*
X7898100Y9300200D02*
D03*
X6899500Y8800200D02*
D03*
X5899500D02*
D03*
X6399500Y9300200D02*
D03*
X3273800Y1654640D02*
D03*
Y2154640D02*
D03*
X4723800Y1654640D02*
D03*
Y1904640D02*
D03*
Y2154640D02*
D03*
X11023800D02*
D03*
Y1654640D02*
D03*
X9573800Y2154640D02*
D03*
Y1904640D02*
D03*
Y1654640D02*
D03*
X8896700Y10050229D02*
D03*
Y9800229D02*
D03*
X9896700D02*
D03*
Y10050229D02*
D03*
Y8800230D02*
D03*
X8896700D02*
D03*
X9396700Y9300230D02*
D03*
X4400900Y10050230D02*
D03*
Y9800230D02*
D03*
X5400900D02*
D03*
Y10050230D02*
D03*
Y8800230D02*
D03*
X4400900D02*
D03*
X4900900Y9300230D02*
D03*
D261*
X7898100Y8800200D02*
D03*
X7648100D02*
D03*
X8148100D02*
D03*
X7648100Y9300200D02*
D03*
X8148100D02*
D03*
X6399500Y8800200D02*
D03*
X6149500D02*
D03*
X6649500D02*
D03*
X6149500Y9300200D02*
D03*
X6649500D02*
D03*
X9396700Y8800230D02*
D03*
X9146700D02*
D03*
X9646700D02*
D03*
X4900900Y8800230D02*
D03*
X4650900D02*
D03*
X5150900D02*
D03*
D262*
X7273100Y9150200D02*
D03*
X8523100D02*
D03*
X5774500D02*
D03*
X7024500D02*
D03*
X10040040Y-2151410D02*
D03*
X11000040D02*
D03*
X8371650Y-1322250D02*
D03*
X8496650Y-2072250D02*
D03*
X9496650D02*
D03*
Y-1572250D02*
D03*
X9621650Y-1322250D02*
D03*
X8496650Y-1572250D02*
D03*
X6749860Y-1322250D02*
D03*
X6874860Y-2072250D02*
D03*
X7874860D02*
D03*
Y-1572250D02*
D03*
X7999860Y-1322250D02*
D03*
X6874860Y-1572250D02*
D03*
D263*
X7398100Y9925200D02*
D03*
X8398100D02*
D03*
X5899500D02*
D03*
X6899500D02*
D03*
D264*
X7398100Y9350200D02*
D03*
X8398100D02*
D03*
X5899500D02*
D03*
X6899500D02*
D03*
D265*
X7898100Y9800200D02*
D03*
X6399500D02*
D03*
X15649289Y7283980D02*
D03*
Y7033980D02*
D03*
Y6533980D02*
D03*
Y6283980D02*
D03*
X9396700Y9800229D02*
D03*
X4900900Y9800230D02*
D03*
D266*
X4770090Y-1871070D02*
D03*
X5024090D02*
D03*
X5278090D02*
D03*
X4770090Y-1617070D02*
D03*
X5024090D02*
D03*
X5278090D02*
D03*
X16399289Y7283980D02*
D03*
X16149289D02*
D03*
Y6283980D02*
D03*
X16399289D02*
D03*
X15149289D02*
D03*
Y7283980D02*
D03*
X15649289Y6783980D02*
D03*
D267*
X3973800Y2474640D02*
D03*
Y1334640D02*
D03*
X10323800D02*
D03*
Y2474640D02*
D03*
D268*
X10320040Y-2051410D02*
D03*
X10520040D02*
D03*
X10720040D02*
D03*
X10320040Y-2251410D02*
D03*
X10520040D02*
D03*
X10720040D02*
D03*
D269*
X7288800Y2082440D02*
D03*
X7008800D02*
D03*
D270*
X12870200Y6138799D02*
D03*
D271*
X12551600D02*
D03*
X13188800D02*
D03*
D272*
X15149289Y6783980D02*
D03*
Y7033980D02*
D03*
Y6533980D02*
D03*
D273*
X16149289Y6783980D02*
D03*
X8896700Y9300230D02*
D03*
X9146700D02*
D03*
X9646700D02*
D03*
X9896700D02*
D03*
X4400900Y9300230D02*
D03*
X4650900D02*
D03*
X5150900D02*
D03*
X5400900D02*
D03*
D274*
X1358870Y4637680D02*
D03*
X1612870D02*
D03*
X1866870D02*
D03*
X2120870D02*
D03*
X2374870D02*
D03*
D275*
X12255470Y-1429110D02*
D03*
X11735470D02*
D03*
X11395470D02*
D03*
D276*
X12345470Y-2159110D02*
D03*
X11355470D02*
D03*
D277*
X11725470Y-2059110D02*
D03*
D278*
X15400000Y6070000D02*
D03*
X15810001Y3160000D02*
D03*
X15421581Y2758080D02*
D03*
X15030000Y2570000D02*
D03*
X11760000Y2740000D02*
D03*
X11380000Y1600000D02*
D03*
X11740000D02*
D03*
X12030000D02*
D03*
X12450000Y970000D02*
D03*
X12440000Y240000D02*
D03*
X12110000Y320000D02*
D03*
X11160000Y-380000D02*
D03*
X10700000Y-1710000D02*
D03*
X9880000Y-1810000D02*
D03*
X-740000Y6770000D02*
D03*
X2180000Y8670000D02*
D03*
X1410000Y7700000D02*
D03*
X2860000Y7900000D02*
D03*
X3400000Y8310000D02*
D03*
X12380000Y8580000D02*
D03*
X13789999Y8540000D02*
D03*
X15020000Y8010000D02*
D03*
X12180000Y7610000D02*
D03*
X12939999Y6970000D02*
D03*
X12360000Y7120000D02*
D03*
X11180000Y8310000D02*
D03*
X10940000D02*
D03*
X11600000Y7020000D02*
D03*
X11770000Y5360000D02*
D03*
X11400000Y5790000D02*
D03*
X11370000Y5240000D02*
D03*
X10490000Y4060000D02*
D03*
X10920000Y4640000D02*
D03*
X11250000Y3840000D02*
D03*
X12610000Y4150000D02*
D03*
X11540000Y3250000D02*
D03*
X8660000Y3020000D02*
D03*
X2830000Y3430000D02*
D03*
X-1190000Y1160000D02*
D03*
X-500000Y2060000D02*
D03*
X520000Y520000D02*
D03*
X1570000Y-240000D02*
D03*
X1960000Y350000D02*
D03*
X1940000Y180000D02*
D03*
X530000Y1780000D02*
D03*
X420000Y1710000D02*
D03*
X70000Y2080000D02*
D03*
X-170000Y4670000D02*
D03*
Y4820000D02*
D03*
X-310000Y4390000D02*
D03*
X2720000Y4240000D02*
D03*
X2950000Y4770000D02*
D03*
X3290000Y5030000D02*
D03*
X3400000Y6160000D02*
D03*
X3430000Y6790000D02*
D03*
X2880000Y6710000D02*
D03*
X2120000Y5040000D02*
D03*
X2510000Y6060000D02*
D03*
X2090000Y5480000D02*
D03*
X1570000Y5060000D02*
D03*
X1240000Y3940000D02*
D03*
X650000Y3700000D02*
D03*
X140000Y4430000D02*
D03*
X250000Y4850000D02*
D03*
X530000Y4580000D02*
D03*
X800000Y4700000D02*
D03*
X390000Y4950000D02*
D03*
X20000Y5290000D02*
D03*
X360000D02*
D03*
X-520000Y5550000D02*
D03*
X-1680000Y4950000D02*
D03*
Y5070000D02*
D03*
X-1100000Y5010000D02*
D03*
X-890000Y4830000D02*
D03*
Y5050000D02*
D03*
Y5220000D02*
D03*
X-1840000Y860000D02*
D03*
X-500000Y850000D02*
D03*
X2250000Y700000D02*
D03*
X1260000Y1560000D02*
D03*
X820000Y2790000D02*
D03*
X5550000Y1410000D02*
D03*
X6210000Y1590000D02*
D03*
X5480000Y3250000D02*
D03*
X6280000D02*
D03*
X7770000Y610000D02*
D03*
X9310000Y600000D02*
D03*
X8250000Y1080000D02*
D03*
X8650000Y950000D02*
D03*
X8870000Y760000D02*
D03*
X6810000Y800000D02*
D03*
X6650000Y-10000D02*
D03*
X6670000Y510000D02*
D03*
X6660000Y370000D02*
D03*
X6770000Y210000D02*
D03*
X5870000Y790000D02*
D03*
Y660000D02*
D03*
Y510000D02*
D03*
Y370000D02*
D03*
Y190000D02*
D03*
X5910000Y-20000D02*
D03*
X3220000Y370000D02*
D03*
X2490000Y190000D02*
D03*
Y-10000D02*
D03*
Y-170000D02*
D03*
X12620000Y-885000D02*
D03*
X12710000D02*
D03*
X12800000D02*
D03*
Y-795000D02*
D03*
X12710000D02*
D03*
X12620000D02*
D03*
X15300000Y2460000D02*
D03*
X13750000Y2480000D02*
D03*
X14050000Y2810000D02*
D03*
X-1078490Y4050000D02*
D03*
X620000Y3440000D02*
D03*
X-1471271Y4392500D02*
D03*
X14605760Y5643520D02*
D03*
X-1645000Y3202500D02*
D03*
X-1712500Y3225000D02*
D03*
X-1587300Y3127500D02*
D03*
X6703980Y8133910D02*
D03*
X6722500Y8027500D02*
D03*
X-53098Y4960567D02*
D03*
X80000Y5015000D02*
D03*
X-30000Y5692500D02*
D03*
X882501Y5752300D02*
D03*
X1788039Y6338645D02*
D03*
X850000Y3252500D02*
D03*
X-1004048Y4387500D02*
D03*
X-1187500Y4815000D02*
D03*
X-1680000Y4805000D02*
D03*
X-1740000Y4717500D02*
D03*
X-1472699Y6862387D02*
D03*
X-1409999Y6862500D02*
D03*
X-1284296Y4708204D02*
D03*
X-515000Y5135000D02*
D03*
X-450000Y5165000D02*
D03*
X-1637500Y5412500D02*
D03*
Y5570000D02*
D03*
Y5672500D02*
D03*
Y5352500D02*
D03*
X200145Y5292460D02*
D03*
X-1740000Y5672500D02*
D03*
Y5570000D02*
D03*
X-1742500Y5412500D02*
D03*
X-1740000Y4460000D02*
D03*
Y4357500D02*
D03*
X-1742500Y5352500D02*
D03*
X7720000Y-720000D02*
D03*
X-1457500Y3225000D02*
D03*
X-2067000Y2102000D02*
D03*
X-1405000Y4382500D02*
D03*
X-1345000Y6862500D02*
D03*
X-1279996D02*
D03*
X-992500Y7635000D02*
D03*
X-1241508Y4230000D02*
D03*
X-1195000Y4167500D02*
D03*
X790000Y5790000D02*
D03*
X-1360000Y4275000D02*
D03*
X-1310000Y4432500D02*
D03*
X-1022500Y3912500D02*
D03*
X-1130000Y3982500D02*
D03*
X-1600000Y4732500D02*
D03*
X-200000Y5740000D02*
D03*
X-270000Y5850000D02*
D03*
X-150000D02*
D03*
X160000Y5930000D02*
D03*
X2450000Y6890000D02*
D03*
X580000Y5690000D02*
D03*
X730000D02*
D03*
X-130000Y6170000D02*
D03*
X350000Y6100000D02*
D03*
X20000Y5622140D02*
D03*
X690000Y5550000D02*
D03*
X620000Y5500000D02*
D03*
X490000Y5450000D02*
D03*
X540000Y5400000D02*
D03*
X1404590Y5900060D02*
D03*
X1529050Y5837421D02*
D03*
X550000Y3380000D02*
D03*
X-720000Y3510000D02*
D03*
X660000Y3320000D02*
D03*
X-870000Y3330000D02*
D03*
X-800000Y3427852D02*
D03*
X-816265Y3753735D02*
D03*
X-1237500Y5215000D02*
D03*
Y5135000D02*
D03*
Y4978500D02*
D03*
Y4895000D02*
D03*
Y5055000D02*
D03*
D279*
X13439999Y1850000D02*
D03*
X13239999Y2810000D02*
D03*
X11847949Y-360000D02*
D03*
X12787949D02*
D03*
D280*
X11682370Y4065870D02*
D03*
X11570000Y4330000D02*
D03*
X8281640Y266900D02*
D03*
X245950Y4122500D02*
D03*
X2770000Y-1950000D02*
D03*
X2970000Y-1920000D02*
D03*
X378430Y-1551030D02*
D03*
X340000Y-1070000D02*
D03*
X15230000Y1420000D02*
D03*
X13720000Y1550000D02*
D03*
X13442500Y4287500D02*
D03*
X13766620Y4197910D02*
D03*
X15835600Y5223150D02*
D03*
X1835560Y8440560D02*
D03*
X977060Y4700000D02*
D03*
X1030641Y3114929D02*
D03*
X1132500Y2977500D02*
D03*
X15892500Y1170000D02*
D03*
X15560001Y2290000D02*
D03*
X11230000Y870000D02*
D03*
X3630000Y1530000D02*
D03*
X11630000Y7530000D02*
D03*
X759430Y839110D02*
D03*
X9070000Y8020000D02*
D03*
X8660000D02*
D03*
X8250000D02*
D03*
X5857500Y8147500D02*
D03*
X6422500Y8150000D02*
D03*
X6845000Y8155000D02*
D03*
X11935000Y70000D02*
D03*
X4422140Y7725410D02*
D03*
X2247900Y8364220D02*
D03*
X10361900Y9104270D02*
D03*
X10236170Y7845700D02*
D03*
X3910300Y9478920D02*
D03*
X7873970Y9548770D02*
D03*
X6248370Y9491620D02*
D03*
X12125960Y5676900D02*
D03*
X15861000Y5040270D02*
D03*
X14676089Y5934350D02*
D03*
X14147771Y3315610D02*
D03*
X14030960Y6631940D02*
D03*
X14594839Y6314440D02*
D03*
X13455742Y5867633D02*
D03*
X13461971Y6113420D02*
D03*
X2523490Y8148320D02*
D03*
X1112520Y8124190D02*
D03*
X15715009Y4377272D02*
D03*
X11801381Y6726448D02*
D03*
X15506670Y7603130D02*
D03*
X16022290Y5948320D02*
D03*
X11635710Y5609230D02*
D03*
X14034740Y3030570D02*
D03*
X13481020Y3137810D02*
D03*
X6355000Y-300000D02*
D03*
X6503640Y-969370D02*
D03*
X6052790Y-1083670D02*
D03*
X15060899Y6077860D02*
D03*
X15462219Y197760D02*
D03*
X8653750Y2991760D02*
D03*
X1229330Y-1890120D02*
D03*
X-1836450Y1324250D02*
D03*
X3902680Y-1006200D02*
D03*
X5623530Y2488840D02*
D03*
X8296880Y-99420D02*
D03*
X8414990Y1777640D02*
D03*
X13661360Y-1357990D02*
D03*
X16007050Y4240170D02*
D03*
X16374080Y3247030D02*
D03*
X13089861Y8782960D02*
D03*
X1048990Y9635130D02*
D03*
X2604740Y5312050D02*
D03*
X1705580Y4177940D02*
D03*
X236190Y7024010D02*
D03*
X-1750090Y7883800D02*
D03*
X16065469Y5529220D02*
D03*
X15699710Y5662570D02*
D03*
X14827220Y5119010D02*
D03*
X14415050Y3460970D02*
D03*
X13597861Y3559450D02*
D03*
X15514290Y3140350D02*
D03*
X15027879Y3053990D02*
D03*
X12442949Y-50000D02*
D03*
X9404213Y-1286870D02*
D03*
X6685000Y-637500D02*
D03*
X7058630Y-1246230D02*
D03*
X7465030Y-449940D02*
D03*
X8047960Y-380090D02*
D03*
X12580000Y1890000D02*
D03*
X14970760Y2138570D02*
D03*
X14720540Y3136540D02*
D03*
X14552901Y3135270D02*
D03*
X14385260D02*
D03*
X14550366Y2965077D02*
D03*
X14712920Y2958740D02*
D03*
X14710381Y2802530D02*
D03*
X14544009Y2801260D02*
D03*
X14378909Y2802530D02*
D03*
X14380180Y2963820D02*
D03*
X14095700Y2149750D02*
D03*
X15546040Y2916830D02*
D03*
X11449310Y875560D02*
D03*
X11231690Y1018220D02*
D03*
X11229150Y1168080D02*
D03*
X6166890Y7993700D02*
D03*
X3221990Y8991600D02*
D03*
X15685741Y5387161D02*
D03*
X5760338Y-290965D02*
D03*
X13765500Y3560720D02*
D03*
X13882339Y3153050D02*
D03*
X14265880Y3465737D02*
D03*
X2757531Y-484706D02*
D03*
X15180280Y3206390D02*
D03*
X3094960Y2980330D02*
D03*
X763240Y-796650D02*
D03*
X1177260Y-1048110D02*
D03*
X1163290Y-1294490D02*
D03*
X1154400Y-1556110D02*
D03*
X3690590Y2995570D02*
D03*
X4789140Y2990490D02*
D03*
X9394160Y3075580D02*
D03*
X10557480Y2984140D02*
D03*
X11156920Y2990490D02*
D03*
X14971910Y3377840D02*
D03*
X15843221Y5520330D02*
D03*
X16106110Y3450230D02*
D03*
X6205000Y8142500D02*
D03*
X8390000Y8020000D02*
D03*
X7980000D02*
D03*
X8800000D02*
D03*
X7356360Y7840970D02*
D03*
X12989560Y4104640D02*
D03*
X6527500Y-710000D02*
D03*
Y-577500D02*
D03*
X1609060Y7293896D02*
D03*
X380000Y4200000D02*
D03*
X300000Y4280000D02*
D03*
X5532500Y-245000D02*
D03*
X5533021Y88990D02*
D03*
X5104559Y278990D02*
D03*
X4940548Y449220D02*
D03*
X4833620Y7743190D02*
D03*
X4940300Y-320040D02*
D03*
X15320010Y7430770D02*
D03*
X13521384Y4800136D02*
D03*
X1410970Y7863840D02*
D03*
X391840Y-1277980D02*
D03*
X1752489Y7820660D02*
D03*
X11882800Y5835230D02*
D03*
X11619200Y5464450D02*
D03*
X2021810Y4844690D02*
D03*
X5099050Y-238760D02*
D03*
X11756390Y5922010D02*
D03*
X11498490Y5734900D02*
D03*
X1569720Y8762528D02*
D03*
X961360Y-648060D02*
D03*
X4634230Y7712710D02*
D03*
X12221814Y6511755D02*
D03*
X2421890Y9025890D02*
D03*
X13608020Y5503820D02*
D03*
X14843730Y6183270D02*
D03*
X14963139Y5688330D02*
D03*
X11186130Y4324150D02*
D03*
X13016260Y4316370D02*
D03*
X15108005Y4324106D02*
D03*
X15159959Y5279190D02*
D03*
X15257750Y5233310D02*
D03*
X14096321Y4482002D02*
D03*
X14851028Y5294668D02*
D03*
X14659579Y6179460D02*
D03*
X14307820Y5568950D02*
D03*
X2018030Y8754110D02*
D03*
X3161326Y8289837D02*
D03*
X2715260Y7930082D02*
D03*
X13470000Y4940032D02*
D03*
X4564380Y-784860D02*
D03*
X13407359Y3998870D02*
D03*
X13775632Y4607171D02*
D03*
X15414969Y4087937D02*
D03*
X15438091Y4257950D02*
D03*
X14806900Y3826150D02*
D03*
X13250603Y4628032D02*
D03*
X14556709Y3841390D02*
D03*
X13966678Y4918868D02*
D03*
X13615640Y4614820D02*
D03*
X15311249Y4397447D02*
D03*
X13121609Y7291980D02*
D03*
X15469841Y5665923D02*
D03*
X14400500Y5025030D02*
D03*
X12852925Y5009790D02*
D03*
X14842461Y4664350D02*
D03*
X14643069Y4721500D02*
D03*
X8315930Y-1126850D02*
D03*
X6460460Y653690D02*
D03*
X9303990Y-1279250D02*
D03*
X9047450Y-1547220D02*
D03*
X12030680Y3931560D02*
D03*
X14250694Y4743036D02*
D03*
X14467810Y4731660D02*
D03*
X7242780Y3055260D02*
D03*
D281*
X14531310Y1387871D02*
D03*
X14539999Y1650000D02*
D03*
X1968500Y7744460D02*
D03*
D282*
X13702000Y535580D02*
D03*
X13595320Y946190D02*
D03*
D283*
X-550000Y4814996D02*
D03*
%TF.MD5,e3d0cb80b3ed7eba85de2fd9fe8d233e*%
M02*
