%TF.GenerationSoftware,Altium Limited,Altium Designer,26.5.0 (11)*%
G04 Layer_Physical_Order=3*
G04 Layer_Color=128*
G04 Board_Origin=48523622|48129921*
%FSLAX45Y45*%
%MOMM*%
%TF.SameCoordinates,4A54F1C4-411E-4758-A6F6-B641860D93E9*%
%TF.FilePolarity,Negative*%
%TF.FileFunction,Copper,L3,Inr,Plane*%
%TF.Part,Single*%
G01*
G75*
%TA.AperFunction,NonConductor*%
%ADD52C,0.25400*%
%ADD53C,1.01600*%
%TA.AperFunction,ComponentPad*%
%ADD56O,1.25400X2.45400*%
%ADD57O,1.25400X2.65400*%
%ADD58C,2.65400*%
%ADD59C,1.75400*%
%ADD60O,2.25400X4.25400*%
%ADD61C,1.17400*%
%ADD62C,3.45400*%
%ADD64C,2.74320*%
%ADD65C,1.35400*%
G04:AMPARAMS|DCode=66|XSize=2.116mm|YSize=2.116mm|CornerRadius=0mm|HoleSize=0mm|Usage=FLASHONLY|Rotation=0.000|XOffset=0mm|YOffset=0mm|HoleType=Round|Shape=Relief|Width=0.1778mm|Gap=0.254mm|Entries=4|*
%AMTHD66*
7,0,0,2.11600,1.60800,0.17780,45*
%
%ADD66THD66*%
%ADD67O,1.75400X2.75400*%
%ADD68C,1.25400*%
%ADD71O,1.75400X3.95400*%
%ADD72O,1.85400X4.25400*%
%ADD74C,1.45400*%
%ADD75C,1.05400*%
%ADD77C,3.51790*%
G04:AMPARAMS|DCode=78|XSize=2.166mm|YSize=2.166mm|CornerRadius=0mm|HoleSize=0mm|Usage=FLASHONLY|Rotation=0.000|XOffset=0mm|YOffset=0mm|HoleType=Round|Shape=Relief|Width=0.1778mm|Gap=0.254mm|Entries=4|*
%AMTHD78*
7,0,0,2.16600,1.65800,0.17780,45*
%
%ADD78THD78*%
%ADD79C,1.40400*%
%ADD80O,1.75400X1.05400*%
%ADD83O,1.05400X1.75400*%
%ADD85O,3.25400X1.65400*%
G04:AMPARAMS|DCode=86|XSize=2.216mm|YSize=2.216mm|CornerRadius=0mm|HoleSize=0mm|Usage=FLASHONLY|Rotation=0.000|XOffset=0mm|YOffset=0mm|HoleType=Round|Shape=Relief|Width=0.1778mm|Gap=0.254mm|Entries=4|*
%AMTHD86*
7,0,0,2.21600,1.70800,0.17780,45*
%
%ADD86THD86*%
%ADD87C,1.24460*%
%TA.AperFunction,WasherPad*%
%ADD88C,2.75400*%
%TA.AperFunction,ViaPad*%
%ADD89C,0.50400*%
%ADD90C,0.65400*%
%ADD91C,0.96520*%
%ADD93C,1.32080*%
%TA.AperFunction,NonConductor*%
%ADD94C,0.12700*%
%ADD95R,5.52498X22.90053*%
%TA.AperFunction,ComponentPad*%
%ADD96O,2.55400X1.17400*%
%TA.AperFunction,ViaPad*%
%ADD97C,0.88900*%
G36*
X10625990Y7062300D02*
X10641000D01*
X10670443Y7056443D01*
X10698178Y7044955D01*
X10723139Y7028277D01*
X10744366Y7007049D01*
X10761045Y6982088D01*
X10772533Y6954353D01*
X10778390Y6924910D01*
Y6909900D01*
X10778390D01*
Y6430722D01*
X11226116Y6039124D01*
X11238217Y6028541D01*
X11257468Y6002792D01*
X11270923Y5973593D01*
X11277990Y5942230D01*
X11278174Y5926156D01*
X11278175Y5926156D01*
X11283761Y5438221D01*
X11283951Y5421705D01*
X11277244Y5389361D01*
X11263764Y5359204D01*
X11244136Y5332636D01*
X11231704Y5321762D01*
X11231704Y5321762D01*
X10778390Y4925278D01*
X10778390Y4446100D01*
Y4431090D01*
X10772533Y4401647D01*
X10761045Y4373911D01*
X10744366Y4348951D01*
X10723139Y4327723D01*
X10698178Y4311045D01*
X10670443Y4299557D01*
X10641000Y4293700D01*
X10625990D01*
Y4293700D01*
X3674010Y4293700D01*
X3659000D01*
X3629556Y4299557D01*
X3601821Y4311045D01*
X3576861Y4327723D01*
X3555633Y4348951D01*
X3538955Y4373911D01*
X3527467Y4401647D01*
X3521610Y4431090D01*
Y4446100D01*
X3521610D01*
X3521610Y6909900D01*
Y6924910D01*
X3527467Y6954353D01*
X3538955Y6982088D01*
X3555633Y7007049D01*
X3576861Y7028277D01*
X3601821Y7044955D01*
X3629556Y7056443D01*
X3659000Y7062300D01*
X3674010D01*
Y7062300D01*
X10625990Y7062300D01*
D02*
G37*
G36*
X7278988Y2666133D02*
X7286133Y2658988D01*
X7290000Y2649652D01*
Y2644600D01*
Y1072799D01*
Y1067747D01*
X7286133Y1058411D01*
X7278988Y1051266D01*
X7269652Y1047399D01*
X7030597D01*
X7021262Y1051266D01*
X7014117Y1058411D01*
X7010250Y1067747D01*
Y1072799D01*
Y2644600D01*
Y2649652D01*
X7014117Y2658988D01*
X7021262Y2666133D01*
X7030597Y2670000D01*
X7269652D01*
X7278988Y2666133D01*
D02*
G37*
D52*
X11262330Y3499760D02*
X13244574Y3499760D01*
X11262330Y3502330D02*
Y3937910D01*
X11901214Y5340064D02*
X13317555D01*
X11262330Y4701180D02*
X11901214Y5340064D01*
X15224730Y3748680D02*
Y3954693D01*
Y3940085D02*
X15544769D01*
X15224730D02*
Y5002170D01*
X15544769Y3940085D02*
Y5002170D01*
X13317555Y5340064D02*
X13538609Y5119010D01*
X11262330Y3937910D02*
Y4701180D01*
X13317560Y5340060D02*
X13750645Y5773145D01*
X13956000D01*
Y6735720D01*
X14964380Y5880376D02*
Y6735720D01*
Y5880376D02*
X15544769D01*
Y5002170D02*
Y5880376D01*
Y5002170D02*
Y5880376D01*
X14219019Y5002170D02*
X15224730D01*
X14219019D02*
Y5117309D01*
X14207030D02*
X14219019D01*
X14207030D02*
X14208730Y5119010D01*
X13538609D02*
X14208730D01*
X13244574Y3499760D02*
X13493494Y3748680D01*
X15224730D01*
D53*
X7269652Y2670000D02*
X7278988Y2666133D01*
X7286133Y2658988D01*
X7290000Y2649652D01*
Y2644600D02*
Y2649652D01*
Y1072799D02*
Y2644600D01*
Y1067747D02*
Y1072799D01*
X7286133Y1058411D02*
X7290000Y1067747D01*
X7278988Y1051266D02*
X7286133Y1058411D01*
X7269652Y1047399D02*
X7278988Y1051266D01*
X7030597Y1047399D02*
X7269652D01*
X7021262Y1051266D02*
X7030597Y1047399D01*
X7014117Y1058411D02*
X7021262Y1051266D01*
X7010250Y1067747D02*
X7014117Y1058411D01*
X7010250Y1067747D02*
Y1072799D01*
Y2644600D01*
Y2649652D01*
X7014117Y2658988D01*
X7021262Y2666133D01*
X7030597Y2670000D01*
X7269652D01*
X3674010Y7062300D02*
X10625990Y7062300D01*
X10641000D01*
X10670443Y7056443D01*
X10698178Y7044955D01*
X10723139Y7028277D01*
X10744366Y7007049D01*
X10761045Y6982088D01*
X10772533Y6954353D01*
X10778390Y6924910D01*
Y6909900D02*
Y6924910D01*
Y6909900D02*
X10778390D01*
Y6430722D02*
Y6909900D01*
Y6430722D02*
X11226116Y6039124D01*
X11238217Y6028541D01*
X11257468Y6002792D01*
X11270923Y5973593D01*
X11277990Y5942230D01*
X11278174Y5926156D01*
X11278175Y5926156D01*
X11283761Y5438221D01*
X11283951Y5421705D01*
X11277244Y5389361D02*
X11283951Y5421705D01*
X11263764Y5359204D02*
X11277244Y5389361D01*
X11244136Y5332636D02*
X11263764Y5359204D01*
X11231704Y5321762D02*
X11244136Y5332636D01*
X11231704Y5321762D02*
X11231704Y5321762D01*
X10778390Y4925278D02*
X11231704Y5321762D01*
X10778390Y4446100D02*
X10778390Y4925278D01*
X10778390Y4431090D02*
Y4446100D01*
X10772533Y4401647D02*
X10778390Y4431090D01*
X10761045Y4373911D02*
X10772533Y4401647D01*
X10744366Y4348951D02*
X10761045Y4373911D01*
X10723139Y4327723D02*
X10744366Y4348951D01*
X10698178Y4311045D02*
X10723139Y4327723D01*
X10670443Y4299557D02*
X10698178Y4311045D01*
X10641000Y4293700D02*
X10670443Y4299557D01*
X10625990Y4293700D02*
X10641000D01*
X10625990Y4293700D02*
Y4293700D01*
X3674010D02*
X10625990Y4293700D01*
X3659000Y4293700D02*
X3674010D01*
X3629556Y4299557D02*
X3659000Y4293700D01*
X3601821Y4311045D02*
X3629556Y4299557D01*
X3576861Y4327723D02*
X3601821Y4311045D01*
X3555633Y4348951D02*
X3576861Y4327723D01*
X3538955Y4373911D02*
X3555633Y4348951D01*
X3527467Y4401647D02*
X3538955Y4373911D01*
X3521610Y4431090D02*
X3527467Y4401647D01*
X3521610Y4431090D02*
Y4446100D01*
X3521610D02*
X3521610D01*
X3521610D02*
X3521610Y6909900D01*
Y6924910D01*
X3527467Y6954353D01*
X3538955Y6982088D01*
X3555633Y7007049D01*
X3576861Y7028277D01*
X3601821Y7044955D01*
X3629556Y7056443D01*
X3659000Y7062300D01*
X3674010D01*
Y7062300D01*
X12583000Y10150000D02*
X12583130Y10143130D01*
X1717010Y10150000D02*
X12583000D01*
X1717010Y10127000D02*
X1717010Y10150000D01*
X1716406Y10114549D02*
X1717010Y10127000D01*
X1711560Y10090124D02*
X1716406Y10114549D01*
X1702039Y10067116D02*
X1711560Y10090124D01*
X1688208Y10046409D02*
X1702039Y10067116D01*
X1670601Y10028801D02*
X1688208Y10046409D01*
X1649894Y10014971D02*
X1670601Y10028801D01*
X1626885Y10005449D02*
X1649894Y10014971D01*
X1602461Y10000604D02*
X1626885Y10005449D01*
X1590010Y10000000D02*
X1602461Y10000604D01*
X-423001Y10000000D02*
X1590010Y10000000D01*
X-435512Y10000008D02*
X-423001Y10000000D01*
X-460055Y9995139D02*
X-435512Y10000008D01*
X-483175Y9985572D02*
X-460055Y9995139D01*
X-503982Y9971674D02*
X-483175Y9985572D01*
X-521675Y9953981D02*
X-503982Y9971674D01*
X-535572Y9933174D02*
X-521675Y9953981D01*
X-545140Y9910055D02*
X-535572Y9933174D01*
X-550009Y9885511D02*
X-545140Y9910055D01*
X-550009Y9885511D02*
X-550000Y9873001D01*
Y8700000D02*
Y9873001D01*
X-550749Y8677109D02*
X-550000Y8700000D01*
X-556725Y8631718D02*
X-550749Y8677109D01*
X-568574Y8587496D02*
X-556725Y8631718D01*
X-586095Y8545199D02*
X-568574Y8587496D01*
X-608986Y8505550D02*
X-586095Y8545199D01*
X-636856Y8469229D02*
X-608986Y8505550D01*
X-669229Y8436856D02*
X-636856Y8469229D01*
X-705551Y8408985D02*
X-669229Y8436856D01*
X-745199Y8386094D02*
X-705551Y8408985D01*
X-787496Y8368574D02*
X-745199Y8386094D01*
X-831718Y8356725D02*
X-787496Y8368574D01*
X-877109Y8350749D02*
X-831718Y8356725D01*
X-900000Y8350000D02*
X-877109Y8350749D01*
X-2173000Y8350000D02*
X-900000Y8350000D01*
X-2185511Y8350008D02*
X-2173000Y8350000D01*
X-2210055Y8345139D02*
X-2185511Y8350008D01*
X-2233175Y8335572D02*
X-2210055Y8345139D01*
X-2253982Y8321674D02*
X-2233175Y8335572D01*
X-2271675Y8303981D02*
X-2253982Y8321674D01*
X-2285573Y8283174D02*
X-2271675Y8303981D01*
X-2295140Y8260053D02*
X-2285573Y8283174D01*
X-2300009Y8235510D02*
X-2295140Y8260053D01*
X-2300009Y8235510D02*
X-2300000Y8222999D01*
X-2300000Y-423001D01*
Y-435509D02*
Y-423001D01*
Y-435509D02*
X-2295120Y-460045D01*
X-2285546Y-483158D01*
X-2271647Y-503958D01*
X-2253958Y-521648D01*
X-2233157Y-535546D01*
X-2210045Y-545120D01*
X-2185509Y-550000D01*
X-2173000Y-550000D01*
X-900000Y-550000D01*
X-877109Y-550749D01*
X-831718Y-556725D01*
X-787496Y-568574D01*
X-745199Y-586095D01*
X-705551Y-608986D01*
X-669229Y-636856D01*
X-636856Y-669229D01*
X-608986Y-705551D01*
X-586095Y-745199D01*
X-568574Y-787496D01*
X-556725Y-831718D01*
X-550749Y-877109D01*
X-550000Y-900000D01*
X-550001Y-2073000D02*
X-550000Y-900000D01*
X-550004Y-2085509D02*
X-550001Y-2073000D01*
X-550004Y-2085509D02*
X-545128Y-2110046D01*
X-535558Y-2133160D01*
X-521662Y-2153962D01*
X-503973Y-2171652D01*
X-483173Y-2185551D01*
X-460060Y-2195124D01*
X-435523Y-2200002D01*
X-423001Y-2200000D01*
X1516843Y-2200001D01*
X1540104Y-2200762D01*
X1586230Y-2206834D01*
X1631168Y-2218876D01*
X1674150Y-2236680D01*
X1714440Y-2259942D01*
X1751349Y-2288265D01*
X1784245Y-2321162D01*
X1812566Y-2358073D01*
X1835826Y-2398364D01*
X1853628Y-2441347D01*
X1865667Y-2486286D01*
X1871737Y-2532412D01*
X1872509Y-2555665D01*
Y-2591329D02*
Y-2555665D01*
Y-2591329D02*
X3349324Y-2591329D01*
X3349985Y-2577868D01*
X3355237Y-2551464D01*
X3365539Y-2526592D01*
X3380496Y-2504208D01*
X3399532Y-2485172D01*
X3421916Y-2470216D01*
X3446788Y-2459913D01*
X3473192Y-2454662D01*
X3486653Y-2454000D01*
X12468637D01*
X12493171Y-2449120D01*
X12516281Y-2439547D01*
X12537079Y-2425650D01*
X12554767Y-2407962D01*
X12568664Y-2387164D01*
X12578236Y-2364054D01*
X12583116Y-2339520D01*
X12583117Y-2327013D01*
X12583713Y-2314567D01*
X12588543Y-2290151D01*
X12598047Y-2267148D01*
X12611860Y-2246443D01*
X12629449Y-2228833D01*
X12650139Y-2214997D01*
X12673132Y-2205468D01*
X12697543Y-2200611D01*
X12709988Y-2200000D01*
X14722998Y-2200000D01*
X14735507Y-2200000D01*
X14760043Y-2195120D01*
X14783156Y-2185546D01*
X14803957Y-2171647D01*
X14821646Y-2153958D01*
X14835545Y-2133157D01*
X14845119Y-2110045D01*
X14849998Y-2085509D01*
X14849998Y-2073000D01*
X14849998Y-900000D02*
X14849998Y-2073000D01*
X14849998Y-900000D02*
X14850748Y-877109D01*
X14856725Y-831718D01*
X14868573Y-787496D01*
X14886093Y-745199D01*
X14908984Y-705551D01*
X14936855Y-669229D01*
X14969228Y-636856D01*
X15005550Y-608986D01*
X15045200Y-586095D01*
X15087495Y-568575D01*
X15131718Y-556725D01*
X15177109Y-550750D01*
X15200000Y-550000D01*
X16473000D01*
X16485509Y-550000D01*
X16510043Y-545120D01*
X16533157Y-535546D01*
X16553957Y-521648D01*
X16571648Y-503958D01*
X16585545Y-483158D01*
X16595119Y-460045D01*
X16600000Y-435509D01*
X16600000Y-423001D01*
X16600000Y5911510D02*
X16600000Y-423001D01*
X16600000Y5911510D02*
X16600009Y5923608D01*
X16594080Y5947066D02*
X16600009Y5923608D01*
X16582568Y5968348D02*
X16594080Y5947066D01*
X16566180Y5986150D02*
X16582568Y5968348D01*
X16556052Y5992765D02*
X16566180Y5986150D01*
X16536960Y6005248D02*
X16556052Y5992765D01*
X16529265Y6010992D02*
X16536960Y6005248D01*
X16507169Y6041958D02*
X16516289Y6025099D01*
X16502464Y6060540D02*
X16507169Y6041958D01*
X16501868Y6070124D02*
X16502464Y6060540D01*
X16501868Y8222999D02*
X16501868Y6070124D01*
X16500552Y8236708D02*
X16501868Y8222999D01*
X16492667Y8263099D02*
X16500552Y8236708D01*
X16479820Y8287464D02*
X16492667Y8263099D01*
X16462500Y8308881D02*
X16479820Y8287464D01*
X16441360Y8326539D02*
X16462500Y8308881D01*
X16417203Y8339771D02*
X16441360Y8326539D01*
X16390939Y8348076D02*
X16417203Y8339771D01*
X16363567Y8351139D02*
X16390939Y8348076D01*
X16349843Y8349992D02*
X16363567Y8351139D01*
X15200000Y8350000D02*
X16349843Y8349992D01*
X15177109Y8350749D02*
X15200000Y8350000D01*
X15131718Y8356725D02*
X15177109Y8350749D01*
X15087495Y8368574D02*
X15131718Y8356725D01*
X15045200Y8386094D02*
X15087495Y8368574D01*
X15005550Y8408985D02*
X15045200Y8386094D01*
X14969229Y8436856D02*
X15005550Y8408985D01*
X14936856Y8469229D02*
X14969229Y8436856D01*
X14908984Y8505550D02*
X14936856Y8469229D01*
X14886095Y8545199D02*
X14908984Y8505550D01*
X14868575Y8587496D02*
X14886095Y8545199D01*
X14856725Y8631718D02*
X14868575Y8587496D01*
X14850749Y8677109D02*
X14856725Y8631718D01*
X14850000Y8700000D02*
X14850749Y8677109D01*
X14850000Y9889130D02*
X14850000Y8700000D01*
X14850000Y9889130D02*
X14850005Y9901640D01*
X14845132Y9926181D02*
X14850005Y9901640D01*
X14835562Y9949298D02*
X14845132Y9926181D01*
X14821664Y9970104D02*
X14835562Y9949298D01*
X14803972Y9987795D02*
X14821664Y9970104D01*
X14783167Y10001693D02*
X14803972Y9987795D01*
X14760049Y10011263D02*
X14783167Y10001693D01*
X14735509Y10016136D02*
X14760049Y10011263D01*
X14723000Y10016130D02*
X14735509Y10016136D01*
X12710130Y10016130D02*
X14723000Y10016130D01*
X12697681Y10016739D02*
X12710130Y10016130D01*
X12673261Y10021593D02*
X12697681Y10016739D01*
X12650257Y10031118D02*
X12673261Y10021593D01*
X12629555Y10044950D02*
X12650257Y10031118D01*
X12611950Y10062555D02*
X12629555Y10044950D01*
X12598118Y10083257D02*
X12611950Y10062555D01*
X12588593Y10106261D02*
X12598118Y10083257D01*
X12583739Y10130681D02*
X12588593Y10106261D01*
X12583130Y10143130D02*
X12583739Y10130681D01*
X16516289Y6025099D02*
X16529265Y6010992D01*
D56*
X12255470Y-1429110D02*
D03*
X11735470D02*
D03*
X11395470D02*
D03*
D57*
X12345470Y-2159110D02*
D03*
X11355470D02*
D03*
D58*
X11725470Y-2059110D02*
D03*
D59*
X6749860Y-1322250D02*
D03*
X6874860Y-2072250D02*
D03*
X7874860D02*
D03*
Y-1572250D02*
D03*
X7999860Y-1322250D02*
D03*
X6874860Y-1572250D02*
D03*
X8371650Y-1322250D02*
D03*
X8496650Y-2072250D02*
D03*
X9496650D02*
D03*
Y-1572250D02*
D03*
X9621650Y-1322250D02*
D03*
X8496650Y-1572250D02*
D03*
X7024500Y9150200D02*
D03*
X5774500D02*
D03*
X7008800Y2082440D02*
D03*
X7288800D02*
D03*
X11000040Y-2151410D02*
D03*
X10040040D02*
D03*
X8523100Y9150200D02*
D03*
X7273100D02*
D03*
D60*
X7174860Y-2072250D02*
D03*
X7574860D02*
D03*
X8796650D02*
D03*
X9196650D02*
D03*
D61*
X13188800Y6138799D02*
D03*
X12551600D02*
D03*
D62*
X13350200Y5307419D02*
D03*
X11910200Y6138799D02*
D03*
X13350200Y6970179D02*
D03*
D64*
X3402300Y7203080D02*
D03*
Y4155080D02*
D03*
X10895300Y7203080D02*
D03*
Y4155080D02*
D03*
D65*
X9925020Y7253880D02*
D03*
X9417020D02*
D03*
X9163020D02*
D03*
X9671020D02*
D03*
X4131280D02*
D03*
X4385280D02*
D03*
X7941280D02*
D03*
X6925280D02*
D03*
X6671280D02*
D03*
X6417280D02*
D03*
X6163280D02*
D03*
X5909280D02*
D03*
X5655280D02*
D03*
X5401280D02*
D03*
X5147280D02*
D03*
X4893280D02*
D03*
X4639280D02*
D03*
X7433280D02*
D03*
X7179280D02*
D03*
X14912309Y1077870D02*
D03*
X14658310D02*
D03*
X14404311D02*
D03*
X14150310D02*
D03*
X13093671Y831490D02*
D03*
X13347670D02*
D03*
Y1085490D02*
D03*
X13093671D02*
D03*
D66*
X7687280Y7253880D02*
D03*
D67*
X6899500Y9350200D02*
D03*
X5899500D02*
D03*
X8398100D02*
D03*
X7398100D02*
D03*
D68*
X6649500Y9300200D02*
D03*
X6149500D02*
D03*
X6649500Y8800200D02*
D03*
X6149500D02*
D03*
X6399500D02*
D03*
X15149289Y6533980D02*
D03*
Y6783980D02*
D03*
Y7033980D02*
D03*
X9646700Y8800230D02*
D03*
X9146700D02*
D03*
X9396700D02*
D03*
X5150900Y8800230D02*
D03*
X4650900D02*
D03*
X4900900D02*
D03*
X8148100Y9300200D02*
D03*
X7648100D02*
D03*
X8148100Y8800200D02*
D03*
X7648100D02*
D03*
X7898100D02*
D03*
D71*
X6899500Y9925200D02*
D03*
X5899500D02*
D03*
X8398100D02*
D03*
X7398100D02*
D03*
D72*
X6619500Y9900200D02*
D03*
X6179500D02*
D03*
X8118100D02*
D03*
X7678100D02*
D03*
D74*
X6399500Y9300200D02*
D03*
X5899500Y8800200D02*
D03*
X6899500D02*
D03*
X15649289Y6783980D02*
D03*
X15149289Y7283980D02*
D03*
Y6283980D02*
D03*
X16399289D02*
D03*
X16149289D02*
D03*
Y7283980D02*
D03*
X16399289D02*
D03*
X9396700Y9300230D02*
D03*
X8896700Y8800230D02*
D03*
X9896700D02*
D03*
Y10050229D02*
D03*
Y9800229D02*
D03*
X8896700D02*
D03*
Y10050229D02*
D03*
X4900900Y9300230D02*
D03*
X4400900Y8800230D02*
D03*
X5400900D02*
D03*
Y10050230D02*
D03*
Y9800230D02*
D03*
X4400900D02*
D03*
Y10050230D02*
D03*
X4723800Y2154640D02*
D03*
Y1904640D02*
D03*
Y1654640D02*
D03*
X3273800Y2154640D02*
D03*
Y1654640D02*
D03*
X9573800D02*
D03*
Y1904640D02*
D03*
Y2154640D02*
D03*
X11023800Y1654640D02*
D03*
Y2154640D02*
D03*
X7898100Y9300200D02*
D03*
X7398100Y8800200D02*
D03*
X8398100D02*
D03*
X5024090Y-1617070D02*
D03*
X4770090D02*
D03*
X5278090Y-1871070D02*
D03*
X5024090D02*
D03*
X4770090D02*
D03*
D75*
X12659520Y5839080D02*
D03*
X12909520D02*
D03*
X13159520D02*
D03*
X12659520Y5519080D02*
D03*
X12909520D02*
D03*
X13159520D02*
D03*
X10720040Y-2251410D02*
D03*
X10520040D02*
D03*
X10320040D02*
D03*
X10720040Y-2051410D02*
D03*
X10520040D02*
D03*
X10320040D02*
D03*
D77*
X644002Y5015000D02*
D03*
D78*
X2120870Y4637680D02*
D03*
D79*
X2374870D02*
D03*
X1866870D02*
D03*
X1612870D02*
D03*
X1358870D02*
D03*
D80*
X6399500Y9800200D02*
D03*
X15649289Y6283980D02*
D03*
Y6533980D02*
D03*
Y7033980D02*
D03*
Y7283980D02*
D03*
X9396700Y9800229D02*
D03*
X4900900Y9800230D02*
D03*
X7898100Y9800200D02*
D03*
D83*
X16149289Y6783980D02*
D03*
X9896700Y9300230D02*
D03*
X9646700D02*
D03*
X9146700D02*
D03*
X8896700D02*
D03*
X5400900Y9300230D02*
D03*
X5150900D02*
D03*
X4650900D02*
D03*
X4400900D02*
D03*
D85*
X3973800Y1334640D02*
D03*
Y2474640D02*
D03*
X10323800D02*
D03*
Y1334640D02*
D03*
D86*
X5278090Y-1617070D02*
D03*
D87*
X-1840000Y3294300D02*
D03*
Y3497500D02*
D03*
X-1332000Y3395900D02*
D03*
D88*
X0Y0D02*
D03*
Y7800000D02*
D03*
X14300000D02*
D03*
Y0D02*
D03*
D89*
X13030000Y1720000D02*
D03*
X15889999Y1910000D02*
D03*
X1100000Y-810000D02*
D03*
X2550000Y-1920000D02*
D03*
X1880000Y-1330000D02*
D03*
X310000Y-1410000D02*
D03*
X2580000Y-1720000D02*
D03*
X4760000Y1020000D02*
D03*
X4480000Y500000D02*
D03*
X4430000Y800000D02*
D03*
X4470000Y650000D02*
D03*
X4510000Y380000D02*
D03*
X4560000Y190000D02*
D03*
X4580000Y-20000D02*
D03*
X3700000Y190000D02*
D03*
X3890000Y-20000D02*
D03*
X13600000Y6350000D02*
D03*
X11520000Y7740000D02*
D03*
X8780000D02*
D03*
X7390000Y8080000D02*
D03*
X7180000Y7560000D02*
D03*
X6500000Y7740000D02*
D03*
X4950000Y7750000D02*
D03*
X4200000Y7600000D02*
D03*
X5520000Y8220000D02*
D03*
X4650000Y8190000D02*
D03*
X2560000Y5740000D02*
D03*
X1760000Y5310000D02*
D03*
X1240000Y5290000D02*
D03*
X-180000Y3840000D02*
D03*
X-60000Y3550000D02*
D03*
X-650000Y3840000D02*
D03*
X-390000Y3850000D02*
D03*
X-110000Y-1431000D02*
D03*
X3230000Y-1310000D02*
D03*
X2100000Y-2040000D02*
D03*
X2730000Y-1350000D02*
D03*
X7940000Y-730000D02*
D03*
X7480000Y-570000D02*
D03*
X7220000Y-590000D02*
D03*
X6990000Y-470000D02*
D03*
X6960000Y-1090000D02*
D03*
X7220000Y-1050000D02*
D03*
X7440000Y-1060000D02*
D03*
X7630000Y-1370000D02*
D03*
X7340000Y-1730000D02*
D03*
X7380000Y-2350000D02*
D03*
X8990000Y-2340000D02*
D03*
X8310000Y-840000D02*
D03*
X8620000Y-910000D02*
D03*
X8850000Y-820000D02*
D03*
X9100000Y-840000D02*
D03*
X9330000Y-780000D02*
D03*
X9570000Y-720000D02*
D03*
X9170000Y3870000D02*
D03*
X10900000D02*
D03*
X2980000D02*
D03*
X15210001Y1180000D02*
D03*
X13320000Y1460000D02*
D03*
X13739999Y1200000D02*
D03*
X13239999Y5020000D02*
D03*
X12520000Y4720000D02*
D03*
X12380000Y4590000D02*
D03*
X12190000Y4350000D02*
D03*
X10720000Y2410000D02*
D03*
X11070000Y1890000D02*
D03*
X11110000Y2350000D02*
D03*
X-1360000Y4720000D02*
D03*
X-1208747Y4249423D02*
D03*
X-851148Y4178852D02*
D03*
X-1250000Y4300000D02*
D03*
X-1080000Y3690000D02*
D03*
X-1350000Y4030000D02*
D03*
X16060001Y470000D02*
D03*
X12770000Y1280000D02*
D03*
X12780000Y3330000D02*
D03*
X13780000Y3250000D02*
D03*
X14939999Y3370000D02*
D03*
X11830000Y5820000D02*
D03*
X14170000Y6960000D02*
D03*
X8360000Y9000000D02*
D03*
X9270000Y9060000D02*
D03*
X6260000Y9130000D02*
D03*
X5430000Y9100000D02*
D03*
X4120000Y8970000D02*
D03*
X2000000Y9730000D02*
D03*
X3030000Y8510000D02*
D03*
X2680000Y8410000D02*
D03*
X1370000Y8510000D02*
D03*
X300000Y8470000D02*
D03*
X1710000Y8900000D02*
D03*
X680000D02*
D03*
X-640000Y7410000D02*
D03*
X-1880000Y6420000D02*
D03*
X-1180000Y6310000D02*
D03*
X-380000Y6560000D02*
D03*
X1190000Y6470000D02*
D03*
X500000Y6440000D02*
D03*
X2390000Y2110000D02*
D03*
X1990000Y2820000D02*
D03*
X1340000Y3290000D02*
D03*
X4440000Y2150000D02*
D03*
X4050000Y1810000D02*
D03*
X3290000Y2760000D02*
D03*
X3890000Y3520000D02*
D03*
X8190000Y2530000D02*
D03*
X9920000Y3110000D02*
D03*
X9950000Y2150000D02*
D03*
X10670000Y1650000D02*
D03*
X9930000Y720000D02*
D03*
X10490000Y280000D02*
D03*
X10400000Y-490000D02*
D03*
X10340000Y-1790000D02*
D03*
X10370000Y-1200000D02*
D03*
X14539999Y2140000D02*
D03*
X14550000Y2460000D02*
D03*
X14930000Y1270000D02*
D03*
X14139999Y1280000D02*
D03*
X14130000Y1630000D02*
D03*
X14920000Y1640000D02*
D03*
X12470000Y-820000D02*
D03*
X11730000Y-1140000D02*
D03*
X11740000Y-790000D02*
D03*
X12839999Y-1620000D02*
D03*
X14130000Y-930000D02*
D03*
X13460001Y-240000D02*
D03*
X16339999Y5410000D02*
D03*
X16350000Y4640000D02*
D03*
Y3900000D02*
D03*
X15989999Y4610000D02*
D03*
Y4980000D02*
D03*
X16000000Y5220000D02*
D03*
X14550000Y5510000D02*
D03*
X14410001Y5410000D02*
D03*
X14689999D02*
D03*
X14320000Y5140000D02*
D03*
X14570000Y5130000D02*
D03*
X15020000Y4960000D02*
D03*
X14120000Y4950000D02*
D03*
X13380000Y4660000D02*
D03*
X13213480Y4343400D02*
D03*
X13861150Y4397650D02*
D03*
X9310117Y600199D02*
D03*
X15400000Y6070000D02*
D03*
X3326621Y8154000D02*
D03*
X1630000Y8410000D02*
D03*
X313105Y7266000D02*
D03*
X710000Y-1690000D02*
D03*
X-110000Y-1050000D02*
D03*
X645620Y-449950D02*
D03*
X15250900Y3659781D02*
D03*
X15253349Y3502301D02*
D03*
X14800000Y3850000D02*
D03*
X14320000Y3840000D02*
D03*
X13020000Y4440000D02*
D03*
X13500000Y4780000D02*
D03*
X12970000Y5260000D02*
D03*
X11160000Y3760000D02*
D03*
X-2060000Y2350000D02*
D03*
Y2220000D02*
D03*
X10700000Y2990000D02*
D03*
X2287662Y7374108D02*
D03*
X12365378Y7125378D02*
D03*
X13942032Y5194670D02*
D03*
X12950000Y2640000D02*
D03*
X13020000Y2330000D02*
D03*
X13150000Y2440000D02*
D03*
X13260001Y2560000D02*
D03*
X8650000Y950000D02*
D03*
X8228852Y1101148D02*
D03*
X-1078490Y4050000D02*
D03*
X440000Y3302700D02*
D03*
X290000Y5979600D02*
D03*
X-170000Y4680000D02*
D03*
X-1650000Y3530000D02*
D03*
X2730001Y1789999D02*
D03*
X440000Y3640000D02*
D03*
X2830000Y3388650D02*
D03*
X5260000Y2000000D02*
D03*
Y1910000D02*
D03*
Y1810000D02*
D03*
X1360000Y6220000D02*
D03*
X850000Y5790000D02*
D03*
X1370000Y6147300D02*
D03*
X3440000Y9139999D02*
D03*
X5910000Y8150000D02*
D03*
X7820000D02*
D03*
X650000Y3700000D02*
D03*
X820000Y2790000D02*
D03*
X440000Y3370000D02*
D03*
Y3240000D02*
D03*
X-1280000Y4710000D02*
D03*
X6610000Y8160000D02*
D03*
X6750000D02*
D03*
X8660000D02*
D03*
X8520000D02*
D03*
X2910400Y6710000D02*
D03*
X-711200Y5735320D02*
D03*
X-721360Y5646420D02*
D03*
X347980Y5737860D02*
D03*
X-737593Y5871643D02*
D03*
X-797560Y5740400D02*
D03*
X200145Y5292460D02*
D03*
X20000Y5290000D02*
D03*
X372028Y5277972D02*
D03*
X459740Y5552440D02*
D03*
X1480820Y5450840D02*
D03*
X1590400Y5060000D02*
D03*
X520000Y5600000D02*
D03*
X-520000Y5130000D02*
D03*
X-820000Y5140000D02*
D03*
X110000Y4970000D02*
D03*
X-20000Y4910000D02*
D03*
X570000Y5740000D02*
D03*
X-450000Y5920400D02*
D03*
X3400000Y6160000D02*
D03*
X3430000Y6790000D02*
D03*
X2071148Y6678852D02*
D03*
X1530000Y6620000D02*
D03*
X2250000Y8960000D02*
D03*
X3400000Y8310000D02*
D03*
X770000Y5790000D02*
D03*
X-520000Y5490000D02*
D03*
X-901148Y5761148D02*
D03*
X-960000Y5860000D02*
D03*
X-170000Y6430000D02*
D03*
X2536148Y6033852D02*
D03*
X2091148Y5478852D02*
D03*
X15810001Y3160000D02*
D03*
X15421581Y2758080D02*
D03*
X15030000Y2570000D02*
D03*
X11760000Y2740000D02*
D03*
X11380000Y1600000D02*
D03*
X11740000D02*
D03*
X12030000D02*
D03*
X12450000Y970000D02*
D03*
X12110000Y320000D02*
D03*
X11160000Y-380000D02*
D03*
X10700000Y-1710000D02*
D03*
X9880000Y-1810000D02*
D03*
X-740000Y6770000D02*
D03*
X1410000Y7700000D02*
D03*
X2860000Y7900000D02*
D03*
X12380000Y8580000D02*
D03*
X13789999Y8540000D02*
D03*
X15020000Y8010000D02*
D03*
X12180000Y7610000D02*
D03*
X12939999Y6970000D02*
D03*
X11180000Y8310000D02*
D03*
X10940000D02*
D03*
X11600000Y7020000D02*
D03*
X11770000Y5360000D02*
D03*
X11400000Y5790000D02*
D03*
X11370000Y5240000D02*
D03*
X10490000Y4060000D02*
D03*
X10920000Y4640000D02*
D03*
X12610000Y4150000D02*
D03*
X11540000Y3250000D02*
D03*
X8660000Y3020000D02*
D03*
X-1190000Y1160000D02*
D03*
X-500000Y2060000D02*
D03*
X520000Y520000D02*
D03*
X1570000Y-240000D02*
D03*
X1960000Y350000D02*
D03*
X1940000Y180000D02*
D03*
X530000Y1780000D02*
D03*
X420000Y1710000D02*
D03*
X70000Y2080000D02*
D03*
X-170000Y4820000D02*
D03*
X-310000Y4390000D02*
D03*
X2720000Y4240000D02*
D03*
X2950000Y4770000D02*
D03*
X3290000Y5030000D02*
D03*
X2120000Y5040000D02*
D03*
X1240000Y3940000D02*
D03*
X140000Y4430000D02*
D03*
X250000Y4850000D02*
D03*
X530000Y4580000D02*
D03*
X800000Y4700000D02*
D03*
X390000Y4950000D02*
D03*
X-1680000D02*
D03*
Y5070000D02*
D03*
X-1100000Y5010000D02*
D03*
X-890000Y4830000D02*
D03*
Y5050000D02*
D03*
Y5220000D02*
D03*
X-1840000Y860000D02*
D03*
X-500000Y850000D02*
D03*
X2250000Y700000D02*
D03*
X1260000Y1560000D02*
D03*
X5550000Y1410000D02*
D03*
X6210000Y1590000D02*
D03*
X5480000Y3250000D02*
D03*
X6280000D02*
D03*
X7770000Y610000D02*
D03*
X8870000Y760000D02*
D03*
X6810000Y800000D02*
D03*
X6650000Y-10000D02*
D03*
X6670000Y510000D02*
D03*
X6660000Y370000D02*
D03*
X6770000Y210000D02*
D03*
X5870000Y790000D02*
D03*
Y660000D02*
D03*
Y510000D02*
D03*
Y370000D02*
D03*
Y190000D02*
D03*
X5910000Y-20000D02*
D03*
X3220000Y370000D02*
D03*
X2490000Y190000D02*
D03*
Y-10000D02*
D03*
Y-170000D02*
D03*
X12620000Y-885000D02*
D03*
X12710000D02*
D03*
X12800000D02*
D03*
Y-795000D02*
D03*
X12710000D02*
D03*
X12620000D02*
D03*
X15300000Y2460000D02*
D03*
X13750000Y2480000D02*
D03*
X14050000Y2810000D02*
D03*
X-1471271Y4392500D02*
D03*
X14605760Y5643520D02*
D03*
X-1712500Y3225000D02*
D03*
X-1587300Y3127500D02*
D03*
X-1004048Y4387500D02*
D03*
X-1187500Y4815000D02*
D03*
X-1680000Y4805000D02*
D03*
X-1740000Y4717500D02*
D03*
X-1472699Y6862387D02*
D03*
X-1409999Y6862500D02*
D03*
X-1637500Y5412500D02*
D03*
Y5570000D02*
D03*
Y5672500D02*
D03*
Y5352500D02*
D03*
X-1740000Y5672500D02*
D03*
Y5570000D02*
D03*
X-1742500Y5412500D02*
D03*
X-1740000Y4460000D02*
D03*
Y4357500D02*
D03*
X-1742500Y5352500D02*
D03*
X7720000Y-720000D02*
D03*
X-1405000Y4382500D02*
D03*
X-1345000Y6862500D02*
D03*
X-1279996D02*
D03*
X-992500Y7635000D02*
D03*
X-1360000Y4275000D02*
D03*
X-1310000Y4432500D02*
D03*
X-1022500Y3912500D02*
D03*
X-1130000Y3982500D02*
D03*
X-1600000Y4732500D02*
D03*
X-720000Y3510000D02*
D03*
X-870000Y3330000D02*
D03*
X-800000Y3427852D02*
D03*
X-816265Y3753735D02*
D03*
X-1237500Y5215000D02*
D03*
Y5135000D02*
D03*
Y4978500D02*
D03*
Y4895000D02*
D03*
Y5055000D02*
D03*
D90*
X-524778Y4535001D02*
D03*
X9936960Y-858749D02*
D03*
X10192310Y-1145900D02*
D03*
X9999780Y-1500000D02*
D03*
X10004780Y-1340000D02*
D03*
X12099779Y-997499D02*
D03*
X13860001Y3590000D02*
D03*
X2101730Y-2471329D02*
D03*
X3146290Y-2371329D02*
D03*
X6564400Y-384770D02*
D03*
X6081990Y-361640D02*
D03*
X9347591Y139930D02*
D03*
X7970000Y140000D02*
D03*
X7214420Y136450D02*
D03*
X8977590Y275150D02*
D03*
X6080000Y-770000D02*
D03*
X16041840Y5967869D02*
D03*
X730000Y-1560000D02*
D03*
X15039999Y3960000D02*
D03*
X13442500Y4287500D02*
D03*
X13250603Y4628032D02*
D03*
X13559433Y4859433D02*
D03*
X12860001Y5160000D02*
D03*
X11500000Y4010000D02*
D03*
X12439780Y247500D02*
D03*
X12220000Y5897060D02*
D03*
X11970000Y5820000D02*
D03*
X13479781Y6150000D02*
D03*
X13489838Y6015060D02*
D03*
X13479781Y5730000D02*
D03*
X13470000Y4940032D02*
D03*
X13479781Y5870000D02*
D03*
X15831030Y4532270D02*
D03*
X15828490Y4707530D02*
D03*
X15827768Y4877712D02*
D03*
X15970390Y4276829D02*
D03*
X15500000Y3100000D02*
D03*
X10714780Y850000D02*
D03*
Y980000D02*
D03*
X8964780Y1480000D02*
D03*
Y2140000D02*
D03*
X15695889Y5670000D02*
D03*
X14810001Y5290000D02*
D03*
X15230000Y5240000D02*
D03*
X14950000Y5770000D02*
D03*
X15860001Y5100000D02*
D03*
X15339999Y5520000D02*
D03*
X14110001Y4390000D02*
D03*
X14970760Y2138570D02*
D03*
X1050000Y3130000D02*
D03*
X1130000Y2430000D02*
D03*
X310000Y4040000D02*
D03*
X250000Y3920000D02*
D03*
X380000Y3870000D02*
D03*
X3151622Y8010400D02*
D03*
X10236170Y7862191D02*
D03*
X4910000Y7940400D02*
D03*
X4670000Y7880000D02*
D03*
X980000Y5080000D02*
D03*
X2247900Y8364220D02*
D03*
X4430000Y7790000D02*
D03*
X1780000Y7800000D02*
D03*
X761270Y7372896D02*
D03*
X236190Y7024010D02*
D03*
X14250694Y4743036D02*
D03*
X14643069Y4721500D02*
D03*
X15311249Y4397447D02*
D03*
X14556709Y3841390D02*
D03*
X15464848Y4111437D02*
D03*
X13775632Y4607171D02*
D03*
X13016260Y4316370D02*
D03*
X12989560Y4104640D02*
D03*
X13766620Y4197910D02*
D03*
X11510000Y4170000D02*
D03*
X8281640Y266900D02*
D03*
X2970000Y-1920000D02*
D03*
X340000Y-1070000D02*
D03*
X15230000Y1420000D02*
D03*
X13720000Y1550000D02*
D03*
X1835560Y8440560D02*
D03*
X15892500Y1170000D02*
D03*
X15560001Y2290000D02*
D03*
X759430Y839110D02*
D03*
X11935000Y70000D02*
D03*
X10361900Y9104270D02*
D03*
X3910300Y9478920D02*
D03*
X7873970Y9548770D02*
D03*
X6248370Y9491620D02*
D03*
X12125960Y5676900D02*
D03*
X14676089Y5934350D02*
D03*
X14147771Y3315610D02*
D03*
X14030960Y6631940D02*
D03*
X14594839Y6314440D02*
D03*
X2523490Y8148320D02*
D03*
X1112520Y8124190D02*
D03*
X15715009Y4377272D02*
D03*
X11801381Y6726448D02*
D03*
X15506670Y7603130D02*
D03*
X11635710Y5609230D02*
D03*
X14034740Y3030570D02*
D03*
X13481020Y3137810D02*
D03*
X6355000Y-300000D02*
D03*
X6503640Y-969370D02*
D03*
X6052790Y-1083670D02*
D03*
X15060899Y6077860D02*
D03*
X15462219Y197760D02*
D03*
X1229330Y-1890120D02*
D03*
X-1836450Y1324250D02*
D03*
X3902680Y-1006200D02*
D03*
X5623530Y2488840D02*
D03*
X8296880Y-99420D02*
D03*
X8414990Y1777640D02*
D03*
X13661360Y-1357990D02*
D03*
X16374080Y3247030D02*
D03*
X13089861Y8782960D02*
D03*
X1048990Y9635130D02*
D03*
X2604740Y5312050D02*
D03*
X1705580Y4177940D02*
D03*
X-1750090Y7883800D02*
D03*
X14827220Y5119010D02*
D03*
X14415050Y3460970D02*
D03*
X15027879Y3053990D02*
D03*
X12442949Y-50000D02*
D03*
X9404213Y-1286870D02*
D03*
X6685000Y-637500D02*
D03*
X7058630Y-1246230D02*
D03*
X7465030Y-449940D02*
D03*
X8047960Y-380090D02*
D03*
X12580000Y1890000D02*
D03*
X14720540Y3136540D02*
D03*
X14552901Y3135270D02*
D03*
X14385260D02*
D03*
X14550366Y2965077D02*
D03*
X14712920Y2958740D02*
D03*
X14710381Y2802530D02*
D03*
X14544009Y2801260D02*
D03*
X14378909Y2802530D02*
D03*
X14380180Y2963820D02*
D03*
X14095700Y2149750D02*
D03*
X15546040Y2916830D02*
D03*
X6527500Y-710000D02*
D03*
Y-577500D02*
D03*
X5532500Y-245000D02*
D03*
X5533021Y88990D02*
D03*
X5104559Y278990D02*
D03*
X4940548Y449220D02*
D03*
X4940300Y-320040D02*
D03*
X1410970Y7863840D02*
D03*
X391840Y-1277980D02*
D03*
X11619200Y5464450D02*
D03*
X5099050Y-238760D02*
D03*
X11498490Y5734900D02*
D03*
X961360Y-648060D02*
D03*
X11186130Y4324150D02*
D03*
X2715260Y7930082D02*
D03*
X13966678Y4918868D02*
D03*
X13121609Y7291980D02*
D03*
X14400500Y5025030D02*
D03*
X8315930Y-1126850D02*
D03*
X6460460Y653690D02*
D03*
X9303990Y-1279250D02*
D03*
X9047450Y-1547220D02*
D03*
X7242780Y3055260D02*
D03*
D91*
X14531310Y1387871D02*
D03*
X14539999Y1650000D02*
D03*
D93*
X13439999Y1850000D02*
D03*
X13239999Y2810000D02*
D03*
X11847949Y-360000D02*
D03*
X12787949D02*
D03*
D94*
X13317560Y5340060D02*
X13362619Y5295000D01*
X13956000Y6735720D02*
X14964380D01*
X15544769Y5880376D02*
X15547308D01*
D95*
X-2033749Y5014979D02*
D03*
D96*
X12870200Y6138799D02*
D03*
D97*
X13700000Y970000D02*
D03*
X13702000Y535580D02*
D03*
%TF.MD5,a7e56f9481e5e11a8ed16918ac1df3a0*%
M02*
