%TF.GenerationSoftware,Altium Limited,Altium Designer,26.1.1 (7)*%
G04 Layer_Color=16711935*
%FSLAX45Y45*%
%MOMM*%
%TF.SameCoordinates,6F9AAC4A-738D-4F70-9579-1CED448E312D*%
%TF.FilePolarity,Positive*%
%TF.FileFunction,Other,Assembly_Notes*%
%TF.Part,Single*%
G01*
G75*
%TA.AperFunction,NonConductor*%
%ADD94C,0.12700*%
%ADD149C,0.10000*%
%ADD152C,0.20000*%
G36*
X12645252Y-852506D02*
X12642730D01*
X12642281Y-851712D01*
X12641763Y-850952D01*
X12641176Y-850226D01*
X12640589Y-849604D01*
X12640070Y-849017D01*
X12639829Y-848810D01*
X12639656Y-848603D01*
X12639483Y-848430D01*
X12639345Y-848326D01*
X12639276Y-848257D01*
X12639241Y-848223D01*
X12638309Y-847428D01*
X12637307Y-846737D01*
X12636340Y-846081D01*
X12635442Y-845528D01*
X12635062Y-845321D01*
X12634682Y-845114D01*
X12634336Y-844906D01*
X12634060Y-844768D01*
X12633818Y-844665D01*
X12633645Y-844561D01*
X12633542Y-844526D01*
X12633507Y-844492D01*
Y-840727D01*
X12634198Y-841003D01*
X12634923Y-841314D01*
X12635614Y-841659D01*
X12636236Y-841970D01*
X12636789Y-842281D01*
X12637031Y-842385D01*
X12637238Y-842523D01*
X12637411Y-842592D01*
X12637514Y-842661D01*
X12637583Y-842730D01*
X12637618D01*
X12638447Y-843248D01*
X12639172Y-843732D01*
X12639829Y-844181D01*
X12640347Y-844595D01*
X12640796Y-844941D01*
X12641107Y-845183D01*
X12641280Y-845355D01*
X12641349Y-845425D01*
Y-820518D01*
X12645252D01*
Y-852506D01*
D02*
G37*
G36*
X12613437Y-820035D02*
X12614232Y-820069D01*
X12614992Y-820173D01*
X12615717Y-820276D01*
X12616373Y-820415D01*
X12616995Y-820553D01*
X12617548Y-820726D01*
X12618031Y-820898D01*
X12618515Y-821036D01*
X12618895Y-821209D01*
X12619240Y-821347D01*
X12619517Y-821486D01*
X12619759Y-821589D01*
X12619897Y-821693D01*
X12620000Y-821727D01*
X12620035Y-821762D01*
X12620553Y-822107D01*
X12621037Y-822453D01*
X12621451Y-822833D01*
X12621866Y-823213D01*
X12622211Y-823593D01*
X12622557Y-824007D01*
X12622833Y-824353D01*
X12623075Y-824733D01*
X12623489Y-825354D01*
X12623628Y-825631D01*
X12623766Y-825873D01*
X12623869Y-826080D01*
X12623938Y-826218D01*
X12623973Y-826322D01*
Y-826356D01*
X12624180Y-826909D01*
X12624353Y-827496D01*
X12624629Y-828740D01*
X12624802Y-830018D01*
X12624940Y-831227D01*
X12624975Y-831814D01*
X12625009Y-832332D01*
X12625044Y-832781D01*
X12625078Y-833196D01*
Y-833541D01*
Y-833783D01*
Y-833921D01*
Y-833990D01*
Y-852402D01*
X12620864D01*
Y-833990D01*
X12620829Y-832920D01*
X12620795Y-831918D01*
X12620691Y-831020D01*
X12620553Y-830191D01*
X12620415Y-829465D01*
X12620242Y-828809D01*
X12620035Y-828222D01*
X12619862Y-827703D01*
X12619690Y-827254D01*
X12619482Y-826874D01*
X12619310Y-826563D01*
X12619171Y-826322D01*
X12619033Y-826149D01*
X12618964Y-826011D01*
X12618895Y-825942D01*
X12618860Y-825907D01*
X12618446Y-825527D01*
X12617997Y-825216D01*
X12617513Y-824940D01*
X12616995Y-824698D01*
X12616442Y-824491D01*
X12615890Y-824318D01*
X12614819Y-824076D01*
X12614301Y-823973D01*
X12613817Y-823904D01*
X12613368Y-823869D01*
X12612988Y-823835D01*
X12612677Y-823800D01*
X12612228D01*
X12611261Y-823835D01*
X12610363Y-823973D01*
X12609568Y-824145D01*
X12608877Y-824318D01*
X12608601Y-824422D01*
X12608359Y-824525D01*
X12608117Y-824594D01*
X12607945Y-824664D01*
X12607806Y-824733D01*
X12607703Y-824802D01*
X12607634Y-824836D01*
X12607599D01*
X12606943Y-825285D01*
X12606390Y-825769D01*
X12605941Y-826253D01*
X12605596Y-826771D01*
X12605319Y-827185D01*
X12605112Y-827565D01*
X12605043Y-827703D01*
X12605008Y-827807D01*
X12604974Y-827842D01*
Y-827876D01*
X12604836Y-828256D01*
X12604732Y-828705D01*
X12604525Y-829672D01*
X12604387Y-830674D01*
X12604317Y-831676D01*
X12604283Y-832125D01*
X12604248Y-832574D01*
Y-832954D01*
X12604214Y-833300D01*
Y-833610D01*
Y-833818D01*
Y-833956D01*
Y-833990D01*
Y-852402D01*
X12599999D01*
Y-833990D01*
Y-833058D01*
X12600069Y-832194D01*
X12600103Y-831365D01*
X12600207Y-830605D01*
X12600276Y-829880D01*
X12600379Y-829223D01*
X12600483Y-828636D01*
X12600621Y-828083D01*
X12600725Y-827600D01*
X12600828Y-827185D01*
X12600932Y-826805D01*
X12601036Y-826529D01*
X12601105Y-826287D01*
X12601174Y-826114D01*
X12601208Y-826011D01*
Y-825976D01*
X12601450Y-825458D01*
X12601727Y-824940D01*
X12602348Y-824042D01*
X12603005Y-823282D01*
X12603696Y-822660D01*
X12604007Y-822384D01*
X12604283Y-822176D01*
X12604559Y-821969D01*
X12604801Y-821796D01*
X12604974Y-821693D01*
X12605112Y-821589D01*
X12605216Y-821555D01*
X12605250Y-821520D01*
X12605803Y-821244D01*
X12606390Y-821036D01*
X12607599Y-820656D01*
X12608843Y-820380D01*
X12610017Y-820207D01*
X12610535Y-820138D01*
X12611054Y-820069D01*
X12611468Y-820035D01*
X12611848D01*
X12612159Y-820000D01*
X12612608D01*
X12613437Y-820035D01*
D02*
G37*
G36*
X-226090Y-1533492D02*
X-226125Y-1534544D01*
X-226160Y-1535525D01*
X-226265Y-1536402D01*
X-226370Y-1537173D01*
X-226405Y-1537488D01*
X-226440Y-1537769D01*
X-226511Y-1538049D01*
X-226546Y-1538259D01*
X-226581Y-1538435D01*
Y-1538540D01*
X-226616Y-1538610D01*
Y-1538645D01*
X-226861Y-1539451D01*
X-227106Y-1540222D01*
X-227387Y-1540888D01*
X-227632Y-1541449D01*
X-227878Y-1541905D01*
X-228053Y-1542255D01*
X-228193Y-1542466D01*
X-228228Y-1542501D01*
Y-1542536D01*
X-228684Y-1543132D01*
X-229139Y-1543692D01*
X-229630Y-1544183D01*
X-230121Y-1544604D01*
X-230542Y-1544989D01*
X-230857Y-1545235D01*
X-230997Y-1545340D01*
X-231102Y-1545410D01*
X-231137Y-1545480D01*
X-231173D01*
X-231909Y-1545971D01*
X-232680Y-1546391D01*
X-233486Y-1546777D01*
X-234222Y-1547092D01*
X-234888Y-1547338D01*
X-235168Y-1547443D01*
X-235414Y-1547548D01*
X-235589Y-1547583D01*
X-235729Y-1547653D01*
X-235834Y-1547688D01*
X-235869D01*
X-236991Y-1547969D01*
X-238113Y-1548179D01*
X-239199Y-1548354D01*
X-240216Y-1548459D01*
X-240672Y-1548494D01*
X-241092Y-1548530D01*
X-241478D01*
X-241793Y-1548565D01*
X-242074D01*
X-242249D01*
X-242389D01*
X-242424D01*
X-244002Y-1548494D01*
X-244738Y-1548459D01*
X-245439Y-1548354D01*
X-246105Y-1548249D01*
X-246736Y-1548144D01*
X-247331Y-1548039D01*
X-247892Y-1547934D01*
X-248383Y-1547793D01*
X-248804Y-1547688D01*
X-249189Y-1547583D01*
X-249505Y-1547478D01*
X-249750Y-1547373D01*
X-249960Y-1547338D01*
X-250066Y-1547268D01*
X-250101D01*
X-251292Y-1546742D01*
X-252379Y-1546146D01*
X-252870Y-1545831D01*
X-253325Y-1545515D01*
X-253746Y-1545200D01*
X-254132Y-1544884D01*
X-254482Y-1544604D01*
X-254763Y-1544323D01*
X-255043Y-1544078D01*
X-255253Y-1543868D01*
X-255428Y-1543692D01*
X-255534Y-1543552D01*
X-255604Y-1543482D01*
X-255639Y-1543447D01*
X-256235Y-1542676D01*
X-256725Y-1541870D01*
X-257111Y-1541099D01*
X-257426Y-1540362D01*
X-257672Y-1539696D01*
X-257742Y-1539416D01*
X-257812Y-1539171D01*
X-257882Y-1538995D01*
X-257917Y-1538855D01*
X-257952Y-1538750D01*
Y-1538715D01*
X-258022Y-1538329D01*
X-258128Y-1537909D01*
X-258233Y-1536962D01*
X-258338Y-1536016D01*
X-258373Y-1535070D01*
X-258408Y-1534649D01*
Y-1534228D01*
X-258443Y-1533878D01*
Y-1521820D01*
X-226090D01*
Y-1533492D01*
D02*
G37*
G36*
X-239690Y-1552701D02*
X-238288Y-1552806D01*
X-236991Y-1552946D01*
X-235799Y-1553156D01*
X-234713Y-1553402D01*
X-233731Y-1553647D01*
X-232855Y-1553928D01*
X-232084Y-1554243D01*
X-231383Y-1554523D01*
X-230787Y-1554804D01*
X-230296Y-1555049D01*
X-229911Y-1555295D01*
X-229595Y-1555505D01*
X-229385Y-1555645D01*
X-229245Y-1555750D01*
X-229210Y-1555785D01*
X-228579Y-1556381D01*
X-228018Y-1557047D01*
X-227527Y-1557678D01*
X-227106Y-1558379D01*
X-226756Y-1559045D01*
X-226440Y-1559711D01*
X-226230Y-1560377D01*
X-226020Y-1561008D01*
X-225880Y-1561604D01*
X-225775Y-1562130D01*
X-225669Y-1562620D01*
X-225634Y-1563041D01*
X-225599Y-1563392D01*
X-225564Y-1563672D01*
Y-1563882D01*
X-225634Y-1564934D01*
X-225775Y-1565915D01*
X-225985Y-1566827D01*
X-226265Y-1567598D01*
X-226370Y-1567913D01*
X-226511Y-1568229D01*
X-226616Y-1568474D01*
X-226721Y-1568684D01*
X-226791Y-1568860D01*
X-226861Y-1569000D01*
X-226931Y-1569070D01*
Y-1569105D01*
X-227492Y-1569911D01*
X-228158Y-1570647D01*
X-228824Y-1571278D01*
X-229455Y-1571769D01*
X-230051Y-1572190D01*
X-230296Y-1572330D01*
X-230507Y-1572470D01*
X-230682Y-1572575D01*
X-230822Y-1572645D01*
X-230892Y-1572715D01*
X-230927D01*
X-231944Y-1573171D01*
X-232925Y-1573487D01*
X-233872Y-1573732D01*
X-234748Y-1573872D01*
X-235133Y-1573942D01*
X-235519Y-1573977D01*
X-235834Y-1574012D01*
X-236080D01*
X-236325Y-1574047D01*
X-236465D01*
X-236571D01*
X-236606D01*
X-237447Y-1574012D01*
X-238253Y-1573942D01*
X-239024Y-1573802D01*
X-239725Y-1573627D01*
X-240391Y-1573381D01*
X-241022Y-1573171D01*
X-241583Y-1572891D01*
X-242109Y-1572645D01*
X-242564Y-1572400D01*
X-242985Y-1572120D01*
X-243336Y-1571909D01*
X-243616Y-1571699D01*
X-243861Y-1571489D01*
X-244002Y-1571348D01*
X-244107Y-1571278D01*
X-244142Y-1571243D01*
X-244668Y-1570717D01*
X-245123Y-1570157D01*
X-245509Y-1569596D01*
X-245859Y-1569000D01*
X-246140Y-1568439D01*
X-246385Y-1567878D01*
X-246560Y-1567317D01*
X-246736Y-1566827D01*
X-246841Y-1566336D01*
X-246946Y-1565880D01*
X-246981Y-1565495D01*
X-247051Y-1565144D01*
Y-1564864D01*
X-247086Y-1564653D01*
Y-1564478D01*
X-247051Y-1563637D01*
X-246911Y-1562831D01*
X-246736Y-1562095D01*
X-246560Y-1561429D01*
X-246350Y-1560868D01*
X-246245Y-1560658D01*
X-246175Y-1560447D01*
X-246105Y-1560307D01*
X-246035Y-1560202D01*
X-246000Y-1560132D01*
Y-1560097D01*
X-245544Y-1559361D01*
X-245053Y-1558695D01*
X-244527Y-1558099D01*
X-244002Y-1557573D01*
X-243511Y-1557187D01*
X-243125Y-1556872D01*
X-242985Y-1556767D01*
X-242880Y-1556697D01*
X-242811Y-1556628D01*
X-243651Y-1556662D01*
X-244492Y-1556697D01*
X-245263Y-1556732D01*
X-245964Y-1556802D01*
X-246630Y-1556907D01*
X-247261Y-1557012D01*
X-247822Y-1557082D01*
X-248313Y-1557187D01*
X-248734Y-1557293D01*
X-249119Y-1557398D01*
X-249470Y-1557503D01*
X-249715Y-1557573D01*
X-249925Y-1557643D01*
X-250101Y-1557713D01*
X-250171Y-1557748D01*
X-250206D01*
X-251117Y-1558204D01*
X-251923Y-1558660D01*
X-252624Y-1559150D01*
X-253185Y-1559641D01*
X-253641Y-1560062D01*
X-253956Y-1560377D01*
X-254061Y-1560517D01*
X-254132Y-1560622D01*
X-254202Y-1560658D01*
Y-1560693D01*
X-254552Y-1561253D01*
X-254833Y-1561814D01*
X-255008Y-1562375D01*
X-255148Y-1562901D01*
X-255218Y-1563357D01*
X-255288Y-1563742D01*
Y-1564058D01*
X-255253Y-1564478D01*
X-255218Y-1564899D01*
X-255008Y-1565670D01*
X-254763Y-1566371D01*
X-254447Y-1566932D01*
X-254132Y-1567423D01*
X-253851Y-1567773D01*
X-253746Y-1567878D01*
X-253641Y-1567983D01*
X-253606Y-1568018D01*
X-253571Y-1568054D01*
X-253115Y-1568404D01*
X-252589Y-1568684D01*
X-252028Y-1568965D01*
X-251468Y-1569175D01*
X-250977Y-1569350D01*
X-250556Y-1569456D01*
X-250381Y-1569491D01*
X-250276Y-1569526D01*
X-250206Y-1569561D01*
X-250171D01*
X-250486Y-1573522D01*
X-251187Y-1573416D01*
X-251818Y-1573241D01*
X-252414Y-1573066D01*
X-252975Y-1572856D01*
X-253501Y-1572610D01*
X-253991Y-1572365D01*
X-254447Y-1572120D01*
X-254833Y-1571874D01*
X-255183Y-1571629D01*
X-255499Y-1571383D01*
X-255779Y-1571173D01*
X-255989Y-1570963D01*
X-256165Y-1570823D01*
X-256270Y-1570682D01*
X-256340Y-1570612D01*
X-256375Y-1570577D01*
X-256760Y-1570087D01*
X-257076Y-1569596D01*
X-257391Y-1569105D01*
X-257637Y-1568579D01*
X-257847Y-1568018D01*
X-258022Y-1567528D01*
X-258268Y-1566511D01*
X-258373Y-1566056D01*
X-258443Y-1565635D01*
X-258478Y-1565249D01*
X-258513Y-1564934D01*
X-258548Y-1564689D01*
Y-1564303D01*
X-258513Y-1563357D01*
X-258373Y-1562480D01*
X-258198Y-1561639D01*
X-257952Y-1560868D01*
X-257672Y-1560132D01*
X-257356Y-1559466D01*
X-257041Y-1558835D01*
X-256690Y-1558274D01*
X-256340Y-1557783D01*
X-256024Y-1557363D01*
X-255709Y-1556977D01*
X-255428Y-1556697D01*
X-255183Y-1556451D01*
X-255008Y-1556276D01*
X-254868Y-1556171D01*
X-254833Y-1556136D01*
X-253991Y-1555540D01*
X-253045Y-1554979D01*
X-251993Y-1554523D01*
X-250907Y-1554138D01*
X-249785Y-1553787D01*
X-248663Y-1553507D01*
X-247542Y-1553297D01*
X-246420Y-1553086D01*
X-245369Y-1552946D01*
X-244387Y-1552841D01*
X-243511Y-1552771D01*
X-242740Y-1552736D01*
X-242389Y-1552701D01*
X-242109D01*
X-241828Y-1552666D01*
X-241618D01*
X-241443D01*
X-241303D01*
X-241232D01*
X-241197D01*
X-239690Y-1552701D01*
D02*
G37*
G36*
X12983125Y7305171D02*
X12983510Y7305136D01*
X12983931Y7305066D01*
X12984422Y7304996D01*
X12984947Y7304890D01*
X12985509Y7304785D01*
X12986104Y7304610D01*
X12986700Y7304400D01*
X12987296Y7304154D01*
X12987892Y7303874D01*
X12988487Y7303558D01*
X12989047Y7303173D01*
X12989609Y7302752D01*
X12989644Y7302717D01*
X12989714Y7302647D01*
X12989854Y7302507D01*
X12990030Y7302297D01*
X12990276Y7302051D01*
X12990521Y7301771D01*
X12990765Y7301420D01*
X12991046Y7301000D01*
X12991327Y7300579D01*
X12991608Y7300088D01*
X12991853Y7299527D01*
X12992097Y7298967D01*
X12992343Y7298336D01*
X12992519Y7297670D01*
X12992659Y7296934D01*
X12992764Y7296197D01*
X12988593Y7295882D01*
Y7295917D01*
X12988557Y7296022D01*
X12988522Y7296162D01*
X12988487Y7296373D01*
X12988454Y7296618D01*
X12988347Y7296934D01*
X12988171Y7297600D01*
X12987892Y7298336D01*
X12987506Y7299107D01*
X12987050Y7299808D01*
X12986771Y7300123D01*
X12986490Y7300439D01*
X12986455D01*
X12986420Y7300509D01*
X12986314Y7300579D01*
X12986174Y7300684D01*
X12985825Y7300930D01*
X12985333Y7301175D01*
X12984737Y7301455D01*
X12984036Y7301701D01*
X12983266Y7301876D01*
X12982845Y7301911D01*
X12982388Y7301946D01*
X12982108D01*
X12981898Y7301911D01*
X12981651Y7301876D01*
X12981372Y7301841D01*
X12980705Y7301666D01*
X12979935Y7301420D01*
X12979549Y7301245D01*
X12979129Y7301035D01*
X12978708Y7300789D01*
X12978323Y7300509D01*
X12977937Y7300193D01*
X12977551Y7299808D01*
X12977516Y7299773D01*
X12977481Y7299703D01*
X12977376Y7299598D01*
X12977235Y7299422D01*
X12977097Y7299177D01*
X12976920Y7298932D01*
X12976746Y7298616D01*
X12976535Y7298266D01*
X12976360Y7297880D01*
X12976184Y7297459D01*
X12976009Y7296969D01*
X12975870Y7296478D01*
X12975729Y7295917D01*
X12975624Y7295321D01*
X12975587Y7294725D01*
X12975552Y7294059D01*
Y7294024D01*
Y7293919D01*
Y7293744D01*
X12975587Y7293498D01*
X12975624Y7293218D01*
X12975659Y7292868D01*
X12975729Y7292517D01*
X12975800Y7292096D01*
X12976009Y7291255D01*
X12976360Y7290344D01*
X12976570Y7289923D01*
X12976849Y7289503D01*
X12977132Y7289082D01*
X12977481Y7288696D01*
X12977516Y7288661D01*
X12977551Y7288626D01*
X12977692Y7288521D01*
X12977832Y7288381D01*
X12978008Y7288241D01*
X12978252Y7288065D01*
X12978497Y7287890D01*
X12978813Y7287680D01*
X12979164Y7287505D01*
X12979514Y7287329D01*
X12980391Y7287014D01*
X12980846Y7286874D01*
X12981372Y7286769D01*
X12981898Y7286733D01*
X12982458Y7286698D01*
X12982774D01*
X12983160Y7286733D01*
X12983615Y7286804D01*
X12984177Y7286909D01*
X12984772Y7287084D01*
X12985368Y7287294D01*
X12985963Y7287610D01*
X12986034Y7287645D01*
X12986209Y7287750D01*
X12986490Y7287960D01*
X12986839Y7288206D01*
X12987190Y7288556D01*
X12987611Y7288942D01*
X12987997Y7289397D01*
X12988347Y7289888D01*
X12992062Y7289362D01*
X12988943Y7272748D01*
X12972855D01*
Y7276533D01*
X12985789D01*
X12987506Y7285226D01*
X12987471Y7285191D01*
X12987366Y7285121D01*
X12987225Y7285051D01*
X12987015Y7284911D01*
X12986736Y7284771D01*
X12986420Y7284595D01*
X12986069Y7284385D01*
X12985648Y7284210D01*
X12985228Y7284034D01*
X12984737Y7283824D01*
X12983720Y7283509D01*
X12983160Y7283368D01*
X12982599Y7283263D01*
X12982002Y7283228D01*
X12981407Y7283193D01*
X12981232D01*
X12980986Y7283228D01*
X12980705D01*
X12980356Y7283298D01*
X12979935Y7283333D01*
X12979443Y7283439D01*
X12978954Y7283544D01*
X12978394Y7283719D01*
X12977832Y7283894D01*
X12977235Y7284140D01*
X12976640Y7284420D01*
X12976044Y7284771D01*
X12975449Y7285156D01*
X12974852Y7285612D01*
X12974292Y7286138D01*
X12974255Y7286173D01*
X12974152Y7286278D01*
X12974011Y7286453D01*
X12973836Y7286663D01*
X12973592Y7286944D01*
X12973344Y7287329D01*
X12973100Y7287715D01*
X12972820Y7288171D01*
X12972539Y7288696D01*
X12972295Y7289292D01*
X12972012Y7289888D01*
X12971803Y7290589D01*
X12971628Y7291290D01*
X12971487Y7292061D01*
X12971382Y7292868D01*
X12971347Y7293709D01*
Y7293744D01*
Y7293919D01*
Y7294129D01*
X12971382Y7294445D01*
X12971417Y7294830D01*
X12971487Y7295251D01*
X12971558Y7295742D01*
X12971663Y7296303D01*
X12971803Y7296863D01*
X12971979Y7297494D01*
X12972188Y7298125D01*
X12972433Y7298756D01*
X12972714Y7299387D01*
X12973065Y7300053D01*
X12973450Y7300684D01*
X12973906Y7301280D01*
X12973941Y7301315D01*
X12974046Y7301455D01*
X12974220Y7301631D01*
X12974467Y7301876D01*
X12974782Y7302191D01*
X12975168Y7302507D01*
X12975624Y7302892D01*
X12976149Y7303243D01*
X12976711Y7303593D01*
X12977341Y7303979D01*
X12978043Y7304295D01*
X12978813Y7304575D01*
X12979619Y7304855D01*
X12980496Y7305031D01*
X12981407Y7305171D01*
X12982388Y7305206D01*
X12982809D01*
X12983125Y7305171D01*
D02*
G37*
G36*
X13023820Y7272327D02*
X13011761D01*
X13011412Y7272362D01*
X13010991D01*
X13010570Y7272397D01*
X13009624Y7272432D01*
X13008678Y7272537D01*
X13007732Y7272643D01*
X13007310Y7272748D01*
X13006924Y7272818D01*
X13006889D01*
X13006786Y7272853D01*
X13006645Y7272888D01*
X13006470Y7272958D01*
X13006224Y7273028D01*
X13005943Y7273098D01*
X13005278Y7273344D01*
X13004541Y7273659D01*
X13003770Y7274045D01*
X13002963Y7274535D01*
X13002193Y7275131D01*
X13002158Y7275166D01*
X13002087Y7275236D01*
X13001949Y7275342D01*
X13001772Y7275517D01*
X13001562Y7275727D01*
X13001317Y7276008D01*
X13001036Y7276288D01*
X13000755Y7276638D01*
X13000439Y7277024D01*
X13000125Y7277445D01*
X12999809Y7277900D01*
X12999493Y7278391D01*
X12998898Y7279478D01*
X12998372Y7280669D01*
Y7280705D01*
X12998302Y7280810D01*
X12998267Y7281020D01*
X12998161Y7281265D01*
X12998058Y7281581D01*
X12997952Y7281966D01*
X12997845Y7282387D01*
X12997707Y7282878D01*
X12997601Y7283439D01*
X12997496Y7284034D01*
X12997391Y7284665D01*
X12997285Y7285331D01*
X12997182Y7286032D01*
X12997145Y7286769D01*
X12997075Y7288346D01*
Y7288381D01*
Y7288521D01*
Y7288696D01*
Y7288977D01*
X12997110Y7289292D01*
Y7289678D01*
X12997145Y7290098D01*
X12997182Y7290554D01*
X12997285Y7291571D01*
X12997461Y7292657D01*
X12997672Y7293779D01*
X12997952Y7294901D01*
Y7294936D01*
X12997987Y7295041D01*
X12998058Y7295181D01*
X12998093Y7295356D01*
X12998196Y7295602D01*
X12998302Y7295882D01*
X12998547Y7296548D01*
X12998863Y7297284D01*
X12999249Y7298090D01*
X12999669Y7298861D01*
X13000160Y7299598D01*
Y7299633D01*
X13000230Y7299668D01*
X13000301Y7299773D01*
X13000404Y7299913D01*
X13000652Y7300228D01*
X13001036Y7300649D01*
X13001457Y7301140D01*
X13001949Y7301631D01*
X13002509Y7302086D01*
X13003104Y7302542D01*
X13003139D01*
X13003174Y7302577D01*
X13003384Y7302717D01*
X13003735Y7302892D01*
X13004192Y7303138D01*
X13004752Y7303383D01*
X13005418Y7303664D01*
X13006189Y7303909D01*
X13006995Y7304154D01*
X13007030D01*
X13007100Y7304189D01*
X13007205D01*
X13007381Y7304224D01*
X13007591Y7304259D01*
X13007870Y7304330D01*
X13008151Y7304365D01*
X13008467Y7304400D01*
X13009238Y7304505D01*
X13010115Y7304610D01*
X13011096Y7304645D01*
X13012148Y7304680D01*
X13023820D01*
Y7272327D01*
D02*
G37*
%LPC*%
G36*
X-229911Y-1526096D02*
X-254622D01*
Y-1533562D01*
X-254587Y-1534193D01*
X-254552Y-1534789D01*
X-254517Y-1535350D01*
X-254482Y-1535841D01*
X-254412Y-1536296D01*
X-254342Y-1536717D01*
X-254307Y-1537068D01*
X-254237Y-1537383D01*
X-254167Y-1537663D01*
X-254097Y-1537874D01*
X-254061Y-1538084D01*
X-254026Y-1538224D01*
X-253991Y-1538329D01*
X-253956Y-1538364D01*
Y-1538400D01*
X-253746Y-1538855D01*
X-253536Y-1539276D01*
X-252975Y-1540047D01*
X-252379Y-1540748D01*
X-251748Y-1541344D01*
X-251187Y-1541800D01*
X-250942Y-1542010D01*
X-250732Y-1542150D01*
X-250521Y-1542290D01*
X-250381Y-1542395D01*
X-250311Y-1542430D01*
X-250276Y-1542466D01*
X-249750Y-1542746D01*
X-249154Y-1543026D01*
X-247927Y-1543447D01*
X-246630Y-1543727D01*
X-245369Y-1543938D01*
X-244773Y-1544008D01*
X-244247Y-1544078D01*
X-243756Y-1544113D01*
X-243336D01*
X-242985Y-1544148D01*
X-242705D01*
X-242564D01*
X-242494D01*
X-241162Y-1544113D01*
X-239971Y-1544008D01*
X-239410Y-1543938D01*
X-238919Y-1543868D01*
X-238428Y-1543798D01*
X-238008Y-1543727D01*
X-237622Y-1543622D01*
X-237272Y-1543552D01*
X-236956Y-1543482D01*
X-236711Y-1543412D01*
X-236500Y-1543342D01*
X-236360Y-1543307D01*
X-236290Y-1543272D01*
X-236255D01*
X-235344Y-1542921D01*
X-234538Y-1542536D01*
X-233836Y-1542150D01*
X-233241Y-1541800D01*
X-232785Y-1541449D01*
X-232434Y-1541169D01*
X-232224Y-1540993D01*
X-232189Y-1540958D01*
X-232154Y-1540923D01*
X-231768Y-1540503D01*
X-231418Y-1540012D01*
X-231137Y-1539521D01*
X-230892Y-1539066D01*
X-230717Y-1538645D01*
X-230577Y-1538329D01*
X-230542Y-1538189D01*
X-230507Y-1538084D01*
X-230471Y-1538049D01*
Y-1538014D01*
X-230296Y-1537278D01*
X-230156Y-1536472D01*
X-230051Y-1535630D01*
X-229981Y-1534824D01*
X-229946Y-1534123D01*
Y-1533808D01*
X-229911Y-1533527D01*
Y-1526096D01*
D02*
G37*
G36*
X-242775Y-1556627D02*
X-242810D01*
X-242811Y-1556628D01*
X-242775Y-1556627D01*
D02*
G37*
G36*
X-236220Y-1557222D02*
X-236360D01*
X-236465D01*
X-236535D01*
X-236571D01*
X-237131Y-1557257D01*
X-237692Y-1557293D01*
X-238674Y-1557503D01*
X-239550Y-1557818D01*
X-239936Y-1557994D01*
X-240251Y-1558169D01*
X-240566Y-1558309D01*
X-240847Y-1558484D01*
X-241092Y-1558660D01*
X-241267Y-1558800D01*
X-241408Y-1558905D01*
X-241513Y-1559010D01*
X-241583Y-1559045D01*
X-241618Y-1559080D01*
X-241969Y-1559431D01*
X-242284Y-1559816D01*
X-242529Y-1560202D01*
X-242740Y-1560587D01*
X-243090Y-1561359D01*
X-243336Y-1562095D01*
X-243476Y-1562726D01*
X-243511Y-1563006D01*
X-243546Y-1563216D01*
X-243581Y-1563427D01*
Y-1563672D01*
X-243546Y-1564163D01*
X-243511Y-1564653D01*
X-243265Y-1565530D01*
X-242950Y-1566301D01*
X-242599Y-1566967D01*
X-242249Y-1567493D01*
X-242074Y-1567703D01*
X-241933Y-1567878D01*
X-241793Y-1568018D01*
X-241688Y-1568124D01*
X-241653Y-1568159D01*
X-241618Y-1568194D01*
X-241232Y-1568509D01*
X-240847Y-1568790D01*
X-240426Y-1569035D01*
X-239971Y-1569245D01*
X-239094Y-1569561D01*
X-238253Y-1569771D01*
X-237867Y-1569841D01*
X-237517Y-1569876D01*
X-237201Y-1569911D01*
X-236921Y-1569946D01*
X-236676Y-1569981D01*
X-236500D01*
X-236395D01*
X-236360D01*
X-235729Y-1569946D01*
X-235133Y-1569911D01*
X-234538Y-1569806D01*
X-234012Y-1569701D01*
X-233521Y-1569561D01*
X-233065Y-1569421D01*
X-232645Y-1569245D01*
X-232294Y-1569070D01*
X-231944Y-1568895D01*
X-231663Y-1568719D01*
X-231418Y-1568579D01*
X-231208Y-1568439D01*
X-231032Y-1568334D01*
X-230927Y-1568229D01*
X-230857Y-1568194D01*
X-230822Y-1568159D01*
X-230471Y-1567808D01*
X-230156Y-1567458D01*
X-229911Y-1567107D01*
X-229665Y-1566722D01*
X-229490Y-1566371D01*
X-229315Y-1565985D01*
X-229069Y-1565319D01*
X-228929Y-1564724D01*
X-228894Y-1564478D01*
X-228859Y-1564233D01*
X-228824Y-1564058D01*
Y-1563812D01*
X-228859Y-1563181D01*
X-228964Y-1562550D01*
X-229139Y-1561990D01*
X-229315Y-1561499D01*
X-229490Y-1561078D01*
X-229665Y-1560763D01*
X-229770Y-1560552D01*
X-229805Y-1560517D01*
Y-1560482D01*
X-230226Y-1559921D01*
X-230682Y-1559466D01*
X-231137Y-1559045D01*
X-231593Y-1558695D01*
X-232014Y-1558414D01*
X-232329Y-1558239D01*
X-232469Y-1558169D01*
X-232575Y-1558099D01*
X-232610Y-1558064D01*
X-232645D01*
X-233346Y-1557783D01*
X-234047Y-1557573D01*
X-234713Y-1557433D01*
X-235309Y-1557328D01*
X-235834Y-1557257D01*
X-236045D01*
X-236220Y-1557222D01*
D02*
G37*
G36*
X13019543Y7300859D02*
X13012112D01*
X13011832Y7300824D01*
X13011517D01*
X13010815Y7300789D01*
X13010010Y7300719D01*
X13009167Y7300614D01*
X13008362Y7300474D01*
X13007626Y7300299D01*
X13007591D01*
X13007556Y7300264D01*
X13007451Y7300228D01*
X13007310Y7300193D01*
X13006995Y7300053D01*
X13006573Y7299878D01*
X13006119Y7299633D01*
X13005627Y7299352D01*
X13005138Y7299002D01*
X13004716Y7298616D01*
X13004681Y7298581D01*
X13004646Y7298546D01*
X13004471Y7298336D01*
X13004192Y7297985D01*
X13003841Y7297529D01*
X13003490Y7296934D01*
X13003104Y7296233D01*
X13002719Y7295426D01*
X13002368Y7294515D01*
Y7294480D01*
X13002333Y7294410D01*
X13002298Y7294270D01*
X13002228Y7294059D01*
X13002158Y7293814D01*
X13002087Y7293498D01*
X13002019Y7293148D01*
X13001913Y7292762D01*
X13001842Y7292342D01*
X13001772Y7291851D01*
X13001701Y7291360D01*
X13001633Y7290799D01*
X13001527Y7289608D01*
X13001492Y7288276D01*
Y7288206D01*
Y7288065D01*
Y7287785D01*
X13001527Y7287434D01*
Y7287014D01*
X13001562Y7286523D01*
X13001633Y7285997D01*
X13001701Y7285401D01*
X13001913Y7284140D01*
X13002193Y7282843D01*
X13002614Y7281616D01*
X13002895Y7281020D01*
X13003174Y7280494D01*
X13003209Y7280459D01*
X13003246Y7280389D01*
X13003349Y7280249D01*
X13003490Y7280039D01*
X13003630Y7279828D01*
X13003841Y7279583D01*
X13004295Y7279022D01*
X13004892Y7278391D01*
X13005592Y7277795D01*
X13006364Y7277234D01*
X13006786Y7277024D01*
X13007240Y7276814D01*
X13007275D01*
X13007310Y7276779D01*
X13007416Y7276744D01*
X13007556Y7276709D01*
X13007767Y7276674D01*
X13007977Y7276603D01*
X13008257Y7276533D01*
X13008572Y7276463D01*
X13008923Y7276428D01*
X13009344Y7276358D01*
X13009799Y7276288D01*
X13010291Y7276253D01*
X13010851Y7276218D01*
X13011447Y7276183D01*
X13012077Y7276148D01*
X13019543D01*
Y7300859D01*
D02*
G37*
%LPD*%
D94*
X11927949Y-450000D02*
Y-80000D01*
Y-450000D02*
X12212949D01*
X11927949Y-80000D02*
X12277949D01*
Y-415000D02*
Y-80000D01*
X12242949Y-450000D02*
X12277949Y-415000D01*
X12212949Y-450000D02*
X12242949D01*
X12211393Y-321336D02*
Y-287480D01*
X12219857Y-279016D01*
X12236785D01*
X12245249Y-287480D01*
Y-321336D01*
X12236785Y-329800D01*
X12219857D01*
X12228321Y-312872D02*
X12211393Y-329800D01*
X12219857D02*
X12211393Y-321336D01*
X12194466Y-329800D02*
X12177538D01*
X12186002D01*
Y-279016D01*
X12194466Y-287480D01*
D149*
X-301290Y-1798615D02*
Y-1501115D01*
Y-1798615D02*
X-176290D01*
Y-1501115D01*
X-301290D02*
X-176290D01*
X12747025Y7229480D02*
X13044525D01*
X12747025D02*
Y7354480D01*
X13044525D01*
Y7229480D02*
Y7354480D01*
D152*
X12585000Y-615000D02*
X12885001D01*
Y-1065000D02*
Y-615000D01*
X12535000Y-1065000D02*
X12885001D01*
X12535000D02*
Y-665000D01*
X12585000Y-615000D01*
%TF.MD5,e4c01c3b5909cb082bdd186dd8732a85*%
M02*
