%TF.GenerationSoftware,Altium Limited,Altium Designer,26.2.0 (7)*%
G04 Layer_Color=0*
%FSLAX45Y45*%
%MOMM*%
%TF.SameCoordinates,19529689-9DA4-4D3B-AC8C-EF9351660A47*%
%TF.FilePolarity,Positive*%
%TF.FileFunction,Profile,NP*%
%TF.Part,Single*%
G01*
G75*
%TA.AperFunction,Profile*%
%ADD244C,0.02540*%
G36*
X7010250Y1072799D02*
Y2644600D01*
Y2649652D01*
X7014117Y2658988D01*
X7021262Y2666133D01*
X7030597Y2670000D01*
X7035650D01*
D01*
X7264600D01*
X7269652D01*
X7278988Y2666133D01*
X7286133Y2658988D01*
X7290000Y2649652D01*
Y2644600D01*
D01*
Y1072799D01*
Y1067747D01*
X7286133Y1058411D01*
X7278988Y1051266D01*
X7269652Y1047399D01*
X7264600D01*
D01*
X7035650D01*
X7030597D01*
X7021262Y1051266D01*
X7014117Y1058411D01*
X7010250Y1067747D01*
Y1072799D01*
D01*
D02*
G37*
G36*
X3674010Y4293700D02*
X3659000D01*
X3629556Y4299557D01*
X3601821Y4311045D01*
X3576861Y4327723D01*
X3555633Y4348951D01*
X3538955Y4373911D01*
X3527467Y4401647D01*
X3521610Y4431090D01*
Y4446100D01*
X3521610D01*
X3521610Y6909900D01*
Y6924910D01*
X3527467Y6954353D01*
X3538955Y6982088D01*
X3555633Y7007049D01*
X3576861Y7028277D01*
X3601821Y7044955D01*
X3629556Y7056443D01*
X3659000Y7062300D01*
X3674010D01*
Y7062300D01*
X10625990Y7062300D01*
X10641000D01*
X10670443Y7056443D01*
X10698178Y7044955D01*
X10723139Y7028277D01*
X10744366Y7007049D01*
X10761045Y6982088D01*
X10772533Y6954353D01*
X10778390Y6924910D01*
Y6909900D01*
X10778390D01*
Y6430722D01*
X11226116Y6039124D01*
X11238217Y6028541D01*
X11257468Y6002792D01*
X11270923Y5973593D01*
X11277990Y5942230D01*
X11278174Y5926156D01*
X11278175Y5926156D01*
X11283761Y5438221D01*
X11283951Y5421705D01*
X11277244Y5389361D01*
X11263764Y5359204D01*
X11244136Y5332636D01*
X11231704Y5321762D01*
X11231704Y5321762D01*
X10778390Y4925278D01*
X10778390Y4446100D01*
Y4431090D01*
X10772533Y4401647D01*
X10761045Y4373911D01*
X10744366Y4348951D01*
X10723139Y4327723D01*
X10698178Y4311045D01*
X10670443Y4299557D01*
X10641000Y4293700D01*
X10625990D01*
Y4293700D01*
X3674010Y4293700D01*
D02*
G37*
D244*
X-2173000Y-550000D02*
X-900000Y-550000D01*
D02*
G02*
X-550000Y-900000I0J-350000D01*
G01*
X-550001Y-2073000D01*
D02*
G03*
X-423001Y-2200000I126969J-31D01*
G01*
X1516843D01*
D02*
G02*
X1872509Y-2555665I2J-355653D01*
G01*
Y-2591329D01*
X3349324D01*
D02*
G02*
X3486653Y-2454000I137327J1D01*
G01*
X3706905D01*
X12456130D01*
D02*
G03*
X12583117Y-2327013I-1J126988D01*
G01*
D02*
G02*
X12709988Y-2200000I126856J157D01*
G01*
X14723000Y-2200000D01*
D02*
G03*
X14849998Y-2073000I0J127000D01*
G01*
X14849998Y-900000D01*
D02*
G02*
X15200000Y-550000I350001J-1D01*
G01*
X16473000D01*
D02*
G03*
X16600000Y-423001I0J126999D01*
G01*
X16600000Y5911510D01*
D02*
G03*
X16556052Y5992765I-96961J69D01*
G01*
X16536960Y6005248D01*
D02*
G02*
X16501868Y6070124I42436J64883D01*
G01*
Y8222999D01*
D02*
G03*
X16349843Y8349992I-140287J-13447D01*
G01*
X15200000Y8350000D01*
D02*
G02*
X14850000Y8700000I0J350000D01*
G01*
Y9889130D01*
D02*
G03*
X14723000Y10016130I-126944J56D01*
G01*
X12710130Y10016130D01*
D02*
G02*
X12583130Y10143130I-26J126974D01*
G01*
X12583000Y10150000D01*
X1717010D01*
Y10127000D01*
D02*
G02*
X1590010Y10000000I-126914J-86D01*
G01*
X-423001D01*
D02*
G03*
X-550000Y9873001I-86J-126913D01*
G01*
Y8700000D01*
D02*
G02*
X-900000Y8350000I-350000J0D01*
G01*
X-2173000D01*
D02*
G03*
X-2300000Y8222999I-87J-126914D01*
G01*
X-2300000Y-423001D01*
D02*
G03*
X-2173000Y-550000I126999J0D01*
G01*
%TF.MD5,12aec27f3acec907cf7478361d358b0c*%
M02*
