%TF.GenerationSoftware,Altium Limited,Altium Designer,26.1.1 (7)*%
G04 Layer_Color=2752767*
%FSLAX45Y45*%
%MOMM*%
%TF.SameCoordinates,6F9AAC4A-738D-4F70-9579-1CED448E312D*%
%TF.FilePolarity,Positive*%
%TF.FileFunction,Drawing*%
%TF.Part,Single*%
G01*
G75*
%TA.AperFunction,NonConductor*%
%ADD94C,0.12700*%
%ADD285C,0.16933*%
D94*
X13134120Y5493680D02*
Y5468280D01*
X13184920D01*
Y5493680D01*
X13210320D01*
Y5544480D01*
X13184920D01*
Y5569880D01*
X13134120D01*
Y5544480D01*
X13108720D01*
Y5493680D01*
X13134120D01*
X13144279Y5503840D02*
Y5488600D01*
X13174760D01*
Y5503840D01*
X13189999D01*
Y5534320D01*
X13174760D01*
Y5549560D01*
X13144279D01*
Y5534320D01*
X13129041D01*
Y5503840D01*
X13144279D01*
X12884120Y5493680D02*
Y5468280D01*
X12934920D01*
Y5493680D01*
X12960320D01*
Y5544480D01*
X12934920D01*
Y5569880D01*
X12884120D01*
Y5544480D01*
X12858720D01*
Y5493680D01*
X12884120D01*
X12894279Y5503840D02*
Y5488600D01*
X12924760D01*
Y5503840D01*
X12939999D01*
Y5534320D01*
X12924760D01*
Y5549560D01*
X12894279D01*
Y5534320D01*
X12879041D01*
Y5503840D01*
X12894279D01*
X12634120Y5493680D02*
Y5468280D01*
X12684920D01*
Y5493680D01*
X12710320D01*
Y5544480D01*
X12684920D01*
Y5569880D01*
X12634120D01*
Y5544480D01*
X12608720D01*
Y5493680D01*
X12634120D01*
X12644280Y5503840D02*
Y5488600D01*
X12674760D01*
Y5503840D01*
X12690000D01*
Y5534320D01*
X12674760D01*
Y5549560D01*
X12644280D01*
Y5534320D01*
X12629040D01*
Y5503840D01*
X12644280D01*
X13134120Y5813680D02*
Y5788280D01*
X13184920D01*
Y5813680D01*
X13210320D01*
Y5864480D01*
X13184920D01*
Y5889880D01*
X13134120D01*
Y5864480D01*
X13108720D01*
Y5813680D01*
X13134120D01*
X13144279Y5823840D02*
Y5808600D01*
X13174760D01*
Y5823840D01*
X13189999D01*
Y5854320D01*
X13174760D01*
Y5869560D01*
X13144279D01*
Y5854320D01*
X13129041D01*
Y5823840D01*
X13144279D01*
X12884120Y5813680D02*
Y5788280D01*
X12934920D01*
Y5813680D01*
X12960320D01*
Y5864480D01*
X12934920D01*
Y5889880D01*
X12884120D01*
Y5864480D01*
X12858720D01*
Y5813680D01*
X12884120D01*
X12894279Y5823840D02*
Y5808600D01*
X12924760D01*
Y5823840D01*
X12939999D01*
Y5854320D01*
X12924760D01*
Y5869560D01*
X12894279D01*
Y5854320D01*
X12879041D01*
Y5823840D01*
X12894279D01*
X12634120Y5813680D02*
Y5788280D01*
X12684920D01*
Y5813680D01*
X12710320D01*
Y5864480D01*
X12684920D01*
Y5889880D01*
X12634120D01*
Y5864480D01*
X12608720D01*
Y5813680D01*
X12634120D01*
X12644280Y5823840D02*
Y5808600D01*
X12674760D01*
Y5823840D01*
X12690000D01*
Y5854320D01*
X12674760D01*
Y5869560D01*
X12644280D01*
Y5854320D01*
X12629040D01*
Y5823840D01*
X12644280D01*
X7382480Y7203080D02*
X7407880Y7253880D01*
X7382480Y7304680D01*
X7433280Y7279280D01*
X7484080Y7304680D01*
X7458680Y7253880D01*
X7484080Y7203080D01*
X7433280Y7228480D01*
X7382480Y7203080D01*
X4588480D02*
X4613880Y7253880D01*
X4588480Y7304680D01*
X4639280Y7279280D01*
X4690080Y7304680D01*
X4664680Y7253880D01*
X4690080Y7203080D01*
X4639280Y7228480D01*
X4588480Y7203080D01*
X4842480D02*
X4867880Y7253880D01*
X4842480Y7304680D01*
X4893280Y7279280D01*
X4944080Y7304680D01*
X4918680Y7253880D01*
X4944080Y7203080D01*
X4893280Y7228480D01*
X4842480Y7203080D01*
X5096480D02*
X5121880Y7253880D01*
X5096480Y7304680D01*
X5147280Y7279280D01*
X5198080Y7304680D01*
X5172680Y7253880D01*
X5198080Y7203080D01*
X5147280Y7228480D01*
X5096480Y7203080D01*
X5350480D02*
X5375880Y7253880D01*
X5350480Y7304680D01*
X5401280Y7279280D01*
X5452080Y7304680D01*
X5426680Y7253880D01*
X5452080Y7203080D01*
X5401280Y7228480D01*
X5350480Y7203080D01*
X5604480D02*
X5629880Y7253880D01*
X5604480Y7304680D01*
X5655280Y7279280D01*
X5706080Y7304680D01*
X5680680Y7253880D01*
X5706080Y7203080D01*
X5655280Y7228480D01*
X5604480Y7203080D01*
X5858480D02*
X5883880Y7253880D01*
X5858480Y7304680D01*
X5909280Y7279280D01*
X5960080Y7304680D01*
X5934680Y7253880D01*
X5960080Y7203080D01*
X5909280Y7228480D01*
X5858480Y7203080D01*
X6112480D02*
X6137880Y7253880D01*
X6112480Y7304680D01*
X6163280Y7279280D01*
X6214080Y7304680D01*
X6188680Y7253880D01*
X6214080Y7203080D01*
X6163280Y7228480D01*
X6112480Y7203080D01*
X6366480D02*
X6391880Y7253880D01*
X6366480Y7304680D01*
X6417280Y7279280D01*
X6468080Y7304680D01*
X6442680Y7253880D01*
X6468080Y7203080D01*
X6417280Y7228480D01*
X6366480Y7203080D01*
X6620480D02*
X6645880Y7253880D01*
X6620480Y7304680D01*
X6671280Y7279280D01*
X6722080Y7304680D01*
X6696680Y7253880D01*
X6722080Y7203080D01*
X6671280Y7228480D01*
X6620480Y7203080D01*
X6874480D02*
X6899880Y7253880D01*
X6874480Y7304680D01*
X6925280Y7279280D01*
X6976080Y7304680D01*
X6950680Y7253880D01*
X6976080Y7203080D01*
X6925280Y7228480D01*
X6874480Y7203080D01*
X7128480D02*
X7153880Y7253880D01*
X7128480Y7304680D01*
X7179280Y7279280D01*
X7230080Y7304680D01*
X7204680Y7253880D01*
X7230080Y7203080D01*
X7179280Y7228480D01*
X7128480Y7203080D01*
X7636480D02*
X7661880Y7253880D01*
X7636480Y7304680D01*
X7687280Y7279280D01*
X7738080Y7304680D01*
X7712680Y7253880D01*
X7738080Y7203080D01*
X7687280Y7228480D01*
X7636480Y7203080D01*
X7890480D02*
X7915880Y7253880D01*
X7890480Y7304680D01*
X7941280Y7279280D01*
X7992080Y7304680D01*
X7966680Y7253880D01*
X7992080Y7203080D01*
X7941280Y7228480D01*
X7890480Y7203080D01*
X4334480D02*
X4359880Y7253880D01*
X4334480Y7304680D01*
X4385280Y7279280D01*
X4436080Y7304680D01*
X4410680Y7253880D01*
X4436080Y7203080D01*
X4385280Y7228480D01*
X4334480Y7203080D01*
X4080480D02*
X4105880Y7253880D01*
X4080480Y7304680D01*
X4131280Y7279280D01*
X4182080Y7304680D01*
X4156680Y7253880D01*
X4182080Y7203080D01*
X4131280Y7228480D01*
X4080480Y7203080D01*
X9620220D02*
X9645620Y7253880D01*
X9620220Y7304680D01*
X9671020Y7279280D01*
X9721820Y7304680D01*
X9696420Y7253880D01*
X9721820Y7203080D01*
X9671020Y7228480D01*
X9620220Y7203080D01*
X9112220D02*
X9137620Y7253880D01*
X9112220Y7304680D01*
X9163020Y7279280D01*
X9213820Y7304680D01*
X9188420Y7253880D01*
X9213820Y7203080D01*
X9163020Y7228480D01*
X9112220Y7203080D01*
X9366220D02*
X9391620Y7253880D01*
X9366220Y7304680D01*
X9417020Y7279280D01*
X9467820Y7304680D01*
X9442420Y7253880D01*
X9467820Y7203080D01*
X9417020Y7228480D01*
X9366220Y7203080D01*
X9874220D02*
X9899620Y7253880D01*
X9874220Y7304680D01*
X9925020Y7279280D01*
X9975820Y7304680D01*
X9950420Y7253880D01*
X9975820Y7203080D01*
X9925020Y7228480D01*
X9874220Y7203080D01*
X10895300Y4104280D02*
X10920700Y4129680D01*
X10946100D01*
X10920700Y4155080D01*
X10946100Y4180480D01*
X10920700D01*
X10895300Y4205880D01*
X10869900Y4180480D01*
X10844500D01*
X10869900Y4155080D01*
X10844500Y4129680D01*
X10869900D01*
X10895300Y4104280D01*
Y4124600D02*
X10910540Y4139840D01*
X10925780D01*
X10910540Y4155080D01*
X10925780Y4170320D01*
X10910540D01*
X10895300Y4185560D01*
X10880060Y4170320D01*
X10864820D01*
X10880060Y4155080D01*
X10864820Y4139840D01*
X10880060D01*
X10895300Y4124600D01*
Y7152280D02*
X10920700Y7177680D01*
X10946100D01*
X10920700Y7203080D01*
X10946100Y7228480D01*
X10920700D01*
X10895300Y7253880D01*
X10869900Y7228480D01*
X10844500D01*
X10869900Y7203080D01*
X10844500Y7177680D01*
X10869900D01*
X10895300Y7152280D01*
Y7172600D02*
X10910540Y7187840D01*
X10925780D01*
X10910540Y7203080D01*
X10925780Y7218320D01*
X10910540D01*
X10895300Y7233560D01*
X10880060Y7218320D01*
X10864820D01*
X10880060Y7203080D01*
X10864820Y7187840D01*
X10880060D01*
X10895300Y7172600D01*
X3402300Y4104280D02*
X3427700Y4129680D01*
X3453100D01*
X3427700Y4155080D01*
X3453100Y4180480D01*
X3427700D01*
X3402300Y4205880D01*
X3376900Y4180480D01*
X3351500D01*
X3376900Y4155080D01*
X3351500Y4129680D01*
X3376900D01*
X3402300Y4104280D01*
Y4124600D02*
X3417540Y4139840D01*
X3432780D01*
X3417540Y4155080D01*
X3432780Y4170320D01*
X3417540D01*
X3402300Y4185560D01*
X3387060Y4170320D01*
X3371820D01*
X3387060Y4155080D01*
X3371820Y4139840D01*
X3387060D01*
X3402300Y4124600D01*
Y7152280D02*
X3427700Y7177680D01*
X3453100D01*
X3427700Y7203080D01*
X3453100Y7228480D01*
X3427700D01*
X3402300Y7253880D01*
X3376900Y7228480D01*
X3351500D01*
X3376900Y7203080D01*
X3351500Y7177680D01*
X3376900D01*
X3402300Y7152280D01*
Y7172600D02*
X3417540Y7187840D01*
X3432780D01*
X3417540Y7203080D01*
X3432780Y7218320D01*
X3417540D01*
X3402300Y7233560D01*
X3387060Y7218320D01*
X3371820D01*
X3387060Y7203080D01*
X3371820Y7187840D01*
X3387060D01*
X3402300Y7172600D01*
X8398100Y8749400D02*
X8347300Y8851000D01*
X8448900D01*
X8398100Y8749400D01*
X7398100D02*
X7347300Y8851000D01*
X7448900D01*
X7398100Y8749400D01*
X7898100Y9249400D02*
X7847300Y9351000D01*
X7948900D01*
X7898100Y9249400D01*
X7273100Y9099400D02*
X7222300Y9201000D01*
X7323900D01*
X7273100Y9099400D01*
Y9119720D02*
X7242620Y9180680D01*
X7303580D01*
X7273100Y9119720D01*
X7398100Y10052159D02*
Y9925200D01*
X7482739D01*
X7678100Y9900200D02*
Y10027159D01*
X7720420Y9984840D01*
X7762739Y10027159D01*
Y9900200D01*
X8118100D02*
Y10027159D01*
X8160420Y9984840D01*
X8202739Y10027159D01*
Y9900200D01*
X8523100Y9099400D02*
X8472300Y9201000D01*
X8573900D01*
X8523100Y9099400D01*
Y9119720D02*
X8492620Y9180680D01*
X8553580D01*
X8523100Y9119720D01*
X8398100Y10052159D02*
Y9925200D01*
X8482739D01*
X7398100Y9477159D02*
Y9350200D01*
Y9413680D01*
X7482739D01*
Y9477159D01*
Y9350200D01*
X7898100Y9749400D02*
X7923500Y9774800D01*
X7948900D01*
X7923500Y9800200D01*
X7948900Y9825600D01*
X7923500D01*
X7898100Y9851000D01*
X7872700Y9825600D01*
X7847300D01*
X7872700Y9800200D01*
X7847300Y9774800D01*
X7872700D01*
X7898100Y9749400D01*
X8398100Y9477159D02*
Y9350200D01*
Y9413680D01*
X8482739D01*
Y9477159D01*
Y9350200D01*
X6899500Y8749400D02*
X6848700Y8851000D01*
X6950300D01*
X6899500Y8749400D01*
X5899500D02*
X5848700Y8851000D01*
X5950300D01*
X5899500Y8749400D01*
X6399500Y9249400D02*
X6348700Y9351000D01*
X6450300D01*
X6399500Y9249400D01*
X5774500Y9099400D02*
X5723700Y9201000D01*
X5825300D01*
X5774500Y9099400D01*
Y9119720D02*
X5744020Y9180680D01*
X5804980D01*
X5774500Y9119720D01*
X5899500Y10052159D02*
Y9925200D01*
X5984139D01*
X6179500Y9900200D02*
Y10027159D01*
X6221820Y9984840D01*
X6264139Y10027159D01*
Y9900200D01*
X6619500D02*
Y10027159D01*
X6661820Y9984840D01*
X6704139Y10027159D01*
Y9900200D01*
X7024500Y9099400D02*
X6973700Y9201000D01*
X7075300D01*
X7024500Y9099400D01*
Y9119720D02*
X6994020Y9180680D01*
X7054980D01*
X7024500Y9119720D01*
X6899500Y10052159D02*
Y9925200D01*
X6984139D01*
X5899500Y9477159D02*
Y9350200D01*
Y9413680D01*
X5984139D01*
Y9477159D01*
Y9350200D01*
X6399500Y9749400D02*
X6424900Y9774800D01*
X6450300D01*
X6424900Y9800200D01*
X6450300Y9825600D01*
X6424900D01*
X6399500Y9851000D01*
X6374100Y9825600D01*
X6348700D01*
X6374100Y9800200D01*
X6348700Y9774800D01*
X6374100D01*
X6399500Y9749400D01*
X6899500Y9477159D02*
Y9350200D01*
Y9413680D01*
X6984139D01*
Y9477159D01*
Y9350200D01*
X4770090Y-1921870D02*
X4719290Y-1820270D01*
X4820890D01*
X4770090Y-1921870D01*
X5024090D02*
X4973290Y-1820270D01*
X5074890D01*
X5024090Y-1921870D01*
X5278090D02*
X5227290Y-1820270D01*
X5328890D01*
X5278090Y-1921870D01*
X4770090Y-1667870D02*
X4719290Y-1566270D01*
X4820890D01*
X4770090Y-1667870D01*
X5024090D02*
X4973290Y-1566270D01*
X5074890D01*
X5024090Y-1667870D01*
X5278090D02*
X5227290Y-1566270D01*
X5328890D01*
X5278090Y-1667870D01*
X593202Y4964200D02*
Y5065800D01*
X694802D01*
Y4964200D01*
X593202D01*
X3273800Y1603840D02*
X3223000Y1705440D01*
X3324600D01*
X3273800Y1603840D01*
Y2103840D02*
X3223000Y2205440D01*
X3324600D01*
X3273800Y2103840D01*
X4723800Y1603840D02*
X4673000Y1705440D01*
X4774600D01*
X4723800Y1603840D01*
Y1853840D02*
X4673000Y1955440D01*
X4774600D01*
X4723800Y1853840D01*
Y2103840D02*
X4673000Y2205440D01*
X4774600D01*
X4723800Y2103840D01*
X3923000Y2423840D02*
X3948400Y2474640D01*
X3923000Y2525440D01*
X3973800Y2500040D01*
X4024600Y2525440D01*
X3999200Y2474640D01*
X4024600Y2423840D01*
X3973800Y2449240D01*
X3923000Y2423840D01*
X3943320Y2444160D02*
X3958560Y2474640D01*
X3943320Y2505120D01*
X3973800Y2489880D01*
X4004280Y2505120D01*
X3989040Y2474640D01*
X4004280Y2444160D01*
X3973800Y2459400D01*
X3943320Y2444160D01*
X3923000Y1283840D02*
X3948400Y1334640D01*
X3923000Y1385440D01*
X3973800Y1360040D01*
X4024600Y1385440D01*
X3999200Y1334640D01*
X4024600Y1283840D01*
X3973800Y1309240D01*
X3923000Y1283840D01*
X3943320Y1304160D02*
X3958560Y1334640D01*
X3943320Y1365120D01*
X3973800Y1349880D01*
X4004280Y1365120D01*
X3989040Y1334640D01*
X4004280Y1304160D01*
X3973800Y1319400D01*
X3943320Y1304160D01*
X11023800Y2103840D02*
X10973000Y2205440D01*
X11074600D01*
X11023800Y2103840D01*
Y1603840D02*
X10973000Y1705440D01*
X11074600D01*
X11023800Y1603840D01*
X9573800Y2103840D02*
X9523000Y2205440D01*
X9624600D01*
X9573800Y2103840D01*
Y1853840D02*
X9523000Y1955440D01*
X9624600D01*
X9573800Y1853840D01*
Y1603840D02*
X9523000Y1705440D01*
X9624600D01*
X9573800Y1603840D01*
X10273000Y1283840D02*
X10298400Y1334640D01*
X10273000Y1385440D01*
X10323800Y1360040D01*
X10374600Y1385440D01*
X10349200Y1334640D01*
X10374600Y1283840D01*
X10323800Y1309240D01*
X10273000Y1283840D01*
X10293320Y1304160D02*
X10308560Y1334640D01*
X10293320Y1365120D01*
X10323800Y1349880D01*
X10354280Y1365120D01*
X10339040Y1334640D01*
X10354280Y1304160D01*
X10323800Y1319400D01*
X10293320Y1304160D01*
X10273000Y2423840D02*
X10298400Y2474640D01*
X10273000Y2525440D01*
X10323800Y2500040D01*
X10374600Y2525440D01*
X10349200Y2474640D01*
X10374600Y2423840D01*
X10323800Y2449240D01*
X10273000Y2423840D01*
X10293320Y2444160D02*
X10308560Y2474640D01*
X10293320Y2505120D01*
X10323800Y2489880D01*
X10354280Y2505120D01*
X10339040Y2474640D01*
X10354280Y2444160D01*
X10323800Y2459400D01*
X10293320Y2444160D01*
X10040040Y-2202210D02*
X9989240Y-2100610D01*
X10090840D01*
X10040040Y-2202210D01*
Y-2181890D02*
X10009560Y-2120930D01*
X10070520D01*
X10040040Y-2181890D01*
X11000040Y-2202210D02*
X10949240Y-2100610D01*
X11050840D01*
X11000040Y-2202210D01*
Y-2181890D02*
X10969560Y-2120930D01*
X11030520D01*
X11000040Y-2181890D01*
X10294640Y-2076810D02*
Y-2102210D01*
X10345440D01*
Y-2076810D01*
X10370840D01*
Y-2026010D01*
X10345440D01*
Y-2000610D01*
X10294640D01*
Y-2026010D01*
X10269240D01*
Y-2076810D01*
X10294640D01*
X10304800Y-2066650D02*
Y-2081890D01*
X10335280D01*
Y-2066650D01*
X10350520D01*
Y-2036170D01*
X10335280D01*
Y-2020930D01*
X10304800D01*
Y-2036170D01*
X10289560D01*
Y-2066650D01*
X10304800D01*
X10494640Y-2076810D02*
Y-2102210D01*
X10545440D01*
Y-2076810D01*
X10570840D01*
Y-2026010D01*
X10545440D01*
Y-2000610D01*
X10494640D01*
Y-2026010D01*
X10469240D01*
Y-2076810D01*
X10494640D01*
X10504800Y-2066650D02*
Y-2081890D01*
X10535280D01*
Y-2066650D01*
X10550520D01*
Y-2036170D01*
X10535280D01*
Y-2020930D01*
X10504800D01*
Y-2036170D01*
X10489560D01*
Y-2066650D01*
X10504800D01*
X10694640Y-2076810D02*
Y-2102210D01*
X10745440D01*
Y-2076810D01*
X10770840D01*
Y-2026010D01*
X10745440D01*
Y-2000610D01*
X10694640D01*
Y-2026010D01*
X10669240D01*
Y-2076810D01*
X10694640D01*
X10704800Y-2066650D02*
Y-2081890D01*
X10735280D01*
Y-2066650D01*
X10750520D01*
Y-2036170D01*
X10735280D01*
Y-2020930D01*
X10704800D01*
Y-2036170D01*
X10689560D01*
Y-2066650D01*
X10704800D01*
X10294640Y-2276810D02*
Y-2302210D01*
X10345440D01*
Y-2276810D01*
X10370840D01*
Y-2226010D01*
X10345440D01*
Y-2200610D01*
X10294640D01*
Y-2226010D01*
X10269240D01*
Y-2276810D01*
X10294640D01*
X10304800Y-2266650D02*
Y-2281890D01*
X10335280D01*
Y-2266650D01*
X10350520D01*
Y-2236170D01*
X10335280D01*
Y-2220930D01*
X10304800D01*
Y-2236170D01*
X10289560D01*
Y-2266650D01*
X10304800D01*
X10494640Y-2276810D02*
Y-2302210D01*
X10545440D01*
Y-2276810D01*
X10570840D01*
Y-2226010D01*
X10545440D01*
Y-2200610D01*
X10494640D01*
Y-2226010D01*
X10469240D01*
Y-2276810D01*
X10494640D01*
X10504800Y-2266650D02*
Y-2281890D01*
X10535280D01*
Y-2266650D01*
X10550520D01*
Y-2236170D01*
X10535280D01*
Y-2220930D01*
X10504800D01*
Y-2236170D01*
X10489560D01*
Y-2266650D01*
X10504800D01*
X10694640Y-2276810D02*
Y-2302210D01*
X10745440D01*
Y-2276810D01*
X10770840D01*
Y-2226010D01*
X10745440D01*
Y-2200610D01*
X10694640D01*
Y-2226010D01*
X10669240D01*
Y-2276810D01*
X10694640D01*
X10704800Y-2266650D02*
Y-2281890D01*
X10735280D01*
Y-2266650D01*
X10750520D01*
Y-2236170D01*
X10735280D01*
Y-2220930D01*
X10704800D01*
Y-2236170D01*
X10689560D01*
Y-2266650D01*
X10704800D01*
X13042870Y1034690D02*
X13068269Y1085490D01*
X13042870Y1136290D01*
X13093671Y1110890D01*
X13144470Y1136290D01*
X13119070Y1085490D01*
X13144470Y1034690D01*
X13093671Y1060090D01*
X13042870Y1034690D01*
X13296870D02*
X13322270Y1085490D01*
X13296870Y1136290D01*
X13347670Y1110890D01*
X13398470Y1136290D01*
X13373070Y1085490D01*
X13398470Y1034690D01*
X13347670Y1060090D01*
X13296870Y1034690D01*
Y780690D02*
X13322270D01*
X13347670Y806090D01*
X13373070Y780690D01*
X13398470D01*
Y806090D01*
X13373070Y831490D01*
X13398470Y856890D01*
Y882290D01*
X13373070D01*
X13347670Y856890D01*
X13322270Y882290D01*
X13296870D01*
Y856890D01*
X13322270Y831490D01*
X13296870Y806090D01*
Y780690D01*
X13317191Y801010D02*
X13332430D01*
X13347670Y816250D01*
X13362910Y801010D01*
X13378149D01*
Y816250D01*
X13362910Y831490D01*
X13378149Y846730D01*
Y861970D01*
X13362910D01*
X13347670Y846730D01*
X13332430Y861970D01*
X13317191D01*
Y846730D01*
X13332430Y831490D01*
X13317191Y816250D01*
Y801010D01*
X13042870Y780690D02*
X13068269D01*
X13093671Y806090D01*
X13119070Y780690D01*
X13144470D01*
Y806090D01*
X13119070Y831490D01*
X13144470Y856890D01*
Y882290D01*
X13119070D01*
X13093671Y856890D01*
X13068269Y882290D01*
X13042870D01*
Y856890D01*
X13068269Y831490D01*
X13042870Y806090D01*
Y780690D01*
X13063190Y801010D02*
X13078430D01*
X13093671Y816250D01*
X13108910Y801010D01*
X13124150D01*
Y816250D01*
X13108910Y831490D01*
X13124150Y846730D01*
Y861970D01*
X13108910D01*
X13093671Y846730D01*
X13078430Y861970D01*
X13063190D01*
Y846730D01*
X13078430Y831490D01*
X13063190Y816250D01*
Y801010D01*
X14099510Y1027070D02*
X14124910Y1077870D01*
X14099510Y1128670D01*
X14150310Y1103270D01*
X14201109Y1128670D01*
X14175710Y1077870D01*
X14201109Y1027070D01*
X14150310Y1052470D01*
X14099510Y1027070D01*
X14353510D02*
X14378909Y1077870D01*
X14353510Y1128670D01*
X14404311Y1103270D01*
X14455110Y1128670D01*
X14429710Y1077870D01*
X14455110Y1027070D01*
X14404311Y1052470D01*
X14353510Y1027070D01*
X14607510D02*
X14632910Y1077870D01*
X14607510Y1128670D01*
X14658310Y1103270D01*
X14709109Y1128670D01*
X14683710Y1077870D01*
X14709109Y1027070D01*
X14658310Y1052470D01*
X14607510Y1027070D01*
X14861510D02*
X14886909Y1077870D01*
X14861510Y1128670D01*
X14912309Y1103270D01*
X14963110Y1128670D01*
X14937711Y1077870D01*
X14963110Y1027070D01*
X14912309Y1052470D01*
X14861510Y1027070D01*
X7288800Y2031640D02*
X7238000Y2133240D01*
X7339600D01*
X7288800Y2031640D01*
Y2051960D02*
X7258320Y2112920D01*
X7319280D01*
X7288800Y2051960D01*
X7008800Y2031640D02*
X6958000Y2133240D01*
X7059600D01*
X7008800Y2031640D01*
Y2051960D02*
X6978320Y2112920D01*
X7039280D01*
X7008800Y2051960D01*
X12954840Y6244598D02*
X12933681Y6265758D01*
X12891360D01*
X12870200Y6244598D01*
Y6159959D01*
X12891360Y6138799D01*
X12933681D01*
X12954840Y6159959D01*
Y6202278D01*
X12912520D01*
X13350200Y7097138D02*
Y6970179D01*
Y7012499D01*
X13434840Y7097138D01*
X13371359Y7033659D01*
X13434840Y6970179D01*
X11910200Y6265758D02*
Y6138799D01*
Y6181119D01*
X11994840Y6265758D01*
X11931360Y6202278D01*
X11994840Y6138799D01*
X13350200Y5434378D02*
Y5307419D01*
Y5349739D01*
X13434840Y5434378D01*
X13371359Y5370898D01*
X13434840Y5307419D01*
X12636240Y6265758D02*
X12593920D01*
X12615080D01*
Y6159959D01*
X12593920Y6138799D01*
X12572760D01*
X12551600Y6159959D01*
X13273441Y6265758D02*
X13231120D01*
X13252280D01*
Y6159959D01*
X13231120Y6138799D01*
X13209959D01*
X13188800Y6159959D01*
X16399289Y7233180D02*
X16348489Y7334780D01*
X16450089D01*
X16399289Y7233180D01*
X16149289D02*
X16098489Y7334780D01*
X16200089D01*
X16149289Y7233180D01*
Y6233180D02*
X16098489Y6334780D01*
X16200089D01*
X16149289Y6233180D01*
X16399289D02*
X16348489Y6334780D01*
X16450089D01*
X16399289Y6233180D01*
X15149289D02*
X15098489Y6334780D01*
X15200089D01*
X15149289Y6233180D01*
Y7233180D02*
X15098489Y7334780D01*
X15200089D01*
X15149289Y7233180D01*
X15649289Y6733180D02*
X15598489Y6834780D01*
X15700089D01*
X15649289Y6733180D01*
Y7233180D02*
X15674689Y7258580D01*
X15700089D01*
X15674689Y7283980D01*
X15700089Y7309380D01*
X15674689D01*
X15649289Y7334780D01*
X15623889Y7309380D01*
X15598489D01*
X15623889Y7283980D01*
X15598489Y7258580D01*
X15623889D01*
X15649289Y7233180D01*
Y6983180D02*
X15674689Y7008580D01*
X15700089D01*
X15674689Y7033980D01*
X15700089Y7059380D01*
X15674689D01*
X15649289Y7084780D01*
X15623889Y7059380D01*
X15598489D01*
X15623889Y7033980D01*
X15598489Y7008580D01*
X15623889D01*
X15649289Y6983180D01*
Y6483180D02*
X15674689Y6508580D01*
X15700089D01*
X15674689Y6533980D01*
X15700089Y6559380D01*
X15674689D01*
X15649289Y6584780D01*
X15623889Y6559380D01*
X15598489D01*
X15623889Y6533980D01*
X15598489Y6508580D01*
X15623889D01*
X15649289Y6483180D01*
Y6233180D02*
X15674689Y6258580D01*
X15700089D01*
X15674689Y6283980D01*
X15700089Y6309380D01*
X15674689D01*
X15649289Y6334780D01*
X15623889Y6309380D01*
X15598489D01*
X15623889Y6283980D01*
X15598489Y6258580D01*
X15623889D01*
X15649289Y6233180D01*
X16149289Y6733180D02*
X16174689Y6758580D01*
X16200089D01*
X16174689Y6783980D01*
X16200089Y6809380D01*
X16174689D01*
X16149289Y6834780D01*
X16123889Y6809380D01*
X16098489D01*
X16123889Y6783980D01*
X16098489Y6758580D01*
X16123889D01*
X16149289Y6733180D01*
X1358870Y4764639D02*
Y4637680D01*
X1422349D01*
X1443509Y4658840D01*
Y4680000D01*
X1422349Y4701160D01*
X1358870D01*
X1422349D01*
X1443509Y4722319D01*
Y4743479D01*
X1422349Y4764639D01*
X1358870D01*
X1612870D02*
Y4637680D01*
X1676349D01*
X1697509Y4658840D01*
Y4680000D01*
X1676349Y4701160D01*
X1612870D01*
X1676349D01*
X1697509Y4722319D01*
Y4743479D01*
X1676349Y4764639D01*
X1612870D01*
X1866870D02*
Y4637680D01*
X1930349D01*
X1951509Y4658840D01*
Y4680000D01*
X1930349Y4701160D01*
X1866870D01*
X1930349D01*
X1951509Y4722319D01*
Y4743479D01*
X1930349Y4764639D01*
X1866870D01*
X2120870D02*
Y4637680D01*
X2184349D01*
X2205509Y4658840D01*
Y4680000D01*
X2184349Y4701160D01*
X2120870D01*
X2184349D01*
X2205509Y4722319D01*
Y4743479D01*
X2184349Y4764639D01*
X2120870D01*
X2374870D02*
Y4637680D01*
X2438349D01*
X2459509Y4658840D01*
Y4680000D01*
X2438349Y4701160D01*
X2374870D01*
X2438349D01*
X2459509Y4722319D01*
Y4743479D01*
X2438349Y4764639D01*
X2374870D01*
X8371650Y-1373050D02*
X8320850Y-1271450D01*
X8422450D01*
X8371650Y-1373050D01*
Y-1352730D02*
X8341170Y-1291770D01*
X8402130D01*
X8371650Y-1352730D01*
X8496650Y-2123050D02*
X8445850Y-2021450D01*
X8547450D01*
X8496650Y-2123050D01*
Y-2102730D02*
X8466170Y-2041770D01*
X8527130D01*
X8496650Y-2102730D01*
X8881289Y-1966451D02*
X8860129Y-1945291D01*
X8817810D01*
X8796650Y-1966451D01*
Y-2051090D01*
X8817810Y-2072250D01*
X8860129D01*
X8881289Y-2051090D01*
X9281290Y-1966451D02*
X9260130Y-1945291D01*
X9217810D01*
X9196650Y-1966451D01*
Y-2051090D01*
X9217810Y-2072250D01*
X9260130D01*
X9281290Y-2051090D01*
X9496650Y-2123050D02*
X9445850Y-2021450D01*
X9547450D01*
X9496650Y-2123050D01*
Y-2102730D02*
X9466170Y-2041770D01*
X9527130D01*
X9496650Y-2102730D01*
Y-1623050D02*
X9445850Y-1521450D01*
X9547450D01*
X9496650Y-1623050D01*
Y-1602730D02*
X9466170Y-1541770D01*
X9527130D01*
X9496650Y-1602730D01*
X9621650Y-1373050D02*
X9570850Y-1271450D01*
X9672450D01*
X9621650Y-1373050D01*
Y-1352730D02*
X9591170Y-1291770D01*
X9652130D01*
X9621650Y-1352730D01*
X8496650Y-1623050D02*
X8445850Y-1521450D01*
X8547450D01*
X8496650Y-1623050D01*
Y-1602730D02*
X8466170Y-1541770D01*
X8527130D01*
X8496650Y-1602730D01*
X6749860Y-1373050D02*
X6699060Y-1271450D01*
X6800660D01*
X6749860Y-1373050D01*
Y-1352730D02*
X6719380Y-1291770D01*
X6780340D01*
X6749860Y-1352730D01*
X6874860Y-2123050D02*
X6824060Y-2021450D01*
X6925660D01*
X6874860Y-2123050D01*
Y-2102730D02*
X6844380Y-2041770D01*
X6905340D01*
X6874860Y-2102730D01*
X7259499Y-1966451D02*
X7238339Y-1945291D01*
X7196020D01*
X7174860Y-1966451D01*
Y-2051090D01*
X7196020Y-2072250D01*
X7238339D01*
X7259499Y-2051090D01*
X7659500Y-1966451D02*
X7638340Y-1945291D01*
X7596020D01*
X7574860Y-1966451D01*
Y-2051090D01*
X7596020Y-2072250D01*
X7638340D01*
X7659500Y-2051090D01*
X7874860Y-2123050D02*
X7824060Y-2021450D01*
X7925660D01*
X7874860Y-2123050D01*
Y-2102730D02*
X7844380Y-2041770D01*
X7905340D01*
X7874860Y-2102730D01*
Y-1623050D02*
X7824060Y-1521450D01*
X7925660D01*
X7874860Y-1623050D01*
Y-1602730D02*
X7844380Y-1541770D01*
X7905340D01*
X7874860Y-1602730D01*
X7999860Y-1373050D02*
X7949060Y-1271450D01*
X8050660D01*
X7999860Y-1373050D01*
Y-1352730D02*
X7969380Y-1291770D01*
X8030340D01*
X7999860Y-1352730D01*
X6874860Y-1623050D02*
X6824060Y-1521450D01*
X6925660D01*
X6874860Y-1623050D01*
Y-1602730D02*
X6844380Y-1541770D01*
X6905340D01*
X6874860Y-1602730D01*
X8896700Y9999429D02*
X8845900Y10101029D01*
X8947500D01*
X8896700Y9999429D01*
Y9749429D02*
X8845900Y9851029D01*
X8947500D01*
X8896700Y9749429D01*
X9896700D02*
X9845900Y9851029D01*
X9947500D01*
X9896700Y9749429D01*
Y9999429D02*
X9845900Y10101029D01*
X9947500D01*
X9896700Y9999429D01*
Y8749430D02*
X9845900Y8851030D01*
X9947500D01*
X9896700Y8749430D01*
X8896700D02*
X8845900Y8851030D01*
X8947500D01*
X8896700Y8749430D01*
X9396700Y9249430D02*
X9345900Y9351030D01*
X9447500D01*
X9396700Y9249430D01*
X8896700D02*
X8922100Y9274830D01*
X8947500D01*
X8922100Y9300230D01*
X8947500Y9325630D01*
X8922100D01*
X8896700Y9351030D01*
X8871300Y9325630D01*
X8845900D01*
X8871300Y9300230D01*
X8845900Y9274830D01*
X8871300D01*
X8896700Y9249430D01*
X9146700D02*
X9172100Y9274830D01*
X9197500D01*
X9172100Y9300230D01*
X9197500Y9325630D01*
X9172100D01*
X9146700Y9351030D01*
X9121300Y9325630D01*
X9095900D01*
X9121300Y9300230D01*
X9095900Y9274830D01*
X9121300D01*
X9146700Y9249430D01*
X9646700D02*
X9672100Y9274830D01*
X9697500D01*
X9672100Y9300230D01*
X9697500Y9325630D01*
X9672100D01*
X9646700Y9351030D01*
X9621300Y9325630D01*
X9595900D01*
X9621300Y9300230D01*
X9595900Y9274830D01*
X9621300D01*
X9646700Y9249430D01*
X9896700D02*
X9922100Y9274830D01*
X9947500D01*
X9922100Y9300230D01*
X9947500Y9325630D01*
X9922100D01*
X9896700Y9351030D01*
X9871300Y9325630D01*
X9845900D01*
X9871300Y9300230D01*
X9845900Y9274830D01*
X9871300D01*
X9896700Y9249430D01*
X9396700Y9749429D02*
X9422100Y9774829D01*
X9447500D01*
X9422100Y9800229D01*
X9447500Y9825629D01*
X9422100D01*
X9396700Y9851029D01*
X9371300Y9825629D01*
X9345900D01*
X9371300Y9800229D01*
X9345900Y9774829D01*
X9371300D01*
X9396700Y9749429D01*
X4400900Y9999430D02*
X4350100Y10101030D01*
X4451700D01*
X4400900Y9999430D01*
Y9749430D02*
X4350100Y9851030D01*
X4451700D01*
X4400900Y9749430D01*
X5400900D02*
X5350100Y9851030D01*
X5451700D01*
X5400900Y9749430D01*
Y9999430D02*
X5350100Y10101030D01*
X5451700D01*
X5400900Y9999430D01*
Y8749430D02*
X5350100Y8851030D01*
X5451700D01*
X5400900Y8749430D01*
X4400900D02*
X4350100Y8851030D01*
X4451700D01*
X4400900Y8749430D01*
X4900900Y9249430D02*
X4850100Y9351030D01*
X4951700D01*
X4900900Y9249430D01*
X4400900D02*
X4426300Y9274830D01*
X4451700D01*
X4426300Y9300230D01*
X4451700Y9325630D01*
X4426300D01*
X4400900Y9351030D01*
X4375500Y9325630D01*
X4350100D01*
X4375500Y9300230D01*
X4350100Y9274830D01*
X4375500D01*
X4400900Y9249430D01*
X4650900D02*
X4676300Y9274830D01*
X4701700D01*
X4676300Y9300230D01*
X4701700Y9325630D01*
X4676300D01*
X4650900Y9351030D01*
X4625500Y9325630D01*
X4600100D01*
X4625500Y9300230D01*
X4600100Y9274830D01*
X4625500D01*
X4650900Y9249430D01*
X5150900D02*
X5176300Y9274830D01*
X5201700D01*
X5176300Y9300230D01*
X5201700Y9325630D01*
X5176300D01*
X5150900Y9351030D01*
X5125500Y9325630D01*
X5100100D01*
X5125500Y9300230D01*
X5100100Y9274830D01*
X5125500D01*
X5150900Y9249430D01*
X5400900D02*
X5426300Y9274830D01*
X5451700D01*
X5426300Y9300230D01*
X5451700Y9325630D01*
X5426300D01*
X5400900Y9351030D01*
X5375500Y9325630D01*
X5350100D01*
X5375500Y9300230D01*
X5350100Y9274830D01*
X5375500D01*
X5400900Y9249430D01*
X4900900Y9749430D02*
X4926300Y9774830D01*
X4951700D01*
X4926300Y9800230D01*
X4951700Y9825630D01*
X4926300D01*
X4900900Y9851030D01*
X4875500Y9825630D01*
X4850100D01*
X4875500Y9800230D01*
X4850100Y9774830D01*
X4875500D01*
X4900900Y9749430D01*
X12255470Y-1429110D02*
Y-1344471D01*
X12297790Y-1302151D01*
X12340109Y-1344471D01*
Y-1429110D01*
Y-1365630D01*
X12255470D01*
X11735470Y-1429110D02*
Y-1344471D01*
X11777790Y-1302151D01*
X11820109Y-1344471D01*
Y-1429110D01*
Y-1365630D01*
X11735470D01*
X11395470Y-1429110D02*
Y-1344471D01*
X11437790Y-1302151D01*
X11480109Y-1344471D01*
Y-1429110D01*
Y-1365630D01*
X11395470D01*
X12345470Y-2159110D02*
Y-2032151D01*
X12430110Y-2159110D01*
Y-2032151D01*
X11355470Y-2159110D02*
Y-2032151D01*
X11440109Y-2159110D01*
Y-2032151D01*
X11725470Y-2059110D02*
Y-1932151D01*
X11788949D01*
X11810109Y-1953311D01*
Y-1995631D01*
X11788949Y-2016790D01*
X11725470D01*
X11767790D02*
X11810109Y-2059110D01*
X-1865400Y3268900D02*
Y3243500D01*
X-1814600D01*
Y3268900D01*
X-1789200D01*
Y3319700D01*
X-1814600D01*
Y3345100D01*
X-1865400D01*
Y3319700D01*
X-1890800D01*
Y3268900D01*
X-1865400D01*
Y3472100D02*
Y3446700D01*
X-1814600D01*
Y3472100D01*
X-1789200D01*
Y3522900D01*
X-1814600D01*
Y3548300D01*
X-1865400D01*
Y3522900D01*
X-1890800D01*
Y3472100D01*
X-1865400D01*
X-1357400Y3370500D02*
Y3345100D01*
X-1306600D01*
Y3370500D01*
X-1281200D01*
Y3421300D01*
X-1306600D01*
Y3446700D01*
X-1357400D01*
Y3421300D01*
X-1382800D01*
Y3370500D01*
X-1357400D01*
X-50800Y-50800D02*
X-25400D01*
X0Y-25400D01*
X25400Y-50800D01*
X50800D01*
Y-25400D01*
X25400Y0D01*
X50800Y25400D01*
Y50800D01*
X25400D01*
X0Y25400D01*
X-25400Y50800D01*
X-50800D01*
Y25400D01*
X-25400Y0D01*
X-50800Y-25400D01*
Y-50800D01*
Y7749200D02*
X-25400D01*
X0Y7774600D01*
X25400Y7749200D01*
X50800D01*
Y7774600D01*
X25400Y7800000D01*
X50800Y7825400D01*
Y7850800D01*
X25400D01*
X0Y7825400D01*
X-25400Y7850800D01*
X-50800D01*
Y7825400D01*
X-25400Y7800000D01*
X-50800Y7774600D01*
Y7749200D01*
X14249200D02*
X14274600D01*
X14300000Y7774600D01*
X14325400Y7749200D01*
X14350800D01*
Y7774600D01*
X14325400Y7800000D01*
X14350800Y7825400D01*
Y7850800D01*
X14325400D01*
X14300000Y7825400D01*
X14274600Y7850800D01*
X14249200D01*
Y7825400D01*
X14274600Y7800000D01*
X14249200Y7774600D01*
Y7749200D01*
Y-50800D02*
X14274600D01*
X14300000Y-25400D01*
X14325400Y-50800D01*
X14350800D01*
Y-25400D01*
X14325400Y0D01*
X14350800Y25400D01*
Y50800D01*
X14325400D01*
X14300000Y25400D01*
X14274600Y50800D01*
X14249200D01*
Y25400D01*
X14274600Y0D01*
X14249200Y-25400D01*
Y-50800D01*
X15463480Y6196959D02*
X15421159D01*
X15400000Y6175799D01*
Y6091160D01*
X15421159Y6070000D01*
X15463480D01*
X15484639Y6091160D01*
Y6175799D01*
X15463480Y6196959D01*
X15873479Y3286959D02*
X15831160D01*
X15810001Y3265799D01*
Y3181160D01*
X15831160Y3160000D01*
X15873479D01*
X15894640Y3181160D01*
Y3265799D01*
X15873479Y3286959D01*
X15485059Y2885039D02*
X15442740D01*
X15421581Y2863879D01*
Y2779240D01*
X15442740Y2758080D01*
X15485059D01*
X15506219Y2779240D01*
Y2863879D01*
X15485059Y2885039D01*
X15093478Y2696959D02*
X15051160D01*
X15030000Y2675799D01*
Y2591160D01*
X15051160Y2570000D01*
X15093478D01*
X15114639Y2591160D01*
Y2675799D01*
X15093478Y2696959D01*
X11823480Y2866959D02*
X11781160D01*
X11760000Y2845799D01*
Y2761160D01*
X11781160Y2740000D01*
X11823480D01*
X11844640Y2761160D01*
Y2845799D01*
X11823480Y2866959D01*
X11443480Y1726959D02*
X11401160D01*
X11380000Y1705799D01*
Y1621160D01*
X11401160Y1600000D01*
X11443480D01*
X11464640Y1621160D01*
Y1705799D01*
X11443480Y1726959D01*
X11803479D02*
X11761160D01*
X11740000Y1705799D01*
Y1621160D01*
X11761160Y1600000D01*
X11803479D01*
X11824639Y1621160D01*
Y1705799D01*
X11803479Y1726959D01*
X12093479D02*
X12051160D01*
X12030000Y1705799D01*
Y1621160D01*
X12051160Y1600000D01*
X12093479D01*
X12114639Y1621160D01*
Y1705799D01*
X12093479Y1726959D01*
X12513479Y1096959D02*
X12471160D01*
X12450000Y1075799D01*
Y991160D01*
X12471160Y970000D01*
X12513479D01*
X12534639Y991160D01*
Y1075799D01*
X12513479Y1096959D01*
X12503479Y366959D02*
X12461160D01*
X12440000Y345799D01*
Y261160D01*
X12461160Y240000D01*
X12503479D01*
X12524639Y261160D01*
Y345799D01*
X12503479Y366959D01*
X12173479Y446959D02*
X12131160D01*
X12110000Y425799D01*
Y341160D01*
X12131160Y320000D01*
X12173479D01*
X12194639Y341160D01*
Y425799D01*
X12173479Y446959D01*
X11223479Y-253041D02*
X11181160D01*
X11160000Y-274201D01*
Y-358840D01*
X11181160Y-380000D01*
X11223479D01*
X11244639Y-358840D01*
Y-274201D01*
X11223479Y-253041D01*
X10763479Y-1583041D02*
X10721160D01*
X10700000Y-1604201D01*
Y-1688840D01*
X10721160Y-1710000D01*
X10763479D01*
X10784639Y-1688840D01*
Y-1604201D01*
X10763479Y-1583041D01*
X9943479Y-1683041D02*
X9901160D01*
X9880000Y-1704201D01*
Y-1788840D01*
X9901160Y-1810000D01*
X9943479D01*
X9964639Y-1788840D01*
Y-1704201D01*
X9943479Y-1683041D01*
X-676521Y6896959D02*
X-718840D01*
X-740000Y6875799D01*
Y6791160D01*
X-718840Y6770000D01*
X-676521D01*
X-655361Y6791160D01*
Y6875799D01*
X-676521Y6896959D01*
X2243479Y8796959D02*
X2201160D01*
X2180000Y8775799D01*
Y8691160D01*
X2201160Y8670000D01*
X2243479D01*
X2264639Y8691160D01*
Y8775799D01*
X2243479Y8796959D01*
X1473479Y7826959D02*
X1431160D01*
X1410000Y7805799D01*
Y7721160D01*
X1431160Y7700000D01*
X1473479D01*
X1494639Y7721160D01*
Y7805799D01*
X1473479Y7826959D01*
X2923480Y8026959D02*
X2881160D01*
X2860000Y8005799D01*
Y7921160D01*
X2881160Y7900000D01*
X2923480D01*
X2944640Y7921160D01*
Y8005799D01*
X2923480Y8026959D01*
X3463479Y8436959D02*
X3421160D01*
X3400000Y8415799D01*
Y8331160D01*
X3421160Y8310000D01*
X3463479D01*
X3484639Y8331160D01*
Y8415799D01*
X3463479Y8436959D01*
X12443479Y8706959D02*
X12401160D01*
X12380000Y8685799D01*
Y8601160D01*
X12401160Y8580000D01*
X12443479D01*
X12464639Y8601160D01*
Y8685799D01*
X12443479Y8706959D01*
X13853481Y8666959D02*
X13811160D01*
X13789999Y8645799D01*
Y8561160D01*
X13811160Y8540000D01*
X13853481D01*
X13874640Y8561160D01*
Y8645799D01*
X13853481Y8666959D01*
X15083479Y8136959D02*
X15041161D01*
X15020000Y8115799D01*
Y8031160D01*
X15041161Y8010000D01*
X15083479D01*
X15104639Y8031160D01*
Y8115799D01*
X15083479Y8136959D01*
X12243479Y7736959D02*
X12201160D01*
X12180000Y7715799D01*
Y7631160D01*
X12201160Y7610000D01*
X12243479D01*
X12264639Y7631160D01*
Y7715799D01*
X12243479Y7736959D01*
X13003479Y7096959D02*
X12961160D01*
X12939999Y7075799D01*
Y6991160D01*
X12961160Y6970000D01*
X13003479D01*
X13024638Y6991160D01*
Y7075799D01*
X13003479Y7096959D01*
X12423479Y7246959D02*
X12381160D01*
X12360000Y7225799D01*
Y7141160D01*
X12381160Y7120000D01*
X12423479D01*
X12444639Y7141160D01*
Y7225799D01*
X12423479Y7246959D01*
X11243479Y8436959D02*
X11201160D01*
X11180000Y8415799D01*
Y8331160D01*
X11201160Y8310000D01*
X11243479D01*
X11264639Y8331160D01*
Y8415799D01*
X11243479Y8436959D01*
X11003479D02*
X10961160D01*
X10940000Y8415799D01*
Y8331160D01*
X10961160Y8310000D01*
X11003479D01*
X11024639Y8331160D01*
Y8415799D01*
X11003479Y8436959D01*
X11663479Y7146959D02*
X11621160D01*
X11600000Y7125799D01*
Y7041160D01*
X11621160Y7020000D01*
X11663479D01*
X11684639Y7041160D01*
Y7125799D01*
X11663479Y7146959D01*
X11833480Y5486959D02*
X11791160D01*
X11770000Y5465799D01*
Y5381160D01*
X11791160Y5360000D01*
X11833480D01*
X11854639Y5381160D01*
Y5465799D01*
X11833480Y5486959D01*
X11463479Y5916959D02*
X11421160D01*
X11400000Y5895799D01*
Y5811160D01*
X11421160Y5790000D01*
X11463479D01*
X11484639Y5811160D01*
Y5895799D01*
X11463479Y5916959D01*
X11433480Y5366959D02*
X11391160D01*
X11370000Y5345799D01*
Y5261160D01*
X11391160Y5240000D01*
X11433480D01*
X11454640Y5261160D01*
Y5345799D01*
X11433480Y5366959D01*
X10553480Y4186959D02*
X10511160D01*
X10490000Y4165799D01*
Y4081160D01*
X10511160Y4060000D01*
X10553480D01*
X10574640Y4081160D01*
Y4165799D01*
X10553480Y4186959D01*
X10983479Y4766959D02*
X10941160D01*
X10920000Y4745799D01*
Y4661160D01*
X10941160Y4640000D01*
X10983479D01*
X11004639Y4661160D01*
Y4745799D01*
X10983479Y4766959D01*
X11313480Y3966959D02*
X11271160D01*
X11250000Y3945799D01*
Y3861160D01*
X11271160Y3840000D01*
X11313480D01*
X11334640Y3861160D01*
Y3945799D01*
X11313480Y3966959D01*
X12673479Y4276959D02*
X12631160D01*
X12610000Y4255799D01*
Y4171160D01*
X12631160Y4150000D01*
X12673479D01*
X12694639Y4171160D01*
Y4255799D01*
X12673479Y4276959D01*
X11603479Y3376959D02*
X11561160D01*
X11540000Y3355799D01*
Y3271160D01*
X11561160Y3250000D01*
X11603479D01*
X11624639Y3271160D01*
Y3355799D01*
X11603479Y3376959D01*
X8723479Y3146959D02*
X8681160D01*
X8660000Y3125799D01*
Y3041160D01*
X8681160Y3020000D01*
X8723479D01*
X8744639Y3041160D01*
Y3125799D01*
X8723479Y3146959D01*
X2893479Y3556959D02*
X2851160D01*
X2830000Y3535799D01*
Y3451160D01*
X2851160Y3430000D01*
X2893479D01*
X2914639Y3451160D01*
Y3535799D01*
X2893479Y3556959D01*
X-1126520Y1286959D02*
X-1168840D01*
X-1190000Y1265799D01*
Y1181160D01*
X-1168840Y1160000D01*
X-1126520D01*
X-1105361Y1181160D01*
Y1265799D01*
X-1126520Y1286959D01*
X-436521Y2186959D02*
X-478840D01*
X-500000Y2165799D01*
Y2081160D01*
X-478840Y2060000D01*
X-436521D01*
X-415361Y2081160D01*
Y2165799D01*
X-436521Y2186959D01*
X583479Y646959D02*
X541160D01*
X520000Y625799D01*
Y541160D01*
X541160Y520000D01*
X583479D01*
X604639Y541160D01*
Y625799D01*
X583479Y646959D01*
X1633479Y-113041D02*
X1591160D01*
X1570000Y-134201D01*
Y-218840D01*
X1591160Y-240000D01*
X1633479D01*
X1654639Y-218840D01*
Y-134201D01*
X1633479Y-113041D01*
X2023479Y476959D02*
X1981160D01*
X1960000Y455799D01*
Y371160D01*
X1981160Y350000D01*
X2023479D01*
X2044639Y371160D01*
Y455799D01*
X2023479Y476959D01*
X2003479Y306959D02*
X1961160D01*
X1940000Y285799D01*
Y201160D01*
X1961160Y180000D01*
X2003479D01*
X2024639Y201160D01*
Y285799D01*
X2003479Y306959D01*
X593479Y1906959D02*
X551160D01*
X530000Y1885799D01*
Y1801160D01*
X551160Y1780000D01*
X593479D01*
X614639Y1801160D01*
Y1885799D01*
X593479Y1906959D01*
X483479Y1836959D02*
X441160D01*
X420000Y1815799D01*
Y1731160D01*
X441160Y1710000D01*
X483479D01*
X504639Y1731160D01*
Y1815799D01*
X483479Y1836959D01*
X133480Y2206959D02*
X91160D01*
X70000Y2185799D01*
Y2101160D01*
X91160Y2080000D01*
X133480D01*
X154640Y2101160D01*
Y2185799D01*
X133480Y2206959D01*
X-106520Y4796959D02*
X-148840D01*
X-170000Y4775799D01*
Y4691160D01*
X-148840Y4670000D01*
X-106520D01*
X-85361Y4691160D01*
Y4775799D01*
X-106520Y4796959D01*
Y4946959D02*
X-148840D01*
X-170000Y4925799D01*
Y4841160D01*
X-148840Y4820000D01*
X-106520D01*
X-85361Y4841160D01*
Y4925799D01*
X-106520Y4946959D01*
X-246520Y4516959D02*
X-288840D01*
X-310000Y4495799D01*
Y4411160D01*
X-288840Y4390000D01*
X-246520D01*
X-225360Y4411160D01*
Y4495799D01*
X-246520Y4516959D01*
X2783479Y4366959D02*
X2741160D01*
X2720000Y4345799D01*
Y4261160D01*
X2741160Y4240000D01*
X2783479D01*
X2804639Y4261160D01*
Y4345799D01*
X2783479Y4366959D01*
X3013479Y4896959D02*
X2971160D01*
X2950000Y4875799D01*
Y4791160D01*
X2971160Y4770000D01*
X3013479D01*
X3034639Y4791160D01*
Y4875799D01*
X3013479Y4896959D01*
X3353479Y5156959D02*
X3311160D01*
X3290000Y5135799D01*
Y5051160D01*
X3311160Y5030000D01*
X3353479D01*
X3374639Y5051160D01*
Y5135799D01*
X3353479Y5156959D01*
X3463479Y6286959D02*
X3421160D01*
X3400000Y6265799D01*
Y6181160D01*
X3421160Y6160000D01*
X3463479D01*
X3484639Y6181160D01*
Y6265799D01*
X3463479Y6286959D01*
X3493479Y6916959D02*
X3451160D01*
X3430000Y6895799D01*
Y6811160D01*
X3451160Y6790000D01*
X3493479D01*
X3514639Y6811160D01*
Y6895799D01*
X3493479Y6916959D01*
X2943480Y6836959D02*
X2901160D01*
X2880000Y6815799D01*
Y6731160D01*
X2901160Y6710000D01*
X2943480D01*
X2964639Y6731160D01*
Y6815799D01*
X2943480Y6836959D01*
X2183480Y5166959D02*
X2141160D01*
X2120000Y5145799D01*
Y5061160D01*
X2141160Y5040000D01*
X2183480D01*
X2204639Y5061160D01*
Y5145799D01*
X2183480Y5166959D01*
X2573479Y6186959D02*
X2531160D01*
X2510000Y6165799D01*
Y6081160D01*
X2531160Y6060000D01*
X2573479D01*
X2594639Y6081160D01*
Y6165799D01*
X2573479Y6186959D01*
X2153479Y5606959D02*
X2111160D01*
X2090000Y5585799D01*
Y5501160D01*
X2111160Y5480000D01*
X2153479D01*
X2174639Y5501160D01*
Y5585799D01*
X2153479Y5606959D01*
X1633479Y5186959D02*
X1591160D01*
X1570000Y5165799D01*
Y5081160D01*
X1591160Y5060000D01*
X1633479D01*
X1654639Y5081160D01*
Y5165799D01*
X1633479Y5186959D01*
X1303479Y4066959D02*
X1261160D01*
X1240000Y4045799D01*
Y3961160D01*
X1261160Y3940000D01*
X1303479D01*
X1324639Y3961160D01*
Y4045799D01*
X1303479Y4066959D01*
X713479Y3826959D02*
X671160D01*
X650000Y3805799D01*
Y3721160D01*
X671160Y3700000D01*
X713479D01*
X734639Y3721160D01*
Y3805799D01*
X713479Y3826959D01*
X203479Y4556959D02*
X161160D01*
X140000Y4535799D01*
Y4451160D01*
X161160Y4430000D01*
X203479D01*
X224639Y4451160D01*
Y4535799D01*
X203479Y4556959D01*
X313479Y4976959D02*
X271160D01*
X250000Y4955799D01*
Y4871160D01*
X271160Y4850000D01*
X313479D01*
X334639Y4871160D01*
Y4955799D01*
X313479Y4976959D01*
X593479Y4706959D02*
X551160D01*
X530000Y4685799D01*
Y4601160D01*
X551160Y4580000D01*
X593479D01*
X614639Y4601160D01*
Y4685799D01*
X593479Y4706959D01*
X863479Y4826959D02*
X821160D01*
X800000Y4805799D01*
Y4721160D01*
X821160Y4700000D01*
X863479D01*
X884639Y4721160D01*
Y4805799D01*
X863479Y4826959D01*
X453479Y5076959D02*
X411160D01*
X390000Y5055799D01*
Y4971160D01*
X411160Y4950000D01*
X453479D01*
X474639Y4971160D01*
Y5055799D01*
X453479Y5076959D01*
X83479Y5416959D02*
X41160D01*
X20000Y5395799D01*
Y5311160D01*
X41160Y5290000D01*
X83479D01*
X104639Y5311160D01*
Y5395799D01*
X83479Y5416959D01*
X423479D02*
X381160D01*
X360000Y5395799D01*
Y5311160D01*
X381160Y5290000D01*
X423479D01*
X444639Y5311160D01*
Y5395799D01*
X423479Y5416959D01*
X-456521Y5676959D02*
X-498840D01*
X-520000Y5655799D01*
Y5571160D01*
X-498840Y5550000D01*
X-456521D01*
X-435361Y5571160D01*
Y5655799D01*
X-456521Y5676959D01*
X-1616521Y5076959D02*
X-1658840D01*
X-1680000Y5055799D01*
Y4971160D01*
X-1658840Y4950000D01*
X-1616521D01*
X-1595361Y4971160D01*
Y5055799D01*
X-1616521Y5076959D01*
Y5196959D02*
X-1658840D01*
X-1680000Y5175799D01*
Y5091160D01*
X-1658840Y5070000D01*
X-1616521D01*
X-1595361Y5091160D01*
Y5175799D01*
X-1616521Y5196959D01*
X-1036521Y5136959D02*
X-1078840D01*
X-1100000Y5115799D01*
Y5031160D01*
X-1078840Y5010000D01*
X-1036521D01*
X-1015361Y5031160D01*
Y5115799D01*
X-1036521Y5136959D01*
X-826521Y4956959D02*
X-868840D01*
X-890000Y4935799D01*
Y4851160D01*
X-868840Y4830000D01*
X-826521D01*
X-805361Y4851160D01*
Y4935799D01*
X-826521Y4956959D01*
Y5176959D02*
X-868840D01*
X-890000Y5155799D01*
Y5071160D01*
X-868840Y5050000D01*
X-826521D01*
X-805361Y5071160D01*
Y5155799D01*
X-826521Y5176959D01*
Y5346959D02*
X-868840D01*
X-890000Y5325799D01*
Y5241160D01*
X-868840Y5220000D01*
X-826521D01*
X-805361Y5241160D01*
Y5325799D01*
X-826521Y5346959D01*
X-1776520Y986959D02*
X-1818840D01*
X-1840000Y965799D01*
Y881160D01*
X-1818840Y860000D01*
X-1776520D01*
X-1755360Y881160D01*
Y965799D01*
X-1776520Y986959D01*
X-436521Y976959D02*
X-478840D01*
X-500000Y955799D01*
Y871160D01*
X-478840Y850000D01*
X-436521D01*
X-415361Y871160D01*
Y955799D01*
X-436521Y976959D01*
X2313479Y826959D02*
X2271160D01*
X2250000Y805799D01*
Y721160D01*
X2271160Y700000D01*
X2313479D01*
X2334639Y721160D01*
Y805799D01*
X2313479Y826959D01*
X1323479Y1686959D02*
X1281160D01*
X1260000Y1665799D01*
Y1581160D01*
X1281160Y1560000D01*
X1323479D01*
X1344639Y1581160D01*
Y1665799D01*
X1323479Y1686959D01*
X883479Y2916959D02*
X841160D01*
X820000Y2895799D01*
Y2811160D01*
X841160Y2790000D01*
X883479D01*
X904639Y2811160D01*
Y2895799D01*
X883479Y2916959D01*
X5613480Y1536959D02*
X5571160D01*
X5550000Y1515799D01*
Y1431160D01*
X5571160Y1410000D01*
X5613480D01*
X5634639Y1431160D01*
Y1515799D01*
X5613480Y1536959D01*
X6273479Y1716959D02*
X6231160D01*
X6210000Y1695799D01*
Y1611160D01*
X6231160Y1590000D01*
X6273479D01*
X6294639Y1611160D01*
Y1695799D01*
X6273479Y1716959D01*
X5543479Y3376959D02*
X5501160D01*
X5480000Y3355799D01*
Y3271160D01*
X5501160Y3250000D01*
X5543479D01*
X5564639Y3271160D01*
Y3355799D01*
X5543479Y3376959D01*
X6343479D02*
X6301160D01*
X6280000Y3355799D01*
Y3271160D01*
X6301160Y3250000D01*
X6343479D01*
X6364639Y3271160D01*
Y3355799D01*
X6343479Y3376959D01*
X7833479Y736959D02*
X7791160D01*
X7770000Y715799D01*
Y631160D01*
X7791160Y610000D01*
X7833479D01*
X7854639Y631160D01*
Y715799D01*
X7833479Y736959D01*
X9373479Y726959D02*
X9331160D01*
X9310000Y705799D01*
Y621160D01*
X9331160Y600000D01*
X9373479D01*
X9394639Y621160D01*
Y705799D01*
X9373479Y726959D01*
X8313479Y1206959D02*
X8271160D01*
X8250000Y1185799D01*
Y1101160D01*
X8271160Y1080000D01*
X8313479D01*
X8334639Y1101160D01*
Y1185799D01*
X8313479Y1206959D01*
X8713479Y1076959D02*
X8671160D01*
X8650000Y1055799D01*
Y971160D01*
X8671160Y950000D01*
X8713479D01*
X8734639Y971160D01*
Y1055799D01*
X8713479Y1076959D01*
X8933479Y886959D02*
X8891160D01*
X8870000Y865799D01*
Y781160D01*
X8891160Y760000D01*
X8933479D01*
X8954639Y781160D01*
Y865799D01*
X8933479Y886959D01*
X6873480Y926959D02*
X6831160D01*
X6810000Y905799D01*
Y821160D01*
X6831160Y800000D01*
X6873480D01*
X6894639Y821160D01*
Y905799D01*
X6873480Y926959D01*
X6713479Y116959D02*
X6671160D01*
X6650000Y95799D01*
Y11160D01*
X6671160Y-10000D01*
X6713479D01*
X6734639Y11160D01*
Y95799D01*
X6713479Y116959D01*
X6733480Y636959D02*
X6691160D01*
X6670000Y615799D01*
Y531160D01*
X6691160Y510000D01*
X6733480D01*
X6754640Y531160D01*
Y615799D01*
X6733480Y636959D01*
X6723479Y496959D02*
X6681160D01*
X6660000Y475799D01*
Y391160D01*
X6681160Y370000D01*
X6723479D01*
X6744639Y391160D01*
Y475799D01*
X6723479Y496959D01*
X6833479Y336959D02*
X6791160D01*
X6770000Y315799D01*
Y231160D01*
X6791160Y210000D01*
X6833479D01*
X6854639Y231160D01*
Y315799D01*
X6833479Y336959D01*
X5933479Y916959D02*
X5891160D01*
X5870000Y895799D01*
Y811160D01*
X5891160Y790000D01*
X5933479D01*
X5954639Y811160D01*
Y895799D01*
X5933479Y916959D01*
Y786959D02*
X5891160D01*
X5870000Y765799D01*
Y681160D01*
X5891160Y660000D01*
X5933479D01*
X5954639Y681160D01*
Y765799D01*
X5933479Y786959D01*
Y636959D02*
X5891160D01*
X5870000Y615799D01*
Y531160D01*
X5891160Y510000D01*
X5933479D01*
X5954639Y531160D01*
Y615799D01*
X5933479Y636959D01*
Y496959D02*
X5891160D01*
X5870000Y475799D01*
Y391160D01*
X5891160Y370000D01*
X5933479D01*
X5954639Y391160D01*
Y475799D01*
X5933479Y496959D01*
Y316959D02*
X5891160D01*
X5870000Y295799D01*
Y211160D01*
X5891160Y190000D01*
X5933479D01*
X5954639Y211160D01*
Y295799D01*
X5933479Y316959D01*
X5973480Y106959D02*
X5931160D01*
X5910000Y85799D01*
Y1160D01*
X5931160Y-20000D01*
X5973480D01*
X5994640Y1160D01*
Y85799D01*
X5973480Y106959D01*
X3283479Y496959D02*
X3241160D01*
X3220000Y475799D01*
Y391160D01*
X3241160Y370000D01*
X3283479D01*
X3304639Y391160D01*
Y475799D01*
X3283479Y496959D01*
X2553480Y316959D02*
X2511160D01*
X2490000Y295799D01*
Y211160D01*
X2511160Y190000D01*
X2553480D01*
X2574640Y211160D01*
Y295799D01*
X2553480Y316959D01*
Y116959D02*
X2511160D01*
X2490000Y95799D01*
Y11160D01*
X2511160Y-10000D01*
X2553480D01*
X2574640Y11160D01*
Y95799D01*
X2553480Y116959D01*
Y-43041D02*
X2511160D01*
X2490000Y-64201D01*
Y-148840D01*
X2511160Y-170000D01*
X2553480D01*
X2574640Y-148840D01*
Y-64201D01*
X2553480Y-43041D01*
X12683479Y-758041D02*
X12641160D01*
X12620000Y-779201D01*
Y-863840D01*
X12641160Y-885000D01*
X12683479D01*
X12704639Y-863840D01*
Y-779201D01*
X12683479Y-758041D01*
X12773479D02*
X12731160D01*
X12710000Y-779201D01*
Y-863840D01*
X12731160Y-885000D01*
X12773479D01*
X12794639Y-863840D01*
Y-779201D01*
X12773479Y-758041D01*
X12863480D02*
X12821159D01*
X12800000Y-779201D01*
Y-863840D01*
X12821159Y-885000D01*
X12863480D01*
X12884639Y-863840D01*
Y-779201D01*
X12863480Y-758041D01*
Y-668041D02*
X12821159D01*
X12800000Y-689201D01*
Y-773840D01*
X12821159Y-795000D01*
X12863480D01*
X12884639Y-773840D01*
Y-689201D01*
X12863480Y-668041D01*
X12773479D02*
X12731160D01*
X12710000Y-689201D01*
Y-773840D01*
X12731160Y-795000D01*
X12773479D01*
X12794639Y-773840D01*
Y-689201D01*
X12773479Y-668041D01*
X12683479D02*
X12641160D01*
X12620000Y-689201D01*
Y-773840D01*
X12641160Y-795000D01*
X12683479D01*
X12704639Y-773840D01*
Y-689201D01*
X12683479Y-668041D01*
X15363480Y2586959D02*
X15321159D01*
X15300000Y2565799D01*
Y2481160D01*
X15321159Y2460000D01*
X15363480D01*
X15384639Y2481160D01*
Y2565799D01*
X15363480Y2586959D01*
X13813480Y2606959D02*
X13771159D01*
X13750000Y2585799D01*
Y2501160D01*
X13771159Y2480000D01*
X13813480D01*
X13834639Y2501160D01*
Y2585799D01*
X13813480Y2606959D01*
X14113480Y2936959D02*
X14071159D01*
X14050000Y2915799D01*
Y2831160D01*
X14071159Y2810000D01*
X14113480D01*
X14134639Y2831160D01*
Y2915799D01*
X14113480Y2936959D01*
X13524638Y1976959D02*
X13439999D01*
Y1850000D01*
X13524638D01*
X13439999Y1913480D02*
X13482320D01*
X11682370Y4192829D02*
Y4065870D01*
X11745850D01*
X11767009Y4087030D01*
Y4171669D01*
X11745850Y4192829D01*
X11682370D01*
X11570000Y4456959D02*
Y4330000D01*
X11633479D01*
X11654639Y4351160D01*
Y4435799D01*
X11633479Y4456959D01*
X11570000D01*
X8281640Y393859D02*
Y266900D01*
X8345119D01*
X8366279Y288060D01*
Y372699D01*
X8345119Y393859D01*
X8281640D01*
X245950Y4249459D02*
Y4122500D01*
X309429D01*
X330589Y4143660D01*
Y4228299D01*
X309429Y4249459D01*
X245950D01*
X-993851Y4071160D02*
Y4155799D01*
X-1015011Y4176959D01*
X-1057331D01*
X-1078490Y4155799D01*
Y4071160D01*
X-1057331Y4050000D01*
X-1015011D01*
X-1036171Y4092320D02*
X-993851Y4050000D01*
X-1015011D02*
X-993851Y4071160D01*
X704639Y3461160D02*
Y3545799D01*
X683479Y3566959D01*
X641160D01*
X620000Y3545799D01*
Y3461160D01*
X641160Y3440000D01*
X683479D01*
X662320Y3482320D02*
X704639Y3440000D01*
X683479D02*
X704639Y3461160D01*
X2770000Y-1823041D02*
Y-1950000D01*
X2833479D01*
X2854639Y-1928840D01*
Y-1844201D01*
X2833479Y-1823041D01*
X2770000D01*
X2970000Y-1793041D02*
Y-1920000D01*
X3033479D01*
X3054639Y-1898840D01*
Y-1814201D01*
X3033479Y-1793041D01*
X2970000D01*
X378430Y-1424071D02*
Y-1551030D01*
X441909D01*
X463069Y-1529870D01*
Y-1445231D01*
X441909Y-1424071D01*
X378430D01*
X340000Y-943041D02*
Y-1070000D01*
X403480D01*
X424639Y-1048840D01*
Y-964201D01*
X403480Y-943041D01*
X340000D01*
X15230000Y1546959D02*
Y1420000D01*
X15293478D01*
X15314639Y1441160D01*
Y1525799D01*
X15293478Y1546959D01*
X15230000D01*
X13720000Y1676959D02*
Y1550000D01*
X13783479D01*
X13804639Y1571160D01*
Y1655799D01*
X13783479Y1676959D01*
X13720000D01*
X14531310Y1514830D02*
X14573630D01*
X14552469D01*
Y1387871D01*
X14531310D01*
X14573630D01*
X14539999Y1776959D02*
X14582320D01*
X14561160D01*
Y1650000D01*
X14539999D01*
X14582320D01*
X-1407791Y4519459D02*
X-1450111D01*
X-1471271Y4498299D01*
Y4413660D01*
X-1450111Y4392500D01*
X-1407791D01*
X-1386631Y4413660D01*
Y4498299D01*
X-1407791Y4519459D01*
X13442500Y4414459D02*
Y4287500D01*
X13505978D01*
X13527139Y4308660D01*
Y4393299D01*
X13505978Y4414459D01*
X13442500D01*
X13766620Y4324869D02*
Y4197910D01*
X13830099D01*
X13851260Y4219070D01*
Y4303709D01*
X13830099Y4324869D01*
X13766620D01*
X14669240Y5770479D02*
X14626920D01*
X14605760Y5749319D01*
Y5664680D01*
X14626920Y5643520D01*
X14669240D01*
X14690401Y5664680D01*
Y5749319D01*
X14669240Y5770479D01*
X15835600Y5350109D02*
Y5223150D01*
X15899078D01*
X15920239Y5244310D01*
Y5328949D01*
X15899078Y5350109D01*
X15835600D01*
X-1581521Y3329459D02*
X-1623840D01*
X-1645000Y3308299D01*
Y3223660D01*
X-1623840Y3202500D01*
X-1581521D01*
X-1560361Y3223660D01*
Y3308299D01*
X-1581521Y3329459D01*
X-1649021Y3351959D02*
X-1691340D01*
X-1712500Y3330799D01*
Y3246160D01*
X-1691340Y3225000D01*
X-1649021D01*
X-1627861Y3246160D01*
Y3330799D01*
X-1649021Y3351959D01*
X-1523821Y3254459D02*
X-1566140D01*
X-1587300Y3233299D01*
Y3148660D01*
X-1566140Y3127500D01*
X-1523821D01*
X-1502661Y3148660D01*
Y3233299D01*
X-1523821Y3254459D01*
X6767459Y8260869D02*
X6725140D01*
X6703980Y8239709D01*
Y8155070D01*
X6725140Y8133910D01*
X6767459D01*
X6788619Y8155070D01*
Y8239709D01*
X6767459Y8260869D01*
X6785979Y8154459D02*
X6743660D01*
X6722500Y8133299D01*
Y8048660D01*
X6743660Y8027500D01*
X6785979D01*
X6807139Y8048660D01*
Y8133299D01*
X6785979Y8154459D01*
X10381Y5087526D02*
X-31938D01*
X-53098Y5066366D01*
Y4981726D01*
X-31938Y4960567D01*
X10381D01*
X31541Y4981726D01*
Y5066366D01*
X10381Y5087526D01*
X143480Y5141959D02*
X101160D01*
X80000Y5120799D01*
Y5036160D01*
X101160Y5015000D01*
X143480D01*
X164639Y5036160D01*
Y5120799D01*
X143480Y5141959D01*
X54639Y5713660D02*
Y5798299D01*
X33479Y5819459D01*
X-8840D01*
X-30000Y5798299D01*
Y5713660D01*
X-8840Y5692500D01*
X33479D01*
X12320Y5734820D02*
X54639Y5692500D01*
X33479D02*
X54639Y5713660D01*
X967140Y5773460D02*
Y5858099D01*
X945980Y5879259D01*
X903661D01*
X882501Y5858099D01*
Y5773460D01*
X903661Y5752300D01*
X945980D01*
X924821Y5794620D02*
X967140Y5752300D01*
X945980D02*
X967140Y5773460D01*
X1851519Y6465604D02*
X1809199D01*
X1788039Y6444444D01*
Y6359804D01*
X1809199Y6338645D01*
X1851519D01*
X1872679Y6359804D01*
Y6444444D01*
X1851519Y6465604D01*
X1835560Y8567519D02*
Y8440560D01*
X1899039D01*
X1920199Y8461720D01*
Y8546359D01*
X1899039Y8567519D01*
X1835560D01*
X977060Y4826959D02*
Y4700000D01*
X1040539D01*
X1061699Y4721160D01*
Y4805799D01*
X1040539Y4826959D01*
X977060D01*
X1030641Y3241888D02*
Y3114929D01*
X1094120D01*
X1115280Y3136088D01*
Y3220728D01*
X1094120Y3241888D01*
X1030641D01*
X1132500Y3104459D02*
Y2977500D01*
X1195979D01*
X1217139Y2998660D01*
Y3083299D01*
X1195979Y3104459D01*
X1132500D01*
X934639Y3273660D02*
Y3358299D01*
X913480Y3379459D01*
X871160D01*
X850000Y3358299D01*
Y3273660D01*
X871160Y3252500D01*
X913480D01*
X892320Y3294820D02*
X934639Y3252500D01*
X913480D02*
X934639Y3273660D01*
X-919409Y4408660D02*
Y4493299D01*
X-940569Y4514459D01*
X-982888D01*
X-1004048Y4493299D01*
Y4408660D01*
X-982888Y4387500D01*
X-940569D01*
X-961728Y4429820D02*
X-919409Y4387500D01*
X-940569D02*
X-919409Y4408660D01*
X-1124021Y4941959D02*
X-1166340D01*
X-1187500Y4920799D01*
Y4836160D01*
X-1166340Y4815000D01*
X-1124021D01*
X-1102861Y4836160D01*
Y4920799D01*
X-1124021Y4941959D01*
X-1616521Y4931959D02*
X-1658840D01*
X-1680000Y4910799D01*
Y4826160D01*
X-1658840Y4805000D01*
X-1616521D01*
X-1595361Y4826160D01*
Y4910799D01*
X-1616521Y4931959D01*
X-1676521Y4844459D02*
X-1718840D01*
X-1740000Y4823299D01*
Y4738660D01*
X-1718840Y4717500D01*
X-1676521D01*
X-1655361Y4738660D01*
Y4823299D01*
X-1676521Y4844459D01*
X-1409219Y6989346D02*
X-1451539D01*
X-1472699Y6968186D01*
Y6883547D01*
X-1451539Y6862387D01*
X-1409219D01*
X-1388059Y6883547D01*
Y6968186D01*
X-1409219Y6989346D01*
X-1346519Y6989459D02*
X-1388839D01*
X-1409999Y6968299D01*
Y6883660D01*
X-1388839Y6862500D01*
X-1346519D01*
X-1325359Y6883660D01*
Y6968299D01*
X-1346519Y6989459D01*
X-1199657Y4729364D02*
Y4814003D01*
X-1220817Y4835163D01*
X-1263136D01*
X-1284296Y4814003D01*
Y4729364D01*
X-1263136Y4708204D01*
X-1220817D01*
X-1241976Y4750524D02*
X-1199657Y4708204D01*
X-1220817D02*
X-1199657Y4729364D01*
X-430361Y5156160D02*
Y5240799D01*
X-451521Y5261959D01*
X-493840D01*
X-515000Y5240799D01*
Y5156160D01*
X-493840Y5135000D01*
X-451521D01*
X-472680Y5177320D02*
X-430361Y5135000D01*
X-451521D02*
X-430361Y5156160D01*
X-386521Y5291959D02*
X-428840D01*
X-450000Y5270799D01*
Y5186160D01*
X-428840Y5165000D01*
X-386521D01*
X-365361Y5186160D01*
Y5270799D01*
X-386521Y5291959D01*
X15892500Y1296959D02*
Y1170000D01*
X15955980D01*
X15977139Y1191160D01*
Y1275799D01*
X15955980Y1296959D01*
X15892500D01*
X15560001Y2416959D02*
Y2290000D01*
X15623480D01*
X15644640Y2311160D01*
Y2395799D01*
X15623480Y2416959D01*
X15560001D01*
X11230000Y996959D02*
Y870000D01*
X11293479D01*
X11314639Y891160D01*
Y975799D01*
X11293479Y996959D01*
X11230000D01*
X3630000Y1656959D02*
Y1530000D01*
X3693480D01*
X3714640Y1551160D01*
Y1635799D01*
X3693480Y1656959D01*
X3630000D01*
X11630000Y7656959D02*
Y7530000D01*
X11693480D01*
X11714640Y7551160D01*
Y7635799D01*
X11693480Y7656959D01*
X11630000D01*
X-1574020Y5539459D02*
X-1616340D01*
X-1637500Y5518299D01*
Y5433660D01*
X-1616340Y5412500D01*
X-1574020D01*
X-1552860Y5433660D01*
Y5518299D01*
X-1574020Y5539459D01*
Y5696959D02*
X-1616340D01*
X-1637500Y5675799D01*
Y5591160D01*
X-1616340Y5570000D01*
X-1574020D01*
X-1552860Y5591160D01*
Y5675799D01*
X-1574020Y5696959D01*
Y5799459D02*
X-1616340D01*
X-1637500Y5778299D01*
Y5693660D01*
X-1616340Y5672500D01*
X-1574020D01*
X-1552860Y5693660D01*
Y5778299D01*
X-1574020Y5799459D01*
Y5479459D02*
X-1616340D01*
X-1637500Y5458299D01*
Y5373660D01*
X-1616340Y5352500D01*
X-1574020D01*
X-1552860Y5373660D01*
Y5458299D01*
X-1574020Y5479459D01*
X263624Y5419419D02*
X221304D01*
X200145Y5398259D01*
Y5313620D01*
X221304Y5292460D01*
X263624D01*
X284784Y5313620D01*
Y5398259D01*
X263624Y5419419D01*
X759430Y966069D02*
Y839110D01*
X822909D01*
X844069Y860270D01*
Y944909D01*
X822909Y966069D01*
X759430D01*
X9070000Y8146959D02*
Y8020000D01*
X9133479D01*
X9154639Y8041160D01*
Y8125799D01*
X9133479Y8146959D01*
X9070000D01*
X8660000D02*
Y8020000D01*
X8723479D01*
X8744639Y8041160D01*
Y8125799D01*
X8723479Y8146959D01*
X8660000D01*
X8250000D02*
Y8020000D01*
X8313479D01*
X8334639Y8041160D01*
Y8125799D01*
X8313479Y8146959D01*
X8250000D01*
X-1676521Y5799459D02*
X-1718840D01*
X-1740000Y5778299D01*
Y5693660D01*
X-1718840Y5672500D01*
X-1676521D01*
X-1655361Y5693660D01*
Y5778299D01*
X-1676521Y5799459D01*
Y5696959D02*
X-1718840D01*
X-1740000Y5675799D01*
Y5591160D01*
X-1718840Y5570000D01*
X-1676521D01*
X-1655361Y5591160D01*
Y5675799D01*
X-1676521Y5696959D01*
X-1679021Y5539459D02*
X-1721340D01*
X-1742500Y5518299D01*
Y5433660D01*
X-1721340Y5412500D01*
X-1679021D01*
X-1657861Y5433660D01*
Y5518299D01*
X-1679021Y5539459D01*
X5857500Y8274459D02*
Y8147500D01*
X5920980D01*
X5942139Y8168660D01*
Y8253299D01*
X5920980Y8274459D01*
X5857500D01*
X6422500Y8276959D02*
Y8150000D01*
X6485979D01*
X6507139Y8171160D01*
Y8255799D01*
X6485979Y8276959D01*
X6422500D01*
X6845000Y8281959D02*
Y8155000D01*
X6908479D01*
X6929639Y8176160D01*
Y8260799D01*
X6908479Y8281959D01*
X6845000D01*
X-1676521Y4586959D02*
X-1718840D01*
X-1740000Y4565799D01*
Y4481159D01*
X-1718840Y4460000D01*
X-1676521D01*
X-1655361Y4481159D01*
Y4565799D01*
X-1676521Y4586959D01*
Y4484459D02*
X-1718840D01*
X-1740000Y4463299D01*
Y4378660D01*
X-1718840Y4357500D01*
X-1676521D01*
X-1655361Y4378660D01*
Y4463299D01*
X-1676521Y4484459D01*
X-1679021Y5479459D02*
X-1721340D01*
X-1742500Y5458299D01*
Y5373660D01*
X-1721340Y5352500D01*
X-1679021D01*
X-1657861Y5373660D01*
Y5458299D01*
X-1679021Y5479459D01*
X11935000Y196959D02*
Y70000D01*
X11998479D01*
X12019639Y91160D01*
Y175799D01*
X11998479Y196959D01*
X11935000D01*
X4422140Y7852369D02*
Y7725410D01*
X4485619D01*
X4506779Y7746570D01*
Y7831209D01*
X4485619Y7852369D01*
X4422140D01*
X2247900Y8491179D02*
Y8364220D01*
X2311379D01*
X2332539Y8385380D01*
Y8470019D01*
X2311379Y8491179D01*
X2247900D01*
X10361900Y9231229D02*
Y9104270D01*
X10425379D01*
X10446539Y9125430D01*
Y9210069D01*
X10425379Y9231229D01*
X10361900D01*
X10236170Y7972659D02*
Y7845700D01*
X10299649D01*
X10320809Y7866860D01*
Y7951499D01*
X10299649Y7972659D01*
X10236170D01*
X3910300Y9605879D02*
Y9478920D01*
X3973779D01*
X3994939Y9500080D01*
Y9584719D01*
X3973779Y9605879D01*
X3910300D01*
X7873970Y9675729D02*
Y9548770D01*
X7937449D01*
X7958609Y9569930D01*
Y9654569D01*
X7937449Y9675729D01*
X7873970D01*
X6248370Y9618579D02*
Y9491620D01*
X6311849D01*
X6333009Y9512780D01*
Y9597419D01*
X6311849Y9618579D01*
X6248370D01*
X12125960Y5803859D02*
Y5676900D01*
X12189439D01*
X12210599Y5698060D01*
Y5782699D01*
X12189439Y5803859D01*
X12125960D01*
X15861000Y5167229D02*
Y5040270D01*
X15924480D01*
X15945639Y5061430D01*
Y5146069D01*
X15924480Y5167229D01*
X15861000D01*
X14676089Y6061309D02*
Y5934350D01*
X14739569D01*
X14760728Y5955510D01*
Y6040149D01*
X14739569Y6061309D01*
X14676089D01*
X14147771Y3442569D02*
Y3315610D01*
X14211249D01*
X14232410Y3336770D01*
Y3421409D01*
X14211249Y3442569D01*
X14147771D01*
X14030960Y6758899D02*
Y6631940D01*
X14094440D01*
X14115599Y6653100D01*
Y6737739D01*
X14094440Y6758899D01*
X14030960D01*
X14594839Y6441399D02*
Y6314440D01*
X14658319D01*
X14679478Y6335600D01*
Y6420239D01*
X14658319Y6441399D01*
X14594839D01*
X13455742Y5994592D02*
Y5867633D01*
X13519221D01*
X13540382Y5888793D01*
Y5973432D01*
X13519221Y5994592D01*
X13455742D01*
X13461971Y6240379D02*
Y6113420D01*
X13525449D01*
X13546609Y6134580D01*
Y6219219D01*
X13525449Y6240379D01*
X13461971D01*
X2523490Y8275279D02*
Y8148320D01*
X2586969D01*
X2608129Y8169480D01*
Y8254119D01*
X2586969Y8275279D01*
X2523490D01*
X1112520Y8251149D02*
Y8124190D01*
X1175999D01*
X1197159Y8145350D01*
Y8229989D01*
X1175999Y8251149D01*
X1112520D01*
X15715009Y4504231D02*
Y4377272D01*
X15778488D01*
X15799648Y4398432D01*
Y4483071D01*
X15778488Y4504231D01*
X15715009D01*
X11801381Y6853407D02*
Y6726448D01*
X11864860D01*
X11886020Y6747608D01*
Y6832247D01*
X11864860Y6853407D01*
X11801381D01*
X15506670Y7730089D02*
Y7603130D01*
X15570149D01*
X15591309Y7624290D01*
Y7708929D01*
X15570149Y7730089D01*
X15506670D01*
X16022290Y6075279D02*
Y5948320D01*
X16085770D01*
X16106929Y5969480D01*
Y6054119D01*
X16085770Y6075279D01*
X16022290D01*
X11635710Y5736189D02*
Y5609230D01*
X11699189D01*
X11720349Y5630390D01*
Y5715029D01*
X11699189Y5736189D01*
X11635710D01*
X14034740Y3157529D02*
Y3030570D01*
X14098219D01*
X14119379Y3051730D01*
Y3136369D01*
X14098219Y3157529D01*
X14034740D01*
X13481020Y3264769D02*
Y3137810D01*
X13544499D01*
X13565659Y3158970D01*
Y3243609D01*
X13544499Y3264769D01*
X13481020D01*
X6355000Y-173041D02*
Y-300000D01*
X6418479D01*
X6439639Y-278840D01*
Y-194201D01*
X6418479Y-173041D01*
X6355000D01*
X6503640Y-842411D02*
Y-969370D01*
X6567119D01*
X6588279Y-948210D01*
Y-863571D01*
X6567119Y-842411D01*
X6503640D01*
X6052790Y-956711D02*
Y-1083670D01*
X6116269D01*
X6137429Y-1062510D01*
Y-977871D01*
X6116269Y-956711D01*
X6052790D01*
X15060899Y6204819D02*
Y6077860D01*
X15124379D01*
X15145538Y6099020D01*
Y6183659D01*
X15124379Y6204819D01*
X15060899D01*
X13786639Y662539D02*
X13702000D01*
Y599060D01*
X13744321D01*
X13702000D01*
Y535580D01*
X15462219Y324719D02*
Y197760D01*
X15525699D01*
X15546860Y218920D01*
Y303559D01*
X15525699Y324719D01*
X15462219D01*
X8653750Y3118719D02*
Y2991760D01*
X8717229D01*
X8738389Y3012920D01*
Y3097559D01*
X8717229Y3118719D01*
X8653750D01*
X1229330Y-1763161D02*
Y-1890120D01*
X1292809D01*
X1313969Y-1868960D01*
Y-1784321D01*
X1292809Y-1763161D01*
X1229330D01*
X-1836450Y1451209D02*
Y1324250D01*
X-1772971D01*
X-1751811Y1345410D01*
Y1430049D01*
X-1772971Y1451209D01*
X-1836450D01*
X3902680Y-879241D02*
Y-1006200D01*
X3966159D01*
X3987319Y-985040D01*
Y-900401D01*
X3966159Y-879241D01*
X3902680D01*
X5623530Y2615799D02*
Y2488840D01*
X5687009D01*
X5708169Y2510000D01*
Y2594639D01*
X5687009Y2615799D01*
X5623530D01*
X8296880Y27539D02*
Y-99420D01*
X8360359D01*
X8381519Y-78260D01*
Y6379D01*
X8360359Y27539D01*
X8296880D01*
X8414990Y1904599D02*
Y1777640D01*
X8478469D01*
X8499629Y1798800D01*
Y1883439D01*
X8478469Y1904599D01*
X8414990D01*
X13661360Y-1231031D02*
Y-1357990D01*
X13724838D01*
X13745999Y-1336830D01*
Y-1252191D01*
X13724838Y-1231031D01*
X13661360D01*
X16007050Y4367129D02*
Y4240170D01*
X16070529D01*
X16091689Y4261330D01*
Y4345969D01*
X16070529Y4367129D01*
X16007050D01*
X16374080Y3373989D02*
Y3247030D01*
X16437560D01*
X16458719Y3268190D01*
Y3352829D01*
X16437560Y3373989D01*
X16374080D01*
X13089861Y8909919D02*
Y8782960D01*
X13153339D01*
X13174500Y8804120D01*
Y8888759D01*
X13153339Y8909919D01*
X13089861D01*
X1048990Y9762089D02*
Y9635130D01*
X1112469D01*
X1133629Y9656290D01*
Y9740929D01*
X1112469Y9762089D01*
X1048990D01*
X2604740Y5439009D02*
Y5312050D01*
X2668219D01*
X2689379Y5333210D01*
Y5417849D01*
X2668219Y5439009D01*
X2604740D01*
X1705580Y4304899D02*
Y4177940D01*
X1769059D01*
X1790219Y4199100D01*
Y4283739D01*
X1769059Y4304899D01*
X1705580D01*
X236190Y7150969D02*
Y7024010D01*
X299669D01*
X320829Y7045170D01*
Y7129809D01*
X299669Y7150969D01*
X236190D01*
X-1750090Y8010759D02*
Y7883800D01*
X-1686611D01*
X-1665451Y7904960D01*
Y7989599D01*
X-1686611Y8010759D01*
X-1750090D01*
X16065469Y5656179D02*
Y5529220D01*
X16128949D01*
X16150108Y5550380D01*
Y5635019D01*
X16128949Y5656179D01*
X16065469D01*
X15699710Y5789529D02*
Y5662570D01*
X15763190D01*
X15784349Y5683730D01*
Y5768369D01*
X15763190Y5789529D01*
X15699710D01*
X14827220Y5245969D02*
Y5119010D01*
X14890698D01*
X14911859Y5140170D01*
Y5224809D01*
X14890698Y5245969D01*
X14827220D01*
X14415050Y3587929D02*
Y3460970D01*
X14478529D01*
X14499689Y3482129D01*
Y3566769D01*
X14478529Y3587929D01*
X14415050D01*
X13597861Y3686409D02*
Y3559450D01*
X13661339D01*
X13682500Y3580610D01*
Y3665249D01*
X13661339Y3686409D01*
X13597861D01*
X15514290Y3267309D02*
Y3140350D01*
X15577769D01*
X15598929Y3161510D01*
Y3246149D01*
X15577769Y3267309D01*
X15514290D01*
X15027879Y3180949D02*
Y3053990D01*
X15091359D01*
X15112518Y3075150D01*
Y3159789D01*
X15091359Y3180949D01*
X15027879D01*
X12442949Y76959D02*
Y-50000D01*
X12506429D01*
X12527589Y-28840D01*
Y55799D01*
X12506429Y76959D01*
X12442949D01*
X7783479Y-593041D02*
X7741160D01*
X7720000Y-614201D01*
Y-698840D01*
X7741160Y-720000D01*
X7783479D01*
X7804639Y-698840D01*
Y-614201D01*
X7783479Y-593041D01*
X9404213Y-1159911D02*
Y-1286870D01*
X9467692D01*
X9488852Y-1265710D01*
Y-1181071D01*
X9467692Y-1159911D01*
X9404213D01*
X6685000Y-510541D02*
Y-637500D01*
X6748480D01*
X6769639Y-616340D01*
Y-531701D01*
X6748480Y-510541D01*
X6685000D01*
X7058630Y-1119271D02*
Y-1246230D01*
X7122109D01*
X7143269Y-1225070D01*
Y-1140431D01*
X7122109Y-1119271D01*
X7058630D01*
X7465030Y-322981D02*
Y-449940D01*
X7528509D01*
X7549669Y-428780D01*
Y-344141D01*
X7528509Y-322981D01*
X7465030D01*
X8047960Y-253131D02*
Y-380090D01*
X8111439D01*
X8132599Y-358930D01*
Y-274291D01*
X8111439Y-253131D01*
X8047960D01*
X13324638Y2936959D02*
X13239999D01*
Y2810000D01*
X13324638D01*
X13239999Y2873479D02*
X13282320D01*
X12580000Y2016959D02*
Y1890000D01*
X12643479D01*
X12664639Y1911160D01*
Y1995799D01*
X12643479Y2016959D01*
X12580000D01*
X14970760Y2265529D02*
Y2138570D01*
X15034239D01*
X15055399Y2159730D01*
Y2244369D01*
X15034239Y2265529D01*
X14970760D01*
X14720540Y3263499D02*
Y3136540D01*
X14784019D01*
X14805179Y3157700D01*
Y3242339D01*
X14784019Y3263499D01*
X14720540D01*
X14552901Y3262229D02*
Y3135270D01*
X14616379D01*
X14637540Y3156430D01*
Y3241069D01*
X14616379Y3262229D01*
X14552901D01*
X14385260D02*
Y3135270D01*
X14448740D01*
X14469899Y3156430D01*
Y3241069D01*
X14448740Y3262229D01*
X14385260D01*
X14550366Y3092036D02*
Y2965077D01*
X14613846D01*
X14635007Y2986237D01*
Y3070876D01*
X14613846Y3092036D01*
X14550366D01*
X14712920Y3085699D02*
Y2958740D01*
X14776399D01*
X14797559Y2979900D01*
Y3064539D01*
X14776399Y3085699D01*
X14712920D01*
X14710381Y2929489D02*
Y2802530D01*
X14773859D01*
X14795020Y2823690D01*
Y2908329D01*
X14773859Y2929489D01*
X14710381D01*
X14544009Y2928219D02*
Y2801260D01*
X14607489D01*
X14628648Y2822420D01*
Y2907059D01*
X14607489Y2928219D01*
X14544009D01*
X14378909Y2929489D02*
Y2802530D01*
X14442389D01*
X14463548Y2823690D01*
Y2908329D01*
X14442389Y2929489D01*
X14378909D01*
X14380180Y3090779D02*
Y2963820D01*
X14443658D01*
X14464819Y2984980D01*
Y3069619D01*
X14443658Y3090779D01*
X14380180D01*
X14095700Y2276709D02*
Y2149750D01*
X14159180D01*
X14180339Y2170910D01*
Y2255549D01*
X14159180Y2276709D01*
X14095700D01*
X15546040Y3043789D02*
Y2916830D01*
X15609518D01*
X15630679Y2937990D01*
Y3022629D01*
X15609518Y3043789D01*
X15546040D01*
X13679959Y1073149D02*
X13595320D01*
Y1009670D01*
X13637640D01*
X13595320D01*
Y946190D01*
X11449310Y1002519D02*
Y875560D01*
X11512790D01*
X11533949Y896720D01*
Y981359D01*
X11512790Y1002519D01*
X11449310D01*
X11231690Y1145179D02*
Y1018220D01*
X11295169D01*
X11316329Y1039380D01*
Y1124019D01*
X11295169Y1145179D01*
X11231690D01*
X11229150Y1295039D02*
Y1168080D01*
X11292629D01*
X11313789Y1189240D01*
Y1273879D01*
X11292629Y1295039D01*
X11229150D01*
X6166890Y8120659D02*
Y7993700D01*
X6230369D01*
X6251529Y8014860D01*
Y8099499D01*
X6230369Y8120659D01*
X6166890D01*
X3221990Y9118559D02*
Y8991600D01*
X3285469D01*
X3306629Y9012760D01*
Y9097399D01*
X3285469Y9118559D01*
X3221990D01*
X15685741Y5514120D02*
Y5387161D01*
X15749219D01*
X15770380Y5408321D01*
Y5492960D01*
X15749219Y5514120D01*
X15685741D01*
X1968500Y7871419D02*
X2010820D01*
X1989660D01*
Y7744460D01*
X1968500D01*
X2010820D01*
X5760338Y-164006D02*
Y-290965D01*
X5823818D01*
X5844978Y-269805D01*
Y-185166D01*
X5823818Y-164006D01*
X5760338D01*
X13765500Y3687679D02*
Y3560720D01*
X13828979D01*
X13850139Y3581880D01*
Y3666519D01*
X13828979Y3687679D01*
X13765500D01*
X13882339Y3280009D02*
Y3153050D01*
X13945819D01*
X13966978Y3174210D01*
Y3258849D01*
X13945819Y3280009D01*
X13882339D01*
X14265880Y3592696D02*
Y3465737D01*
X14329359D01*
X14350519Y3486897D01*
Y3571536D01*
X14329359Y3592696D01*
X14265880D01*
X2757531Y-357747D02*
Y-484706D01*
X2821010D01*
X2842170Y-463546D01*
Y-378907D01*
X2821010Y-357747D01*
X2757531D01*
X15180280Y3333349D02*
Y3206390D01*
X15243759D01*
X15264919Y3227550D01*
Y3312189D01*
X15243759Y3333349D01*
X15180280D01*
X3094960Y3107289D02*
Y2980330D01*
X3158439D01*
X3179599Y3001490D01*
Y3086129D01*
X3158439Y3107289D01*
X3094960D01*
X763240Y-669691D02*
Y-796650D01*
X826719D01*
X847879Y-775490D01*
Y-690851D01*
X826719Y-669691D01*
X763240D01*
X1177260Y-921151D02*
Y-1048110D01*
X1240739D01*
X1261899Y-1026950D01*
Y-942311D01*
X1240739Y-921151D01*
X1177260D01*
X1163290Y-1167531D02*
Y-1294490D01*
X1226769D01*
X1247929Y-1273330D01*
Y-1188691D01*
X1226769Y-1167531D01*
X1163290D01*
X1154400Y-1429151D02*
Y-1556110D01*
X1217879D01*
X1239039Y-1534950D01*
Y-1450311D01*
X1217879Y-1429151D01*
X1154400D01*
X3690590Y3122529D02*
Y2995570D01*
X3754069D01*
X3775229Y3016730D01*
Y3101369D01*
X3754069Y3122529D01*
X3690590D01*
X4789140Y3117449D02*
Y2990490D01*
X4852619D01*
X4873779Y3011650D01*
Y3096289D01*
X4852619Y3117449D01*
X4789140D01*
X9394160Y3202539D02*
Y3075580D01*
X9457639D01*
X9478799Y3096740D01*
Y3181379D01*
X9457639Y3202539D01*
X9394160D01*
X10557480Y3111099D02*
Y2984140D01*
X10620959D01*
X10642119Y3005300D01*
Y3089939D01*
X10620959Y3111099D01*
X10557480D01*
X11156920Y3117449D02*
Y2990490D01*
X11220399D01*
X11241559Y3011650D01*
Y3096289D01*
X11220399Y3117449D01*
X11156920D01*
X14971910Y3504799D02*
Y3377840D01*
X15035390D01*
X15056549Y3399000D01*
Y3483639D01*
X15035390Y3504799D01*
X14971910D01*
X15843221Y5647289D02*
Y5520330D01*
X15906699D01*
X15927859Y5541490D01*
Y5626129D01*
X15906699Y5647289D01*
X15843221D01*
X16106110Y3577189D02*
Y3450230D01*
X16169589D01*
X16190749Y3471390D01*
Y3556029D01*
X16169589Y3577189D01*
X16106110D01*
X-1394021Y3351959D02*
X-1436340D01*
X-1457500Y3330799D01*
Y3246160D01*
X-1436340Y3225000D01*
X-1394021D01*
X-1372861Y3246160D01*
Y3330799D01*
X-1394021Y3351959D01*
X6205000Y8269459D02*
Y8142500D01*
X6268479D01*
X6289639Y8163660D01*
Y8248299D01*
X6268479Y8269459D01*
X6205000D01*
X-550000Y4814996D02*
Y4941955D01*
X-486520D01*
X-465361Y4920796D01*
Y4878476D01*
X-486520Y4857316D01*
X-550000D01*
X8390000Y8146959D02*
Y8020000D01*
X8453479D01*
X8474639Y8041160D01*
Y8125799D01*
X8453479Y8146959D01*
X8390000D01*
X7980000D02*
Y8020000D01*
X8043479D01*
X8064639Y8041160D01*
Y8125799D01*
X8043479Y8146959D01*
X7980000D01*
X8800000D02*
Y8020000D01*
X8863479D01*
X8884639Y8041160D01*
Y8125799D01*
X8863479Y8146959D01*
X8800000D01*
X7356360Y7967929D02*
Y7840970D01*
X7419839D01*
X7440999Y7862130D01*
Y7946769D01*
X7419839Y7967929D01*
X7356360D01*
X-1982361Y2123160D02*
Y2207799D01*
X-2003521Y2228959D01*
X-2045840D01*
X-2067000Y2207799D01*
Y2123160D01*
X-2045840Y2102000D01*
X-2003521D01*
X-2024680Y2144320D02*
X-1982361Y2102000D01*
X-2003521D02*
X-1982361Y2123160D01*
X12989560Y4231599D02*
Y4104640D01*
X13053040D01*
X13074199Y4125800D01*
Y4210439D01*
X13053040Y4231599D01*
X12989560D01*
X-1320361Y4403660D02*
Y4488299D01*
X-1341521Y4509459D01*
X-1383840D01*
X-1405000Y4488299D01*
Y4403660D01*
X-1383840Y4382500D01*
X-1341521D01*
X-1362680Y4424820D02*
X-1320361Y4382500D01*
X-1341521D02*
X-1320361Y4403660D01*
X-1281521Y6989459D02*
X-1323840D01*
X-1345000Y6968299D01*
Y6883660D01*
X-1323840Y6862500D01*
X-1281521D01*
X-1260361Y6883660D01*
Y6968299D01*
X-1281521Y6989459D01*
X-1216517D02*
X-1258837D01*
X-1279996Y6968299D01*
Y6883660D01*
X-1258837Y6862500D01*
X-1216517D01*
X-1195357Y6883660D01*
Y6968299D01*
X-1216517Y6989459D01*
X-929020Y7761959D02*
X-971340D01*
X-992500Y7740799D01*
Y7656160D01*
X-971340Y7635000D01*
X-929020D01*
X-907861Y7656160D01*
Y7740799D01*
X-929020Y7761959D01*
X6527500Y-583041D02*
Y-710000D01*
X6590979D01*
X6612139Y-688840D01*
Y-604201D01*
X6590979Y-583041D01*
X6527500D01*
Y-450541D02*
Y-577500D01*
X6590979D01*
X6612139Y-556340D01*
Y-471701D01*
X6590979Y-450541D01*
X6527500D01*
X-1156868Y4251160D02*
Y4335799D01*
X-1178028Y4356959D01*
X-1220348D01*
X-1241508Y4335799D01*
Y4251160D01*
X-1220348Y4230000D01*
X-1178028D01*
X-1199188Y4272320D02*
X-1156868Y4230000D01*
X-1178028D02*
X-1156868Y4251160D01*
X-1110360Y4188660D02*
Y4273299D01*
X-1131520Y4294459D01*
X-1173840D01*
X-1195000Y4273299D01*
Y4188660D01*
X-1173840Y4167500D01*
X-1131520D01*
X-1152680Y4209820D02*
X-1110360Y4167500D01*
X-1131520D02*
X-1110360Y4188660D01*
X1609060Y7420855D02*
Y7293896D01*
X1672539D01*
X1693699Y7315056D01*
Y7399695D01*
X1672539Y7420855D01*
X1609060D01*
X874639Y5811160D02*
Y5895799D01*
X853479Y5916959D01*
X811160D01*
X790000Y5895799D01*
Y5811160D01*
X811160Y5790000D01*
X853479D01*
X832320Y5832320D02*
X874639Y5790000D01*
X853479D02*
X874639Y5811160D01*
X-1296521Y4401959D02*
X-1338840D01*
X-1360000Y4380799D01*
Y4296160D01*
X-1338840Y4275000D01*
X-1296521D01*
X-1275361Y4296160D01*
Y4380799D01*
X-1296521Y4401959D01*
X-1225361Y4453660D02*
Y4538299D01*
X-1246520Y4559459D01*
X-1288840D01*
X-1310000Y4538299D01*
Y4453660D01*
X-1288840Y4432500D01*
X-1246520D01*
X-1267680Y4474820D02*
X-1225361Y4432500D01*
X-1246520D02*
X-1225361Y4453660D01*
X-959021Y4039459D02*
X-1001340D01*
X-1022500Y4018299D01*
Y3933660D01*
X-1001340Y3912500D01*
X-959021D01*
X-937861Y3933660D01*
Y4018299D01*
X-959021Y4039459D01*
X-1045361Y4003660D02*
Y4088299D01*
X-1066521Y4109459D01*
X-1108840D01*
X-1130000Y4088299D01*
Y4003660D01*
X-1108840Y3982500D01*
X-1066521D01*
X-1087680Y4024820D02*
X-1045361Y3982500D01*
X-1066521D02*
X-1045361Y4003660D01*
X-1536521Y4859459D02*
X-1578840D01*
X-1600000Y4838299D01*
Y4753660D01*
X-1578840Y4732500D01*
X-1536521D01*
X-1515361Y4753660D01*
Y4838299D01*
X-1536521Y4859459D01*
X-115361Y5761160D02*
Y5845799D01*
X-136521Y5866959D01*
X-178840D01*
X-200000Y5845799D01*
Y5761160D01*
X-178840Y5740000D01*
X-136521D01*
X-157680Y5782320D02*
X-115361Y5740000D01*
X-136521D02*
X-115361Y5761160D01*
X-185361Y5871160D02*
Y5955799D01*
X-206521Y5976959D01*
X-248840D01*
X-270000Y5955799D01*
Y5871160D01*
X-248840Y5850000D01*
X-206521D01*
X-227680Y5892320D02*
X-185361Y5850000D01*
X-206521D02*
X-185361Y5871160D01*
X-65361D02*
Y5955799D01*
X-86521Y5976959D01*
X-128840D01*
X-150000Y5955799D01*
Y5871160D01*
X-128840Y5850000D01*
X-86521D01*
X-107680Y5892320D02*
X-65361Y5850000D01*
X-86521D02*
X-65361Y5871160D01*
X244639Y5951160D02*
Y6035799D01*
X223479Y6056959D01*
X181160D01*
X160000Y6035799D01*
Y5951160D01*
X181160Y5930000D01*
X223479D01*
X202320Y5972320D02*
X244639Y5930000D01*
X223479D02*
X244639Y5951160D01*
X2534639Y6911160D02*
Y6995799D01*
X2513479Y7016959D01*
X2471160D01*
X2450000Y6995799D01*
Y6911160D01*
X2471160Y6890000D01*
X2513479D01*
X2492320Y6932320D02*
X2534639Y6890000D01*
X2513479D02*
X2534639Y6911160D01*
X664640Y5711160D02*
Y5795799D01*
X643480Y5816959D01*
X601160D01*
X580000Y5795799D01*
Y5711160D01*
X601160Y5690000D01*
X643480D01*
X622320Y5732320D02*
X664640Y5690000D01*
X643480D02*
X664640Y5711160D01*
X814639D02*
Y5795799D01*
X793479Y5816959D01*
X751160D01*
X730000Y5795799D01*
Y5711160D01*
X751160Y5690000D01*
X793479D01*
X772320Y5732320D02*
X814639Y5690000D01*
X793479D02*
X814639Y5711160D01*
X-45361Y6191160D02*
Y6275799D01*
X-66521Y6296959D01*
X-108840D01*
X-130000Y6275799D01*
Y6191160D01*
X-108840Y6170000D01*
X-66521D01*
X-87680Y6212320D02*
X-45361Y6170000D01*
X-66521D02*
X-45361Y6191160D01*
X434639Y6121160D02*
Y6205799D01*
X413479Y6226959D01*
X371160D01*
X350000Y6205799D01*
Y6121160D01*
X371160Y6100000D01*
X413479D01*
X392320Y6142320D02*
X434639Y6100000D01*
X413479D02*
X434639Y6121160D01*
X104639Y5643300D02*
Y5727939D01*
X83479Y5749099D01*
X41160D01*
X20000Y5727939D01*
Y5643300D01*
X41160Y5622140D01*
X83479D01*
X62320Y5664460D02*
X104639Y5622140D01*
X83479D02*
X104639Y5643300D01*
X774639Y5571160D02*
Y5655799D01*
X753479Y5676959D01*
X711160D01*
X690000Y5655799D01*
Y5571160D01*
X711160Y5550000D01*
X753479D01*
X732320Y5592320D02*
X774639Y5550000D01*
X753479D02*
X774639Y5571160D01*
X683479Y5626959D02*
X641160D01*
X620000Y5605799D01*
Y5521160D01*
X641160Y5500000D01*
X683479D01*
X704639Y5521160D01*
Y5605799D01*
X683479Y5626959D01*
X553479Y5576959D02*
X511160D01*
X490000Y5555799D01*
Y5471160D01*
X511160Y5450000D01*
X553479D01*
X574639Y5471160D01*
Y5555799D01*
X553479Y5576959D01*
X603479Y5526959D02*
X561160D01*
X540000Y5505799D01*
Y5421160D01*
X561160Y5400000D01*
X603479D01*
X624639Y5421160D01*
Y5505799D01*
X603479Y5526959D01*
X1468069Y6027019D02*
X1425750D01*
X1404590Y6005859D01*
Y5921220D01*
X1425750Y5900060D01*
X1468069D01*
X1489229Y5921220D01*
Y6005859D01*
X1468069Y6027019D01*
X1592529Y5964379D02*
X1550210D01*
X1529050Y5943220D01*
Y5858580D01*
X1550210Y5837421D01*
X1592529D01*
X1613689Y5858580D01*
Y5943220D01*
X1592529Y5964379D01*
X380000Y4326959D02*
Y4200000D01*
X443479D01*
X464639Y4221160D01*
Y4305799D01*
X443479Y4326959D01*
X380000D01*
X300000Y4406959D02*
Y4280000D01*
X363479D01*
X384639Y4301160D01*
Y4385799D01*
X363479Y4406959D01*
X300000D01*
X634639Y3401160D02*
Y3485799D01*
X613479Y3506959D01*
X571160D01*
X550000Y3485799D01*
Y3401160D01*
X571160Y3380000D01*
X613479D01*
X592320Y3422320D02*
X634639Y3380000D01*
X613479D02*
X634639Y3401160D01*
X-635361Y3531160D02*
Y3615799D01*
X-656521Y3636959D01*
X-698840D01*
X-720000Y3615799D01*
Y3531160D01*
X-698840Y3510000D01*
X-656521D01*
X-677680Y3552320D02*
X-635361Y3510000D01*
X-656521D02*
X-635361Y3531160D01*
X744639Y3341160D02*
Y3425799D01*
X723479Y3446959D01*
X681160D01*
X660000Y3425799D01*
Y3341160D01*
X681160Y3320000D01*
X723479D01*
X702320Y3362320D02*
X744639Y3320000D01*
X723479D02*
X744639Y3341160D01*
X-785361Y3351160D02*
Y3435799D01*
X-806521Y3456959D01*
X-848840D01*
X-870000Y3435799D01*
Y3351160D01*
X-848840Y3330000D01*
X-806521D01*
X-827680Y3372320D02*
X-785361Y3330000D01*
X-806521D02*
X-785361Y3351160D01*
X-715361Y3449011D02*
Y3533651D01*
X-736520Y3554811D01*
X-778840D01*
X-800000Y3533651D01*
Y3449011D01*
X-778840Y3427852D01*
X-736520D01*
X-757680Y3470171D02*
X-715361Y3427852D01*
X-736520D02*
X-715361Y3449011D01*
X-731626Y3774895D02*
Y3859534D01*
X-752786Y3880694D01*
X-795105D01*
X-816265Y3859534D01*
Y3774895D01*
X-795105Y3753735D01*
X-752786D01*
X-773945Y3796055D02*
X-731626Y3753735D01*
X-752786D02*
X-731626Y3774895D01*
X5532500Y-118041D02*
Y-245000D01*
X5595979D01*
X5617139Y-223840D01*
Y-139201D01*
X5595979Y-118041D01*
X5532500D01*
X5533021Y215949D02*
Y88990D01*
X5596500D01*
X5617660Y110149D01*
Y194789D01*
X5596500Y215949D01*
X5533021D01*
X5104559Y405949D02*
Y278990D01*
X5168039D01*
X5189199Y300150D01*
Y384789D01*
X5168039Y405949D01*
X5104559D01*
X4940548Y576179D02*
Y449220D01*
X5004028D01*
X5025188Y470380D01*
Y555019D01*
X5004028Y576179D01*
X4940548D01*
X-1174021Y5341959D02*
X-1216340D01*
X-1237500Y5320799D01*
Y5236160D01*
X-1216340Y5215000D01*
X-1174021D01*
X-1152861Y5236160D01*
Y5320799D01*
X-1174021Y5341959D01*
Y5261959D02*
X-1216340D01*
X-1237500Y5240799D01*
Y5156160D01*
X-1216340Y5135000D01*
X-1174021D01*
X-1152861Y5156160D01*
Y5240799D01*
X-1174021Y5261959D01*
Y5105459D02*
X-1216340D01*
X-1237500Y5084299D01*
Y4999660D01*
X-1216340Y4978500D01*
X-1174021D01*
X-1152861Y4999660D01*
Y5084299D01*
X-1174021Y5105459D01*
Y5021959D02*
X-1216340D01*
X-1237500Y5000799D01*
Y4916160D01*
X-1216340Y4895000D01*
X-1174021D01*
X-1152861Y4916160D01*
Y5000799D01*
X-1174021Y5021959D01*
X4833620Y7870149D02*
Y7743190D01*
X4897099D01*
X4918259Y7764350D01*
Y7848989D01*
X4897099Y7870149D01*
X4833620D01*
X-1174021Y5181959D02*
X-1216340D01*
X-1237500Y5160799D01*
Y5076160D01*
X-1216340Y5055000D01*
X-1174021D01*
X-1152861Y5076160D01*
Y5160799D01*
X-1174021Y5181959D01*
X4940300Y-193081D02*
Y-320040D01*
X5003779D01*
X5024939Y-298880D01*
Y-214241D01*
X5003779Y-193081D01*
X4940300D01*
X15320010Y7557729D02*
Y7430770D01*
X15383488D01*
X15404649Y7451930D01*
Y7536569D01*
X15383488Y7557729D01*
X15320010D01*
X13521384Y4927095D02*
Y4800136D01*
X13584863D01*
X13606024Y4821296D01*
Y4905935D01*
X13584863Y4927095D01*
X13521384D01*
X1410970Y7990799D02*
Y7863840D01*
X1474449D01*
X1495609Y7885000D01*
Y7969639D01*
X1474449Y7990799D01*
X1410970D01*
X391840Y-1151021D02*
Y-1277980D01*
X455320D01*
X476480Y-1256820D01*
Y-1172181D01*
X455320Y-1151021D01*
X391840D01*
X1752489Y7947619D02*
Y7820660D01*
X1815968D01*
X1837128Y7841820D01*
Y7926459D01*
X1815968Y7947619D01*
X1752489D01*
X11882800Y5962189D02*
Y5835230D01*
X11946279D01*
X11967439Y5856390D01*
Y5941030D01*
X11946279Y5962189D01*
X11882800D01*
X11619200Y5591409D02*
Y5464450D01*
X11682679D01*
X11703839Y5485610D01*
Y5570249D01*
X11682679Y5591409D01*
X11619200D01*
X2021810Y4971649D02*
Y4844690D01*
X2085289D01*
X2106449Y4865850D01*
Y4950489D01*
X2085289Y4971649D01*
X2021810D01*
X5099050Y-111801D02*
Y-238760D01*
X5162529D01*
X5183689Y-217600D01*
Y-132961D01*
X5162529Y-111801D01*
X5099050D01*
X11756390Y6048969D02*
Y5922010D01*
X11819869D01*
X11841029Y5943170D01*
Y6027809D01*
X11819869Y6048969D01*
X11756390D01*
X11498490Y5861859D02*
Y5734900D01*
X11561970D01*
X11583129Y5756060D01*
Y5840699D01*
X11561970Y5861859D01*
X11498490D01*
X1569720Y8889487D02*
Y8762528D01*
X1633199D01*
X1654359Y8783688D01*
Y8868327D01*
X1633199Y8889487D01*
X1569720D01*
X961360Y-521101D02*
Y-648060D01*
X1024839D01*
X1045999Y-626900D01*
Y-542261D01*
X1024839Y-521101D01*
X961360D01*
X4634230Y7839669D02*
Y7712710D01*
X4697709D01*
X4718869Y7733870D01*
Y7818509D01*
X4697709Y7839669D01*
X4634230D01*
X11932589Y-233041D02*
X11847949D01*
Y-360000D01*
X11932589D01*
X11847949Y-296521D02*
X11890269D01*
X12872589Y-233041D02*
X12787949D01*
Y-360000D01*
X12872589D01*
X12787949Y-296521D02*
X12830269D01*
X12221814Y6638714D02*
Y6511755D01*
X12285293D01*
X12306453Y6532915D01*
Y6617554D01*
X12285293Y6638714D01*
X12221814D01*
X2421890Y9152849D02*
Y9025890D01*
X2485369D01*
X2506529Y9047050D01*
Y9131689D01*
X2485369Y9152849D01*
X2421890D01*
X13608020Y5630779D02*
Y5503820D01*
X13671500D01*
X13692659Y5524980D01*
Y5609619D01*
X13671500Y5630779D01*
X13608020D01*
X14843730Y6310229D02*
Y6183270D01*
X14907208D01*
X14928369Y6204430D01*
Y6289069D01*
X14907208Y6310229D01*
X14843730D01*
X14963139Y5815289D02*
Y5688330D01*
X15026619D01*
X15047778Y5709490D01*
Y5794129D01*
X15026619Y5815289D01*
X14963139D01*
X11186130Y4451109D02*
Y4324150D01*
X11249609D01*
X11270769Y4345310D01*
Y4429949D01*
X11249609Y4451109D01*
X11186130D01*
X13016260Y4443329D02*
Y4316370D01*
X13079739D01*
X13100900Y4337530D01*
Y4422169D01*
X13079739Y4443329D01*
X13016260D01*
X15108005Y4451065D02*
Y4324106D01*
X15171484D01*
X15192644Y4345265D01*
Y4429905D01*
X15171484Y4451065D01*
X15108005D01*
X15159959Y5406149D02*
Y5279190D01*
X15223439D01*
X15244598Y5300350D01*
Y5384989D01*
X15223439Y5406149D01*
X15159959D01*
X15257750Y5360269D02*
Y5233310D01*
X15321230D01*
X15342389Y5254470D01*
Y5339109D01*
X15321230Y5360269D01*
X15257750D01*
X14096321Y4608961D02*
Y4482002D01*
X14159801D01*
X14180960Y4503162D01*
Y4587801D01*
X14159801Y4608961D01*
X14096321D01*
X14851028Y5421626D02*
Y5294668D01*
X14914508D01*
X14935667Y5315827D01*
Y5400467D01*
X14914508Y5421626D01*
X14851028D01*
X14659579Y6306419D02*
Y6179460D01*
X14723059D01*
X14744218Y6200620D01*
Y6285259D01*
X14723059Y6306419D01*
X14659579D01*
X14307820Y5695909D02*
Y5568950D01*
X14371300D01*
X14392459Y5590110D01*
Y5674749D01*
X14371300Y5695909D01*
X14307820D01*
X2018030Y8881069D02*
Y8754110D01*
X2081509D01*
X2102669Y8775270D01*
Y8859909D01*
X2081509Y8881069D01*
X2018030D01*
X3161326Y8416795D02*
Y8289837D01*
X3224806D01*
X3245966Y8310996D01*
Y8395636D01*
X3224806Y8416795D01*
X3161326D01*
X2715260Y8057041D02*
Y7930082D01*
X2778739D01*
X2799899Y7951242D01*
Y8035881D01*
X2778739Y8057041D01*
X2715260D01*
X13470000Y5066990D02*
Y4940032D01*
X13533478D01*
X13554639Y4961191D01*
Y5045831D01*
X13533478Y5066990D01*
X13470000D01*
X4564380Y-657901D02*
Y-784860D01*
X4627859D01*
X4649019Y-763700D01*
Y-679061D01*
X4627859Y-657901D01*
X4564380D01*
X13407359Y4125829D02*
Y3998870D01*
X13470839D01*
X13491998Y4020030D01*
Y4104669D01*
X13470839Y4125829D01*
X13407359D01*
X13775632Y4734130D02*
Y4607171D01*
X13839110D01*
X13860271Y4628331D01*
Y4712970D01*
X13839110Y4734130D01*
X13775632D01*
X15414969Y4214896D02*
Y4087937D01*
X15478448D01*
X15499608Y4109096D01*
Y4193736D01*
X15478448Y4214896D01*
X15414969D01*
X15438091Y4384909D02*
Y4257950D01*
X15501569D01*
X15522729Y4279110D01*
Y4363749D01*
X15501569Y4384909D01*
X15438091D01*
X14806900Y3953109D02*
Y3826150D01*
X14870380D01*
X14891539Y3847310D01*
Y3931949D01*
X14870380Y3953109D01*
X14806900D01*
X13250603Y4754991D02*
Y4628032D01*
X13314082D01*
X13335242Y4649192D01*
Y4733832D01*
X13314082Y4754991D01*
X13250603D01*
X14556709Y3968349D02*
Y3841390D01*
X14620189D01*
X14641348Y3862550D01*
Y3947189D01*
X14620189Y3968349D01*
X14556709D01*
X13966678Y5045827D02*
Y4918868D01*
X14030157D01*
X14051318Y4940028D01*
Y5024667D01*
X14030157Y5045827D01*
X13966678D01*
X13615640Y4741779D02*
Y4614820D01*
X13679118D01*
X13700279Y4635980D01*
Y4720619D01*
X13679118Y4741779D01*
X13615640D01*
X15311249Y4524406D02*
Y4397447D01*
X15374728D01*
X15395888Y4418607D01*
Y4503246D01*
X15374728Y4524406D01*
X15311249D01*
X13121609Y7418939D02*
Y7291980D01*
X13185089D01*
X13206248Y7313140D01*
Y7397779D01*
X13185089Y7418939D01*
X13121609D01*
X15469841Y5792882D02*
Y5665923D01*
X15533321D01*
X15554482Y5687083D01*
Y5771722D01*
X15533321Y5792882D01*
X15469841D01*
X14400500Y5151989D02*
Y5025030D01*
X14463979D01*
X14485139Y5046190D01*
Y5130829D01*
X14463979Y5151989D01*
X14400500D01*
X12852925Y5136749D02*
Y5009790D01*
X12916405D01*
X12937564Y5030950D01*
Y5115589D01*
X12916405Y5136749D01*
X12852925D01*
X14842461Y4791309D02*
Y4664350D01*
X14905939D01*
X14927100Y4685510D01*
Y4770149D01*
X14905939Y4791309D01*
X14842461D01*
X14643069Y4848459D02*
Y4721500D01*
X14706549D01*
X14727708Y4742660D01*
Y4827299D01*
X14706549Y4848459D01*
X14643069D01*
X8315930Y-999891D02*
Y-1126850D01*
X8379409D01*
X8400569Y-1105690D01*
Y-1021051D01*
X8379409Y-999891D01*
X8315930D01*
X6460460Y780649D02*
Y653690D01*
X6523939D01*
X6545099Y674850D01*
Y759489D01*
X6523939Y780649D01*
X6460460D01*
X9303990Y-1152291D02*
Y-1279250D01*
X9367469D01*
X9388629Y-1258090D01*
Y-1173451D01*
X9367469Y-1152291D01*
X9303990D01*
X9047450Y-1420261D02*
Y-1547220D01*
X9110929D01*
X9132089Y-1526060D01*
Y-1441421D01*
X9110929Y-1420261D01*
X9047450D01*
X12030680Y4058519D02*
Y3931560D01*
X12094159D01*
X12115319Y3952720D01*
Y4037359D01*
X12094159Y4058519D01*
X12030680D01*
X14250694Y4869995D02*
Y4743036D01*
X14314172D01*
X14335333Y4764196D01*
Y4848836D01*
X14314172Y4869995D01*
X14250694D01*
X14467810Y4858619D02*
Y4731660D01*
X14531290D01*
X14552449Y4752820D01*
Y4837459D01*
X14531290Y4858619D01*
X14467810D01*
X7242780Y3182219D02*
Y3055260D01*
X7306259D01*
X7327419Y3076420D01*
Y3161059D01*
X7306259Y3182219D01*
X7242780D01*
D285*
X7948900Y8800200D02*
G03*
X7948900Y8800200I-50800J0D01*
G01*
X7698900D02*
G03*
X7698900Y8800200I-50800J0D01*
G01*
X8198900D02*
G03*
X8198900Y8800200I-50800J0D01*
G01*
X7698900Y9300200D02*
G03*
X7698900Y9300200I-50800J0D01*
G01*
X8198900D02*
G03*
X8198900Y9300200I-50800J0D01*
G01*
X6450300Y8800200D02*
G03*
X6450300Y8800200I-50800J0D01*
G01*
X6200300D02*
G03*
X6200300Y8800200I-50800J0D01*
G01*
X6700300D02*
G03*
X6700300Y8800200I-50800J0D01*
G01*
X6200300Y9300200D02*
G03*
X6200300Y9300200I-50800J0D01*
G01*
X6700300D02*
G03*
X6700300Y9300200I-50800J0D01*
G01*
X15200089Y6783980D02*
G03*
X15200089Y6783980I-50800J0D01*
G01*
Y7033980D02*
G03*
X15200089Y7033980I-50800J0D01*
G01*
Y6533980D02*
G03*
X15200089Y6533980I-50800J0D01*
G01*
X9447500Y8800230D02*
G03*
X9447500Y8800230I-50800J0D01*
G01*
X9197500D02*
G03*
X9197500Y8800230I-50800J0D01*
G01*
X9697500D02*
G03*
X9697500Y8800230I-50800J0D01*
G01*
X4951700Y8800230D02*
G03*
X4951700Y8800230I-50800J0D01*
G01*
X4701700D02*
G03*
X4701700Y8800230I-50800J0D01*
G01*
X5201700D02*
G03*
X5201700Y8800230I-50800J0D01*
G01*
%TF.MD5,e05871a76d21dd8edc62a945bf57ac96*%
M02*
