%TF.GenerationSoftware,Altium Limited,Altium Designer,25.8.1 (18)*%
G04 Layer_Color=128*
%FSLAX45Y45*%
%MOMM*%
%TF.SameCoordinates,916E790F-4380-4A4C-B002-6B38F721AB2E*%
%TF.FilePolarity,Positive*%
%TF.FileFunction,Drillmap*%
%TF.Part,Single*%
G01*
G75*
%TA.AperFunction,NonConductor*%
%ADD158C,0.12700*%
D158*
X6839500Y8800200D02*
X6959500D01*
X6899500Y8740200D02*
Y8860200D01*
X5839500Y8800200D02*
X5959500D01*
X5899500Y8740200D02*
Y8860200D01*
X6349500Y8800200D02*
X6449500D01*
X6399500Y8750200D02*
Y8850200D01*
X6099500Y8800200D02*
X6199500D01*
X6149500Y8750200D02*
Y8850200D01*
X6599500Y8800200D02*
X6699500D01*
X6649500Y8750200D02*
Y8850200D01*
X6339500Y9300200D02*
X6459500D01*
X6399500Y9240200D02*
Y9360200D01*
X5699500Y9150200D02*
X5849500D01*
X5774500Y9075200D02*
Y9225200D01*
X5824500Y9925200D02*
X5974500D01*
X5899500Y9850200D02*
Y10000200D01*
X6099500Y9900200D02*
X6259500D01*
X6179500Y9820200D02*
Y9980200D01*
X6539500Y9900200D02*
X6699500D01*
X6619500Y9820200D02*
Y9980200D01*
X6949500Y9150200D02*
X7099500D01*
X7024500Y9075200D02*
Y9225200D01*
X6824500Y9925200D02*
X6974500D01*
X6899500Y9850200D02*
Y10000200D01*
X5824500Y9350200D02*
X5974500D01*
X5899500Y9275200D02*
Y9425200D01*
X6359500Y9800200D02*
X6439500D01*
X6399500Y9760200D02*
Y9840200D01*
X6099500Y9300200D02*
X6199500D01*
X6149500Y9250200D02*
Y9350200D01*
X6599500Y9300200D02*
X6699500D01*
X6649500Y9250200D02*
Y9350200D01*
X6824500D02*
X6974500D01*
X6899500Y9275200D02*
Y9425200D01*
X8323100Y9350200D02*
X8473100D01*
X8398100Y9275200D02*
Y9425200D01*
X8098100Y9300200D02*
X8198100D01*
X8148100Y9250200D02*
Y9350200D01*
X7598100Y9300200D02*
X7698100D01*
X7648100Y9250200D02*
Y9350200D01*
X7858100Y9800200D02*
X7938100D01*
X7898100Y9760200D02*
Y9840200D01*
X7323100Y9350200D02*
X7473100D01*
X7398100Y9275200D02*
Y9425200D01*
X8323100Y9925200D02*
X8473100D01*
X8398100Y9850200D02*
Y10000200D01*
X8448100Y9150200D02*
X8598100D01*
X8523100Y9075200D02*
Y9225200D01*
X8038100Y9900200D02*
X8198100D01*
X8118100Y9820200D02*
Y9980200D01*
X7598100Y9900200D02*
X7758100D01*
X7678100Y9820200D02*
Y9980200D01*
X7323100Y9925200D02*
X7473100D01*
X7398100Y9850200D02*
Y10000200D01*
X7198100Y9150200D02*
X7348100D01*
X7273100Y9075200D02*
Y9225200D01*
X7838100Y9300200D02*
X7958100D01*
X7898100Y9240200D02*
Y9360200D01*
X8098100Y8800200D02*
X8198100D01*
X8148100Y8750200D02*
Y8850200D01*
X7598100Y8800200D02*
X7698100D01*
X7648100Y8750200D02*
Y8850200D01*
X7848100Y8800200D02*
X7948100D01*
X7898100Y8750200D02*
Y8850200D01*
X7338100Y8800200D02*
X7458100D01*
X7398100Y8740200D02*
Y8860200D01*
X8338100Y8800200D02*
X8458100D01*
X8398100Y8740200D02*
Y8860200D01*
X-196814Y3678611D02*
X129576D01*
X-33619Y3515416D02*
Y3841806D01*
X-1022314Y7044111D02*
X-695924D01*
X-859119Y6880916D02*
Y7207306D01*
X628686Y7044111D02*
X955076D01*
X791881Y6880916D02*
Y7207306D01*
X12824200Y6138799D02*
X12916200D01*
X12870200Y6092799D02*
Y6184799D01*
X13190199Y6970179D02*
X13510201D01*
X13350200Y6810179D02*
Y7130179D01*
X11750200Y6138799D02*
X12070200D01*
X11910200Y5978799D02*
Y6298799D01*
X13190199Y5307419D02*
X13510201D01*
X13350200Y5147419D02*
Y5467419D01*
X12505600Y6138799D02*
X12597600D01*
X12551600Y6092799D02*
Y6184799D01*
X13142799Y6138799D02*
X13234801D01*
X13188800Y6092799D02*
Y6184799D01*
X4584280Y7253880D02*
X4694280D01*
X4639280Y7198880D02*
Y7308880D01*
X4838280Y7253880D02*
X4948280D01*
X4893280Y7198880D02*
Y7308880D01*
X5092280Y7253880D02*
X5202280D01*
X5147280Y7198880D02*
Y7308880D01*
X5346280Y7253880D02*
X5456280D01*
X5401280Y7198880D02*
Y7308880D01*
X5600280Y7253880D02*
X5710280D01*
X5655280Y7198880D02*
Y7308880D01*
X5854280Y7253880D02*
X5964280D01*
X5909280Y7198880D02*
Y7308880D01*
X6108280Y7253880D02*
X6218280D01*
X6163280Y7198880D02*
Y7308880D01*
X6362280Y7253880D02*
X6472280D01*
X6417280Y7198880D02*
Y7308880D01*
X6616280Y7253880D02*
X6726280D01*
X6671280Y7198880D02*
Y7308880D01*
X6870280Y7253880D02*
X6980280D01*
X6925280Y7198880D02*
Y7308880D01*
X7124280Y7253880D02*
X7234280D01*
X7179280Y7198880D02*
Y7308880D01*
X7378280Y7253880D02*
X7488280D01*
X7433280Y7198880D02*
Y7308880D01*
X7632280Y7253880D02*
X7742280D01*
X7687280Y7198880D02*
Y7308880D01*
X7886280Y7253880D02*
X7996280D01*
X7941280Y7198880D02*
Y7308880D01*
X4330280Y7253880D02*
X4440280D01*
X4385280Y7198880D02*
Y7308880D01*
X4076280Y7253880D02*
X4186280D01*
X4131280Y7198880D02*
Y7308880D01*
X9616020Y7253880D02*
X9726020D01*
X9671020Y7198880D02*
Y7308880D01*
X9108020Y7253880D02*
X9218020D01*
X9163020Y7198880D02*
Y7308880D01*
X9362020Y7253880D02*
X9472020D01*
X9417020Y7198880D02*
Y7308880D01*
X9870020Y7253880D02*
X9980020D01*
X9925020Y7198880D02*
Y7308880D01*
X10770840Y4155080D02*
X11019760D01*
X10895300Y4030620D02*
Y4279540D01*
X10770840Y7203080D02*
X11019760D01*
X10895300Y7078620D02*
Y7327540D01*
X3277840Y4155080D02*
X3526760D01*
X3402300Y4030620D02*
Y4279540D01*
X3277840Y7203080D02*
X3526760D01*
X3402300Y7078620D02*
Y7327540D01*
X16109290Y6783980D02*
X16189288D01*
X16149289Y6743980D02*
Y6823980D01*
X15609290Y6283980D02*
X15689288D01*
X15649289Y6243980D02*
Y6323980D01*
X15609290Y6533980D02*
X15689288D01*
X15649289Y6493980D02*
Y6573980D01*
X15609290Y7033980D02*
X15689288D01*
X15649289Y6993980D02*
Y7073980D01*
X15609290Y7283980D02*
X15689288D01*
X15649289Y7243980D02*
Y7323980D01*
X15589288Y6783980D02*
X15709290D01*
X15649289Y6723980D02*
Y6843980D01*
X15099289Y6533980D02*
X15199289D01*
X15149289Y6483980D02*
Y6583980D01*
X15099289Y7033980D02*
X15199289D01*
X15149289Y6983980D02*
Y7083980D01*
X15099289Y6783980D02*
X15199289D01*
X15149289Y6733980D02*
Y6833980D01*
X15089288Y7283980D02*
X15209290D01*
X15149289Y7223980D02*
Y7343980D01*
X15089288Y6283980D02*
X15209290D01*
X15149289Y6223980D02*
Y6343980D01*
X16339288Y6283980D02*
X16459290D01*
X16399289Y6223980D02*
Y6343980D01*
X16089288Y6283980D02*
X16209290D01*
X16149289Y6223980D02*
Y6343980D01*
X16089288Y7283980D02*
X16209290D01*
X16149289Y7223980D02*
Y7343980D01*
X16339288Y7283980D02*
X16459290D01*
X16399289Y7223980D02*
Y7343980D01*
X8836700Y10050229D02*
X8956700D01*
X8896700Y9990229D02*
Y10110229D01*
X8836700Y9800229D02*
X8956700D01*
X8896700Y9740229D02*
Y9860229D01*
X9836700Y9800229D02*
X9956700D01*
X9896700Y9740229D02*
Y9860229D01*
X9836700Y10050229D02*
X9956700D01*
X9896700Y9990229D02*
Y10110229D01*
X9836700Y8800230D02*
X9956700D01*
X9896700Y8740230D02*
Y8860229D01*
X8836700Y8800230D02*
X8956700D01*
X8896700Y8740230D02*
Y8860229D01*
X9346700Y8800230D02*
X9446700D01*
X9396700Y8750230D02*
Y8850229D01*
X9096700Y8800230D02*
X9196700D01*
X9146700Y8750230D02*
Y8850229D01*
X9596700Y8800230D02*
X9696700D01*
X9646700Y8750230D02*
Y8850229D01*
X9336700Y9300230D02*
X9456700D01*
X9396700Y9240230D02*
Y9360229D01*
X8856700Y9300230D02*
X8936700D01*
X8896700Y9260230D02*
Y9340229D01*
X9106700Y9300230D02*
X9186700D01*
X9146700Y9260230D02*
Y9340229D01*
X9606700Y9300230D02*
X9686700D01*
X9646700Y9260230D02*
Y9340229D01*
X9856700Y9300230D02*
X9936700D01*
X9896700Y9260230D02*
Y9340229D01*
X9356700Y9800229D02*
X9436700D01*
X9396700Y9760229D02*
Y9840229D01*
X13038670Y831490D02*
X13148669D01*
X13093671Y776490D02*
Y886490D01*
X13292670Y831490D02*
X13402670D01*
X13347670Y776490D02*
Y886490D01*
X13292670Y1085490D02*
X13402670D01*
X13347670Y1030490D02*
Y1140490D01*
X13038670Y1085490D02*
X13148669D01*
X13093671Y1030490D02*
Y1140490D01*
X1301370Y4637680D02*
X1416370D01*
X1358870Y4580180D02*
Y4695180D01*
X1555370Y4637680D02*
X1670370D01*
X1612870Y4580180D02*
Y4695180D01*
X1809370Y4637680D02*
X1924370D01*
X1866870Y4580180D02*
Y4695180D01*
X2063370Y4637680D02*
X2178370D01*
X2120870Y4580180D02*
Y4695180D01*
X2317370Y4637680D02*
X2432370D01*
X2374870Y4580180D02*
Y4695180D01*
X6799860Y-1572250D02*
X6949860D01*
X6874860Y-1647250D02*
Y-1497250D01*
X7924860Y-1322250D02*
X8074860D01*
X7999860Y-1397250D02*
Y-1247250D01*
X7799860Y-1572250D02*
X7949860D01*
X7874860Y-1647250D02*
Y-1497250D01*
X7799860Y-2072250D02*
X7949860D01*
X7874860Y-2147250D02*
Y-1997250D01*
X7474860Y-2072250D02*
X7674860D01*
X7574860Y-2172250D02*
Y-1972250D01*
X7074860Y-2072250D02*
X7274860D01*
X7174860Y-2172250D02*
Y-1972250D01*
X6799860Y-2072250D02*
X6949860D01*
X6874860Y-2147250D02*
Y-1997250D01*
X6674860Y-1322250D02*
X6824860D01*
X6749860Y-1397250D02*
Y-1247250D01*
X8296650Y-1322250D02*
X8446650D01*
X8371650Y-1397250D02*
Y-1247250D01*
X8421650Y-2072250D02*
X8571650D01*
X8496650Y-2147250D02*
Y-1997250D01*
X8696650Y-2072250D02*
X8896650D01*
X8796650Y-2172250D02*
Y-1972250D01*
X9096650Y-2072250D02*
X9296650D01*
X9196650Y-2172250D02*
Y-1972250D01*
X9421650Y-2072250D02*
X9571650D01*
X9496650Y-2147250D02*
Y-1997250D01*
X9421650Y-1572250D02*
X9571650D01*
X9496650Y-1647250D02*
Y-1497250D01*
X9546650Y-1322250D02*
X9696650D01*
X9621650Y-1397250D02*
Y-1247250D01*
X8421650Y-1572250D02*
X8571650D01*
X8496650Y-1647250D02*
Y-1497250D01*
X12205470Y-1429110D02*
X12305470D01*
X12255470Y-1479110D02*
Y-1379110D01*
X11685470Y-1429110D02*
X11785470D01*
X11735470Y-1479110D02*
Y-1379110D01*
X11345470Y-1429110D02*
X11445470D01*
X11395470Y-1479110D02*
Y-1379110D01*
X12295470Y-2159110D02*
X12395470D01*
X12345470Y-2209110D02*
Y-2109110D01*
X11305470Y-2159110D02*
X11405470D01*
X11355470Y-2209110D02*
Y-2109110D01*
X11612970Y-2059110D02*
X11837970D01*
X11725470Y-2171610D02*
Y-1946610D01*
X13008310Y-1493790D02*
X13053310D01*
X13030811Y-1516290D02*
Y-1471290D01*
X13088310Y-1493790D02*
X13133310D01*
X13110809Y-1516290D02*
Y-1471290D01*
X13088310Y-1408790D02*
X13133310D01*
X13110809Y-1431290D02*
Y-1386290D01*
X13088310Y-1323790D02*
X13133310D01*
X13110809Y-1346290D02*
Y-1301290D01*
X13008310Y-1323790D02*
X13053310D01*
X13030811Y-1346290D02*
Y-1301290D01*
X13008310Y-1408790D02*
X13053310D01*
X13030811Y-1431290D02*
Y-1386290D01*
X-125000Y0D02*
X125000D01*
X0Y-125000D02*
Y125000D01*
X-125000Y7800000D02*
X125000D01*
X0Y7675000D02*
Y7925000D01*
X14175000Y7800000D02*
X14425000D01*
X14300000Y7675000D02*
Y7925000D01*
X14175000Y0D02*
X14425000D01*
X14300000Y-125000D02*
Y125000D01*
X4710090Y-1871070D02*
X4830090D01*
X4770090Y-1931070D02*
Y-1811070D01*
X4964090Y-1871070D02*
X5084090D01*
X5024090Y-1931070D02*
Y-1811070D01*
X5218090Y-1871070D02*
X5338090D01*
X5278090Y-1931070D02*
Y-1811070D01*
X4710090Y-1617070D02*
X4830090D01*
X4770090Y-1677070D02*
Y-1557070D01*
X4964090Y-1617070D02*
X5084090D01*
X5024090Y-1677070D02*
Y-1557070D01*
X5218090Y-1617070D02*
X5338090D01*
X5278090Y-1677070D02*
Y-1557070D01*
X13119521Y5519080D02*
X13199519D01*
X13159520Y5479080D02*
Y5559080D01*
X12869521Y5519080D02*
X12949519D01*
X12909520Y5479080D02*
Y5559080D01*
X12619520Y5519080D02*
X12699520D01*
X12659520Y5479080D02*
Y5559080D01*
X13119521Y5839080D02*
X13199519D01*
X13159520Y5799080D02*
Y5879080D01*
X12869521Y5839080D02*
X12949519D01*
X12909520Y5799080D02*
Y5879080D01*
X12619520Y5839080D02*
X12699520D01*
X12659520Y5799080D02*
Y5879080D01*
X4340900Y10050230D02*
X4460900D01*
X4400900Y9990230D02*
Y10110230D01*
X4340900Y9800230D02*
X4460900D01*
X4400900Y9740230D02*
Y9860230D01*
X5340900Y9800230D02*
X5460900D01*
X5400900Y9740230D02*
Y9860230D01*
X5340900Y10050230D02*
X5460900D01*
X5400900Y9990230D02*
Y10110230D01*
X5340900Y8800230D02*
X5460900D01*
X5400900Y8740230D02*
Y8860230D01*
X4340900Y8800230D02*
X4460900D01*
X4400900Y8740230D02*
Y8860230D01*
X4850900Y8800230D02*
X4950900D01*
X4900900Y8750230D02*
Y8850230D01*
X4600900Y8800230D02*
X4700900D01*
X4650900Y8750230D02*
Y8850230D01*
X5100900Y8800230D02*
X5200900D01*
X5150900Y8750230D02*
Y8850230D01*
X4840900Y9300230D02*
X4960900D01*
X4900900Y9240230D02*
Y9360230D01*
X4360900Y9300230D02*
X4440900D01*
X4400900Y9260230D02*
Y9340230D01*
X4610900Y9300230D02*
X4690900D01*
X4650900Y9260230D02*
Y9340230D01*
X5110900Y9300230D02*
X5190900D01*
X5150900Y9260230D02*
Y9340230D01*
X5360900Y9300230D02*
X5440900D01*
X5400900Y9260230D02*
Y9340230D01*
X4860900Y9800230D02*
X4940900D01*
X4900900Y9760230D02*
Y9840230D01*
X10253800Y2474640D02*
X10393800D01*
X10323800Y2404640D02*
Y2544640D01*
X10253800Y1334640D02*
X10393800D01*
X10323800Y1264640D02*
Y1404640D01*
X9513800Y1654640D02*
X9633800D01*
X9573800Y1594640D02*
Y1714640D01*
X9513800Y1904640D02*
X9633800D01*
X9573800Y1844640D02*
Y1964640D01*
X9513800Y2154640D02*
X9633800D01*
X9573800Y2094640D02*
Y2214640D01*
X10963800Y1654640D02*
X11083800D01*
X11023800Y1594640D02*
Y1714640D01*
X10963800Y2154640D02*
X11083800D01*
X11023800Y2094640D02*
Y2214640D01*
X3213800Y1654640D02*
X3333800D01*
X3273800Y1594640D02*
Y1714640D01*
X3213800Y2154640D02*
X3333800D01*
X3273800Y2094640D02*
Y2214640D01*
X4663800Y1654640D02*
X4783800D01*
X4723800Y1594640D02*
Y1714640D01*
X4663800Y1904640D02*
X4783800D01*
X4723800Y1844640D02*
Y1964640D01*
X4663800Y2154640D02*
X4783800D01*
X4723800Y2094640D02*
Y2214640D01*
X3903800Y2474640D02*
X4043800D01*
X3973800Y2404640D02*
Y2544640D01*
X3903800Y1334640D02*
X4043800D01*
X3973800Y1264640D02*
Y1404640D01*
X7213800Y2082440D02*
X7363800D01*
X7288800Y2007440D02*
Y2157440D01*
X6933800Y2082440D02*
X7083800D01*
X7008800Y2007440D02*
Y2157440D01*
X9965040Y-2151410D02*
X10115040D01*
X10040040Y-2226410D02*
Y-2076410D01*
X10925040Y-2151410D02*
X11075040D01*
X11000040Y-2226410D02*
Y-2076410D01*
X10280040Y-2051410D02*
X10360040D01*
X10320040Y-2091410D02*
Y-2011410D01*
X10480040Y-2051410D02*
X10560040D01*
X10520040Y-2091410D02*
Y-2011410D01*
X10680040Y-2051410D02*
X10760040D01*
X10720040Y-2091410D02*
Y-2011410D01*
X10280040Y-2251410D02*
X10360040D01*
X10320040Y-2291410D02*
Y-2211410D01*
X10480040Y-2251410D02*
X10560040D01*
X10520040Y-2291410D02*
Y-2211410D01*
X10680040Y-2251410D02*
X10760040D01*
X10720040Y-2291410D02*
Y-2211410D01*
X-1264950Y5816240D02*
X-1165890D01*
X-1215420Y5766710D02*
Y5865770D01*
X-1772950Y5917840D02*
X-1673890D01*
X-1723420Y5868310D02*
Y5967370D01*
X-1772950Y5714640D02*
X-1673890D01*
X-1723420Y5665110D02*
Y5764170D01*
X14095309Y1077870D02*
X14205310D01*
X14150310Y1022870D02*
Y1132870D01*
X14349310Y1077870D02*
X14459309D01*
X14404311Y1022870D02*
Y1132870D01*
X14603310Y1077870D02*
X14713310D01*
X14658310Y1022870D02*
Y1132870D01*
X14857310Y1077870D02*
X14967310D01*
X14912309Y1022870D02*
Y1132870D01*
X5844860Y8035290D02*
X5884860D01*
X5864860Y8015290D02*
Y8055290D01*
X9057930Y8018780D02*
X9097930D01*
X9077930Y7998780D02*
Y8038780D01*
X6630960Y7958730D02*
X6670960D01*
X6650960Y7938730D02*
Y7978730D01*
X6187760Y8014970D02*
X6227760D01*
X6207760Y7994970D02*
Y8034970D01*
X2001810Y4844690D02*
X2041810D01*
X2021810Y4824690D02*
Y4864690D01*
X4813620Y7743190D02*
X4853620D01*
X4833620Y7723190D02*
Y7763190D01*
X6402360Y8029850D02*
X6442360D01*
X6422360Y8009850D02*
Y8049850D01*
X6865910Y8033660D02*
X6905910D01*
X6885910Y8013660D02*
Y8053660D01*
X4614230Y7712710D02*
X4654230D01*
X4634230Y7692710D02*
Y7732710D01*
X4402140Y7725410D02*
X4442140D01*
X4422140Y7705410D02*
Y7745410D01*
X8416610Y8018780D02*
X8456610D01*
X8436610Y7998780D02*
Y8038780D01*
X8817930Y8018780D02*
X8857930D01*
X8837930Y7998780D02*
Y8038780D01*
X8001320Y8018780D02*
X8041320D01*
X8021320Y7998780D02*
Y8038780D01*
X8231160Y8018780D02*
X8271160D01*
X8251160Y7998780D02*
Y8038780D01*
X8628670Y8018780D02*
X8668670D01*
X8648670Y7998780D02*
Y8038780D01*
X2104387Y8345170D02*
X2144387D01*
X2124387Y8325170D02*
Y8365170D01*
X2227900Y8364220D02*
X2267900D01*
X2247900Y8344220D02*
Y8384220D01*
X12201814Y6511755D02*
X12241814D01*
X12221814Y6491755D02*
Y6531755D01*
X10341900Y9104270D02*
X10381900D01*
X10361900Y9084270D02*
Y9124270D01*
X5923570Y7752990D02*
X5963570D01*
X5943570Y7732990D02*
Y7772990D01*
X10216170Y7845700D02*
X10256170D01*
X10236170Y7825700D02*
Y7865700D01*
X3890300Y9478920D02*
X3930300D01*
X3910300Y9458920D02*
Y9498920D01*
X7853970Y9548770D02*
X7893970D01*
X7873970Y9528770D02*
Y9568770D01*
X3201990Y8991600D02*
X3241990D01*
X3221990Y8971600D02*
Y9011600D01*
X2401890Y9025890D02*
X2441890D01*
X2421890Y9005890D02*
Y9045890D01*
X6228370Y9491620D02*
X6268370D01*
X6248370Y9471620D02*
Y9511620D01*
X12105960Y5676900D02*
X12145960D01*
X12125960Y5656900D02*
Y5696900D01*
X11736390Y5922010D02*
X11776390D01*
X11756390Y5902010D02*
Y5942010D01*
X13588020Y5503820D02*
X13628020D01*
X13608020Y5483820D02*
Y5523820D01*
X14823730Y6183270D02*
X14863730D01*
X14843730Y6163270D02*
Y6203270D01*
X14943140Y5688330D02*
X14983141D01*
X14963139Y5668330D02*
Y5708330D01*
X15841000Y5040270D02*
X15881000D01*
X15861000Y5020270D02*
Y5060270D01*
X15665739Y5387161D02*
X15705740D01*
X15685741Y5367161D02*
Y5407161D01*
X11166130Y4324150D02*
X11206130D01*
X11186130Y4304150D02*
Y4344150D01*
X12893330Y4177940D02*
X12933330D01*
X12913330Y4157940D02*
Y4197940D01*
X12996260Y4316370D02*
X13036259D01*
X13016260Y4296370D02*
Y4336370D01*
X11665240Y4447180D02*
X11705240D01*
X11685240Y4427180D02*
Y4467180D01*
X15088005Y4324106D02*
X15128004D01*
X15108005Y4304106D02*
Y4344106D01*
X13806796Y4222508D02*
X13846796D01*
X13826796Y4202508D02*
Y4242508D01*
X15139960Y5279190D02*
X15179961D01*
X15159959Y5259190D02*
Y5299190D01*
X15237750Y5233310D02*
X15277750D01*
X15257750Y5213310D02*
Y5253310D01*
X14076321Y4482002D02*
X14116321D01*
X14096321Y4462002D02*
Y4502002D01*
X14831029Y5294668D02*
X14871030D01*
X14851028Y5274668D02*
Y5314668D01*
X14639580Y6179460D02*
X14679581D01*
X14659579Y6159460D02*
Y6199460D01*
X14656090Y5934350D02*
X14696091D01*
X14676089Y5914350D02*
Y5954350D01*
X14127769Y3315610D02*
X14167770D01*
X14147771Y3295610D02*
Y3335610D01*
X2742511Y-2340726D02*
X2782511D01*
X2762511Y-2360726D02*
Y-2320726D01*
X15300011Y7430770D02*
X15340010D01*
X15320010Y7410770D02*
Y7450770D01*
X212380Y5756550D02*
X252380D01*
X232380Y5736550D02*
Y5776550D01*
X547660Y5677810D02*
X587660D01*
X567660Y5657810D02*
Y5697810D01*
X2956160Y-1870040D02*
X2996160D01*
X2976160Y-1890040D02*
Y-1850040D01*
X14010960Y6631940D02*
X14050960D01*
X14030960Y6611940D02*
Y6651940D01*
X14574840Y6314440D02*
X14614841D01*
X14594839Y6294440D02*
Y6334440D01*
X14287820Y5568950D02*
X14327820D01*
X14307820Y5548950D02*
Y5588950D01*
X1077280Y7303770D02*
X1117280D01*
X1097280Y7283770D02*
Y7323770D01*
X13435742Y5867633D02*
X13475742D01*
X13455742Y5847633D02*
Y5887633D01*
X13441969Y6113420D02*
X13481970D01*
X13461971Y6093420D02*
Y6133420D01*
X1998030Y8754110D02*
X2038030D01*
X2018030Y8734110D02*
Y8774110D01*
X1549720Y8762528D02*
X1589720D01*
X1569720Y8742528D02*
Y8782528D01*
X974410Y7599680D02*
X1014410D01*
X994410Y7579680D02*
Y7619680D01*
X1390970Y7863840D02*
X1430970D01*
X1410970Y7843840D02*
Y7883840D01*
X2503490Y8148320D02*
X2543490D01*
X2523490Y8128320D02*
Y8168320D01*
X3141326Y8289837D02*
X3181326D01*
X3161326Y8269837D02*
Y8309837D01*
X1092520Y8124190D02*
X1132520D01*
X1112520Y8104190D02*
Y8144190D01*
X1849967Y7572815D02*
X1889967D01*
X1869967Y7552815D02*
Y7592815D01*
X1732489Y7820660D02*
X1772489D01*
X1752489Y7800660D02*
Y7840660D01*
X1932940Y7744460D02*
X2004060D01*
X1968500Y7708900D02*
Y7780020D01*
X2695260Y7930082D02*
X2735260D01*
X2715260Y7910082D02*
Y7950082D01*
X13501384Y4800136D02*
X13541383D01*
X13521384Y4780136D02*
Y4820136D01*
X13449998Y4940032D02*
X13489999D01*
X13470000Y4920032D02*
Y4960031D01*
X313980Y5781600D02*
X353980D01*
X333980Y5761600D02*
Y5801600D01*
X-193990Y5800090D02*
X-153990D01*
X-173990Y5780090D02*
Y5820090D01*
X-347690Y5922920D02*
X-307690D01*
X-327690Y5902920D02*
Y5942920D01*
X-783308Y5975411D02*
X-743308D01*
X-763308Y5955411D02*
Y5995411D01*
X-755360Y5724800D02*
X-715360D01*
X-735360Y5704800D02*
Y5744800D01*
X-335169Y5795750D02*
X-295169D01*
X-315169Y5775750D02*
Y5815750D01*
X5740338Y-290965D02*
X5780338D01*
X5760338Y-310965D02*
Y-270965D01*
X5514025Y-3175D02*
X5554025D01*
X5534025Y-23175D02*
Y16825D01*
X5519740Y-205740D02*
X5559740D01*
X5539740Y-225740D02*
Y-185740D01*
X5078964Y189894D02*
X5118964D01*
X5098964Y169894D02*
Y209894D01*
X5079050Y-238760D02*
X5119050D01*
X5099050Y-258760D02*
Y-218760D01*
X4922830Y373380D02*
X4962830D01*
X4942830Y353380D02*
Y393380D01*
X4920300Y-320040D02*
X4960300D01*
X4940300Y-340040D02*
Y-300040D01*
X4544380Y-784860D02*
X4584380D01*
X4564380Y-804860D02*
Y-764860D01*
X13387360Y3998870D02*
X13427361D01*
X13407359Y3978870D02*
Y4018870D01*
X13755630Y4607171D02*
X13795631D01*
X13775632Y4587171D02*
Y4627171D01*
X-11140Y5446670D02*
X28860D01*
X8860Y5426670D02*
Y5466670D01*
X1287677Y7746561D02*
X1327677D01*
X1307677Y7726561D02*
Y7766561D01*
X1566910Y6042133D02*
X1606910D01*
X1586910Y6022133D02*
Y6062133D01*
X122988Y5540158D02*
X162988D01*
X142988Y5520158D02*
Y5560158D01*
X-179099Y5164730D02*
X-139099D01*
X-159099Y5144730D02*
Y5184730D01*
X-1432270Y6302650D02*
X-1392270D01*
X-1412270Y6282650D02*
Y6322650D01*
X17360Y5553183D02*
X57360D01*
X37360Y5533183D02*
Y5573183D01*
X121978Y4880592D02*
X161978D01*
X141978Y4860592D02*
Y4900592D01*
X20610Y4892950D02*
X60610D01*
X40610Y4872950D02*
Y4912950D01*
X1589060Y7293896D02*
X1629060D01*
X1609060Y7273896D02*
Y7313896D01*
X-12410Y5797190D02*
X27590D01*
X7590Y5777190D02*
Y5817190D01*
X781536Y5740750D02*
X821536D01*
X801536Y5720750D02*
Y5760750D01*
X15394969Y4087937D02*
X15434969D01*
X15414969Y4067937D02*
Y4107937D01*
X15418089Y4257950D02*
X15458090D01*
X15438091Y4237950D02*
Y4277950D01*
X14786900Y3826150D02*
X14826900D01*
X14806900Y3806150D02*
Y3846150D01*
X13490089Y4393360D02*
X13530090D01*
X13510091Y4373360D02*
Y4413360D01*
X13230603Y4628032D02*
X13270602D01*
X13250603Y4608032D02*
Y4648032D01*
X14536710Y3841390D02*
X14576711D01*
X14556709Y3821390D02*
Y3861390D01*
X13946678Y4918868D02*
X13986678D01*
X13966678Y4898868D02*
Y4938868D01*
X13595641Y4614820D02*
X13635640D01*
X13615640Y4594820D02*
Y4634820D01*
X15291249Y4397447D02*
X15331248D01*
X15311249Y4377447D02*
Y4417447D01*
X15695007Y4377272D02*
X15735008D01*
X15715009Y4357272D02*
Y4397272D01*
X11781381Y6726448D02*
X11821381D01*
X11801381Y6706448D02*
Y6746448D01*
X13101610Y7291980D02*
X13141611D01*
X13121609Y7271980D02*
Y7311980D01*
X11862800Y5835230D02*
X11902800D01*
X11882800Y5815230D02*
Y5855230D01*
X11478490Y5734900D02*
X11518490D01*
X11498490Y5714900D02*
Y5754900D01*
X11599200Y5464450D02*
X11639200D01*
X11619200Y5444450D02*
Y5484450D01*
X15486670Y7603130D02*
X15526669D01*
X15506670Y7583130D02*
Y7623130D01*
X15449841Y5665923D02*
X15489841D01*
X15469841Y5645923D02*
Y5685923D01*
X14380499Y5025030D02*
X14420500D01*
X14400500Y5005030D02*
Y5045030D01*
X12832925Y5009790D02*
X12872925D01*
X12852925Y4989790D02*
Y5029790D01*
X13745500Y3560720D02*
X13785500D01*
X13765500Y3540720D02*
Y3580720D01*
X14822459Y4664350D02*
X14862460D01*
X14842461Y4644350D02*
Y4684350D01*
X16002290Y5948320D02*
X16042290D01*
X16022290Y5928320D02*
Y5968320D01*
X-1716771Y7084100D02*
X-1676771D01*
X-1696771Y7064100D02*
Y7104100D01*
X-2076181Y7081560D02*
X-2036181D01*
X-2056181Y7061560D02*
Y7101560D01*
X14623070Y4721500D02*
X14663071D01*
X14643069Y4701500D02*
Y4741500D01*
X8495320Y7364370D02*
X8535320D01*
X8515320Y7344370D02*
Y7384370D01*
X11615710Y5609230D02*
X11655710D01*
X11635710Y5589230D02*
Y5629230D01*
X13862340Y3153050D02*
X13902341D01*
X13882339Y3133050D02*
Y3173050D01*
X14014740Y3030570D02*
X14054739D01*
X14034740Y3010570D02*
Y3050570D01*
X13461020Y3137810D02*
X13501019D01*
X13481020Y3117810D02*
Y3157810D01*
X8295930Y-1126850D02*
X8335930D01*
X8315930Y-1146850D02*
Y-1106850D01*
X14245880Y3465737D02*
X14285880D01*
X14265880Y3445737D02*
Y3485737D01*
X6525416Y-360301D02*
X6565416D01*
X6545416Y-380301D02*
Y-340301D01*
X104430Y3427370D02*
X144430D01*
X124430Y3407370D02*
Y3447370D01*
X109376Y3055999D02*
X149376D01*
X129376Y3035999D02*
Y3075999D01*
X2737531Y-484706D02*
X2777531D01*
X2757531Y-504706D02*
Y-464706D01*
X3587695Y1013306D02*
X3627695D01*
X3607695Y993306D02*
Y1033306D01*
X6490124Y-603079D02*
X6530124D01*
X6510124Y-623079D02*
Y-583079D01*
X6516660Y-761090D02*
X6556660D01*
X6536660Y-781090D02*
Y-741090D01*
X6440460Y653690D02*
X6480460D01*
X6460460Y633690D02*
Y673690D01*
X3303560Y1053740D02*
X3343560D01*
X3323560Y1033740D02*
Y1073740D01*
X-1107171Y5755680D02*
X-1067171D01*
X-1087171Y5735680D02*
Y5775680D01*
X-1399196Y6549084D02*
X-1359196D01*
X-1379196Y6529084D02*
Y6569084D01*
X752130Y4812230D02*
X792130D01*
X772130Y4792230D02*
Y4832230D01*
X663230Y4919620D02*
X703230D01*
X683230Y4899620D02*
Y4939620D01*
X352080Y5259980D02*
X392080D01*
X372080Y5239980D02*
Y5279980D01*
X587030Y5003440D02*
X627030D01*
X607030Y4983440D02*
Y5023440D01*
X250480Y5276490D02*
X290480D01*
X270480Y5256490D02*
Y5296490D01*
X471382Y5254910D02*
X511382D01*
X491382Y5234910D02*
Y5274910D01*
X595920Y5333080D02*
X635920D01*
X615920Y5313080D02*
Y5353080D01*
X9283990Y-1279250D02*
X9323990D01*
X9303990Y-1299250D02*
Y-1259250D01*
X9384213Y-1286870D02*
X9424213D01*
X9404213Y-1306870D02*
Y-1266870D01*
X6697000Y-667110D02*
X6737000D01*
X6717000Y-687110D02*
Y-647110D01*
X6483640Y-969370D02*
X6523640D01*
X6503640Y-989370D02*
Y-949370D01*
X6032790Y-1083670D02*
X6072790D01*
X6052790Y-1103670D02*
Y-1063670D01*
X15160280Y3206390D02*
X15200281D01*
X15180280Y3186390D02*
Y3226390D01*
X15914661Y2817770D02*
X15954660D01*
X15934660Y2797770D02*
Y2837770D01*
X11378220Y559710D02*
X11418220D01*
X11398220Y539710D02*
Y579710D01*
X11380760Y409850D02*
X11420760D01*
X11400760Y389850D02*
Y429850D01*
X11495690Y254095D02*
X11535690D01*
X11515690Y234095D02*
Y274095D01*
X11728740Y254910D02*
X11768740D01*
X11748740Y234910D02*
Y274910D01*
X13671840Y1390290D02*
X13711839D01*
X13691840Y1370290D02*
Y1410290D01*
X14418866Y1387870D02*
X14458865D01*
X14438866Y1367870D02*
Y1407870D01*
X14550681Y1523640D02*
X14590680D01*
X14570680Y1503640D02*
Y1543640D01*
X15250450Y1427120D02*
X15290450D01*
X15270450Y1407120D02*
Y1447120D01*
X12098310Y-847450D02*
X12138310D01*
X12118310Y-867450D02*
Y-827450D01*
X11610630Y-474070D02*
X11650630D01*
X11630630Y-494070D02*
Y-454070D01*
X10777510Y-341990D02*
X10817510D01*
X10797510Y-361990D02*
Y-321990D01*
X15040900Y6077860D02*
X15080901D01*
X15060899Y6057860D02*
Y6097860D01*
X-1204334Y5636457D02*
X-1164334D01*
X-1184334Y5616457D02*
Y5656457D01*
X-1106728Y5353646D02*
X-1066728D01*
X-1086728Y5333646D02*
Y5373646D01*
X-1066510Y5176966D02*
X-1026510D01*
X-1046510Y5156966D02*
Y5196965D01*
X-604230Y5762900D02*
X-564230D01*
X-584230Y5742900D02*
Y5782900D01*
X13670250Y535580D02*
X13733749D01*
X13702000Y503830D02*
Y567330D01*
X13563570Y946190D02*
X13627071D01*
X13595320Y914440D02*
Y977940D01*
X15442220Y197760D02*
X15482220D01*
X15462219Y177760D02*
Y217760D01*
X8633750Y2991760D02*
X8673750D01*
X8653750Y2971760D02*
Y3011760D01*
X1209330Y-1890120D02*
X1249330D01*
X1229330Y-1910120D02*
Y-1870120D01*
X-206720Y2520590D02*
X-166720D01*
X-186720Y2500590D02*
Y2540590D01*
X-1856450Y1324250D02*
X-1816450D01*
X-1836450Y1304250D02*
Y1344250D01*
X739430Y839110D02*
X779430D01*
X759430Y819110D02*
Y859110D01*
X3882680Y-1006200D02*
X3922680D01*
X3902680Y-1026200D02*
Y-986200D01*
X5603530Y2488840D02*
X5643530D01*
X5623530Y2468840D02*
Y2508840D01*
X8261640Y284120D02*
X8301640D01*
X8281640Y264120D02*
Y304120D01*
X8276880Y-99420D02*
X8316880D01*
X8296880Y-119420D02*
Y-79420D01*
X8394990Y1777640D02*
X8434990D01*
X8414990Y1757640D02*
Y1797640D01*
X13641360Y-1357990D02*
X13681360D01*
X13661360Y-1377990D02*
Y-1337990D01*
X10490490Y331110D02*
X10530490D01*
X10510490Y311110D02*
Y351110D01*
X11873520Y2973980D02*
X11913520D01*
X11893520Y2953980D02*
Y2993980D01*
X15987050Y4240170D02*
X16027049D01*
X16007050Y4220170D02*
Y4260170D01*
X16354080Y3247030D02*
X16394080D01*
X16374080Y3227030D02*
Y3267030D01*
X13069859Y8782960D02*
X13109860D01*
X13089861Y8762960D02*
Y8802960D01*
X1028990Y9635130D02*
X1068990D01*
X1048990Y9615130D02*
Y9655130D01*
X2584740Y5312050D02*
X2624740D01*
X2604740Y5292050D02*
Y5332050D01*
X1685580Y4177940D02*
X1725580D01*
X1705580Y4157940D02*
Y4197940D01*
X-1098260Y3716930D02*
X-1058260D01*
X-1078260Y3696930D02*
Y3736930D01*
X-338800Y4115710D02*
X-298800D01*
X-318800Y4095710D02*
Y4135710D01*
X216190Y7024010D02*
X256190D01*
X236190Y7004010D02*
Y7044010D01*
X-1770090Y7883800D02*
X-1730090D01*
X-1750090Y7863800D02*
Y7903800D01*
X1318550Y3061610D02*
X1358550D01*
X1338550Y3041610D02*
Y3081610D01*
X-919312Y5644793D02*
X-879312D01*
X-899312Y5624793D02*
Y5664793D01*
X-825600Y5488643D02*
X-785600D01*
X-805600Y5468643D02*
Y5508643D01*
X-860770Y5299350D02*
X-820770D01*
X-840770Y5279350D02*
Y5319350D01*
X-1179540Y5409840D02*
X-1139540D01*
X-1159540Y5389840D02*
Y5429840D01*
X-1593506Y5451696D02*
X-1553506D01*
X-1573506Y5431697D02*
Y5471696D01*
X-713903Y5500827D02*
X-673903D01*
X-693903Y5480827D02*
Y5520827D01*
X-1669071Y5376131D02*
X-1629071D01*
X-1649071Y5356132D02*
Y5396131D01*
X-622010Y5594140D02*
X-582010D01*
X-602010Y5574140D02*
Y5614140D01*
X-340070Y5599070D02*
X-300070D01*
X-320070Y5579070D02*
Y5619070D01*
X-254980Y5562240D02*
X-214980D01*
X-234980Y5542240D02*
Y5582240D01*
X-315940Y5258710D02*
X-275940D01*
X-295940Y5238710D02*
Y5278710D01*
X-1933920Y5287920D02*
X-1893920D01*
X-1913920Y5267920D02*
Y5307920D01*
X-1881850Y5544460D02*
X-1841850D01*
X-1861850Y5524460D02*
Y5564460D01*
X-345150Y5146950D02*
X-305150D01*
X-325150Y5126950D02*
Y5166950D01*
X-359056Y5062852D02*
X-319056D01*
X-339056Y5042852D02*
Y5082852D01*
X-297040Y5357650D02*
X-257040D01*
X-277040Y5337650D02*
Y5377650D01*
X-155672Y5360061D02*
X-115672D01*
X-135672Y5340061D02*
Y5380061D01*
X-168620Y5265060D02*
X-128620D01*
X-148620Y5245060D02*
Y5285060D01*
X1124929Y3162629D02*
X1164929D01*
X1144929Y3142629D02*
Y3182629D01*
X1143290Y3061610D02*
X1183290D01*
X1163290Y3041610D02*
Y3081610D01*
X804200Y3074310D02*
X844200D01*
X824200Y3054310D02*
Y3094310D01*
X955330Y3074310D02*
X995330D01*
X975330Y3054310D02*
Y3094310D01*
X1384590Y5900060D02*
X1424590D01*
X1404590Y5880060D02*
Y5920060D01*
X955330Y5416190D02*
X995330D01*
X975330Y5396190D02*
Y5436190D01*
X830870Y5389520D02*
X870870D01*
X850870Y5369520D02*
Y5409520D01*
X1509050Y5837421D02*
X1549050D01*
X1529050Y5817421D02*
Y5857421D01*
X-1250660Y6753500D02*
X-1210660D01*
X-1230660Y6733500D02*
Y6773500D01*
X-1462750Y6726830D02*
X-1422750D01*
X-1442750Y6706830D02*
Y6746830D01*
X-1514469Y6904630D02*
X-1474469D01*
X-1494469Y6884630D02*
Y6924630D01*
X131100Y5291730D02*
X171100D01*
X151100Y5271730D02*
Y5311730D01*
X1479840Y5211720D02*
X1519840D01*
X1499840Y5191720D02*
Y5231720D01*
X686090Y5254900D02*
X726090D01*
X706090Y5234900D02*
Y5274900D01*
X1150910Y5470800D02*
X1190910D01*
X1170910Y5450800D02*
Y5490800D01*
X997240Y5530490D02*
X1037240D01*
X1017240Y5510490D02*
Y5550490D01*
X1578900Y5615020D02*
X1618900D01*
X1598900Y5595020D02*
Y5635020D01*
X3074960Y2980330D02*
X3114960D01*
X3094960Y2960330D02*
Y3000330D01*
X-327370Y4593230D02*
X-287370D01*
X-307370Y4573230D02*
Y4613230D01*
X-602960Y4895490D02*
X-562960D01*
X-582960Y4875490D02*
Y4915490D01*
X-854420Y4804050D02*
X-814420D01*
X-834420Y4784050D02*
Y4824050D01*
X-671540Y5055510D02*
X-631540D01*
X-651540Y5035510D02*
Y5075510D01*
X-416270Y4828180D02*
X-376270D01*
X-396270Y4808180D02*
Y4848180D01*
X-945860Y4531000D02*
X-905860D01*
X-925860Y4511000D02*
Y4551000D01*
X358430Y-1551030D02*
X398430D01*
X378430Y-1571030D02*
Y-1531030D01*
X371840Y-1277980D02*
X411840D01*
X391840Y-1297980D02*
Y-1257980D01*
X353350Y-1004930D02*
X393350D01*
X373350Y-1024930D02*
Y-984930D01*
X941360Y-648060D02*
X981360D01*
X961360Y-668060D02*
Y-628060D01*
X743240Y-796650D02*
X783240D01*
X763240Y-816650D02*
Y-776650D01*
X-343880Y5694320D02*
X-303880D01*
X-323880Y5674320D02*
Y5714320D01*
X11190260Y8043820D02*
X11230260D01*
X11210260Y8023820D02*
Y8063820D01*
X1157260Y-1048110D02*
X1197260D01*
X1177260Y-1068110D02*
Y-1028110D01*
X1143290Y-1294490D02*
X1183290D01*
X1163290Y-1314490D02*
Y-1274490D01*
X1134400Y-1556110D02*
X1174400D01*
X1154400Y-1576110D02*
Y-1536110D01*
X8027960Y-380090D02*
X8067960D01*
X8047960Y-400090D02*
Y-360090D01*
X7445030Y-449940D02*
X7485030D01*
X7465030Y-469940D02*
Y-429940D01*
X9027450Y-1547220D02*
X9067450D01*
X9047450Y-1567220D02*
Y-1527220D01*
X7038630Y-1246230D02*
X7078630D01*
X7058630Y-1266230D02*
Y-1226230D01*
X3670590Y2995570D02*
X3710590D01*
X3690590Y2975570D02*
Y3015570D01*
X4769140Y2990490D02*
X4809140D01*
X4789140Y2970490D02*
Y3010490D01*
X9374160Y3075580D02*
X9414160D01*
X9394160Y3055580D02*
Y3095580D01*
X10537480Y2984140D02*
X10577480D01*
X10557480Y2964140D02*
Y3004140D01*
X11136920Y2990490D02*
X11176920D01*
X11156920Y2970490D02*
Y3010490D01*
X15928630Y1340760D02*
X15968629D01*
X15948630Y1320760D02*
Y1360760D01*
X15526041Y2916830D02*
X15566040D01*
X15546040Y2896830D02*
Y2936830D01*
X14951910Y3377840D02*
X14991910D01*
X14971910Y3357840D02*
Y3397840D01*
X13186380Y2924450D02*
X13293060D01*
X13239720Y2871110D02*
Y2977790D01*
X15823219Y5520330D02*
X15863220D01*
X15843221Y5500330D02*
Y5540330D01*
X15815601Y5223150D02*
X15855600D01*
X15835600Y5203150D02*
Y5243150D01*
X16045470Y5529220D02*
X16085471D01*
X16065469Y5509220D02*
Y5549220D01*
X15679710Y5662570D02*
X15719710D01*
X15699710Y5642570D02*
Y5682570D01*
X15641611Y2290720D02*
X15681610D01*
X15661610Y2270720D02*
Y2310720D01*
X13076242Y2510398D02*
X13116241D01*
X13096242Y2490398D02*
Y2530398D01*
X13314970Y2204360D02*
X13354970D01*
X13334970Y2184360D02*
Y2224360D01*
X11639840Y4023000D02*
X11679840D01*
X11659840Y4003000D02*
Y4043000D01*
X12010680Y3931560D02*
X12050680D01*
X12030680Y3911560D02*
Y3951560D01*
X14807220Y5119010D02*
X14847220D01*
X14827220Y5099010D02*
Y5139010D01*
X14230695Y4743036D02*
X14270694D01*
X14250694Y4723037D02*
Y4763036D01*
X14447810Y4731660D02*
X14487810D01*
X14467810Y4711660D02*
Y4751660D01*
X16086110Y3450230D02*
X16126109D01*
X16106110Y3430230D02*
Y3470230D01*
X14395050Y3460970D02*
X14435049D01*
X14415050Y3440970D02*
Y3480970D01*
X13577859Y3559450D02*
X13617860D01*
X13597861Y3539450D02*
Y3579450D01*
X15494290Y3140350D02*
X15534290D01*
X15514290Y3120350D02*
Y3160350D01*
X15007880Y3053990D02*
X15047881D01*
X15027879Y3033990D02*
Y3073990D01*
X12756570Y2549150D02*
X12863251D01*
X12809911Y2495810D02*
Y2602490D01*
X11795730Y-433430D02*
X11902410D01*
X11849070Y-486770D02*
Y-380090D01*
X12640280Y-222610D02*
X12746960D01*
X12693620Y-275950D02*
Y-169270D01*
X14075700Y2149750D02*
X14115700D01*
X14095700Y2129750D02*
Y2169750D01*
X14360181Y2963820D02*
X14400180D01*
X14380180Y2943820D02*
Y2983820D01*
X14358910Y2802530D02*
X14398911D01*
X14378909Y2782530D02*
Y2822530D01*
X14524010Y2801260D02*
X14564011D01*
X14544009Y2781260D02*
Y2821260D01*
X14690379Y2802530D02*
X14730380D01*
X14710381Y2782530D02*
Y2822530D01*
X14692920Y2958740D02*
X14732919D01*
X14712920Y2938740D02*
Y2978740D01*
X14530367Y2965077D02*
X14570366D01*
X14550366Y2945077D02*
Y2985077D01*
X14365260Y3135270D02*
X14405260D01*
X14385260Y3115270D02*
Y3155270D01*
X14532899Y3135270D02*
X14572900D01*
X14552901Y3115270D02*
Y3155270D01*
X14700540Y3136540D02*
X14740540D01*
X14720540Y3116540D02*
Y3156540D01*
X13285760Y1549040D02*
X13325760D01*
X13305760Y1529040D02*
Y1569040D01*
X7222780Y3055260D02*
X7262780D01*
X7242780Y3035260D02*
Y3075260D01*
X14950760Y2138570D02*
X14990759D01*
X14970760Y2118570D02*
Y2158570D01*
%TF.MD5,bf520357c2cfc2b076f5a31c23a19bdd*%
M02*
