%TF.GenerationSoftware,Altium Limited,Altium Designer,25.8.1 (18)*%
G04 Layer_Color=8388736*
%FSLAX45Y45*%
%MOMM*%
%TF.SameCoordinates,916E790F-4380-4A4C-B002-6B38F721AB2E*%
%TF.FilePolarity,Negative*%
%TF.FileFunction,Soldermask,Top*%
%TF.Part,Single*%
G01*
G75*
%TA.AperFunction,SMDPad,CuDef*%
%ADD167R,1.20320X1.10320*%
%ADD168R,1.00320X1.00320*%
%ADD169R,1.75320X2.60320*%
%TA.AperFunction,ComponentPad*%
%ADD170C,1.50320*%
%ADD171C,2.00320*%
%ADD172C,2.20320*%
%ADD173O,2.00320X4.00320*%
%ADD174O,1.80320X4.20320*%
%ADD175O,2.00320X2.80320*%
%ADD176R,1.70320X1.70320*%
%ADD177C,3.46710*%
%ADD178O,3.00320X1.72320*%
%ADD179C,1.21920*%
%ADD180C,1.72320*%
%ADD181C,1.70320*%
%ADD182C,3.45440*%
%ADD183R,1.30320X2.00320*%
%ADD184R,2.00320X1.30320*%
%ADD185C,1.20320*%
%ADD186R,2.00320X2.00320*%
%ADD187R,1.92820X1.92820*%
%ADD188C,1.92820*%
%ADD189R,2.40320X4.70320*%
%ADD190R,1.72720X3.00320*%
%ADD191R,2.70320X2.70320*%
%ADD192R,0.70320X0.80320*%
%TA.AperFunction,WasherPad*%
%ADD193C,6.20320*%
%TA.AperFunction,ComponentPad*%
%ADD194C,1.40320*%
G04:AMPARAMS|DCode=195|XSize=3.6032mm|YSize=1.9032mm|CornerRadius=0.5266mm|HoleSize=0mm|Usage=FLASHONLY|Rotation=0.000|XOffset=0mm|YOffset=0mm|HoleType=Round|Shape=RoundedRectangle|*
%AMROUNDEDRECTD195*
21,1,3.60320,0.85000,0,0,0.0*
21,1,2.55001,1.90320,0,0,0.0*
1,1,1.05320,1.27500,-0.42500*
1,1,1.05320,-1.27500,-0.42500*
1,1,1.05320,-1.27500,0.42500*
1,1,1.05320,1.27500,0.42500*
%
%ADD195ROUNDEDRECTD195*%
%ADD196C,1.80320*%
%ADD197C,1.72860*%
%ADD198C,2.40320*%
%ADD199R,1.70320X1.70320*%
%ADD200C,1.19380*%
%TA.AperFunction,ViaPad*%
%ADD201C,1.47320*%
%ADD202C,0.90320*%
G36*
X7010129Y2167535D02*
X7011435Y2167275D01*
X7012696Y2166847D01*
X7013891Y2166258D01*
X7014998Y2165518D01*
X7016000Y2164640D01*
X7016878Y2163639D01*
X7017618Y2162531D01*
X7018207Y2161337D01*
X7018635Y2160075D01*
X7018895Y2158769D01*
X7018982Y2157440D01*
Y2007440D01*
X7018895Y2006111D01*
X7018635Y2004805D01*
X7018207Y2003544D01*
X7017618Y2002349D01*
X7016878Y2001242D01*
X7016000Y2000240D01*
X7014998Y1999362D01*
X7013891Y1998622D01*
X7012696Y1998033D01*
X7011435Y1997605D01*
X7010129Y1997345D01*
X7008800Y1997258D01*
X6802897D01*
X6802763Y1997267D01*
X6802631Y1997262D01*
X6802099Y1997310D01*
X6801568Y1997345D01*
X6801439Y1997371D01*
X6801305Y1997383D01*
X6789645Y1999230D01*
X6789514Y1999259D01*
X6789382Y1999275D01*
X6788863Y1999407D01*
X6788346Y1999524D01*
X6788221Y1999570D01*
X6788091Y1999603D01*
X6776864Y2003251D01*
X6776739Y2003301D01*
X6776611Y2003337D01*
X6776120Y2003547D01*
X6775627Y2003745D01*
X6775511Y2003809D01*
X6775387Y2003862D01*
X6764869Y2009222D01*
X6764754Y2009291D01*
X6764633Y2009346D01*
X6764184Y2009630D01*
X6763724Y2009903D01*
X6763619Y2009986D01*
X6763506Y2010057D01*
X6753956Y2016996D01*
X6753853Y2017081D01*
X6753742Y2017155D01*
X6753343Y2017506D01*
X6752932Y2017848D01*
X6752841Y2017946D01*
X6752741Y2018034D01*
X6744393Y2026381D01*
X6744305Y2026482D01*
X6744207Y2026572D01*
X6743868Y2026980D01*
X6743515Y2027382D01*
X6743441Y2027494D01*
X6743356Y2027596D01*
X6736417Y2037147D01*
X6736346Y2037259D01*
X6736263Y2037364D01*
X6735988Y2037826D01*
X6735706Y2038273D01*
X6735651Y2038393D01*
X6735582Y2038509D01*
X6730222Y2049027D01*
X6730169Y2049151D01*
X6730104Y2049267D01*
X6729907Y2049760D01*
X6729697Y2050251D01*
X6729661Y2050379D01*
X6729611Y2050504D01*
X6725963Y2061731D01*
X6725930Y2061862D01*
X6725884Y2061986D01*
X6725767Y2062503D01*
X6725635Y2063022D01*
X6725619Y2063154D01*
X6725590Y2063285D01*
X6723743Y2074945D01*
X6723731Y2075079D01*
X6723705Y2075208D01*
X6723670Y2075740D01*
X6723622Y2076271D01*
X6723627Y2076404D01*
X6723618Y2076537D01*
Y2088343D01*
X6723627Y2088476D01*
X6723622Y2088609D01*
X6723670Y2089140D01*
X6723705Y2089671D01*
X6723731Y2089801D01*
X6723743Y2089935D01*
X6725590Y2101595D01*
X6725619Y2101726D01*
X6725635Y2101858D01*
X6725767Y2102377D01*
X6725884Y2102894D01*
X6725930Y2103018D01*
X6725963Y2103149D01*
X6729611Y2114376D01*
X6729661Y2114501D01*
X6729697Y2114629D01*
X6729907Y2115119D01*
X6730104Y2115613D01*
X6730169Y2115729D01*
X6730222Y2115853D01*
X6735582Y2126371D01*
X6735650Y2126486D01*
X6735706Y2126607D01*
X6735990Y2127056D01*
X6736263Y2127516D01*
X6736346Y2127621D01*
X6736417Y2127733D01*
X6743356Y2137284D01*
X6743441Y2137387D01*
X6743515Y2137498D01*
X6743866Y2137897D01*
X6744207Y2138308D01*
X6744306Y2138399D01*
X6744393Y2138499D01*
X6752741Y2146846D01*
X6752842Y2146935D01*
X6752932Y2147032D01*
X6753340Y2147372D01*
X6753742Y2147724D01*
X6753853Y2147799D01*
X6753956Y2147884D01*
X6763506Y2154823D01*
X6763619Y2154894D01*
X6763724Y2154977D01*
X6764186Y2155252D01*
X6764633Y2155534D01*
X6764753Y2155589D01*
X6764869Y2155658D01*
X6775387Y2161018D01*
X6775511Y2161071D01*
X6775627Y2161135D01*
X6776120Y2161332D01*
X6776611Y2161543D01*
X6776739Y2161579D01*
X6776864Y2161629D01*
X6788091Y2165277D01*
X6788221Y2165310D01*
X6788346Y2165356D01*
X6788861Y2165473D01*
X6789382Y2165605D01*
X6789516Y2165621D01*
X6789645Y2165650D01*
X6801304Y2167497D01*
X6801436Y2167509D01*
X6801568Y2167535D01*
X6802102Y2167570D01*
X6802631Y2167618D01*
X6802763Y2167613D01*
X6802897Y2167622D01*
X7008800D01*
X7010129Y2167535D01*
D02*
G37*
G36*
X7494209Y2167676D02*
X7494731Y2167650D01*
X7494868Y2167625D01*
X7495011Y2167614D01*
X7506817Y2165918D01*
X7506957Y2165888D01*
X7507097Y2165874D01*
X7507608Y2165751D01*
X7508120Y2165643D01*
X7508254Y2165596D01*
X7508392Y2165562D01*
X7519782Y2162022D01*
X7519914Y2161971D01*
X7520050Y2161934D01*
X7520534Y2161733D01*
X7521025Y2161544D01*
X7521150Y2161476D01*
X7521280Y2161422D01*
X7531967Y2156126D01*
X7532089Y2156056D01*
X7532219Y2155997D01*
X7532667Y2155721D01*
X7533120Y2155458D01*
X7533232Y2155372D01*
X7533352Y2155298D01*
X7543068Y2148380D01*
X7543178Y2148291D01*
X7543297Y2148213D01*
X7543693Y2147871D01*
X7544101Y2147538D01*
X7544198Y2147435D01*
X7544305Y2147343D01*
X7552807Y2138976D01*
X7552901Y2138870D01*
X7553005Y2138775D01*
X7553344Y2138373D01*
X7553693Y2137982D01*
X7553772Y2137866D01*
X7553863Y2137756D01*
X7560936Y2128152D01*
X7561012Y2128033D01*
X7561100Y2127922D01*
X7561372Y2127470D01*
X7561654Y2127030D01*
X7561714Y2126903D01*
X7561787Y2126781D01*
X7567253Y2116179D01*
X7567309Y2116050D01*
X7567379Y2115926D01*
X7567575Y2115438D01*
X7567784Y2114958D01*
X7567823Y2114822D01*
X7567876Y2114691D01*
X7571598Y2103359D01*
X7571633Y2103223D01*
X7571683Y2103089D01*
X7571800Y2102575D01*
X7571930Y2102069D01*
X7571947Y2101928D01*
X7571979Y2101791D01*
X7573864Y2090013D01*
X7573877Y2089872D01*
X7573905Y2089733D01*
X7573939Y2089206D01*
X7573988Y2088687D01*
X7573982Y2088546D01*
X7573992Y2088404D01*
Y2076476D01*
X7573982Y2076334D01*
X7573988Y2076193D01*
X7573939Y2075674D01*
X7573905Y2075147D01*
X7573877Y2075008D01*
X7573864Y2074867D01*
X7571979Y2063089D01*
X7571947Y2062951D01*
X7571930Y2062811D01*
X7571800Y2062305D01*
X7571683Y2061791D01*
X7571633Y2061657D01*
X7571598Y2061521D01*
X7567876Y2050189D01*
X7567823Y2050058D01*
X7567784Y2049922D01*
X7567575Y2049442D01*
X7567379Y2048954D01*
X7567309Y2048830D01*
X7567253Y2048700D01*
X7561787Y2038099D01*
X7561713Y2037977D01*
X7561654Y2037850D01*
X7561372Y2037410D01*
X7561100Y2036958D01*
X7561012Y2036847D01*
X7560936Y2036728D01*
X7553863Y2027123D01*
X7553772Y2027014D01*
X7553693Y2026898D01*
X7553344Y2026507D01*
X7553005Y2026105D01*
X7552902Y2026010D01*
X7552807Y2025904D01*
X7544305Y2017537D01*
X7544197Y2017444D01*
X7544101Y2017342D01*
X7543693Y2017009D01*
X7543297Y2016667D01*
X7543179Y2016590D01*
X7543069Y2016500D01*
X7533352Y2009582D01*
X7533232Y2009508D01*
X7533120Y2009421D01*
X7532664Y2009157D01*
X7532219Y2008882D01*
X7532091Y2008825D01*
X7531967Y2008753D01*
X7521280Y2003458D01*
X7521151Y2003404D01*
X7521025Y2003336D01*
X7520532Y2003146D01*
X7520050Y2002946D01*
X7519914Y2002909D01*
X7519782Y2002858D01*
X7508392Y1999318D01*
X7508254Y1999284D01*
X7508120Y1999237D01*
X7507608Y1999129D01*
X7507097Y1999006D01*
X7506956Y1998991D01*
X7506817Y1998962D01*
X7495011Y1997266D01*
X7494868Y1997255D01*
X7494731Y1997230D01*
X7494209Y1997204D01*
X7493683Y1997163D01*
X7493542Y1997171D01*
X7493401Y1997164D01*
X7487517Y1997258D01*
X7288800Y1997258D01*
X7287471Y1997345D01*
X7286165Y1997605D01*
X7284904Y1998033D01*
X7283709Y1998622D01*
X7282602Y1999362D01*
X7281600Y2000240D01*
X7280722Y2001242D01*
X7279982Y2002349D01*
X7279393Y2003544D01*
X7278965Y2004805D01*
X7278705Y2006111D01*
X7278618Y2007440D01*
Y2157440D01*
X7278705Y2158769D01*
X7278965Y2160075D01*
X7279393Y2161337D01*
X7279982Y2162531D01*
X7280722Y2163639D01*
X7281600Y2164640D01*
X7282602Y2165518D01*
X7283709Y2166258D01*
X7284904Y2166847D01*
X7286165Y2167275D01*
X7287471Y2167535D01*
X7288800Y2167622D01*
X7487517D01*
X7493401Y2167716D01*
X7493542Y2167709D01*
X7493683Y2167717D01*
X7494209Y2167676D01*
D02*
G37*
D167*
X5858160Y8456910D02*
D03*
Y8294350D02*
D03*
X5999130Y8456910D02*
D03*
Y8294350D02*
D03*
X6140100Y8456910D02*
D03*
Y8294350D02*
D03*
X6281070Y8456910D02*
D03*
Y8294350D02*
D03*
X6422040Y8456910D02*
D03*
Y8294350D02*
D03*
X6563010Y8456910D02*
D03*
Y8294350D02*
D03*
X6703980Y8456910D02*
D03*
Y8294350D02*
D03*
X6844950Y8456910D02*
D03*
Y8294350D02*
D03*
X6985920Y8456910D02*
D03*
Y8294350D02*
D03*
X7979060Y8431510D02*
D03*
Y8268950D02*
D03*
X8115267Y8431510D02*
D03*
Y8268950D02*
D03*
X8251475Y8431510D02*
D03*
Y8268950D02*
D03*
X8387682Y8431510D02*
D03*
Y8268950D02*
D03*
X8523890Y8431510D02*
D03*
Y8268950D02*
D03*
X8660097Y8431510D02*
D03*
Y8268950D02*
D03*
X8796305Y8431510D02*
D03*
Y8268950D02*
D03*
X8932512Y8431510D02*
D03*
Y8268950D02*
D03*
X9068720Y8431510D02*
D03*
Y8268950D02*
D03*
D168*
X12832027Y7291980D02*
D03*
X12982024D02*
D03*
X313105Y7376000D02*
D03*
X463104D02*
D03*
D169*
X2287662Y7054108D02*
D03*
Y7694109D02*
D03*
X2687662Y7054108D02*
D03*
Y7694109D02*
D03*
D170*
X6899500Y8800200D02*
D03*
X5899500D02*
D03*
X6399500D02*
D03*
X6149500D02*
D03*
X6649500D02*
D03*
X6149500Y9300200D02*
D03*
X6649500D02*
D03*
X8148100D02*
D03*
X7648100D02*
D03*
X8148100Y8800200D02*
D03*
X7648100D02*
D03*
X7898100D02*
D03*
X7398100D02*
D03*
X8398100D02*
D03*
X15149289Y6533980D02*
D03*
Y7033980D02*
D03*
Y6783980D02*
D03*
Y7283980D02*
D03*
Y6283980D02*
D03*
X16399289D02*
D03*
X16149289D02*
D03*
Y7283980D02*
D03*
X16399289D02*
D03*
X8896700Y10050229D02*
D03*
Y9800229D02*
D03*
X9896700D02*
D03*
Y10050229D02*
D03*
Y8800230D02*
D03*
X8896700D02*
D03*
X9396700D02*
D03*
X9146700D02*
D03*
X9646700D02*
D03*
X4400900Y10050230D02*
D03*
Y9800230D02*
D03*
X5400900D02*
D03*
Y10050230D02*
D03*
Y8800230D02*
D03*
X4400900D02*
D03*
X4900900D02*
D03*
X4650900D02*
D03*
X5150900D02*
D03*
D171*
X6399500Y9300200D02*
D03*
X7898100D02*
D03*
X15649289Y6783980D02*
D03*
X9396700Y9300230D02*
D03*
X13093671Y1085490D02*
D03*
X4770090Y-1871070D02*
D03*
X5024090D02*
D03*
X5278090D02*
D03*
X4770090Y-1617070D02*
D03*
X5024090D02*
D03*
X5278090D02*
D03*
X4900900Y9300230D02*
D03*
X14150310Y1077870D02*
D03*
X14404311D02*
D03*
X14658310D02*
D03*
D172*
X5774500Y9150200D02*
D03*
X7024500D02*
D03*
X8523100D02*
D03*
X7273100D02*
D03*
X6874860Y-1572250D02*
D03*
X7999860Y-1322250D02*
D03*
X7874860Y-1572250D02*
D03*
Y-2072250D02*
D03*
X6874860D02*
D03*
X6749860Y-1322250D02*
D03*
X8371650D02*
D03*
X8496650Y-2072250D02*
D03*
X9496650D02*
D03*
Y-1572250D02*
D03*
X9621650Y-1322250D02*
D03*
X8496650Y-1572250D02*
D03*
D173*
X5899500Y9925200D02*
D03*
X6899500D02*
D03*
X8398100D02*
D03*
X7398100D02*
D03*
D174*
X6179500Y9900200D02*
D03*
X6619500D02*
D03*
X8118100D02*
D03*
X7678100D02*
D03*
D175*
X5899500Y9360200D02*
D03*
X6899500D02*
D03*
X8398100D02*
D03*
X7398100D02*
D03*
D176*
X6399500Y9800200D02*
D03*
X7898100D02*
D03*
D177*
X-33619Y3678611D02*
D03*
X-859119Y7044111D02*
D03*
X791881D02*
D03*
D178*
X12870200Y6138799D02*
D03*
D179*
X13350200Y6970179D02*
D03*
X11910200Y6138799D02*
D03*
X13350200Y5307419D02*
D03*
D180*
X12551600Y6138799D02*
D03*
X13188800D02*
D03*
D181*
X4639280Y7253880D02*
D03*
X4893280D02*
D03*
X5147280D02*
D03*
X5401280D02*
D03*
X5655280D02*
D03*
X5909280D02*
D03*
X6163280D02*
D03*
X6417280D02*
D03*
X6671280D02*
D03*
X6925280D02*
D03*
X7179280D02*
D03*
X7433280D02*
D03*
X7687280D02*
D03*
X7941280D02*
D03*
X4385280D02*
D03*
X4131280D02*
D03*
X9671020D02*
D03*
X9163020D02*
D03*
X9417020D02*
D03*
X9925020D02*
D03*
X10320040Y-2051410D02*
D03*
X10520040D02*
D03*
X10720040D02*
D03*
X10320040Y-2251410D02*
D03*
X10520040D02*
D03*
D182*
X10895300Y4155080D02*
D03*
Y7203080D02*
D03*
X3402300Y4155080D02*
D03*
Y7203080D02*
D03*
D183*
X16149289Y6783980D02*
D03*
X8896700Y9300230D02*
D03*
X9146700D02*
D03*
X9646700D02*
D03*
X9896700D02*
D03*
X4400900Y9300230D02*
D03*
X4650900D02*
D03*
X5150900D02*
D03*
X5400900D02*
D03*
D184*
X15649289Y6283980D02*
D03*
Y6533980D02*
D03*
Y7033980D02*
D03*
Y7283980D02*
D03*
X9396700Y9800229D02*
D03*
X4900900Y9800230D02*
D03*
D185*
X13093671Y831490D02*
D03*
X13347670D02*
D03*
D186*
X13347670Y1085490D02*
D03*
X14912309Y1077870D02*
D03*
D187*
X1358870Y4637680D02*
D03*
D188*
X1612870D02*
D03*
X1866870D02*
D03*
X2120870D02*
D03*
X2374870D02*
D03*
D189*
X7574860Y-2072250D02*
D03*
X7174860D02*
D03*
X8796650D02*
D03*
X9196650D02*
D03*
D190*
X12255470Y-1429110D02*
D03*
X11735470D02*
D03*
X11395470D02*
D03*
X12345470Y-2159110D02*
D03*
X11355470D02*
D03*
D191*
X11725470Y-2059110D02*
D03*
D192*
X13030811Y-1493790D02*
D03*
X13110809D02*
D03*
Y-1408790D02*
D03*
Y-1323790D02*
D03*
X13030811D02*
D03*
Y-1408790D02*
D03*
D193*
X0Y0D02*
D03*
Y7800000D02*
D03*
X14300000D02*
D03*
Y0D02*
D03*
D194*
X13159520Y5519080D02*
D03*
X12909520D02*
D03*
X12659520D02*
D03*
X13159520Y5839080D02*
D03*
X12909520D02*
D03*
X12659520D02*
D03*
D195*
X10323800Y2474640D02*
D03*
Y1334640D02*
D03*
X3973800Y2474640D02*
D03*
Y1334640D02*
D03*
D196*
X9573800Y1654640D02*
D03*
Y1904640D02*
D03*
Y2154640D02*
D03*
X11023800Y1654640D02*
D03*
Y2154640D02*
D03*
X3273800Y1654640D02*
D03*
Y2154640D02*
D03*
X4723800Y1654640D02*
D03*
Y1904640D02*
D03*
Y2154640D02*
D03*
D197*
X7288800Y2082440D02*
D03*
X7008800D02*
D03*
D198*
X10040040Y-2151410D02*
D03*
X11000040D02*
D03*
D199*
X10720040Y-2251410D02*
D03*
D200*
X-1215420Y5816240D02*
D03*
X-1723420Y5917840D02*
D03*
Y5714640D02*
D03*
D201*
X1968500Y7744460D02*
D03*
D202*
X12118310Y-847450D02*
D03*
%TF.MD5,42136ff8d298839a816cd9ba40833b76*%
M02*
