%TF.GenerationSoftware,Altium Limited,Altium Designer,25.8.1 (18)*%
G04 Layer_Physical_Order=3*
G04 Layer_Color=128*
%FSLAX45Y45*%
%MOMM*%
%TF.SameCoordinates,916E790F-4380-4A4C-B002-6B38F721AB2E*%
%TF.FilePolarity,Negative*%
%TF.FileFunction,Copper,L3,Inr,Plane*%
%TF.Part,Single*%
G01*
G75*
%TA.AperFunction,NonConductor*%
%ADD53C,1.01600*%
%ADD54C,0.25400*%
%TA.AperFunction,ComponentPad*%
%ADD55C,2.21600*%
%ADD56C,2.01600*%
%ADD57C,2.51600*%
%ADD59O,2.61600X5.01600*%
%ADD60O,2.51600X4.71600*%
%ADD63O,2.51600X3.51600*%
%ADD64C,4.27990*%
%ADD66C,4.21600*%
%ADD67C,1.93600*%
%ADD68C,2.11600*%
G04:AMPARAMS|DCode=69|XSize=2.624mm|YSize=2.624mm|CornerRadius=0mm|HoleSize=0mm|Usage=FLASHONLY|Rotation=0.000|XOffset=0mm|YOffset=0mm|HoleType=Round|Shape=Relief|Width=0.1778mm|Gap=0.254mm|Entries=4|*
%AMTHD69*
7,0,0,2.62400,2.11600,0.17780,45*
%
%ADD69THD69*%
%ADD70C,3.50520*%
%ADD72O,2.51600X1.81600*%
%ADD75O,1.81600X2.51600*%
%ADD76C,2.16600*%
G04:AMPARAMS|DCode=77|XSize=2.674mm|YSize=2.674mm|CornerRadius=0mm|HoleSize=0mm|Usage=FLASHONLY|Rotation=0.000|XOffset=0mm|YOffset=0mm|HoleType=Round|Shape=Relief|Width=0.1778mm|Gap=0.254mm|Entries=4|*
%AMTHD77*
7,0,0,2.67400,2.16600,0.17780,45*
%
%ADD77THD77*%
%ADD78O,3.01600X5.01600*%
%ADD80R,2.01600X3.21600*%
%ADD81R,2.01600X3.41600*%
%ADD82C,3.26600*%
%TA.AperFunction,WasherPad*%
%ADD84C,3.51600*%
%TA.AperFunction,ComponentPad*%
G04:AMPARAMS|DCode=85|XSize=2.724mm|YSize=2.724mm|CornerRadius=0mm|HoleSize=0mm|Usage=FLASHONLY|Rotation=0.000|XOffset=0mm|YOffset=0mm|HoleType=Round|Shape=Relief|Width=0.1778mm|Gap=0.254mm|Entries=4|*
%AMTHD85*
7,0,0,2.72400,2.21600,0.17780,45*
%
%ADD85THD85*%
%ADD86C,1.81600*%
%ADD88O,4.01600X2.41600*%
%ADD89C,2.00660*%
%TA.AperFunction,ViaPad*%
G04:AMPARAMS|DCode=90|XSize=1.924mm|YSize=1.924mm|CornerRadius=0mm|HoleSize=0mm|Usage=FLASHONLY|Rotation=0.000|XOffset=0mm|YOffset=0mm|HoleType=Round|Shape=Relief|Width=0.1778mm|Gap=0.254mm|Entries=4|*
%AMTHD90*
7,0,0,1.92400,1.41600,0.17780,45*
%
%ADD90THD90*%
%ADD91C,1.41600*%
%ADD95C,2.08280*%
%TA.AperFunction,ComponentPad*%
%ADD96O,3.31600X1.93600*%
%ADD97C,1.46600*%
%TA.AperFunction,ViaPad*%
G04:AMPARAMS|DCode=98|XSize=2.2352mm|YSize=2.2352mm|CornerRadius=0mm|HoleSize=0mm|Usage=FLASHONLY|Rotation=0.000|XOffset=0mm|YOffset=0mm|HoleType=Round|Shape=Relief|Width=0.1778mm|Gap=0.254mm|Entries=4|*
%AMTHD98*
7,0,0,2.23520,1.72720,0.17780,45*
%
%ADD98THD98*%
%ADD99C,1.65100*%
G36*
X10935396Y7330225D02*
X10959665Y7320173D01*
X10981505Y7305580D01*
X11000080Y7287005D01*
X11014673Y7265165D01*
X11024725Y7240897D01*
X11029850Y7215134D01*
Y7202000D01*
Y7188866D01*
X11024725Y7163103D01*
X11014673Y7138835D01*
X11000080Y7116994D01*
X10981505Y7098420D01*
X10959665Y7083827D01*
X10935396Y7073775D01*
X10909634Y7068650D01*
X10883366D01*
X10857603Y7073775D01*
X10833335Y7083827D01*
X10811494Y7098420D01*
X10792920Y7116994D01*
X10778327Y7138835D01*
X10768274Y7163103D01*
X10763150Y7188866D01*
Y7202000D01*
Y7215134D01*
X10768274Y7240897D01*
X10778327Y7265165D01*
X10792920Y7287005D01*
X10811494Y7305580D01*
X10833335Y7320173D01*
X10857603Y7330225D01*
X10883366Y7335350D01*
X10909634D01*
X10935396Y7330225D01*
D02*
G37*
G36*
X3442396D02*
X3466665Y7320173D01*
X3488505Y7305580D01*
X3507080Y7287005D01*
X3521673Y7265165D01*
X3531725Y7240897D01*
X3536850Y7215134D01*
Y7202000D01*
Y7188866D01*
X3531725Y7163103D01*
X3521673Y7138835D01*
X3507080Y7116994D01*
X3488505Y7098420D01*
X3466665Y7083827D01*
X3442396Y7073775D01*
X3416634Y7068650D01*
X3390366D01*
X3364603Y7073775D01*
X3340335Y7083827D01*
X3318494Y7098420D01*
X3299920Y7116994D01*
X3285327Y7138835D01*
X3275274Y7163103D01*
X3270150Y7188866D01*
Y7202000D01*
Y7215134D01*
X3275274Y7240897D01*
X3285327Y7265165D01*
X3299920Y7287005D01*
X3318494Y7305580D01*
X3340335Y7320173D01*
X3364603Y7330225D01*
X3390366Y7335350D01*
X3416634D01*
X3442396Y7330225D01*
D02*
G37*
G36*
X10625990Y7062300D02*
X10641000D01*
X10670443Y7056443D01*
X10698178Y7044955D01*
X10723139Y7028277D01*
X10744366Y7007049D01*
X10761045Y6982088D01*
X10772533Y6954353D01*
X10778390Y6924910D01*
Y6909900D01*
X10778390D01*
Y6430722D01*
X11226116Y6039124D01*
X11238217Y6028541D01*
X11257468Y6002792D01*
X11270923Y5973593D01*
X11277990Y5942230D01*
X11278174Y5926156D01*
X11278175Y5926156D01*
X11283761Y5438221D01*
X11283951Y5421705D01*
X11277244Y5389361D01*
X11263764Y5359204D01*
X11244136Y5332636D01*
X11231704Y5321762D01*
X11231704Y5321762D01*
X10778390Y4925278D01*
X10778390Y4446100D01*
Y4431090D01*
X10772533Y4401647D01*
X10761045Y4373911D01*
X10744366Y4348951D01*
X10723139Y4327723D01*
X10698178Y4311045D01*
X10670443Y4299557D01*
X10641000Y4293700D01*
X10625990D01*
Y4293700D01*
X3674010Y4293700D01*
X3659000D01*
X3629556Y4299557D01*
X3601821Y4311045D01*
X3576861Y4327723D01*
X3555633Y4348951D01*
X3538955Y4373911D01*
X3527467Y4401647D01*
X3521610Y4431090D01*
Y4446100D01*
X3521610D01*
X3521610Y6909900D01*
Y6924910D01*
X3527467Y6954353D01*
X3538955Y6982088D01*
X3555633Y7007049D01*
X3576861Y7028277D01*
X3601821Y7044955D01*
X3629556Y7056443D01*
X3659000Y7062300D01*
X3674010D01*
Y7062300D01*
X10625990Y7062300D01*
D02*
G37*
G36*
X10935396Y4282225D02*
X10959665Y4272173D01*
X10981505Y4257580D01*
X11000080Y4239005D01*
X11014673Y4217165D01*
X11024725Y4192897D01*
X11029850Y4167134D01*
Y4154000D01*
Y4140866D01*
X11024725Y4115103D01*
X11014673Y4090835D01*
X11000080Y4068994D01*
X10981505Y4050420D01*
X10959665Y4035827D01*
X10935396Y4025775D01*
X10909634Y4020650D01*
X10883366D01*
X10857603Y4025775D01*
X10833335Y4035827D01*
X10811494Y4050420D01*
X10792920Y4068994D01*
X10778327Y4090835D01*
X10768274Y4115103D01*
X10763150Y4140866D01*
Y4154000D01*
Y4167134D01*
X10768274Y4192897D01*
X10778327Y4217165D01*
X10792920Y4239005D01*
X10811494Y4257580D01*
X10833335Y4272173D01*
X10857603Y4282225D01*
X10883366Y4287350D01*
X10909634D01*
X10935396Y4282225D01*
D02*
G37*
G36*
X3442396D02*
X3466665Y4272173D01*
X3488505Y4257580D01*
X3507080Y4239005D01*
X3521673Y4217165D01*
X3531725Y4192897D01*
X3536850Y4167134D01*
Y4154000D01*
Y4140866D01*
X3531725Y4115103D01*
X3521673Y4090835D01*
X3507080Y4068994D01*
X3488505Y4050420D01*
X3466665Y4035827D01*
X3442396Y4025775D01*
X3416634Y4020650D01*
X3390366D01*
X3364603Y4025775D01*
X3340335Y4035827D01*
X3318494Y4050420D01*
X3299920Y4068994D01*
X3285327Y4090835D01*
X3275274Y4115103D01*
X3270150Y4140866D01*
Y4154000D01*
Y4167134D01*
X3275274Y4192897D01*
X3285327Y4217165D01*
X3299920Y4239005D01*
X3318494Y4257580D01*
X3340335Y4272173D01*
X3364603Y4282225D01*
X3390366Y4287350D01*
X3416634D01*
X3442396Y4282225D01*
D02*
G37*
G36*
X7278988Y2666133D02*
X7286133Y2658988D01*
X7290000Y2649652D01*
Y2644600D01*
Y1072799D01*
Y1067747D01*
X7286133Y1058411D01*
X7278988Y1051266D01*
X7269652Y1047399D01*
X7030597D01*
X7021262Y1051266D01*
X7014117Y1058411D01*
X7010250Y1067747D01*
Y1072799D01*
Y2644600D01*
Y2649652D01*
X7014117Y2658988D01*
X7021262Y2666133D01*
X7030597Y2670000D01*
X7269652D01*
X7278988Y2666133D01*
D02*
G37*
D53*
X7269652Y2670000D02*
X7278988Y2666133D01*
X7286133Y2658988D01*
X7290000Y2649652D01*
Y2644600D02*
Y2649652D01*
Y1072799D02*
Y2644600D01*
Y1067747D02*
Y1072799D01*
X7286133Y1058411D02*
X7290000Y1067747D01*
X7278988Y1051266D02*
X7286133Y1058411D01*
X7269652Y1047399D02*
X7278988Y1051266D01*
X7030597Y1047399D02*
X7269652D01*
X7021262Y1051266D02*
X7030597Y1047399D01*
X7014117Y1058411D02*
X7021262Y1051266D01*
X7010250Y1067747D02*
X7014117Y1058411D01*
X7010250Y1067747D02*
Y1072799D01*
Y2644600D01*
Y2649652D01*
X7014117Y2658988D01*
X7021262Y2666133D01*
X7030597Y2670000D01*
X7269652D01*
X3416634Y4287350D02*
X3442396Y4282225D01*
X3466665Y4272173D01*
X3488505Y4257580D01*
X3507080Y4239005D01*
X3521673Y4217165D01*
X3531725Y4192897D01*
X3536850Y4167134D01*
Y4154000D02*
Y4167134D01*
Y4140866D02*
Y4154000D01*
X3531725Y4115103D02*
X3536850Y4140866D01*
X3521673Y4090835D02*
X3531725Y4115103D01*
X3507080Y4068994D02*
X3521673Y4090835D01*
X3488505Y4050420D02*
X3507080Y4068994D01*
X3466665Y4035827D02*
X3488505Y4050420D01*
X3442396Y4025775D02*
X3466665Y4035827D01*
X3416634Y4020650D02*
X3442396Y4025775D01*
X3390366Y4020650D02*
X3416634D01*
X3364603Y4025775D02*
X3390366Y4020650D01*
X3340335Y4035827D02*
X3364603Y4025775D01*
X3318494Y4050420D02*
X3340335Y4035827D01*
X3299920Y4068994D02*
X3318494Y4050420D01*
X3285327Y4090835D02*
X3299920Y4068994D01*
X3275274Y4115103D02*
X3285327Y4090835D01*
X3270150Y4140866D02*
X3275274Y4115103D01*
X3270150Y4140866D02*
Y4154000D01*
Y4167134D01*
X3275274Y4192897D01*
X3285327Y4217165D01*
X3299920Y4239005D01*
X3318494Y4257580D01*
X3340335Y4272173D01*
X3364603Y4282225D01*
X3390366Y4287350D01*
X3416634D01*
X10909634D02*
X10935396Y4282225D01*
X10959665Y4272173D01*
X10981505Y4257580D01*
X11000080Y4239005D01*
X11014673Y4217165D01*
X11024725Y4192897D01*
X11029850Y4167134D01*
Y4154000D02*
Y4167134D01*
Y4140866D02*
Y4154000D01*
X11024725Y4115103D02*
X11029850Y4140866D01*
X11014673Y4090835D02*
X11024725Y4115103D01*
X11000080Y4068994D02*
X11014673Y4090835D01*
X10981505Y4050420D02*
X11000080Y4068994D01*
X10959665Y4035827D02*
X10981505Y4050420D01*
X10935396Y4025775D02*
X10959665Y4035827D01*
X10909634Y4020650D02*
X10935396Y4025775D01*
X10883366Y4020650D02*
X10909634D01*
X10857603Y4025775D02*
X10883366Y4020650D01*
X10833335Y4035827D02*
X10857603Y4025775D01*
X10811494Y4050420D02*
X10833335Y4035827D01*
X10792920Y4068994D02*
X10811494Y4050420D01*
X10778327Y4090835D02*
X10792920Y4068994D01*
X10768274Y4115103D02*
X10778327Y4090835D01*
X10763150Y4140866D02*
X10768274Y4115103D01*
X10763150Y4140866D02*
Y4154000D01*
Y4167134D01*
X10768274Y4192897D01*
X10778327Y4217165D01*
X10792920Y4239005D01*
X10811494Y4257580D01*
X10833335Y4272173D01*
X10857603Y4282225D01*
X10883366Y4287350D01*
X10909634D01*
X3674010Y7062300D02*
X10625990Y7062300D01*
X10641000D01*
X10670443Y7056443D01*
X10698178Y7044955D01*
X10723139Y7028277D01*
X10744366Y7007049D01*
X10761045Y6982088D01*
X10772533Y6954353D01*
X10778390Y6924910D01*
Y6909900D02*
Y6924910D01*
Y6909900D02*
X10778390D01*
Y6430722D02*
Y6909900D01*
Y6430722D02*
X11226116Y6039124D01*
X11238217Y6028541D01*
X11257468Y6002792D01*
X11270923Y5973593D01*
X11277990Y5942230D01*
X11278174Y5926156D01*
X11278175Y5926156D01*
X11283761Y5438221D01*
X11283951Y5421705D01*
X11277244Y5389361D02*
X11283951Y5421705D01*
X11263764Y5359204D02*
X11277244Y5389361D01*
X11244136Y5332636D02*
X11263764Y5359204D01*
X11231704Y5321762D02*
X11244136Y5332636D01*
X11231704Y5321762D02*
X11231704Y5321762D01*
X10778390Y4925278D02*
X11231704Y5321762D01*
X10778390Y4446100D02*
X10778390Y4925278D01*
X10778390Y4431090D02*
Y4446100D01*
X10772533Y4401647D02*
X10778390Y4431090D01*
X10761045Y4373911D02*
X10772533Y4401647D01*
X10744366Y4348951D02*
X10761045Y4373911D01*
X10723139Y4327723D02*
X10744366Y4348951D01*
X10698178Y4311045D02*
X10723139Y4327723D01*
X10670443Y4299557D02*
X10698178Y4311045D01*
X10641000Y4293700D02*
X10670443Y4299557D01*
X10625990Y4293700D02*
X10641000D01*
X10625990Y4293700D02*
Y4293700D01*
X3674010D02*
X10625990Y4293700D01*
X3659000Y4293700D02*
X3674010D01*
X3629556Y4299557D02*
X3659000Y4293700D01*
X3601821Y4311045D02*
X3629556Y4299557D01*
X3576861Y4327723D02*
X3601821Y4311045D01*
X3555633Y4348951D02*
X3576861Y4327723D01*
X3538955Y4373911D02*
X3555633Y4348951D01*
X3527467Y4401647D02*
X3538955Y4373911D01*
X3521610Y4431090D02*
X3527467Y4401647D01*
X3521610Y4431090D02*
Y4446100D01*
X3521610D02*
X3521610D01*
X3521610D02*
X3521610Y6909900D01*
Y6924910D01*
X3527467Y6954353D01*
X3538955Y6982088D01*
X3555633Y7007049D01*
X3576861Y7028277D01*
X3601821Y7044955D01*
X3629556Y7056443D01*
X3659000Y7062300D01*
X3674010D01*
Y7062300D01*
X3416634Y7335350D02*
X3442396Y7330225D01*
X3466665Y7320173D01*
X3488505Y7305580D01*
X3507080Y7287005D01*
X3521673Y7265165D01*
X3531725Y7240897D01*
X3536850Y7215134D01*
Y7202000D02*
Y7215134D01*
Y7188866D02*
Y7202000D01*
X3531725Y7163103D02*
X3536850Y7188866D01*
X3521673Y7138835D02*
X3531725Y7163103D01*
X3507080Y7116994D02*
X3521673Y7138835D01*
X3488505Y7098420D02*
X3507080Y7116994D01*
X3466665Y7083827D02*
X3488505Y7098420D01*
X3442396Y7073775D02*
X3466665Y7083827D01*
X3416634Y7068650D02*
X3442396Y7073775D01*
X3390366Y7068650D02*
X3416634D01*
X3364603Y7073775D02*
X3390366Y7068650D01*
X3340335Y7083827D02*
X3364603Y7073775D01*
X3318494Y7098420D02*
X3340335Y7083827D01*
X3299920Y7116994D02*
X3318494Y7098420D01*
X3285327Y7138835D02*
X3299920Y7116994D01*
X3275274Y7163103D02*
X3285327Y7138835D01*
X3270150Y7188866D02*
X3275274Y7163103D01*
X3270150Y7188866D02*
Y7202000D01*
Y7215134D01*
X3275274Y7240897D01*
X3285327Y7265165D01*
X3299920Y7287005D01*
X3318494Y7305580D01*
X3340335Y7320173D01*
X3364603Y7330225D01*
X3390366Y7335350D01*
X3416634D01*
X10909634D02*
X10935396Y7330225D01*
X10959665Y7320173D01*
X10981505Y7305580D01*
X11000080Y7287005D01*
X11014673Y7265165D01*
X11024725Y7240897D01*
X11029850Y7215134D01*
Y7202000D02*
Y7215134D01*
Y7188866D02*
Y7202000D01*
X11024725Y7163103D02*
X11029850Y7188866D01*
X11014673Y7138835D02*
X11024725Y7163103D01*
X11000080Y7116994D02*
X11014673Y7138835D01*
X10981505Y7098420D02*
X11000080Y7116994D01*
X10959665Y7083827D02*
X10981505Y7098420D01*
X10935396Y7073775D02*
X10959665Y7083827D01*
X10909634Y7068650D02*
X10935396Y7073775D01*
X10883366Y7068650D02*
X10909634D01*
X10857603Y7073775D02*
X10883366Y7068650D01*
X10833335Y7083827D02*
X10857603Y7073775D01*
X10811494Y7098420D02*
X10833335Y7083827D01*
X10792920Y7116994D02*
X10811494Y7098420D01*
X10778327Y7138835D02*
X10792920Y7116994D01*
X10768274Y7163103D02*
X10778327Y7138835D01*
X10763150Y7188866D02*
X10768274Y7163103D01*
X10763150Y7188866D02*
Y7202000D01*
Y7215134D01*
X10768274Y7240897D01*
X10778327Y7265165D01*
X10792920Y7287005D01*
X10811494Y7305580D01*
X10833335Y7320173D01*
X10857603Y7330225D01*
X10883366Y7335350D01*
X10909634D01*
X12583000Y10150000D02*
X12583130Y10143130D01*
X1717010Y10150000D02*
X12583000D01*
X1717010Y10127000D02*
X1717010Y10150000D01*
X1716406Y10114549D02*
X1717010Y10127000D01*
X1711560Y10090124D02*
X1716406Y10114549D01*
X1702039Y10067116D02*
X1711560Y10090124D01*
X1688208Y10046409D02*
X1702039Y10067116D01*
X1670601Y10028801D02*
X1688208Y10046409D01*
X1649894Y10014971D02*
X1670601Y10028801D01*
X1626885Y10005449D02*
X1649894Y10014971D01*
X1602461Y10000604D02*
X1626885Y10005449D01*
X1590010Y10000000D02*
X1602461Y10000604D01*
X-423001Y10000000D02*
X1590010Y10000000D01*
X-435512Y10000008D02*
X-423001Y10000000D01*
X-460055Y9995139D02*
X-435512Y10000008D01*
X-483175Y9985572D02*
X-460055Y9995139D01*
X-503982Y9971674D02*
X-483175Y9985572D01*
X-521675Y9953981D02*
X-503982Y9971674D01*
X-535572Y9933174D02*
X-521675Y9953981D01*
X-545140Y9910055D02*
X-535572Y9933174D01*
X-550009Y9885511D02*
X-545140Y9910055D01*
X-550009Y9885511D02*
X-550000Y9873001D01*
Y8700000D02*
Y9873001D01*
X-550749Y8677109D02*
X-550000Y8700000D01*
X-556725Y8631718D02*
X-550749Y8677109D01*
X-568574Y8587496D02*
X-556725Y8631718D01*
X-586095Y8545199D02*
X-568574Y8587496D01*
X-608986Y8505550D02*
X-586095Y8545199D01*
X-636856Y8469229D02*
X-608986Y8505550D01*
X-669229Y8436856D02*
X-636856Y8469229D01*
X-705551Y8408985D02*
X-669229Y8436856D01*
X-745199Y8386094D02*
X-705551Y8408985D01*
X-787496Y8368574D02*
X-745199Y8386094D01*
X-831718Y8356725D02*
X-787496Y8368574D01*
X-877109Y8350749D02*
X-831718Y8356725D01*
X-900000Y8350000D02*
X-877109Y8350749D01*
X-2173000Y8350000D02*
X-900000Y8350000D01*
X-2185511Y8350008D02*
X-2173000Y8350000D01*
X-2210055Y8345139D02*
X-2185511Y8350008D01*
X-2233175Y8335572D02*
X-2210055Y8345139D01*
X-2253982Y8321674D02*
X-2233175Y8335572D01*
X-2271675Y8303981D02*
X-2253982Y8321674D01*
X-2285573Y8283174D02*
X-2271675Y8303981D01*
X-2295140Y8260053D02*
X-2285573Y8283174D01*
X-2300009Y8235510D02*
X-2295140Y8260053D01*
X-2300009Y8235510D02*
X-2300000Y8222999D01*
X-2300000Y-423001D01*
Y-435509D02*
Y-423001D01*
Y-435509D02*
X-2295120Y-460045D01*
X-2285546Y-483158D01*
X-2271647Y-503958D01*
X-2253958Y-521648D01*
X-2233157Y-535546D01*
X-2210045Y-545120D01*
X-2185509Y-550000D01*
X-2173000Y-550000D01*
X-900000Y-550000D01*
X-877109Y-550749D01*
X-831718Y-556725D01*
X-787496Y-568574D01*
X-745199Y-586095D01*
X-705551Y-608986D01*
X-669229Y-636856D01*
X-636856Y-669229D01*
X-608986Y-705551D01*
X-586095Y-745199D01*
X-568574Y-787496D01*
X-556725Y-831718D01*
X-550749Y-877109D01*
X-550000Y-900000D01*
X-550001Y-2073000D02*
X-550000Y-900000D01*
X-550004Y-2085509D02*
X-550001Y-2073000D01*
X-550004Y-2085509D02*
X-545128Y-2110046D01*
X-535558Y-2133160D01*
X-521662Y-2153962D01*
X-503973Y-2171652D01*
X-483173Y-2185551D01*
X-460060Y-2195124D01*
X-435523Y-2200002D01*
X-423001Y-2200000D01*
X1516843Y-2200001D01*
X1540104Y-2200762D01*
X1586230Y-2206834D01*
X1631168Y-2218876D01*
X1674150Y-2236680D01*
X1714440Y-2259942D01*
X1751349Y-2288265D01*
X1784245Y-2321162D01*
X1812566Y-2358073D01*
X1835826Y-2398364D01*
X1853628Y-2441347D01*
X1865667Y-2486286D01*
X1871737Y-2532412D01*
X1872509Y-2555665D01*
Y-2591329D02*
Y-2555665D01*
Y-2591329D02*
X3349324Y-2591329D01*
X3349985Y-2577868D01*
X3355237Y-2551464D01*
X3365539Y-2526592D01*
X3380496Y-2504208D01*
X3399532Y-2485172D01*
X3421916Y-2470216D01*
X3446788Y-2459913D01*
X3473192Y-2454662D01*
X3486653Y-2454000D01*
X12468637D01*
X12493171Y-2449120D01*
X12516281Y-2439547D01*
X12537079Y-2425650D01*
X12554767Y-2407962D01*
X12568664Y-2387164D01*
X12578236Y-2364054D01*
X12583116Y-2339520D01*
X12583117Y-2327013D01*
X12583713Y-2314567D01*
X12588543Y-2290151D01*
X12598047Y-2267148D01*
X12611860Y-2246443D01*
X12629449Y-2228833D01*
X12650139Y-2214997D01*
X12673132Y-2205468D01*
X12697543Y-2200611D01*
X12709988Y-2200000D01*
X14722998Y-2200000D01*
X14735507Y-2200000D01*
X14760043Y-2195120D01*
X14783156Y-2185546D01*
X14803957Y-2171647D01*
X14821646Y-2153958D01*
X14835545Y-2133157D01*
X14845119Y-2110045D01*
X14849998Y-2085509D01*
X14849998Y-2073000D01*
X14849998Y-900000D02*
X14849998Y-2073000D01*
X14849998Y-900000D02*
X14850748Y-877109D01*
X14856725Y-831718D01*
X14868573Y-787496D01*
X14886093Y-745199D01*
X14908984Y-705551D01*
X14936855Y-669229D01*
X14969228Y-636856D01*
X15005550Y-608986D01*
X15045200Y-586095D01*
X15087495Y-568575D01*
X15131718Y-556725D01*
X15177109Y-550750D01*
X15200000Y-550000D01*
X16473000D01*
X16485509Y-550000D01*
X16510043Y-545120D01*
X16533157Y-535546D01*
X16553957Y-521648D01*
X16571648Y-503958D01*
X16585545Y-483158D01*
X16595119Y-460045D01*
X16600000Y-435509D01*
X16600000Y-423001D01*
X16600000Y5911510D02*
X16600000Y-423001D01*
X16600000Y5911510D02*
X16600009Y5923608D01*
X16594080Y5947066D02*
X16600009Y5923608D01*
X16582568Y5968348D02*
X16594080Y5947066D01*
X16566180Y5986150D02*
X16582568Y5968348D01*
X16556052Y5992765D02*
X16566180Y5986150D01*
X16536960Y6005248D02*
X16556052Y5992765D01*
X16529265Y6010992D02*
X16536960Y6005248D01*
X16516289Y6025099D02*
X16529265Y6010992D01*
X16507169Y6041958D02*
X16516289Y6025099D01*
X16502464Y6060540D02*
X16507169Y6041958D01*
X16501868Y6070124D02*
X16502464Y6060540D01*
X16501868Y8222999D02*
X16501868Y6070124D01*
X16500552Y8236708D02*
X16501868Y8222999D01*
X16492667Y8263099D02*
X16500552Y8236708D01*
X16479820Y8287464D02*
X16492667Y8263099D01*
X16462500Y8308881D02*
X16479820Y8287464D01*
X16441360Y8326539D02*
X16462500Y8308881D01*
X16417203Y8339771D02*
X16441360Y8326539D01*
X16390939Y8348076D02*
X16417203Y8339771D01*
X16363567Y8351139D02*
X16390939Y8348076D01*
X16349843Y8349992D02*
X16363567Y8351139D01*
X15200000Y8350000D02*
X16349843Y8349992D01*
X15177109Y8350749D02*
X15200000Y8350000D01*
X15131718Y8356725D02*
X15177109Y8350749D01*
X15087495Y8368574D02*
X15131718Y8356725D01*
X15045200Y8386094D02*
X15087495Y8368574D01*
X15005550Y8408985D02*
X15045200Y8386094D01*
X14969229Y8436856D02*
X15005550Y8408985D01*
X14936856Y8469229D02*
X14969229Y8436856D01*
X14908984Y8505550D02*
X14936856Y8469229D01*
X14886095Y8545199D02*
X14908984Y8505550D01*
X14868575Y8587496D02*
X14886095Y8545199D01*
X14856725Y8631718D02*
X14868575Y8587496D01*
X14850749Y8677109D02*
X14856725Y8631718D01*
X14850000Y8700000D02*
X14850749Y8677109D01*
X14850000Y9889130D02*
X14850000Y8700000D01*
X14850000Y9889130D02*
X14850005Y9901640D01*
X14845132Y9926181D02*
X14850005Y9901640D01*
X14835562Y9949298D02*
X14845132Y9926181D01*
X14821664Y9970104D02*
X14835562Y9949298D01*
X14803972Y9987795D02*
X14821664Y9970104D01*
X14783167Y10001693D02*
X14803972Y9987795D01*
X14760049Y10011263D02*
X14783167Y10001693D01*
X14735509Y10016136D02*
X14760049Y10011263D01*
X14723000Y10016130D02*
X14735509Y10016136D01*
X12710130Y10016130D02*
X14723000Y10016130D01*
X12697681Y10016739D02*
X12710130Y10016130D01*
X12673261Y10021593D02*
X12697681Y10016739D01*
X12650257Y10031118D02*
X12673261Y10021593D01*
X12629555Y10044950D02*
X12650257Y10031118D01*
X12611950Y10062555D02*
X12629555Y10044950D01*
X12598118Y10083257D02*
X12611950Y10062555D01*
X12588593Y10106261D02*
X12598118Y10083257D01*
X12583739Y10130681D02*
X12588593Y10106261D01*
X12583130Y10143130D02*
X12583739Y10130681D01*
D54*
X15224730Y3748680D02*
Y3954693D01*
Y3940085D02*
X15544769D01*
X15224730D02*
Y5002170D01*
X15544769Y3940085D02*
Y5002170D01*
X13089427Y5340064D02*
X13310481Y5119010D01*
X12664484Y5340064D02*
X13089427D01*
X11262330Y3937910D02*
Y4701180D01*
X11902410Y5341260D01*
X12665680D01*
X13088232Y5340064D02*
X13313454D01*
X13746535Y5773145D01*
X13956000D01*
Y6735720D01*
X14964380D01*
Y5880376D02*
Y6735720D01*
Y5880376D02*
X15544769D01*
Y5002170D02*
Y5880376D01*
Y5002170D02*
Y5880376D01*
X15547308D01*
X8019365Y3293365D02*
X8225760Y3499760D01*
X13244574D01*
X7744757Y3018757D02*
X8019365Y3293365D01*
X7744757Y966685D02*
Y3018757D01*
X14219019Y5002170D02*
X15224730D01*
X14219019D02*
Y5117309D01*
X14207030D02*
X14219019D01*
X14207030D02*
X14208730Y5119010D01*
X13310481D02*
X14208730D01*
X10632879Y3937910D02*
X11262330D01*
X10537629Y4033160D02*
X10632879Y3937910D01*
X7549212Y4033160D02*
X10537629D01*
X6526500Y3010448D02*
X7549212Y4033160D01*
X6526500Y964840D02*
Y3010448D01*
Y964840D02*
X7742912D01*
X7744757Y966685D01*
X13244574Y3499760D02*
X13493494Y3748680D01*
X15224730D01*
X13149910Y2254640D02*
Y2764640D01*
D55*
X6899500Y8800200D02*
D03*
X5899500D02*
D03*
X6399500Y9300200D02*
D03*
X7898100D02*
D03*
X7398100Y8800200D02*
D03*
X8398100D02*
D03*
X15649289Y6783980D02*
D03*
X15149289Y7283980D02*
D03*
Y6283980D02*
D03*
X16399289D02*
D03*
X16149289D02*
D03*
Y7283980D02*
D03*
X16399289D02*
D03*
X8896700Y10050229D02*
D03*
Y9800229D02*
D03*
X9896700D02*
D03*
Y10050229D02*
D03*
Y8800230D02*
D03*
X8896700D02*
D03*
X9396700Y9300230D02*
D03*
X4770090Y-1871070D02*
D03*
X5024090D02*
D03*
X5278090D02*
D03*
X4770090Y-1617070D02*
D03*
X5024090D02*
D03*
X4400900Y10050230D02*
D03*
Y9800230D02*
D03*
X5400900D02*
D03*
Y10050230D02*
D03*
Y8800230D02*
D03*
X4400900D02*
D03*
X4900900Y9300230D02*
D03*
X9573800Y1654640D02*
D03*
Y1904640D02*
D03*
Y2154640D02*
D03*
X11023800Y1654640D02*
D03*
Y2154640D02*
D03*
X3273800Y1654640D02*
D03*
Y2154640D02*
D03*
X4723800Y1654640D02*
D03*
Y1904640D02*
D03*
Y2154640D02*
D03*
D56*
X6399500Y8800200D02*
D03*
X6149500D02*
D03*
X6649500D02*
D03*
X6149500Y9300200D02*
D03*
X6649500D02*
D03*
X8148100D02*
D03*
X7648100D02*
D03*
X8148100Y8800200D02*
D03*
X7648100D02*
D03*
X7898100D02*
D03*
X15149289Y6533980D02*
D03*
Y7033980D02*
D03*
Y6783980D02*
D03*
X9396700Y8800230D02*
D03*
X9146700D02*
D03*
X9646700D02*
D03*
X4900900Y8800230D02*
D03*
X4650900D02*
D03*
X5150900D02*
D03*
D57*
X5774500Y9150200D02*
D03*
X7024500D02*
D03*
X8523100D02*
D03*
X7273100D02*
D03*
X6874860Y-1572250D02*
D03*
X7999860Y-1322250D02*
D03*
X7874860Y-1572250D02*
D03*
Y-2072250D02*
D03*
X6874860D02*
D03*
X6749860Y-1322250D02*
D03*
X8371650D02*
D03*
X8496650Y-2072250D02*
D03*
X9496650D02*
D03*
Y-1572250D02*
D03*
X9621650Y-1322250D02*
D03*
X8496650Y-1572250D02*
D03*
X7288800Y2082440D02*
D03*
X7008800D02*
D03*
X10040040Y-2151410D02*
D03*
X11000040D02*
D03*
D59*
X6179500Y9900200D02*
D03*
X6619500D02*
D03*
X8118100D02*
D03*
X7678100D02*
D03*
D60*
X5899500Y9925200D02*
D03*
X6899500D02*
D03*
X8398100D02*
D03*
X7398100D02*
D03*
D63*
X5899500Y9350200D02*
D03*
X6899500D02*
D03*
X8398100D02*
D03*
X7398100D02*
D03*
D64*
X-33619Y3678611D02*
D03*
X-859119Y7044111D02*
D03*
X791881D02*
D03*
D66*
X13350200Y6970179D02*
D03*
X11910200Y6138799D02*
D03*
X13350200Y5307419D02*
D03*
D67*
X12551600Y6138799D02*
D03*
X13188800D02*
D03*
D68*
X4639280Y7253880D02*
D03*
X4893280D02*
D03*
X5147280D02*
D03*
X5401280D02*
D03*
X5655280D02*
D03*
X5909280D02*
D03*
X6163280D02*
D03*
X6417280D02*
D03*
X6671280D02*
D03*
X6925280D02*
D03*
X7179280D02*
D03*
X7433280D02*
D03*
X7941280D02*
D03*
X4385280D02*
D03*
X4131280D02*
D03*
X9671020D02*
D03*
X9163020D02*
D03*
X9417020D02*
D03*
X9925020D02*
D03*
X13093671Y831490D02*
D03*
X13347670D02*
D03*
X13347670Y1085490D02*
D03*
X13093671D02*
D03*
X14150310Y1077870D02*
D03*
X14404311D02*
D03*
X14658310D02*
D03*
X14912309D02*
D03*
D69*
X7687280Y7253880D02*
D03*
D70*
X10895300Y4155080D02*
D03*
Y7203080D02*
D03*
X3402300Y4155080D02*
D03*
Y7203080D02*
D03*
D72*
X6399500Y9800200D02*
D03*
X7898100D02*
D03*
X15649289Y6283980D02*
D03*
Y6533980D02*
D03*
Y7033980D02*
D03*
Y7283980D02*
D03*
X9396700Y9800229D02*
D03*
X4900900Y9800230D02*
D03*
D75*
X16149289Y6783980D02*
D03*
X8896700Y9300230D02*
D03*
X9146700D02*
D03*
X9646700D02*
D03*
X9896700D02*
D03*
X4400900Y9300230D02*
D03*
X4650900D02*
D03*
X5150900D02*
D03*
X5400900D02*
D03*
D76*
X1358870Y4637680D02*
D03*
X1612870D02*
D03*
X1866870D02*
D03*
X2374870D02*
D03*
D77*
X2120870D02*
D03*
D78*
X7574860Y-2072250D02*
D03*
X7174860D02*
D03*
X8796650D02*
D03*
X9196650D02*
D03*
D80*
X12255470Y-1429110D02*
D03*
X11735470D02*
D03*
X11395470D02*
D03*
D81*
X12345470Y-2159110D02*
D03*
X11355470D02*
D03*
D82*
X11725470Y-2059110D02*
D03*
D84*
X0Y0D02*
D03*
Y7800000D02*
D03*
X14300000D02*
D03*
Y0D02*
D03*
D85*
X5278090Y-1617070D02*
D03*
D86*
X13159520Y5519080D02*
D03*
X12909520D02*
D03*
X12659520D02*
D03*
X13159520Y5839080D02*
D03*
X12909520D02*
D03*
X12659520D02*
D03*
X10320040Y-2051410D02*
D03*
X10520040D02*
D03*
X10720040D02*
D03*
X10320040Y-2251410D02*
D03*
X10520040D02*
D03*
X10720040D02*
D03*
D88*
X10323800Y2474640D02*
D03*
Y1334640D02*
D03*
X3973800Y2474640D02*
D03*
Y1334640D02*
D03*
D89*
X-1215420Y5816240D02*
D03*
X-1723420Y5917840D02*
D03*
Y5714640D02*
D03*
D90*
X6650960Y7958730D02*
D03*
X6207760Y8014970D02*
D03*
X8436610Y8018780D02*
D03*
X8837930D02*
D03*
X8021320D02*
D03*
X5943570Y7752990D02*
D03*
X3221990Y8991600D02*
D03*
X13608020Y5503820D02*
D03*
X14843730Y6183270D02*
D03*
X15685741Y5387161D02*
D03*
X15108005Y4324106D02*
D03*
X15159959Y5279190D02*
D03*
X14659579Y6179460D02*
D03*
X2762511Y-2340726D02*
D03*
X14307820Y5568950D02*
D03*
X5760338Y-290965D02*
D03*
X13407359Y3998870D02*
D03*
X15438091Y4257950D02*
D03*
X13615640Y4614820D02*
D03*
X15469841Y5665923D02*
D03*
X13765500Y3560720D02*
D03*
X14842461Y4664350D02*
D03*
X-1696771Y7084100D02*
D03*
X13882339Y3153050D02*
D03*
X14265880Y3465737D02*
D03*
X2757531Y-484706D02*
D03*
X15180280Y3206390D02*
D03*
X11398220Y559710D02*
D03*
X11400760Y409850D02*
D03*
X11515690Y254095D02*
D03*
X11748740Y254910D02*
D03*
X-1184334Y5636457D02*
D03*
X3094960Y2980330D02*
D03*
X-307370Y4593230D02*
D03*
X763240Y-796650D02*
D03*
X1177260Y-1048110D02*
D03*
X1163290Y-1294490D02*
D03*
X1154400Y-1556110D02*
D03*
X3690590Y2995570D02*
D03*
X4789140Y2990490D02*
D03*
X9394160Y3075580D02*
D03*
X10557480Y2984140D02*
D03*
X11156920Y2990490D02*
D03*
X14971910Y3377840D02*
D03*
X15843221Y5520330D02*
D03*
X15835600Y5223150D02*
D03*
X11659840Y4023000D02*
D03*
X14467810Y4731660D02*
D03*
X16106110Y3450230D02*
D03*
D91*
X5864860Y8035290D02*
D03*
X9077930Y8018780D02*
D03*
X2021810Y4844690D02*
D03*
X4833620Y7743190D02*
D03*
X6422360Y8029850D02*
D03*
X6885910Y8033660D02*
D03*
X4634230Y7712710D02*
D03*
X4422140Y7725410D02*
D03*
X8251160Y8018780D02*
D03*
X8648670D02*
D03*
X2124387Y8345170D02*
D03*
X2247900Y8364220D02*
D03*
X12221814Y6511755D02*
D03*
X10361900Y9104270D02*
D03*
X10236170Y7845700D02*
D03*
X3910300Y9478920D02*
D03*
X7873970Y9548770D02*
D03*
X2421890Y9025890D02*
D03*
X6248370Y9491620D02*
D03*
X12125960Y5676900D02*
D03*
X11756390Y5922010D02*
D03*
X14963139Y5688330D02*
D03*
X15861000Y5040270D02*
D03*
X11186130Y4324150D02*
D03*
X12913330Y4177940D02*
D03*
X13016260Y4316370D02*
D03*
X11685240Y4447180D02*
D03*
X13826796Y4222508D02*
D03*
X15257750Y5233310D02*
D03*
X14096321Y4482002D02*
D03*
X14851028Y5294668D02*
D03*
X14676089Y5934350D02*
D03*
X14147771Y3315610D02*
D03*
X15320010Y7430770D02*
D03*
X232380Y5756550D02*
D03*
X567660Y5677810D02*
D03*
X2976160Y-1870040D02*
D03*
X14030960Y6631940D02*
D03*
X14594839Y6314440D02*
D03*
X1097280Y7303770D02*
D03*
X13455742Y5867633D02*
D03*
X13461971Y6113420D02*
D03*
X2018030Y8754110D02*
D03*
X1569720Y8762528D02*
D03*
X994410Y7599680D02*
D03*
X1410970Y7863840D02*
D03*
X2523490Y8148320D02*
D03*
X3161326Y8289837D02*
D03*
X1112520Y8124190D02*
D03*
X1869967Y7572815D02*
D03*
X1752489Y7820660D02*
D03*
X2715260Y7930082D02*
D03*
X13521384Y4800136D02*
D03*
X13470000Y4940032D02*
D03*
X333980Y5781600D02*
D03*
X-173990Y5800090D02*
D03*
X-327690Y5922920D02*
D03*
X-763308Y5975411D02*
D03*
X-735360Y5724800D02*
D03*
X-315169Y5795750D02*
D03*
X5534025Y-3175D02*
D03*
X5539740Y-205740D02*
D03*
X5098964Y189894D02*
D03*
X5099050Y-238760D02*
D03*
X4942830Y373380D02*
D03*
X4940300Y-320040D02*
D03*
X4564380Y-784860D02*
D03*
X13775632Y4607171D02*
D03*
X8860Y5446670D02*
D03*
X1307677Y7746561D02*
D03*
X1586910Y6042133D02*
D03*
X142988Y5540158D02*
D03*
X-159099Y5164730D02*
D03*
X-1412270Y6302650D02*
D03*
X37360Y5553183D02*
D03*
X141978Y4880592D02*
D03*
X40610Y4892950D02*
D03*
X1609060Y7293896D02*
D03*
X7590Y5797190D02*
D03*
X801536Y5740750D02*
D03*
X15414969Y4087937D02*
D03*
X14806900Y3826150D02*
D03*
X13510091Y4393360D02*
D03*
X13250603Y4628032D02*
D03*
X14556709Y3841390D02*
D03*
X13966678Y4918868D02*
D03*
X15311249Y4397447D02*
D03*
X15715009Y4377272D02*
D03*
X11801381Y6726448D02*
D03*
X13121609Y7291980D02*
D03*
X11882800Y5835230D02*
D03*
X11498490Y5734900D02*
D03*
X11619200Y5464450D02*
D03*
X15506670Y7603130D02*
D03*
X14400500Y5025030D02*
D03*
X12852925Y5009790D02*
D03*
X16022290Y5948320D02*
D03*
X-2056181Y7081560D02*
D03*
X14643069Y4721500D02*
D03*
X8515320Y7364370D02*
D03*
X11635710Y5609230D02*
D03*
X14034740Y3030570D02*
D03*
X13481020Y3137810D02*
D03*
X8315930Y-1126850D02*
D03*
X6545416Y-360301D02*
D03*
X124430Y3427370D02*
D03*
X129376Y3055999D02*
D03*
X3607695Y1013306D02*
D03*
X6510124Y-603079D02*
D03*
X6536660Y-761090D02*
D03*
X6460460Y653690D02*
D03*
X3323560Y1053740D02*
D03*
X-1087171Y5755680D02*
D03*
X-1379196Y6549084D02*
D03*
X772130Y4812230D02*
D03*
X683230Y4919620D02*
D03*
X372080Y5259980D02*
D03*
X607030Y5003440D02*
D03*
X270480Y5276490D02*
D03*
X491382Y5254910D02*
D03*
X615920Y5333080D02*
D03*
X9303990Y-1279250D02*
D03*
X9404213Y-1286870D02*
D03*
X6717000Y-667110D02*
D03*
X6503640Y-969370D02*
D03*
X6052790Y-1083670D02*
D03*
X15934660Y2817770D02*
D03*
X13691840Y1390290D02*
D03*
X14438866Y1387870D02*
D03*
X14570680Y1523640D02*
D03*
X15270450Y1427120D02*
D03*
X12118310Y-847450D02*
D03*
X11630630Y-474070D02*
D03*
X10797510Y-341990D02*
D03*
X15060899Y6077860D02*
D03*
X-1086728Y5353646D02*
D03*
X-1046510Y5176966D02*
D03*
X-584230Y5762900D02*
D03*
X15462219Y197760D02*
D03*
X8653750Y2991760D02*
D03*
X1229330Y-1890120D02*
D03*
X-186720Y2520590D02*
D03*
X-1836450Y1324250D02*
D03*
X759430Y839110D02*
D03*
X3902680Y-1006200D02*
D03*
X5623530Y2488840D02*
D03*
X8281640Y284120D02*
D03*
X8296880Y-99420D02*
D03*
X8414990Y1777640D02*
D03*
X13661360Y-1357990D02*
D03*
X10510490Y331110D02*
D03*
X11893520Y2973980D02*
D03*
X16007050Y4240170D02*
D03*
X16374080Y3247030D02*
D03*
X13089861Y8782960D02*
D03*
X1048990Y9635130D02*
D03*
X2604740Y5312050D02*
D03*
X1705580Y4177940D02*
D03*
X-1078260Y3716930D02*
D03*
X-318800Y4115710D02*
D03*
X236190Y7024010D02*
D03*
X-1750090Y7883800D02*
D03*
X1338550Y3061610D02*
D03*
X-899312Y5644793D02*
D03*
X-805600Y5488643D02*
D03*
X-840770Y5299350D02*
D03*
X-1159540Y5409840D02*
D03*
X-1573506Y5451696D02*
D03*
X-693903Y5500827D02*
D03*
X-1649071Y5376131D02*
D03*
X-602010Y5594140D02*
D03*
X-320070Y5599070D02*
D03*
X-234980Y5562240D02*
D03*
X-295940Y5258710D02*
D03*
X-1913920Y5287920D02*
D03*
X-1861850Y5544460D02*
D03*
X-325150Y5146950D02*
D03*
X-339056Y5062852D02*
D03*
X-277040Y5357650D02*
D03*
X-135672Y5360061D02*
D03*
X-148620Y5265060D02*
D03*
X1144929Y3162629D02*
D03*
X1163290Y3061610D02*
D03*
X824200Y3074310D02*
D03*
X975330D02*
D03*
X1404590Y5900060D02*
D03*
X975330Y5416190D02*
D03*
X850870Y5389520D02*
D03*
X1529050Y5837421D02*
D03*
X-1230660Y6753500D02*
D03*
X-1442750Y6726830D02*
D03*
X-1494469Y6904630D02*
D03*
X151100Y5291730D02*
D03*
X1499840Y5211720D02*
D03*
X706090Y5254900D02*
D03*
X1170910Y5470800D02*
D03*
X1017240Y5530490D02*
D03*
X1598900Y5615020D02*
D03*
X-582960Y4895490D02*
D03*
X-834420Y4804050D02*
D03*
X-651540Y5055510D02*
D03*
X-396270Y4828180D02*
D03*
X-925860Y4531000D02*
D03*
X378430Y-1551030D02*
D03*
X391840Y-1277980D02*
D03*
X373350Y-1004930D02*
D03*
X961360Y-648060D02*
D03*
X-323880Y5694320D02*
D03*
X11210260Y8043820D02*
D03*
X8047960Y-380090D02*
D03*
X7465030Y-449940D02*
D03*
X9047450Y-1547220D02*
D03*
X7058630Y-1246230D02*
D03*
X15948630Y1340760D02*
D03*
X15546040Y2916830D02*
D03*
X16065469Y5529220D02*
D03*
X15699710Y5662570D02*
D03*
X15661610Y2290720D02*
D03*
X13096242Y2510398D02*
D03*
X13334970Y2204360D02*
D03*
X12030680Y3931560D02*
D03*
X14827220Y5119010D02*
D03*
X14250694Y4743036D02*
D03*
X14415050Y3460970D02*
D03*
X13597861Y3559450D02*
D03*
X15514290Y3140350D02*
D03*
X15027879Y3053990D02*
D03*
X14095700Y2149750D02*
D03*
X14380180Y2963820D02*
D03*
X14378909Y2802530D02*
D03*
X14544009Y2801260D02*
D03*
X14710381Y2802530D02*
D03*
X14712920Y2958740D02*
D03*
X14550366Y2965077D02*
D03*
X14385260Y3135270D02*
D03*
X14552901D02*
D03*
X14720540Y3136540D02*
D03*
X13305760Y1549040D02*
D03*
X7242780Y3055260D02*
D03*
X14970760Y2138570D02*
D03*
D95*
X13239720Y2924450D02*
D03*
X12809911Y2549150D02*
D03*
X11849070Y-433430D02*
D03*
X12693620Y-222610D02*
D03*
D96*
X12870200Y6138799D02*
D03*
D97*
X13030811Y-1493790D02*
D03*
X13110809D02*
D03*
Y-1408790D02*
D03*
Y-1323790D02*
D03*
X13030811D02*
D03*
Y-1408790D02*
D03*
D98*
X1968500Y7744460D02*
D03*
D99*
X13702000Y535580D02*
D03*
X13595320Y946190D02*
D03*
%TF.MD5,42af69a6121141e3d9ec972e4695080b*%
M02*
