M48
;Layer_Color=9474304
;FILE_FORMAT=2:5
INCH,TZ
;TYPE=PLATED
T01F00S00C0.00984
T02F00S00C0.01500
T03F00S00C0.01575
T04F00S00C0.02500
T05F00S00C0.02800
T06F00S00C0.03150
T08F00S00C0.03622
T10F00S00C0.03937
T12F00S00C0.04200
T13F00S00C0.04331
T14F00S00C0.04528
T15F00S00C0.04724
T17F00S00C0.05906
T19F00S00C0.09449
T20F00S00C0.09800
;TYPE=NON_PLATED
T21F00S00C0.03900
T22F00S00C0.04331
T25F00S00C0.09843
T26F00S00C0.12598
T27F00S00C0.12850
%
T01
X-4331Y-56339
Y-41339
X12205Y-55512
X27953Y-66535
X43307Y-31890
X25418Y-17715
X74016Y-52362
X107480Y-53150
X101575Y-67716
X100394Y-75590
X82677Y-80315
X127165Y-51575
X274016Y-42913
X284252Y-41339
X292913Y-41732
X294488Y-22441
X284252Y-23228
X275197Y-18504
X288976Y-68110
X290551Y-92520
X300394Y-53937
X303937Y-28346
X312598Y-28740
X327165Y-33071
X339370Y-35827
X348425Y-32283
X358268Y-33071
X367323Y-30709
X376772Y-28346
X409449Y-19291
X408268Y-47244
X407087Y-70472
X421260Y-67323
X388976Y-71260
X353937Y-92126
X439370Y-14961
X462205Y-31102
X461811Y-44882
X490945Y-32283
X496850Y-31299
Y-34843
X500394
Y-31299
X503937
Y-34843
X505512Y-63779
X556299Y-36614
X632283Y18504
X625591Y75197
X622441Y124409
X630709Y129921
Y136221
Y142520
X600526Y137886
X588189Y132677
X591732Y101181
X602362Y96850
X607149Y108586
X572835Y96850
X572441Y84252
X587402Y64567
X587795Y50000
X598819Y46457
X556693Y50394
X556299Y64173
X540945Y47244
X524409Y57480
X512992Y67716
X512598Y91732
X517717Y96063
X522047Y100787
X509842Y103937
X503150Y131102
X542520Y127953
X553150Y110630
X541339Y97638
X502756Y50394
X490158Y38189
X476772Y12598
X473622Y62992
X462205
X462992Y107874
X454331Y127953
X529921Y-9449
X412992Y11024
X390945Y28346
X366540Y23630
X349213Y29921
X340551Y37402
X323971Y43352
X305906Y24016
X322441Y99606
X340945Y118898
X390551Y122441
X421260Y117717
X422047Y94882
X437402Y92520
X435827Y74410
X448032Y62992
X420079Y64961
X391732Y84646
X244488Y62598
X218504Y55512
X207087Y65354
Y71260
Y75197
Y78740
X207480Y84646
X174803
X159449Y71260
X174409Y31496
X175984Y25591
X176378Y19685
X177559Y14961
X179528Y7480
X180315Y-787
X153150
X145669Y7480
X187402Y40157
X231102Y31102
Y25984
Y20079
Y14567
Y7480
X232677Y-787
X261811Y-394
X266535Y8268
X262205Y14567
X262598Y20079
X268110Y31496
X247244Y127953
X215748
X153150Y138583
X111417Y133411
X129528Y108661
X78347Y111024
X94095Y83071
X107480Y70472
X88583Y27559
X77165Y13780
X76378Y7087
X98032Y7480
Y-394
Y-6693
X61811Y-9449
X20472Y20472
X20866Y70079
X16535Y67323
X2756Y81890
X32283Y109843
X17323Y127559
Y130028
Y132677
Y143307
X-2362Y139764
X52756Y129528
X49606Y61417
X126772Y14567
X-19685Y33465
X-46850Y45669
X-72441Y33858
X-81102Y82677
Y87402
Y92520
X-67421Y126969
X-62492Y123130
X-57382Y126969
X-64961Y138976
X-28346Y138189
X-31496Y134955
X-34252Y131102
X-19685Y81102
X-25591Y151181
X-32136Y147785
X-42520Y145276
X-40256Y154035
X-44488Y156791
X-42460Y159449
X-53150Y158661
X-53543Y168307
X-49213Y169291
X-47589Y167300
X-51575Y174508
X-55315Y172539
X-57924Y172933
X-68504Y171555
Y175591
Y185728
X-66142Y189173
Y194882
Y199606
X-64468Y210728
Y213090
X-68602
X-68602Y210728
X-68504Y219291
Y223327
X-64468
Y219291
X-48720Y205315
Y202165
Y199016
Y196004
Y192717
X-46752Y189567
X-50394Y185433
X-53543Y185827
X-62992Y186319
X-43307Y197244
X-35039Y198819
X-32283Y202362
X-35039Y205512
Y190157
X-39529Y172736
X-33510Y164522
X-20472Y201969
Y216142
X-28400Y222300
X-28000Y225800
X-31400Y226000
X-35478Y226817
X-37795Y230709
X-29039Y231167
X-17717Y233087
X-46457Y248425
X-50394Y270177
X-52953
X-55512
X-57980Y270173
X-29134Y266535
X-25197Y291732
X-74016Y252756
X-14961Y258268
X-6693Y253150
X19685Y253543
X11417Y235417
X13700Y225900
X22441Y225984
X20472Y220472
X18100Y218600
X14647Y207794
X7880Y208365
X787Y208268
X4331Y195669
X-787Y193307
X-6693Y189764
Y184252
X-12205Y172835
X5512Y174409
X9843Y190945
X15354Y194882
X20866Y180315
X31496Y185039
X48819Y208268
X58300Y214600
X69291Y209055
X62614Y199213
X83465Y198425
X82329Y215703
X100787Y225984
X99848Y237553
X133858Y242520
X135039Y267323
X114583Y264173
X81541Y262947
X60236Y260630
X46850Y254724
X53543Y244882
X53937Y242020
X33465Y227953
X30315
X12327Y286063
X90065Y290319
X116142Y187795
X129528Y198031
X107087Y166929
X117323Y152362
X48819Y155118
X25591Y145669
X-7087Y151181
X-15354Y151575
X165354Y299213
X282677Y297638
X361024Y152362
X412992Y159843
X429134Y152362
X439370Y148031
X429921Y182677
X447638Y206299
X448819Y227953
X465748Y229134
X463386Y211024
X510630Y207087
X521260Y197638
X531496Y188189
X526378Y182283
X520216Y171000
X512598Y174803
X496457Y163386
X479921Y171260
X487402Y180709
X492913Y185827
X545715Y173136
X555905Y194882
X563779Y202362
X573622Y201969
X572835Y216929
X575030Y222186
X578346Y212992
X567323
X548899Y204515
X591339Y195276
X582677Y151575
X563779Y151181
X600429Y144086
X606299Y238976
X535433Y250000
X557874Y274016
X509449Y274410
X486826Y280527
X479528Y299606
X456693Y276378
X629921Y205512
X629528Y196063
Y181496
X643701Y182677
Y153543
X643307Y212992
X591339Y315354
X542913Y336221
X487402Y337795
X453543Y304724
X440158Y327165
X430709
X351969Y320866
X340945Y321260
X335433
X324410
X318898
X307874Y320866
X345669Y304724
X329134Y354331
X364961Y356693
X290945Y318110
X276772Y320866
X265748Y321260
X260236
X249213
X243701
X232677Y320866
X217323Y323622
X183071Y322441
X194882Y305118
X255906Y304724
X246457Y359449
X213779Y358268
X162205Y353150
X135433Y359842
X133858Y327165
X130969Y321024
X119291Y335039
X105512Y331102
X112598Y311024
X55512Y303150
X53937Y335039
X64173Y331102
X67323Y350394
X88583Y352756
X78740Y383071
X26772Y350394
X11811Y333465
X-39075Y300590
T02
X-21654Y189567
T03
X15427Y-50314
X13386Y-42126
X30049Y-31364
X37849Y-25514
X46349Y-41264
X45799Y-50964
X45449Y-61264
X48399Y-74414
X28740Y-61417
X82745Y-97296
X123870Y-93359
X116929Y-75590
X109055Y-76772
X108564Y-19083
X153649Y-39614
X194500Y-12600
X239448Y-14238
X239370Y-30315
X238299Y-42664
X256049Y-38164
X256988Y-27953
Y-22736
X263189Y-25098
X258441Y-15148
X293899Y-17714
X277899Y-49064
X327399Y-44364
X316849Y-14964
X366299Y-50364
X370245Y-50664
X356199Y-60914
X393692Y-59055
X393889Y-52756
X401272Y-45114
X391219Y-33809
X476369Y-39272
X537849Y-53464
X608749Y7786
X625689Y46063
X612598Y90158
X612049Y114836
X610236Y122047
X644649Y127836
X595276Y118504
X591649Y120236
X579549Y123486
X572949Y123436
X566349
X566149Y116686
X566099Y110336
X572599Y110286
X579149Y110336
X579249Y116486
X572849Y116735
X552549Y119314
X546549Y124136
X550000Y130709
X556999Y130536
X561649Y136446
X567522Y136259
X584899Y137036
X545669Y141339
X530749Y123536
X554949Y84636
X589400Y84196
X599606Y55905
X540158Y61024
X495276Y74410
X489755Y9744
X489880Y-1969
X469882Y2756
X450760Y34471
X442126Y34252
X442193Y40087
X442093Y45987
X421842Y38583
Y33465
X368015Y5509
X353448Y10833
X326049Y10508
X326649Y-3914
X313779Y5512
X331299Y69986
X352550Y64961
X352944Y58268
X352550Y77953
X352944Y84252
X439249Y117736
X285149Y120286
X221399Y97986
X217835Y3503
X217815Y-9646
X226785Y-11455
X250197Y-11811
X254349Y25736
X284032Y5372
X200967Y10984
X194510Y17686
X200750Y-9400
X106350Y64567
X44488Y95669
X41339Y123228
X29899Y33036
X-72301Y52136
X-20661Y178543
X12205Y159055
X9843Y154331
X14961Y152362
X67149Y164486
X38583Y200000
X102549Y209136
X29971Y290271
X9299Y276536
X440399Y170242
X453150Y170472
Y164173
X452756Y157874
X457449Y215136
X458099Y220836
X452697Y225783
X471260Y229134
X477400Y223500
X481102Y232168
X464621Y264821
X516599Y287086
X530700Y242126
X531096Y236813
X530700Y231102
Y225590
X535986Y216686
X533836Y191316
X530315Y194489
X536049Y181686
X542348Y181385
X541993Y165272
X529232Y168799
X527849Y157436
X511400Y161600
X512451Y169936
X521677Y182206
X506299Y203150
X549869Y193656
X561051Y186734
X569599Y186286
X576499Y185886
X584349Y183636
X583749Y201536
X583071Y208268
X599606Y206299
X599213Y202756
X603937Y217323
X588583Y227165
X592949Y239286
X584399Y243436
X577149Y243286
X574600Y248600
X577799Y233636
X563300Y219250
X566949Y197836
X555512Y172835
X573099Y151236
X592126Y155905
X596067Y171527
X602805Y173128
X607087Y167323
X552400Y261100
X609049Y223068
X617948Y223228
X622047Y216929
X624803Y215354
X617948Y212093
X624409Y200787
X623140Y192036
X623169Y185336
X623269Y178436
X618701Y172334
X628756Y168379
X608852Y161868
X631568Y234956
X610499Y299336
X515349Y345786
X407949Y358436
X402999Y309535
X309999Y375936
X245999Y373686
X153949Y373186
X174409Y306693
X183858Y310236
X193307Y312614
X193663Y325447
X206693Y304840
X124080Y315370
X106900Y312208
X99350Y320800
X88500Y329300
X72266Y332306
X70079Y307087
X55550Y309600
X43800Y319850
X41299Y379336
X126784Y351309
X-68901Y310386
T04
X539449Y21086
X539370Y38189
T05
X572099Y54641
X572441Y64961
X77500Y304900
T06
X406301Y-88638
X414175
X422049
Y-80764
X414175
X406301
X498406Y217287
X508249
X518091
Y229885
X508249
X498406
T08
X494158Y241685
X519244
T10
X596429Y257243
Y267086
Y276928
X379791Y346466
X369949
X360106
X320791Y346465
X310949
X301106
Y366150
X320791
X261791
X242106
Y346465
X251949
X261791
X202791Y346466
X192949
X183106
T12
X466455Y-14173
X503463
X529134Y72835
X521260Y110630
T13
X515499Y42736
X525499
X557099Y42436
X567099
X577099
X587099
X292649Y285586
X282649
X272649
X262649
X252649
X242649
X232649
X222649
X212649
X202649
X192649
X182649
X172649
X162649
X302649
X312649
X360749
X370749
X380749
X390749
T14
X53499Y182586
X63499
X73499
X83499
X93499
T15
X187799Y-73664
Y-63664
X197799
Y-73664
X207799
Y-63664
X376921Y65143
Y74986
Y84828
X434008
Y65143
X185976
Y74986
Y84828
X128890
Y65143
X596429Y247401
Y286771
X635799
X645641
Y247401
X635799
X616114Y267086
X389634Y346466
Y385836
Y395678
X350264
Y385836
X369949Y366151
X350264Y346466
X330634Y346465
X310949Y366150
X291264Y346465
X271634
X251949Y366150
X232264Y346465
X212634Y346466
Y385836
Y395678
X173264
Y385836
X192949Y366151
X173264Y346466
T17
X270664Y-81585
Y-61900
X265742Y-52057
X314955
X329592
X334514Y-61900
Y-81585
X310034
Y-61900
X373884
X378805Y-52057
X373884Y-81585
X395277Y-84701
X433072
X286961Y81986
X275937
X335555Y360244
X286343
X276555
X227343
T19
X461633Y-81067
T20
X133949Y163586
Y283586
X428949
Y163586
T21
X-72441Y129697
Y137697
X-52441Y133697
T22
X515499Y32736
X525499
T25
X562992Y0
X0
X562992Y307087
X0
T26
X468905Y241685
X525598Y208953
Y274416
T27
X25354Y197441
M30
