G04*
G04 #@! TF.GenerationSoftware,Altium Limited,Altium Designer,26.2.0 (7)*
G04*
G04 Layer_Color=32896*
%FSLAX25Y25*%
%MOIN*%
G70*
G04*
G04 #@! TF.SameCoordinates,A40123F2-DC2A-4F17-A694-4FDFCE3B6D11*
G04*
G04*
G04 #@! TF.FilePolarity,Positive*
G04*
G01*
G75*
%ADD10C,0.01968*%
%ADD12C,0.00394*%
%ADD234C,0.00400*%
%ADD235C,0.00400*%
D10*
X442340Y209518D02*
G03*
X444389Y214103I-3950J4516D01*
G01*
X418493Y169043D02*
G03*
X424493Y175043I0J6000D01*
G01*
X138793D02*
G03*
X144793Y169043I6000J0D01*
G01*
Y278043D02*
G03*
X138793Y272043I0J-6000D01*
G01*
X424493D02*
G03*
X418493Y278043I-6000J0D01*
G01*
X444169Y233313D02*
G03*
X442120Y237761I-6000J-69D01*
G01*
X444169Y233313D02*
X444389Y214103D01*
X424493Y193909D02*
X442340Y209518D01*
X424493Y175043D02*
Y193909D01*
X144793Y169043D02*
X418493D01*
X144793Y278043D02*
X418493D01*
X424493Y253178D02*
Y272043D01*
X138793Y175043D02*
Y272043D01*
X424493Y253178D02*
X442120Y237761D01*
D12*
X-35433Y328740D02*
G03*
X-21654Y342520I0J13780D01*
G01*
X-85551Y328740D02*
G03*
X-90551Y323740I0J-5000D01*
G01*
X584646Y389336D02*
G03*
X579646Y394336I-5000J-0D01*
G01*
X-90551Y-16654D02*
G03*
X-85551Y-21654I5000J0D01*
G01*
X598425Y-21654D02*
G03*
X584646Y-35433I0J-13780D01*
G01*
X-21654Y-81614D02*
G03*
X-16654Y-86614I5000J-0D01*
G01*
X500393Y-86614D02*
G03*
X495399Y-91614I3J-4997D01*
G01*
Y399336D02*
G03*
X500399Y394336I5000J0D01*
G01*
X-21654Y-35433D02*
G03*
X-35433Y-21654I-13780J0D01*
G01*
X490399Y-96614D02*
G03*
X495399Y-91614I0J5000D01*
G01*
X62599Y393701D02*
G03*
X67599Y398701I0J5000D01*
G01*
X579646Y-86614D02*
G03*
X584646Y-81614I0J5000D01*
G01*
X584646Y342520D02*
G03*
X598425Y328740I13780J0D01*
G01*
X-16654Y393701D02*
G03*
X-21654Y388701I0J-5000D01*
G01*
X648543Y-21654D02*
G03*
X653543Y-16654I0J5000D01*
G01*
X495394Y399336D02*
Y399606D01*
X-21654Y-81614D02*
Y-35433D01*
X495394Y399336D02*
X495399D01*
X67598Y399606D02*
X490393D01*
X-16654Y393701D02*
X62599D01*
X598425Y-21654D02*
X648543D01*
X490393Y399606D02*
X495394D01*
X500399Y394336D02*
X579646D01*
X-21654Y342520D02*
Y388701D01*
X-90551Y-16654D02*
Y323740D01*
X67598Y398701D02*
Y399606D01*
X584646Y342520D02*
Y389336D01*
X-85551Y328740D02*
X-35433D01*
X584646Y-81614D02*
Y-35433D01*
X67598Y398701D02*
X67599D01*
X-85551Y-21654D02*
X-35433D01*
X500393Y-86614D02*
X579646D01*
D234*
X653543Y-16654D02*
D03*
X-16654Y-86614D02*
D03*
D235*
X653543Y232737D02*
G03*
X652505Y235244I-3546J0D01*
G01*
X649680Y239151D02*
G03*
X650714Y236655I3530J0D01*
G01*
X137270Y-96614D02*
G03*
X131863Y-102021I0J-5407D01*
G01*
X649680Y323740D02*
G03*
X644680Y328740I-5000J0D01*
G01*
X73721Y-100617D02*
G03*
X59718Y-86614I-14003J0D01*
G01*
X650714Y236655D02*
X651813Y235936D01*
X649680Y239151D02*
Y323740D01*
X73721Y-102021D02*
Y-100617D01*
X643695Y328740D02*
X644680D01*
X-16653Y-86614D02*
X59718D01*
X598425Y328740D02*
X643695D01*
X144212Y-96614D02*
X490399D01*
X653543Y-16654D02*
Y232737D01*
X651813Y235936D02*
X652505Y235244D01*
X137270Y-96614D02*
X144212D01*
X73721Y-102021D02*
X131863D01*
M02*
