G04*
G04 #@! TF.GenerationSoftware,Altium Limited,Altium Designer,26.2.0 (7)*
G04*
G04 Layer_Color=2752767*
%FSLAX25Y25*%
%MOIN*%
G70*
G04*
G04 #@! TF.SameCoordinates,A40123F2-DC2A-4F17-A694-4FDFCE3B6D11*
G04*
G04*
G04 #@! TF.FilePolarity,Positive*
G04*
G01*
G75*
%ADD238C,0.00200*%
%ADD239C,0.00267*%
D238*
X520577Y243684D02*
X519911D01*
X520244D01*
Y242018D01*
X519911Y241685D01*
X519577D01*
X519244Y242018D01*
X495490Y243684D02*
X494824D01*
X495157D01*
Y242018D01*
X494824Y241685D01*
X494491D01*
X494158Y242018D01*
X525598Y210953D02*
Y208953D01*
Y209620D01*
X526931Y210953D01*
X525932Y209953D01*
X526931Y208953D01*
X468905Y243684D02*
Y241685D01*
Y242352D01*
X470238Y243684D01*
X469239Y242685D01*
X470238Y241685D01*
X525598Y276416D02*
Y274416D01*
Y275083D01*
X526931Y276416D01*
X525932Y275416D01*
X526931Y274416D01*
X508034Y243351D02*
X507700Y243684D01*
X507034D01*
X506701Y243351D01*
Y242018D01*
X507034Y241685D01*
X507700D01*
X508034Y242018D01*
Y242685D01*
X507367D01*
X133949Y282786D02*
X134349Y283186D01*
X134749D01*
X134349Y283586D01*
X134749Y283986D01*
X134349D01*
X133949Y284386D01*
X133549Y283986D01*
X133149D01*
X133549Y283586D01*
X133149Y283186D01*
X133549D01*
X133949Y282786D01*
Y283186D02*
X134149Y283386D01*
X134349D01*
X134149Y283586D01*
X134349Y283786D01*
X134149D01*
X133949Y283986D01*
X133749Y283786D01*
X133549D01*
X133749Y283586D01*
X133549Y283386D01*
X133749D01*
X133949Y283186D01*
Y162786D02*
X134349Y163186D01*
X134749D01*
X134349Y163586D01*
X134749Y163986D01*
X134349D01*
X133949Y164386D01*
X133549Y163986D01*
X133149D01*
X133549Y163586D01*
X133149Y163186D01*
X133549D01*
X133949Y162786D01*
Y163186D02*
X134149Y163386D01*
X134349D01*
X134149Y163586D01*
X134349Y163786D01*
X134149D01*
X133949Y163986D01*
X133749Y163786D01*
X133549D01*
X133749Y163586D01*
X133549Y163386D01*
X133749D01*
X133949Y163186D01*
X428949Y282786D02*
X429349Y283186D01*
X429749D01*
X429349Y283586D01*
X429749Y283986D01*
X429349D01*
X428949Y284386D01*
X428549Y283986D01*
X428149D01*
X428549Y283586D01*
X428149Y283186D01*
X428549D01*
X428949Y282786D01*
Y283186D02*
X429149Y283386D01*
X429349D01*
X429149Y283586D01*
X429349Y283786D01*
X429149D01*
X428949Y283986D01*
X428749Y283786D01*
X428549D01*
X428749Y283586D01*
X428549Y283386D01*
X428749D01*
X428949Y283186D01*
Y162786D02*
X429349Y163186D01*
X429749D01*
X429349Y163586D01*
X429749Y163986D01*
X429349D01*
X428949Y164386D01*
X428549Y163986D01*
X428149D01*
X428549Y163586D01*
X428149Y163186D01*
X428549D01*
X428949Y162786D01*
Y163186D02*
X429149Y163386D01*
X429349D01*
X429149Y163586D01*
X429349Y163786D01*
X429149D01*
X428949Y163986D01*
X428749Y163786D01*
X428549D01*
X428749Y163586D01*
X428549Y163386D01*
X428749D01*
X428949Y163186D01*
X389949Y284786D02*
X390349Y285586D01*
X389949Y286386D01*
X390749Y285986D01*
X391549Y286386D01*
X391149Y285586D01*
X391549Y284786D01*
X390749Y285186D01*
X389949Y284786D01*
X369949D02*
X370349Y285586D01*
X369949Y286386D01*
X370749Y285986D01*
X371549Y286386D01*
X371149Y285586D01*
X371549Y284786D01*
X370749Y285186D01*
X369949Y284786D01*
X359949D02*
X360349Y285586D01*
X359949Y286386D01*
X360749Y285986D01*
X361549Y286386D01*
X361149Y285586D01*
X361549Y284786D01*
X360749Y285186D01*
X359949Y284786D01*
X379949D02*
X380349Y285586D01*
X379949Y286386D01*
X380749Y285986D01*
X381549Y286386D01*
X381149Y285586D01*
X381549Y284786D01*
X380749Y285186D01*
X379949Y284786D01*
X161849D02*
X162249Y285586D01*
X161849Y286386D01*
X162649Y285986D01*
X163449Y286386D01*
X163049Y285586D01*
X163449Y284786D01*
X162649Y285186D01*
X161849Y284786D01*
X171849D02*
X172249Y285586D01*
X171849Y286386D01*
X172649Y285986D01*
X173449Y286386D01*
X173049Y285586D01*
X173449Y284786D01*
X172649Y285186D01*
X171849Y284786D01*
X311849D02*
X312249Y285586D01*
X311849Y286386D01*
X312649Y285986D01*
X313449Y286386D01*
X313049Y285586D01*
X313449Y284786D01*
X312649Y285186D01*
X311849Y284786D01*
X271849D02*
X272249Y285586D01*
X271849Y286386D01*
X272649Y285986D01*
X273449Y286386D01*
X273049Y285586D01*
X273449Y284786D01*
X272649Y285186D01*
X271849Y284786D01*
X261849D02*
X262249Y285586D01*
X261849Y286386D01*
X262649Y285986D01*
X263449Y286386D01*
X263049Y285586D01*
X263449Y284786D01*
X262649Y285186D01*
X261849Y284786D01*
X251849D02*
X252249Y285586D01*
X251849Y286386D01*
X252649Y285986D01*
X253449Y286386D01*
X253049Y285586D01*
X253449Y284786D01*
X252649Y285186D01*
X251849Y284786D01*
X241849D02*
X242249Y285586D01*
X241849Y286386D01*
X242649Y285986D01*
X243449Y286386D01*
X243049Y285586D01*
X243449Y284786D01*
X242649Y285186D01*
X241849Y284786D01*
X231849D02*
X232249Y285586D01*
X231849Y286386D01*
X232649Y285986D01*
X233449Y286386D01*
X233049Y285586D01*
X233449Y284786D01*
X232649Y285186D01*
X231849Y284786D01*
X221849D02*
X222249Y285586D01*
X221849Y286386D01*
X222649Y285986D01*
X223449Y286386D01*
X223049Y285586D01*
X223449Y284786D01*
X222649Y285186D01*
X221849Y284786D01*
X211849D02*
X212249Y285586D01*
X211849Y286386D01*
X212649Y285986D01*
X213449Y286386D01*
X213049Y285586D01*
X213449Y284786D01*
X212649Y285186D01*
X211849Y284786D01*
X201849D02*
X202249Y285586D01*
X201849Y286386D01*
X202649Y285986D01*
X203449Y286386D01*
X203049Y285586D01*
X203449Y284786D01*
X202649Y285186D01*
X201849Y284786D01*
X191849D02*
X192249Y285586D01*
X191849Y286386D01*
X192649Y285986D01*
X193449Y286386D01*
X193049Y285586D01*
X193449Y284786D01*
X192649Y285186D01*
X191849Y284786D01*
X181849D02*
X182249Y285586D01*
X181849Y286386D01*
X182649Y285986D01*
X183449Y286386D01*
X183049Y285586D01*
X183449Y284786D01*
X182649Y285186D01*
X181849Y284786D01*
X291849D02*
X292249Y285586D01*
X291849Y286386D01*
X292649Y285986D01*
X293449Y286386D01*
X293049Y285586D01*
X293449Y284786D01*
X292649Y285186D01*
X291849Y284786D01*
X281849D02*
X282249Y285586D01*
X281849Y286386D01*
X282649Y285986D01*
X283449Y286386D01*
X283049Y285586D01*
X283449Y284786D01*
X282649Y285186D01*
X281849Y284786D01*
X301849D02*
X302249Y285586D01*
X301849Y286386D01*
X302649Y285986D01*
X303449Y286386D01*
X303049Y285586D01*
X303449Y284786D01*
X302649Y285186D01*
X301849Y284786D01*
X271634Y370117D02*
Y368118D01*
Y369118D01*
X272967D01*
Y370117D01*
Y368118D01*
X251949Y385035D02*
X252349Y385435D01*
X252749D01*
X252349Y385835D01*
X252749Y386235D01*
X252349D01*
X251949Y386635D01*
X251549Y386235D01*
X251149D01*
X251549Y385835D01*
X251149Y385435D01*
X251549D01*
X251949Y385035D01*
X232264Y370117D02*
Y368118D01*
Y369118D01*
X233597D01*
Y370117D01*
Y368118D01*
X271634Y392755D02*
Y390756D01*
X272967D01*
X276555Y359444D02*
X275755Y361044D01*
X277355D01*
X276555Y359444D01*
Y359844D02*
X276155Y360644D01*
X276955D01*
X276555Y359844D01*
X260610Y389772D02*
Y391771D01*
X261277Y391105D01*
X261943Y391771D01*
Y389772D01*
X243287D02*
Y391771D01*
X243954Y391105D01*
X244620Y391771D01*
Y389772D01*
X232264Y392755D02*
Y390756D01*
X233597D01*
X227343Y359444D02*
X226542Y361044D01*
X228142D01*
X227343Y359444D01*
Y359844D02*
X226942Y360644D01*
X227743D01*
X227343Y359844D01*
X251949Y365350D02*
X251149Y366950D01*
X252749D01*
X251949Y365350D01*
X232264Y345665D02*
X231464Y347265D01*
X233064D01*
X232264Y345665D01*
X271634D02*
X270834Y347265D01*
X272434D01*
X271634Y345665D01*
X498006Y229485D02*
Y229085D01*
X498806D01*
Y229485D01*
X499206D01*
Y230285D01*
X498806D01*
Y230685D01*
X498006D01*
Y230285D01*
X497606D01*
Y229485D01*
X498006D01*
X498206Y229685D02*
Y229485D01*
X498606D01*
Y229685D01*
X498806D01*
Y230085D01*
X498606D01*
Y230285D01*
X498206D01*
Y230085D01*
X498006D01*
Y229685D01*
X498206D01*
X507849Y229485D02*
Y229085D01*
X508649D01*
Y229485D01*
X509049D01*
Y230285D01*
X508649D01*
Y230685D01*
X507849D01*
Y230285D01*
X507449D01*
Y229485D01*
X507849D01*
X508049Y229685D02*
Y229485D01*
X508449D01*
Y229685D01*
X508649D01*
Y230085D01*
X508449D01*
Y230285D01*
X508049D01*
Y230085D01*
X507849D01*
Y229685D01*
X508049D01*
X517691Y229485D02*
Y229085D01*
X518491D01*
Y229485D01*
X518891D01*
Y230285D01*
X518491D01*
Y230685D01*
X517691D01*
Y230285D01*
X517291D01*
Y229485D01*
X517691D01*
X517891Y229685D02*
Y229485D01*
X518291D01*
Y229685D01*
X518491D01*
Y230085D01*
X518291D01*
Y230285D01*
X517891D01*
Y230085D01*
X517691D01*
Y229685D01*
X517891D01*
X498006Y216887D02*
Y216487D01*
X498806D01*
Y216887D01*
X499206D01*
Y217687D01*
X498806D01*
Y218087D01*
X498006D01*
Y217687D01*
X497606D01*
Y216887D01*
X498006D01*
X498206Y217087D02*
Y216887D01*
X498606D01*
Y217087D01*
X498806D01*
Y217487D01*
X498606D01*
Y217687D01*
X498206D01*
Y217487D01*
X498006D01*
Y217087D01*
X498206D01*
X507849Y216887D02*
Y216487D01*
X508649D01*
Y216887D01*
X509049D01*
Y217687D01*
X508649D01*
Y218087D01*
X507849D01*
Y217687D01*
X507449D01*
Y216887D01*
X507849D01*
X508049Y217087D02*
Y216887D01*
X508449D01*
Y217087D01*
X508649D01*
Y217487D01*
X508449D01*
Y217687D01*
X508049D01*
Y217487D01*
X507849D01*
Y217087D01*
X508049D01*
X517691Y216887D02*
Y216487D01*
X518491D01*
Y216887D01*
X518891D01*
Y217687D01*
X518491D01*
Y218087D01*
X517691D01*
Y217687D01*
X517291D01*
Y216887D01*
X517691D01*
X517891Y217087D02*
Y216887D01*
X518291D01*
Y217087D01*
X518491D01*
Y217487D01*
X518291D01*
Y217687D01*
X517891D01*
Y217487D01*
X517691D01*
Y217087D01*
X517891D01*
X24554Y196641D02*
Y198241D01*
X26154D01*
Y196641D01*
X24554D01*
X93499Y184585D02*
Y182586D01*
X94498D01*
X94832Y182919D01*
Y183252D01*
X94498Y183586D01*
X93499D01*
X94498D01*
X94832Y183919D01*
Y184252D01*
X94498Y184585D01*
X93499D01*
X73499D02*
Y182586D01*
X74498D01*
X74832Y182919D01*
Y183252D01*
X74498Y183586D01*
X73499D01*
X74498D01*
X74832Y183919D01*
Y184252D01*
X74498Y184585D01*
X73499D01*
X63499D02*
Y182586D01*
X64499D01*
X64832Y182919D01*
Y183252D01*
X64499Y183586D01*
X63499D01*
X64499D01*
X64832Y183919D01*
Y184252D01*
X64499Y184585D01*
X63499D01*
X53499D02*
Y182586D01*
X54498D01*
X54832Y182919D01*
Y183252D01*
X54498Y183586D01*
X53499D01*
X54498D01*
X54832Y183919D01*
Y184252D01*
X54498Y184585D01*
X53499D01*
X83499D02*
Y182586D01*
X84499D01*
X84832Y182919D01*
Y183252D01*
X84499Y183586D01*
X83499D01*
X84499D01*
X84832Y183919D01*
Y184252D01*
X84499Y184585D01*
X83499D01*
X275937Y81186D02*
X275137Y82786D01*
X276737D01*
X275937Y81186D01*
Y81586D02*
X275537Y82386D01*
X276337D01*
X275937Y81586D01*
X286961Y81186D02*
X286161Y82786D01*
X287761D01*
X286961Y81186D01*
Y81586D02*
X286561Y82386D01*
X287361D01*
X286961Y81586D01*
X334514Y-62700D02*
X333714Y-61100D01*
X335314D01*
X334514Y-62700D01*
Y-62300D02*
X334114Y-61500D01*
X334914D01*
X334514Y-62300D01*
X378805Y-52857D02*
X378005Y-51257D01*
X379605D01*
X378805Y-52857D01*
Y-52457D02*
X378405Y-51657D01*
X379205D01*
X378805Y-52457D01*
X373884Y-62700D02*
X373084Y-61100D01*
X374684D01*
X373884Y-62700D01*
Y-62300D02*
X373484Y-61500D01*
X374284D01*
X373884Y-62300D01*
Y-82385D02*
X373084Y-80785D01*
X374684D01*
X373884Y-82385D01*
Y-81985D02*
X373484Y-81185D01*
X374284D01*
X373884Y-81985D01*
X363406Y-79918D02*
X363072Y-79585D01*
X362406D01*
X362073Y-79918D01*
Y-81251D01*
X362406Y-81585D01*
X363072D01*
X363406Y-81251D01*
X347658Y-79918D02*
X347324Y-79585D01*
X346658D01*
X346325Y-79918D01*
Y-81251D01*
X346658Y-81585D01*
X347324D01*
X347658Y-81251D01*
X334514Y-82385D02*
X333714Y-80785D01*
X335314D01*
X334514Y-82385D01*
Y-81985D02*
X334114Y-81185D01*
X334914D01*
X334514Y-81985D01*
X329592Y-52857D02*
X328793Y-51257D01*
X330393D01*
X329592Y-52857D01*
Y-52457D02*
X329192Y-51657D01*
X329993D01*
X329592Y-52457D01*
X616114Y246601D02*
X616514Y247001D01*
X616914D01*
X616514Y247401D01*
X616914Y247801D01*
X616514D01*
X616114Y248201D01*
X615714Y247801D01*
X615314D01*
X615714Y247401D01*
X615314Y247001D01*
X615714D01*
X616114Y246601D01*
Y256443D02*
X616514Y256843D01*
X616914D01*
X616514Y257243D01*
X616914Y257643D01*
X616514D01*
X616114Y258043D01*
X615714Y257643D01*
X615314D01*
X615714Y257243D01*
X615314Y256843D01*
X615714D01*
X616114Y256443D01*
Y276128D02*
X616514Y276528D01*
X616914D01*
X616514Y276928D01*
X616914Y277328D01*
X616514D01*
X616114Y277728D01*
X615714Y277328D01*
X615314D01*
X615714Y276928D01*
X615314Y276528D01*
X615714D01*
X616114Y276128D01*
Y285971D02*
X616514Y286371D01*
X616914D01*
X616514Y286771D01*
X616914Y287171D01*
X616514D01*
X616114Y287571D01*
X615714Y287171D01*
X615314D01*
X615714Y286771D01*
X615314Y286371D01*
X615714D01*
X616114Y285971D01*
Y266286D02*
X615314Y267886D01*
X616914D01*
X616114Y266286D01*
X596429Y285971D02*
X595629Y287571D01*
X597229D01*
X596429Y285971D01*
Y246601D02*
X595629Y248201D01*
X597229D01*
X596429Y246601D01*
X645641D02*
X644841Y248201D01*
X646441D01*
X645641Y246601D01*
X635799D02*
X634999Y248201D01*
X636599D01*
X635799Y246601D01*
Y285971D02*
X634999Y287571D01*
X636599D01*
X635799Y285971D01*
X645641D02*
X644841Y287571D01*
X646441D01*
X645641Y285971D01*
X635799Y266286D02*
X636199Y266686D01*
X636599D01*
X636199Y267086D01*
X636599Y267486D01*
X636199D01*
X635799Y267886D01*
X635399Y267486D01*
X634999D01*
X635399Y267086D01*
X634999Y266686D01*
X635399D01*
X635799Y266286D01*
X270664Y-62700D02*
X269864Y-61100D01*
X271464D01*
X270664Y-62700D01*
Y-62300D02*
X270264Y-61500D01*
X271064D01*
X270664Y-62300D01*
X314955Y-52857D02*
X314155Y-51257D01*
X315755D01*
X314955Y-52857D01*
Y-52457D02*
X314555Y-51657D01*
X315355D01*
X314955Y-52457D01*
X310034Y-62700D02*
X309234Y-61100D01*
X310834D01*
X310034Y-62700D01*
Y-62300D02*
X309634Y-61500D01*
X310434D01*
X310034Y-62300D01*
Y-82385D02*
X309234Y-80785D01*
X310834D01*
X310034Y-82385D01*
Y-81985D02*
X309634Y-81185D01*
X310434D01*
X310034Y-81985D01*
X299556Y-79918D02*
X299222Y-79585D01*
X298556D01*
X298223Y-79918D01*
Y-81251D01*
X298556Y-81585D01*
X299222D01*
X299556Y-81251D01*
X283808Y-79918D02*
X283474Y-79585D01*
X282808D01*
X282475Y-79918D01*
Y-81251D01*
X282808Y-81585D01*
X283474D01*
X283808Y-81251D01*
X270664Y-82385D02*
X269864Y-80785D01*
X271464D01*
X270664Y-82385D01*
Y-81985D02*
X270264Y-81185D01*
X271064D01*
X270664Y-81985D01*
X265742Y-52857D02*
X264943Y-51257D01*
X266543D01*
X265742Y-52857D01*
Y-52457D02*
X265342Y-51657D01*
X266143D01*
X265742Y-52457D01*
X586299Y41636D02*
X586699Y42436D01*
X586299Y43236D01*
X587099Y42836D01*
X587899Y43236D01*
X587499Y42436D01*
X587899Y41636D01*
X587099Y42036D01*
X586299Y41636D01*
X576299D02*
X576699Y42436D01*
X576299Y43236D01*
X577099Y42836D01*
X577899Y43236D01*
X577499Y42436D01*
X577899Y41636D01*
X577099Y42036D01*
X576299Y41636D01*
X566299D02*
X566699Y42436D01*
X566299Y43236D01*
X567099Y42836D01*
X567899Y43236D01*
X567499Y42436D01*
X567899Y41636D01*
X567099Y42036D01*
X566299Y41636D01*
X556299D02*
X556699Y42436D01*
X556299Y43236D01*
X557099Y42836D01*
X557899Y43236D01*
X557499Y42436D01*
X557899Y41636D01*
X557099Y42036D01*
X556299Y41636D01*
X369949Y385036D02*
X370349Y385436D01*
X370749D01*
X370349Y385836D01*
X370749Y386236D01*
X370349D01*
X369949Y386636D01*
X369549Y386236D01*
X369149D01*
X369549Y385836D01*
X369149Y385436D01*
X369549D01*
X369949Y385036D01*
X389634Y365351D02*
X390034Y365751D01*
X390434D01*
X390034Y366151D01*
X390434Y366551D01*
X390034D01*
X389634Y366951D01*
X389234Y366551D01*
X388834D01*
X389234Y366151D01*
X388834Y365751D01*
X389234D01*
X389634Y365351D01*
X379791D02*
X380191Y365751D01*
X380591D01*
X380191Y366151D01*
X380591Y366551D01*
X380191D01*
X379791Y366951D01*
X379391Y366551D01*
X378991D01*
X379391Y366151D01*
X378991Y365751D01*
X379391D01*
X379791Y365351D01*
X360106D02*
X360506Y365751D01*
X360906D01*
X360506Y366151D01*
X360906Y366551D01*
X360506D01*
X360106Y366951D01*
X359706Y366551D01*
X359306D01*
X359706Y366151D01*
X359306Y365751D01*
X359706D01*
X360106Y365351D01*
X350264D02*
X350664Y365751D01*
X351064D01*
X350664Y366151D01*
X351064Y366551D01*
X350664D01*
X350264Y366951D01*
X349864Y366551D01*
X349464D01*
X349864Y366151D01*
X349464Y365751D01*
X349864D01*
X350264Y365351D01*
X369949D02*
X369149Y366951D01*
X370749D01*
X369949Y365351D01*
X350264Y345666D02*
X349464Y347266D01*
X351064D01*
X350264Y345666D01*
X389634D02*
X388834Y347266D01*
X390434D01*
X389634Y345666D01*
Y394878D02*
X388834Y396478D01*
X390434D01*
X389634Y394878D01*
Y385036D02*
X388834Y386636D01*
X390434D01*
X389634Y385036D01*
X350264D02*
X349464Y386636D01*
X351064D01*
X350264Y385036D01*
Y394878D02*
X349464Y396478D01*
X351064D01*
X350264Y394878D01*
X514699Y31936D02*
X515099D01*
X515499Y32336D01*
X515899Y31936D01*
X516299D01*
Y32336D01*
X515899Y32736D01*
X516299Y33136D01*
Y33536D01*
X515899D01*
X515499Y33136D01*
X515099Y33536D01*
X514699D01*
Y33136D01*
X515099Y32736D01*
X514699Y32336D01*
Y31936D01*
X515099Y32336D02*
X515299D01*
X515499Y32536D01*
X515699Y32336D01*
X515899D01*
Y32536D01*
X515699Y32736D01*
X515899Y32936D01*
Y33136D01*
X515699D01*
X515499Y32936D01*
X515299Y33136D01*
X515099D01*
Y32936D01*
X515299Y32736D01*
X515099Y32536D01*
Y32336D01*
X524699Y31936D02*
X525099D01*
X525499Y32336D01*
X525899Y31936D01*
X526299D01*
Y32336D01*
X525899Y32736D01*
X526299Y33136D01*
Y33536D01*
X525899D01*
X525499Y33136D01*
X525099Y33536D01*
X524699D01*
Y33136D01*
X525099Y32736D01*
X524699Y32336D01*
Y31936D01*
X525099Y32336D02*
X525299D01*
X525499Y32536D01*
X525699Y32336D01*
X525899D01*
Y32536D01*
X525699Y32736D01*
X525899Y32936D01*
Y33136D01*
X525699D01*
X525499Y32936D01*
X525299Y33136D01*
X525099D01*
Y32936D01*
X525299Y32736D01*
X525099Y32536D01*
Y32336D01*
X524699Y41936D02*
X525099Y42736D01*
X524699Y43536D01*
X525499Y43136D01*
X526299Y43536D01*
X525899Y42736D01*
X526299Y41936D01*
X525499Y42336D01*
X524699Y41936D01*
X514699D02*
X515099Y42736D01*
X514699Y43536D01*
X515499Y43136D01*
X516299Y43536D01*
X515899Y42736D01*
X516299Y41936D01*
X515499Y42336D01*
X514699Y41936D01*
X192949Y385036D02*
X193349Y385436D01*
X193749D01*
X193349Y385836D01*
X193749Y386236D01*
X193349D01*
X192949Y386636D01*
X192549Y386236D01*
X192149D01*
X192549Y385836D01*
X192149Y385436D01*
X192549D01*
X192949Y385036D01*
X212634Y365351D02*
X213034Y365751D01*
X213434D01*
X213034Y366151D01*
X213434Y366551D01*
X213034D01*
X212634Y366951D01*
X212234Y366551D01*
X211834D01*
X212234Y366151D01*
X211834Y365751D01*
X212234D01*
X212634Y365351D01*
X202791D02*
X203191Y365751D01*
X203591D01*
X203191Y366151D01*
X203591Y366551D01*
X203191D01*
X202791Y366951D01*
X202391Y366551D01*
X201991D01*
X202391Y366151D01*
X201991Y365751D01*
X202391D01*
X202791Y365351D01*
X183106D02*
X183506Y365751D01*
X183906D01*
X183506Y366151D01*
X183906Y366551D01*
X183506D01*
X183106Y366951D01*
X182706Y366551D01*
X182306D01*
X182706Y366151D01*
X182306Y365751D01*
X182706D01*
X183106Y365351D01*
X173264D02*
X173664Y365751D01*
X174064D01*
X173664Y366151D01*
X174064Y366551D01*
X173664D01*
X173264Y366951D01*
X172864Y366551D01*
X172464D01*
X172864Y366151D01*
X172464Y365751D01*
X172864D01*
X173264Y365351D01*
X192949D02*
X192149Y366951D01*
X193749D01*
X192949Y365351D01*
X173264Y345666D02*
X172464Y347266D01*
X174064D01*
X173264Y345666D01*
X212634D02*
X211834Y347266D01*
X213434D01*
X212634Y345666D01*
Y394878D02*
X211834Y396478D01*
X213434D01*
X212634Y394878D01*
Y385036D02*
X211834Y386636D01*
X213434D01*
X212634Y385036D01*
X173264D02*
X172464Y386636D01*
X174064D01*
X173264Y385036D01*
Y394878D02*
X172464Y396478D01*
X174064D01*
X173264Y394878D01*
X461633Y-81067D02*
Y-79068D01*
X462632D01*
X462966Y-79401D01*
Y-80068D01*
X462632Y-80401D01*
X461633D01*
X462299D02*
X462966Y-81067D01*
X447066Y-85004D02*
Y-83005D01*
X448399Y-85004D01*
Y-83005D01*
X486042Y-85004D02*
Y-83005D01*
X487375Y-85004D01*
Y-83005D01*
X448640Y-56264D02*
Y-54931D01*
X449307Y-54265D01*
X449973Y-54931D01*
Y-56264D01*
Y-55265D01*
X448640D01*
X462026Y-56264D02*
Y-54931D01*
X462693Y-54265D01*
X463359Y-54931D01*
Y-56264D01*
Y-55265D01*
X462026D01*
X482499Y-56264D02*
Y-54931D01*
X483165Y-54265D01*
X483832Y-54931D01*
Y-56264D01*
Y-55265D01*
X482499D01*
X421649Y-89038D02*
Y-89438D01*
X422449D01*
Y-89038D01*
X422849D01*
Y-88238D01*
X422449D01*
Y-87838D01*
X421649D01*
Y-88238D01*
X421249D01*
Y-89038D01*
X421649D01*
X421849Y-88838D02*
Y-89038D01*
X422249D01*
Y-88838D01*
X422449D01*
Y-88438D01*
X422249D01*
Y-88238D01*
X421849D01*
Y-88438D01*
X421649D01*
Y-88838D01*
X421849D01*
X413775Y-89038D02*
Y-89438D01*
X414575D01*
Y-89038D01*
X414975D01*
Y-88238D01*
X414575D01*
Y-87838D01*
X413775D01*
Y-88238D01*
X413375D01*
Y-89038D01*
X413775D01*
X413975Y-88838D02*
Y-89038D01*
X414375D01*
Y-88838D01*
X414575D01*
Y-88438D01*
X414375D01*
Y-88238D01*
X413975D01*
Y-88438D01*
X413775D01*
Y-88838D01*
X413975D01*
X405901Y-89038D02*
Y-89438D01*
X406701D01*
Y-89038D01*
X407101D01*
Y-88238D01*
X406701D01*
Y-87838D01*
X405901D01*
Y-88238D01*
X405501D01*
Y-89038D01*
X405901D01*
X406101Y-88838D02*
Y-89038D01*
X406501D01*
Y-88838D01*
X406701D01*
Y-88438D01*
X406501D01*
Y-88238D01*
X406101D01*
Y-88438D01*
X405901D01*
Y-88838D01*
X406101D01*
X421649Y-81164D02*
Y-81564D01*
X422449D01*
Y-81164D01*
X422849D01*
Y-80364D01*
X422449D01*
Y-79964D01*
X421649D01*
Y-80364D01*
X421249D01*
Y-81164D01*
X421649D01*
X421849Y-80964D02*
Y-81164D01*
X422249D01*
Y-80964D01*
X422449D01*
Y-80564D01*
X422249D01*
Y-80364D01*
X421849D01*
Y-80564D01*
X421649D01*
Y-80964D01*
X421849D01*
X413775Y-81164D02*
Y-81564D01*
X414575D01*
Y-81164D01*
X414975D01*
Y-80364D01*
X414575D01*
Y-79964D01*
X413775D01*
Y-80364D01*
X413375D01*
Y-81164D01*
X413775D01*
X413975Y-80964D02*
Y-81164D01*
X414375D01*
Y-80964D01*
X414575D01*
Y-80564D01*
X414375D01*
Y-80364D01*
X413975D01*
Y-80564D01*
X413775D01*
Y-80964D01*
X413975D01*
X405901Y-81164D02*
Y-81564D01*
X406701D01*
Y-81164D01*
X407101D01*
Y-80364D01*
X406701D01*
Y-79964D01*
X405901D01*
Y-80364D01*
X405501D01*
Y-81164D01*
X405901D01*
X406101Y-80964D02*
Y-81164D01*
X406501D01*
Y-80964D01*
X406701D01*
Y-80564D01*
X406501D01*
Y-80364D01*
X406101D01*
Y-80564D01*
X405901D01*
Y-80964D01*
X406101D01*
X433072Y-85501D02*
X432272Y-83901D01*
X433872D01*
X433072Y-85501D01*
Y-85101D02*
X432672Y-84301D01*
X433472D01*
X433072Y-85101D01*
X395277Y-85501D02*
X394477Y-83901D01*
X396077D01*
X395277Y-85501D01*
Y-85101D02*
X394877Y-84301D01*
X395677D01*
X395277Y-85101D01*
X155649Y51745D02*
X156049Y52545D01*
X155649Y53345D01*
X156449Y52945D01*
X157249Y53345D01*
X156849Y52545D01*
X157249Y51745D01*
X156449Y52145D01*
X155649Y51745D01*
X156049Y52145D02*
X156249Y52545D01*
X156049Y52945D01*
X156449Y52745D01*
X156849Y52945D01*
X156649Y52545D01*
X156849Y52145D01*
X156449Y52345D01*
X156049Y52145D01*
X155649Y96627D02*
X156049Y97427D01*
X155649Y98227D01*
X156449Y97827D01*
X157249Y98227D01*
X156849Y97427D01*
X157249Y96627D01*
X156449Y97027D01*
X155649Y96627D01*
X156049Y97027D02*
X156249Y97427D01*
X156049Y97827D01*
X156449Y97627D01*
X156849Y97827D01*
X156649Y97427D01*
X156849Y97027D01*
X156449Y97227D01*
X156049Y97027D01*
X185976Y84028D02*
X185176Y85628D01*
X186776D01*
X185976Y84028D01*
Y74186D02*
X185176Y75786D01*
X186776D01*
X185976Y74186D01*
Y64343D02*
X185176Y65943D01*
X186776D01*
X185976Y64343D01*
X128890Y84028D02*
X128090Y85628D01*
X129690D01*
X128890Y84028D01*
Y64343D02*
X128090Y65943D01*
X129690D01*
X128890Y64343D01*
X405649Y96627D02*
X406049Y97427D01*
X405649Y98227D01*
X406449Y97827D01*
X407249Y98227D01*
X406849Y97427D01*
X407249Y96627D01*
X406449Y97027D01*
X405649Y96627D01*
X406049Y97027D02*
X406249Y97427D01*
X406049Y97827D01*
X406449Y97627D01*
X406849Y97827D01*
X406649Y97427D01*
X406849Y97027D01*
X406449Y97227D01*
X406049Y97027D01*
X405649Y51745D02*
X406049Y52545D01*
X405649Y53345D01*
X406449Y52945D01*
X407249Y53345D01*
X406849Y52545D01*
X407249Y51745D01*
X406449Y52145D01*
X405649Y51745D01*
X406049Y52145D02*
X406249Y52545D01*
X406049Y52945D01*
X406449Y52745D01*
X406849Y52945D01*
X406649Y52545D01*
X406849Y52145D01*
X406449Y52345D01*
X406049Y52145D01*
X376921Y64343D02*
X376121Y65943D01*
X377721D01*
X376921Y64343D01*
Y74186D02*
X376121Y75786D01*
X377721D01*
X376921Y74186D01*
Y84028D02*
X376121Y85628D01*
X377721D01*
X376921Y84028D01*
X434008Y64343D02*
X433208Y65943D01*
X434808D01*
X434008Y64343D01*
Y84028D02*
X433208Y85628D01*
X434808D01*
X434008Y84028D01*
X330634Y370117D02*
Y368118D01*
Y369118D01*
X331967D01*
Y370117D01*
Y368118D01*
X310949Y385035D02*
X311349Y385435D01*
X311749D01*
X311349Y385835D01*
X311749Y386235D01*
X311349D01*
X310949Y386635D01*
X310549Y386235D01*
X310149D01*
X310549Y385835D01*
X310149Y385435D01*
X310549D01*
X310949Y385035D01*
X291264Y370117D02*
Y368118D01*
Y369118D01*
X292597D01*
Y370117D01*
Y368118D01*
X330634Y392755D02*
Y390756D01*
X331967D01*
X335555Y359444D02*
X334755Y361044D01*
X336355D01*
X335555Y359444D01*
Y359844D02*
X335155Y360644D01*
X335955D01*
X335555Y359844D01*
X319610Y389772D02*
Y391771D01*
X320277Y391105D01*
X320943Y391771D01*
Y389772D01*
X302287D02*
Y391771D01*
X302954Y391105D01*
X303620Y391771D01*
Y389772D01*
X291264Y392755D02*
Y390756D01*
X292597D01*
X286343Y359444D02*
X285542Y361044D01*
X287142D01*
X286343Y359444D01*
Y359844D02*
X285943Y360644D01*
X286742D01*
X286343Y359844D01*
X310949Y365350D02*
X310149Y366950D01*
X311749D01*
X310949Y365350D01*
X291264Y345665D02*
X290464Y347265D01*
X292064D01*
X291264Y345665D01*
X330634D02*
X329834Y347265D01*
X331434D01*
X330634Y345665D01*
X197799Y-64464D02*
X196999Y-62864D01*
X198599D01*
X197799Y-64464D01*
X187799D02*
X186999Y-62864D01*
X188599D01*
X187799Y-64464D01*
X207799Y-74464D02*
X206999Y-72864D01*
X208599D01*
X207799Y-74464D01*
X197799D02*
X196999Y-72864D01*
X198599D01*
X197799Y-74464D01*
X187799D02*
X186999Y-72864D01*
X188599D01*
X187799Y-74464D01*
X207799Y-64464D02*
X206999Y-62864D01*
X208599D01*
X207799Y-64464D01*
X-72841Y129297D02*
Y128897D01*
X-72041D01*
Y129297D01*
X-71641D01*
Y130097D01*
X-72041D01*
Y130497D01*
X-72841D01*
Y130097D01*
X-73241D01*
Y129297D01*
X-72841D01*
Y137297D02*
Y136897D01*
X-72041D01*
Y137297D01*
X-71641D01*
Y138097D01*
X-72041D01*
Y138497D01*
X-72841D01*
Y138097D01*
X-73241D01*
Y137297D01*
X-72841D01*
X-52841Y133297D02*
Y132897D01*
X-52041D01*
Y133297D01*
X-51641D01*
Y134097D01*
X-52041D01*
Y134497D01*
X-52841D01*
Y134097D01*
X-53241D01*
Y133297D01*
X-52841D01*
X-800Y-800D02*
X-400D01*
X0Y-400D01*
X400Y-800D01*
X800D01*
Y-400D01*
X400Y0D01*
X800Y400D01*
Y800D01*
X400D01*
X0Y400D01*
X-400Y800D01*
X-800D01*
Y400D01*
X-400Y0D01*
X-800Y-400D01*
Y-800D01*
Y306287D02*
X-400D01*
X0Y306687D01*
X400Y306287D01*
X800D01*
Y306687D01*
X400Y307087D01*
X800Y307487D01*
Y307887D01*
X400D01*
X0Y307487D01*
X-400Y307887D01*
X-800D01*
Y307487D01*
X-400Y307087D01*
X-800Y306687D01*
Y306287D01*
X562192D02*
X562592D01*
X562992Y306687D01*
X563392Y306287D01*
X563792D01*
Y306687D01*
X563392Y307087D01*
X563792Y307487D01*
Y307887D01*
X563392D01*
X562992Y307487D01*
X562592Y307887D01*
X562192D01*
Y307487D01*
X562592Y307087D01*
X562192Y306687D01*
Y306287D01*
Y-800D02*
X562592D01*
X562992Y-400D01*
X563392Y-800D01*
X563792D01*
Y-400D01*
X563392Y0D01*
X563792Y400D01*
Y800D01*
X563392D01*
X562992Y400D01*
X562592Y800D01*
X562192D01*
Y400D01*
X562592Y0D01*
X562192Y-400D01*
Y-800D01*
X513992Y69716D02*
X513325D01*
X512992Y69383D01*
Y68050D01*
X513325Y67716D01*
X513992D01*
X514325Y68050D01*
Y69383D01*
X513992Y69716D01*
X626590Y77196D02*
X625924D01*
X625591Y76863D01*
Y75530D01*
X625924Y75197D01*
X626590D01*
X626923Y75530D01*
Y76863D01*
X626590Y77196D01*
X44307Y-29890D02*
X43640D01*
X43307Y-30224D01*
Y-31556D01*
X43640Y-31890D01*
X44307D01*
X44640Y-31556D01*
Y-30224D01*
X44307Y-29890D01*
X101393Y-73591D02*
X100727D01*
X100394Y-73924D01*
Y-75257D01*
X100727Y-75590D01*
X101393D01*
X101727Y-75257D01*
Y-73924D01*
X101393Y-73591D01*
X75015Y-50363D02*
X74349D01*
X74016Y-50696D01*
Y-52029D01*
X74349Y-52362D01*
X75015D01*
X75349Y-52029D01*
Y-50696D01*
X75015Y-50363D01*
X13204Y-53513D02*
X12538D01*
X12205Y-53846D01*
Y-55179D01*
X12538Y-55512D01*
X13204D01*
X13538Y-55179D01*
Y-53846D01*
X13204Y-53513D01*
X102575Y-65717D02*
X101908D01*
X101575Y-66050D01*
Y-67383D01*
X101908Y-67716D01*
X102575D01*
X102908Y-67383D01*
Y-66050D01*
X102575Y-65717D01*
X188401Y42157D02*
X187735D01*
X187402Y41824D01*
Y40491D01*
X187735Y40157D01*
X188401D01*
X188734Y40491D01*
Y41824D01*
X188401Y42157D01*
X177378Y21684D02*
X176711D01*
X176378Y21351D01*
Y20018D01*
X176711Y19685D01*
X177378D01*
X177711Y20018D01*
Y21351D01*
X177378Y21684D01*
X175409Y33495D02*
X174743D01*
X174409Y33162D01*
Y31829D01*
X174743Y31496D01*
X175409D01*
X175742Y31829D01*
Y33162D01*
X175409Y33495D01*
X176984Y27590D02*
X176318D01*
X175984Y27257D01*
Y25924D01*
X176318Y25591D01*
X176984D01*
X177317Y25924D01*
Y27257D01*
X176984Y27590D01*
X178559Y16960D02*
X177892D01*
X177559Y16627D01*
Y15294D01*
X177892Y14961D01*
X178559D01*
X178892Y15294D01*
Y16627D01*
X178559Y16960D01*
X180527Y9480D02*
X179861D01*
X179528Y9146D01*
Y7813D01*
X179861Y7480D01*
X180527D01*
X180860Y7813D01*
Y9146D01*
X180527Y9480D01*
X181315Y1212D02*
X180648D01*
X180315Y879D01*
Y-454D01*
X180648Y-787D01*
X181315D01*
X181648Y-454D01*
Y879D01*
X181315Y1212D01*
X146669Y9480D02*
X146002D01*
X145669Y9146D01*
Y7813D01*
X146002Y7480D01*
X146669D01*
X147002Y7813D01*
Y9146D01*
X146669Y9480D01*
X154149Y1212D02*
X153483D01*
X153150Y879D01*
Y-454D01*
X153483Y-787D01*
X154149D01*
X154482Y-454D01*
Y879D01*
X154149Y1212D01*
X536433Y251999D02*
X535766D01*
X535433Y251666D01*
Y250333D01*
X535766Y250000D01*
X536433D01*
X536766Y250333D01*
Y251666D01*
X536433Y251999D01*
X454543Y306724D02*
X453876D01*
X453543Y306391D01*
Y305058D01*
X453876Y304724D01*
X454543D01*
X454876Y305058D01*
Y306391D01*
X454543Y306724D01*
X346669D02*
X346003D01*
X345669Y306391D01*
Y305058D01*
X346003Y304724D01*
X346669D01*
X347002Y305058D01*
Y306391D01*
X346669Y306724D01*
X291945Y320110D02*
X291278D01*
X290945Y319776D01*
Y318443D01*
X291278Y318110D01*
X291945D01*
X292278Y318443D01*
Y319776D01*
X291945Y320110D01*
X283677Y299637D02*
X283010D01*
X282677Y299304D01*
Y297971D01*
X283010Y297638D01*
X283677D01*
X284010Y297971D01*
Y299304D01*
X283677Y299637D01*
X256905Y306724D02*
X256239D01*
X255906Y306391D01*
Y305058D01*
X256239Y304724D01*
X256905D01*
X257238Y305058D01*
Y306391D01*
X256905Y306724D01*
X195882Y307118D02*
X195215D01*
X194882Y306784D01*
Y305451D01*
X195215Y305118D01*
X195882D01*
X196215Y305451D01*
Y306784D01*
X195882Y307118D01*
X166354Y301212D02*
X165688D01*
X165354Y300879D01*
Y299546D01*
X165688Y299213D01*
X166354D01*
X166687Y299546D01*
Y300879D01*
X166354Y301212D01*
X218322Y325621D02*
X217656D01*
X217323Y325288D01*
Y323955D01*
X217656Y323622D01*
X218322D01*
X218656Y323955D01*
Y325288D01*
X218322Y325621D01*
X184071Y324440D02*
X183404D01*
X183071Y324107D01*
Y322774D01*
X183404Y322441D01*
X184071D01*
X184404Y322774D01*
Y324107D01*
X184071Y324440D01*
X101787Y227984D02*
X101121D01*
X100787Y227650D01*
Y226318D01*
X101121Y225984D01*
X101787D01*
X102120Y226318D01*
Y227650D01*
X101787Y227984D01*
X70291Y211054D02*
X69625D01*
X69291Y210721D01*
Y209388D01*
X69625Y209055D01*
X70291D01*
X70624Y209388D01*
Y210721D01*
X70291Y211054D01*
X49819Y210267D02*
X49152D01*
X48819Y209934D01*
Y208601D01*
X49152Y208268D01*
X49819D01*
X50152Y208601D01*
Y209934D01*
X49819Y210267D01*
X-6087Y153180D02*
X-6753D01*
X-7087Y152847D01*
Y151514D01*
X-6753Y151181D01*
X-6087D01*
X-5754Y151514D01*
Y152847D01*
X-6087Y153180D01*
X-1362Y141763D02*
X-2029D01*
X-2362Y141430D01*
Y140097D01*
X-2029Y139764D01*
X-1362D01*
X-1029Y140097D01*
Y141430D01*
X-1362Y141763D01*
X-24591Y153180D02*
X-25257D01*
X-25591Y152847D01*
Y151514D01*
X-25257Y151181D01*
X-24591D01*
X-24258Y151514D01*
Y152847D01*
X-24591Y153180D01*
X-14355Y153574D02*
X-15021D01*
X-15354Y153241D01*
Y151908D01*
X-15021Y151575D01*
X-14355D01*
X-14021Y151908D01*
Y153241D01*
X-14355Y153574D01*
X-3331Y-54339D02*
X-3997D01*
X-4331Y-54672D01*
Y-56005D01*
X-3997Y-56339D01*
X-3331D01*
X-2998Y-56005D01*
Y-54672D01*
X-3331Y-54339D01*
X128165Y-49575D02*
X127499D01*
X127165Y-49909D01*
Y-51242D01*
X127499Y-51575D01*
X128165D01*
X128498Y-51242D01*
Y-49909D01*
X128165Y-49575D01*
X83677Y-78316D02*
X83010D01*
X82677Y-78649D01*
Y-79982D01*
X83010Y-80315D01*
X83677D01*
X84010Y-79982D01*
Y-78649D01*
X83677Y-78316D01*
X108480Y-51150D02*
X107814D01*
X107480Y-51484D01*
Y-52816D01*
X107814Y-53150D01*
X108480D01*
X108813Y-52816D01*
Y-51484D01*
X108480Y-51150D01*
X313598Y-26741D02*
X312932D01*
X312598Y-27074D01*
Y-28407D01*
X312932Y-28740D01*
X313598D01*
X313931Y-28407D01*
Y-27074D01*
X313598Y-26741D01*
X295488Y-20442D02*
X294821D01*
X294488Y-20775D01*
Y-22108D01*
X294821Y-22441D01*
X295488D01*
X295821Y-22108D01*
Y-20775D01*
X295488Y-20442D01*
X285252Y-21229D02*
X284585D01*
X284252Y-21562D01*
Y-22895D01*
X284585Y-23228D01*
X285252D01*
X285585Y-22895D01*
Y-21562D01*
X285252Y-21229D01*
X276197Y-16505D02*
X275530D01*
X275197Y-16838D01*
Y-18171D01*
X275530Y-18504D01*
X276197D01*
X276530Y-18171D01*
Y-16838D01*
X276197Y-16505D01*
X275015Y-40914D02*
X274349D01*
X274016Y-41247D01*
Y-42580D01*
X274349Y-42913D01*
X275015D01*
X275349Y-42580D01*
Y-41247D01*
X275015Y-40914D01*
X285252Y-39339D02*
X284585D01*
X284252Y-39672D01*
Y-41005D01*
X284585Y-41339D01*
X285252D01*
X285585Y-41005D01*
Y-39672D01*
X285252Y-39339D01*
X293913Y-39733D02*
X293247D01*
X292913Y-40066D01*
Y-41399D01*
X293247Y-41732D01*
X293913D01*
X294246Y-41399D01*
Y-40066D01*
X293913Y-39733D01*
X301393Y-51938D02*
X300727D01*
X300394Y-52271D01*
Y-53604D01*
X300727Y-53937D01*
X301393D01*
X301727Y-53604D01*
Y-52271D01*
X301393Y-51938D01*
X289976Y-66111D02*
X289310D01*
X288976Y-66444D01*
Y-67777D01*
X289310Y-68110D01*
X289976D01*
X290309Y-67777D01*
Y-66444D01*
X289976Y-66111D01*
X291551Y-90520D02*
X290884D01*
X290551Y-90854D01*
Y-92186D01*
X290884Y-92520D01*
X291551D01*
X291884Y-92186D01*
Y-90854D01*
X291551Y-90520D01*
X354937Y-90127D02*
X354270D01*
X353937Y-90460D01*
Y-91793D01*
X354270Y-92126D01*
X354937D01*
X355270Y-91793D01*
Y-90460D01*
X354937Y-90127D01*
X328165Y-31071D02*
X327499D01*
X327165Y-31405D01*
Y-32738D01*
X327499Y-33071D01*
X328165D01*
X328498Y-32738D01*
Y-31405D01*
X328165Y-31071D01*
X340370Y-33827D02*
X339703D01*
X339370Y-34161D01*
Y-35493D01*
X339703Y-35827D01*
X340370D01*
X340703Y-35493D01*
Y-34161D01*
X340370Y-33827D01*
X349425Y-30284D02*
X348758D01*
X348425Y-30617D01*
Y-31950D01*
X348758Y-32283D01*
X349425D01*
X349758Y-31950D01*
Y-30617D01*
X349425Y-30284D01*
X359267Y-31071D02*
X358601D01*
X358268Y-31405D01*
Y-32738D01*
X358601Y-33071D01*
X359267D01*
X359601Y-32738D01*
Y-31405D01*
X359267Y-31071D01*
X368322Y-28709D02*
X367656D01*
X367323Y-29043D01*
Y-30375D01*
X367656Y-30709D01*
X368322D01*
X368656Y-30375D01*
Y-29043D01*
X368322Y-28709D01*
X377771Y-26347D02*
X377105D01*
X376772Y-26680D01*
Y-28013D01*
X377105Y-28346D01*
X377771D01*
X378105Y-28013D01*
Y-26680D01*
X377771Y-26347D01*
X362023Y154362D02*
X361357D01*
X361024Y154028D01*
Y152695D01*
X361357Y152362D01*
X362023D01*
X362356Y152695D01*
Y154028D01*
X362023Y154362D01*
X430133D02*
X429467D01*
X429134Y154028D01*
Y152695D01*
X429467Y152362D01*
X430133D01*
X430467Y152695D01*
Y154028D01*
X430133Y154362D01*
X118323D02*
X117656D01*
X117323Y154028D01*
Y152695D01*
X117656Y152362D01*
X118323D01*
X118656Y152695D01*
Y154028D01*
X118323Y154362D01*
X599819Y48456D02*
X599152D01*
X598819Y48123D01*
Y46790D01*
X599152Y46457D01*
X599819D01*
X600152Y46790D01*
Y48123D01*
X599819Y48456D01*
X525409Y59480D02*
X524743D01*
X524409Y59146D01*
Y57814D01*
X524743Y57480D01*
X525409D01*
X525742Y57814D01*
Y59146D01*
X525409Y59480D01*
X541945Y49243D02*
X541278D01*
X540945Y48910D01*
Y47577D01*
X541278Y47244D01*
X541945D01*
X542278Y47577D01*
Y48910D01*
X541945Y49243D01*
X522260Y199637D02*
X521593D01*
X521260Y199304D01*
Y197971D01*
X521593Y197638D01*
X522260D01*
X522593Y197971D01*
Y199304D01*
X522260Y199637D01*
X493913Y187826D02*
X493247D01*
X492913Y187493D01*
Y186160D01*
X493247Y185827D01*
X493913D01*
X494246Y186160D01*
Y187493D01*
X493913Y187826D01*
X488401Y182708D02*
X487735D01*
X487402Y182375D01*
Y181042D01*
X487735Y180709D01*
X488401D01*
X488734Y181042D01*
Y182375D01*
X488401Y182708D01*
X480921Y173259D02*
X480255D01*
X479921Y172926D01*
Y171593D01*
X480255Y171260D01*
X480921D01*
X481254Y171593D01*
Y172926D01*
X480921Y173259D01*
X423047Y96881D02*
X422380D01*
X422047Y96548D01*
Y95215D01*
X422380Y94882D01*
X423047D01*
X423380Y95215D01*
Y96548D01*
X423047Y96881D01*
X436827Y76409D02*
X436160D01*
X435827Y76076D01*
Y74743D01*
X436160Y74410D01*
X436827D01*
X437160Y74743D01*
Y76076D01*
X436827Y76409D01*
X438401Y94519D02*
X437735D01*
X437402Y94186D01*
Y92853D01*
X437735Y92520D01*
X438401D01*
X438734Y92853D01*
Y94186D01*
X438401Y94519D01*
X-52544Y187826D02*
X-53210D01*
X-53543Y187493D01*
Y186160D01*
X-53210Y185827D01*
X-52544D01*
X-52210Y186160D01*
Y187493D01*
X-52544Y187826D01*
X-46255Y167633D02*
Y168966D01*
X-46589Y169299D01*
X-47255D01*
X-47589Y168966D01*
Y167633D01*
X-47255Y167300D01*
X-46589D01*
X-46922Y167967D02*
X-46255Y167300D01*
X-46589D02*
X-46255Y167633D01*
X-32510Y166521D02*
X-33176D01*
X-33510Y166188D01*
Y164855D01*
X-33176Y164522D01*
X-32510D01*
X-32177Y164855D01*
Y166188D01*
X-32510Y166521D01*
X-47880Y169625D02*
Y170958D01*
X-48213Y171291D01*
X-48879D01*
X-49213Y170958D01*
Y169625D01*
X-48879Y169291D01*
X-48213D01*
X-48546Y169958D02*
X-47880Y169291D01*
X-48213D02*
X-47880Y169625D01*
X-41520Y147275D02*
X-42186D01*
X-42520Y146942D01*
Y145609D01*
X-42186Y145276D01*
X-41520D01*
X-41187Y145609D01*
Y146942D01*
X-41520Y147275D01*
X-52150Y160661D02*
X-52816D01*
X-53150Y160327D01*
Y158995D01*
X-52816Y158661D01*
X-52150D01*
X-51817Y158995D01*
Y160327D01*
X-52150Y160661D01*
X633283Y20503D02*
X632617D01*
X632283Y20170D01*
Y18837D01*
X632617Y18504D01*
X633283D01*
X633616Y18837D01*
Y20170D01*
X633283Y20503D01*
X503756Y52393D02*
X503089D01*
X502756Y52060D01*
Y50727D01*
X503089Y50394D01*
X503756D01*
X504089Y50727D01*
Y52060D01*
X503756Y52393D01*
X504149Y133102D02*
X503483D01*
X503150Y132768D01*
Y131436D01*
X503483Y131102D01*
X504149D01*
X504483Y131436D01*
Y132768D01*
X504149Y133102D01*
X543519Y129952D02*
X542853D01*
X542520Y129619D01*
Y128286D01*
X542853Y127953D01*
X543519D01*
X543853Y128286D01*
Y129619D01*
X543519Y129952D01*
X589189Y134677D02*
X588522D01*
X588189Y134343D01*
Y133010D01*
X588522Y132677D01*
X589189D01*
X589522Y133010D01*
Y134343D01*
X589189Y134677D01*
X466748Y231133D02*
X466081D01*
X465748Y230800D01*
Y229467D01*
X466081Y229134D01*
X466748D01*
X467081Y229467D01*
Y230800D01*
X466748Y231133D01*
X558874Y276015D02*
X558207D01*
X557874Y275682D01*
Y274349D01*
X558207Y274016D01*
X558874D01*
X559207Y274349D01*
Y275682D01*
X558874Y276015D01*
X330134Y356330D02*
X329467D01*
X329134Y355997D01*
Y354664D01*
X329467Y354331D01*
X330134D01*
X330467Y354664D01*
Y355997D01*
X330134Y356330D01*
X365960Y358692D02*
X365294D01*
X364961Y358359D01*
Y357026D01*
X365294Y356693D01*
X365960D01*
X366294Y357026D01*
Y358359D01*
X365960Y358692D01*
X247456Y361448D02*
X246790D01*
X246457Y361115D01*
Y359782D01*
X246790Y359449D01*
X247456D01*
X247790Y359782D01*
Y361115D01*
X247456Y361448D01*
X214779Y360267D02*
X214113D01*
X213779Y359934D01*
Y358601D01*
X214113Y358268D01*
X214779D01*
X215112Y358601D01*
Y359934D01*
X214779Y360267D01*
X163204Y355149D02*
X162538D01*
X162205Y354816D01*
Y353483D01*
X162538Y353150D01*
X163204D01*
X163538Y353483D01*
Y354816D01*
X163204Y355149D01*
X79740Y385070D02*
X79073D01*
X78740Y384737D01*
Y383404D01*
X79073Y383071D01*
X79740D01*
X80073Y383404D01*
Y384737D01*
X79740Y385070D01*
X120291Y337039D02*
X119625D01*
X119291Y336705D01*
Y335373D01*
X119625Y335039D01*
X120291D01*
X120624Y335373D01*
Y336705D01*
X120291Y337039D01*
X106511Y333102D02*
X105845D01*
X105512Y332769D01*
Y331436D01*
X105845Y331102D01*
X106511D01*
X106845Y331436D01*
Y332769D01*
X106511Y333102D01*
X54937Y337039D02*
X54270D01*
X53937Y336705D01*
Y335373D01*
X54270Y335039D01*
X54937D01*
X55270Y335373D01*
Y336705D01*
X54937Y337039D01*
X12811Y335464D02*
X12144D01*
X11811Y335131D01*
Y333798D01*
X12144Y333465D01*
X12811D01*
X13144Y333798D01*
Y335131D01*
X12811Y335464D01*
X68322Y352393D02*
X67656D01*
X67323Y352060D01*
Y350727D01*
X67656Y350394D01*
X68322D01*
X68656Y350727D01*
Y352060D01*
X68322Y352393D01*
X27771D02*
X27105D01*
X26772Y352060D01*
Y350727D01*
X27105Y350394D01*
X27771D01*
X28105Y350727D01*
Y352060D01*
X27771Y352393D01*
X-24197Y293732D02*
X-24864D01*
X-25197Y293398D01*
Y292066D01*
X-24864Y291732D01*
X-24197D01*
X-23864Y292066D01*
Y293398D01*
X-24197Y293732D01*
X-73016Y254755D02*
X-73682D01*
X-74016Y254422D01*
Y253089D01*
X-73682Y252756D01*
X-73016D01*
X-72683Y253089D01*
Y254422D01*
X-73016Y254755D01*
X-45457Y250425D02*
X-46123D01*
X-46457Y250091D01*
Y248758D01*
X-46123Y248425D01*
X-45457D01*
X-45124Y248758D01*
Y250091D01*
X-45457Y250425D01*
X-13961Y260267D02*
X-14627D01*
X-14961Y259934D01*
Y258601D01*
X-14627Y258268D01*
X-13961D01*
X-13628Y258601D01*
Y259934D01*
X-13961Y260267D01*
X47850Y256724D02*
X47184D01*
X46850Y256391D01*
Y255058D01*
X47184Y254724D01*
X47850D01*
X48183Y255058D01*
Y256391D01*
X47850Y256724D01*
X20685Y255543D02*
X20018D01*
X19685Y255209D01*
Y253876D01*
X20018Y253543D01*
X20685D01*
X21018Y253876D01*
Y255209D01*
X20685Y255543D01*
X95094Y85070D02*
X94428D01*
X94095Y84737D01*
Y83404D01*
X94428Y83071D01*
X95094D01*
X95427Y83404D01*
Y84737D01*
X95094Y85070D01*
X79346Y113023D02*
X78680D01*
X78347Y112690D01*
Y111357D01*
X78680Y111024D01*
X79346D01*
X79679Y111357D01*
Y112690D01*
X79346Y113023D01*
X53756Y131527D02*
X53089D01*
X52756Y131194D01*
Y129861D01*
X53089Y129528D01*
X53756D01*
X54089Y129861D01*
Y131194D01*
X53756Y131527D01*
X175803Y86645D02*
X175136D01*
X174803Y86312D01*
Y84979D01*
X175136Y84646D01*
X175803D01*
X176136Y84979D01*
Y86312D01*
X175803Y86645D01*
X160449Y73259D02*
X159782D01*
X159449Y72926D01*
Y71593D01*
X159782Y71260D01*
X160449D01*
X160782Y71593D01*
Y72926D01*
X160449Y73259D01*
X130527Y110661D02*
X129861D01*
X129528Y110327D01*
Y108995D01*
X129861Y108661D01*
X130527D01*
X130860Y108995D01*
Y110327D01*
X130527Y110661D01*
X154149Y140582D02*
X153483D01*
X153150Y140249D01*
Y138916D01*
X153483Y138583D01*
X154149D01*
X154482Y138916D01*
Y140249D01*
X154149Y140582D01*
X323441Y101606D02*
X322774D01*
X322441Y101272D01*
Y99940D01*
X322774Y99606D01*
X323441D01*
X323774Y99940D01*
Y101272D01*
X323441Y101606D01*
X391551Y124440D02*
X390884D01*
X390551Y124107D01*
Y122774D01*
X390884Y122441D01*
X391551D01*
X391884Y122774D01*
Y124107D01*
X391551Y124440D01*
X392732Y86645D02*
X392066D01*
X391732Y86312D01*
Y84979D01*
X392066Y84646D01*
X392732D01*
X393065Y84979D01*
Y86312D01*
X392732Y86645D01*
X421078Y66960D02*
X420412D01*
X420079Y66627D01*
Y65294D01*
X420412Y64961D01*
X421078D01*
X421412Y65294D01*
Y66627D01*
X421078Y66960D01*
X391945Y30346D02*
X391278D01*
X390945Y30013D01*
Y28680D01*
X391278Y28346D01*
X391945D01*
X392278Y28680D01*
Y30013D01*
X391945Y30346D01*
X413992Y13023D02*
X413325D01*
X412992Y12690D01*
Y11357D01*
X413325Y11024D01*
X413992D01*
X414325Y11357D01*
Y12690D01*
X413992Y13023D01*
X410449Y-17292D02*
X409782D01*
X409449Y-17625D01*
Y-18958D01*
X409782Y-19291D01*
X410449D01*
X410782Y-18958D01*
Y-17625D01*
X410449Y-17292D01*
X408086Y-68473D02*
X407420D01*
X407087Y-68806D01*
Y-70139D01*
X407420Y-70472D01*
X408086D01*
X408420Y-70139D01*
Y-68806D01*
X408086Y-68473D01*
X409267Y-45245D02*
X408601D01*
X408268Y-45578D01*
Y-46911D01*
X408601Y-47244D01*
X409267D01*
X409601Y-46911D01*
Y-45578D01*
X409267Y-45245D01*
X573441Y86251D02*
X572774D01*
X572441Y85918D01*
Y84585D01*
X572774Y84252D01*
X573441D01*
X573774Y84585D01*
Y85918D01*
X573441Y86251D01*
X573834Y98850D02*
X573168D01*
X572835Y98516D01*
Y97184D01*
X573168Y96850D01*
X573834D01*
X574168Y97184D01*
Y98516D01*
X573834Y98850D01*
X588795Y51999D02*
X588129D01*
X587795Y51666D01*
Y50333D01*
X588129Y50000D01*
X588795D01*
X589128Y50333D01*
Y51666D01*
X588795Y51999D01*
X557693Y52393D02*
X557026D01*
X556693Y52060D01*
Y50727D01*
X557026Y50394D01*
X557693D01*
X558026Y50727D01*
Y52060D01*
X557693Y52393D01*
X557299Y66173D02*
X556632D01*
X556299Y65839D01*
Y64507D01*
X556632Y64173D01*
X557299D01*
X557632Y64507D01*
Y65839D01*
X557299Y66173D01*
X588401Y66566D02*
X587735D01*
X587402Y66233D01*
Y64900D01*
X587735Y64567D01*
X588401D01*
X588734Y64900D01*
Y66233D01*
X588401Y66566D01*
X-20661Y180543D02*
Y178543D01*
X-19661D01*
X-19328Y178877D01*
Y180210D01*
X-19661Y180543D01*
X-20661D01*
X391219Y-31810D02*
Y-33809D01*
X392219D01*
X392552Y-33476D01*
Y-32143D01*
X392219Y-31810D01*
X391219D01*
X401272Y-43115D02*
Y-45114D01*
X402272D01*
X402605Y-44781D01*
Y-43448D01*
X402272Y-43115D01*
X401272D01*
X393692Y-57056D02*
Y-59055D01*
X394692D01*
X395025Y-58722D01*
Y-57389D01*
X394692Y-57056D01*
X393692D01*
X393889Y-50757D02*
Y-52756D01*
X394889D01*
X395222Y-52423D01*
Y-51090D01*
X394889Y-50757D01*
X393889D01*
X476369Y-37272D02*
Y-39272D01*
X477369D01*
X477702Y-38938D01*
Y-37606D01*
X477369Y-37272D01*
X476369D01*
X491945Y-30284D02*
X491278D01*
X490945Y-30617D01*
Y-31950D01*
X491278Y-32283D01*
X491945D01*
X492278Y-31950D01*
Y-30617D01*
X491945Y-30284D01*
X462811Y-42882D02*
X462144D01*
X461811Y-43216D01*
Y-44549D01*
X462144Y-44882D01*
X462811D01*
X463144Y-44549D01*
Y-43216D01*
X462811Y-42882D01*
X463204Y-29103D02*
X462538D01*
X462205Y-29436D01*
Y-30769D01*
X462538Y-31102D01*
X463204D01*
X463538Y-30769D01*
Y-29436D01*
X463204Y-29103D01*
X506511Y-61780D02*
X505845D01*
X505512Y-62113D01*
Y-63446D01*
X505845Y-63779D01*
X506511D01*
X506845Y-63446D01*
Y-62113D01*
X506511Y-61780D01*
X557299Y-34615D02*
X556632D01*
X556299Y-34948D01*
Y-36281D01*
X556632Y-36614D01*
X557299D01*
X557632Y-36281D01*
Y-34948D01*
X557299Y-34615D01*
X530921Y-7450D02*
X530255D01*
X529921Y-7783D01*
Y-9116D01*
X530255Y-9449D01*
X530921D01*
X531254Y-9116D01*
Y-7783D01*
X530921Y-7450D01*
X644307Y214991D02*
X643640D01*
X643307Y214658D01*
Y213325D01*
X643640Y212992D01*
X644307D01*
X644640Y213325D01*
Y214658D01*
X644307Y214991D01*
X644700Y184677D02*
X644034D01*
X643701Y184343D01*
Y183010D01*
X644034Y182677D01*
X644700D01*
X645034Y183010D01*
Y184343D01*
X644700Y184677D01*
Y155543D02*
X644034D01*
X643701Y155209D01*
Y153876D01*
X644034Y153543D01*
X644700D01*
X645034Y153876D01*
Y155209D01*
X644700Y155543D01*
X630527Y183495D02*
X629861D01*
X629528Y183162D01*
Y181829D01*
X629861Y181496D01*
X630527D01*
X630861Y181829D01*
Y183162D01*
X630527Y183495D01*
Y198062D02*
X629861D01*
X629528Y197729D01*
Y196396D01*
X629861Y196063D01*
X630527D01*
X630861Y196396D01*
Y197729D01*
X630527Y198062D01*
X630921Y207511D02*
X630255D01*
X629921Y207178D01*
Y205845D01*
X630255Y205512D01*
X630921D01*
X631254Y205845D01*
Y207178D01*
X630921Y207511D01*
X573834Y218929D02*
X573168D01*
X572835Y218595D01*
Y217262D01*
X573168Y216929D01*
X573834D01*
X574168Y217262D01*
Y218595D01*
X573834Y218929D01*
X568323Y214991D02*
X567656D01*
X567323Y214658D01*
Y213325D01*
X567656Y212992D01*
X568323D01*
X568656Y213325D01*
Y214658D01*
X568323Y214991D01*
X579346D02*
X578680D01*
X578346Y214658D01*
Y213325D01*
X578680Y212992D01*
X579346D01*
X579679Y213325D01*
Y214658D01*
X579346Y214991D01*
X564779Y204362D02*
X564113D01*
X563779Y204028D01*
Y202695D01*
X564113Y202362D01*
X564779D01*
X565112Y202695D01*
Y204028D01*
X564779Y204362D01*
X574622Y203968D02*
X573955D01*
X573622Y203635D01*
Y202302D01*
X573955Y201969D01*
X574622D01*
X574955Y202302D01*
Y203635D01*
X574622Y203968D01*
X592338Y197275D02*
X591672D01*
X591339Y196942D01*
Y195609D01*
X591672Y195276D01*
X592338D01*
X592671Y195609D01*
Y196942D01*
X592338Y197275D01*
X556905Y196881D02*
X556239D01*
X555905Y196548D01*
Y195215D01*
X556239Y194882D01*
X556905D01*
X557238Y195215D01*
Y196548D01*
X556905Y196881D01*
X527378Y184283D02*
X526711D01*
X526378Y183950D01*
Y182617D01*
X526711Y182283D01*
X527378D01*
X527711Y182617D01*
Y183950D01*
X527378Y184283D01*
X521215Y172999D02*
X520549D01*
X520216Y172666D01*
Y171333D01*
X520549Y171000D01*
X521215D01*
X521549Y171333D01*
Y172666D01*
X521215Y172999D01*
X546714Y175135D02*
X546048D01*
X545715Y174802D01*
Y173469D01*
X546048Y173136D01*
X546714D01*
X547048Y173469D01*
Y174802D01*
X546714Y175135D01*
X545669Y143338D02*
Y141339D01*
X546669D01*
X547002Y141672D01*
Y143005D01*
X546669Y143338D01*
X545669D01*
X82745Y-95297D02*
Y-97296D01*
X83745D01*
X84078Y-96963D01*
Y-95630D01*
X83745Y-95297D01*
X82745D01*
X123870Y-91360D02*
Y-93359D01*
X124869D01*
X125203Y-93026D01*
Y-91693D01*
X124869Y-91360D01*
X123870D01*
X258441Y-13149D02*
Y-15148D01*
X259441D01*
X259774Y-14815D01*
Y-13482D01*
X259441Y-13149D01*
X258441D01*
X239448Y-12239D02*
Y-14238D01*
X240448D01*
X240781Y-13905D01*
Y-12572D01*
X240448Y-12239D01*
X239448D01*
X368015Y7508D02*
Y5509D01*
X369015D01*
X369348Y5842D01*
Y7175D01*
X369015Y7508D01*
X368015D01*
X313779Y7511D02*
Y5512D01*
X314779D01*
X315112Y5845D01*
Y7178D01*
X314779Y7511D01*
X313779D01*
X284032Y7371D02*
Y5372D01*
X285032D01*
X285365Y5705D01*
Y7038D01*
X285032Y7371D01*
X284032D01*
X353448Y12832D02*
Y10833D01*
X354448D01*
X354781Y11166D01*
Y12499D01*
X354448Y12832D01*
X353448D01*
X367540Y25629D02*
X366873D01*
X366540Y25296D01*
Y23963D01*
X366873Y23630D01*
X367540D01*
X367873Y23963D01*
Y25296D01*
X367540Y25629D01*
X599213Y204755D02*
Y202756D01*
X600212D01*
X600546Y203089D01*
Y204422D01*
X600212Y204755D01*
X599213D01*
X239370Y-28316D02*
Y-30315D01*
X240370D01*
X240703Y-29982D01*
Y-28649D01*
X240370Y-28316D01*
X239370D01*
X631568Y236955D02*
Y234956D01*
X632568D01*
X632901Y235289D01*
Y236622D01*
X632568Y236955D01*
X631568D01*
X607299Y240976D02*
X606632D01*
X606299Y240642D01*
Y239310D01*
X606632Y238976D01*
X607299D01*
X607632Y239310D01*
Y240642D01*
X607299Y240976D01*
X131969Y323023D02*
X131303D01*
X130969Y322690D01*
Y321357D01*
X131303Y321024D01*
X131969D01*
X132302Y321357D01*
Y322690D01*
X131969Y323023D01*
X65173Y333102D02*
X64507D01*
X64173Y332769D01*
Y331436D01*
X64507Y331102D01*
X65173D01*
X65506Y331436D01*
Y332769D01*
X65173Y333102D01*
X13327Y288062D02*
X12660D01*
X12327Y287729D01*
Y286396D01*
X12660Y286063D01*
X13327D01*
X13660Y286396D01*
Y287729D01*
X13327Y288062D01*
X28952Y-64536D02*
X28286D01*
X27953Y-64869D01*
Y-66202D01*
X28286Y-66535D01*
X28952D01*
X29286Y-66202D01*
Y-64869D01*
X28952Y-64536D01*
X-3331Y-39339D02*
X-3997D01*
X-4331Y-39672D01*
Y-41005D01*
X-3997Y-41339D01*
X-3331D01*
X-2998Y-41005D01*
Y-39672D01*
X-3331Y-39339D01*
X28740Y-59418D02*
Y-61417D01*
X29740D01*
X30073Y-61084D01*
Y-59751D01*
X29740Y-59418D01*
X28740D01*
X26418Y-15715D02*
X25751D01*
X25418Y-16048D01*
Y-17381D01*
X25751Y-17715D01*
X26418D01*
X26751Y-17381D01*
Y-16048D01*
X26418Y-15715D01*
X601429Y146085D02*
X600762D01*
X600429Y145752D01*
Y144419D01*
X600762Y144086D01*
X601429D01*
X601762Y144419D01*
Y145752D01*
X601429Y146085D01*
X601525Y139885D02*
X600859D01*
X600526Y139552D01*
Y138219D01*
X600859Y137886D01*
X601525D01*
X601859Y138219D01*
Y139552D01*
X601525Y139885D01*
X583677Y153574D02*
X583010D01*
X582677Y153241D01*
Y151908D01*
X583010Y151575D01*
X583677D01*
X584010Y151908D01*
Y153241D01*
X583677Y153574D01*
X564779Y153180D02*
X564113D01*
X563779Y152847D01*
Y151514D01*
X564113Y151181D01*
X564779D01*
X565112Y151514D01*
Y152847D01*
X564779Y153180D01*
X592126Y157905D02*
Y155905D01*
X593126D01*
X593459Y156239D01*
Y157572D01*
X593126Y157905D01*
X592126D01*
X529232Y170799D02*
Y168799D01*
X530232D01*
X530565Y169132D01*
Y170465D01*
X530232Y170799D01*
X529232D01*
X607087Y169322D02*
Y167323D01*
X608086D01*
X608420Y167656D01*
Y168989D01*
X608086Y169322D01*
X607087D01*
X513598Y176803D02*
X512932D01*
X512598Y176469D01*
Y175136D01*
X512932Y174803D01*
X513598D01*
X513931Y175136D01*
Y176469D01*
X513598Y176803D01*
X521677Y184205D02*
Y182206D01*
X522677D01*
X523010Y182539D01*
Y183872D01*
X522677Y184205D01*
X521677D01*
X532496Y190188D02*
X531829D01*
X531496Y189855D01*
Y188522D01*
X531829Y188189D01*
X532496D01*
X532829Y188522D01*
Y189855D01*
X532496Y190188D01*
X533836Y193316D02*
Y191316D01*
X534836D01*
X535169Y191649D01*
Y192982D01*
X534836Y193316D01*
X533836D01*
X511630Y209086D02*
X510963D01*
X510630Y208753D01*
Y207420D01*
X510963Y207087D01*
X511630D01*
X511963Y207420D01*
Y208753D01*
X511630Y209086D01*
X506299Y205149D02*
Y203150D01*
X507299D01*
X507632Y203483D01*
Y204816D01*
X507299Y205149D01*
X506299D01*
X440370Y150031D02*
X439703D01*
X439370Y149698D01*
Y148365D01*
X439703Y148031D01*
X440370D01*
X440703Y148365D01*
Y149698D01*
X440370Y150031D01*
X452756Y159873D02*
Y157874D01*
X453756D01*
X454089Y158207D01*
Y159540D01*
X453756Y159873D01*
X452756D01*
X453150Y172472D02*
Y170472D01*
X454149D01*
X454483Y170806D01*
Y172139D01*
X454149Y172472D01*
X453150D01*
X-79769Y83010D02*
Y84343D01*
X-80103Y84676D01*
X-80769D01*
X-81102Y84343D01*
Y83010D01*
X-80769Y82677D01*
X-80103D01*
X-80436Y83344D02*
X-79769Y82677D01*
X-80103D02*
X-79769Y83010D01*
X-80103Y94519D02*
X-80769D01*
X-81102Y94186D01*
Y92853D01*
X-80769Y92520D01*
X-80103D01*
X-79769Y92853D01*
Y94186D01*
X-80103Y94519D01*
Y89401D02*
X-80769D01*
X-81102Y89068D01*
Y87735D01*
X-80769Y87402D01*
X-80103D01*
X-79769Y87735D01*
Y89068D01*
X-80103Y89401D01*
X422260Y119716D02*
X421593D01*
X421260Y119383D01*
Y118050D01*
X421593Y117717D01*
X422260D01*
X422593Y118050D01*
Y119383D01*
X422260Y119716D01*
X540703Y40188D02*
X539370D01*
Y39189D01*
X540036D01*
X539370D01*
Y38189D01*
X489755Y11743D02*
Y9744D01*
X490755D01*
X491088Y10077D01*
Y11410D01*
X490755Y11743D01*
X489755D01*
X91065Y292319D02*
X90399D01*
X90065Y291985D01*
Y290652D01*
X90399Y290319D01*
X91065D01*
X91398Y290652D01*
Y291985D01*
X91065Y292319D01*
X481102Y234167D02*
Y232168D01*
X482102D01*
X482435Y232501D01*
Y233834D01*
X482102Y234167D01*
X481102D01*
X471260Y231133D02*
Y229134D01*
X472260D01*
X472593Y229467D01*
Y230800D01*
X472260Y231133D01*
X471260D01*
X530700Y244125D02*
Y242126D01*
X531700D01*
X532033Y242459D01*
Y243792D01*
X531700Y244125D01*
X530700D01*
X531096Y238813D02*
Y236813D01*
X532096D01*
X532429Y237147D01*
Y238479D01*
X532096Y238813D01*
X531096D01*
X535986Y218685D02*
Y216686D01*
X536986D01*
X537319Y217019D01*
Y218352D01*
X536986Y218685D01*
X535986D01*
X530700Y227590D02*
Y225590D01*
X531700D01*
X532033Y225924D01*
Y227257D01*
X531700Y227590D01*
X530700D01*
X530315Y196489D02*
Y194489D01*
X531315D01*
X531648Y194823D01*
Y196156D01*
X531315Y196489D01*
X530315D01*
X530700Y233102D02*
Y231102D01*
X531700D01*
X532033Y231436D01*
Y232769D01*
X531700Y233102D01*
X530700D01*
X487826Y282526D02*
X487159D01*
X486826Y282193D01*
Y280860D01*
X487159Y280527D01*
X487826D01*
X488159Y280860D01*
Y282193D01*
X487826Y282526D01*
X549899Y206514D02*
X549232D01*
X548899Y206181D01*
Y204848D01*
X549232Y204515D01*
X549899D01*
X550232Y204848D01*
Y206181D01*
X549899Y206514D01*
X623269Y180435D02*
Y178436D01*
X624269D01*
X624602Y178769D01*
Y180102D01*
X624269Y180435D01*
X623269D01*
X623169Y187335D02*
Y185336D01*
X624169D01*
X624502Y185669D01*
Y187002D01*
X624169Y187335D01*
X623169D01*
X623140Y194035D02*
Y192036D01*
X624140D01*
X624473Y192369D01*
Y193702D01*
X624140Y194035D01*
X623140D01*
X628756Y170378D02*
Y168379D01*
X629755D01*
X630088Y168712D01*
Y170045D01*
X629755Y170378D01*
X628756D01*
X610236Y124047D02*
Y122047D01*
X611236D01*
X611569Y122380D01*
Y123713D01*
X611236Y124047D01*
X610236D01*
X595276Y120503D02*
Y118504D01*
X596275D01*
X596608Y118837D01*
Y120170D01*
X596275Y120503D01*
X595276D01*
X421842Y35464D02*
Y33465D01*
X422841D01*
X423175Y33798D01*
Y35131D01*
X422841Y35464D01*
X421842D01*
Y40582D02*
Y38583D01*
X422841D01*
X423175Y38916D01*
Y40249D01*
X422841Y40582D01*
X421842D01*
X510842Y105936D02*
X510176D01*
X509842Y105603D01*
Y104270D01*
X510176Y103937D01*
X510842D01*
X511175Y104270D01*
Y105603D01*
X510842Y105936D01*
X513598Y93732D02*
X512932D01*
X512598Y93398D01*
Y92066D01*
X512932Y91732D01*
X513598D01*
X513931Y92066D01*
Y93398D01*
X513598Y93732D01*
X518716Y98062D02*
X518050D01*
X517717Y97729D01*
Y96396D01*
X518050Y96063D01*
X518716D01*
X519049Y96396D01*
Y97729D01*
X518716Y98062D01*
X523047Y102787D02*
X522380D01*
X522047Y102453D01*
Y101121D01*
X522380Y100787D01*
X523047D01*
X523380Y101121D01*
Y102453D01*
X523047Y102787D01*
X341551Y39401D02*
X340884D01*
X340551Y39068D01*
Y37735D01*
X340884Y37402D01*
X341551D01*
X341884Y37735D01*
Y39068D01*
X341551Y39401D01*
X324970Y45352D02*
X324304D01*
X323971Y45018D01*
Y43685D01*
X324304Y43352D01*
X324970D01*
X325304Y43685D01*
Y45018D01*
X324970Y45352D01*
X352550Y66960D02*
Y64961D01*
X353550D01*
X353883Y65294D01*
Y66627D01*
X353550Y66960D01*
X352550D01*
X352944Y60267D02*
Y58268D01*
X353944D01*
X354277Y58601D01*
Y59934D01*
X353944Y60267D01*
X352944D01*
X352550Y79952D02*
Y77953D01*
X353550D01*
X353883Y78286D01*
Y79619D01*
X353550Y79952D01*
X352550D01*
X550000Y132708D02*
Y130709D01*
X551000D01*
X551333Y131042D01*
Y132375D01*
X551000Y132708D01*
X550000D01*
X584899Y139035D02*
Y137036D01*
X585898D01*
X586232Y137369D01*
Y138702D01*
X585898Y139035D01*
X584899D01*
X109055Y-74772D02*
Y-76772D01*
X110055D01*
X110388Y-76438D01*
Y-75106D01*
X110055Y-74772D01*
X109055D01*
X624803Y217354D02*
Y215354D01*
X625803D01*
X626136Y215688D01*
Y217021D01*
X625803Y217354D01*
X624803D01*
X442126Y36251D02*
Y34252D01*
X443126D01*
X443459Y34585D01*
Y35918D01*
X443126Y36251D01*
X442126D01*
X450760Y36470D02*
Y34471D01*
X451760D01*
X452093Y34804D01*
Y36137D01*
X451760Y36470D01*
X450760D01*
X442193Y42087D02*
Y40087D01*
X443192D01*
X443525Y40421D01*
Y41754D01*
X443192Y42087D01*
X442193D01*
X442093Y47987D02*
Y45987D01*
X443092D01*
X443425Y46321D01*
Y47653D01*
X443092Y47987D01*
X442093D01*
X77500Y306899D02*
X78166D01*
X77833D01*
Y304900D01*
X77500D01*
X78166D01*
X226785Y-9456D02*
Y-11455D01*
X227785D01*
X228118Y-11122D01*
Y-9789D01*
X227785Y-9456D01*
X226785D01*
X546549Y126135D02*
Y124136D01*
X547548D01*
X547882Y124469D01*
Y125802D01*
X547548Y126135D01*
X546549D01*
X561649Y138446D02*
Y136446D01*
X562648D01*
X562982Y136780D01*
Y138112D01*
X562648Y138446D01*
X561649D01*
X108564Y-17084D02*
Y-19083D01*
X109564D01*
X109897Y-18750D01*
Y-17417D01*
X109564Y-17084D01*
X108564D01*
X30049Y-29365D02*
Y-31364D01*
X31049D01*
X31382Y-31031D01*
Y-29698D01*
X31049Y-29365D01*
X30049D01*
X46349Y-39265D02*
Y-41264D01*
X47348D01*
X47682Y-40931D01*
Y-39598D01*
X47348Y-39265D01*
X46349D01*
X45799Y-48965D02*
Y-50964D01*
X46799D01*
X47132Y-50631D01*
Y-49298D01*
X46799Y-48965D01*
X45799D01*
X45449Y-59265D02*
Y-61264D01*
X46448D01*
X46782Y-60931D01*
Y-59598D01*
X46448Y-59265D01*
X45449D01*
X439249Y119735D02*
Y117736D01*
X440248D01*
X440582Y118069D01*
Y119402D01*
X440248Y119735D01*
X439249D01*
X-56382Y128968D02*
X-57049D01*
X-57382Y128635D01*
Y127302D01*
X-57049Y126969D01*
X-56382D01*
X-56049Y127302D01*
Y128635D01*
X-56382Y128968D01*
X-21654Y189567D02*
Y191566D01*
X-20654D01*
X-20321Y191233D01*
Y190567D01*
X-20654Y190233D01*
X-21654D01*
X193663Y327447D02*
Y325447D01*
X194662D01*
X194995Y325781D01*
Y327113D01*
X194662Y327447D01*
X193663D01*
X126784Y353308D02*
Y351309D01*
X127784D01*
X128117Y351642D01*
Y352975D01*
X127784Y353308D01*
X126784D01*
X325409Y323259D02*
X324743D01*
X324410Y322926D01*
Y321593D01*
X324743Y321260D01*
X325409D01*
X325742Y321593D01*
Y322926D01*
X325409Y323259D01*
X319897D02*
X319231D01*
X318898Y322926D01*
Y321593D01*
X319231Y321260D01*
X319897D01*
X320231Y321593D01*
Y322926D01*
X319897Y323259D01*
X244701D02*
X244034D01*
X243701Y322926D01*
Y321593D01*
X244034Y321260D01*
X244701D01*
X245034Y321593D01*
Y322926D01*
X244701Y323259D01*
X250212D02*
X249546D01*
X249213Y322926D01*
Y321593D01*
X249546Y321260D01*
X250212D01*
X250546Y321593D01*
Y322926D01*
X250212Y323259D01*
X206693Y306839D02*
Y304840D01*
X207693D01*
X208026Y305173D01*
Y306506D01*
X207693Y306839D01*
X206693D01*
X352968Y322866D02*
X352302D01*
X351969Y322532D01*
Y321199D01*
X352302Y320866D01*
X352968D01*
X353301Y321199D01*
Y322532D01*
X352968Y322866D01*
X277771D02*
X277105D01*
X276772Y322532D01*
Y321199D01*
X277105Y320866D01*
X277771D01*
X278105Y321199D01*
Y322532D01*
X277771Y322866D01*
X208086Y67354D02*
X207420D01*
X207087Y67020D01*
Y65688D01*
X207420Y65354D01*
X208086D01*
X208419Y65688D01*
Y67020D01*
X208086Y67354D01*
X208480Y86645D02*
X207814D01*
X207480Y86312D01*
Y84979D01*
X207814Y84646D01*
X208480D01*
X208813Y84979D01*
Y86312D01*
X208480Y86645D01*
X106350Y66566D02*
Y64567D01*
X107349D01*
X107683Y64900D01*
Y66233D01*
X107349Y66566D01*
X106350D01*
X631708Y144519D02*
X631042D01*
X630709Y144186D01*
Y142853D01*
X631042Y142520D01*
X631708D01*
X632042Y142853D01*
Y144186D01*
X631708Y144519D01*
Y131921D02*
X631042D01*
X630709Y131587D01*
Y130254D01*
X631042Y129921D01*
X631708D01*
X632042Y130254D01*
Y131587D01*
X631708Y131921D01*
Y138220D02*
X631042D01*
X630709Y137887D01*
Y136554D01*
X631042Y136221D01*
X631708D01*
X632042Y136554D01*
Y137887D01*
X631708Y138220D01*
X622047Y218929D02*
Y216929D01*
X623047D01*
X623380Y217262D01*
Y218595D01*
X623047Y218929D01*
X622047D01*
X617948Y214092D02*
Y212093D01*
X618948D01*
X619281Y212426D01*
Y213759D01*
X618948Y214092D01*
X617948D01*
X-41127Y159782D02*
Y161115D01*
X-41461Y161448D01*
X-42127D01*
X-42460Y161115D01*
Y159782D01*
X-42127Y159449D01*
X-41461D01*
X-41794Y160115D02*
X-41127Y159449D01*
X-41461D02*
X-41127Y159782D01*
X18656Y130361D02*
Y131694D01*
X18323Y132027D01*
X17656D01*
X17323Y131694D01*
Y130361D01*
X17656Y130028D01*
X18323D01*
X17989Y130694D02*
X18656Y130028D01*
X18323D02*
X18656Y130361D01*
X352944Y86251D02*
Y84252D01*
X353944D01*
X354277Y84585D01*
Y85918D01*
X353944Y86251D01*
X352944D01*
X12750Y235751D02*
Y237083D01*
X12417Y237417D01*
X11750D01*
X11417Y237083D01*
Y235751D01*
X11750Y235417D01*
X12417D01*
X12084Y236084D02*
X12750Y235417D01*
X12417D02*
X12750Y235751D01*
X-5693Y186251D02*
X-6360D01*
X-6693Y185918D01*
Y184585D01*
X-6360Y184252D01*
X-5693D01*
X-5360Y184585D01*
Y185918D01*
X-5693Y186251D01*
X-63961Y140976D02*
X-64627D01*
X-64961Y140642D01*
Y139310D01*
X-64627Y138976D01*
X-63961D01*
X-63628Y139310D01*
Y140642D01*
X-63961Y140976D01*
X617948Y225228D02*
Y223228D01*
X618948D01*
X619281Y223562D01*
Y224894D01*
X618948Y225228D01*
X617948D01*
X583071Y210267D02*
Y208268D01*
X584071D01*
X584404Y208601D01*
Y209934D01*
X584071Y210267D01*
X583071D01*
X599606Y208299D02*
Y206299D01*
X600606D01*
X600939Y206632D01*
Y207965D01*
X600606Y208299D01*
X599606D01*
X588583Y229165D02*
Y227165D01*
X589582D01*
X589916Y227499D01*
Y228832D01*
X589582Y229165D01*
X588583D01*
X624409Y202787D02*
Y200787D01*
X625409D01*
X625742Y201121D01*
Y202453D01*
X625409Y202787D01*
X624409D01*
X603937Y219322D02*
Y217323D01*
X604937D01*
X605270Y217656D01*
Y218989D01*
X604937Y219322D01*
X603937D01*
X555512Y174834D02*
Y172835D01*
X556511D01*
X556845Y173168D01*
Y174501D01*
X556511Y174834D01*
X555512D01*
X589400Y86195D02*
Y84196D01*
X590400D01*
X590733Y84529D01*
Y85862D01*
X590400Y86195D01*
X589400D01*
X108480Y72472D02*
X107814D01*
X107480Y72139D01*
Y70806D01*
X107814Y70472D01*
X108480D01*
X108813Y70806D01*
Y72139D01*
X108480Y72472D01*
X18656Y143640D02*
Y144973D01*
X18323Y145306D01*
X17656D01*
X17323Y144973D01*
Y143640D01*
X17656Y143307D01*
X18323D01*
X17989Y143974D02*
X18656Y143307D01*
X18323D02*
X18656Y143640D01*
X112417Y135411D02*
X111750D01*
X111417Y135078D01*
Y133745D01*
X111750Y133411D01*
X112417D01*
X112750Y133745D01*
Y135078D01*
X112417Y135411D01*
X208086Y80739D02*
X207420D01*
X207087Y80406D01*
Y79073D01*
X207420Y78740D01*
X208086D01*
X208419Y79073D01*
Y80406D01*
X208086Y80739D01*
Y77196D02*
X207420D01*
X207087Y76863D01*
Y75530D01*
X207420Y75197D01*
X208086D01*
X208419Y75530D01*
Y76863D01*
X208086Y77196D01*
Y73259D02*
X207420D01*
X207087Y72926D01*
Y71593D01*
X207420Y71260D01*
X208086D01*
X208419Y71593D01*
Y72926D01*
X208086Y73259D01*
X54543Y246881D02*
X53877D01*
X53543Y246548D01*
Y245215D01*
X53877Y244882D01*
X54543D01*
X54876Y245215D01*
Y246548D01*
X54543Y246881D01*
X34797Y228286D02*
Y229619D01*
X34464Y229952D01*
X33798D01*
X33465Y229619D01*
Y228286D01*
X33798Y227953D01*
X34464D01*
X34131Y228619D02*
X34797Y227953D01*
X34464D02*
X34797Y228286D01*
X54937Y244019D02*
X54270D01*
X53937Y243686D01*
Y242353D01*
X54270Y242020D01*
X54937D01*
X55270Y242353D01*
Y243686D01*
X54937Y244019D01*
X136433Y361842D02*
X135766D01*
X135433Y361509D01*
Y360176D01*
X135766Y359842D01*
X136433D01*
X136766Y360176D01*
Y361509D01*
X136433Y361842D01*
X233677Y322866D02*
X233010D01*
X232677Y322532D01*
Y321199D01*
X233010Y320866D01*
X233677D01*
X234010Y321199D01*
Y322532D01*
X233677Y322866D01*
X308874D02*
X308207D01*
X307874Y322532D01*
Y321199D01*
X308207Y320866D01*
X308874D01*
X309207Y321199D01*
Y322532D01*
X308874Y322866D01*
X41339Y125228D02*
Y123228D01*
X42338D01*
X42671Y123562D01*
Y124894D01*
X42338Y125228D01*
X41339D01*
X26590Y147669D02*
X25924D01*
X25591Y147335D01*
Y146002D01*
X25924Y145669D01*
X26590D01*
X26923Y146002D01*
Y147335D01*
X26590Y147669D01*
X33283Y111842D02*
X32617D01*
X32283Y111509D01*
Y110176D01*
X32617Y109843D01*
X33283D01*
X33616Y110176D01*
Y111509D01*
X33283Y111842D01*
X44488Y97669D02*
Y95669D01*
X45488D01*
X45821Y96003D01*
Y97335D01*
X45488Y97669D01*
X44488D01*
X18656Y133010D02*
Y134343D01*
X18323Y134677D01*
X17656D01*
X17323Y134343D01*
Y133010D01*
X17656Y132677D01*
X18323D01*
X17989Y133344D02*
X18656Y132677D01*
X18323D02*
X18656Y133010D01*
Y127892D02*
Y129225D01*
X18323Y129558D01*
X17656D01*
X17323Y129225D01*
Y127892D01*
X17656Y127559D01*
X18323D01*
X17989Y128226D02*
X18656Y127559D01*
X18323D02*
X18656Y127892D01*
X-49061Y185766D02*
Y187099D01*
X-49394Y187432D01*
X-50060D01*
X-50394Y187099D01*
Y185766D01*
X-50060Y185433D01*
X-49394D01*
X-49727Y186100D02*
X-49061Y185433D01*
X-49394D02*
X-49061Y185766D01*
X12205Y161055D02*
Y159055D01*
X13204D01*
X13538Y159388D01*
Y160721D01*
X13204Y161055D01*
X12205D01*
X9843Y156330D02*
Y154331D01*
X10842D01*
X11175Y154664D01*
Y155997D01*
X10842Y156330D01*
X9843D01*
X14961Y154362D02*
Y152362D01*
X15960D01*
X16294Y152695D01*
Y154028D01*
X15960Y154362D01*
X14961D01*
X124080Y317369D02*
Y315370D01*
X125079D01*
X125412Y315703D01*
Y317036D01*
X125079Y317369D01*
X124080D01*
X402999Y311534D02*
Y309535D01*
X403999D01*
X404332Y309868D01*
Y311201D01*
X403999Y311534D01*
X402999D01*
X193307Y314614D02*
Y312614D01*
X194307D01*
X194640Y312947D01*
Y314280D01*
X194307Y314614D01*
X193307D01*
X183858Y312236D02*
Y310236D01*
X184858D01*
X185191Y310570D01*
Y311902D01*
X184858Y312236D01*
X183858D01*
X261236Y323259D02*
X260570D01*
X260236Y322926D01*
Y321593D01*
X260570Y321260D01*
X261236D01*
X261569Y321593D01*
Y322926D01*
X261236Y323259D01*
X266748D02*
X266081D01*
X265748Y322926D01*
Y321593D01*
X266081Y321260D01*
X266748D01*
X267081Y321593D01*
Y322926D01*
X266748Y323259D01*
X341945D02*
X341278D01*
X340945Y322926D01*
Y321593D01*
X341278Y321260D01*
X341945D01*
X342278Y321593D01*
Y322926D01*
X341945Y323259D01*
X336433D02*
X335766D01*
X335433Y322926D01*
Y321593D01*
X335766Y321260D01*
X336433D01*
X336766Y321593D01*
Y322926D01*
X336433Y323259D01*
X115582Y266173D02*
X114916D01*
X114583Y265839D01*
Y264507D01*
X114916Y264173D01*
X115582D01*
X115916Y264507D01*
Y265839D01*
X115582Y266173D01*
X-27000Y227799D02*
X-27667D01*
X-28000Y227466D01*
Y226133D01*
X-27667Y225800D01*
X-27000D01*
X-26667Y226133D01*
Y227466D01*
X-27000Y227799D01*
X-27400Y224299D02*
X-28067D01*
X-28400Y223966D01*
Y222633D01*
X-28067Y222300D01*
X-27400D01*
X-27067Y222633D01*
Y223966D01*
X-27400Y224299D01*
X15033Y226233D02*
Y227566D01*
X14700Y227899D01*
X14033D01*
X13700Y227566D01*
Y226233D01*
X14033Y225900D01*
X14700D01*
X14367Y226566D02*
X15033Y225900D01*
X14700D02*
X15033Y226233D01*
X-27706Y231500D02*
Y232833D01*
X-28039Y233166D01*
X-28706D01*
X-29039Y232833D01*
Y231500D01*
X-28706Y231167D01*
X-28039D01*
X-28373Y231834D02*
X-27706Y231167D01*
X-28039D02*
X-27706Y231500D01*
X-30067Y226333D02*
Y227666D01*
X-30400Y227999D01*
X-31067D01*
X-31400Y227666D01*
Y226333D01*
X-31067Y226000D01*
X-30400D01*
X-30734Y226666D02*
X-30067Y226000D01*
X-30400D02*
X-30067Y226333D01*
X8879Y210364D02*
X8213D01*
X7880Y210031D01*
Y208698D01*
X8213Y208365D01*
X8879D01*
X9213Y208698D01*
Y210031D01*
X8879Y210364D01*
X1787Y210267D02*
X1121D01*
X787Y209934D01*
Y208601D01*
X1121Y208268D01*
X1787D01*
X2120Y208601D01*
Y209934D01*
X1787Y210267D01*
X15646Y209793D02*
X14980D01*
X14647Y209460D01*
Y208127D01*
X14980Y207794D01*
X15646D01*
X15980Y208127D01*
Y209460D01*
X15646Y209793D01*
X19100Y220599D02*
X18433D01*
X18100Y220266D01*
Y218933D01*
X18433Y218600D01*
X19100D01*
X19433Y218933D01*
Y220266D01*
X19100Y220599D01*
X59300Y216599D02*
X58633D01*
X58300Y216266D01*
Y214933D01*
X58633Y214600D01*
X59300D01*
X59633Y214933D01*
Y216266D01*
X59300Y216599D01*
X63614Y201212D02*
X62947D01*
X62614Y200879D01*
Y199546D01*
X62947Y199213D01*
X63614D01*
X63947Y199546D01*
Y200879D01*
X63614Y201212D01*
X21805Y220806D02*
Y222139D01*
X21472Y222472D01*
X20806D01*
X20472Y222139D01*
Y220806D01*
X20806Y220472D01*
X21472D01*
X21139Y221139D02*
X21805Y220472D01*
X21472D02*
X21805Y220806D01*
X-19473Y203968D02*
X-20139D01*
X-20472Y203635D01*
Y202302D01*
X-20139Y201969D01*
X-19473D01*
X-19139Y202302D01*
Y203635D01*
X-19473Y203968D01*
X-30951Y202695D02*
Y204028D01*
X-31284Y204362D01*
X-31950D01*
X-32283Y204028D01*
Y202695D01*
X-31950Y202362D01*
X-31284D01*
X-31617Y203029D02*
X-30951Y202362D01*
X-31284D02*
X-30951Y202695D01*
X5330Y197669D02*
X4664D01*
X4331Y197335D01*
Y196002D01*
X4664Y195669D01*
X5330D01*
X5664Y196002D01*
Y197335D01*
X5330Y197669D01*
X212Y195306D02*
X-454D01*
X-787Y194973D01*
Y193640D01*
X-454Y193307D01*
X212D01*
X545Y193640D01*
Y194973D01*
X212Y195306D01*
X23774Y226318D02*
Y227650D01*
X23441Y227984D01*
X22774D01*
X22441Y227650D01*
Y226318D01*
X22774Y225984D01*
X23441D01*
X23107Y226651D02*
X23774Y225984D01*
X23441D02*
X23774Y226318D01*
X-16384Y233420D02*
Y234753D01*
X-16717Y235086D01*
X-17383D01*
X-17717Y234753D01*
Y233420D01*
X-17383Y233087D01*
X-16717D01*
X-17050Y233753D02*
X-16384Y233087D01*
X-16717D02*
X-16384Y233420D01*
X134858Y244519D02*
X134192D01*
X133858Y244186D01*
Y242853D01*
X134192Y242520D01*
X134858D01*
X135191Y242853D01*
Y244186D01*
X134858Y244519D01*
X136039Y269322D02*
X135373D01*
X135039Y268989D01*
Y267656D01*
X135373Y267323D01*
X136039D01*
X136372Y267656D01*
Y268989D01*
X136039Y269322D01*
X38583Y201999D02*
Y200000D01*
X39582D01*
X39916Y200333D01*
Y201666D01*
X39582Y201999D01*
X38583D01*
X82874Y263280D02*
Y264613D01*
X82541Y264946D01*
X81875D01*
X81541Y264613D01*
Y263280D01*
X81875Y262947D01*
X82541D01*
X82208Y263613D02*
X82874Y262947D01*
X82541D02*
X82874Y263280D01*
X88500Y331299D02*
Y329300D01*
X89500D01*
X89833Y329633D01*
Y330966D01*
X89500Y331299D01*
X88500D01*
X61236Y262629D02*
X60569D01*
X60236Y262296D01*
Y260963D01*
X60569Y260630D01*
X61236D01*
X61569Y260963D01*
Y262296D01*
X61236Y262629D01*
X89582Y354755D02*
X88916D01*
X88583Y354422D01*
Y353089D01*
X88916Y352756D01*
X89582D01*
X89916Y353089D01*
Y354422D01*
X89582Y354755D01*
X174409Y308692D02*
Y306693D01*
X175409D01*
X175742Y307026D01*
Y308359D01*
X175409Y308692D01*
X174409D01*
X134858Y329165D02*
X134192D01*
X133858Y328832D01*
Y327499D01*
X134192Y327165D01*
X134858D01*
X135191Y327499D01*
Y328832D01*
X134858Y329165D01*
X70079Y309086D02*
Y307087D01*
X71078D01*
X71412Y307420D01*
Y308753D01*
X71078Y309086D01*
X70079D01*
X31648Y228286D02*
Y229619D01*
X31315Y229952D01*
X30648D01*
X30315Y229619D01*
Y228286D01*
X30648Y227953D01*
X31315D01*
X30981Y228619D02*
X31648Y227953D01*
X31315D02*
X31648Y228286D01*
X-19473Y218141D02*
X-20139D01*
X-20472Y217808D01*
Y216475D01*
X-20139Y216142D01*
X-19473D01*
X-19139Y216475D01*
Y217808D01*
X-19473Y218141D01*
X29971Y292271D02*
Y290271D01*
X30971D01*
X31304Y290605D01*
Y291938D01*
X30971Y292271D01*
X29971D01*
X-34145Y227150D02*
Y228483D01*
X-34479Y228816D01*
X-35145D01*
X-35478Y228483D01*
Y227150D01*
X-35145Y226817D01*
X-34479D01*
X-34812Y227483D02*
X-34145Y226817D01*
X-34479D02*
X-34145Y227150D01*
X-36462Y231042D02*
Y232375D01*
X-36796Y232708D01*
X-37462D01*
X-37795Y232375D01*
Y231042D01*
X-37462Y230709D01*
X-36796D01*
X-37129Y231375D02*
X-36462Y230709D01*
X-36796D02*
X-36462Y231042D01*
X-5360Y253483D02*
Y254816D01*
X-5693Y255149D01*
X-6360D01*
X-6693Y254816D01*
Y253483D01*
X-6360Y253150D01*
X-5693D01*
X-6027Y253816D02*
X-5360Y253150D01*
X-5693D02*
X-5360Y253483D01*
X9299Y278535D02*
Y276536D01*
X10299D01*
X10632Y276869D01*
Y278202D01*
X10299Y278535D01*
X9299D01*
X100848Y239553D02*
X100182D01*
X99848Y239219D01*
Y237887D01*
X100182Y237553D01*
X100848D01*
X101181Y237887D01*
Y239219D01*
X100848Y239553D01*
X83328Y217702D02*
X82662D01*
X82329Y217369D01*
Y216036D01*
X82662Y215703D01*
X83328D01*
X83662Y216036D01*
Y217369D01*
X83328Y217702D01*
X561051Y188733D02*
Y186734D01*
X562051D01*
X562384Y187067D01*
Y188400D01*
X562051Y188733D01*
X561051D01*
X576499Y187885D02*
Y185886D01*
X577498D01*
X577832Y186219D01*
Y187552D01*
X577498Y187885D01*
X576499D01*
X602805Y175127D02*
Y173128D01*
X603805D01*
X604138Y173461D01*
Y174794D01*
X603805Y175127D01*
X602805D01*
X573099Y153235D02*
Y151236D01*
X574098D01*
X574432Y151569D01*
Y152902D01*
X574098Y153235D01*
X573099D01*
X608852Y163867D02*
Y161868D01*
X609852D01*
X610185Y162201D01*
Y163534D01*
X609852Y163867D01*
X608852D01*
X542348Y183384D02*
Y181385D01*
X543347D01*
X543681Y181718D01*
Y183051D01*
X543347Y183384D01*
X542348D01*
X512451Y171935D02*
Y169936D01*
X513451D01*
X513784Y170269D01*
Y171602D01*
X513451Y171935D01*
X512451D01*
X511400Y163599D02*
Y161600D01*
X512400D01*
X512733Y161933D01*
Y163266D01*
X512400Y163599D01*
X511400D01*
X541993Y167271D02*
Y165272D01*
X542993D01*
X543326Y165605D01*
Y166938D01*
X542993Y167271D01*
X541993D01*
X453150Y166173D02*
Y164173D01*
X454149D01*
X454483Y164506D01*
Y165839D01*
X454149Y166173D01*
X453150D01*
X623441Y126409D02*
X622774D01*
X622441Y126076D01*
Y124743D01*
X622774Y124409D01*
X623441D01*
X623774Y124743D01*
Y126076D01*
X623441Y126409D01*
X608148Y110585D02*
X607482D01*
X607149Y110252D01*
Y108919D01*
X607482Y108586D01*
X608148D01*
X608482Y108919D01*
Y110252D01*
X608148Y110585D01*
X592732Y103180D02*
X592065D01*
X591732Y102847D01*
Y101514D01*
X592065Y101181D01*
X592732D01*
X593065Y101514D01*
Y102847D01*
X592732Y103180D01*
X463992Y109873D02*
X463325D01*
X462992Y109540D01*
Y108207D01*
X463325Y107874D01*
X463992D01*
X464325Y108207D01*
Y109540D01*
X463992Y109873D01*
X449031Y64991D02*
X448365D01*
X448032Y64658D01*
Y63325D01*
X448365Y62992D01*
X449031D01*
X449364Y63325D01*
Y64658D01*
X449031Y64991D01*
X463204D02*
X462538D01*
X462205Y64658D01*
Y63325D01*
X462538Y62992D01*
X463204D01*
X463538Y63325D01*
Y64658D01*
X463204Y64991D01*
X474622D02*
X473955D01*
X473622Y64658D01*
Y63325D01*
X473955Y62992D01*
X474622D01*
X474955Y63325D01*
Y64658D01*
X474622Y64991D01*
X491157Y40188D02*
X490491D01*
X490158Y39855D01*
Y38522D01*
X490491Y38189D01*
X491157D01*
X491490Y38522D01*
Y39855D01*
X491157Y40188D01*
X477771Y14598D02*
X477105D01*
X476772Y14265D01*
Y12932D01*
X477105Y12598D01*
X477771D01*
X478105Y12932D01*
Y14265D01*
X477771Y14598D01*
X440370Y-12961D02*
X439703D01*
X439370Y-13295D01*
Y-14627D01*
X439703Y-14961D01*
X440370D01*
X440703Y-14627D01*
Y-13295D01*
X440370Y-12961D01*
X422260Y-65324D02*
X421593D01*
X421260Y-65657D01*
Y-66990D01*
X421593Y-67323D01*
X422260D01*
X422593Y-66990D01*
Y-65657D01*
X422260Y-65324D01*
X389976Y-69261D02*
X389310D01*
X388976Y-69594D01*
Y-70927D01*
X389310Y-71260D01*
X389976D01*
X390309Y-70927D01*
Y-69594D01*
X389976Y-69261D01*
X-28134Y268535D02*
X-28801D01*
X-29134Y268202D01*
Y266869D01*
X-28801Y266535D01*
X-28134D01*
X-27801Y266869D01*
Y268202D01*
X-28134Y268535D01*
X56511Y305149D02*
X55845D01*
X55512Y304816D01*
Y303483D01*
X55845Y303150D01*
X56511D01*
X56845Y303483D01*
Y304816D01*
X56511Y305149D01*
X113598Y313023D02*
X112932D01*
X112598Y312690D01*
Y311357D01*
X112932Y311024D01*
X113598D01*
X113931Y311357D01*
Y312690D01*
X113598Y313023D01*
X488401Y339795D02*
X487735D01*
X487402Y339461D01*
Y338128D01*
X487735Y337795D01*
X488401D01*
X488734Y338128D01*
Y339461D01*
X488401Y339795D01*
X543913Y338220D02*
X543247D01*
X542913Y337887D01*
Y336554D01*
X543247Y336221D01*
X543913D01*
X544246Y336554D01*
Y337887D01*
X543913Y338220D01*
X592338Y317354D02*
X591672D01*
X591339Y317021D01*
Y315688D01*
X591672Y315354D01*
X592338D01*
X592671Y315688D01*
Y317021D01*
X592338Y317354D01*
X480527Y301606D02*
X479861D01*
X479528Y301272D01*
Y299939D01*
X479861Y299606D01*
X480527D01*
X480861Y299939D01*
Y301272D01*
X480527Y301606D01*
X510449Y276409D02*
X509782D01*
X509449Y276076D01*
Y274743D01*
X509782Y274410D01*
X510449D01*
X510782Y274743D01*
Y276076D01*
X510449Y276409D01*
X441157Y329165D02*
X440491D01*
X440158Y328832D01*
Y327499D01*
X440491Y327165D01*
X441157D01*
X441490Y327499D01*
Y328832D01*
X441157Y329165D01*
X431708D02*
X431042D01*
X430709Y328832D01*
Y327499D01*
X431042Y327165D01*
X431708D01*
X432042Y327499D01*
Y328832D01*
X431708Y329165D01*
X457693Y278377D02*
X457026D01*
X456693Y278044D01*
Y276711D01*
X457026Y276378D01*
X457693D01*
X458026Y276711D01*
Y278044D01*
X457693Y278377D01*
X464386Y213023D02*
X463719D01*
X463386Y212690D01*
Y211357D01*
X463719Y211024D01*
X464386D01*
X464719Y211357D01*
Y212690D01*
X464386Y213023D01*
X449819Y229952D02*
X449152D01*
X448819Y229619D01*
Y228286D01*
X449152Y227953D01*
X449819D01*
X450152Y228286D01*
Y229619D01*
X449819Y229952D01*
X448637Y208299D02*
X447971D01*
X447638Y207965D01*
Y206632D01*
X447971Y206299D01*
X448637D01*
X448971Y206632D01*
Y207965D01*
X448637Y208299D01*
X413992Y161842D02*
X413325D01*
X412992Y161509D01*
Y160176D01*
X413325Y159843D01*
X413992D01*
X414325Y160176D01*
Y161509D01*
X413992Y161842D01*
X430921Y184677D02*
X430255D01*
X429921Y184343D01*
Y183010D01*
X430255Y182677D01*
X430921D01*
X431254Y183010D01*
Y184343D01*
X430921Y184677D01*
X497456Y165385D02*
X496790D01*
X496457Y165052D01*
Y163719D01*
X496790Y163386D01*
X497456D01*
X497790Y163719D01*
Y165052D01*
X497456Y165385D01*
X455330Y129952D02*
X454664D01*
X454331Y129619D01*
Y128286D01*
X454664Y127953D01*
X455330D01*
X455664Y128286D01*
Y129619D01*
X455330Y129952D01*
X341945Y120897D02*
X341278D01*
X340945Y120564D01*
Y119231D01*
X341278Y118898D01*
X341945D01*
X342278Y119231D01*
Y120564D01*
X341945Y120897D01*
X-45851Y47669D02*
X-46517D01*
X-46850Y47335D01*
Y46003D01*
X-46517Y45669D01*
X-45851D01*
X-45518Y46003D01*
Y47335D01*
X-45851Y47669D01*
X-18685Y83102D02*
X-19352D01*
X-19685Y82768D01*
Y81436D01*
X-19352Y81102D01*
X-18685D01*
X-18352Y81436D01*
Y82768D01*
X-18685Y83102D01*
X21472Y22472D02*
X20806D01*
X20472Y22139D01*
Y20806D01*
X20806Y20472D01*
X21472D01*
X21805Y20806D01*
Y22139D01*
X21472Y22472D01*
X62811Y-7450D02*
X62144D01*
X61811Y-7783D01*
Y-9116D01*
X62144Y-9449D01*
X62811D01*
X63144Y-9116D01*
Y-7783D01*
X62811Y-7450D01*
X78165Y15779D02*
X77499D01*
X77165Y15446D01*
Y14113D01*
X77499Y13780D01*
X78165D01*
X78498Y14113D01*
Y15446D01*
X78165Y15779D01*
X77378Y9086D02*
X76711D01*
X76378Y8753D01*
Y7420D01*
X76711Y7087D01*
X77378D01*
X77711Y7420D01*
Y8753D01*
X77378Y9086D01*
X21866Y72078D02*
X21199D01*
X20866Y71745D01*
Y70412D01*
X21199Y70079D01*
X21866D01*
X22199Y70412D01*
Y71745D01*
X21866Y72078D01*
X17535Y69322D02*
X16869D01*
X16535Y68989D01*
Y67656D01*
X16869Y67323D01*
X17535D01*
X17868Y67656D01*
Y68989D01*
X17535Y69322D01*
X3756Y83889D02*
X3089D01*
X2756Y83556D01*
Y82223D01*
X3089Y81890D01*
X3756D01*
X4089Y82223D01*
Y83556D01*
X3756Y83889D01*
X-5693Y191763D02*
X-6360D01*
X-6693Y191430D01*
Y190097D01*
X-6360Y189764D01*
X-5693D01*
X-5360Y190097D01*
Y191430D01*
X-5693Y191763D01*
X-11205Y174834D02*
X-11872D01*
X-12205Y174501D01*
Y173168D01*
X-11872Y172835D01*
X-11205D01*
X-10872Y173168D01*
Y174501D01*
X-11205Y174834D01*
X108086Y168929D02*
X107420D01*
X107087Y168595D01*
Y167262D01*
X107420Y166929D01*
X108086D01*
X108420Y167262D01*
Y168595D01*
X108086Y168929D01*
X117141Y189795D02*
X116475D01*
X116142Y189461D01*
Y188128D01*
X116475Y187795D01*
X117141D01*
X117475Y188128D01*
Y189461D01*
X117141Y189795D01*
X130527Y200031D02*
X129861D01*
X129528Y199698D01*
Y198365D01*
X129861Y198031D01*
X130527D01*
X130860Y198365D01*
Y199698D01*
X130527Y200031D01*
X84464Y200425D02*
X83798D01*
X83465Y200091D01*
Y198758D01*
X83798Y198425D01*
X84464D01*
X84798Y198758D01*
Y200091D01*
X84464Y200425D01*
X49819Y157117D02*
X49152D01*
X48819Y156784D01*
Y155451D01*
X49152Y155118D01*
X49819D01*
X50152Y155451D01*
Y156784D01*
X49819Y157117D01*
X6511Y176409D02*
X5845D01*
X5512Y176076D01*
Y174743D01*
X5845Y174409D01*
X6511D01*
X6845Y174743D01*
Y176076D01*
X6511Y176409D01*
X10842Y192944D02*
X10176D01*
X9843Y192611D01*
Y191278D01*
X10176Y190945D01*
X10842D01*
X11175Y191278D01*
Y192611D01*
X10842Y192944D01*
X21866Y182314D02*
X21199D01*
X20866Y181981D01*
Y180648D01*
X21199Y180315D01*
X21866D01*
X22199Y180648D01*
Y181981D01*
X21866Y182314D01*
X32496Y187039D02*
X31829D01*
X31496Y186706D01*
Y185373D01*
X31829Y185039D01*
X32496D01*
X32829Y185373D01*
Y186706D01*
X32496Y187039D01*
X16354Y196881D02*
X15688D01*
X15354Y196548D01*
Y195215D01*
X15688Y194882D01*
X16354D01*
X16687Y195215D01*
Y196548D01*
X16354Y196881D01*
X-65142D02*
X-65808D01*
X-66142Y196548D01*
Y195215D01*
X-65808Y194882D01*
X-65142D01*
X-64809Y195215D01*
Y196548D01*
X-65142Y196881D01*
Y201606D02*
X-65808D01*
X-66142Y201272D01*
Y199940D01*
X-65808Y199606D01*
X-65142D01*
X-64809Y199940D01*
Y201272D01*
X-65142Y201606D01*
X-42307Y199243D02*
X-42974D01*
X-43307Y198910D01*
Y197577D01*
X-42974Y197244D01*
X-42307D01*
X-41974Y197577D01*
Y198910D01*
X-42307Y199243D01*
X-34040Y192157D02*
X-34706D01*
X-35039Y191824D01*
Y190491D01*
X-34706Y190157D01*
X-34040D01*
X-33707Y190491D01*
Y191824D01*
X-34040Y192157D01*
Y200818D02*
X-34706D01*
X-35039Y200485D01*
Y199152D01*
X-34706Y198819D01*
X-34040D01*
X-33707Y199152D01*
Y200485D01*
X-34040Y200818D01*
Y207511D02*
X-34706D01*
X-35039Y207178D01*
Y205845D01*
X-34706Y205512D01*
X-34040D01*
X-33707Y205845D01*
Y207178D01*
X-34040Y207511D01*
X-71441Y35858D02*
X-72108D01*
X-72441Y35524D01*
Y34192D01*
X-72108Y33858D01*
X-71441D01*
X-71108Y34192D01*
Y35524D01*
X-71441Y35858D01*
X-18685Y35464D02*
X-19352D01*
X-19685Y35131D01*
Y33798D01*
X-19352Y33465D01*
X-18685D01*
X-18352Y33798D01*
Y35131D01*
X-18685Y35464D01*
X89582Y29558D02*
X88916D01*
X88583Y29225D01*
Y27892D01*
X88916Y27559D01*
X89582D01*
X89916Y27892D01*
Y29225D01*
X89582Y29558D01*
X50606Y63417D02*
X49940D01*
X49606Y63083D01*
Y61751D01*
X49940Y61417D01*
X50606D01*
X50939Y61751D01*
Y63083D01*
X50606Y63417D01*
X219504Y57511D02*
X218837D01*
X218504Y57178D01*
Y55845D01*
X218837Y55512D01*
X219504D01*
X219837Y55845D01*
Y57178D01*
X219504Y57511D01*
X245488Y64598D02*
X244821D01*
X244488Y64265D01*
Y62932D01*
X244821Y62598D01*
X245488D01*
X245821Y62932D01*
Y64265D01*
X245488Y64598D01*
X216748Y129952D02*
X216081D01*
X215748Y129619D01*
Y128286D01*
X216081Y127953D01*
X216748D01*
X217081Y128286D01*
Y129619D01*
X216748Y129952D01*
X248244D02*
X247577D01*
X247244Y129619D01*
Y128286D01*
X247577Y127953D01*
X248244D01*
X248577Y128286D01*
Y129619D01*
X248244Y129952D01*
X306905Y26015D02*
X306239D01*
X305906Y25682D01*
Y24349D01*
X306239Y24016D01*
X306905D01*
X307238Y24349D01*
Y25682D01*
X306905Y26015D01*
X350212Y31921D02*
X349546D01*
X349213Y31587D01*
Y30255D01*
X349546Y29921D01*
X350212D01*
X350546Y30255D01*
Y31587D01*
X350212Y31921D01*
X269110Y33495D02*
X268443D01*
X268110Y33162D01*
Y31829D01*
X268443Y31496D01*
X269110D01*
X269443Y31829D01*
Y33162D01*
X269110Y33495D01*
X262811Y1606D02*
X262144D01*
X261811Y1272D01*
Y-61D01*
X262144Y-394D01*
X262811D01*
X263144Y-61D01*
Y1272D01*
X262811Y1606D01*
X263598Y22078D02*
X262932D01*
X262598Y21745D01*
Y20412D01*
X262932Y20079D01*
X263598D01*
X263931Y20412D01*
Y21745D01*
X263598Y22078D01*
X263204Y16566D02*
X262538D01*
X262205Y16233D01*
Y14900D01*
X262538Y14567D01*
X263204D01*
X263538Y14900D01*
Y16233D01*
X263204Y16566D01*
X267535Y10267D02*
X266869D01*
X266535Y9934D01*
Y8601D01*
X266869Y8268D01*
X267535D01*
X267868Y8601D01*
Y9934D01*
X267535Y10267D01*
X232102Y33102D02*
X231436D01*
X231102Y32768D01*
Y31436D01*
X231436Y31102D01*
X232102D01*
X232435Y31436D01*
Y32768D01*
X232102Y33102D01*
Y27984D02*
X231436D01*
X231102Y27650D01*
Y26318D01*
X231436Y25984D01*
X232102D01*
X232435Y26318D01*
Y27650D01*
X232102Y27984D01*
Y22078D02*
X231436D01*
X231102Y21745D01*
Y20412D01*
X231436Y20079D01*
X232102D01*
X232435Y20412D01*
Y21745D01*
X232102Y22078D01*
Y16566D02*
X231436D01*
X231102Y16233D01*
Y14900D01*
X231436Y14567D01*
X232102D01*
X232435Y14900D01*
Y16233D01*
X232102Y16566D01*
Y9480D02*
X231436D01*
X231102Y9146D01*
Y7813D01*
X231436Y7480D01*
X232102D01*
X232435Y7813D01*
Y9146D01*
X232102Y9480D01*
X233677Y1212D02*
X233010D01*
X232677Y879D01*
Y-454D01*
X233010Y-787D01*
X233677D01*
X234010Y-454D01*
Y879D01*
X233677Y1212D01*
X127771Y16566D02*
X127105D01*
X126772Y16233D01*
Y14900D01*
X127105Y14567D01*
X127771D01*
X128104Y14900D01*
Y16233D01*
X127771Y16566D01*
X99031Y9480D02*
X98365D01*
X98032Y9146D01*
Y7813D01*
X98365Y7480D01*
X99031D01*
X99364Y7813D01*
Y9146D01*
X99031Y9480D01*
Y1606D02*
X98365D01*
X98032Y1272D01*
Y-61D01*
X98365Y-394D01*
X99031D01*
X99364Y-61D01*
Y1272D01*
X99031Y1606D01*
Y-4694D02*
X98365D01*
X98032Y-5027D01*
Y-6360D01*
X98365Y-6693D01*
X99031D01*
X99364Y-6360D01*
Y-5027D01*
X99031Y-4694D01*
X497850Y-32843D02*
X497184D01*
X496850Y-33176D01*
Y-34509D01*
X497184Y-34843D01*
X497850D01*
X498183Y-34509D01*
Y-33176D01*
X497850Y-32843D01*
X501393D02*
X500727D01*
X500394Y-33176D01*
Y-34509D01*
X500727Y-34843D01*
X501393D01*
X501727Y-34509D01*
Y-33176D01*
X501393Y-32843D01*
X504937D02*
X504270D01*
X503937Y-33176D01*
Y-34509D01*
X504270Y-34843D01*
X504937D01*
X505270Y-34509D01*
Y-33176D01*
X504937Y-32843D01*
Y-29300D02*
X504270D01*
X503937Y-29633D01*
Y-30966D01*
X504270Y-31299D01*
X504937D01*
X505270Y-30966D01*
Y-29633D01*
X504937Y-29300D01*
X501393D02*
X500727D01*
X500394Y-29633D01*
Y-30966D01*
X500727Y-31299D01*
X501393D01*
X501727Y-30966D01*
Y-29633D01*
X501393Y-29300D01*
X497850D02*
X497184D01*
X496850Y-29633D01*
Y-30966D01*
X497184Y-31299D01*
X497850D01*
X498183Y-30966D01*
Y-29633D01*
X497850Y-29300D01*
X603362Y98850D02*
X602695D01*
X602362Y98516D01*
Y97184D01*
X602695Y96850D01*
X603362D01*
X603695Y97184D01*
Y98516D01*
X603362Y98850D01*
X542338Y99637D02*
X541672D01*
X541339Y99304D01*
Y97971D01*
X541672Y97638D01*
X542338D01*
X542671Y97971D01*
Y99304D01*
X542338Y99637D01*
X554149Y112629D02*
X553483D01*
X553150Y112296D01*
Y110963D01*
X553483Y110630D01*
X554149D01*
X554483Y110963D01*
Y112296D01*
X554149Y112629D01*
X530467Y74834D02*
X529134D01*
Y72835D01*
X530467D01*
X529134Y73834D02*
X529800D01*
X326049Y12507D02*
Y10508D01*
X327048D01*
X327382Y10841D01*
Y12174D01*
X327048Y12507D01*
X326049D01*
X116929Y-73591D02*
Y-75590D01*
X117929D01*
X118262Y-75257D01*
Y-73924D01*
X117929Y-73591D01*
X116929D01*
X13386Y-40127D02*
Y-42126D01*
X14386D01*
X14719Y-41793D01*
Y-40460D01*
X14386Y-40127D01*
X13386D01*
X599606Y57905D02*
Y55905D01*
X600606D01*
X600939Y56239D01*
Y57572D01*
X600606Y57905D01*
X599606D01*
X540158Y63023D02*
Y61024D01*
X541157D01*
X541490Y61357D01*
Y62690D01*
X541157Y63023D01*
X540158D01*
X572099Y56640D02*
X572765D01*
X572432D01*
Y54641D01*
X572099D01*
X572765D01*
X572441Y66960D02*
X573107D01*
X572774D01*
Y64961D01*
X572441D01*
X573107D01*
X-56924Y174932D02*
X-57591D01*
X-57924Y174599D01*
Y173266D01*
X-57591Y172933D01*
X-56924D01*
X-56591Y173266D01*
Y174599D01*
X-56924Y174932D01*
X576030Y224185D02*
X575363D01*
X575030Y223852D01*
Y222519D01*
X575363Y222186D01*
X576030D01*
X576363Y222519D01*
Y223852D01*
X576030Y224185D01*
X-66422Y128968D02*
X-67088D01*
X-67421Y128635D01*
Y127302D01*
X-67088Y126969D01*
X-66422D01*
X-66088Y127302D01*
Y128635D01*
X-66422Y128968D01*
X-61492Y125129D02*
X-62159D01*
X-62492Y124796D01*
Y123463D01*
X-62159Y123130D01*
X-61492D01*
X-61159Y123463D01*
Y124796D01*
X-61492Y125129D01*
X72266Y334305D02*
Y332306D01*
X73266D01*
X73599Y332639D01*
Y333972D01*
X73266Y334305D01*
X72266D01*
X-38197Y173070D02*
Y174402D01*
X-38530Y174736D01*
X-39196D01*
X-39529Y174402D01*
Y173070D01*
X-39196Y172736D01*
X-38530D01*
X-38863Y173403D02*
X-38197Y172736D01*
X-38530D02*
X-38197Y173070D01*
X-45752Y191566D02*
X-46419D01*
X-46752Y191233D01*
Y189900D01*
X-46419Y189567D01*
X-45752D01*
X-45419Y189900D01*
Y191233D01*
X-45752Y191566D01*
X-65142Y191173D02*
X-65808D01*
X-66142Y190839D01*
Y189506D01*
X-65808Y189173D01*
X-65142D01*
X-64809Y189506D01*
Y190839D01*
X-65142Y191173D01*
X-67504Y187728D02*
X-68171D01*
X-68504Y187394D01*
Y186062D01*
X-68171Y185728D01*
X-67504D01*
X-67171Y186062D01*
Y187394D01*
X-67504Y187728D01*
X-56981Y272172D02*
X-57647D01*
X-57980Y271839D01*
Y270506D01*
X-57647Y270173D01*
X-56981D01*
X-56647Y270506D01*
Y271839D01*
X-56981Y272172D01*
X-54512Y272177D02*
X-55178D01*
X-55512Y271843D01*
Y270510D01*
X-55178Y270177D01*
X-54512D01*
X-54179Y270510D01*
Y271843D01*
X-54512Y272177D01*
X625689Y48062D02*
Y46063D01*
X626689D01*
X627022Y46396D01*
Y47729D01*
X626689Y48062D01*
X625689D01*
X612598Y92157D02*
Y90158D01*
X613598D01*
X613931Y90491D01*
Y91824D01*
X613598Y92157D01*
X612598D01*
X-63469Y215090D02*
X-64135D01*
X-64468Y214757D01*
Y213424D01*
X-64135Y213090D01*
X-63469D01*
X-63136Y213424D01*
Y214757D01*
X-63469Y215090D01*
Y221291D02*
X-64135D01*
X-64468Y220957D01*
Y219625D01*
X-64135Y219291D01*
X-63469D01*
X-63136Y219625D01*
Y220957D01*
X-63469Y221291D01*
Y225326D02*
X-64135D01*
X-64468Y224993D01*
Y223660D01*
X-64135Y223327D01*
X-63469D01*
X-63136Y223660D01*
Y224993D01*
X-63469Y225326D01*
Y212728D02*
X-64135D01*
X-64468Y212394D01*
Y211062D01*
X-64135Y210728D01*
X-63469D01*
X-63136Y211062D01*
Y212394D01*
X-63469Y212728D01*
X29899Y35035D02*
Y33036D01*
X30898D01*
X31232Y33369D01*
Y34702D01*
X30898Y35035D01*
X29899D01*
X-67504Y225326D02*
X-68171D01*
X-68504Y224993D01*
Y223660D01*
X-68171Y223327D01*
X-67504D01*
X-67171Y223660D01*
Y224993D01*
X-67504Y225326D01*
Y221291D02*
X-68171D01*
X-68504Y220957D01*
Y219625D01*
X-68171Y219291D01*
X-67504D01*
X-67171Y219625D01*
Y220957D01*
X-67504Y221291D01*
X-67603Y215090D02*
X-68269D01*
X-68602Y214757D01*
Y213424D01*
X-68269Y213090D01*
X-67603D01*
X-67269Y213424D01*
Y214757D01*
X-67603Y215090D01*
X-67504Y177590D02*
X-68171D01*
X-68504Y177257D01*
Y175924D01*
X-68171Y175591D01*
X-67504D01*
X-67171Y175924D01*
Y177257D01*
X-67504Y177590D01*
Y173555D02*
X-68171D01*
X-68504Y173221D01*
Y171888D01*
X-68171Y171555D01*
X-67504D01*
X-67171Y171888D01*
Y173221D01*
X-67504Y173555D01*
X-67603Y212728D02*
X-68269D01*
X-68602Y212394D01*
Y211062D01*
X-68269Y210728D01*
X-67603D01*
X-67269Y211062D01*
Y212394D01*
X-67603Y212728D01*
X469882Y4755D02*
Y2756D01*
X470882D01*
X471215Y3089D01*
Y4422D01*
X470882Y4755D01*
X469882D01*
X407949Y360435D02*
Y358436D01*
X408949D01*
X409282Y358769D01*
Y360102D01*
X408949Y360435D01*
X407949D01*
X153949Y375185D02*
Y373186D01*
X154948D01*
X155282Y373519D01*
Y374852D01*
X154948Y375185D01*
X153949D01*
X309999Y377935D02*
Y375936D01*
X310999D01*
X311332Y376269D01*
Y377602D01*
X310999Y377935D01*
X309999D01*
X245999Y375685D02*
Y373686D01*
X246999D01*
X247332Y374019D01*
Y375352D01*
X246999Y375685D01*
X245999D01*
X477400Y225499D02*
Y223500D01*
X478400D01*
X478733Y223833D01*
Y225166D01*
X478400Y225499D01*
X477400D01*
X577799Y235635D02*
Y233636D01*
X578798D01*
X579132Y233969D01*
Y235302D01*
X578798Y235635D01*
X577799D01*
X556999Y132535D02*
Y130536D01*
X557999D01*
X558332Y130869D01*
Y132202D01*
X557999Y132535D01*
X556999D01*
X552400Y263099D02*
Y261100D01*
X553400D01*
X553733Y261433D01*
Y262766D01*
X553400Y263099D01*
X552400D01*
X574600Y250599D02*
Y248600D01*
X575600D01*
X575933Y248933D01*
Y250266D01*
X575600Y250599D01*
X574600D01*
X99350Y322799D02*
Y320800D01*
X100350D01*
X100683Y321133D01*
Y322466D01*
X100350Y322799D01*
X99350D01*
X43800Y321849D02*
Y319850D01*
X44800D01*
X45133Y320183D01*
Y321516D01*
X44800Y321849D01*
X43800D01*
X618701Y174333D02*
Y172334D01*
X619701D01*
X620034Y172667D01*
Y174000D01*
X619701Y174333D01*
X618701D01*
X464621Y266820D02*
Y264821D01*
X465621D01*
X465954Y265154D01*
Y266487D01*
X465621Y266820D01*
X464621D01*
X610499Y301335D02*
Y299336D01*
X611498D01*
X611832Y299669D01*
Y301002D01*
X611498Y301335D01*
X610499D01*
X458099Y222835D02*
Y220836D01*
X459098D01*
X459432Y221169D01*
Y222502D01*
X459098Y222835D01*
X458099D01*
X552549Y121313D02*
Y119314D01*
X553548D01*
X553882Y119647D01*
Y120980D01*
X553548Y121313D01*
X552549D01*
X530749Y125535D02*
Y123536D01*
X531748D01*
X532082Y123869D01*
Y125202D01*
X531748Y125535D01*
X530749D01*
X250197Y-9812D02*
Y-11811D01*
X251197D01*
X251530Y-11478D01*
Y-10145D01*
X251197Y-9812D01*
X250197D01*
X256049Y-36165D02*
Y-38164D01*
X257049D01*
X257382Y-37831D01*
Y-36498D01*
X257049Y-36165D01*
X256049D01*
X238299Y-40665D02*
Y-42664D01*
X239299D01*
X239632Y-42331D01*
Y-40998D01*
X239299Y-40665D01*
X238299D01*
X592949Y241285D02*
Y239286D01*
X593949D01*
X594282Y239619D01*
Y240952D01*
X593949Y241285D01*
X592949D01*
X540782Y23085D02*
X539449D01*
Y22085D01*
X540115D01*
X539449D01*
Y21086D01*
X608749Y9785D02*
Y7786D01*
X609749D01*
X610082Y8119D01*
Y9452D01*
X609749Y9785D01*
X608749D01*
X48399Y-72415D02*
Y-74414D01*
X49398D01*
X49732Y-74081D01*
Y-72748D01*
X49398Y-72415D01*
X48399D01*
X-72301Y54135D02*
Y52136D01*
X-71302D01*
X-70968Y52469D01*
Y53802D01*
X-71302Y54135D01*
X-72301D01*
X153649Y-37615D02*
Y-39614D01*
X154648D01*
X154982Y-39281D01*
Y-37948D01*
X154648Y-37615D01*
X153649D01*
X221399Y99985D02*
Y97986D01*
X222398D01*
X222732Y98319D01*
Y99652D01*
X222398Y99985D01*
X221399D01*
X326649Y-1915D02*
Y-3914D01*
X327648D01*
X327982Y-3581D01*
Y-2248D01*
X327648Y-1915D01*
X326649D01*
X331299Y71985D02*
Y69986D01*
X332298D01*
X332632Y70319D01*
Y71652D01*
X332298Y71985D01*
X331299D01*
X537849Y-51465D02*
Y-53464D01*
X538848D01*
X539182Y-53131D01*
Y-51798D01*
X538848Y-51465D01*
X537849D01*
X644649Y129835D02*
Y127836D01*
X645648D01*
X645982Y128169D01*
Y129502D01*
X645648Y129835D01*
X644649D01*
X515349Y347785D02*
Y345786D01*
X516349D01*
X516682Y346119D01*
Y347452D01*
X516349Y347785D01*
X515349D01*
X41299Y381335D02*
Y379336D01*
X42298D01*
X42632Y379669D01*
Y381002D01*
X42298Y381335D01*
X41299D01*
X102549Y211135D02*
Y209136D01*
X103549D01*
X103882Y209469D01*
Y210802D01*
X103549Y211135D01*
X102549D01*
X67149Y166485D02*
Y164486D01*
X68148D01*
X68482Y164819D01*
Y166152D01*
X68148Y166485D01*
X67149D01*
X-68901Y312385D02*
Y310386D01*
X-67901D01*
X-67568Y310719D01*
Y312052D01*
X-67901Y312385D01*
X-68901D01*
X583749Y203535D02*
Y201536D01*
X584749D01*
X585082Y201869D01*
Y203202D01*
X584749Y203535D01*
X583749D01*
X567522Y138258D02*
Y136259D01*
X568521D01*
X568855Y136592D01*
Y137925D01*
X568521Y138258D01*
X567522D01*
X591649Y122235D02*
Y120236D01*
X592649D01*
X592982Y120569D01*
Y121902D01*
X592649Y122235D01*
X591649D01*
X489880Y31D02*
Y-1969D01*
X490880D01*
X491213Y-1635D01*
Y-302D01*
X490880Y31D01*
X489880D01*
X304937Y-26347D02*
X304270D01*
X303937Y-26680D01*
Y-28013D01*
X304270Y-28346D01*
X304937D01*
X305270Y-28013D01*
Y-26680D01*
X304937Y-26347D01*
X370245Y-48665D02*
Y-50664D01*
X371244D01*
X371578Y-50331D01*
Y-48998D01*
X371244Y-48665D01*
X370245D01*
X263189Y-23099D02*
Y-25098D01*
X264189D01*
X264522Y-24765D01*
Y-23432D01*
X264189Y-23099D01*
X263189D01*
X277899Y-47065D02*
Y-49064D01*
X278899D01*
X279232Y-48731D01*
Y-47398D01*
X278899Y-47065D01*
X277899D01*
X293899Y-15715D02*
Y-17714D01*
X294899D01*
X295232Y-17381D01*
Y-16048D01*
X294899Y-15715D01*
X293899D01*
X316849Y-12965D02*
Y-14964D01*
X317848D01*
X318182Y-14631D01*
Y-13298D01*
X317848Y-12965D01*
X316849D01*
X522593Y112629D02*
X521260D01*
Y110630D01*
X522593D01*
X521260Y111630D02*
X521926D01*
X495276Y76409D02*
Y74410D01*
X496275D01*
X496608Y74743D01*
Y76076D01*
X496275Y76409D01*
X495276D01*
X579549Y125485D02*
Y123486D01*
X580548D01*
X580882Y123819D01*
Y125152D01*
X580548Y125485D01*
X579549D01*
X572949Y125435D02*
Y123436D01*
X573948D01*
X574282Y123769D01*
Y125102D01*
X573948Y125435D01*
X572949D01*
X566349D02*
Y123436D01*
X567348D01*
X567682Y123769D01*
Y125102D01*
X567348Y125435D01*
X566349D01*
X572849Y118735D02*
Y116735D01*
X573849D01*
X574182Y117069D01*
Y118401D01*
X573849Y118735D01*
X572849D01*
X579249Y118485D02*
Y116486D01*
X580248D01*
X580582Y116819D01*
Y118152D01*
X580248Y118485D01*
X579249D01*
X579149Y112335D02*
Y110336D01*
X580149D01*
X580482Y110669D01*
Y112002D01*
X580149Y112335D01*
X579149D01*
X572599Y112285D02*
Y110286D01*
X573598D01*
X573932Y110619D01*
Y111952D01*
X573598Y112285D01*
X572599D01*
X566099Y112335D02*
Y110336D01*
X567099D01*
X567432Y110669D01*
Y112002D01*
X567099Y112335D01*
X566099D01*
X566149Y118685D02*
Y116686D01*
X567148D01*
X567482Y117019D01*
Y118352D01*
X567148Y118685D01*
X566149D01*
X554949Y86635D02*
Y84636D01*
X555948D01*
X556282Y84969D01*
Y86302D01*
X555948Y86635D01*
X554949D01*
X612049Y116835D02*
Y114836D01*
X613049D01*
X613382Y115169D01*
Y116502D01*
X613049Y116835D01*
X612049D01*
X-53982Y172873D02*
Y174206D01*
X-54315Y174539D01*
X-54982D01*
X-55315Y174206D01*
Y172873D01*
X-54982Y172539D01*
X-54315D01*
X-54649Y173206D02*
X-53982Y172539D01*
X-54315D02*
X-53982Y172873D01*
X-51953Y272177D02*
X-52619D01*
X-52953Y271843D01*
Y270510D01*
X-52619Y270177D01*
X-51953D01*
X-51620Y270510D01*
Y271843D01*
X-51953Y272177D01*
X-49394D02*
X-50060D01*
X-50394Y271843D01*
Y270510D01*
X-50060Y270177D01*
X-49394D01*
X-49061Y270510D01*
Y271843D01*
X-49394Y272177D01*
X-38075Y302590D02*
X-38742D01*
X-39075Y302257D01*
Y300924D01*
X-38742Y300590D01*
X-38075D01*
X-37742Y300924D01*
Y302257D01*
X-38075Y302590D01*
X256988Y-25953D02*
Y-27953D01*
X257988D01*
X258321Y-27619D01*
Y-26287D01*
X257988Y-25953D01*
X256988D01*
Y-20737D02*
Y-22736D01*
X257988D01*
X258321Y-22403D01*
Y-21070D01*
X257988Y-20737D01*
X256988D01*
X-52544Y170306D02*
X-53210D01*
X-53543Y169973D01*
Y168640D01*
X-53210Y168307D01*
X-52544D01*
X-52210Y168640D01*
Y169973D01*
X-52544Y170306D01*
X-50242Y174841D02*
Y176174D01*
X-50575Y176507D01*
X-51242D01*
X-51575Y176174D01*
Y174841D01*
X-51242Y174508D01*
X-50575D01*
X-50908Y175174D02*
X-50242Y174508D01*
X-50575D02*
X-50242Y174841D01*
X-39256Y156035D02*
X-39923D01*
X-40256Y155702D01*
Y154369D01*
X-39923Y154035D01*
X-39256D01*
X-38923Y154369D01*
Y155702D01*
X-39256Y156035D01*
X-43155Y157125D02*
Y158458D01*
X-43488Y158791D01*
X-44155D01*
X-44488Y158458D01*
Y157125D01*
X-44155Y156791D01*
X-43488D01*
X-43822Y157458D02*
X-43155Y156791D01*
X-43488D02*
X-43155Y157125D01*
X-61992Y188318D02*
X-62659D01*
X-62992Y187985D01*
Y186652D01*
X-62659Y186319D01*
X-61992D01*
X-61659Y186652D01*
Y187985D01*
X-61992Y188318D01*
X-27014Y138522D02*
Y139855D01*
X-27347Y140188D01*
X-28013D01*
X-28346Y139855D01*
Y138522D01*
X-28013Y138189D01*
X-27347D01*
X-27680Y138855D02*
X-27014Y138189D01*
X-27347D02*
X-27014Y138522D01*
X-32919Y131436D02*
Y132768D01*
X-33252Y133102D01*
X-33919D01*
X-34252Y132768D01*
Y131436D01*
X-33919Y131102D01*
X-33252D01*
X-33586Y131769D02*
X-32919Y131102D01*
X-33252D02*
X-32919Y131436D01*
X-30163Y135288D02*
Y136621D01*
X-30496Y136954D01*
X-31163D01*
X-31496Y136621D01*
Y135288D01*
X-31163Y134955D01*
X-30496D01*
X-30830Y135621D02*
X-30163Y134955D01*
X-30496D02*
X-30163Y135288D01*
X-30803Y148118D02*
Y149451D01*
X-31137Y149784D01*
X-31803D01*
X-32136Y149451D01*
Y148118D01*
X-31803Y147785D01*
X-31137D01*
X-31470Y148451D02*
X-30803Y147785D01*
X-31137D02*
X-30803Y148118D01*
X217815Y-7646D02*
Y-9646D01*
X218815D01*
X219148Y-9312D01*
Y-7980D01*
X218815Y-7646D01*
X217815D01*
X217835Y5503D02*
Y3503D01*
X218835D01*
X219168Y3837D01*
Y5170D01*
X218835Y5503D01*
X217835D01*
X200967Y12983D02*
Y10984D01*
X201967D01*
X202300Y11317D01*
Y12650D01*
X201967Y12983D01*
X200967D01*
X194510Y19685D02*
Y17686D01*
X195510D01*
X195843Y18019D01*
Y19352D01*
X195510Y19685D01*
X194510D01*
X-47721Y207314D02*
X-48387D01*
X-48720Y206981D01*
Y205648D01*
X-48387Y205315D01*
X-47721D01*
X-47388Y205648D01*
Y206981D01*
X-47721Y207314D01*
Y204165D02*
X-48387D01*
X-48720Y203832D01*
Y202499D01*
X-48387Y202165D01*
X-47721D01*
X-47388Y202499D01*
Y203832D01*
X-47721Y204165D01*
Y198003D02*
X-48387D01*
X-48720Y197670D01*
Y196337D01*
X-48387Y196004D01*
X-47721D01*
X-47388Y196337D01*
Y197670D01*
X-47721Y198003D01*
Y194716D02*
X-48387D01*
X-48720Y194383D01*
Y193050D01*
X-48387Y192717D01*
X-47721D01*
X-47388Y193050D01*
Y194383D01*
X-47721Y194716D01*
Y201015D02*
X-48387D01*
X-48720Y200682D01*
Y199349D01*
X-48387Y199016D01*
X-47721D01*
X-47388Y199349D01*
Y200682D01*
X-47721Y201015D01*
X194500Y-10601D02*
Y-12600D01*
X195500D01*
X195833Y-12267D01*
Y-10934D01*
X195500Y-10601D01*
X194500D01*
X55550Y311599D02*
Y309600D01*
X56550D01*
X56883Y309933D01*
Y311266D01*
X56550Y311599D01*
X55550D01*
X15427Y-48315D02*
Y-50314D01*
X16427D01*
X16760Y-49981D01*
Y-48648D01*
X16427Y-48315D01*
X15427D01*
X457449Y217135D02*
Y215136D01*
X458449D01*
X458782Y215469D01*
Y216802D01*
X458449Y217135D01*
X457449D01*
X200750Y-7401D02*
Y-9400D01*
X201750D01*
X202083Y-9067D01*
Y-7734D01*
X201750Y-7401D01*
X200750D01*
X452697Y227783D02*
Y225783D01*
X453696D01*
X454029Y226117D01*
Y227450D01*
X453696Y227783D01*
X452697D01*
X37849Y-23515D02*
Y-25514D01*
X38849D01*
X39182Y-25181D01*
Y-23848D01*
X38849Y-23515D01*
X37849D01*
X467788Y-12174D02*
X466455D01*
Y-14173D01*
X467788D01*
X466455Y-13174D02*
X467121D01*
X504796Y-12174D02*
X503463D01*
Y-14173D01*
X504796D01*
X503463Y-13174D02*
X504129D01*
X584399Y245435D02*
Y243436D01*
X585398D01*
X585732Y243769D01*
Y245102D01*
X585398Y245435D01*
X584399D01*
X440399Y172241D02*
Y170242D01*
X441398D01*
X441732Y170575D01*
Y171908D01*
X441398Y172241D01*
X440399D01*
X596067Y173527D02*
Y171527D01*
X597067D01*
X597400Y171861D01*
Y173194D01*
X597067Y173527D01*
X596067D01*
X577149Y245285D02*
Y243286D01*
X578149D01*
X578482Y243619D01*
Y244952D01*
X578149Y245285D01*
X577149D01*
X563300Y221249D02*
Y219250D01*
X564300D01*
X564633Y219583D01*
Y220916D01*
X564300Y221249D01*
X563300D01*
X106900Y314207D02*
Y312208D01*
X107900D01*
X108233Y312541D01*
Y313874D01*
X107900Y314207D01*
X106900D01*
X527849Y159435D02*
Y157436D01*
X528849D01*
X529182Y157769D01*
Y159102D01*
X528849Y159435D01*
X527849D01*
X549869Y195656D02*
Y193656D01*
X550869D01*
X551202Y193990D01*
Y195322D01*
X550869Y195656D01*
X549869D01*
X536049Y183685D02*
Y181686D01*
X537048D01*
X537382Y182019D01*
Y183352D01*
X537048Y183685D01*
X536049D01*
X516599Y289085D02*
Y287086D01*
X517598D01*
X517932Y287419D01*
Y288752D01*
X517598Y289085D01*
X516599D01*
X609049Y225067D02*
Y223068D01*
X610048D01*
X610382Y223401D01*
Y224734D01*
X610048Y225067D01*
X609049D01*
X566949Y199835D02*
Y197836D01*
X567948D01*
X568282Y198169D01*
Y199502D01*
X567948Y199835D01*
X566949D01*
X584349Y185635D02*
Y183636D01*
X585349D01*
X585682Y183969D01*
Y185302D01*
X585349Y185635D01*
X584349D01*
X327399Y-42365D02*
Y-44364D01*
X328398D01*
X328732Y-44031D01*
Y-42698D01*
X328398Y-42365D01*
X327399D01*
X254349Y27735D02*
Y25736D01*
X255348D01*
X255682Y26069D01*
Y27402D01*
X255348Y27735D01*
X254349D01*
X366299Y-48365D02*
Y-50364D01*
X367299D01*
X367632Y-50031D01*
Y-48698D01*
X367299Y-48365D01*
X366299D01*
X356199Y-58915D02*
Y-60914D01*
X357199D01*
X357532Y-60581D01*
Y-59248D01*
X357199Y-58915D01*
X356199D01*
X569599Y188285D02*
Y186286D01*
X570599D01*
X570932Y186619D01*
Y187952D01*
X570599Y188285D01*
X569599D01*
X285149Y122285D02*
Y120286D01*
X286149D01*
X286482Y120619D01*
Y121952D01*
X286149Y122285D01*
X285149D01*
D239*
X262591Y366150D02*
G03*
X262591Y366150I-800J0D01*
G01*
X242906D02*
G03*
X242906Y366150I-800J0D01*
G01*
X262591Y346465D02*
G03*
X262591Y346465I-800J0D01*
G01*
X242906D02*
G03*
X242906Y346465I-800J0D01*
G01*
X252749D02*
G03*
X252749Y346465I-800J0D01*
G01*
X597229Y257243D02*
G03*
X597229Y257243I-800J0D01*
G01*
Y267086D02*
G03*
X597229Y267086I-800J0D01*
G01*
Y276928D02*
G03*
X597229Y276928I-800J0D01*
G01*
X380591Y346466D02*
G03*
X380591Y346466I-800J0D01*
G01*
X360906D02*
G03*
X360906Y346466I-800J0D01*
G01*
X370749D02*
G03*
X370749Y346466I-800J0D01*
G01*
X203591Y346466D02*
G03*
X203591Y346466I-800J0D01*
G01*
X183906D02*
G03*
X183906Y346466I-800J0D01*
G01*
X193749D02*
G03*
X193749Y346466I-800J0D01*
G01*
X321591Y366150D02*
G03*
X321591Y366150I-800J0D01*
G01*
X301906D02*
G03*
X301906Y366150I-800J0D01*
G01*
X321591Y346465D02*
G03*
X321591Y346465I-800J0D01*
G01*
X301906D02*
G03*
X301906Y346465I-800J0D01*
G01*
X311749D02*
G03*
X311749Y346465I-800J0D01*
G01*
M02*
