G04*
G04 #@! TF.GenerationSoftware,Altium Limited,Altium Designer,26.2.0 (7)*
G04*
G04 Layer_Color=128*
%FSLAX25Y25*%
%MOIN*%
G70*
G04*
G04 #@! TF.SameCoordinates,A40123F2-DC2A-4F17-A694-4FDFCE3B6D11*
G04*
G04*
G04 #@! TF.FilePolarity,Positive*
G04*
G01*
G75*
%ADD238C,0.00200*%
D238*
X517433Y241685D02*
X521055D01*
X519244Y239874D02*
Y243496D01*
X492346Y241685D02*
X495968D01*
X494158Y239874D02*
Y243496D01*
X519299Y208953D02*
X531898D01*
X525598Y202654D02*
Y215253D01*
X462606Y241685D02*
X475205D01*
X468905Y235386D02*
Y247984D01*
X519299Y274416D02*
X531898D01*
X525598Y268117D02*
Y280716D01*
X504890Y241685D02*
X508512D01*
X506701Y239874D02*
Y243496D01*
X129049Y283586D02*
X138849D01*
X133949Y278686D02*
Y288486D01*
X129049Y163586D02*
X138849D01*
X133949Y158686D02*
Y168486D01*
X424049Y283586D02*
X433849D01*
X428949Y278686D02*
Y288486D01*
X424049Y163586D02*
X433849D01*
X428949Y158686D02*
Y168486D01*
X388583Y285586D02*
X392914D01*
X390749Y283420D02*
Y287751D01*
X368583Y285586D02*
X372914D01*
X370749Y283420D02*
Y287751D01*
X358583Y285586D02*
X362914D01*
X360749Y283420D02*
Y287751D01*
X378584Y285586D02*
X382914D01*
X380749Y283420D02*
Y287751D01*
X160484Y285586D02*
X164814D01*
X162649Y283420D02*
Y287751D01*
X170484Y285586D02*
X174814D01*
X172649Y283420D02*
Y287751D01*
X310484Y285586D02*
X314814D01*
X312649Y283420D02*
Y287751D01*
X270483Y285586D02*
X274814D01*
X272649Y283420D02*
Y287751D01*
X260484Y285586D02*
X264814D01*
X262649Y283420D02*
Y287751D01*
X250483Y285586D02*
X254814D01*
X252649Y283420D02*
Y287751D01*
X240483Y285586D02*
X244814D01*
X242649Y283420D02*
Y287751D01*
X230484Y285586D02*
X234814D01*
X232649Y283420D02*
Y287751D01*
X220483Y285586D02*
X224814D01*
X222649Y283420D02*
Y287751D01*
X210484Y285586D02*
X214814D01*
X212649Y283420D02*
Y287751D01*
X200483Y285586D02*
X204814D01*
X202649Y283420D02*
Y287751D01*
X190483Y285586D02*
X194814D01*
X192649Y283420D02*
Y287751D01*
X180483Y285586D02*
X184814D01*
X182649Y283420D02*
Y287751D01*
X290483Y285586D02*
X294814D01*
X292649Y283420D02*
Y287751D01*
X280484Y285586D02*
X284814D01*
X282649Y283420D02*
Y287751D01*
X300483Y285586D02*
X304814D01*
X302649Y283420D02*
Y287751D01*
X268681Y368118D02*
X274587D01*
X271634Y365165D02*
Y371071D01*
X259823Y366150D02*
X263760D01*
X261791Y364181D02*
Y368118D01*
X240138Y366150D02*
X244075D01*
X242106Y364181D02*
Y368118D01*
X250374Y385835D02*
X253524D01*
X251949Y384260D02*
Y387409D01*
X229311Y368118D02*
X235216D01*
X232264Y365165D02*
Y371071D01*
X268681Y390756D02*
X274587D01*
X271634Y387803D02*
Y393709D01*
X273602Y360244D02*
X279508D01*
X276555Y357291D02*
Y363197D01*
X257461Y389772D02*
X263760D01*
X260610Y386622D02*
Y392921D01*
X240138Y389772D02*
X246437D01*
X243287Y386622D02*
Y392921D01*
X229311Y390756D02*
X235216D01*
X232264Y387803D02*
Y393709D01*
X224390Y360244D02*
X230295D01*
X227343Y357291D02*
Y363197D01*
X249587Y366150D02*
X254311D01*
X251949Y363787D02*
Y368512D01*
X259823Y346465D02*
X263760D01*
X261791Y344496D02*
Y348433D01*
X240138Y346465D02*
X244075D01*
X242106Y344496D02*
Y348433D01*
X249980Y346465D02*
X253917D01*
X251949Y344496D02*
Y348433D01*
X229902Y346465D02*
X234626D01*
X232264Y344102D02*
Y348827D01*
X269272Y346465D02*
X273996D01*
X271634Y344102D02*
Y348827D01*
X496832Y229885D02*
X499981D01*
X498406Y228310D02*
Y231460D01*
X506674Y229885D02*
X509824D01*
X508249Y228310D02*
Y231460D01*
X516516Y229885D02*
X519666D01*
X518091Y228310D02*
Y231460D01*
X496832Y217287D02*
X499981D01*
X498406Y215712D02*
Y218861D01*
X506674Y217287D02*
X509824D01*
X508249Y215712D02*
Y218861D01*
X516516Y217287D02*
X519666D01*
X518091Y215712D02*
Y218861D01*
X18929Y197441D02*
X31779D01*
X25354Y191016D02*
Y203866D01*
X91235Y182586D02*
X95763D01*
X93499Y180322D02*
Y184850D01*
X71235Y182586D02*
X75763D01*
X73499Y180322D02*
Y184850D01*
X61235Y182586D02*
X65763D01*
X63499Y180322D02*
Y184850D01*
X51235Y182586D02*
X55763D01*
X53499Y180322D02*
Y184850D01*
X81235Y182586D02*
X85763D01*
X83499Y180322D02*
Y184850D01*
X272984Y81986D02*
X278890D01*
X275937Y79033D02*
Y84939D01*
X284008Y81986D02*
X289913D01*
X286961Y79033D02*
Y84939D01*
X331561Y-61900D02*
X337467D01*
X334514Y-64852D02*
Y-58947D01*
X375852Y-52057D02*
X381758D01*
X378805Y-55010D02*
Y-49104D01*
X370931Y-61900D02*
X376837D01*
X373884Y-64852D02*
Y-58947D01*
X370931Y-81585D02*
X376837D01*
X373884Y-84537D02*
Y-78632D01*
X358136Y-81585D02*
X366010D01*
X362073Y-85522D02*
Y-77648D01*
X342388Y-81585D02*
X350262D01*
X346325Y-85522D02*
Y-77648D01*
X331561Y-81585D02*
X337467D01*
X334514Y-84537D02*
Y-78632D01*
X326640Y-52057D02*
X332545D01*
X329592Y-55010D02*
Y-49104D01*
X614539Y247401D02*
X617689D01*
X616114Y245826D02*
Y248976D01*
X614539Y257243D02*
X617689D01*
X616114Y255668D02*
Y258818D01*
X614539Y276928D02*
X617689D01*
X616114Y275354D02*
Y278503D01*
X614539Y286771D02*
X617689D01*
X616114Y285196D02*
Y288346D01*
X613752Y267086D02*
X618476D01*
X616114Y264724D02*
Y269448D01*
X594460Y257243D02*
X598397D01*
X596429Y255275D02*
Y259212D01*
X594460Y267086D02*
X598397D01*
X596429Y265117D02*
Y269054D01*
X594066Y286771D02*
X598791D01*
X596429Y284409D02*
Y289133D01*
X594066Y247401D02*
X598791D01*
X596429Y245039D02*
Y249763D01*
X643279Y247401D02*
X648003D01*
X645641Y245039D02*
Y249763D01*
X633437Y247401D02*
X638161D01*
X635799Y245039D02*
Y249763D01*
X633437Y286771D02*
X638161D01*
X635799Y284409D02*
Y289133D01*
X643279Y286771D02*
X648003D01*
X645641Y284409D02*
Y289133D01*
X594460Y276928D02*
X598397D01*
X596429Y274960D02*
Y278897D01*
X634224Y267086D02*
X637374D01*
X635799Y265511D02*
Y268661D01*
X267711Y-61900D02*
X273617D01*
X270664Y-64852D02*
Y-58947D01*
X312002Y-52057D02*
X317908D01*
X314955Y-55010D02*
Y-49104D01*
X307081Y-61900D02*
X312987D01*
X310034Y-64852D02*
Y-58947D01*
X307081Y-81585D02*
X312987D01*
X310034Y-84537D02*
Y-78632D01*
X294286Y-81585D02*
X302160D01*
X298223Y-85522D02*
Y-77648D01*
X278538Y-81585D02*
X286412D01*
X282475Y-85522D02*
Y-77648D01*
X267711Y-81585D02*
X273617D01*
X270664Y-84537D02*
Y-78632D01*
X262790Y-52057D02*
X268695D01*
X265742Y-55010D02*
Y-49104D01*
X584934Y42436D02*
X589264D01*
X587099Y40271D02*
Y44601D01*
X574933Y42436D02*
X579264D01*
X577099Y40271D02*
Y44601D01*
X564933Y42436D02*
X569264D01*
X567099Y40271D02*
Y44601D01*
X554934Y42436D02*
X559264D01*
X557099Y40271D02*
Y44601D01*
X368374Y385836D02*
X371524D01*
X369949Y384261D02*
Y387411D01*
X388059Y366151D02*
X391209D01*
X389634Y364576D02*
Y367726D01*
X378217Y366151D02*
X381366D01*
X379791Y364576D02*
Y367726D01*
X358531Y366151D02*
X361681D01*
X360106Y364576D02*
Y367726D01*
X348689Y366151D02*
X351839D01*
X350264Y364576D02*
Y367726D01*
X367587Y366151D02*
X372311D01*
X369949Y363789D02*
Y368513D01*
X377823Y346466D02*
X381760D01*
X379791Y344497D02*
Y348434D01*
X358138Y346466D02*
X362075D01*
X360106Y344497D02*
Y348434D01*
X367980Y346466D02*
X371917D01*
X369949Y344497D02*
Y348434D01*
X347902Y346466D02*
X352626D01*
X350264Y344104D02*
Y348828D01*
X387272Y346466D02*
X391996D01*
X389634Y344104D02*
Y348828D01*
X387272Y395678D02*
X391996D01*
X389634Y393316D02*
Y398041D01*
X387272Y385836D02*
X391996D01*
X389634Y383474D02*
Y388198D01*
X347902Y385836D02*
X352626D01*
X350264Y383474D02*
Y388198D01*
X347902Y395678D02*
X352626D01*
X350264Y393316D02*
Y398041D01*
X513334Y32736D02*
X517664D01*
X515499Y30571D02*
Y34901D01*
X523334Y32736D02*
X527664D01*
X525499Y30571D02*
Y34901D01*
X523334Y42736D02*
X527664D01*
X525499Y40571D02*
Y44901D01*
X513334Y42736D02*
X517664D01*
X515499Y40571D02*
Y44901D01*
X191374Y385836D02*
X194524D01*
X192949Y384261D02*
Y387411D01*
X211059Y366151D02*
X214209D01*
X212634Y364576D02*
Y367726D01*
X201217Y366151D02*
X204366D01*
X202791Y364576D02*
Y367726D01*
X181532Y366151D02*
X184681D01*
X183106Y364576D02*
Y367726D01*
X171689Y366151D02*
X174839D01*
X173264Y364576D02*
Y367726D01*
X190587Y366151D02*
X195311D01*
X192949Y363789D02*
Y368513D01*
X200823Y346466D02*
X204760D01*
X202791Y344497D02*
Y348434D01*
X181138Y346466D02*
X185075D01*
X183106Y344497D02*
Y348434D01*
X190980Y346466D02*
X194917D01*
X192949Y344497D02*
Y348434D01*
X170902Y346466D02*
X175626D01*
X173264Y344104D02*
Y348828D01*
X210272Y346466D02*
X214996D01*
X212634Y344104D02*
Y348828D01*
X210272Y395678D02*
X214996D01*
X212634Y393316D02*
Y398041D01*
X210272Y385836D02*
X214996D01*
X212634Y383474D02*
Y388198D01*
X170902Y385836D02*
X175626D01*
X173264Y383474D02*
Y388198D01*
X170902Y395678D02*
X175626D01*
X173264Y393316D02*
Y398041D01*
X456908Y-81067D02*
X466357D01*
X461633Y-85792D02*
Y-76343D01*
X445097Y-85004D02*
X449034D01*
X447066Y-86973D02*
Y-83036D01*
X484074Y-85004D02*
X488011D01*
X486042Y-86973D02*
Y-83036D01*
X446672Y-56264D02*
X450609D01*
X448640Y-58233D02*
Y-54296D01*
X460058Y-56264D02*
X463995D01*
X462026Y-58233D02*
Y-54296D01*
X480530Y-56264D02*
X484467D01*
X482499Y-58233D02*
Y-54296D01*
X420474Y-88638D02*
X423624D01*
X422049Y-90213D02*
Y-87063D01*
X412600Y-88638D02*
X415750D01*
X414175Y-90213D02*
Y-87063D01*
X404726Y-88638D02*
X407876D01*
X406301Y-90213D02*
Y-87063D01*
X420474Y-80764D02*
X423624D01*
X422049Y-82339D02*
Y-79189D01*
X412600Y-80764D02*
X415750D01*
X414175Y-82339D02*
Y-79189D01*
X404726Y-80764D02*
X407876D01*
X406301Y-82339D02*
Y-79189D01*
X430120Y-84701D02*
X436025D01*
X433072Y-87654D02*
Y-81748D01*
X392324Y-84701D02*
X398230D01*
X395277Y-87654D02*
Y-81748D01*
X153693Y52545D02*
X159205D01*
X156449Y49789D02*
Y55301D01*
X153693Y97427D02*
X159205D01*
X156449Y94671D02*
Y100183D01*
X183614Y84828D02*
X188339D01*
X185976Y82466D02*
Y87191D01*
X183614Y74986D02*
X188339D01*
X185976Y72624D02*
Y77348D01*
X183614Y65143D02*
X188339D01*
X185976Y62781D02*
Y67506D01*
X126528Y84828D02*
X131252D01*
X128890Y82466D02*
Y87191D01*
X126528Y65143D02*
X131252D01*
X128890Y62781D02*
Y67506D01*
X403693Y97427D02*
X409205D01*
X406449Y94671D02*
Y100183D01*
X403693Y52545D02*
X409205D01*
X406449Y49789D02*
Y55301D01*
X374559Y65143D02*
X379283D01*
X376921Y62781D02*
Y67506D01*
X374559Y74986D02*
X379283D01*
X376921Y72624D02*
Y77348D01*
X374559Y84828D02*
X379283D01*
X376921Y82466D02*
Y87191D01*
X431646Y65143D02*
X436370D01*
X434008Y62781D02*
Y67506D01*
X431646Y84828D02*
X436370D01*
X434008Y82466D02*
Y87191D01*
X327681Y368118D02*
X333587D01*
X330634Y365165D02*
Y371071D01*
X318823Y366150D02*
X322760D01*
X320791Y364181D02*
Y368118D01*
X299138Y366150D02*
X303075D01*
X301106Y364181D02*
Y368118D01*
X309374Y385835D02*
X312524D01*
X310949Y384260D02*
Y387409D01*
X288311Y368118D02*
X294216D01*
X291264Y365165D02*
Y371071D01*
X327681Y390756D02*
X333587D01*
X330634Y387803D02*
Y393709D01*
X332602Y360244D02*
X338508D01*
X335555Y357291D02*
Y363197D01*
X316461Y389772D02*
X322760D01*
X319610Y386622D02*
Y392921D01*
X299138Y389772D02*
X305437D01*
X302287Y386622D02*
Y392921D01*
X288311Y390756D02*
X294216D01*
X291264Y387803D02*
Y393709D01*
X283390Y360244D02*
X289295D01*
X286343Y357291D02*
Y363197D01*
X308587Y366150D02*
X313311D01*
X310949Y363787D02*
Y368512D01*
X318823Y346465D02*
X322760D01*
X320791Y344496D02*
Y348433D01*
X299138Y346465D02*
X303075D01*
X301106Y344496D02*
Y348433D01*
X308980Y346465D02*
X312917D01*
X310949Y344496D02*
Y348433D01*
X288902Y346465D02*
X293626D01*
X291264Y344102D02*
Y348827D01*
X328272Y346465D02*
X332996D01*
X330634Y344102D02*
Y348827D01*
X195437Y-63664D02*
X200161D01*
X197799Y-66026D02*
Y-61302D01*
X185437Y-63664D02*
X190161D01*
X187799Y-66026D02*
Y-61302D01*
X205437Y-73664D02*
X210161D01*
X207799Y-76026D02*
Y-71302D01*
X195437Y-73664D02*
X200161D01*
X197799Y-76026D02*
Y-71302D01*
X185437Y-73664D02*
X190161D01*
X187799Y-76026D02*
Y-71302D01*
X205437Y-63664D02*
X210161D01*
X207799Y-66026D02*
Y-61302D01*
X-74391Y129697D02*
X-70491D01*
X-72441Y127747D02*
Y131647D01*
X-74391Y137697D02*
X-70491D01*
X-72441Y135747D02*
Y139647D01*
X-54391Y133697D02*
X-50491D01*
X-52441Y131747D02*
Y135647D01*
X-4921Y0D02*
X4921D01*
X0Y-4921D02*
Y4921D01*
X-4921Y307087D02*
X4921D01*
X0Y302165D02*
Y312008D01*
X558071Y307087D02*
X567913D01*
X562992Y302165D02*
Y312008D01*
X558071Y0D02*
X567913D01*
X562992Y-4921D02*
Y4921D01*
X512500Y67716D02*
X513484D01*
X512992Y67224D02*
Y68209D01*
X625098Y75197D02*
X626083D01*
X625591Y74705D02*
Y75689D01*
X42815Y-31890D02*
X43799D01*
X43307Y-32382D02*
Y-31398D01*
X99902Y-75590D02*
X100886D01*
X100394Y-76083D02*
Y-75098D01*
X73524Y-52362D02*
X74508D01*
X74016Y-52854D02*
Y-51870D01*
X11713Y-55512D02*
X12697D01*
X12205Y-56004D02*
Y-55020D01*
X101083Y-67716D02*
X102067D01*
X101575Y-68209D02*
Y-67224D01*
X186909Y40157D02*
X187894D01*
X187402Y39665D02*
Y40650D01*
X175886Y19685D02*
X176870D01*
X176378Y19193D02*
Y20177D01*
X173917Y31496D02*
X174902D01*
X174409Y31004D02*
Y31988D01*
X175492Y25591D02*
X176476D01*
X175984Y25098D02*
Y26083D01*
X177067Y14961D02*
X178051D01*
X177559Y14469D02*
Y15453D01*
X179035Y7480D02*
X180020D01*
X179528Y6988D02*
Y7972D01*
X179823Y-787D02*
X180807D01*
X180315Y-1280D02*
Y-295D01*
X145177Y7480D02*
X146161D01*
X145669Y6988D02*
Y7972D01*
X152657Y-787D02*
X153642D01*
X153150Y-1280D02*
Y-295D01*
X534941Y250000D02*
X535925D01*
X535433Y249508D02*
Y250492D01*
X453051Y304724D02*
X454035D01*
X453543Y304232D02*
Y305217D01*
X345177Y304724D02*
X346161D01*
X345669Y304232D02*
Y305217D01*
X290453Y318110D02*
X291437D01*
X290945Y317618D02*
Y318602D01*
X282185Y297638D02*
X283169D01*
X282677Y297146D02*
Y298130D01*
X255413Y304724D02*
X256398D01*
X255906Y304232D02*
Y305217D01*
X194390Y305118D02*
X195374D01*
X194882Y304626D02*
Y305610D01*
X164862Y299213D02*
X165847D01*
X165354Y298721D02*
Y299705D01*
X216831Y323622D02*
X217815D01*
X217323Y323130D02*
Y324114D01*
X182579Y322441D02*
X183563D01*
X183071Y321949D02*
Y322933D01*
X100295Y225984D02*
X101279D01*
X100787Y225492D02*
Y226476D01*
X68799Y209055D02*
X69784D01*
X69291Y208563D02*
Y209547D01*
X48327Y208268D02*
X49311D01*
X48819Y207776D02*
Y208760D01*
X-7579Y151181D02*
X-6594D01*
X-7087Y150689D02*
Y151673D01*
X-2854Y139764D02*
X-1870D01*
X-2362Y139272D02*
Y140256D01*
X-26083Y151181D02*
X-25098D01*
X-25591Y150689D02*
Y151673D01*
X-15846Y151575D02*
X-14862D01*
X-15354Y151083D02*
Y152067D01*
X-4823Y-56339D02*
X-3839D01*
X-4331Y-56831D02*
Y-55847D01*
X126673Y-51575D02*
X127657D01*
X127165Y-52067D02*
Y-51083D01*
X82185Y-80315D02*
X83169D01*
X82677Y-80807D02*
Y-79823D01*
X106988Y-53150D02*
X107972D01*
X107480Y-53642D02*
Y-52658D01*
X312106Y-28740D02*
X313090D01*
X312598Y-29232D02*
Y-28248D01*
X293996Y-22441D02*
X294980D01*
X294488Y-22933D02*
Y-21949D01*
X283760Y-23228D02*
X284744D01*
X284252Y-23720D02*
Y-22736D01*
X274705Y-18504D02*
X275689D01*
X275197Y-18996D02*
Y-18012D01*
X273524Y-42913D02*
X274508D01*
X274016Y-43406D02*
Y-42421D01*
X283760Y-41339D02*
X284744D01*
X284252Y-41831D02*
Y-40846D01*
X292421Y-41732D02*
X293406D01*
X292913Y-42224D02*
Y-41240D01*
X299902Y-53937D02*
X300886D01*
X300394Y-54429D02*
Y-53445D01*
X288484Y-68110D02*
X289469D01*
X288976Y-68602D02*
Y-67618D01*
X290059Y-92520D02*
X291043D01*
X290551Y-93012D02*
Y-92028D01*
X353445Y-92126D02*
X354429D01*
X353937Y-92618D02*
Y-91634D01*
X326673Y-33071D02*
X327658D01*
X327165Y-33563D02*
Y-32579D01*
X338878Y-35827D02*
X339862D01*
X339370Y-36319D02*
Y-35335D01*
X347933Y-32283D02*
X348917D01*
X348425Y-32776D02*
Y-31791D01*
X357776Y-33071D02*
X358760D01*
X358268Y-33563D02*
Y-32579D01*
X366831Y-30709D02*
X367815D01*
X367323Y-31201D02*
Y-30217D01*
X376279Y-28346D02*
X377264D01*
X376772Y-28839D02*
Y-27854D01*
X360531Y152362D02*
X361516D01*
X361024Y151870D02*
Y152854D01*
X428642Y152362D02*
X429626D01*
X429134Y151870D02*
Y152854D01*
X116831Y152362D02*
X117815D01*
X117323Y151870D02*
Y152854D01*
X598327Y46457D02*
X599311D01*
X598819Y45965D02*
Y46949D01*
X523917Y57480D02*
X524902D01*
X524409Y56988D02*
Y57972D01*
X540453Y47244D02*
X541437D01*
X540945Y46752D02*
Y47736D01*
X520768Y197638D02*
X521752D01*
X521260Y197146D02*
Y198130D01*
X492421Y185827D02*
X493405D01*
X492913Y185335D02*
Y186319D01*
X486909Y180709D02*
X487894D01*
X487402Y180217D02*
Y181201D01*
X479429Y171260D02*
X480413D01*
X479921Y170768D02*
Y171752D01*
X421555Y94882D02*
X422539D01*
X422047Y94390D02*
Y95374D01*
X435335Y74410D02*
X436319D01*
X435827Y73917D02*
Y74902D01*
X436909Y92520D02*
X437894D01*
X437402Y92028D02*
Y93012D01*
X-54035Y185827D02*
X-53051D01*
X-53543Y185335D02*
Y186319D01*
X-48081Y167300D02*
X-47096D01*
X-47589Y166808D02*
Y167792D01*
X-34002Y164522D02*
X-33018D01*
X-33510Y164030D02*
Y165014D01*
X-49705Y169291D02*
X-48720D01*
X-49213Y168799D02*
Y169783D01*
X-43012Y145276D02*
X-42028D01*
X-42520Y144783D02*
Y145768D01*
X-53642Y158661D02*
X-52658D01*
X-53150Y158169D02*
Y159153D01*
X631791Y18504D02*
X632776D01*
X632283Y18012D02*
Y18996D01*
X502264Y50394D02*
X503248D01*
X502756Y49902D02*
Y50886D01*
X502658Y131102D02*
X503642D01*
X503150Y130610D02*
Y131595D01*
X542028Y127953D02*
X543012D01*
X542520Y127461D02*
Y128445D01*
X587697Y132677D02*
X588681D01*
X588189Y132185D02*
Y133169D01*
X465256Y229134D02*
X466240D01*
X465748Y228642D02*
Y229626D01*
X557382Y274016D02*
X558366D01*
X557874Y273524D02*
Y274508D01*
X328642Y354331D02*
X329626D01*
X329134Y353839D02*
Y354823D01*
X364469Y356693D02*
X365453D01*
X364961Y356201D02*
Y357185D01*
X245965Y359449D02*
X246949D01*
X246457Y358957D02*
Y359941D01*
X213287Y358268D02*
X214272D01*
X213779Y357776D02*
Y358760D01*
X161713Y353150D02*
X162697D01*
X162205Y352658D02*
Y353642D01*
X78248Y383071D02*
X79232D01*
X78740Y382579D02*
Y383563D01*
X118799Y335039D02*
X119783D01*
X119291Y334547D02*
Y335531D01*
X105020Y331102D02*
X106004D01*
X105512Y330610D02*
Y331594D01*
X53445Y335039D02*
X54429D01*
X53937Y334547D02*
Y335531D01*
X11319Y333465D02*
X12303D01*
X11811Y332972D02*
Y333957D01*
X66831Y350394D02*
X67815D01*
X67323Y349902D02*
Y350886D01*
X26280Y350394D02*
X27264D01*
X26772Y349902D02*
Y350886D01*
X-25689Y291732D02*
X-24705D01*
X-25197Y291240D02*
Y292224D01*
X-74508Y252756D02*
X-73524D01*
X-74016Y252264D02*
Y253248D01*
X-46949Y248425D02*
X-45965D01*
X-46457Y247933D02*
Y248917D01*
X-15453Y258268D02*
X-14469D01*
X-14961Y257776D02*
Y258760D01*
X46358Y254724D02*
X47343D01*
X46850Y254232D02*
Y255217D01*
X19193Y253543D02*
X20177D01*
X19685Y253051D02*
Y254035D01*
X93602Y83071D02*
X94587D01*
X94095Y82579D02*
Y83563D01*
X77854Y111024D02*
X78839D01*
X78347Y110531D02*
Y111516D01*
X52264Y129528D02*
X53248D01*
X52756Y129035D02*
Y130020D01*
X174311Y84646D02*
X175295D01*
X174803Y84153D02*
Y85138D01*
X158957Y71260D02*
X159941D01*
X159449Y70768D02*
Y71752D01*
X129035Y108661D02*
X130020D01*
X129528Y108169D02*
Y109153D01*
X152657Y138583D02*
X153642D01*
X153150Y138091D02*
Y139075D01*
X321949Y99606D02*
X322933D01*
X322441Y99114D02*
Y100098D01*
X390059Y122441D02*
X391043D01*
X390551Y121949D02*
Y122933D01*
X391240Y84646D02*
X392224D01*
X391732Y84153D02*
Y85138D01*
X419587Y64961D02*
X420571D01*
X420079Y64468D02*
Y65453D01*
X390453Y28346D02*
X391437D01*
X390945Y27854D02*
Y28839D01*
X412500Y11024D02*
X413484D01*
X412992Y10531D02*
Y11516D01*
X408957Y-19291D02*
X409941D01*
X409449Y-19783D02*
Y-18799D01*
X406595Y-70472D02*
X407579D01*
X407087Y-70965D02*
Y-69980D01*
X407776Y-47244D02*
X408760D01*
X408268Y-47736D02*
Y-46752D01*
X571949Y84252D02*
X572933D01*
X572441Y83760D02*
Y84744D01*
X572342Y96850D02*
X573327D01*
X572835Y96358D02*
Y97342D01*
X587303Y50000D02*
X588287D01*
X587795Y49508D02*
Y50492D01*
X556201Y50394D02*
X557185D01*
X556693Y49902D02*
Y50886D01*
X555807Y64173D02*
X556791D01*
X556299Y63681D02*
Y64665D01*
X586909Y64567D02*
X587894D01*
X587402Y64075D02*
Y65059D01*
X-21448Y178543D02*
X-19873D01*
X-20661Y177756D02*
Y179331D01*
X390431Y-33809D02*
X392006D01*
X391219Y-34596D02*
Y-33022D01*
X400485Y-45114D02*
X402060D01*
X401272Y-45902D02*
Y-44327D01*
X392905Y-59055D02*
X394479D01*
X393692Y-59842D02*
Y-58268D01*
X393102Y-52756D02*
X394676D01*
X393889Y-53543D02*
Y-51968D01*
X475582Y-39272D02*
X477157D01*
X476369Y-40059D02*
Y-38484D01*
X490453Y-32283D02*
X491437D01*
X490945Y-32776D02*
Y-31791D01*
X461319Y-44882D02*
X462303D01*
X461811Y-45374D02*
Y-44390D01*
X461713Y-31102D02*
X462697D01*
X462205Y-31594D02*
Y-30610D01*
X505020Y-63779D02*
X506004D01*
X505512Y-64272D02*
Y-63287D01*
X555807Y-36614D02*
X556791D01*
X556299Y-37106D02*
Y-36122D01*
X529429Y-9449D02*
X530413D01*
X529921Y-9941D02*
Y-8957D01*
X642815Y212992D02*
X643799D01*
X643307Y212500D02*
Y213484D01*
X643209Y182677D02*
X644193D01*
X643701Y182185D02*
Y183169D01*
X643209Y153543D02*
X644193D01*
X643701Y153051D02*
Y154035D01*
X629035Y181496D02*
X630020D01*
X629528Y181004D02*
Y181988D01*
X629035Y196063D02*
X630020D01*
X629528Y195571D02*
Y196555D01*
X629429Y205512D02*
X630413D01*
X629921Y205020D02*
Y206004D01*
X572342Y216929D02*
X573327D01*
X572835Y216437D02*
Y217421D01*
X566831Y212992D02*
X567815D01*
X567323Y212500D02*
Y213484D01*
X577854Y212992D02*
X578839D01*
X578346Y212500D02*
Y213484D01*
X563287Y202362D02*
X564272D01*
X563779Y201870D02*
Y202854D01*
X573130Y201969D02*
X574114D01*
X573622Y201476D02*
Y202461D01*
X590846Y195276D02*
X591831D01*
X591339Y194783D02*
Y195768D01*
X555413Y194882D02*
X556398D01*
X555905Y194390D02*
Y195374D01*
X525886Y182283D02*
X526870D01*
X526378Y181791D02*
Y182776D01*
X519724Y171000D02*
X520708D01*
X520216Y170508D02*
Y171492D01*
X545223Y173136D02*
X546207D01*
X545715Y172644D02*
Y173628D01*
X544882Y141339D02*
X546457D01*
X545669Y140551D02*
Y142126D01*
X81958Y-97296D02*
X83533D01*
X82745Y-98084D02*
Y-96509D01*
X123082Y-93359D02*
X124657D01*
X123870Y-94147D02*
Y-92572D01*
X257654Y-15148D02*
X259228D01*
X258441Y-15936D02*
Y-14361D01*
X238661Y-14238D02*
X240236D01*
X239448Y-15025D02*
Y-13450D01*
X367228Y5509D02*
X368803D01*
X368015Y4722D02*
Y6296D01*
X312992Y5512D02*
X314567D01*
X313779Y4724D02*
Y6299D01*
X283245Y5372D02*
X284820D01*
X284032Y4585D02*
Y6160D01*
X352661Y10833D02*
X354236D01*
X353448Y10045D02*
Y11620D01*
X366048Y23630D02*
X367032D01*
X366540Y23138D02*
Y24122D01*
X598425Y202756D02*
X600000D01*
X599213Y201969D02*
Y203543D01*
X238583Y-30315D02*
X240158D01*
X239370Y-31102D02*
Y-29528D01*
X630781Y234956D02*
X632356D01*
X631568Y234168D02*
Y235743D01*
X605807Y238976D02*
X606791D01*
X606299Y238484D02*
Y239469D01*
X130477Y321024D02*
X131462D01*
X130969Y320532D02*
Y321516D01*
X63681Y331102D02*
X64665D01*
X64173Y330610D02*
Y331594D01*
X11835Y286063D02*
X12819D01*
X12327Y285571D02*
Y286555D01*
X27461Y-66535D02*
X28445D01*
X27953Y-67027D02*
Y-66043D01*
X-4823Y-41339D02*
X-3839D01*
X-4331Y-41831D02*
Y-40846D01*
X27953Y-61417D02*
X29528D01*
X28740Y-62205D02*
Y-60630D01*
X24926Y-17715D02*
X25910D01*
X25418Y-18207D02*
Y-17222D01*
X599937Y144086D02*
X600921D01*
X600429Y143594D02*
Y144578D01*
X600034Y137886D02*
X601018D01*
X600526Y137394D02*
Y138378D01*
X582185Y151575D02*
X583169D01*
X582677Y151083D02*
Y152067D01*
X563287Y151181D02*
X564272D01*
X563779Y150689D02*
Y151673D01*
X591339Y155905D02*
X592913D01*
X592126Y155118D02*
Y156693D01*
X528445Y168799D02*
X530020D01*
X529232Y168012D02*
Y169587D01*
X606299Y167323D02*
X607874D01*
X607087Y166535D02*
Y168110D01*
X512106Y174803D02*
X513091D01*
X512598Y174311D02*
Y175295D01*
X520890Y182206D02*
X522465D01*
X521677Y181419D02*
Y182993D01*
X531004Y188189D02*
X531988D01*
X531496Y187697D02*
Y188681D01*
X533049Y191316D02*
X534623D01*
X533836Y190529D02*
Y192104D01*
X510138Y207087D02*
X511122D01*
X510630Y206594D02*
Y207579D01*
X505512Y203150D02*
X507087D01*
X506299Y202362D02*
Y203937D01*
X438878Y148031D02*
X439862D01*
X439370Y147539D02*
Y148524D01*
X451968Y157874D02*
X453543D01*
X452756Y157087D02*
Y158661D01*
X452362Y170472D02*
X453937D01*
X453150Y169685D02*
Y171260D01*
X-81595Y82677D02*
X-80610D01*
X-81102Y82185D02*
Y83169D01*
X-81595Y92520D02*
X-80610D01*
X-81102Y92028D02*
Y93012D01*
X-81595Y87402D02*
X-80610D01*
X-81102Y86910D02*
Y87894D01*
X420768Y117717D02*
X421752D01*
X421260Y117224D02*
Y118209D01*
X538120Y38189D02*
X540620D01*
X539370Y36939D02*
Y39439D01*
X488968Y9744D02*
X490543D01*
X489755Y8957D02*
Y10531D01*
X89573Y290319D02*
X90558D01*
X90065Y289827D02*
Y290811D01*
X480315Y232168D02*
X481890D01*
X481102Y231380D02*
Y232955D01*
X470472Y229134D02*
X472047D01*
X471260Y228346D02*
Y229921D01*
X529913Y242126D02*
X531487D01*
X530700Y241339D02*
Y242913D01*
X530309Y236813D02*
X531883D01*
X531096Y236026D02*
Y237601D01*
X535199Y216686D02*
X536774D01*
X535986Y215898D02*
Y217473D01*
X529913Y225590D02*
X531487D01*
X530700Y224803D02*
Y226378D01*
X529528Y194489D02*
X531102D01*
X530315Y193702D02*
Y195277D01*
X529913Y231102D02*
X531487D01*
X530700Y230315D02*
Y231890D01*
X486334Y280527D02*
X487318D01*
X486826Y280035D02*
Y281019D01*
X548407Y204515D02*
X549391D01*
X548899Y204023D02*
Y205007D01*
X622481Y178436D02*
X624056D01*
X623269Y177648D02*
Y179223D01*
X622381Y185336D02*
X623956D01*
X623169Y184548D02*
Y186123D01*
X622353Y192036D02*
X623928D01*
X623140Y191249D02*
Y192823D01*
X627968Y168379D02*
X629543D01*
X628756Y167592D02*
Y169167D01*
X609449Y122047D02*
X611024D01*
X610236Y121260D02*
Y122835D01*
X594488Y118504D02*
X596063D01*
X595276Y117717D02*
Y119291D01*
X421054Y33465D02*
X422629D01*
X421842Y32677D02*
Y34252D01*
X421054Y38583D02*
X422629D01*
X421842Y37795D02*
Y39370D01*
X509350Y103937D02*
X510335D01*
X509842Y103445D02*
Y104429D01*
X512106Y91732D02*
X513091D01*
X512598Y91240D02*
Y92224D01*
X517224Y96063D02*
X518209D01*
X517717Y95571D02*
Y96555D01*
X521555Y100787D02*
X522539D01*
X522047Y100295D02*
Y101279D01*
X340059Y37402D02*
X341043D01*
X340551Y36909D02*
Y37894D01*
X323478Y43352D02*
X324463D01*
X323971Y42860D02*
Y43844D01*
X351763Y64961D02*
X353338D01*
X352550Y64173D02*
Y65748D01*
X352157Y58268D02*
X353731D01*
X352944Y57480D02*
Y59055D01*
X351763Y77953D02*
X353338D01*
X352550Y77165D02*
Y78740D01*
X549213Y130709D02*
X550787D01*
X550000Y129921D02*
Y131496D01*
X584111Y137036D02*
X585686D01*
X584899Y136248D02*
Y137823D01*
X108268Y-76772D02*
X109843D01*
X109055Y-77559D02*
Y-75984D01*
X624016Y215354D02*
X625591D01*
X624803Y214567D02*
Y216142D01*
X441339Y34252D02*
X442913D01*
X442126Y33465D02*
Y35039D01*
X449973Y34471D02*
X451548D01*
X450760Y33683D02*
Y35258D01*
X441405Y40087D02*
X442980D01*
X442193Y39300D02*
Y40875D01*
X441305Y45987D02*
X442880D01*
X442093Y45200D02*
Y46775D01*
X76100Y304900D02*
X78900D01*
X77500Y303500D02*
Y306300D01*
X225998Y-11455D02*
X227572D01*
X226785Y-12243D02*
Y-10668D01*
X545761Y124136D02*
X547336D01*
X546549Y123348D02*
Y124923D01*
X560861Y136446D02*
X562436D01*
X561649Y135659D02*
Y137234D01*
X107777Y-19083D02*
X109352D01*
X108564Y-19870D02*
Y-18295D01*
X29261Y-31364D02*
X30836D01*
X30049Y-32152D02*
Y-30577D01*
X45561Y-41264D02*
X47136D01*
X46349Y-42052D02*
Y-40477D01*
X45011Y-50964D02*
X46586D01*
X45799Y-51752D02*
Y-50177D01*
X44661Y-61264D02*
X46236D01*
X45449Y-62052D02*
Y-60477D01*
X438461Y117736D02*
X440036D01*
X439249Y116948D02*
Y118523D01*
X-57874Y126969D02*
X-56890D01*
X-57382Y126476D02*
Y127461D01*
X-22403Y189567D02*
X-20903D01*
X-21654Y188817D02*
Y190317D01*
X192875Y325447D02*
X194450D01*
X193663Y324660D02*
Y326235D01*
X125997Y351309D02*
X127572D01*
X126784Y350521D02*
Y352096D01*
X323917Y321260D02*
X324902D01*
X324410Y320768D02*
Y321752D01*
X318406Y321260D02*
X319390D01*
X318898Y320768D02*
Y321752D01*
X243209Y321260D02*
X244193D01*
X243701Y320768D02*
Y321752D01*
X248721Y321260D02*
X249705D01*
X249213Y320768D02*
Y321752D01*
X205906Y304840D02*
X207480D01*
X206693Y304053D02*
Y305628D01*
X351476Y320866D02*
X352461D01*
X351969Y320374D02*
Y321358D01*
X276279Y320866D02*
X277264D01*
X276772Y320374D02*
Y321358D01*
X206594Y65354D02*
X207579D01*
X207087Y64862D02*
Y65847D01*
X206988Y84646D02*
X207972D01*
X207480Y84153D02*
Y85138D01*
X105562Y64567D02*
X107137D01*
X106350Y63779D02*
Y65354D01*
X630217Y142520D02*
X631201D01*
X630709Y142028D02*
Y143012D01*
X630217Y129921D02*
X631201D01*
X630709Y129429D02*
Y130413D01*
X630217Y136221D02*
X631201D01*
X630709Y135728D02*
Y136713D01*
X621260Y216929D02*
X622835D01*
X622047Y216142D02*
Y217717D01*
X617161Y212093D02*
X618736D01*
X617948Y211305D02*
Y212880D01*
X-42952Y159449D02*
X-41968D01*
X-42460Y158957D02*
Y159941D01*
X16831Y130028D02*
X17815D01*
X17323Y129535D02*
Y130520D01*
X352157Y84252D02*
X353731D01*
X352944Y83465D02*
Y85039D01*
X10925Y235417D02*
X11909D01*
X11417Y234925D02*
Y235909D01*
X-7185Y184252D02*
X-6201D01*
X-6693Y183760D02*
Y184744D01*
X-65453Y138976D02*
X-64468D01*
X-64961Y138484D02*
Y139469D01*
X617161Y223228D02*
X618736D01*
X617948Y222441D02*
Y224016D01*
X582283Y208268D02*
X583858D01*
X583071Y207480D02*
Y209055D01*
X598819Y206299D02*
X600394D01*
X599606Y205512D02*
Y207087D01*
X587795Y227165D02*
X589370D01*
X588583Y226378D02*
Y227953D01*
X623622Y200787D02*
X625197D01*
X624409Y200000D02*
Y201575D01*
X603150Y217323D02*
X604724D01*
X603937Y216535D02*
Y218110D01*
X554724Y172835D02*
X556299D01*
X555512Y172047D02*
Y173622D01*
X588613Y84196D02*
X590187D01*
X589400Y83408D02*
Y84983D01*
X106988Y70472D02*
X107973D01*
X107480Y69980D02*
Y70964D01*
X16831Y143307D02*
X17815D01*
X17323Y142815D02*
Y143799D01*
X110925Y133411D02*
X111909D01*
X111417Y132919D02*
Y133904D01*
X206594Y78740D02*
X207579D01*
X207087Y78248D02*
Y79232D01*
X206594Y75197D02*
X207579D01*
X207087Y74705D02*
Y75689D01*
X206594Y71260D02*
X207579D01*
X207087Y70768D02*
Y71752D01*
X53051Y244882D02*
X54035D01*
X53543Y244390D02*
Y245374D01*
X32972Y227953D02*
X33957D01*
X33465Y227461D02*
Y228445D01*
X53445Y242020D02*
X54429D01*
X53937Y241528D02*
Y242512D01*
X134941Y359842D02*
X135925D01*
X135433Y359350D02*
Y360335D01*
X232185Y320866D02*
X233169D01*
X232677Y320374D02*
Y321358D01*
X307382Y320866D02*
X308366D01*
X307874Y320374D02*
Y321358D01*
X40551Y123228D02*
X42126D01*
X41339Y122441D02*
Y124016D01*
X25098Y145669D02*
X26083D01*
X25591Y145177D02*
Y146161D01*
X31791Y109843D02*
X32776D01*
X32283Y109350D02*
Y110335D01*
X43701Y95669D02*
X45276D01*
X44488Y94882D02*
Y96457D01*
X16831Y132677D02*
X17815D01*
X17323Y132185D02*
Y133169D01*
X16831Y127559D02*
X17815D01*
X17323Y127067D02*
Y128051D01*
X-50886Y185433D02*
X-49902D01*
X-50394Y184941D02*
Y185925D01*
X11417Y159055D02*
X12992D01*
X12205Y158268D02*
Y159843D01*
X9055Y154331D02*
X10630D01*
X9843Y153543D02*
Y155118D01*
X14173Y152362D02*
X15748D01*
X14961Y151575D02*
Y153150D01*
X123292Y315370D02*
X124867D01*
X124080Y314583D02*
Y316158D01*
X402211Y309535D02*
X403786D01*
X402999Y308748D02*
Y310322D01*
X192520Y312614D02*
X194095D01*
X193307Y311827D02*
Y313402D01*
X183071Y310236D02*
X184646D01*
X183858Y309449D02*
Y311024D01*
X259744Y321260D02*
X260728D01*
X260236Y320768D02*
Y321752D01*
X265256Y321260D02*
X266240D01*
X265748Y320768D02*
Y321752D01*
X340453Y321260D02*
X341437D01*
X340945Y320768D02*
Y321752D01*
X334941Y321260D02*
X335925D01*
X335433Y320768D02*
Y321752D01*
X114091Y264173D02*
X115075D01*
X114583Y263681D02*
Y264665D01*
X-28492Y225800D02*
X-27508D01*
X-28000Y225308D02*
Y226292D01*
X-28892Y222300D02*
X-27908D01*
X-28400Y221808D02*
Y222792D01*
X13208Y225900D02*
X14192D01*
X13700Y225408D02*
Y226392D01*
X-29531Y231167D02*
X-28547D01*
X-29039Y230675D02*
Y231659D01*
X-31892Y226000D02*
X-30908D01*
X-31400Y225508D02*
Y226492D01*
X7388Y208365D02*
X8372D01*
X7880Y207873D02*
Y208857D01*
X295Y208268D02*
X1280D01*
X787Y207776D02*
Y208760D01*
X14155Y207794D02*
X15139D01*
X14647Y207302D02*
Y208286D01*
X17608Y218600D02*
X18592D01*
X18100Y218108D02*
Y219092D01*
X57808Y214600D02*
X58792D01*
X58300Y214108D02*
Y215092D01*
X62122Y199213D02*
X63106D01*
X62614Y198721D02*
Y199705D01*
X19980Y220472D02*
X20965D01*
X20472Y219980D02*
Y220965D01*
X-20965Y201969D02*
X-19980D01*
X-20472Y201476D02*
Y202461D01*
X-32776Y202362D02*
X-31791D01*
X-32283Y201870D02*
Y202854D01*
X3839Y195669D02*
X4823D01*
X4331Y195177D02*
Y196161D01*
X-1280Y193307D02*
X-295D01*
X-787Y192815D02*
Y193799D01*
X21949Y225984D02*
X22933D01*
X22441Y225492D02*
Y226476D01*
X-18209Y233087D02*
X-17224D01*
X-17717Y232594D02*
Y233579D01*
X133366Y242520D02*
X134350D01*
X133858Y242028D02*
Y243012D01*
X134547Y267323D02*
X135531D01*
X135039Y266831D02*
Y267815D01*
X37795Y200000D02*
X39370D01*
X38583Y199213D02*
Y200787D01*
X81049Y262947D02*
X82033D01*
X81541Y262455D02*
Y263439D01*
X87713Y329300D02*
X89287D01*
X88500Y328513D02*
Y330087D01*
X59744Y260630D02*
X60728D01*
X60236Y260138D02*
Y261122D01*
X88091Y352756D02*
X89075D01*
X88583Y352264D02*
Y353248D01*
X173622Y306693D02*
X175197D01*
X174409Y305906D02*
Y307480D01*
X133366Y327165D02*
X134350D01*
X133858Y326673D02*
Y327658D01*
X69291Y307087D02*
X70866D01*
X70079Y306299D02*
Y307874D01*
X29823Y227953D02*
X30807D01*
X30315Y227461D02*
Y228445D01*
X-20965Y216142D02*
X-19980D01*
X-20472Y215650D02*
Y216634D01*
X29184Y290271D02*
X30759D01*
X29971Y289484D02*
Y291059D01*
X-35970Y226817D02*
X-34986D01*
X-35478Y226325D02*
Y227309D01*
X-38287Y230709D02*
X-37303D01*
X-37795Y230217D02*
Y231201D01*
X-7185Y253150D02*
X-6201D01*
X-6693Y252658D02*
Y253642D01*
X8511Y276536D02*
X10086D01*
X9299Y275748D02*
Y277323D01*
X99356Y237553D02*
X100340D01*
X99848Y237061D02*
Y238045D01*
X81836Y215703D02*
X82821D01*
X82329Y215211D02*
Y216195D01*
X560263Y186734D02*
X561838D01*
X561051Y185946D02*
Y187521D01*
X575711Y185886D02*
X577286D01*
X576499Y185098D02*
Y186673D01*
X602018Y173128D02*
X603592D01*
X602805Y172340D02*
Y173915D01*
X572311Y151236D02*
X573886D01*
X573099Y150448D02*
Y152023D01*
X608065Y161868D02*
X609640D01*
X608852Y161080D02*
Y162655D01*
X541560Y181385D02*
X543135D01*
X542348Y180597D02*
Y182172D01*
X511664Y169936D02*
X513239D01*
X512451Y169148D02*
Y170723D01*
X510613Y161600D02*
X512187D01*
X511400Y160813D02*
Y162387D01*
X541206Y165272D02*
X542780D01*
X541993Y164485D02*
Y166059D01*
X452362Y164173D02*
X453937D01*
X453150Y163386D02*
Y164961D01*
X621949Y124409D02*
X622933D01*
X622441Y123917D02*
Y124902D01*
X606657Y108586D02*
X607641D01*
X607149Y108094D02*
Y109078D01*
X591240Y101181D02*
X592224D01*
X591732Y100689D02*
Y101673D01*
X462500Y107874D02*
X463484D01*
X462992Y107382D02*
Y108366D01*
X447539Y62992D02*
X448524D01*
X448032Y62500D02*
Y63484D01*
X461713Y62992D02*
X462697D01*
X462205Y62500D02*
Y63484D01*
X473130Y62992D02*
X474114D01*
X473622Y62500D02*
Y63484D01*
X489665Y38189D02*
X490650D01*
X490158Y37697D02*
Y38681D01*
X476279Y12598D02*
X477264D01*
X476772Y12106D02*
Y13091D01*
X438878Y-14961D02*
X439862D01*
X439370Y-15453D02*
Y-14469D01*
X420768Y-67323D02*
X421752D01*
X421260Y-67815D02*
Y-66831D01*
X388484Y-71260D02*
X389469D01*
X388976Y-71752D02*
Y-70768D01*
X-29626Y266535D02*
X-28642D01*
X-29134Y266043D02*
Y267028D01*
X55020Y303150D02*
X56004D01*
X55512Y302658D02*
Y303642D01*
X112106Y311024D02*
X113091D01*
X112598Y310531D02*
Y311516D01*
X486909Y337795D02*
X487894D01*
X487402Y337303D02*
Y338287D01*
X542421Y336221D02*
X543405D01*
X542913Y335728D02*
Y336713D01*
X590846Y315354D02*
X591831D01*
X591339Y314862D02*
Y315846D01*
X479035Y299606D02*
X480020D01*
X479528Y299114D02*
Y300098D01*
X508957Y274410D02*
X509941D01*
X509449Y273917D02*
Y274902D01*
X439665Y327165D02*
X440650D01*
X440158Y326673D02*
Y327658D01*
X430217Y327165D02*
X431201D01*
X430709Y326673D02*
Y327658D01*
X456201Y276378D02*
X457185D01*
X456693Y275886D02*
Y276870D01*
X462894Y211024D02*
X463878D01*
X463386Y210531D02*
Y211516D01*
X448327Y227953D02*
X449311D01*
X448819Y227461D02*
Y228445D01*
X447146Y206299D02*
X448130D01*
X447638Y205807D02*
Y206791D01*
X412500Y159843D02*
X413484D01*
X412992Y159350D02*
Y160335D01*
X429429Y182677D02*
X430413D01*
X429921Y182185D02*
Y183169D01*
X495965Y163386D02*
X496949D01*
X496457Y162894D02*
Y163878D01*
X453839Y127953D02*
X454823D01*
X454331Y127461D02*
Y128445D01*
X340453Y118898D02*
X341437D01*
X340945Y118405D02*
Y119390D01*
X-47343Y45669D02*
X-46358D01*
X-46850Y45177D02*
Y46161D01*
X-20177Y81102D02*
X-19193D01*
X-19685Y80610D02*
Y81595D01*
X19980Y20472D02*
X20965D01*
X20472Y19980D02*
Y20965D01*
X61319Y-9449D02*
X62303D01*
X61811Y-9941D02*
Y-8957D01*
X76673Y13780D02*
X77658D01*
X77165Y13287D02*
Y14272D01*
X75886Y7087D02*
X76870D01*
X76378Y6594D02*
Y7579D01*
X20374Y70079D02*
X21358D01*
X20866Y69587D02*
Y70571D01*
X16043Y67323D02*
X17028D01*
X16535Y66831D02*
Y67815D01*
X2264Y81890D02*
X3248D01*
X2756Y81398D02*
Y82382D01*
X-7185Y189764D02*
X-6201D01*
X-6693Y189272D02*
Y190256D01*
X-12697Y172835D02*
X-11713D01*
X-12205Y172343D02*
Y173327D01*
X106595Y166929D02*
X107579D01*
X107087Y166437D02*
Y167421D01*
X115650Y187795D02*
X116634D01*
X116142Y187303D02*
Y188287D01*
X129035Y198031D02*
X130020D01*
X129528Y197539D02*
Y198524D01*
X82973Y198425D02*
X83957D01*
X83465Y197933D02*
Y198917D01*
X48327Y155118D02*
X49311D01*
X48819Y154626D02*
Y155610D01*
X5020Y174409D02*
X6004D01*
X5512Y173917D02*
Y174902D01*
X9350Y190945D02*
X10335D01*
X9843Y190453D02*
Y191437D01*
X20374Y180315D02*
X21358D01*
X20866Y179823D02*
Y180807D01*
X31004Y185039D02*
X31988D01*
X31496Y184547D02*
Y185531D01*
X14862Y194882D02*
X15846D01*
X15354Y194390D02*
Y195374D01*
X-66634Y194882D02*
X-65650D01*
X-66142Y194390D02*
Y195374D01*
X-66634Y199606D02*
X-65650D01*
X-66142Y199114D02*
Y200098D01*
X-43799Y197244D02*
X-42815D01*
X-43307Y196752D02*
Y197736D01*
X-35531Y190157D02*
X-34547D01*
X-35039Y189665D02*
Y190650D01*
X-35531Y198819D02*
X-34547D01*
X-35039Y198327D02*
Y199311D01*
X-35531Y205512D02*
X-34547D01*
X-35039Y205020D02*
Y206004D01*
X-72933Y33858D02*
X-71949D01*
X-72441Y33366D02*
Y34350D01*
X-20177Y33465D02*
X-19193D01*
X-19685Y32972D02*
Y33957D01*
X88091Y27559D02*
X89075D01*
X88583Y27067D02*
Y28051D01*
X49114Y61417D02*
X50098D01*
X49606Y60925D02*
Y61909D01*
X218012Y55512D02*
X218996D01*
X218504Y55020D02*
Y56004D01*
X243996Y62598D02*
X244980D01*
X244488Y62106D02*
Y63090D01*
X215256Y127953D02*
X216240D01*
X215748Y127461D02*
Y128445D01*
X246752Y127953D02*
X247736D01*
X247244Y127461D02*
Y128445D01*
X305413Y24016D02*
X306398D01*
X305906Y23524D02*
Y24508D01*
X348721Y29921D02*
X349705D01*
X349213Y29429D02*
Y30413D01*
X267618Y31496D02*
X268602D01*
X268110Y31004D02*
Y31988D01*
X261319Y-394D02*
X262303D01*
X261811Y-886D02*
Y98D01*
X262106Y20079D02*
X263090D01*
X262598Y19587D02*
Y20571D01*
X261713Y14567D02*
X262697D01*
X262205Y14075D02*
Y15059D01*
X266043Y8268D02*
X267028D01*
X266535Y7776D02*
Y8760D01*
X230610Y31102D02*
X231594D01*
X231102Y30610D02*
Y31594D01*
X230610Y25984D02*
X231594D01*
X231102Y25492D02*
Y26476D01*
X230610Y20079D02*
X231594D01*
X231102Y19587D02*
Y20571D01*
X230610Y14567D02*
X231594D01*
X231102Y14075D02*
Y15059D01*
X230610Y7480D02*
X231594D01*
X231102Y6988D02*
Y7972D01*
X232185Y-787D02*
X233169D01*
X232677Y-1280D02*
Y-295D01*
X126279Y14567D02*
X127264D01*
X126772Y14075D02*
Y15059D01*
X97539Y7480D02*
X98524D01*
X98032Y6988D02*
Y7972D01*
X97539Y-394D02*
X98524D01*
X98032Y-886D02*
Y98D01*
X97539Y-6693D02*
X98524D01*
X98032Y-7185D02*
Y-6201D01*
X496358Y-34843D02*
X497342D01*
X496850Y-35335D02*
Y-34350D01*
X499902Y-34843D02*
X500886D01*
X500394Y-35335D02*
Y-34350D01*
X503445Y-34843D02*
X504429D01*
X503937Y-35335D02*
Y-34350D01*
X503445Y-31299D02*
X504429D01*
X503937Y-31791D02*
Y-30807D01*
X499902Y-31299D02*
X500886D01*
X500394Y-31791D02*
Y-30807D01*
X496358Y-31299D02*
X497342D01*
X496850Y-31791D02*
Y-30807D01*
X601870Y96850D02*
X602854D01*
X602362Y96358D02*
Y97342D01*
X540846Y97638D02*
X541831D01*
X541339Y97146D02*
Y98130D01*
X552658Y110630D02*
X553642D01*
X553150Y110138D02*
Y111122D01*
X527034Y72835D02*
X531234D01*
X529134Y70735D02*
Y74935D01*
X325261Y10508D02*
X326836D01*
X326049Y9720D02*
Y11295D01*
X116142Y-75590D02*
X117717D01*
X116929Y-76378D02*
Y-74803D01*
X12598Y-42126D02*
X14173D01*
X13386Y-42913D02*
Y-41339D01*
X598819Y55905D02*
X600394D01*
X599606Y55118D02*
Y56693D01*
X539370Y61024D02*
X540945D01*
X540158Y60236D02*
Y61811D01*
X570699Y54641D02*
X573499D01*
X572099Y53241D02*
Y56041D01*
X571041Y64961D02*
X573841D01*
X572441Y63561D02*
Y66361D01*
X-58416Y172933D02*
X-57432D01*
X-57924Y172441D02*
Y173425D01*
X574538Y222186D02*
X575522D01*
X575030Y221694D02*
Y222678D01*
X-67913Y126969D02*
X-66929D01*
X-67421Y126476D02*
Y127461D01*
X-62984Y123130D02*
X-62000D01*
X-62492Y122638D02*
Y123622D01*
X71479Y332306D02*
X73053D01*
X72266Y331518D02*
Y333093D01*
X-40022Y172736D02*
X-39037D01*
X-39529Y172244D02*
Y173228D01*
X-47244Y189567D02*
X-46260D01*
X-46752Y189075D02*
Y190059D01*
X-66634Y189173D02*
X-65650D01*
X-66142Y188681D02*
Y189665D01*
X-68996Y185728D02*
X-68012D01*
X-68504Y185236D02*
Y186221D01*
X-58472Y270173D02*
X-57488D01*
X-57980Y269681D02*
Y270665D01*
X-56004Y270177D02*
X-55020D01*
X-55512Y269685D02*
Y270669D01*
X624902Y46063D02*
X626476D01*
X625689Y45276D02*
Y46850D01*
X611811Y90158D02*
X613386D01*
X612598Y89370D02*
Y90945D01*
X-64961Y213090D02*
X-63976D01*
X-64468Y212598D02*
Y213583D01*
X-64961Y219291D02*
X-63976D01*
X-64468Y218799D02*
Y219783D01*
X-64961Y223327D02*
X-63976D01*
X-64468Y222835D02*
Y223819D01*
X-64961Y210728D02*
X-63976D01*
X-64468Y210236D02*
Y211221D01*
X29111Y33036D02*
X30686D01*
X29899Y32248D02*
Y33823D01*
X-68996Y223327D02*
X-68012D01*
X-68504Y222835D02*
Y223819D01*
X-68996Y219291D02*
X-68012D01*
X-68504Y218799D02*
Y219783D01*
X-69095Y213090D02*
X-68110D01*
X-68602Y212598D02*
Y213583D01*
X-68996Y175591D02*
X-68012D01*
X-68504Y175098D02*
Y176083D01*
X-68996Y171555D02*
X-68012D01*
X-68504Y171063D02*
Y172047D01*
X-69095Y210728D02*
X-68110D01*
X-68602Y210236D02*
Y211221D01*
X469095Y2756D02*
X470669D01*
X469882Y1969D02*
Y3543D01*
X407161Y358436D02*
X408736D01*
X407949Y357648D02*
Y359223D01*
X153161Y373186D02*
X154736D01*
X153949Y372398D02*
Y373973D01*
X309211Y375936D02*
X310786D01*
X309999Y375148D02*
Y376723D01*
X245211Y373686D02*
X246786D01*
X245999Y372898D02*
Y374473D01*
X476613Y223500D02*
X478187D01*
X477400Y222713D02*
Y224287D01*
X577011Y233636D02*
X578586D01*
X577799Y232848D02*
Y234423D01*
X556211Y130536D02*
X557786D01*
X556999Y129748D02*
Y131323D01*
X551613Y261100D02*
X553187D01*
X552400Y260313D02*
Y261887D01*
X573813Y248600D02*
X575387D01*
X574600Y247813D02*
Y249387D01*
X98563Y320800D02*
X100137D01*
X99350Y320013D02*
Y321587D01*
X43013Y319850D02*
X44587D01*
X43800Y319063D02*
Y320637D01*
X617914Y172334D02*
X619488D01*
X618701Y171546D02*
Y173121D01*
X463834Y264821D02*
X465409D01*
X464621Y264033D02*
Y265608D01*
X609711Y299336D02*
X611286D01*
X610499Y298548D02*
Y300123D01*
X457311Y220836D02*
X458886D01*
X458099Y220048D02*
Y221623D01*
X551761Y119314D02*
X553336D01*
X552549Y118526D02*
Y120101D01*
X529961Y123536D02*
X531536D01*
X530749Y122748D02*
Y124323D01*
X249410Y-11811D02*
X250984D01*
X250197Y-12598D02*
Y-11024D01*
X255261Y-38164D02*
X256836D01*
X256049Y-38952D02*
Y-37377D01*
X237511Y-42664D02*
X239086D01*
X238299Y-43452D02*
Y-41877D01*
X592161Y239286D02*
X593736D01*
X592949Y238498D02*
Y240073D01*
X538199Y21086D02*
X540699D01*
X539449Y19836D02*
Y22336D01*
X607961Y7786D02*
X609536D01*
X608749Y6998D02*
Y8573D01*
X47611Y-74414D02*
X49186D01*
X48399Y-75202D02*
Y-73627D01*
X-73089Y52136D02*
X-71514D01*
X-72301Y51348D02*
Y52923D01*
X152861Y-39614D02*
X154436D01*
X153649Y-40402D02*
Y-38827D01*
X220611Y97986D02*
X222186D01*
X221399Y97198D02*
Y98773D01*
X325861Y-3914D02*
X327436D01*
X326649Y-4702D02*
Y-3127D01*
X330511Y69986D02*
X332086D01*
X331299Y69198D02*
Y70773D01*
X537061Y-53464D02*
X538636D01*
X537849Y-54252D02*
Y-52677D01*
X643861Y127836D02*
X645436D01*
X644649Y127048D02*
Y128623D01*
X514561Y345786D02*
X516136D01*
X515349Y344998D02*
Y346573D01*
X40511Y379336D02*
X42086D01*
X41299Y378548D02*
Y380123D01*
X101761Y209136D02*
X103336D01*
X102549Y208348D02*
Y209923D01*
X66361Y164486D02*
X67936D01*
X67149Y163698D02*
Y165273D01*
X-69689Y310386D02*
X-68114D01*
X-68901Y309598D02*
Y311173D01*
X582961Y201536D02*
X584536D01*
X583749Y200748D02*
Y202323D01*
X566734Y136259D02*
X568309D01*
X567522Y135471D02*
Y137046D01*
X590861Y120236D02*
X592436D01*
X591649Y119448D02*
Y121023D01*
X489092Y-1969D02*
X490667D01*
X489880Y-2756D02*
Y-1181D01*
X303445Y-28346D02*
X304429D01*
X303937Y-28839D02*
Y-27854D01*
X369457Y-50664D02*
X371032D01*
X370245Y-51452D02*
Y-49877D01*
X262402Y-25098D02*
X263976D01*
X263189Y-25886D02*
Y-24311D01*
X277111Y-49064D02*
X278686D01*
X277899Y-49852D02*
Y-48277D01*
X293111Y-17714D02*
X294686D01*
X293899Y-18502D02*
Y-16927D01*
X316061Y-14964D02*
X317636D01*
X316849Y-15752D02*
Y-14177D01*
X519160Y110630D02*
X523360D01*
X521260Y108530D02*
Y112730D01*
X494488Y74410D02*
X496063D01*
X495276Y73622D02*
Y75197D01*
X578761Y123486D02*
X580336D01*
X579549Y122698D02*
Y124273D01*
X572161Y123436D02*
X573736D01*
X572949Y122648D02*
Y124223D01*
X565561Y123436D02*
X567136D01*
X566349Y122648D02*
Y124223D01*
X572062Y116735D02*
X573636D01*
X572849Y115948D02*
Y117523D01*
X578461Y116486D02*
X580036D01*
X579249Y115698D02*
Y117273D01*
X578361Y110336D02*
X579936D01*
X579149Y109548D02*
Y111123D01*
X571811Y110286D02*
X573386D01*
X572599Y109498D02*
Y111073D01*
X565311Y110336D02*
X566886D01*
X566099Y109548D02*
Y111123D01*
X565361Y116686D02*
X566936D01*
X566149Y115898D02*
Y117473D01*
X554161Y84636D02*
X555736D01*
X554949Y83848D02*
Y85423D01*
X611261Y114836D02*
X612836D01*
X612049Y114048D02*
Y115623D01*
X-55807Y172539D02*
X-54823D01*
X-55315Y172047D02*
Y173031D01*
X-53445Y270177D02*
X-52461D01*
X-52953Y269685D02*
Y270669D01*
X-50886Y270177D02*
X-49901D01*
X-50394Y269685D02*
Y270669D01*
X-39567Y300590D02*
X-38583D01*
X-39075Y300098D02*
Y301083D01*
X256201Y-27953D02*
X257776D01*
X256988Y-28740D02*
Y-27165D01*
X256201Y-22736D02*
X257776D01*
X256988Y-23524D02*
Y-21949D01*
X-54035Y168307D02*
X-53051D01*
X-53543Y167815D02*
Y168799D01*
X-52067Y174508D02*
X-51083D01*
X-51575Y174016D02*
Y175000D01*
X-40748Y154035D02*
X-39764D01*
X-40256Y153543D02*
Y154527D01*
X-44980Y156791D02*
X-43996D01*
X-44488Y156299D02*
Y157283D01*
X-63484Y186319D02*
X-62500D01*
X-62992Y185827D02*
Y186811D01*
X-28839Y138189D02*
X-27854D01*
X-28346Y137697D02*
Y138681D01*
X-34744Y131102D02*
X-33760D01*
X-34252Y130610D02*
Y131595D01*
X-31988Y134955D02*
X-31004D01*
X-31496Y134463D02*
Y135447D01*
X-32629Y147785D02*
X-31644D01*
X-32136Y147293D02*
Y148277D01*
X217028Y-9646D02*
X218602D01*
X217815Y-10433D02*
Y-8858D01*
X217048Y3503D02*
X218623D01*
X217835Y2716D02*
Y4291D01*
X200180Y10984D02*
X201754D01*
X200967Y10197D02*
Y11771D01*
X193722Y17686D02*
X195297D01*
X194510Y16898D02*
Y18473D01*
X-49213Y205315D02*
X-48228D01*
X-48720Y204823D02*
Y205807D01*
X-49213Y202165D02*
X-48228D01*
X-48720Y201673D02*
Y202658D01*
X-49213Y196004D02*
X-48228D01*
X-48720Y195512D02*
Y196496D01*
X-49213Y192717D02*
X-48228D01*
X-48720Y192224D02*
Y193209D01*
X-49213Y199016D02*
X-48228D01*
X-48720Y198524D02*
Y199508D01*
X193713Y-12600D02*
X195287D01*
X194500Y-13387D02*
Y-11813D01*
X54763Y309600D02*
X56337D01*
X55550Y308813D02*
Y310387D01*
X14639Y-50314D02*
X16214D01*
X15427Y-51102D02*
Y-49527D01*
X456661Y215136D02*
X458236D01*
X457449Y214348D02*
Y215923D01*
X199963Y-9400D02*
X201537D01*
X200750Y-10187D02*
Y-8613D01*
X451909Y225783D02*
X453484D01*
X452697Y224996D02*
Y226571D01*
X37061Y-25514D02*
X38636D01*
X37849Y-26302D02*
Y-24727D01*
X464355Y-14173D02*
X468555D01*
X466455Y-16273D02*
Y-12073D01*
X501363Y-14173D02*
X505563D01*
X503463Y-16273D02*
Y-12073D01*
X583611Y243436D02*
X585186D01*
X584399Y242648D02*
Y244223D01*
X439611Y170242D02*
X441186D01*
X440399Y169455D02*
Y171029D01*
X595280Y171527D02*
X596854D01*
X596067Y170740D02*
Y172315D01*
X576361Y243286D02*
X577936D01*
X577149Y242498D02*
Y244073D01*
X562513Y219250D02*
X564087D01*
X563300Y218463D02*
Y220037D01*
X106113Y312208D02*
X107687D01*
X106900Y311421D02*
Y312995D01*
X527061Y157436D02*
X528636D01*
X527849Y156648D02*
Y158223D01*
X549082Y193656D02*
X550657D01*
X549869Y192869D02*
Y194444D01*
X535261Y181686D02*
X536836D01*
X536049Y180898D02*
Y182473D01*
X515811Y287086D02*
X517386D01*
X516599Y286298D02*
Y287873D01*
X608261Y223068D02*
X609836D01*
X609049Y222280D02*
Y223855D01*
X566161Y197836D02*
X567736D01*
X566949Y197048D02*
Y198623D01*
X583561Y183636D02*
X585136D01*
X584349Y182848D02*
Y184423D01*
X326611Y-44364D02*
X328186D01*
X327399Y-45152D02*
Y-43577D01*
X253561Y25736D02*
X255136D01*
X254349Y24948D02*
Y26523D01*
X365511Y-50364D02*
X367086D01*
X366299Y-51152D02*
Y-49577D01*
X355411Y-60914D02*
X356986D01*
X356199Y-61702D02*
Y-60127D01*
X568811Y186286D02*
X570386D01*
X569599Y185498D02*
Y187073D01*
X284361Y120286D02*
X285936D01*
X285149Y119498D02*
Y121073D01*
M02*
