G04*
G04 #@! TF.GenerationSoftware,Altium Limited,Altium Designer,26.2.0 (7)*
G04*
G04 Layer_Color=65535*
%FSLAX25Y25*%
%MOIN*%
G70*
G04*
G04 #@! TF.SameCoordinates,A40123F2-DC2A-4F17-A694-4FDFCE3B6D11*
G04*
G04*
G04 #@! TF.FilePolarity,Positive*
G04*
G01*
G75*
%ADD10C,0.01968*%
%ADD11C,0.00591*%
%ADD12C,0.00394*%
%ADD13C,0.01000*%
%ADD14C,0.00787*%
%ADD15R,0.00886X0.04921*%
G36*
X283267Y149550D02*
X283313Y149546D01*
X283358Y149542D01*
X283412Y149538D01*
X283529Y149521D01*
X283658Y149496D01*
X283787Y149459D01*
X283911Y149413D01*
X283916D01*
X283924Y149405D01*
X283945Y149400D01*
X283966Y149388D01*
X283991Y149371D01*
X284024Y149355D01*
X284095Y149313D01*
X284178Y149255D01*
X284261Y149184D01*
X284340Y149105D01*
X284411Y149010D01*
X284415Y149005D01*
X284419Y148997D01*
X284427Y148985D01*
X284440Y148964D01*
X284452Y148939D01*
X284469Y148910D01*
X284482Y148872D01*
X284502Y148835D01*
X284536Y148747D01*
X284565Y148643D01*
X284590Y148531D01*
X284602Y148406D01*
X284115Y148369D01*
Y148373D01*
X284111Y148386D01*
Y148402D01*
X284107Y148427D01*
X284099Y148460D01*
X284090Y148494D01*
X284066Y148573D01*
X284032Y148660D01*
X283982Y148752D01*
X283924Y148839D01*
X283887Y148876D01*
X283845Y148914D01*
X283841Y148918D01*
X283837Y148922D01*
X283820Y148931D01*
X283803Y148943D01*
X283778Y148955D01*
X283749Y148972D01*
X283716Y148989D01*
X283679Y149010D01*
X283633Y149026D01*
X283583Y149043D01*
X283529Y149059D01*
X283471Y149072D01*
X283404Y149084D01*
X283333Y149093D01*
X283258Y149101D01*
X283138D01*
X283104Y149097D01*
X283067D01*
X283026Y149093D01*
X282976Y149089D01*
X282926Y149080D01*
X282813Y149059D01*
X282705Y149030D01*
X282601Y148989D01*
X282551Y148960D01*
X282510Y148931D01*
X282505D01*
X282501Y148922D01*
X282476Y148901D01*
X282443Y148864D01*
X282406Y148814D01*
X282368Y148756D01*
X282335Y148685D01*
X282310Y148610D01*
X282306Y148569D01*
X282302Y148523D01*
Y148519D01*
Y148514D01*
X282306Y148489D01*
X282310Y148452D01*
X282318Y148406D01*
X282339Y148352D01*
X282364Y148294D01*
X282397Y148240D01*
X282447Y148186D01*
X282455Y148182D01*
X282464Y148173D01*
X282481Y148161D01*
X282501Y148148D01*
X282526Y148136D01*
X282559Y148119D01*
X282597Y148099D01*
X282643Y148078D01*
X282697Y148057D01*
X282759Y148036D01*
X282830Y148011D01*
X282913Y147986D01*
X283000Y147961D01*
X283100Y147932D01*
X283213Y147907D01*
X283221D01*
X283242Y147903D01*
X283271Y147895D01*
X283313Y147882D01*
X283362Y147874D01*
X283421Y147857D01*
X283483Y147845D01*
X283550Y147824D01*
X283691Y147786D01*
X283833Y147749D01*
X283899Y147728D01*
X283957Y147707D01*
X284015Y147687D01*
X284061Y147666D01*
X284066D01*
X284078Y147658D01*
X284095Y147649D01*
X284115Y147637D01*
X284144Y147624D01*
X284178Y147603D01*
X284248Y147558D01*
X284332Y147504D01*
X284411Y147437D01*
X284490Y147358D01*
X284523Y147316D01*
X284556Y147275D01*
Y147271D01*
X284565Y147262D01*
X284573Y147250D01*
X284581Y147233D01*
X284594Y147212D01*
X284606Y147183D01*
X284640Y147117D01*
X284669Y147038D01*
X284694Y146946D01*
X284710Y146842D01*
X284719Y146730D01*
Y146726D01*
Y146717D01*
Y146701D01*
X284714Y146680D01*
Y146651D01*
X284710Y146622D01*
X284698Y146543D01*
X284677Y146455D01*
X284644Y146360D01*
X284598Y146260D01*
X284573Y146206D01*
X284540Y146156D01*
Y146152D01*
X284531Y146143D01*
X284523Y146131D01*
X284506Y146110D01*
X284469Y146064D01*
X284411Y146002D01*
X284340Y145935D01*
X284253Y145865D01*
X284153Y145798D01*
X284036Y145736D01*
X284032D01*
X284020Y145727D01*
X284003Y145723D01*
X283978Y145711D01*
X283949Y145702D01*
X283911Y145690D01*
X283870Y145673D01*
X283820Y145661D01*
X283770Y145648D01*
X283712Y145632D01*
X283587Y145611D01*
X283450Y145594D01*
X283300Y145586D01*
X283250D01*
X283213Y145590D01*
X283167D01*
X283117Y145594D01*
X283059Y145598D01*
X282992Y145607D01*
X282855Y145623D01*
X282709Y145648D01*
X282564Y145686D01*
X282422Y145736D01*
X282418D01*
X282406Y145744D01*
X282389Y145752D01*
X282364Y145765D01*
X282335Y145781D01*
X282302Y145798D01*
X282223Y145848D01*
X282135Y145910D01*
X282044Y145989D01*
X281952Y146081D01*
X281873Y146189D01*
X281869Y146193D01*
X281865Y146202D01*
X281856Y146218D01*
X281844Y146243D01*
X281827Y146272D01*
X281811Y146306D01*
X281790Y146347D01*
X281773Y146393D01*
X281752Y146439D01*
X281736Y146493D01*
X281703Y146613D01*
X281678Y146742D01*
X281669Y146813D01*
X281665Y146884D01*
X282143Y146925D01*
Y146921D01*
Y146913D01*
X282148Y146896D01*
X282152Y146875D01*
X282156Y146851D01*
X282160Y146826D01*
X282177Y146755D01*
X282198Y146680D01*
X282223Y146601D01*
X282256Y146522D01*
X282297Y146447D01*
X282302Y146439D01*
X282322Y146418D01*
X282351Y146385D01*
X282393Y146343D01*
X282447Y146293D01*
X282514Y146247D01*
X282593Y146197D01*
X282684Y146152D01*
X282688D01*
X282697Y146147D01*
X282709Y146143D01*
X282730Y146135D01*
X282755Y146127D01*
X282784Y146114D01*
X282818Y146106D01*
X282855Y146098D01*
X282942Y146077D01*
X283046Y146056D01*
X283154Y146043D01*
X283275Y146039D01*
X283325D01*
X283350Y146043D01*
X283379D01*
X283446Y146052D01*
X283525Y146060D01*
X283612Y146073D01*
X283699Y146093D01*
X283783Y146123D01*
X283787D01*
X283791Y146127D01*
X283803Y146131D01*
X283820Y146139D01*
X283857Y146160D01*
X283907Y146185D01*
X283962Y146218D01*
X284020Y146260D01*
X284070Y146306D01*
X284115Y146360D01*
X284120Y146368D01*
X284132Y146385D01*
X284153Y146418D01*
X284174Y146459D01*
X284190Y146509D01*
X284211Y146563D01*
X284224Y146626D01*
X284228Y146688D01*
Y146692D01*
Y146697D01*
Y146717D01*
X284224Y146755D01*
X284215Y146796D01*
X284203Y146846D01*
X284182Y146900D01*
X284157Y146955D01*
X284120Y147004D01*
X284115Y147009D01*
X284099Y147025D01*
X284074Y147050D01*
X284036Y147083D01*
X283991Y147117D01*
X283928Y147154D01*
X283857Y147192D01*
X283774Y147229D01*
X283766Y147233D01*
X283758Y147237D01*
X283741Y147241D01*
X283724Y147246D01*
X283699Y147254D01*
X283666Y147266D01*
X283633Y147275D01*
X283587Y147287D01*
X283541Y147304D01*
X283483Y147316D01*
X283421Y147333D01*
X283350Y147354D01*
X283275Y147371D01*
X283188Y147395D01*
X283092Y147416D01*
X283088D01*
X283071Y147420D01*
X283042Y147429D01*
X283009Y147437D01*
X282963Y147450D01*
X282913Y147462D01*
X282863Y147479D01*
X282805Y147495D01*
X282680Y147533D01*
X282559Y147574D01*
X282501Y147595D01*
X282447Y147616D01*
X282397Y147637D01*
X282356Y147658D01*
X282351D01*
X282343Y147666D01*
X282331Y147674D01*
X282310Y147682D01*
X282260Y147712D01*
X282202Y147753D01*
X282131Y147807D01*
X282065Y147865D01*
X281998Y147936D01*
X281944Y148011D01*
Y148015D01*
X281940Y148019D01*
X281931Y148032D01*
X281923Y148049D01*
X281902Y148094D01*
X281877Y148152D01*
X281852Y148223D01*
X281832Y148307D01*
X281815Y148398D01*
X281811Y148494D01*
Y148498D01*
Y148506D01*
Y148523D01*
X281815Y148544D01*
Y148569D01*
X281819Y148598D01*
X281832Y148673D01*
X281852Y148756D01*
X281877Y148843D01*
X281919Y148939D01*
X281973Y149035D01*
Y149039D01*
X281981Y149047D01*
X281990Y149059D01*
X282002Y149076D01*
X282044Y149122D01*
X282098Y149180D01*
X282164Y149242D01*
X282247Y149305D01*
X282343Y149367D01*
X282455Y149421D01*
X282460D01*
X282468Y149425D01*
X282489Y149434D01*
X282510Y149442D01*
X282539Y149451D01*
X282576Y149463D01*
X282618Y149475D01*
X282663Y149488D01*
X282714Y149500D01*
X282768Y149513D01*
X282884Y149534D01*
X283017Y149550D01*
X283159Y149555D01*
X283229D01*
X283267Y149550D01*
D02*
G37*
G36*
X268994D02*
X269044Y149546D01*
X269102Y149538D01*
X269164Y149530D01*
X269235Y149517D01*
X269310Y149500D01*
X269389Y149484D01*
X269468Y149459D01*
X269551Y149430D01*
X269634Y149396D01*
X269713Y149355D01*
X269793Y149313D01*
X269867Y149259D01*
X269871Y149255D01*
X269884Y149247D01*
X269905Y149230D01*
X269930Y149205D01*
X269963Y149176D01*
X270001Y149138D01*
X270038Y149097D01*
X270084Y149047D01*
X270129Y148993D01*
X270175Y148931D01*
X270221Y148864D01*
X270263Y148789D01*
X270308Y148710D01*
X270346Y148623D01*
X270383Y148531D01*
X270416Y148435D01*
X269917Y148319D01*
Y148323D01*
X269909Y148336D01*
X269905Y148361D01*
X269892Y148390D01*
X269880Y148423D01*
X269859Y148460D01*
X269817Y148552D01*
X269763Y148652D01*
X269693Y148756D01*
X269618Y148851D01*
X269572Y148893D01*
X269526Y148931D01*
X269522Y148935D01*
X269514Y148939D01*
X269501Y148947D01*
X269480Y148960D01*
X269456Y148976D01*
X269426Y148993D01*
X269393Y149010D01*
X269352Y149026D01*
X269306Y149043D01*
X269260Y149059D01*
X269152Y149093D01*
X269027Y149114D01*
X268960Y149122D01*
X268848D01*
X268815Y149118D01*
X268777Y149114D01*
X268732Y149109D01*
X268682Y149105D01*
X268632Y149097D01*
X268511Y149068D01*
X268386Y149030D01*
X268324Y149005D01*
X268262Y148976D01*
X268203Y148943D01*
X268145Y148906D01*
X268141Y148901D01*
X268133Y148897D01*
X268116Y148885D01*
X268095Y148868D01*
X268074Y148847D01*
X268045Y148818D01*
X268016Y148789D01*
X267983Y148756D01*
X267950Y148714D01*
X267912Y148673D01*
X267846Y148577D01*
X267783Y148465D01*
X267729Y148336D01*
Y148331D01*
X267725Y148319D01*
X267717Y148298D01*
X267712Y148273D01*
X267704Y148240D01*
X267692Y148203D01*
X267683Y148157D01*
X267671Y148111D01*
X267658Y148057D01*
X267650Y147999D01*
X267629Y147874D01*
X267617Y147741D01*
X267613Y147599D01*
Y147595D01*
Y147579D01*
Y147554D01*
X267617Y147516D01*
Y147475D01*
X267621Y147424D01*
X267625Y147371D01*
X267629Y147308D01*
X267638Y147241D01*
X267646Y147175D01*
X267671Y147029D01*
X267708Y146884D01*
X267754Y146742D01*
Y146738D01*
X267762Y146726D01*
X267771Y146709D01*
X267779Y146684D01*
X267796Y146651D01*
X267816Y146617D01*
X267862Y146538D01*
X267925Y146447D01*
X268000Y146360D01*
X268091Y146272D01*
X268141Y146235D01*
X268195Y146197D01*
X268199D01*
X268208Y146189D01*
X268224Y146181D01*
X268249Y146168D01*
X268278Y146156D01*
X268312Y146139D01*
X268349Y146127D01*
X268391Y146110D01*
X268486Y146077D01*
X268599Y146048D01*
X268719Y146027D01*
X268782Y146023D01*
X268848Y146019D01*
X268890D01*
X268919Y146023D01*
X268956Y146027D01*
X268998Y146031D01*
X269048Y146039D01*
X269098Y146048D01*
X269214Y146077D01*
X269272Y146098D01*
X269335Y146123D01*
X269397Y146152D01*
X269456Y146185D01*
X269514Y146222D01*
X269572Y146264D01*
X269576Y146268D01*
X269584Y146276D01*
X269601Y146289D01*
X269622Y146310D01*
X269643Y146335D01*
X269672Y146368D01*
X269701Y146405D01*
X269734Y146447D01*
X269767Y146497D01*
X269801Y146551D01*
X269834Y146609D01*
X269867Y146676D01*
X269897Y146747D01*
X269926Y146826D01*
X269955Y146909D01*
X269975Y146996D01*
X270483Y146867D01*
Y146859D01*
X270475Y146838D01*
X270466Y146809D01*
X270450Y146763D01*
X270433Y146713D01*
X270408Y146651D01*
X270383Y146584D01*
X270350Y146513D01*
X270312Y146434D01*
X270271Y146360D01*
X270225Y146276D01*
X270171Y146197D01*
X270113Y146123D01*
X270050Y146048D01*
X269980Y145977D01*
X269905Y145910D01*
X269901Y145906D01*
X269884Y145898D01*
X269863Y145881D01*
X269830Y145860D01*
X269793Y145835D01*
X269743Y145806D01*
X269689Y145777D01*
X269622Y145748D01*
X269551Y145719D01*
X269476Y145690D01*
X269393Y145661D01*
X269302Y145636D01*
X269206Y145615D01*
X269106Y145598D01*
X269002Y145590D01*
X268890Y145586D01*
X268831D01*
X268786Y145590D01*
X268736Y145594D01*
X268673Y145598D01*
X268607Y145607D01*
X268532Y145619D01*
X268453Y145632D01*
X268370Y145648D01*
X268287Y145669D01*
X268203Y145690D01*
X268116Y145719D01*
X268033Y145752D01*
X267954Y145790D01*
X267879Y145835D01*
X267875Y145840D01*
X267862Y145848D01*
X267842Y145860D01*
X267816Y145881D01*
X267783Y145910D01*
X267746Y145939D01*
X267704Y145977D01*
X267658Y146023D01*
X267613Y146073D01*
X267563Y146127D01*
X267517Y146185D01*
X267467Y146251D01*
X267417Y146322D01*
X267371Y146397D01*
X267330Y146480D01*
X267288Y146568D01*
X267284Y146572D01*
X267280Y146588D01*
X267271Y146617D01*
X267259Y146651D01*
X267242Y146697D01*
X267226Y146747D01*
X267209Y146809D01*
X267188Y146875D01*
X267172Y146950D01*
X267151Y147029D01*
X267134Y147113D01*
X267122Y147204D01*
X267097Y147395D01*
X267093Y147495D01*
X267089Y147595D01*
Y147603D01*
Y147620D01*
Y147653D01*
X267093Y147695D01*
X267097Y147749D01*
X267101Y147811D01*
X267109Y147878D01*
X267118Y147953D01*
X267130Y148032D01*
X267143Y148115D01*
X267184Y148294D01*
X267213Y148381D01*
X267242Y148469D01*
X267276Y148560D01*
X267317Y148643D01*
X267321Y148648D01*
X267330Y148664D01*
X267342Y148685D01*
X267359Y148718D01*
X267384Y148756D01*
X267413Y148797D01*
X267446Y148843D01*
X267484Y148897D01*
X267530Y148947D01*
X267575Y149005D01*
X267629Y149059D01*
X267688Y149118D01*
X267750Y149172D01*
X267816Y149226D01*
X267891Y149276D01*
X267966Y149321D01*
X267970Y149326D01*
X267987Y149330D01*
X268008Y149342D01*
X268041Y149359D01*
X268079Y149376D01*
X268128Y149396D01*
X268183Y149417D01*
X268241Y149438D01*
X268307Y149459D01*
X268382Y149480D01*
X268457Y149500D01*
X268540Y149517D01*
X268711Y149546D01*
X268802Y149550D01*
X268898Y149555D01*
X268952D01*
X268994Y149550D01*
D02*
G37*
G36*
X297136Y147271D02*
Y145648D01*
X296629D01*
Y147271D01*
X295148Y149488D01*
X295763D01*
X296520Y148327D01*
X296525Y148323D01*
X296529Y148315D01*
X296541Y148294D01*
X296558Y148273D01*
X296575Y148244D01*
X296595Y148207D01*
X296620Y148169D01*
X296650Y148123D01*
X296708Y148028D01*
X296774Y147920D01*
X296845Y147803D01*
X296912Y147682D01*
X296916Y147687D01*
X296920Y147695D01*
X296928Y147712D01*
X296945Y147737D01*
X296961Y147761D01*
X296978Y147795D01*
X297003Y147836D01*
X297028Y147878D01*
X297057Y147924D01*
X297090Y147978D01*
X297161Y148090D01*
X297244Y148219D01*
X297332Y148356D01*
X298076Y149488D01*
X298667D01*
X297136Y147271D01*
D02*
G37*
G36*
X295144Y145648D02*
X294565D01*
X294120Y146809D01*
X292506Y146809D01*
X292090Y145648D01*
X291553D01*
X293022Y149488D01*
X293571D01*
X295144Y145648D01*
D02*
G37*
G36*
X289474Y146102D02*
X291366D01*
Y145648D01*
X288966D01*
Y149488D01*
X289474D01*
Y146102D01*
D02*
G37*
G36*
X287073Y149484D02*
X287169Y149480D01*
X287264Y149471D01*
X287356Y149463D01*
X287402Y149459D01*
X287439Y149451D01*
X287443D01*
X287452Y149446D01*
X287468D01*
X287485Y149442D01*
X287510Y149434D01*
X287539Y149430D01*
X287606Y149409D01*
X287681Y149384D01*
X287759Y149351D01*
X287839Y149313D01*
X287913Y149267D01*
X287918D01*
X287922Y149263D01*
X287947Y149242D01*
X287980Y149213D01*
X288026Y149172D01*
X288071Y149122D01*
X288126Y149055D01*
X288176Y148985D01*
X288221Y148897D01*
Y148893D01*
X288226Y148885D01*
X288234Y148872D01*
X288242Y148856D01*
X288250Y148835D01*
X288259Y148806D01*
X288284Y148743D01*
X288304Y148664D01*
X288325Y148577D01*
X288338Y148477D01*
X288342Y148373D01*
Y148369D01*
Y148352D01*
Y148327D01*
X288338Y148290D01*
X288334Y148248D01*
X288325Y148203D01*
X288317Y148148D01*
X288304Y148086D01*
X288288Y148024D01*
X288267Y147957D01*
X288242Y147890D01*
X288209Y147820D01*
X288176Y147749D01*
X288134Y147678D01*
X288084Y147612D01*
X288030Y147545D01*
X288026Y147541D01*
X288013Y147533D01*
X287997Y147516D01*
X287967Y147491D01*
X287934Y147466D01*
X287889Y147437D01*
X287834Y147408D01*
X287772Y147379D01*
X287697Y147345D01*
X287618Y147316D01*
X287522Y147287D01*
X287423Y147262D01*
X287306Y147241D01*
X287181Y147225D01*
X287048Y147212D01*
X286898Y147208D01*
X285917D01*
Y145648D01*
X285409D01*
Y149488D01*
X286990D01*
X287073Y149484D01*
D02*
G37*
G36*
X280937Y145648D02*
X280430D01*
Y149488D01*
X280937D01*
Y145648D01*
D02*
G37*
G36*
X277942Y149484D02*
X277992D01*
X278042Y149480D01*
X278154Y149475D01*
X278266Y149463D01*
X278379Y149451D01*
X278429Y149438D01*
X278474Y149430D01*
X278479D01*
X278491Y149425D01*
X278508Y149421D01*
X278528Y149413D01*
X278558Y149405D01*
X278591Y149396D01*
X278670Y149367D01*
X278757Y149330D01*
X278849Y149284D01*
X278944Y149226D01*
X279036Y149155D01*
X279040Y149151D01*
X279048Y149143D01*
X279065Y149130D01*
X279086Y149109D01*
X279111Y149084D01*
X279140Y149051D01*
X279173Y149018D01*
X279207Y148976D01*
X279244Y148931D01*
X279281Y148881D01*
X279319Y148827D01*
X279356Y148768D01*
X279427Y148639D01*
X279489Y148498D01*
Y148494D01*
X279498Y148481D01*
X279502Y148456D01*
X279514Y148427D01*
X279527Y148390D01*
X279539Y148344D01*
X279552Y148294D01*
X279569Y148236D01*
X279581Y148169D01*
X279593Y148099D01*
X279606Y148024D01*
X279618Y147945D01*
X279631Y147861D01*
X279635Y147774D01*
X279643Y147587D01*
Y147583D01*
Y147566D01*
Y147545D01*
Y147512D01*
X279639Y147475D01*
Y147429D01*
X279635Y147379D01*
X279631Y147325D01*
X279618Y147204D01*
X279598Y147075D01*
X279573Y146942D01*
X279539Y146809D01*
Y146805D01*
X279535Y146792D01*
X279527Y146776D01*
X279523Y146755D01*
X279510Y146726D01*
X279498Y146692D01*
X279469Y146613D01*
X279431Y146526D01*
X279385Y146430D01*
X279335Y146339D01*
X279277Y146251D01*
Y146247D01*
X279269Y146243D01*
X279261Y146231D01*
X279248Y146214D01*
X279219Y146177D01*
X279173Y146127D01*
X279123Y146068D01*
X279065Y146010D01*
X278999Y145956D01*
X278928Y145902D01*
X278924D01*
X278920Y145898D01*
X278895Y145881D01*
X278853Y145860D01*
X278799Y145831D01*
X278732Y145802D01*
X278653Y145769D01*
X278562Y145740D01*
X278466Y145711D01*
X278462D01*
X278454Y145706D01*
X278441D01*
X278420Y145702D01*
X278395Y145698D01*
X278362Y145690D01*
X278329Y145686D01*
X278291Y145682D01*
X278200Y145669D01*
X278096Y145657D01*
X277979Y145652D01*
X277855Y145648D01*
X276469D01*
Y149488D01*
X277900D01*
X277942Y149484D01*
D02*
G37*
G36*
X272580D02*
X272630D01*
X272679Y149480D01*
X272792Y149475D01*
X272904Y149463D01*
X273017Y149451D01*
X273066Y149438D01*
X273112Y149430D01*
X273116D01*
X273129Y149425D01*
X273146Y149421D01*
X273166Y149413D01*
X273195Y149405D01*
X273229Y149396D01*
X273308Y149367D01*
X273395Y149330D01*
X273487Y149284D01*
X273582Y149226D01*
X273674Y149155D01*
X273678Y149151D01*
X273686Y149143D01*
X273703Y149130D01*
X273724Y149109D01*
X273749Y149084D01*
X273778Y149051D01*
X273811Y149018D01*
X273844Y148976D01*
X273882Y148931D01*
X273919Y148881D01*
X273957Y148827D01*
X273994Y148768D01*
X274065Y148639D01*
X274127Y148498D01*
Y148494D01*
X274135Y148481D01*
X274140Y148456D01*
X274152Y148427D01*
X274165Y148390D01*
X274177Y148344D01*
X274190Y148294D01*
X274206Y148236D01*
X274219Y148169D01*
X274231Y148099D01*
X274244Y148024D01*
X274256Y147945D01*
X274269Y147861D01*
X274273Y147774D01*
X274281Y147587D01*
Y147583D01*
Y147566D01*
Y147545D01*
Y147512D01*
X274277Y147475D01*
Y147429D01*
X274273Y147379D01*
X274269Y147325D01*
X274256Y147204D01*
X274235Y147075D01*
X274210Y146942D01*
X274177Y146809D01*
Y146805D01*
X274173Y146792D01*
X274165Y146776D01*
X274161Y146755D01*
X274148Y146726D01*
X274135Y146692D01*
X274106Y146613D01*
X274069Y146526D01*
X274023Y146430D01*
X273973Y146339D01*
X273915Y146251D01*
Y146247D01*
X273907Y146243D01*
X273898Y146231D01*
X273886Y146214D01*
X273857Y146177D01*
X273811Y146127D01*
X273761Y146068D01*
X273703Y146010D01*
X273636Y145956D01*
X273566Y145902D01*
X273562D01*
X273557Y145898D01*
X273532Y145881D01*
X273491Y145860D01*
X273437Y145831D01*
X273370Y145802D01*
X273291Y145769D01*
X273200Y145740D01*
X273104Y145711D01*
X273100D01*
X273091Y145706D01*
X273079D01*
X273058Y145702D01*
X273033Y145698D01*
X273000Y145690D01*
X272967Y145686D01*
X272929Y145682D01*
X272838Y145669D01*
X272734Y145657D01*
X272617Y145652D01*
X272492Y145648D01*
X271107D01*
Y149488D01*
X272538D01*
X272580Y149484D01*
D02*
G37*
G36*
X264738Y146102D02*
X266631D01*
Y145648D01*
X264231D01*
Y149488D01*
X264738D01*
Y146102D01*
D02*
G37*
%LPC*%
G36*
X293284Y149089D02*
Y149084D01*
X293280Y149072D01*
X293276Y149051D01*
X293271Y149026D01*
X293263Y148989D01*
X293255Y148951D01*
X293242Y148906D01*
X293230Y148856D01*
X293217Y148802D01*
X293201Y148743D01*
X293163Y148618D01*
X293122Y148485D01*
X293076Y148348D01*
X292652Y147221D01*
X293962Y147221D01*
X293559Y148286D01*
Y148290D01*
X293550Y148307D01*
X293542Y148331D01*
X293530Y148369D01*
X293513Y148406D01*
X293496Y148456D01*
X293475Y148510D01*
X293455Y148569D01*
X293413Y148697D01*
X293367Y148831D01*
X293321Y148964D01*
X293284Y149089D01*
D02*
G37*
G36*
X287019Y149035D02*
X285917D01*
Y147662D01*
X286952D01*
X286986Y147666D01*
X287027D01*
X287073Y147670D01*
X287127Y147678D01*
X287181Y147687D01*
X287298Y147707D01*
X287414Y147741D01*
X287468Y147761D01*
X287518Y147786D01*
X287568Y147811D01*
X287610Y147845D01*
X287614Y147849D01*
X287618Y147853D01*
X287631Y147865D01*
X287643Y147878D01*
X287676Y147920D01*
X287714Y147978D01*
X287751Y148053D01*
X287785Y148140D01*
X287809Y148244D01*
X287814Y148298D01*
X287818Y148361D01*
Y148365D01*
Y148373D01*
Y148386D01*
Y148402D01*
X287809Y148448D01*
X287801Y148502D01*
X287789Y148569D01*
X287764Y148635D01*
X287735Y148706D01*
X287693Y148772D01*
X287689Y148781D01*
X287672Y148802D01*
X287643Y148831D01*
X287610Y148864D01*
X287560Y148901D01*
X287506Y148939D01*
X287443Y148972D01*
X287373Y148997D01*
X287368D01*
X287348Y149001D01*
X287314Y149010D01*
X287264Y149018D01*
X287235D01*
X287202Y149022D01*
X287160Y149026D01*
X287119Y149030D01*
X287069D01*
X287019Y149035D01*
D02*
G37*
G36*
X277863D02*
X276977D01*
Y146102D01*
X277859D01*
X277892Y146106D01*
X277929D01*
X278013Y146110D01*
X278108Y146118D01*
X278208Y146131D01*
X278304Y146147D01*
X278391Y146168D01*
X278395D01*
X278399Y146172D01*
X278412Y146177D01*
X278429Y146181D01*
X278466Y146197D01*
X278516Y146218D01*
X278570Y146247D01*
X278628Y146281D01*
X278687Y146322D01*
X278736Y146368D01*
X278741Y146372D01*
X278745Y146376D01*
X278766Y146401D01*
X278799Y146443D01*
X278840Y146497D01*
X278882Y146568D01*
X278928Y146651D01*
X278974Y146747D01*
X279015Y146855D01*
Y146859D01*
X279019Y146867D01*
X279024Y146884D01*
X279032Y146909D01*
X279040Y146938D01*
X279048Y146975D01*
X279057Y147017D01*
X279069Y147063D01*
X279078Y147113D01*
X279086Y147171D01*
X279094Y147229D01*
X279103Y147296D01*
X279115Y147437D01*
X279119Y147595D01*
Y147603D01*
Y147620D01*
Y147653D01*
X279115Y147695D01*
Y147745D01*
X279111Y147803D01*
X279103Y147865D01*
X279094Y147936D01*
X279069Y148086D01*
X279036Y148240D01*
X278986Y148386D01*
X278953Y148456D01*
X278920Y148519D01*
X278915Y148523D01*
X278911Y148531D01*
X278899Y148548D01*
X278882Y148573D01*
X278866Y148598D01*
X278840Y148627D01*
X278786Y148693D01*
X278716Y148768D01*
X278632Y148839D01*
X278541Y148906D01*
X278491Y148931D01*
X278437Y148955D01*
X278433D01*
X278429Y148960D01*
X278416Y148964D01*
X278399Y148968D01*
X278375Y148972D01*
X278350Y148980D01*
X278316Y148989D01*
X278279Y148997D01*
X278237Y149001D01*
X278187Y149010D01*
X278133Y149018D01*
X278075Y149022D01*
X278009Y149026D01*
X277938Y149030D01*
X277863Y149035D01*
D02*
G37*
G36*
X272501D02*
X271615D01*
Y146102D01*
X272497D01*
X272530Y146106D01*
X272567D01*
X272650Y146110D01*
X272746Y146118D01*
X272846Y146131D01*
X272942Y146147D01*
X273029Y146168D01*
X273033D01*
X273037Y146172D01*
X273050Y146177D01*
X273066Y146181D01*
X273104Y146197D01*
X273154Y146218D01*
X273208Y146247D01*
X273266Y146281D01*
X273324Y146322D01*
X273374Y146368D01*
X273378Y146372D01*
X273383Y146376D01*
X273403Y146401D01*
X273437Y146443D01*
X273478Y146497D01*
X273520Y146568D01*
X273566Y146651D01*
X273611Y146747D01*
X273653Y146855D01*
Y146859D01*
X273657Y146867D01*
X273661Y146884D01*
X273670Y146909D01*
X273678Y146938D01*
X273686Y146975D01*
X273695Y147017D01*
X273707Y147063D01*
X273715Y147113D01*
X273724Y147171D01*
X273732Y147229D01*
X273740Y147296D01*
X273753Y147437D01*
X273757Y147595D01*
Y147603D01*
Y147620D01*
Y147653D01*
X273753Y147695D01*
Y147745D01*
X273749Y147803D01*
X273740Y147865D01*
X273732Y147936D01*
X273707Y148086D01*
X273674Y148240D01*
X273624Y148386D01*
X273591Y148456D01*
X273557Y148519D01*
X273553Y148523D01*
X273549Y148531D01*
X273536Y148548D01*
X273520Y148573D01*
X273503Y148598D01*
X273478Y148627D01*
X273424Y148693D01*
X273354Y148768D01*
X273270Y148839D01*
X273179Y148906D01*
X273129Y148931D01*
X273075Y148955D01*
X273071D01*
X273066Y148960D01*
X273054Y148964D01*
X273037Y148968D01*
X273012Y148972D01*
X272987Y148980D01*
X272954Y148989D01*
X272917Y148997D01*
X272875Y149001D01*
X272825Y149010D01*
X272771Y149018D01*
X272713Y149022D01*
X272646Y149026D01*
X272575Y149030D01*
X272501Y149035D01*
D02*
G37*
%LPD*%
D10*
X555451Y241685D02*
G03*
X555451Y241685I-48750J0D01*
G01*
X530326D02*
G03*
X530326Y241685I-23625J0D01*
G01*
X531898Y274416D02*
G03*
X531898Y274416I-6299J0D01*
G01*
Y208953D02*
G03*
X531898Y208953I-6299J0D01*
G01*
X475205Y241685D02*
G03*
X475205Y241685I-6299J0D01*
G01*
D11*
X301528Y74986D02*
G03*
X301528Y74986I-20079J0D01*
G01*
X93905Y304000D02*
X101779D01*
X93905Y276441D02*
X101779D01*
X85243Y304000D02*
X86031D01*
X85243Y276441D02*
X86031D01*
X85243D02*
Y304000D01*
X109653D02*
X110440D01*
X109653Y276441D02*
X110440D01*
Y304000D01*
X274272Y327740D02*
Y329740D01*
X279272Y327740D02*
Y329740D01*
X321909Y327740D02*
Y329740D01*
X326909Y327740D02*
Y329740D01*
X316398Y327740D02*
Y329740D01*
X321398Y327740D02*
Y329740D01*
X241201Y327740D02*
Y329740D01*
X246201Y327740D02*
Y329740D01*
X349468Y327740D02*
Y329740D01*
X354468Y327740D02*
Y329740D01*
X246713Y327740D02*
Y329740D01*
X251713Y327740D02*
Y329740D01*
X112205Y-72835D02*
X113779D01*
X112205Y-68110D02*
X113779D01*
X327421Y327740D02*
Y329740D01*
X332421Y327740D02*
Y329740D01*
X268760Y327740D02*
Y329740D01*
X273760Y327740D02*
Y329740D01*
X235689Y327740D02*
Y329740D01*
X240689Y327740D02*
Y329740D01*
X310886Y327740D02*
Y329740D01*
X315886Y327740D02*
Y329740D01*
X252224Y327740D02*
Y329740D01*
X257224Y327740D02*
Y329740D01*
X343957Y327740D02*
Y329740D01*
X348957Y327740D02*
Y329740D01*
X257736Y327740D02*
Y329740D01*
X262736Y327740D02*
Y329740D01*
X190110Y46442D02*
Y103529D01*
X124756Y46442D02*
Y103529D01*
X190110D01*
X124756Y46442D02*
X190110D01*
X372787Y46442D02*
Y103529D01*
X438142Y46442D02*
Y103529D01*
X372787Y46442D02*
X438142D01*
X372787Y103529D02*
X438142D01*
X263248Y327740D02*
Y329740D01*
X268248Y327740D02*
Y329740D01*
X332933Y327740D02*
Y329740D01*
X337933Y327740D02*
Y329740D01*
X338445Y327740D02*
Y329740D01*
X343445Y327740D02*
Y329740D01*
X230177Y327740D02*
Y329740D01*
X235177Y327740D02*
Y329740D01*
X305374Y327740D02*
Y329740D01*
X310374Y327740D02*
Y329740D01*
X306693Y295669D02*
X308268D01*
X306693Y300394D02*
X308268D01*
X304400Y305597D02*
X303941Y306056D01*
X303023D01*
X302564Y305597D01*
Y303760D01*
X303023Y303301D01*
X303941D01*
X304400Y303760D01*
X307155Y306056D02*
X306237Y305597D01*
X305319Y304678D01*
Y303760D01*
X305778Y303301D01*
X306696D01*
X307155Y303760D01*
Y304219D01*
X306696Y304678D01*
X305319D01*
X308074Y303760D02*
X308533Y303301D01*
X309451D01*
X309910Y303760D01*
Y305597D01*
X309451Y306056D01*
X308533D01*
X308074Y305597D01*
Y305137D01*
X308533Y304678D01*
X309910D01*
X341650Y310433D02*
X338895D01*
Y311811D01*
X339354Y312270D01*
X340272D01*
X340731Y311811D01*
Y310433D01*
Y311351D02*
X341650Y312270D01*
X341190Y313188D02*
X341650Y313647D01*
Y314566D01*
X341190Y315025D01*
X339354D01*
X338895Y314566D01*
Y313647D01*
X339354Y313188D01*
X339813D01*
X340272Y313647D01*
Y315025D01*
X341650Y317780D02*
Y315943D01*
X339813Y317780D01*
X339354D01*
X338895Y317321D01*
Y316402D01*
X339354Y315943D01*
X261827Y310433D02*
X259072D01*
Y311811D01*
X259532Y312270D01*
X260450D01*
X260909Y311811D01*
Y310433D01*
Y311351D02*
X261827Y312270D01*
X261368Y313188D02*
X261827Y313647D01*
Y314566D01*
X261368Y315025D01*
X259532D01*
X259072Y314566D01*
Y313647D01*
X259532Y313188D01*
X259991D01*
X260450Y313647D01*
Y315025D01*
X261827Y315943D02*
Y316861D01*
Y316402D01*
X259072D01*
X259532Y315943D01*
X336663Y310433D02*
X333908D01*
Y311811D01*
X334367Y312270D01*
X335285D01*
X335744Y311811D01*
Y310433D01*
Y311351D02*
X336663Y312270D01*
X336204Y313188D02*
X336663Y313647D01*
Y314566D01*
X336204Y315025D01*
X334367D01*
X333908Y314566D01*
Y313647D01*
X334367Y313188D01*
X334826D01*
X335285Y313647D01*
Y315025D01*
X334367Y315943D02*
X333908Y316402D01*
Y317321D01*
X334367Y317780D01*
X336204D01*
X336663Y317321D01*
Y316402D01*
X336204Y315943D01*
X334367D01*
X309629Y310433D02*
X306874D01*
Y311811D01*
X307333Y312270D01*
X308251D01*
X308710Y311811D01*
Y310433D01*
Y311351D02*
X309629Y312270D01*
X307333Y313188D02*
X306874Y313647D01*
Y314566D01*
X307333Y315025D01*
X307792D01*
X308251Y314566D01*
X308710Y315025D01*
X309170D01*
X309629Y314566D01*
Y313647D01*
X309170Y313188D01*
X308710D01*
X308251Y313647D01*
X307792Y313188D01*
X307333D01*
X308251Y313647D02*
Y314566D01*
X309170Y315943D02*
X309629Y316402D01*
Y317321D01*
X309170Y317780D01*
X307333D01*
X306874Y317321D01*
Y316402D01*
X307333Y315943D01*
X307792D01*
X308251Y316402D01*
Y317780D01*
X325989Y310433D02*
X323234D01*
Y311811D01*
X323693Y312270D01*
X324612D01*
X325071Y311811D01*
Y310433D01*
Y311351D02*
X325989Y312270D01*
X323693Y313188D02*
X323234Y313647D01*
Y314566D01*
X323693Y315025D01*
X324152D01*
X324612Y314566D01*
X325071Y315025D01*
X325530D01*
X325989Y314566D01*
Y313647D01*
X325530Y313188D01*
X325071D01*
X324612Y313647D01*
X324152Y313188D01*
X323693D01*
X324612Y313647D02*
Y314566D01*
X323693Y315943D02*
X323234Y316402D01*
Y317321D01*
X323693Y317780D01*
X324152D01*
X324612Y317321D01*
X325071Y317780D01*
X325530D01*
X325989Y317321D01*
Y316402D01*
X325530Y315943D01*
X325071D01*
X324612Y316402D01*
X324152Y315943D01*
X323693D01*
X324612Y316402D02*
Y317321D01*
X321002Y310433D02*
X318247D01*
Y311811D01*
X318706Y312270D01*
X319625D01*
X320084Y311811D01*
Y310433D01*
Y311351D02*
X321002Y312270D01*
X318706Y313188D02*
X318247Y313647D01*
Y314566D01*
X318706Y315025D01*
X319166D01*
X319625Y314566D01*
X320084Y315025D01*
X320543D01*
X321002Y314566D01*
Y313647D01*
X320543Y313188D01*
X320084D01*
X319625Y313647D01*
X319166Y313188D01*
X318706D01*
X319625Y313647D02*
Y314566D01*
X318247Y315943D02*
Y317780D01*
X318706D01*
X320543Y315943D01*
X321002D01*
X353023Y310433D02*
X350268D01*
Y311811D01*
X350727Y312270D01*
X351646D01*
X352105Y311811D01*
Y310433D01*
Y311351D02*
X353023Y312270D01*
X350727Y313188D02*
X350268Y313647D01*
Y314566D01*
X350727Y315025D01*
X351186D01*
X351646Y314566D01*
X352105Y315025D01*
X352564D01*
X353023Y314566D01*
Y313647D01*
X352564Y313188D01*
X352105D01*
X351646Y313647D01*
X351186Y313188D01*
X350727D01*
X351646Y313647D02*
Y314566D01*
X350268Y317780D02*
X350727Y316862D01*
X351646Y315943D01*
X352564D01*
X353023Y316402D01*
Y317321D01*
X352564Y317780D01*
X352105D01*
X351646Y317321D01*
Y315943D01*
X331326Y310433D02*
X328571D01*
Y311811D01*
X329030Y312270D01*
X329948D01*
X330408Y311811D01*
Y310433D01*
Y311351D02*
X331326Y312270D01*
X329030Y313188D02*
X328571Y313647D01*
Y314566D01*
X329030Y315025D01*
X329489D01*
X329948Y314566D01*
X330408Y315025D01*
X330867D01*
X331326Y314566D01*
Y313647D01*
X330867Y313188D01*
X330408D01*
X329948Y313647D01*
X329489Y313188D01*
X329030D01*
X329948Y313647D02*
Y314566D01*
X328571Y317780D02*
Y315943D01*
X329948D01*
X329489Y316862D01*
Y317321D01*
X329948Y317780D01*
X330867D01*
X331326Y317321D01*
Y316402D01*
X330867Y315943D01*
X315316Y310433D02*
X312561D01*
Y311811D01*
X313020Y312270D01*
X313938D01*
X314397Y311811D01*
Y310433D01*
Y311351D02*
X315316Y312270D01*
X313020Y313188D02*
X312561Y313647D01*
Y314566D01*
X313020Y315025D01*
X313479D01*
X313938Y314566D01*
X314397Y315025D01*
X314856D01*
X315316Y314566D01*
Y313647D01*
X314856Y313188D01*
X314397D01*
X313938Y313647D01*
X313479Y313188D01*
X313020D01*
X313938Y313647D02*
Y314566D01*
X315316Y317321D02*
X312561D01*
X313938Y315943D01*
Y317780D01*
X347336Y310433D02*
X344581D01*
Y311811D01*
X345040Y312270D01*
X345959D01*
X346418Y311811D01*
Y310433D01*
Y311351D02*
X347336Y312270D01*
X345040Y313188D02*
X344581Y313647D01*
Y314566D01*
X345040Y315025D01*
X345500D01*
X345959Y314566D01*
X346418Y315025D01*
X346877D01*
X347336Y314566D01*
Y313647D01*
X346877Y313188D01*
X346418D01*
X345959Y313647D01*
X345500Y313188D01*
X345040D01*
X345959Y313647D02*
Y314566D01*
X345040Y315943D02*
X344581Y316402D01*
Y317321D01*
X345040Y317780D01*
X345500D01*
X345959Y317321D01*
Y316861D01*
Y317321D01*
X346418Y317780D01*
X346877D01*
X347336Y317321D01*
Y316402D01*
X346877Y315943D01*
X267794Y310433D02*
X265039D01*
Y311811D01*
X265499Y312270D01*
X266417D01*
X266876Y311811D01*
Y310433D01*
Y311351D02*
X267794Y312270D01*
X265499Y313188D02*
X265039Y313647D01*
Y314566D01*
X265499Y315025D01*
X265958D01*
X266417Y314566D01*
X266876Y315025D01*
X267335D01*
X267794Y314566D01*
Y313647D01*
X267335Y313188D01*
X266876D01*
X266417Y313647D01*
X265958Y313188D01*
X265499D01*
X266417Y313647D02*
Y314566D01*
X267794Y317780D02*
Y315943D01*
X265958Y317780D01*
X265499D01*
X265039Y317321D01*
Y316402D01*
X265499Y315943D01*
X233668Y310433D02*
X230913D01*
Y311811D01*
X231373Y312270D01*
X232291D01*
X232750Y311811D01*
Y310433D01*
Y311351D02*
X233668Y312270D01*
X231373Y313188D02*
X230913Y313647D01*
Y314566D01*
X231373Y315025D01*
X231832D01*
X232291Y314566D01*
X232750Y315025D01*
X233209D01*
X233668Y314566D01*
Y313647D01*
X233209Y313188D01*
X232750D01*
X232291Y313647D01*
X231832Y313188D01*
X231373D01*
X232291Y313647D02*
Y314566D01*
X233668Y315943D02*
Y316861D01*
Y316402D01*
X230913D01*
X231373Y315943D01*
X278665Y310433D02*
X275910D01*
Y311811D01*
X276369Y312270D01*
X277287D01*
X277747Y311811D01*
Y310433D01*
Y311351D02*
X278665Y312270D01*
X276369Y313188D02*
X275910Y313647D01*
Y314566D01*
X276369Y315025D01*
X276828D01*
X277287Y314566D01*
X277747Y315025D01*
X278206D01*
X278665Y314566D01*
Y313647D01*
X278206Y313188D01*
X277747D01*
X277287Y313647D01*
X276828Y313188D01*
X276369D01*
X277287Y313647D02*
Y314566D01*
X276369Y315943D02*
X275910Y316402D01*
Y317321D01*
X276369Y317780D01*
X278206D01*
X278665Y317321D01*
Y316402D01*
X278206Y315943D01*
X276369D01*
X244998Y310433D02*
X242243D01*
Y311811D01*
X242702Y312270D01*
X243621D01*
X244080Y311811D01*
Y310433D01*
Y311351D02*
X244998Y312270D01*
X242243Y313188D02*
Y315025D01*
X242702D01*
X244539Y313188D01*
X244998D01*
X244539Y315943D02*
X244998Y316402D01*
Y317321D01*
X244539Y317780D01*
X242702D01*
X242243Y317321D01*
Y316402D01*
X242702Y315943D01*
X243162D01*
X243621Y316402D01*
Y317780D01*
X250663Y310433D02*
X247908D01*
Y311811D01*
X248367Y312270D01*
X249286D01*
X249745Y311811D01*
Y310433D01*
Y311351D02*
X250663Y312270D01*
X247908Y313188D02*
Y315025D01*
X248367D01*
X250204Y313188D01*
X250663D01*
X248367Y315943D02*
X247908Y316402D01*
Y317321D01*
X248367Y317780D01*
X248827D01*
X249286Y317321D01*
X249745Y317780D01*
X250204D01*
X250663Y317321D01*
Y316402D01*
X250204Y315943D01*
X249745D01*
X249286Y316402D01*
X248827Y315943D01*
X248367D01*
X249286Y316402D02*
Y317321D01*
X273351Y310433D02*
X270596D01*
Y311811D01*
X271055Y312270D01*
X271974D01*
X272433Y311811D01*
Y310433D01*
Y311351D02*
X273351Y312270D01*
X270596Y313188D02*
Y315025D01*
X271055D01*
X272892Y313188D01*
X273351D01*
X270596Y315943D02*
Y317780D01*
X271055D01*
X272892Y315943D01*
X273351D01*
X239333Y310433D02*
X236578D01*
Y311811D01*
X237037Y312270D01*
X237956D01*
X238415Y311811D01*
Y310433D01*
Y311351D02*
X239333Y312270D01*
X236578Y313188D02*
Y315025D01*
X237037D01*
X238874Y313188D01*
X239333D01*
X236578Y317780D02*
X237037Y316861D01*
X237956Y315943D01*
X238874D01*
X239333Y316402D01*
Y317321D01*
X238874Y317780D01*
X238415D01*
X237956Y317321D01*
Y315943D01*
X256473Y310433D02*
X253718D01*
Y311811D01*
X254177Y312270D01*
X255095D01*
X255555Y311811D01*
Y310433D01*
Y311351D02*
X256473Y312270D01*
X253718Y313188D02*
Y315025D01*
X254177D01*
X256014Y313188D01*
X256473D01*
X253718Y317780D02*
Y315943D01*
X255095D01*
X254636Y316861D01*
Y317321D01*
X255095Y317780D01*
X256014D01*
X256473Y317321D01*
Y316402D01*
X256014Y315943D01*
X470604Y292323D02*
Y295078D01*
X471523Y294160D01*
X472441Y295078D01*
Y292323D01*
X473359D02*
X474278D01*
X473818D01*
Y295078D01*
X473359Y294619D01*
X97572Y313123D02*
X97113Y313582D01*
X96195D01*
X95736Y313123D01*
Y312664D01*
X96195Y312205D01*
X97113D01*
X97572Y311746D01*
Y311286D01*
X97113Y310827D01*
X96195D01*
X95736Y311286D01*
X100327Y313582D02*
X98491D01*
Y312205D01*
X99409Y312664D01*
X99868D01*
X100327Y312205D01*
Y311286D01*
X99868Y310827D01*
X98950D01*
X98491Y311286D01*
X263635Y98758D02*
Y101513D01*
X264553Y100595D01*
X265471Y101513D01*
Y98758D01*
X266390Y101513D02*
Y98758D01*
Y99677D01*
X268226Y101513D01*
X266849Y100136D01*
X268226Y98758D01*
X269145D02*
X270063D01*
X269604D01*
Y101513D01*
X269145Y101054D01*
X485761Y219422D02*
X485302Y219881D01*
X484384D01*
X483925Y219422D01*
Y218963D01*
X484384Y218504D01*
X485302D01*
X485761Y218045D01*
Y217586D01*
X485302Y217126D01*
X484384D01*
X483925Y217586D01*
X488516Y217126D02*
X486680D01*
X488516Y218963D01*
Y219422D01*
X488057Y219881D01*
X487139D01*
X486680Y219422D01*
X15027Y297834D02*
Y295079D01*
X16405D01*
X16864Y295538D01*
Y297375D01*
X16405Y297834D01*
X15027D01*
X19160Y295079D02*
Y297834D01*
X17782Y296457D01*
X19619D01*
X126900Y108697D02*
X126441Y109156D01*
X125523D01*
X125064Y108697D01*
Y108238D01*
X125523Y107778D01*
X126441D01*
X126900Y107319D01*
Y106860D01*
X126441Y106401D01*
X125523D01*
X125064Y106860D01*
X129196Y106401D02*
Y109156D01*
X127819Y107778D01*
X129656D01*
X374901Y108697D02*
X374441Y109156D01*
X373523D01*
X373064Y108697D01*
Y108238D01*
X373523Y107778D01*
X374441D01*
X374901Y107319D01*
Y106860D01*
X374441Y106401D01*
X373523D01*
X373064Y106860D01*
X375819Y108697D02*
X376278Y109156D01*
X377196D01*
X377656Y108697D01*
Y108238D01*
X377196Y107778D01*
X376737D01*
X377196D01*
X377656Y107319D01*
Y106860D01*
X377196Y106401D01*
X376278D01*
X375819Y106860D01*
X307335Y148913D02*
Y146158D01*
X308712D01*
X309171Y146617D01*
Y148454D01*
X308712Y148913D01*
X307335D01*
X311926Y148454D02*
X311467Y148913D01*
X310549D01*
X310090Y148454D01*
Y147995D01*
X310549Y147536D01*
X311467D01*
X311926Y147077D01*
Y146617D01*
X311467Y146158D01*
X310549D01*
X310090Y146617D01*
X312845Y146158D02*
X313763D01*
X313304D01*
Y148913D01*
X312845Y148454D01*
X505804Y295377D02*
Y292622D01*
X507182D01*
X507641Y293082D01*
Y294918D01*
X507182Y295377D01*
X505804D01*
X510396D02*
X508559D01*
Y294000D01*
X509478Y294459D01*
X509937D01*
X510396Y294000D01*
Y293082D01*
X509937Y292622D01*
X509018D01*
X508559Y293082D01*
X111155Y-63649D02*
X110696Y-63189D01*
X109778D01*
X109319Y-63649D01*
Y-65485D01*
X109778Y-65944D01*
X110696D01*
X111155Y-65485D01*
X113910Y-63189D02*
X112992Y-63649D01*
X112074Y-64567D01*
Y-65485D01*
X112533Y-65944D01*
X113451D01*
X113910Y-65485D01*
Y-65026D01*
X113451Y-64567D01*
X112074D01*
X114829Y-63649D02*
X115288Y-63189D01*
X116206D01*
X116665Y-63649D01*
Y-64108D01*
X116206Y-64567D01*
X115747D01*
X116206D01*
X116665Y-65026D01*
Y-65485D01*
X116206Y-65944D01*
X115288D01*
X114829Y-65485D01*
D12*
X294835Y78246D02*
G03*
X294835Y85726I0J3740D01*
G01*
X268063D02*
G03*
X268063Y78246I0J-3740D01*
G01*
X502737Y284625D02*
Y289546D01*
X513749Y284625D02*
Y289546D01*
X501851Y284625D02*
X513749D01*
X501851D02*
Y289546D01*
X513749D01*
X287032Y85726D02*
X294905D01*
X268063Y78246D02*
X275937D01*
X268063Y85726D02*
X275937D01*
X287008Y78246D02*
X294882D01*
X8980Y292854D02*
X20878D01*
X8980Y287933D02*
Y292854D01*
Y287933D02*
X20878D01*
Y292854D01*
X9866Y287933D02*
Y292854D01*
D13*
X124399Y152586D02*
Y294586D01*
X438399Y152586D02*
Y294586D01*
X124399D02*
X438399D01*
X124399Y152586D02*
X438399D01*
X491123Y213743D02*
X525473D01*
X491123Y233330D02*
X525473D01*
Y213743D02*
Y233330D01*
X491123Y213743D02*
Y233330D01*
X503797Y258185D02*
X509701D01*
X507733D01*
X503797Y262121D01*
X506749Y259169D01*
X509701Y262121D01*
D14*
X296804Y94277D02*
X304676D01*
X300740Y98213D02*
Y90341D01*
D15*
X502294Y287086D02*
D03*
X9423Y290394D02*
D03*
M02*
