G04*
G04 #@! TF.GenerationSoftware,Altium Limited,Altium Designer,26.2.0 (7)*
G04*
G04 Layer_Color=8388736*
%FSLAX25Y25*%
%MOIN*%
G70*
G04*
G04 #@! TF.SameCoordinates,A40123F2-DC2A-4F17-A694-4FDFCE3B6D11*
G04*
G04*
G04 #@! TF.FilePolarity,Negative*
G04*
G01*
G75*
%ADD20R,0.03950X0.03950*%
%ADD21R,0.06902X0.13398*%
%ADD22R,0.04737X0.04343*%
%ADD23R,0.04540X0.04737*%
%ADD24C,0.06784*%
%ADD25C,0.04800*%
%ADD26O,0.11824X0.06784*%
%ADD27C,0.13600*%
%ADD28C,0.06706*%
%ADD29O,0.07887X0.11036*%
%ADD30C,0.05918*%
%ADD31R,0.06706X0.06706*%
%ADD32O,0.07887X0.16548*%
%ADD33C,0.08674*%
%ADD34O,0.07099X0.16548*%
%ADD35C,0.07887*%
%ADD36C,0.05524*%
%ADD37C,0.13650*%
%ADD38R,0.07887X0.07887*%
%ADD39R,0.09461X0.18517*%
%ADD40R,0.07887X0.05131*%
%ADD41R,0.05131X0.07887*%
%ADD42C,0.04737*%
%ADD43C,0.12611*%
G04:AMPARAMS|DCode=44|XSize=118.24mil|YSize=68mil|CornerRadius=19mil|HoleSize=0mil|Usage=FLASHONLY|Rotation=90.000|XOffset=0mil|YOffset=0mil|HoleType=Round|Shape=RoundedRectangle|*
%AMROUNDEDRECTD44*
21,1,0.11824,0.03000,0,0,90.0*
21,1,0.08024,0.06800,0,0,90.0*
1,1,0.03800,0.01500,0.04012*
1,1,0.03800,0.01500,-0.04012*
1,1,0.03800,-0.01500,-0.04012*
1,1,0.03800,-0.01500,0.04012*
%
%ADD44ROUNDEDRECTD44*%
%ADD45R,0.06706X0.06706*%
%ADD46C,0.09461*%
G04:AMPARAMS|DCode=47|XSize=141.86mil|YSize=74.93mil|CornerRadius=20.73mil|HoleSize=0mil|Usage=FLASHONLY|Rotation=180.000|XOffset=0mil|YOffset=0mil|HoleType=Round|Shape=RoundedRectangle|*
%AMROUNDEDRECTD47*
21,1,0.14186,0.03347,0,0,180.0*
21,1,0.10039,0.07493,0,0,180.0*
1,1,0.04146,-0.05020,0.01673*
1,1,0.04146,0.05020,0.01673*
1,1,0.04146,0.05020,-0.01673*
1,1,0.04146,-0.05020,-0.01673*
%
%ADD47ROUNDEDRECTD47*%
%ADD48C,0.07099*%
%ADD49C,0.04700*%
%ADD50C,0.24422*%
G36*
X295048Y85342D02*
X295068Y85340D01*
X295074Y85340D01*
X295079Y85339D01*
X295544Y85272D01*
X295550Y85271D01*
X295555Y85271D01*
X295575Y85266D01*
X295595Y85261D01*
X295601Y85260D01*
X295606Y85258D01*
X296054Y85119D01*
X296060Y85117D01*
X296065Y85115D01*
X296084Y85108D01*
X296103Y85100D01*
X296108Y85097D01*
X296113Y85095D01*
X296534Y84887D01*
X296539Y84884D01*
X296544Y84882D01*
X296562Y84871D01*
X296580Y84861D01*
X296584Y84857D01*
X296589Y84854D01*
X296971Y84582D01*
X296975Y84578D01*
X296980Y84575D01*
X296996Y84562D01*
X297012Y84549D01*
X297016Y84545D01*
X297020Y84541D01*
X297355Y84212D01*
X297358Y84207D01*
X297362Y84204D01*
X297376Y84188D01*
X297390Y84172D01*
X297393Y84168D01*
X297396Y84164D01*
X297675Y83785D01*
X297678Y83781D01*
X297681Y83776D01*
X297692Y83759D01*
X297703Y83741D01*
X297705Y83736D01*
X297708Y83732D01*
X297923Y83314D01*
X297925Y83309D01*
X297928Y83304D01*
X297936Y83285D01*
X297944Y83266D01*
X297946Y83261D01*
X297948Y83255D01*
X298094Y82809D01*
X298096Y82804D01*
X298098Y82799D01*
X298102Y82779D01*
X298108Y82759D01*
X298108Y82753D01*
X298109Y82748D01*
X298184Y82284D01*
X298184Y82278D01*
X298185Y82273D01*
X298187Y82252D01*
X298188Y82232D01*
X298188Y82226D01*
X298189Y82221D01*
Y81751D01*
X298188Y81745D01*
X298188Y81740D01*
X298187Y81719D01*
X298185Y81699D01*
X298184Y81693D01*
X298184Y81688D01*
X298109Y81224D01*
X298108Y81219D01*
X298108Y81213D01*
X298102Y81193D01*
X298098Y81173D01*
X298096Y81168D01*
X298094Y81162D01*
X297948Y80716D01*
X297946Y80711D01*
X297944Y80706D01*
X297936Y80687D01*
X297928Y80668D01*
X297925Y80663D01*
X297923Y80658D01*
X297708Y80240D01*
X297705Y80235D01*
X297703Y80230D01*
X297692Y80213D01*
X297681Y80195D01*
X297678Y80191D01*
X297675Y80186D01*
X297396Y79808D01*
X297393Y79804D01*
X297390Y79799D01*
X297376Y79784D01*
X297362Y79768D01*
X297358Y79764D01*
X297355Y79760D01*
X297020Y79431D01*
X297016Y79427D01*
X297012Y79423D01*
X296996Y79410D01*
X296980Y79396D01*
X296976Y79393D01*
X296971Y79390D01*
X296589Y79117D01*
X296584Y79115D01*
X296580Y79111D01*
X296562Y79101D01*
X296544Y79090D01*
X296539Y79088D01*
X296534Y79085D01*
X296113Y78876D01*
X296108Y78874D01*
X296103Y78872D01*
X296084Y78864D01*
X296065Y78856D01*
X296060Y78855D01*
X296054Y78853D01*
X295606Y78713D01*
X295601Y78712D01*
X295595Y78710D01*
X295575Y78706D01*
X295555Y78701D01*
X295550Y78701D01*
X295544Y78699D01*
X295079Y78632D01*
X295074Y78632D01*
X295068Y78631D01*
X295048Y78630D01*
X295027Y78628D01*
X295021Y78629D01*
X295016Y78628D01*
X294784Y78632D01*
X286961D01*
X286908Y78636D01*
X286857Y78646D01*
X286807Y78663D01*
X286760Y78686D01*
X286717Y78715D01*
X286677Y78750D01*
X286643Y78789D01*
X286613Y78833D01*
X286590Y78880D01*
X286573Y78929D01*
X286563Y78981D01*
X286560Y79033D01*
Y84939D01*
X286563Y84991D01*
X286573Y85042D01*
X286590Y85092D01*
X286613Y85139D01*
X286643Y85183D01*
X286677Y85222D01*
X286717Y85257D01*
X286760Y85286D01*
X286807Y85309D01*
X286857Y85326D01*
X286908Y85336D01*
X286961Y85339D01*
X294784D01*
X295016Y85343D01*
X295021Y85343D01*
X295027Y85343D01*
X295048Y85342D01*
D02*
G37*
G36*
X275989Y85336D02*
X276041Y85326D01*
X276090Y85309D01*
X276137Y85286D01*
X276181Y85257D01*
X276220Y85222D01*
X276255Y85183D01*
X276284Y85139D01*
X276307Y85092D01*
X276324Y85042D01*
X276334Y84991D01*
X276338Y84939D01*
Y79033D01*
X276334Y78981D01*
X276324Y78929D01*
X276307Y78880D01*
X276284Y78833D01*
X276255Y78789D01*
X276220Y78750D01*
X276181Y78715D01*
X276137Y78686D01*
X276090Y78663D01*
X276041Y78646D01*
X275989Y78636D01*
X275937Y78632D01*
X267831D01*
X267825Y78633D01*
X267820Y78632D01*
X267799Y78634D01*
X267778Y78636D01*
X267773Y78637D01*
X267768Y78637D01*
X267309Y78710D01*
X267304Y78711D01*
X267299Y78712D01*
X267278Y78717D01*
X267258Y78721D01*
X267253Y78723D01*
X267248Y78724D01*
X266806Y78868D01*
X266801Y78870D01*
X266796Y78872D01*
X266776Y78880D01*
X266757Y78888D01*
X266752Y78890D01*
X266747Y78892D01*
X266333Y79103D01*
X266329Y79106D01*
X266324Y79108D01*
X266306Y79119D01*
X266288Y79130D01*
X266284Y79133D01*
X266280Y79136D01*
X265904Y79409D01*
X265900Y79413D01*
X265895Y79416D01*
X265880Y79429D01*
X265863Y79443D01*
X265860Y79447D01*
X265856Y79450D01*
X265527Y79779D01*
X265524Y79783D01*
X265520Y79786D01*
X265507Y79802D01*
X265493Y79818D01*
X265490Y79823D01*
X265487Y79827D01*
X265213Y80203D01*
X265211Y80207D01*
X265207Y80211D01*
X265196Y80229D01*
X265185Y80247D01*
X265183Y80252D01*
X265180Y80256D01*
X264969Y80670D01*
X264967Y80675D01*
X264965Y80680D01*
X264957Y80699D01*
X264949Y80719D01*
X264947Y80724D01*
X264945Y80729D01*
X264802Y81170D01*
X264800Y81176D01*
X264799Y81181D01*
X264794Y81201D01*
X264789Y81221D01*
X264788Y81227D01*
X264787Y81232D01*
X264714Y81691D01*
X264714Y81696D01*
X264713Y81701D01*
X264711Y81722D01*
X264709Y81743D01*
X264710Y81748D01*
X264709Y81753D01*
Y82218D01*
X264710Y82223D01*
X264709Y82229D01*
X264711Y82249D01*
X264713Y82270D01*
X264714Y82276D01*
X264714Y82281D01*
X264787Y82740D01*
X264788Y82745D01*
X264789Y82750D01*
X264794Y82771D01*
X264799Y82791D01*
X264800Y82796D01*
X264802Y82801D01*
X264945Y83243D01*
X264947Y83248D01*
X264949Y83253D01*
X264957Y83272D01*
X264965Y83292D01*
X264967Y83296D01*
X264969Y83301D01*
X265180Y83715D01*
X265183Y83720D01*
X265185Y83725D01*
X265196Y83742D01*
X265207Y83760D01*
X265211Y83765D01*
X265213Y83769D01*
X265487Y84145D01*
X265490Y84149D01*
X265493Y84153D01*
X265507Y84169D01*
X265520Y84185D01*
X265524Y84189D01*
X265527Y84193D01*
X265856Y84522D01*
X265860Y84525D01*
X265863Y84529D01*
X265880Y84542D01*
X265895Y84556D01*
X265900Y84559D01*
X265904Y84562D01*
X266280Y84836D01*
X266284Y84838D01*
X266288Y84842D01*
X266307Y84852D01*
X266324Y84864D01*
X266329Y84866D01*
X266333Y84868D01*
X266747Y85079D01*
X266752Y85081D01*
X266757Y85084D01*
X266776Y85092D01*
X266796Y85100D01*
X266801Y85101D01*
X266806Y85103D01*
X267248Y85247D01*
X267253Y85248D01*
X267258Y85250D01*
X267278Y85255D01*
X267299Y85260D01*
X267304Y85261D01*
X267309Y85262D01*
X267768Y85334D01*
X267773Y85335D01*
X267778Y85336D01*
X267799Y85337D01*
X267820Y85339D01*
X267825Y85339D01*
X267831Y85339D01*
X275937D01*
X275989Y85336D01*
D02*
G37*
D20*
X505198Y287086D02*
D03*
X511103D02*
D03*
X18233Y290394D02*
D03*
X12327D02*
D03*
D21*
X90065Y276834D02*
D03*
Y303606D02*
D03*
X105814Y276834D02*
D03*
Y303606D02*
D03*
D22*
X276772Y332087D02*
D03*
Y325394D02*
D03*
X324410Y332087D02*
D03*
Y325394D02*
D03*
X318898Y332087D02*
D03*
Y325394D02*
D03*
X243701Y332087D02*
D03*
Y325394D02*
D03*
X351969Y332087D02*
D03*
Y325394D02*
D03*
X249213Y332087D02*
D03*
Y325394D02*
D03*
X329921Y332087D02*
D03*
Y325394D02*
D03*
X271260Y332087D02*
D03*
Y325394D02*
D03*
X238189Y332087D02*
D03*
Y325394D02*
D03*
X313386Y332087D02*
D03*
Y325394D02*
D03*
X254724Y332087D02*
D03*
Y325394D02*
D03*
X346457Y332087D02*
D03*
Y325394D02*
D03*
X260236Y332087D02*
D03*
Y325394D02*
D03*
X265748Y332087D02*
D03*
Y325394D02*
D03*
X335433Y332087D02*
D03*
Y325394D02*
D03*
X340945Y332087D02*
D03*
Y325394D02*
D03*
X232677Y332087D02*
D03*
Y325394D02*
D03*
X307874Y332087D02*
D03*
Y325394D02*
D03*
D23*
X116142Y-70472D02*
D03*
X109843D02*
D03*
X304331Y298031D02*
D03*
X310630D02*
D03*
D24*
X519244Y241685D02*
D03*
X494158D02*
D03*
D25*
X525598Y208953D02*
D03*
X468905Y241685D02*
D03*
X525598Y274416D02*
D03*
D26*
X506701Y241685D02*
D03*
D27*
X133949Y283586D02*
D03*
Y163586D02*
D03*
X428949Y283586D02*
D03*
Y163586D02*
D03*
D28*
X390749Y285586D02*
D03*
X370749D02*
D03*
X360749D02*
D03*
X380749D02*
D03*
X162649D02*
D03*
X172649D02*
D03*
X312649D02*
D03*
X272649D02*
D03*
X262649D02*
D03*
X252649D02*
D03*
X242649D02*
D03*
X232649D02*
D03*
X222649D02*
D03*
X212649D02*
D03*
X202649D02*
D03*
X192649D02*
D03*
X182649D02*
D03*
X292649D02*
D03*
X282649D02*
D03*
X302649D02*
D03*
X414175Y-88638D02*
D03*
X406301D02*
D03*
X422049Y-80764D02*
D03*
X414175D02*
D03*
X406301D02*
D03*
D29*
X271634Y368512D02*
D03*
X232264D02*
D03*
X330634D02*
D03*
X291264D02*
D03*
D30*
X261791Y366150D02*
D03*
X242106D02*
D03*
X261791Y346465D02*
D03*
X242106D02*
D03*
X251949D02*
D03*
X232264D02*
D03*
X271634D02*
D03*
X596429Y257243D02*
D03*
Y267086D02*
D03*
Y286771D02*
D03*
Y247401D02*
D03*
X645641D02*
D03*
X635799D02*
D03*
Y286771D02*
D03*
X645641D02*
D03*
X596429Y276928D02*
D03*
X379791Y346466D02*
D03*
X360106D02*
D03*
X369949D02*
D03*
X350264D02*
D03*
X389634D02*
D03*
Y395678D02*
D03*
Y385836D02*
D03*
X350264D02*
D03*
Y395678D02*
D03*
X202791Y346466D02*
D03*
X183106D02*
D03*
X192949D02*
D03*
X173264D02*
D03*
X212634D02*
D03*
Y395678D02*
D03*
Y385836D02*
D03*
X173264D02*
D03*
Y395678D02*
D03*
X320791Y366150D02*
D03*
X301106D02*
D03*
X320791Y346465D02*
D03*
X301106D02*
D03*
X310949D02*
D03*
X291264D02*
D03*
X330634D02*
D03*
D31*
X251949Y385835D02*
D03*
X310949D02*
D03*
D32*
X271634Y390756D02*
D03*
X232264D02*
D03*
X330634D02*
D03*
X291264D02*
D03*
D33*
X276555Y360244D02*
D03*
X227343D02*
D03*
X334514Y-61900D02*
D03*
X378805Y-52057D02*
D03*
X373884Y-61900D02*
D03*
Y-81585D02*
D03*
X334514D02*
D03*
X329592Y-52057D02*
D03*
X270664Y-61900D02*
D03*
X314955Y-52057D02*
D03*
X310034Y-61900D02*
D03*
Y-81585D02*
D03*
X270664D02*
D03*
X265742Y-52057D02*
D03*
X335555Y360244D02*
D03*
X286343D02*
D03*
D34*
X260610Y389772D02*
D03*
X243287D02*
D03*
X319610D02*
D03*
X302287D02*
D03*
D35*
X251949Y366150D02*
D03*
X93499Y182586D02*
D03*
X73499D02*
D03*
X63499D02*
D03*
X83499D02*
D03*
X616114Y267086D02*
D03*
X577099Y42436D02*
D03*
X567099D02*
D03*
X557099D02*
D03*
X369949Y366151D02*
D03*
X515499Y42736D02*
D03*
X192949Y366151D02*
D03*
X310949Y366150D02*
D03*
X197799Y-63664D02*
D03*
X187799D02*
D03*
X207799Y-73664D02*
D03*
X197799D02*
D03*
X187799D02*
D03*
X207799Y-63664D02*
D03*
D36*
X498406Y229885D02*
D03*
X508249D02*
D03*
X518091D02*
D03*
X498406Y217287D02*
D03*
X508249D02*
D03*
X518091D02*
D03*
D37*
X25354Y197441D02*
D03*
D38*
X53499Y182586D02*
D03*
X587099Y42436D02*
D03*
X525499Y42736D02*
D03*
D39*
X362073Y-81585D02*
D03*
X346325D02*
D03*
X298223D02*
D03*
X282475D02*
D03*
D40*
X616114Y247401D02*
D03*
Y257243D02*
D03*
Y276928D02*
D03*
Y286771D02*
D03*
X369949Y385836D02*
D03*
X192949Y385836D02*
D03*
D41*
X635799Y267086D02*
D03*
X389634Y366151D02*
D03*
X379791D02*
D03*
X360106D02*
D03*
X350264D02*
D03*
X212634Y366151D02*
D03*
X202791D02*
D03*
X183106D02*
D03*
X173264D02*
D03*
D42*
X515499Y32736D02*
D03*
X525499D02*
D03*
D43*
X461633Y-81067D02*
D03*
D44*
X447066Y-85004D02*
D03*
X486042D02*
D03*
X448640Y-56264D02*
D03*
X462026D02*
D03*
X482499D02*
D03*
D45*
X422049Y-88638D02*
D03*
D46*
X433072Y-84701D02*
D03*
X395277D02*
D03*
D47*
X156449Y52545D02*
D03*
Y97427D02*
D03*
X406449D02*
D03*
Y52545D02*
D03*
D48*
X185976Y84828D02*
D03*
Y74986D02*
D03*
Y65143D02*
D03*
X128890Y84828D02*
D03*
Y65143D02*
D03*
X376921D02*
D03*
Y74986D02*
D03*
Y84828D02*
D03*
X434008Y65143D02*
D03*
Y84828D02*
D03*
D49*
X-72441Y129697D02*
D03*
Y137697D02*
D03*
X-52441Y133697D02*
D03*
D50*
X0Y0D02*
D03*
Y307087D02*
D03*
X562992D02*
D03*
Y0D02*
D03*
M02*
