G04*
G04 #@! TF.GenerationSoftware,Altium Limited,Altium Designer,26.2.0 (7)*
G04*
G04 Layer_Color=8421504*
%FSLAX25Y25*%
%MOIN*%
G70*
G04*
G04 #@! TF.SameCoordinates,A40123F2-DC2A-4F17-A694-4FDFCE3B6D11*
G04*
G04*
G04 #@! TF.FilePolarity,Positive*
G04*
G01*
G75*
%ADD16R,0.03150X0.03150*%
%ADD17R,0.06102X0.12598*%
%ADD18R,0.03937X0.03543*%
%ADD19R,0.03740X0.03937*%
D16*
X505198Y287086D02*
D03*
X511103D02*
D03*
X18233Y290394D02*
D03*
X12327D02*
D03*
D17*
X90065Y276834D02*
D03*
Y303606D02*
D03*
X105814Y276834D02*
D03*
Y303606D02*
D03*
D18*
X276772Y332087D02*
D03*
Y325394D02*
D03*
X324410Y332087D02*
D03*
Y325394D02*
D03*
X318898Y332087D02*
D03*
Y325394D02*
D03*
X243701Y332087D02*
D03*
Y325394D02*
D03*
X351969Y332087D02*
D03*
Y325394D02*
D03*
X249213Y332087D02*
D03*
Y325394D02*
D03*
X329921Y332087D02*
D03*
Y325394D02*
D03*
X271260Y332087D02*
D03*
Y325394D02*
D03*
X238189Y332087D02*
D03*
Y325394D02*
D03*
X313386Y332087D02*
D03*
Y325394D02*
D03*
X254724Y332087D02*
D03*
Y325394D02*
D03*
X346457Y332087D02*
D03*
Y325394D02*
D03*
X260236Y332087D02*
D03*
Y325394D02*
D03*
X265748Y332087D02*
D03*
Y325394D02*
D03*
X335433Y332087D02*
D03*
Y325394D02*
D03*
X340945Y332087D02*
D03*
Y325394D02*
D03*
X232677Y332087D02*
D03*
Y325394D02*
D03*
X307874Y332087D02*
D03*
Y325394D02*
D03*
D19*
X116142Y-70472D02*
D03*
X109843D02*
D03*
X304331Y298031D02*
D03*
X310630D02*
D03*
M02*
