G04*
G04 #@! TF.GenerationSoftware,Altium Limited,Altium Designer,26.2.0 (7)*
G04*
G04 Layer_Color=255*
%FSLAX25Y25*%
%MOIN*%
G70*
G04*
G04 #@! TF.SameCoordinates,A40123F2-DC2A-4F17-A694-4FDFCE3B6D11*
G04*
G04*
G04 #@! TF.FilePolarity,Positive*
G04*
G01*
G75*
%ADD16R,0.03150X0.03150*%
%ADD17R,0.06102X0.12598*%
%ADD18R,0.03937X0.03543*%
%ADD19R,0.03740X0.03937*%
%ADD55C,0.05984*%
%ADD56C,0.04000*%
%ADD57O,0.11024X0.05984*%
%ADD58C,0.12800*%
%ADD59C,0.05906*%
%ADD60O,0.07087X0.10236*%
%ADD61C,0.05118*%
%ADD62R,0.05906X0.05906*%
%ADD63O,0.07087X0.15748*%
%ADD64C,0.07874*%
%ADD65O,0.06299X0.15748*%
%ADD66C,0.07087*%
%ADD67C,0.04724*%
%ADD68C,0.12850*%
%ADD69R,0.07087X0.07087*%
%ADD70R,0.08661X0.17717*%
%ADD71R,0.07087X0.04331*%
%ADD72R,0.04331X0.07087*%
%ADD73C,0.03937*%
%ADD74C,0.11811*%
G04:AMPARAMS|DCode=75|XSize=110.24mil|YSize=60mil|CornerRadius=15mil|HoleSize=0mil|Usage=FLASHONLY|Rotation=90.000|XOffset=0mil|YOffset=0mil|HoleType=Round|Shape=RoundedRectangle|*
%AMROUNDEDRECTD75*
21,1,0.11024,0.03000,0,0,90.0*
21,1,0.08024,0.06000,0,0,90.0*
1,1,0.03000,0.01500,0.04012*
1,1,0.03000,0.01500,-0.04012*
1,1,0.03000,-0.01500,-0.04012*
1,1,0.03000,-0.01500,0.04012*
%
%ADD75ROUNDEDRECTD75*%
%ADD76R,0.05906X0.05906*%
%ADD77C,0.08661*%
G04:AMPARAMS|DCode=78|XSize=133.86mil|YSize=66.93mil|CornerRadius=16.73mil|HoleSize=0mil|Usage=FLASHONLY|Rotation=180.000|XOffset=0mil|YOffset=0mil|HoleType=Round|Shape=RoundedRectangle|*
%AMROUNDEDRECTD78*
21,1,0.13386,0.03347,0,0,180.0*
21,1,0.10039,0.06693,0,0,180.0*
1,1,0.03346,-0.05020,0.01673*
1,1,0.03346,0.05020,0.01673*
1,1,0.03346,0.05020,-0.01673*
1,1,0.03346,-0.05020,-0.01673*
%
%ADD78ROUNDEDRECTD78*%
%ADD79C,0.06299*%
%ADD80C,0.03900*%
%ADD81C,0.23622*%
G36*
G01X268063Y79033D02*
G02Y84939I0J2953D01*
G01X275937D01*
G01Y79033D01*
G01X268063D01*
D02*
G37*
G36*
G01X286961D02*
G01X294787D01*
G03Y84939I47J2953D01*
G01X286961D01*
G01Y79033D01*
D02*
G37*
D16*
X505198Y287086D02*
D03*
X511103D02*
D03*
X18233Y290394D02*
D03*
X12327D02*
D03*
D17*
X90065Y276834D02*
D03*
Y303606D02*
D03*
X105814Y276834D02*
D03*
Y303606D02*
D03*
D18*
X276772Y332087D02*
D03*
Y325394D02*
D03*
X324410Y332087D02*
D03*
Y325394D02*
D03*
X318898Y332087D02*
D03*
Y325394D02*
D03*
X243701Y332087D02*
D03*
Y325394D02*
D03*
X351969Y332087D02*
D03*
Y325394D02*
D03*
X249213Y332087D02*
D03*
Y325394D02*
D03*
X329921Y332087D02*
D03*
Y325394D02*
D03*
X271260Y332087D02*
D03*
Y325394D02*
D03*
X238189Y332087D02*
D03*
Y325394D02*
D03*
X313386Y332087D02*
D03*
Y325394D02*
D03*
X254724Y332087D02*
D03*
Y325394D02*
D03*
X346457Y332087D02*
D03*
Y325394D02*
D03*
X260236Y332087D02*
D03*
Y325394D02*
D03*
X265748Y332087D02*
D03*
Y325394D02*
D03*
X335433Y332087D02*
D03*
Y325394D02*
D03*
X340945Y332087D02*
D03*
Y325394D02*
D03*
X232677Y332087D02*
D03*
Y325394D02*
D03*
X307874Y332087D02*
D03*
Y325394D02*
D03*
D19*
X116142Y-70472D02*
D03*
X109843D02*
D03*
X304331Y298031D02*
D03*
X310630D02*
D03*
D55*
X519244Y241685D02*
D03*
X494158D02*
D03*
D56*
X525598Y208953D02*
D03*
X468905Y241685D02*
D03*
X525598Y274416D02*
D03*
D57*
X506701Y241685D02*
D03*
D58*
X133949Y283586D02*
D03*
Y163586D02*
D03*
X428949Y283586D02*
D03*
Y163586D02*
D03*
D59*
X390749Y285586D02*
D03*
X370749D02*
D03*
X360749D02*
D03*
X380749D02*
D03*
X162649D02*
D03*
X172649D02*
D03*
X312649D02*
D03*
X272649D02*
D03*
X262649D02*
D03*
X252649D02*
D03*
X242649D02*
D03*
X232649D02*
D03*
X222649D02*
D03*
X212649D02*
D03*
X202649D02*
D03*
X192649D02*
D03*
X182649D02*
D03*
X292649D02*
D03*
X282649D02*
D03*
X302649D02*
D03*
X414175Y-88638D02*
D03*
X406301D02*
D03*
X422049Y-80764D02*
D03*
X414175D02*
D03*
X406301D02*
D03*
D60*
X271634Y368512D02*
D03*
X232264D02*
D03*
X330634D02*
D03*
X291264D02*
D03*
D61*
X261791Y366150D02*
D03*
X242106D02*
D03*
X261791Y346465D02*
D03*
X242106D02*
D03*
X251949D02*
D03*
X232264D02*
D03*
X271634D02*
D03*
X596429Y257243D02*
D03*
Y267086D02*
D03*
Y286771D02*
D03*
Y247401D02*
D03*
X645641D02*
D03*
X635799D02*
D03*
Y286771D02*
D03*
X645641D02*
D03*
X596429Y276928D02*
D03*
X379791Y346466D02*
D03*
X360106D02*
D03*
X369949D02*
D03*
X350264D02*
D03*
X389634D02*
D03*
Y395678D02*
D03*
Y385836D02*
D03*
X350264D02*
D03*
Y395678D02*
D03*
X202791Y346466D02*
D03*
X183106D02*
D03*
X192949D02*
D03*
X173264D02*
D03*
X212634D02*
D03*
Y395678D02*
D03*
Y385836D02*
D03*
X173264D02*
D03*
Y395678D02*
D03*
X320791Y366150D02*
D03*
X301106D02*
D03*
X320791Y346465D02*
D03*
X301106D02*
D03*
X310949D02*
D03*
X291264D02*
D03*
X330634D02*
D03*
D62*
X251949Y385835D02*
D03*
X310949D02*
D03*
D63*
X271634Y390756D02*
D03*
X232264D02*
D03*
X330634D02*
D03*
X291264D02*
D03*
D64*
X276555Y360244D02*
D03*
X227343D02*
D03*
X334514Y-61900D02*
D03*
X378805Y-52057D02*
D03*
X373884Y-61900D02*
D03*
Y-81585D02*
D03*
X334514D02*
D03*
X329592Y-52057D02*
D03*
X270664Y-61900D02*
D03*
X314955Y-52057D02*
D03*
X310034Y-61900D02*
D03*
Y-81585D02*
D03*
X270664D02*
D03*
X265742Y-52057D02*
D03*
X335555Y360244D02*
D03*
X286343D02*
D03*
D65*
X260610Y389772D02*
D03*
X243287D02*
D03*
X319610D02*
D03*
X302287D02*
D03*
D66*
X251949Y366150D02*
D03*
X93499Y182586D02*
D03*
X73499D02*
D03*
X63499D02*
D03*
X83499D02*
D03*
X616114Y267086D02*
D03*
X577099Y42436D02*
D03*
X567099D02*
D03*
X557099D02*
D03*
X369949Y366151D02*
D03*
X515499Y42736D02*
D03*
X192949Y366151D02*
D03*
X310949Y366150D02*
D03*
X197799Y-63664D02*
D03*
X187799D02*
D03*
X207799Y-73664D02*
D03*
X197799D02*
D03*
X187799D02*
D03*
X207799Y-63664D02*
D03*
D67*
X498406Y229885D02*
D03*
X508249D02*
D03*
X518091D02*
D03*
X498406Y217287D02*
D03*
X508249D02*
D03*
X518091D02*
D03*
D68*
X25354Y197441D02*
D03*
D69*
X53499Y182586D02*
D03*
X587099Y42436D02*
D03*
X525499Y42736D02*
D03*
D70*
X362073Y-81585D02*
D03*
X346325D02*
D03*
X298223D02*
D03*
X282475D02*
D03*
D71*
X616114Y247401D02*
D03*
Y257243D02*
D03*
Y276928D02*
D03*
Y286771D02*
D03*
X369949Y385836D02*
D03*
X192949Y385836D02*
D03*
D72*
X635799Y267086D02*
D03*
X389634Y366151D02*
D03*
X379791D02*
D03*
X360106D02*
D03*
X350264D02*
D03*
X212634Y366151D02*
D03*
X202791D02*
D03*
X183106D02*
D03*
X173264D02*
D03*
D73*
X515499Y32736D02*
D03*
X525499D02*
D03*
D74*
X461633Y-81067D02*
D03*
D75*
X447066Y-85004D02*
D03*
X486042D02*
D03*
X448640Y-56264D02*
D03*
X462026D02*
D03*
X482499D02*
D03*
D76*
X422049Y-88638D02*
D03*
D77*
X433072Y-84701D02*
D03*
X395277D02*
D03*
D78*
X156449Y52545D02*
D03*
Y97427D02*
D03*
X406449D02*
D03*
Y52545D02*
D03*
D79*
X185976Y84828D02*
D03*
Y74986D02*
D03*
Y65143D02*
D03*
X128890Y84828D02*
D03*
Y65143D02*
D03*
X376921D02*
D03*
Y74986D02*
D03*
Y84828D02*
D03*
X434008Y65143D02*
D03*
Y84828D02*
D03*
D80*
X-72441Y129697D02*
D03*
Y137697D02*
D03*
X-52441Y133697D02*
D03*
D81*
X0Y0D02*
D03*
Y307087D02*
D03*
X562992D02*
D03*
Y0D02*
D03*
M02*
