G04*
G04 #@! TF.GenerationSoftware,Altium Limited,Altium Designer,26.2.0 (7)*
G04*
G04 Layer_Physical_Order=2*
G04 Layer_Color=32768*
%FSLAX25Y25*%
%MOIN*%
G70*
G04*
G04 #@! TF.SameCoordinates,A40123F2-DC2A-4F17-A694-4FDFCE3B6D11*
G04*
G04*
G04 #@! TF.FilePolarity,Negative*
G04*
G01*
G75*
%ADD13C,0.01000*%
%ADD87C,0.04000*%
%ADD88R,0.21754X0.90158*%
%ADD89C,0.04622*%
%ADD90C,0.13598*%
%AMTHOVALD91*
21,1,0.05433,0.07622,0,0,360.0*
1,1,0.07622,-0.02717,0.00000*
1,1,0.07622,0.02717,0.00000*
21,0,0.05433,0.05622,0,0,360.0*
1,0,0.05622,-0.02717,0.00000*
1,0,0.05622,0.02717,0.00000*
4,0,4,-0.02469,-0.00248,-0.05164,-0.02942,-0.05659,-0.02447,-0.02964,0.00248,-0.02469,-0.00248,0.0*
4,0,4,0.02964,-0.00248,0.05659,0.02447,0.05164,0.02942,0.02469,0.00248,0.02964,-0.00248,0.0*
4,0,4,-0.02964,-0.00248,-0.05659,0.02447,-0.05164,0.02942,-0.02469,0.00248,-0.02964,-0.00248,0.0*
4,0,4,0.02469,-0.00248,0.05164,-0.02942,0.05659,-0.02447,0.02964,0.00248,0.02469,-0.00248,0.0*
%
%ADD91THOVALD91*%

%ADD92C,0.10800*%
%ADD93C,0.05331*%
G04:AMPARAMS|DCode=94|XSize=83.307mil|YSize=83.307mil|CornerRadius=0mil|HoleSize=0mil|Usage=FLASHONLY|Rotation=0.000|XOffset=0mil|YOffset=0mil|HoleType=Round|Shape=Relief|Width=7mil|Gap=10mil|Entries=4|*
%AMTHD94*
7,0,0,0.08331,0.06331,0.00700,45*
%
%ADD94THD94*%
%ADD95O,0.06906X0.10843*%
%ADD96C,0.04937*%
%AMTHOVALD97*
21,1,0.02756,0.07150,0,0,180.0*
1,1,0.07150,0.01378,0.00000*
1,1,0.07150,-0.01378,0.00000*
21,0,0.02756,0.05150,0,0,180.0*
1,0,0.05150,0.01378,0.00000*
1,0,0.05150,-0.01378,0.00000*
4,0,4,0.01131,0.00248,0.03658,0.02775,0.04153,0.02280,0.01625,-0.00248,0.01131,0.00248,0.0*
4,0,4,-0.01625,0.00248,-0.04153,-0.02280,-0.03658,-0.02775,-0.01131,-0.00248,-0.01625,0.00248,0.0*
4,0,4,0.01625,0.00248,0.04153,-0.02280,0.03658,-0.02775,0.01131,-0.00248,0.01625,0.00248,0.0*
4,0,4,-0.01131,0.00248,-0.03658,0.02775,-0.04153,0.02280,-0.01625,-0.00248,-0.01131,0.00248,0.0*
%
%ADD97THOVALD97*%

%AMTHOVALD98*
21,1,0.03937,0.09906,0,0,270.0*
1,1,0.09906,0.00000,0.01968*
1,1,0.09906,0.00000,-0.01968*
21,0,0.03937,0.07906,0,0,270.0*
1,0,0.07906,0.00000,0.01968*
1,0,0.07906,0.00000,-0.01968*
4,0,4,-0.00248,0.01721,-0.03750,0.05223,-0.03255,0.05718,0.00248,0.02216,-0.00248,0.01721,0.0*
4,0,4,-0.00248,-0.02216,0.03255,-0.05718,0.03750,-0.05223,0.00248,-0.01721,-0.00248,-0.02216,0.0*
4,0,4,-0.00248,0.02216,0.03255,0.05718,0.03750,0.05223,0.00248,0.01721,-0.00248,0.02216,0.0*
4,0,4,-0.00248,-0.01721,-0.03750,-0.05223,-0.03255,-0.05718,0.00248,-0.02216,-0.00248,-0.01721,0.0*
%
%ADD98THOVALD98*%

%ADD99O,0.06906X0.15567*%
%ADD100C,0.06906*%
%ADD101O,0.07299X0.16748*%
%AMTHOVALD102*
21,1,0.08661,0.09906,0,0,270.0*
1,1,0.09906,0.00000,0.04331*
1,1,0.09906,0.00000,-0.04331*
21,0,0.08661,0.07906,0,0,270.0*
1,0,0.07906,0.00000,0.04331*
1,0,0.07906,0.00000,-0.04331*
4,0,4,-0.00248,0.04083,-0.03750,0.07585,-0.03255,0.08080,0.00248,0.04578,-0.00248,0.04083,0.0*
4,0,4,-0.00248,-0.04578,0.03255,-0.08080,0.03750,-0.07585,0.00248,-0.04083,-0.00248,-0.04578,0.0*
4,0,4,-0.00248,0.04578,0.03255,0.08080,0.03750,0.07585,0.00248,0.04083,-0.00248,0.04578,0.0*
4,0,4,-0.00248,-0.04083,-0.03750,-0.07585,-0.03255,-0.08080,0.00248,-0.04578,-0.00248,-0.04083,0.0*
%
%ADD102THOVALD102*%

%ADD103C,0.05724*%
%ADD104C,0.04150*%
G04:AMPARAMS|DCode=105|XSize=71.496mil|YSize=71.496mil|CornerRadius=0mil|HoleSize=0mil|Usage=FLASHONLY|Rotation=0.000|XOffset=0mil|YOffset=0mil|HoleType=Round|Shape=Relief|Width=7mil|Gap=10mil|Entries=4|*
%AMTHD105*
7,0,0,0.07150,0.05150,0.00700,45*
%
%ADD105THD105*%
%ADD106C,0.13850*%
G04:AMPARAMS|DCode=107|XSize=85.276mil|YSize=85.276mil|CornerRadius=0mil|HoleSize=0mil|Usage=FLASHONLY|Rotation=0.000|XOffset=0mil|YOffset=0mil|HoleType=Round|Shape=Relief|Width=7mil|Gap=10mil|Entries=4|*
%AMTHD107*
7,0,0,0.08528,0.06528,0.00700,45*
%
%ADD107THD107*%
%ADD108C,0.05528*%
%ADD109O,0.08874X0.16748*%
%ADD110O,0.06906X0.04150*%
G04:AMPARAMS|DCode=111|XSize=79.37mil|YSize=79.37mil|CornerRadius=0mil|HoleSize=0mil|Usage=FLASHONLY|Rotation=0.000|XOffset=0mil|YOffset=0mil|HoleType=Round|Shape=Relief|Width=7mil|Gap=10mil|Entries=4|*
%AMTHD111*
7,0,0,0.07937,0.05937,0.00700,45*
%
%ADD111THD111*%
%AMTHOVALD112*
21,1,0.02756,0.07150,0,0,90.0*
1,1,0.07150,0.00000,-0.01378*
1,1,0.07150,0.00000,0.01378*
21,0,0.02756,0.05150,0,0,90.0*
1,0,0.05150,0.00000,-0.01378*
1,0,0.05150,0.00000,0.01378*
4,0,4,0.00248,-0.01131,0.02775,-0.03658,0.02280,-0.04153,-0.00248,-0.01625,0.00248,-0.01131,0.0*
4,0,4,0.00248,0.01625,-0.02280,0.04153,-0.02775,0.03658,-0.00248,0.01131,0.00248,0.01625,0.0*
4,0,4,0.00248,-0.01625,-0.02280,-0.04153,-0.02775,-0.03658,-0.00248,-0.01131,0.00248,-0.01625,0.0*
4,0,4,0.00248,0.01131,0.02775,0.03658,0.02280,0.04153,-0.00248,0.01625,0.00248,0.01131,0.0*
%
%ADD112THOVALD112*%

%ADD113O,0.04150X0.06906*%
%AMTHOVALD114*
21,1,0.02756,0.07150,0,0,270.0*
1,1,0.07150,0.00000,0.01378*
1,1,0.07150,0.00000,-0.01378*
21,0,0.02756,0.05150,0,0,270.0*
1,0,0.05150,0.00000,0.01378*
1,0,0.05150,0.00000,-0.01378*
4,0,4,-0.00248,0.01131,-0.02775,0.03658,-0.02280,0.04153,0.00248,0.01625,-0.00248,0.01131,0.0*
4,0,4,-0.00248,-0.01625,0.02280,-0.04153,0.02775,-0.03658,0.00248,-0.01131,-0.00248,-0.01625,0.0*
4,0,4,-0.00248,0.01625,0.02280,0.04153,0.02775,0.03658,0.00248,0.01131,-0.00248,0.01625,0.0*
4,0,4,-0.00248,-0.01131,-0.02775,-0.03658,-0.02280,-0.04153,0.00248,-0.01625,-0.00248,-0.01131,0.0*
%
%ADD114THOVALD114*%

%ADD115C,0.10449*%
%ADD116O,0.04937X0.10449*%
%ADD117O,0.04937X0.09661*%
%AMTHOVALD118*
21,1,0.04724,0.07937,0,0,90.0*
1,1,0.07937,0.00000,-0.02362*
1,1,0.07937,0.00000,0.02362*
21,0,0.04724,0.05937,0,0,90.0*
1,0,0.05937,0.00000,-0.02362*
1,0,0.05937,0.00000,0.02362*
4,0,4,0.00248,-0.02115,0.03054,-0.04921,0.02559,-0.05416,-0.00248,-0.02610,0.00248,-0.02115,0.0*
4,0,4,0.00248,0.02610,-0.02559,0.05416,-0.03054,0.04921,-0.00248,0.02115,0.00248,0.02610,0.0*
4,0,4,0.00248,-0.02610,-0.02559,-0.05416,-0.03054,-0.04921,-0.00248,-0.02115,0.00248,-0.02610,0.0*
4,0,4,0.00248,0.02115,0.03054,0.04921,0.02559,0.05416,-0.00248,0.02610,0.00248,0.02115,0.0*
%
%ADD118THOVALD118*%

%ADD119O,0.12811X0.06512*%
G04:AMPARAMS|DCode=120|XSize=87.244mil|YSize=87.244mil|CornerRadius=0mil|HoleSize=0mil|Usage=FLASHONLY|Rotation=0.000|XOffset=0mil|YOffset=0mil|HoleType=Round|Shape=Relief|Width=7mil|Gap=10mil|Entries=4|*
%AMTHD120*
7,0,0,0.08724,0.06724,0.00700,45*
%
%ADD120THD120*%
%ADD121C,0.04900*%
%ADD122C,0.10843*%
%ADD123C,0.01984*%
%ADD124C,0.02575*%
%ADD125C,0.03800*%
%ADD126C,0.02500*%
%ADD127C,0.05200*%
G36*
X418346Y278043D02*
X418937D01*
X420096Y277813D01*
X421188Y277360D01*
X422171Y276704D01*
X423006Y275868D01*
X423663Y274885D01*
X424116Y273793D01*
X424346Y272634D01*
Y272043D01*
X424346D01*
Y253178D01*
X441973Y237761D01*
X442450Y237344D01*
X443207Y236330D01*
X443737Y235181D01*
X444015Y233946D01*
X444023Y233313D01*
X444023Y233313D01*
X444243Y214103D01*
X444250Y213453D01*
X443986Y212180D01*
X443455Y210992D01*
X442683Y209946D01*
X442193Y209518D01*
X442193Y209518D01*
X424346Y193909D01*
X424346Y175043D01*
Y174452D01*
X424116Y173293D01*
X423663Y172201D01*
X423006Y171219D01*
X422171Y170383D01*
X421188Y169726D01*
X420096Y169274D01*
X418937Y169043D01*
X418346D01*
Y169043D01*
X144646Y169043D01*
X144055D01*
X142896Y169274D01*
X141804Y169726D01*
X140821Y170383D01*
X139986Y171219D01*
X139329Y172201D01*
X138877Y173293D01*
X138646Y174452D01*
Y175043D01*
X138646D01*
X138646Y272043D01*
Y272634D01*
X138877Y273793D01*
X139329Y274885D01*
X139986Y275868D01*
X140821Y276704D01*
X141804Y277360D01*
X142896Y277813D01*
X144055Y278043D01*
X144646D01*
Y278043D01*
X418346Y278043D01*
D02*
G37*
G36*
X286574Y104966D02*
X286856Y104685D01*
X287008Y104317D01*
Y104118D01*
Y42236D01*
Y42037D01*
X286856Y41670D01*
X286574Y41388D01*
X286207Y41236D01*
X276795D01*
X276428Y41388D01*
X276146Y41670D01*
X275994Y42037D01*
Y42236D01*
Y104118D01*
Y104317D01*
X276146Y104685D01*
X276428Y104966D01*
X276795Y105118D01*
X286207D01*
X286574Y104966D01*
D02*
G37*
D13*
X443399Y137887D02*
Y155036D01*
X618164Y284136D02*
X622576Y279724D01*
X613074Y163658D02*
Y218173D01*
X597002Y147586D02*
X613074Y163658D01*
X531240Y147586D02*
X597002D01*
X613074Y218173D02*
Y230119D01*
X622576Y279724D02*
X640650D01*
X613074Y230119D02*
X640650Y257696D01*
Y279724D01*
X590399Y284136D02*
X618164D01*
X584646Y198031D02*
X590399Y203785D01*
X492520Y69416D02*
Y116140D01*
Y69416D02*
X505850Y56086D01*
X531900Y30036D02*
Y56086D01*
X505850D02*
X531900D01*
Y30036D02*
X653543D01*
X443399Y155036D02*
Y185086D01*
X466863Y208550D01*
X496913D01*
X443399Y137786D02*
X521440Y137786D01*
X523622Y198031D02*
X584646D01*
X496913Y208550D02*
X513103D01*
X521440Y137786D02*
X531240Y147586D01*
X513103Y208550D02*
X523622Y198031D01*
X590399Y203785D02*
Y284136D01*
X582849Y115789D02*
Y126736D01*
X562849D02*
X582849D01*
X562849Y116140D02*
Y126736D01*
X548427Y116140D02*
X562849D01*
X492520D02*
X548427D01*
X653543Y30036D02*
Y119104D01*
X597749D02*
X653543D01*
X597749Y115789D02*
Y119104D01*
X582849Y115789D02*
X597749D01*
D87*
X286207Y105118D02*
X286574Y104966D01*
X286856Y104685D01*
X287008Y104317D01*
Y104118D02*
Y104317D01*
Y42236D02*
Y104118D01*
Y42037D02*
Y42236D01*
X286856Y41670D02*
X287008Y42037D01*
X286574Y41388D02*
X286856Y41670D01*
X286207Y41236D02*
X286574Y41388D01*
X276795Y41236D02*
X286207D01*
X276428Y41388D02*
X276795Y41236D01*
X276146Y41670D02*
X276428Y41388D01*
X275994Y42037D02*
X276146Y41670D01*
X275994Y42037D02*
Y42236D01*
Y104118D01*
Y104317D01*
X276146Y104685D01*
X276428Y104966D01*
X276795Y105118D01*
X286207D01*
X144646Y278043D02*
X418346Y278043D01*
X418937D01*
X420096Y277813D01*
X421188Y277360D01*
X422171Y276704D01*
X423006Y275868D01*
X423663Y274885D01*
X424116Y273793D01*
X424346Y272634D01*
Y272043D02*
Y272634D01*
Y272043D02*
X424346D01*
Y253178D02*
Y272043D01*
Y253178D02*
X441973Y237761D01*
X442450Y237344D01*
X443207Y236330D01*
X443737Y235181D01*
X444015Y233946D01*
X444023Y233313D01*
X444023Y233313D01*
X444243Y214103D01*
X444250Y213453D01*
X443986Y212180D02*
X444250Y213453D01*
X443455Y210992D02*
X443986Y212180D01*
X442683Y209946D02*
X443455Y210992D01*
X442193Y209518D02*
X442683Y209946D01*
X442193Y209518D02*
X442193Y209518D01*
X424346Y193909D02*
X442193Y209518D01*
X424346Y175043D02*
X424346Y193909D01*
X424346Y174452D02*
Y175043D01*
X424116Y173293D02*
X424346Y174452D01*
X423663Y172201D02*
X424116Y173293D01*
X423006Y171219D02*
X423663Y172201D01*
X422171Y170383D02*
X423006Y171219D01*
X421188Y169726D02*
X422171Y170383D01*
X420096Y169274D02*
X421188Y169726D01*
X418937Y169043D02*
X420096Y169274D01*
X418346Y169043D02*
X418937D01*
X418346Y169043D02*
Y169043D01*
X144646D02*
X418346Y169043D01*
X144055Y169043D02*
X144646D01*
X142896Y169274D02*
X144055Y169043D01*
X141804Y169726D02*
X142896Y169274D01*
X140821Y170383D02*
X141804Y169726D01*
X139986Y171219D02*
X140821Y170383D01*
X139329Y172201D02*
X139986Y171219D01*
X138877Y173293D02*
X139329Y172201D01*
X138646Y174452D02*
X138877Y173293D01*
X138646Y174452D02*
Y175043D01*
X138646D02*
X138646D01*
X138646D02*
X138646Y272043D01*
Y272634D01*
X138877Y273793D01*
X139329Y274885D01*
X139986Y275868D01*
X140821Y276704D01*
X141804Y277360D01*
X142896Y277813D01*
X144055Y278043D01*
X144646D01*
Y278043D01*
X495394Y399606D02*
X495399Y399336D01*
X67599Y399606D02*
X495394D01*
X67599Y398701D02*
X67599Y399606D01*
X67575Y398211D02*
X67599Y398701D01*
X67384Y397249D02*
X67575Y398211D01*
X67009Y396343D02*
X67384Y397249D01*
X66465Y395528D02*
X67009Y396343D01*
X65772Y394835D02*
X66465Y395528D01*
X64956Y394290D02*
X65772Y394835D01*
X64051Y393915D02*
X64956Y394290D01*
X63089Y393724D02*
X64051Y393915D01*
X62599Y393701D02*
X63089Y393724D01*
X-16654Y393701D02*
X62599Y393701D01*
X-17146Y393701D02*
X-16654Y393701D01*
X-18112Y393509D02*
X-17146Y393701D01*
X-19023Y393133D02*
X-18112Y393509D01*
X-19842Y392586D02*
X-19023Y393133D01*
X-20538Y391889D02*
X-19842Y392586D01*
X-21086Y391070D02*
X-20538Y391889D01*
X-21462Y390160D02*
X-21086Y391070D01*
X-21654Y389193D02*
X-21462Y390160D01*
X-21654Y389193D02*
X-21654Y388701D01*
Y342520D02*
Y388701D01*
X-21683Y341618D02*
X-21654Y342520D01*
X-21918Y339831D02*
X-21683Y341618D01*
X-22385Y338090D02*
X-21918Y339831D01*
X-23075Y336425D02*
X-22385Y338090D01*
X-23976Y334864D02*
X-23075Y336425D01*
X-25073Y333434D02*
X-23976Y334864D01*
X-26348Y332160D02*
X-25073Y333434D01*
X-27778Y331062D02*
X-26348Y332160D01*
X-29338Y330161D02*
X-27778Y331062D01*
X-31004Y329471D02*
X-29338Y330161D01*
X-32745Y329005D02*
X-31004Y329471D01*
X-34532Y328770D02*
X-32745Y329005D01*
X-35433Y328740D02*
X-34532Y328770D01*
X-85551Y328740D02*
X-35433Y328740D01*
X-86044Y328741D02*
X-85551Y328740D01*
X-87010Y328549D02*
X-86044Y328741D01*
X-87920Y328172D02*
X-87010Y328549D01*
X-88739Y327625D02*
X-87920Y328172D01*
X-89436Y326928D02*
X-88739Y327625D01*
X-89983Y326109D02*
X-89436Y326928D01*
X-90360Y325199D02*
X-89983Y326109D01*
X-90552Y324233D02*
X-90360Y325199D01*
X-90552Y324233D02*
X-90551Y323740D01*
X-90551Y-16654D01*
Y-17146D02*
Y-16654D01*
Y-17146D02*
X-90359Y-18112D01*
X-89982Y-19022D01*
X-89435Y-19841D01*
X-88739Y-20537D01*
X-87920Y-21084D01*
X-87010Y-21461D01*
X-86044Y-21654D01*
X-85551Y-21654D01*
X-35433Y-21654D01*
X-34532Y-21683D01*
X-32745Y-21918D01*
X-31004Y-22385D01*
X-29338Y-23075D01*
X-27778Y-23976D01*
X-26348Y-25073D01*
X-25073Y-26348D01*
X-23976Y-27778D01*
X-23075Y-29338D01*
X-22385Y-31004D01*
X-21918Y-32745D01*
X-21683Y-34532D01*
X-21654Y-35433D01*
X-21654Y-81614D02*
X-21654Y-35433D01*
X-21654Y-82107D02*
X-21654Y-81614D01*
X-21654Y-82107D02*
X-21462Y-83073D01*
X-21085Y-83983D01*
X-20538Y-84802D01*
X-19841Y-85498D01*
X-19023Y-86045D01*
X-18113Y-86422D01*
X-17147Y-86614D01*
X-16654Y-86614D01*
X59718Y-86614D01*
X60634Y-86644D01*
X62450Y-86883D01*
X64219Y-87357D01*
X65911Y-88058D01*
X67498Y-88974D01*
X68951Y-90089D01*
X70246Y-91384D01*
X71361Y-92838D01*
X72277Y-94424D01*
X72978Y-96116D01*
X73451Y-97885D01*
X73690Y-99701D01*
X73721Y-100617D01*
Y-102021D02*
Y-100617D01*
Y-102021D02*
X131863Y-102021D01*
X131889Y-101491D01*
X132096Y-100451D01*
X132501Y-99472D01*
X133090Y-98591D01*
X133840Y-97841D01*
X134721Y-97253D01*
X135700Y-96847D01*
X136740Y-96640D01*
X137270Y-96614D01*
X490891D01*
X491857Y-96422D01*
X492767Y-96045D01*
X493586Y-95498D01*
X494282Y-94802D01*
X494829Y-93983D01*
X495206Y-93073D01*
X495398Y-92107D01*
X495398Y-91615D01*
X495422Y-91125D01*
X495612Y-90163D01*
X495986Y-89258D01*
X496530Y-88443D01*
X497222Y-87749D01*
X498037Y-87205D01*
X498942Y-86829D01*
X499903Y-86638D01*
X500393Y-86614D01*
X579646Y-86614D01*
X580138Y-86614D01*
X581104Y-86422D01*
X582014Y-86045D01*
X582833Y-85498D01*
X583529Y-84802D01*
X584077Y-83983D01*
X584453Y-83073D01*
X584646Y-82107D01*
X584646Y-81614D01*
X584646Y-35433D02*
X584646Y-81614D01*
X584646Y-35433D02*
X584675Y-34532D01*
X584910Y-32745D01*
X585377Y-31004D01*
X586067Y-29338D01*
X586968Y-27778D01*
X588065Y-26348D01*
X589340Y-25073D01*
X590770Y-23976D01*
X592331Y-23075D01*
X593996Y-22385D01*
X595737Y-21918D01*
X597524Y-21683D01*
X598425Y-21654D01*
X648543D01*
X649036Y-21654D01*
X650002Y-21461D01*
X650912Y-21084D01*
X651731Y-20537D01*
X652427Y-19841D01*
X652974Y-19022D01*
X653351Y-18112D01*
X653543Y-17146D01*
X653543Y-16654D01*
X653543Y232737D02*
X653543Y-16654D01*
X653543Y232737D02*
X653544Y233213D01*
X653310Y234137D02*
X653544Y233213D01*
X652857Y234974D02*
X653310Y234137D01*
X652212Y235675D02*
X652857Y234974D01*
X651813Y235936D02*
X652212Y235675D01*
X651061Y236427D02*
X651813Y235936D01*
X650758Y236653D02*
X651061Y236427D01*
X650247Y237209D02*
X650758Y236653D01*
X649889Y237872D02*
X650247Y237209D01*
X649703Y238604D02*
X649889Y237872D01*
X649680Y238981D02*
X649703Y238604D01*
X649680Y323740D02*
X649680Y238981D01*
X649628Y324280D02*
X649680Y323740D01*
X649318Y325319D02*
X649628Y324280D01*
X648812Y326278D02*
X649318Y325319D01*
X648130Y327121D02*
X648812Y326278D01*
X647298Y327817D02*
X648130Y327121D01*
X646347Y328337D02*
X647298Y327817D01*
X645313Y328664D02*
X646347Y328337D01*
X644235Y328785D02*
X645313Y328664D01*
X643695Y328740D02*
X644235Y328785D01*
X598425Y328740D02*
X643695Y328740D01*
X597524Y328770D02*
X598425Y328740D01*
X595737Y329005D02*
X597524Y328770D01*
X593996Y329471D02*
X595737Y329005D01*
X592331Y330161D02*
X593996Y329471D01*
X590770Y331062D02*
X592331Y330161D01*
X589340Y332160D02*
X590770Y331062D01*
X588065Y333434D02*
X589340Y332160D01*
X586968Y334864D02*
X588065Y333434D01*
X586067Y336425D02*
X586968Y334864D01*
X585377Y338090D02*
X586067Y336425D01*
X584910Y339831D02*
X585377Y338090D01*
X584675Y341618D02*
X584910Y339831D01*
X584646Y342520D02*
X584675Y341618D01*
X584646Y389336D02*
X584646Y342520D01*
X584646Y389336D02*
X584646Y389828D01*
X584454Y390794D02*
X584646Y389828D01*
X584077Y391705D02*
X584454Y390794D01*
X583530Y392524D02*
X584077Y391705D01*
X582834Y393220D02*
X583530Y392524D01*
X582015Y393767D02*
X582834Y393220D01*
X581104Y394144D02*
X582015Y393767D01*
X580138Y394336D02*
X581104Y394144D01*
X579646Y394336D02*
X580138Y394336D01*
X500399Y394336D02*
X579646Y394336D01*
X499909Y394360D02*
X500399Y394336D01*
X498947Y394551D02*
X499909Y394360D01*
X498042Y394926D02*
X498947Y394551D01*
X497227Y395470D02*
X498042Y394926D01*
X496533Y396164D02*
X497227Y395470D01*
X495989Y396979D02*
X496533Y396164D01*
X495614Y397884D02*
X495989Y396979D01*
X495423Y398846D02*
X495614Y397884D01*
X495399Y399336D02*
X495423Y398846D01*
D88*
X-80070Y197441D02*
D03*
D89*
X519244Y241685D02*
D03*
X494158D02*
D03*
D90*
X525598Y208953D02*
D03*
X468905Y241685D02*
D03*
X525598Y274416D02*
D03*
D91*
X506701Y241685D02*
D03*
D92*
X133949Y283586D02*
D03*
Y163586D02*
D03*
X428949Y283586D02*
D03*
Y163586D02*
D03*
D93*
X390749Y285586D02*
D03*
X360749D02*
D03*
X380749D02*
D03*
X162649D02*
D03*
X172649D02*
D03*
X272649D02*
D03*
X262649D02*
D03*
X252649D02*
D03*
X242649D02*
D03*
X232649D02*
D03*
X222649D02*
D03*
X212649D02*
D03*
X202649D02*
D03*
X192649D02*
D03*
X182649D02*
D03*
X292649D02*
D03*
X282649D02*
D03*
X302649D02*
D03*
X587099Y42436D02*
D03*
X577099D02*
D03*
X567099D02*
D03*
X557099D02*
D03*
X515499Y32736D02*
D03*
X525499D02*
D03*
X515499Y42736D02*
D03*
D94*
X370749Y285586D02*
D03*
X312649D02*
D03*
X525499Y42736D02*
D03*
D95*
X271634Y368118D02*
D03*
X330634D02*
D03*
D96*
X261791Y366150D02*
D03*
X242106D02*
D03*
X261791Y346465D02*
D03*
X242106D02*
D03*
X251949D02*
D03*
X596429Y257243D02*
D03*
Y267086D02*
D03*
X379791Y346466D02*
D03*
X360106D02*
D03*
X369949D02*
D03*
X202791Y346466D02*
D03*
X183106D02*
D03*
X192949D02*
D03*
X320791Y366150D02*
D03*
X301106D02*
D03*
X320791Y346465D02*
D03*
X301106D02*
D03*
X310949D02*
D03*
D97*
X251949Y385835D02*
D03*
X369949Y385836D02*
D03*
X192949Y385836D02*
D03*
X310949Y385835D02*
D03*
D98*
X232264Y368118D02*
D03*
X291264D02*
D03*
D99*
X271634Y390756D02*
D03*
X330634D02*
D03*
D100*
X276555Y360244D02*
D03*
X227343D02*
D03*
X275937Y81986D02*
D03*
X286961D02*
D03*
X334514Y-61900D02*
D03*
X378805Y-52057D02*
D03*
X373884Y-61900D02*
D03*
Y-81585D02*
D03*
X334514D02*
D03*
X329592Y-52057D02*
D03*
X270664Y-61900D02*
D03*
X314955Y-52057D02*
D03*
X310034Y-61900D02*
D03*
Y-81585D02*
D03*
X270664D02*
D03*
X265742Y-52057D02*
D03*
X433072Y-84701D02*
D03*
X395277D02*
D03*
X335555Y360244D02*
D03*
X286343D02*
D03*
D101*
X260610Y389772D02*
D03*
X243287D02*
D03*
X319610D02*
D03*
X302287D02*
D03*
D102*
X232264Y390756D02*
D03*
X291264D02*
D03*
D103*
X251949Y366150D02*
D03*
X232264Y346465D02*
D03*
X271634D02*
D03*
X616114Y267086D02*
D03*
X596429Y286771D02*
D03*
Y247401D02*
D03*
X645641D02*
D03*
X635799D02*
D03*
Y286771D02*
D03*
X645641D02*
D03*
X369949Y366151D02*
D03*
X350264Y346466D02*
D03*
X389634D02*
D03*
Y395678D02*
D03*
Y385836D02*
D03*
X350264D02*
D03*
Y395678D02*
D03*
X192949Y366151D02*
D03*
X173264Y346466D02*
D03*
X212634D02*
D03*
Y395678D02*
D03*
Y385836D02*
D03*
X173264D02*
D03*
Y395678D02*
D03*
X185976Y84828D02*
D03*
Y65143D02*
D03*
X128890D02*
D03*
X376921D02*
D03*
Y84828D02*
D03*
X434008D02*
D03*
X310949Y366150D02*
D03*
X291264Y346465D02*
D03*
X330634D02*
D03*
X197799Y-63664D02*
D03*
X207799Y-73664D02*
D03*
X197799D02*
D03*
X187799D02*
D03*
X207799Y-63664D02*
D03*
D104*
X498406Y229885D02*
D03*
X508249D02*
D03*
X498406Y217287D02*
D03*
X508249D02*
D03*
X518091D02*
D03*
X422049Y-88638D02*
D03*
X414175D02*
D03*
X406301D02*
D03*
X422049Y-80764D02*
D03*
X414175D02*
D03*
X406301D02*
D03*
D105*
X518091Y229885D02*
D03*
D106*
X25354Y197441D02*
D03*
D107*
X93499Y182586D02*
D03*
D108*
X73499D02*
D03*
X63499D02*
D03*
X53499D02*
D03*
X83499D02*
D03*
D109*
X362073Y-81585D02*
D03*
X346325D02*
D03*
X298223D02*
D03*
X282475D02*
D03*
D110*
X616114Y247401D02*
D03*
Y257243D02*
D03*
Y276928D02*
D03*
Y286771D02*
D03*
D111*
X596429Y276928D02*
D03*
D112*
X635799Y267086D02*
D03*
D113*
X389634Y366151D02*
D03*
X379791D02*
D03*
X360106D02*
D03*
X212634Y366151D02*
D03*
X202791D02*
D03*
X183106D02*
D03*
D114*
X350264Y366151D02*
D03*
X173264Y366151D02*
D03*
D115*
X461633Y-81067D02*
D03*
D116*
X447066Y-85004D02*
D03*
X486042D02*
D03*
D117*
X448640Y-56264D02*
D03*
X462026D02*
D03*
D118*
X482499D02*
D03*
D119*
X156449Y52545D02*
D03*
Y97427D02*
D03*
X406449D02*
D03*
Y52545D02*
D03*
D120*
X185976Y74986D02*
D03*
X128890Y84828D02*
D03*
X376921Y74986D02*
D03*
X434008Y65143D02*
D03*
X187799Y-63664D02*
D03*
D121*
X-72441Y129697D02*
D03*
Y137697D02*
D03*
X-52441Y133697D02*
D03*
D122*
X0Y0D02*
D03*
Y307087D02*
D03*
X562992D02*
D03*
Y0D02*
D03*
D123*
X521260Y197638D02*
D03*
X492913Y185827D02*
D03*
X487402Y180709D02*
D03*
X479921Y171260D02*
D03*
X-47589Y167300D02*
D03*
X-49213Y169291D02*
D03*
X591339Y195276D02*
D03*
X555905Y194882D02*
D03*
X526378Y182283D02*
D03*
X520216Y171000D02*
D03*
X545715Y173136D02*
D03*
X606299Y238976D02*
D03*
X-81102Y82677D02*
D03*
X-57382Y126969D02*
D03*
X324410Y321260D02*
D03*
X318898D02*
D03*
X243701D02*
D03*
X249213D02*
D03*
X351969Y320866D02*
D03*
X276772D02*
D03*
X207087Y65354D02*
D03*
X207480Y84646D02*
D03*
X630709Y142520D02*
D03*
Y129921D02*
D03*
Y136221D02*
D03*
X-42460Y159449D02*
D03*
X17323Y130028D02*
D03*
X11417Y235417D02*
D03*
X-64961Y138976D02*
D03*
X17323Y143307D02*
D03*
X53543Y244882D02*
D03*
X33465Y227953D02*
D03*
X53937Y242020D02*
D03*
X17323Y132677D02*
D03*
Y127559D02*
D03*
X-50394Y185433D02*
D03*
X-28000Y225800D02*
D03*
X-28400Y222300D02*
D03*
X13700Y225900D02*
D03*
X-29039Y231167D02*
D03*
X-31400Y226000D02*
D03*
X18100Y218600D02*
D03*
X58300Y214600D02*
D03*
X20472Y220472D02*
D03*
X-20472Y201969D02*
D03*
X-32283Y202362D02*
D03*
X4331Y195669D02*
D03*
X-787Y193307D02*
D03*
X22441Y225984D02*
D03*
X-17717Y233087D02*
D03*
X81541Y262947D02*
D03*
X60236Y260630D02*
D03*
X88583Y352756D02*
D03*
X30315Y227953D02*
D03*
X-35478Y226817D02*
D03*
X-37795Y230709D02*
D03*
X-6693Y253150D02*
D03*
X496457Y163386D02*
D03*
X-57924Y172933D02*
D03*
X-62492Y123130D02*
D03*
X-39529Y172736D02*
D03*
X-46752Y189567D02*
D03*
X-66142Y189173D02*
D03*
X-57980Y270173D02*
D03*
X-55512Y270177D02*
D03*
X-55315Y172539D02*
D03*
X-52953Y270177D02*
D03*
X-50394D02*
D03*
X-39075Y300590D02*
D03*
X-53543Y168307D02*
D03*
X-51575Y174508D02*
D03*
X-40256Y154035D02*
D03*
X-44488Y156791D02*
D03*
X-62992Y186319D02*
D03*
X-28346Y138189D02*
D03*
X-34252Y131102D02*
D03*
X-31496Y134955D02*
D03*
X-32136Y147785D02*
D03*
X-48720Y205315D02*
D03*
Y202165D02*
D03*
Y196004D02*
D03*
Y192717D02*
D03*
Y199016D02*
D03*
D124*
X599213Y202756D02*
D03*
X239370Y-30315D02*
D03*
X28740Y-61417D02*
D03*
X592126Y155905D02*
D03*
X529232Y168799D02*
D03*
X607087Y167323D02*
D03*
X533836Y191316D02*
D03*
X453150Y170472D02*
D03*
X481102Y232168D02*
D03*
X471260Y229134D02*
D03*
X535986Y216686D02*
D03*
X530315Y194489D02*
D03*
X595276Y118504D02*
D03*
X352550Y64961D02*
D03*
Y77953D02*
D03*
X550000Y130709D02*
D03*
X584899Y137036D02*
D03*
X109055Y-76772D02*
D03*
X624803Y215354D02*
D03*
X442126Y34252D02*
D03*
X450760Y34471D02*
D03*
X442193Y40087D02*
D03*
X442093Y45987D02*
D03*
X226785Y-11455D02*
D03*
X546549Y124136D02*
D03*
X561649Y136446D02*
D03*
X108564Y-19083D02*
D03*
X30049Y-31364D02*
D03*
X46349Y-41264D02*
D03*
X45799Y-50964D02*
D03*
X45449Y-61264D02*
D03*
X439249Y117736D02*
D03*
X193663Y325447D02*
D03*
X126784Y351309D02*
D03*
X206693Y304840D02*
D03*
X106350Y64567D02*
D03*
X622047Y216929D02*
D03*
X617948Y212093D02*
D03*
X583071Y208268D02*
D03*
X599606Y206299D02*
D03*
X588583Y227165D02*
D03*
X603937Y217323D02*
D03*
X555512Y172835D02*
D03*
X41339Y123228D02*
D03*
X44488Y95669D02*
D03*
X12205Y159055D02*
D03*
X9843Y154331D02*
D03*
X14961Y152362D02*
D03*
X124080Y315370D02*
D03*
X193307Y312614D02*
D03*
X183858Y310236D02*
D03*
X38583Y200000D02*
D03*
X70079Y307087D02*
D03*
X29971Y290271D02*
D03*
X13386Y-42126D02*
D03*
X72266Y332306D02*
D03*
X612598Y90158D02*
D03*
X592949Y239286D02*
D03*
X370245Y-50664D02*
D03*
X263189Y-25098D02*
D03*
X277899Y-49064D02*
D03*
X293899Y-17714D02*
D03*
X316849Y-14964D02*
D03*
X256988Y-27953D02*
D03*
Y-22736D02*
D03*
X217815Y-9646D02*
D03*
X217835Y3503D02*
D03*
X200967Y10984D02*
D03*
X194510Y17686D02*
D03*
X194500Y-12600D02*
D03*
X55550Y309600D02*
D03*
X15427Y-50314D02*
D03*
X457449Y215136D02*
D03*
X200750Y-9400D02*
D03*
X452697Y225783D02*
D03*
X37849Y-25514D02*
D03*
X584399Y243436D02*
D03*
X440399Y170242D02*
D03*
X596067Y171527D02*
D03*
X577149Y243286D02*
D03*
X563300Y219250D02*
D03*
X106900Y312208D02*
D03*
X527849Y157436D02*
D03*
X549869Y193656D02*
D03*
X536049Y181686D02*
D03*
X516599Y287086D02*
D03*
X609049Y223068D02*
D03*
X566949Y197836D02*
D03*
X584349Y183636D02*
D03*
X327399Y-44364D02*
D03*
X254349Y25736D02*
D03*
X366299Y-50364D02*
D03*
X356199Y-60914D02*
D03*
X569599Y186286D02*
D03*
X285149Y120286D02*
D03*
D125*
X77500Y304900D02*
D03*
D126*
X-21654Y189567D02*
D03*
D127*
X529134Y72835D02*
D03*
X466455Y-14173D02*
D03*
X503463D02*
D03*
M02*
