M48
;Layer_Color=9474304
;FILE_FORMAT=2:5
INCH,TZ
;TYPE=PLATED
T07F00S00C0.03150
T09F00S00C0.03622
T11F00S00C0.03937
T16F00S00C0.05512
T18F00S00C0.05906
;TYPE=NON_PLATED
T23F00S00C0.06299
T24F00S00C0.07874
%
G90
G05
T07
G00X617492Y247401
M15
G01X614736
M16
G00X617492Y257243
M15
G01X614736
M16
G00X617492Y276928
M15
G01X614736
M16
G00X617492Y286771
M15
G01X614736
M16
G00X635799Y265708
M15
G01Y268464
M16
G00X389634Y367529
M15
G01Y364773
M16
G00X379791Y367529
M15
G01Y364773
M16
G00X360106Y367529
M15
G01Y364773
M16
G00X350264Y367529
M15
G01Y364773
M16
G00X371327Y385836
M15
G01X368571
M16
G00X312327Y385835
M15
G01X309571
M16
G00X253327Y385835
M15
G01X250571
M16
G00X212634Y367529
M15
G01Y364773
M16
G00X202791Y367529
M15
G01Y364773
M16
G00X183106Y367529
M15
G01Y364773
M16
G00X173264Y367529
M15
G01Y364773
M16
G00X194327Y385836
M15
G01X191571
M16
T09
G00X503984Y241685
M15
G01X509417
M16
T11
G00X447066Y-87760
M15
G01Y-82248
M16
G00X448640Y-58626
M15
G01Y-53902
M16
G00X462026Y-58626
M15
G01Y-53902
M16
G00X482499Y-58626
M15
G01Y-53902
M16
G00X486042Y-87760
M15
G01Y-82248
M16
T16
G00X403299Y52545
M15
G01X409598
M16
G00X403299Y97427
M15
G01X409598
M16
G00X159598Y97427
M15
G01X153299
M16
G00X159598Y52545
M15
G01X153299
M16
T18
G00X330634Y370087
M15
G01Y366150
M16
G00X330634Y395087
M15
G01Y386425
M16
G00X291264Y395087
M15
G01Y386425
M16
G00X271634Y395087
M15
G01Y386425
M16
G00X271634Y370087
M15
G01Y366150
M16
G00X291264Y370087
M15
G01Y366150
M16
G00X232264Y370087
M15
G01Y366150
M16
G00X232264Y395087
M15
G01Y386425
M16
T23
G00X302287Y385047
M15
G01Y394496
M16
G00X319610Y394496
M15
G01Y385047
M16
G00X260610Y394496
M15
G01Y385047
M16
G00X243287Y385047
M15
G01Y394496
M16
T24
G00X282475Y-85522
M15
G01Y-77648
M16
G00X298223Y-77648
M15
G01Y-85522
M16
G00X346325Y-85522
M15
G01Y-77648
M16
G00X362073Y-77648
M15
G01Y-85522
M16
M17
M30
