M48
;Layer_Color=9474304
;FILE_FORMAT=4:4
METRIC,LZ
;TYPE=PLATED
T06F00S00C0.8000
T08F00S00C0.9200
T15F00S00C1.4000
T17F00S00C1.5000
;TYPE=NON_PLATED
T22F00S00C1.6000
T23F00S00C2.0000
%
G90
G05
T06
G00X01568429Y00628398
M15
G01X01561429
M16
G00X01568429Y00653398
M15
G01X01561429
M16
G00X01568429Y00703398
M15
G01X01561429
M16
G00X01568429Y00728398
M15
G01X01561429
M16
G00X01614929Y00674898
M15
G01Y00681898
M16
G00X0098967Y00933523
M15
G01Y00926523
M16
G00X0096467Y00933523
M15
G01Y00926523
M16
G00X0091467Y00933523
M15
G01Y00926523
M16
G00X0088967Y00933523
M15
G01Y00926523
M16
G00X0094317Y00980023
M15
G01X0093617
M16
G00X0079331Y0098002
M15
G01X0078631
M16
G00X0064345Y0098002
M15
G01X0063645
M16
G00X0054009Y00933523
M15
G01Y00926523
M16
G00X0051509Y00933523
M15
G01Y00926523
M16
G00X0046509Y00933523
M15
G01Y00926523
M16
G00X0044009Y00933523
M15
G01Y00926523
M16
G00X0049359Y00980023
M15
G01X0048659
M16
T08
G00X0128012Y0061388
M15
G01X0129392
M16
T15
G00X0102438Y00133464
M15
G01X0104038
M16
G00X0102438Y00247464
M15
G01X0104038
M16
G00X0040538Y00247464
M15
G01X0038938
M16
G00X0040538Y00133464
M15
G01X0038938
M16
T17
G00X0083981Y0094002
M15
G01Y0093002
M16
G00X0083981Y0100352
M15
G01Y0098152
M16
G00X0073981Y0100352
M15
G01Y0098152
M16
G00X0068995Y0100352
M15
G01Y0098152
M16
G00X0068995Y0094002
M15
G01Y0093002
M16
G00X0073981Y0094002
M15
G01Y0093002
M16
G00X0058995Y0094002
M15
G01Y0093002
M16
G00X0058995Y0100352
M15
G01Y0098152
M16
T22
G00X0076781Y0097802
M15
G01Y0100202
M16
G00X0081181Y0100202
M15
G01Y0097802
M16
G00X0066195Y0100202
M15
G01Y0097802
M16
G00X0061795Y0097802
M15
G01Y0100202
M16
T23
G00X00717486Y-00217225
M15
G01Y-00197225
M16
G00X00757486Y-00197225
M15
G01Y-00217225
M16
G00X00879665Y-00217225
M15
G01Y-00197225
M16
G00X00919665Y-00197225
M15
G01Y-00217225
M16
M17
M30
