M48
;Layer_Color=9474304
;FILE_FORMAT=4:4
METRIC,LZ
;TYPE=PLATED
T01F00S00C0.2500
T02F00S00C0.3810
T03F00S00C0.4000
T04F00S00C0.6350
T05F00S00C0.7112
T06F00S00C0.8000
T08F00S00C0.9200
T10F00S00C1.0000
T12F00S00C1.0668
T13F00S00C1.1000
T14F00S00C1.1500
T15F00S00C1.2000
T17F00S00C1.5000
T19F00S00C2.4000
T20F00S00C2.4892
;TYPE=NON_PLATED
T21F00S00C0.9906
T22F00S00C1.1000
T25F00S00C2.5000
T26F00S00C3.2000
T27F00S00C3.2639
%
T01
X00772Y-00072
X00988Y-00181
X0107Y-00171
X01116Y-00038
X01262Y-000795
Y-000885
X01271
Y-000795
X0128
Y-000885
X01581Y00316
X01542158Y00275808
X0153Y00246
X01503Y00257
X01405Y00281
X01375Y00248
X01176Y00274
X01154Y00325
X01174Y0016
X01203
X01245Y00097
X01244Y00024
X01211Y00032
X01138Y0016
X00931Y0006
X00887Y00076
X00865Y00095
X00825Y00108
X00777Y00061
X00866Y00302
X00628Y00325
X00548
X00555Y00141
X00621Y00159
X00587Y00079
Y00066
Y00051
Y00037
Y00019
X00591Y-00002
X00665Y-00001
X00677Y00021
X00666Y00037
X00667Y00051
X00681Y0008
X00322Y00037
X00249Y00019
Y-00001
Y-00017
X00194Y00018
X00196Y00035
X00225Y0007
X00157Y-00024
X00052Y00052
X00053Y00178
X00042Y00171
X00007Y00208
X00082Y00279
X00085Y0032525
X00066Y00332
X00062Y00344
X00055Y00338
X00283Y00343
X00126Y00156
X-0005Y00206
Y00085
X-00119Y00116
X-00184Y00086
X-002067Y002102
X-0017125Y003225
X-001645Y0032025
X-0015873Y0031275
X-0014575Y003225
X-00087Y00333
X-0008Y00342785
X-00072Y00351
X-00081627Y00375373
X-0010225Y0039125
X-00113Y0039825
X-00107849Y00405
X-001195Y0041675
X-00124151Y00423
X-00136Y004275
X-001405Y0043825
X-00147127Y0043925
X-00131Y0044325
X-0012843Y0047082
X-0011875Y004815
X-0012375Y004895
Y0049785
Y005055
Y005135
Y005215
X-0011Y00501
X-00089Y00505
Y00522
Y00483
X-00100405Y0043875
X-00174Y0043575
Y00446
Y0047175
X-00168Y004805
Y00495
Y00507
X-0016375Y0053525
Y0054125
X-0017425
X-0017425Y0053525
X-00174Y00557
Y0056725
X-0016375
Y00557
X-0016Y0047325
X-000515Y005135
X-00045Y005165
X-00052Y00555
X-00074Y00677
X-00128Y0068625
X-001345
X-00141
X-0014727Y00686239
X-00013Y00617
X-00015Y00585
X-00027
X-0002Y00574
X-00003Y0056925
X00002Y00562214
Y00529
X00020015Y00529246
X00036Y00529
X00049Y00545
X00054Y0054
X00062Y0055
X00069Y00555
X00073Y00569
X00058
X00079Y00579
X0008825Y0057523
X00140459Y00590006
X00152905Y00583742
X00178804Y00633865
X00251Y00606
X00245Y00689
X00288Y00671
X00343Y00679
X0034Y00616
X00329Y00503
X00295Y00477
X00272Y00424
X00212Y00504
X00209Y00548
X00157Y00506
X0008Y0047
X00053Y00458
X00039Y00495
X00025Y00485
X00008Y005015
X-0000531Y00496057
X-00017Y00482
Y00467
X-00031Y00439
X00014Y00443
X00065Y0037
X00124Y00394
X00035Y0061
X00016Y00593
X0114Y00579
X01137Y00524
X01092Y00464
X01049Y00406
X01125Y00384
X01261Y00415
X01177Y00536
X0116Y00702
X01236Y00712
X01218Y00761
X01294Y00697
X01460576Y00564352
X0154Y00607
X01502Y00801
X01379Y00854
X01238Y00858
X01118Y00831
X01094
X00670398Y00813391
X0067225Y0080275
X0034Y00831
X00286Y0079
X00218Y00867
X00141Y0077
X-0009925Y007635
T02
X-00055Y004815
T03
X00037843Y-00155103
X00039184Y-00127798
X00034Y-00107
X00076324Y-00079665
X00096136Y-00064806
X00117726Y-00104811
X00116329Y-00129449
X0011544Y-00155611
X00122933Y-00189012
X00277Y-00195
X00297Y-00192
X00275753Y-00048471
X00390268Y-0010062
X00456438Y-00078486
X0049403Y-00032004
X0065275Y-0005775
Y-00071
X006685Y-0006375
X00650364Y-00096937
X00605279Y-00108367
X00705863Y-00124623
X00746503Y-00044994
X00804796Y-00038009
X00831593Y-00112685
X00930399Y-00127925
X00940421Y-00128687
X00904745Y-00154722
X01366136Y-00135799
X01546222Y00019776
X0158925Y00117
X01556Y00229
X01554604Y00291683
X01551429Y00314035
X01610611Y00345023
X01637408Y00324703
X01518028Y00320639
X01502788Y00305399
X01497191Y00337784
X01472054Y00313654
X0145529Y00313527
X01438526
X01438018Y00296382
X01437891Y00280253
X01454401Y00280126
X01471038Y00280253
X01471292Y00295874
X01455037Y00296508
X01403474Y00303057
X01388234Y00315305
X01348102Y00313781
X01359786Y00355945
X0137655Y00356072
X01426588Y00346574
X01441505Y00346097
X01414777Y00331561
X0140957Y00214975
X01497076Y00213857
X01523Y00142
X01372Y00155
X01258Y00189
X01244295Y-00005
X011935Y00007
X01144931Y00087556
X01123Y00087
X01123169Y00101822
X01122915Y00116808
X01115692Y00299049
X01055748Y00298414
X00939416Y00307558
X00865375Y00299176
X00841499Y00177764
X00828164Y0002669
X00829688Y-00009942
X006355Y-0003
X00576034Y-00029097
X0055325Y-000245
X00553302Y00008899
X00510456Y00027899
X00494055Y00044922
X00509905Y-00023876
X00646046Y00065369
X00562353Y00248884
X00478914Y00299049
X00369059Y00299557
X00363Y00153
X00724278Y00305526
X00309496Y00298033
X0011325Y0029775
X00103064Y00311493
X00075943Y00083911
X-00183645Y00132425
X00024595Y0041225
X00038Y0042
X0003Y00428
X00097706Y0047
X00202181Y00484469
X00170558Y00417794
X00260474Y00531205
X00160906Y0072939
X00023619Y00702401
X01118613Y00432415
X01157Y00433
X01168237Y00406587
X01203068Y00393156
X01298956Y00410464
X01301626Y00431637
X0134425Y0042875
X01340736Y00399887
X01376662Y00419791
X01377563Y00460717
X01361564Y00461482
X01352138Y00480014
X01347Y00494003
X01396668Y00491887
X01425069Y00474304
X01446781Y00473166
X01464307Y0047215
X01484246Y00466435
X01482722Y00511901
X01485103Y00529467
X01515996Y00527919
X01525775Y00523331
X01496314Y00568833
X0150609Y00607786
X01484373Y00618327
X01465958Y00617946
X01459484Y00631444
X01467609Y00593435
X01430782Y00556895
X0144005Y00502503
X01409632Y004482
X0132506Y00462803
X01285293Y00500979
X01360802Y00550382
X01345574Y00586763
X01346197Y00611342
X01403096Y00663194
X01312161Y00729198
X01222181Y00651176
X01180138Y00672645
X01175639Y00592201
X0118828Y00583523
X01212596Y0056769
X01163571Y00560923
X0116192Y00546445
X01149849Y0057349
X01163Y00753
X01532001Y00743077
X01531125Y00439745
X01543809Y00425795
X01541497Y00408794
X015108Y00432411
X0148069Y00382615
X01455671Y00384139
X01571501Y00437727
X01600705Y00424017
X015861Y00504027
X0158356Y00522315
X01584322Y00552033
X01606547Y00552922
X01602229Y00594832
X01569971Y00566257
X01546984Y00566592
X01568574Y00538716
X01550667Y00760313
X01308986Y00878296
X0103619Y00910427
X01023617Y0078457
X00907Y00802
X0088
X00866
X00839
X00825
X00798
X00787397Y00954877
X00624837Y00949162
X006205Y0081425
X00616689Y0079937
X0064225Y00815
X006845Y008155
X00735636Y00784097
X0058575Y0081475
X00483362Y00774319
X00463423Y00771271
X00442214Y00772541
X0039103Y00947892
X00322199Y0089916
X00316133Y00828984
X00252349Y00814832
X00271526Y00793008
X0022479Y00836422
X00183556Y00844056
X00201803Y00875411
X00156972Y00876253
X00141097Y00786384
X00175249Y00782066
X00111252Y00812419
X00104899Y00963513
X00242189Y00902589
X-00175009Y0078838
T04
X013702Y00053558
X01359532Y00094619
T05
X01453131Y00138787
X01454Y00165
X0019685Y00774446
T06
X01032004Y-00225141
Y-00205141
X01052004
X01072004
Y-00225141
X01052004
X01265952Y00551908
X01290952
X01315952
Y00583908
X01290952
X01265952
T08
X0125516Y0061388
X0131888
T10
X01514929Y00653398
Y00678398
Y00703398
X0096467Y00880023
X0093967
X0091467
X0081481Y0088002
X0078981
X0076481
Y0093002
X0081481
X0066495
Y0088002
X0063995
X0061495
Y0093002
X0051509Y00880023
X0049009
X0046509
T12
X01184795Y-00036
X01278795
X01344Y00185
X01324Y00281
T13
X01309367Y00108549
X01334767
X01415031Y00107787
X01440431
X01465831
X01491231
X00743328Y00725388
X00717928
X00692528
X00667128
X00641728
X00616328
X00590928
X00565528
X00540128
X00514728
X00489328
X00463928
X00438528
X00413128
X00768728
X00794128
X00916302
X00941702
X00967102
X00992502
T14
X00135887Y00463768
X00161287
X00186687
X00212087
X00237487
T15
X00477009Y-00187107
X00502409
X00527809
Y-00161707
X00502409
X00477009
X0095738Y00165464
Y00190464
Y00215464
X0110238
Y00165464
X0047238
Y00190464
Y00215464
X0032738
Y00165464
X01514929Y00628398
Y00728398
X01614929
X01639929
Y00628398
X01614929
X01564929Y00678398
X0098967Y00880023
Y00980023
Y01005023
X0088967
Y00980023
Y00880023
X0083981Y0088002
X0078981Y0093002
X0093967Y00930023
X0073981Y0088002
X0068995
X0058995
X0054009Y00880023
Y00980023
Y01005023
X0044009
Y00980023
Y00880023
X0049009Y00930023
X0063995Y0093002
T17
X00687486Y-00207225
Y-00157225
X00674986Y-00132225
X00799986
X00837165
X00849665Y-00157225
Y-00207225
X00787486
Y-00157225
X00949665
X00962165Y-00132225
X00949665Y-00207225
X01004004Y-00215141
X01100004
X0072888Y00208244
X0070088
X0085231Y0091502
X0072731
X0070245
X0057745
T19
X01172547Y-00205911
T20
X0034023Y00415508
Y00720308
X0108953
Y00415508
T21
X-00184Y0032943
Y0034975
X-001332Y0033959
T22
X01309367Y00083149
X01334767
T25
X0143Y0
X0
X0143Y0078
X0
T26
X0119102Y0061388
X0133502Y00697018
Y00530742
T27
X000644Y005015
M30
