M48
;Layer_Color=9474304
;FILE_FORMAT=4:4
METRIC,LZ
;TYPE=PLATED
T01F00S00C0.4000
T02F00S00C0.4500
T03F00S00C0.6350
T04F00S00C0.7112
T05F00S00C0.8000
T07F00S00C0.9200
T09F00S00C1.0000
T11F00S00C1.0668
T12F00S00C1.1000
T13F00S00C1.1500
T14F00S00C1.2000
T16F00S00C1.5000
T18F00S00C2.2500
T19F00S00C2.4892
;TYPE=NON_PLATED
T20F00S00C0.9906
T21F00S00C1.1000
T24F00S00C2.5000
T25F00S00C3.2000
T26F00S00C3.2639
%
T01
X00037843Y-00155103
X00039184Y-00127798
X00037335Y-00100493
X00076324Y-00079665
X00096136Y-00064806
X00117726Y-00104811
X00116329Y-00129449
X0011544Y-00155611
X00122933Y-00189012
X00297616Y-00187004
X00276251Y-00234073
X00275753Y-00048471
X00390268Y-0010062
X00456438Y-00078486
X0049403Y-00032004
X00654542Y-0003603
X00651012Y-00060308
X00653666Y-00076109
X00650364Y-00096937
X006717Y-00066711
X00705863Y-00124623
X00605279Y-00108367
X00746503Y-00044994
X00804796Y-00038009
X00831593Y-00112685
X00930399Y-00127925
X00940421Y-00128687
X00904745Y-00154722
X01079751Y-00034199
X01163063Y-00047407
X01211831Y-00084745
X01366136Y-00135799
X01546222Y00019776
X01594863Y00134076
X01566161Y00229072
X01554604Y00291683
X01551429Y00314035
X01593466Y00281777
X01610611Y00345023
X01637408Y00324703
X01518028Y00320639
X01502788Y00305399
X01497191Y00337784
X01472054Y00313654
X0145529Y00313527
X01438526
X01438018Y00296382
X01437891Y00280253
X01454401Y00280126
X01471038Y00280253
X01471292Y00295874
X01455037Y00296508
X01403474Y00303057
X01388234Y00315305
X01348102Y00313781
X01359786Y00355945
X0137655Y00356072
X01426588Y00346574
X01441505Y00346097
X01414777Y00331561
X0140957Y00214975
X01333497Y00220436
X01309624Y0025104
X01330576Y00154904
X01369184Y00139029
X01443887Y00138787
X01457068Y00152364
X01527045Y00142712
X01497076Y00213857
X01189352Y00297398
X01174874Y00025491
X01151569Y0002541
X01140076Y00040985
X01139822Y00055971
X01051049Y00033111
X00828164Y00028412
X00829688Y-00009942
X00841499Y00177764
X00865375Y00299176
X00939416Y00307558
X01055748Y00298414
X01115692Y00299049
X00724278Y00305526
X00562353Y00248884
X00478914Y00299049
X00369059Y00299557
X0036077Y00101331
X00494283Y00037338
X00509896Y00018989
X00509905Y-00023876
X00553974Y-00020574
X00553402Y-00000318
X00576034Y-00029097
X00646046Y00065369
X00332356Y00105374
X00309496Y00298033
X00133855Y00306161
X00116329
X00114493Y00316263
X00097533Y00307431
X0008242
X00012938Y003056
X00012443Y00342737
X-00018672Y00252059
X00075943Y00083911
X-00183645Y00132425
X-00107826Y00371693
X-00092586Y004531
X-00083442Y00480405
X-00058296Y00489549
X-00065154Y00505551
X-00084077Y00529935
X-0008056Y00548864
X-0006939Y00550083
X-00060201Y00559414
X-00058423Y0057629
X-00073536Y0057248
X-00089931Y00564479
X-00118433Y00563646
X-00108717Y00575568
X-00108673Y00535365
X-00115954Y00540984
X-00104651Y00517697
X-00157351Y0054517
X-00164907Y00537613
X-00191392Y00528792
X-00186185Y00554446
X-00141227Y00630265
X-0013792Y00654908
X-00144275Y00672683
X-00149447Y00690463
X-00169677Y0070841
X-00205618Y00708156
X-00123066Y0067535
X-00076331Y00597541
X-00032769Y00592292
X-00031517Y00579575
X-00032388Y00569432
X-00032007Y00559907
X-00023498Y00556224
X-00027704Y00535765
X-00029594Y00525871
X-00032515Y00514695
X-00033906Y00506285
X-0001591Y00516473
X-00014862Y00526506
X-00013567Y00536006
X00000886Y00544667
X00003736Y00555318
X00014299Y00554016
X0001511Y00529173
X00027048Y00527649
X00037208Y00525998
X00049138Y00525491
X00061592Y00533308
X00070609Y0052549
X00085087Y00538952
X00097533Y00541619
X00101724Y00553049
X00117091Y0054708
X0015989Y00561502
X00152905Y00583742
X00140459Y00590006
X00158691Y00604213
X00149984Y00521172
X00202181Y00484469
X00170558Y00417794
X00077213Y00481223
X00068323Y00491962
X00060703Y00500344
X00014198Y00488059
X00004061Y00489295
X-00039627Y00482818
X-00030737Y00459323
X-0003188Y00411571
X-00017399Y00580009
X00000759Y00579719
X00023238Y00575655
X00033398Y0057816
X00056766Y00567781
X00080154Y00574075
X00023619Y00702401
X00109728Y00730377
X00099441Y00759968
X00186997Y00757281
X00160906Y0072939
X00260474Y00531205
X00851532Y00736437
X01118613Y00432415
X01168524Y00444718
X01165984Y004023
X01203068Y00393156
X01291333Y00417794
X01301626Y00431637
X0132506Y00462803
X01361564Y00461482
X01377563Y00460717
X0138268Y00422251
X01351009Y00439336
X01352138Y00480014
X01347Y00494003
X01396668Y00491887
X01425069Y00474304
X01446781Y00473166
X01464307Y0047215
X01484246Y00466435
X01482722Y00511901
X01485103Y00529467
X01515996Y00527919
X01525775Y00523331
X01496314Y00568833
X0150609Y00607786
X01484373Y00618327
X01465958Y00617946
X01459484Y00631444
X01467609Y00593435
X01430782Y00556895
X0144005Y00502503
X01409632Y004482
X01455671Y00384139
X0148069Y00382615
X015108Y00432411
X01531125Y00439745
X01543809Y00425795
X01541497Y00408794
X01340736Y00399887
X01285293Y00500979
X01360802Y00550382
X01345574Y00586763
X01346197Y00611342
X01403096Y00663194
X01312161Y00729198
X01222181Y00651176
X01180138Y00672645
X01175639Y00592201
X0118828Y00583523
X01212596Y0056769
X01163571Y00560923
X0116192Y00546445
X01149849Y0057349
X01532001Y00743077
X01550667Y00760313
X01546984Y00566592
X01569971Y00566257
X01584322Y00552033
X01606547Y00552922
X01602229Y00594832
X01568574Y00538716
X0158356Y00522315
X015861Y00504027
X01571501Y00437727
X01600705Y00424017
X01308986Y00878296
X01121026Y00804382
X01023617Y0078457
X00907793Y00801878
X00883793
X00864867
X00843661
X00825116
X00802132
X00787397Y00954877
X0103619Y00910427
X00624837Y00949162
X00620776Y00801497
X00642236Y00802985
X00665096Y00795873
X00688591Y00803366
X00586486Y00803529
X00594357Y00775299
X00483362Y00774319
X00463423Y00771271
X00442214Y00772541
X0039103Y00947892
X00322199Y0089916
X00316133Y00828984
X00252349Y00814832
X00271526Y00793008
X0022479Y00836422
X00212439Y00834517
X00201803Y00875411
X00156972Y00876253
X00141097Y00786384
X00130768Y00774656
X00175249Y00782066
X00111252Y00812419
X00104899Y00963513
X00242189Y00902589
X-00175009Y0078838
T02
X01303081Y-00149379
X01311081
Y-00140879
X01303081
Y-00132379
X01311081
T03
X013702Y00053558
X01359532Y00094619
T04
X0019685Y00774446
T05
X01032004Y-00225141
Y-00205141
X01052004
X01072004
Y-00225141
X01052004
X01265952Y00551908
X01290952
X01315952
Y00583908
X01290952
X01265952
T07
X0125516Y0061388
X0131888
T09
X01514929Y00653398
Y00678398
Y00703398
X0096467Y00880023
X0093967
X0091467
X0081481Y0088002
X0078981
X0076481
Y0093002
X0081481
X0066495
Y0088002
X0063995
X0061495
Y0093002
X0051509Y00880023
X0049009
X0046509
T11
X01184907Y-00043343
X01269362Y-00022261
X01280991Y00254915
X01323972Y00292445
T12
X01309367Y00108549
X01334767
X01415031Y00107787
X01440431
X01465831
X01491231
X00743328Y00725388
X00717928
X00692528
X00667128
X00641728
X00616328
X00590928
X00565528
X00540128
X00514728
X00489328
X00463928
X00438528
X00413128
X00768728
X00794128
X00916302
X00941702
X00967102
X00992502
T13
X00135887Y00463768
X00161287
X00186687
X00212087
X00237487
T14
X00477009Y-00187107
X00502409
X00527809
Y-00161707
X00502409
X00477009
X0095738Y00165464
Y00190464
Y00215464
X0110238
Y00165464
X0047238
Y00190464
Y00215464
X0032738
Y00165464
X01514929Y00628398
Y00728398
X01614929
X01639929
Y00628398
X01614929
X01564929Y00678398
X0098967Y00880023
Y00980023
Y01005023
X0088967
Y00980023
Y00880023
X0083981Y0088002
X0078981Y0093002
X0093967Y00930023
X0073981Y0088002
X0068995
X0058995
X0054009Y00880023
Y00980023
Y01005023
X0044009
Y00980023
Y00880023
X0049009Y00930023
X0063995Y0093002
T16
X00687486Y-00207225
Y-00157225
X00674986Y-00132225
X00799986
X00837165
X00849665Y-00157225
Y-00207225
X00787486
Y-00157225
X00949665
X00962165Y-00132225
X00949665Y-00207225
X01004004Y-00215141
X01100004
X0072888Y00208244
X0070088
X0085231Y0091502
X0072731
X0070245
X0057745
T18
X01172547Y-00205911
T19
X0034023Y00415508
Y00720308
X0108953
Y00415508
T20
X-00172342Y00571464
Y00591784
X-00121542Y00581624
T21
X01309367Y00083149
X01334767
T24
X0143Y0
X0
X0143Y0078
X0
T25
X0119102Y0061388
X0133502Y00697018
Y00530742
T26
X-00085912Y00704411
X00079188
X-00003362Y00367861
M30
