M48
;Layer_Color=9474304
;FILE_FORMAT=4:4
METRIC,LZ
;TYPE=PLATED
T01F00S00C0.2500
T02F00S00C0.3810
T03F00S00C0.4000
T04F00S00C0.6350
T05F00S00C0.7112
T06F00S00C0.8000
T08F00S00C0.9200
T10F00S00C1.0000
T12F00S00C1.0668
T13F00S00C1.1000
T14F00S00C1.1500
T15F00S00C1.2000
T17F00S00C1.5000
T19F00S00C2.4000
T20F00S00C2.4892
;TYPE=NON_PLATED
T21F00S00C0.9906
T22F00S00C1.1000
T25F00S00C2.5000
T26F00S00C3.2000
T27F00S00C3.2639
%
T01
X-00011Y-001431
Y-00105
X00031Y-00141
X00071Y-00169
X0011Y-00081
X00064562Y-00044995
X00188Y-00133
X00273Y-00135
X00258Y-00172
X00255Y-00192
X0021Y-00204
X00323Y-00131
X00696Y-00109
X00722Y-00105
X00744Y-00106
X00748Y-00057
X00722Y-00059
X00699Y-00047
X00734Y-00173
X00738Y-00235
X00763Y-00137
X00772Y-00072
X00794Y-00073
X00831Y-00084
X00862Y-00091
X00885Y-00082
X0091Y-00084
X00933Y-00078
X00957Y-00072
X0104Y-00049
X01037Y-0012
X01034Y-00179
X0107Y-00171
X00988Y-00181
X00899Y-00234
X01116Y-00038
X01174Y-00079
X01173Y-00114
X01247Y-00082
X01262Y-000795
Y-000885
X01271
Y-000795
X0128
Y-000885
X01284Y-00162
X01413Y-00093
X01606Y00047
X01589Y00191
X01581Y00316
X01602Y0033
Y00346
Y00362
X01525335Y0035023
X01494Y00337
X01503Y00257
X0153Y00246
X01542158Y00275808
X01455Y00246
X01454Y00214
X01492Y00164
X01493Y00127
X01521Y00118
X01414Y00128
X01413Y00163
X01374Y0012
X01332Y00146
X01303Y00172
X01302Y00233
X01315Y00244
X01326Y00256
X01295Y00264
X01278Y00333
X01378Y00325
X01405Y00281
X01375Y00248
X01277Y00128
X01245Y00097
X01211Y00032
X01203Y0016
X01174
X01176Y00274
X01154Y00325
X01346Y-00024
X01049Y00028
X00993Y00072
X00931012Y0006002
X00887Y00076
X00865Y00095
X00822885Y00110115
X00777Y00061
X00819Y00253
X00866Y00302
X00992Y00311
X0107Y00299
X01072Y00241
X01111Y00235
X01107Y00189
X01138Y0016
X01067Y00165
X00995Y00215
X00621Y00159
X00555Y00141
X00526Y00166
Y00181
Y00191
Y002
X00527Y00215
X00444
X00405Y00181
X00443Y0008
X00447Y00065
X00448Y0005
X00451Y00038
X00456Y00019
X00458Y-00002
X00389
X0037Y00019
X00476Y00102
X00587Y00079
Y00066
Y00051
Y00037
Y00019
X00591Y-00002
X00665Y-00001
X00677Y00021
X00666Y00037
X00667Y00051
X00681Y0008
X00628Y00325
X00548
X00389Y00352
X00283Y00338865
X00329Y00276
X00199Y00282
X00239Y00211
X00273Y00179
X00225Y0007
X00196Y00035
X00194Y00018
X00249Y00019
Y-00001
Y-00017
X00157Y-00024
X00052Y00052
X00053Y00178
X00042Y00171
X00007Y00208
X00082Y00279
X00044Y00324
Y0033027
Y00337
Y00364
X-00006Y00355
X00134Y00329
X00126Y00156
X00322Y00037
X-0005Y00085
X-00119Y00116
X-00184Y00086
X-00206Y0021
Y00222
Y00235
X-0017125Y003225
X-0015873Y0031275
X-0014575Y003225
X-00165Y00353
X-00072Y00351
X-0008Y00342785
X-00087Y00333
X-0005Y00206
X-00065Y00384
X-00081627Y00375373
X-00108Y00369
X-0010225Y0039125
X-00113Y0039825
X-00107849Y00405
X-00135Y00403
X-00136Y004275
X-00125Y0043
X-00120875Y00424942
X-00131Y0044325
X-001405Y0043825
X-00147127Y0043925
X-00174Y0043575
Y00446
Y0047175
X-00168Y004805
Y00495
Y00507
X-0016375Y0053525
Y0054125
X-0017425
X-0017425Y0053525
X-00174Y00557
Y0056725
X-0016375
Y00557
X-0012375Y005215
Y005135
Y005055
Y0049785
Y004895
X-0011875Y004815
X-00128Y00471
X-00136Y00472
X-0016Y0047325
X-0011Y00501
X-00089Y00505
X-00082Y00514
X-00089Y00522
Y00483
X-00100405Y0043875
X-00085115Y00417885
X-00052Y00513
Y00549
X-00072136Y00564642
X-0007112Y00573532
X-00079756Y0057404
X-00090115Y00576115
X-00096Y00586
X-00073759Y00587164
X-00045Y0059204
X-00118Y00631
X-00128Y0068625
X-001345
X-00141
X-0014727Y00686239
X-00074Y00677
X-00064Y00741
X-00188Y00642
X-00038Y00656
X-00017Y00643
X0005Y00644
X00029Y0059796
X00034798Y00573786
X00057Y00574
X00052Y0056
X00045974Y00555244
X00037203Y00527797
X00020015Y00529246
X00002Y00529
X00011Y00497
X-00002Y00491
X-00017Y00482
Y00468
X-00031Y00439
X00014Y00443
X00025Y00485
X00039Y00495
X00053Y00458
X0008Y0047
X00124Y00529
X00148082Y00545084
X00176Y00531
X0015904Y00506
X00212Y00504
X00209115Y00547885
X00256Y00574
X00253615Y00603385
X0034Y00616
X00343Y00679
X0029104Y00671
X00207115Y00667885
X00153Y00662
X00119Y00647
X00136Y00622
X00137Y0061473
X00085Y00579
X00077
X00031311Y007266
X00228766Y00737411
X00295Y00477
X00329Y00503
X00272Y00424
X00298Y00387
X00124Y00394
X00065Y0037
X-00018Y00384
X-00039Y00385
X0042Y0076
X00718Y00756
X00917Y00387
X01049Y00406
X0109Y00387
X01116Y00376
X01092Y00464
X01137Y00524
X0114Y00579
X01183Y00582
X01177Y00536
X01297Y00526
X01324Y00502
X0135Y00478
X01337Y00463
X01321348Y0043434
X01302Y00444
X01261Y00415
X01219Y00435
X01238Y00459
X01252Y00472
X01386115Y00439765
X01412Y00495
X01432Y00514
X01457Y00513
X01455Y00551
X01460576Y00564352
X01469Y00541
X01441
X01394203Y00519467
X01502Y00496
X0148Y00385
X01432Y00384
X0152509Y00365978
X0154Y00607
X0136Y00635
X01417Y00696
X01294Y00697
X01236538Y00712538
X01218Y00761
X0116Y00702
X016Y00522
X01599Y00498
Y00461
X01635Y00464
Y0039
X01634Y00541
X01502Y00801
X01379Y00854
X01238Y00858
X01152Y00774
X01118Y00831
X01094
X00894Y00815
X00866Y00816
X00852
X00824
X0081
X00782Y00815
X00878Y00774
X00836Y009
X00927Y00906
X00739Y00808
X00703Y00815
X00675Y00816
X00661
X00633
X00619
X00591Y00815
X00552Y00822
X00465Y00819
X00495Y00775
X0065Y00774
X00626Y00913
X00543Y0091
X00412Y00897
X00344Y00914
X0034Y00831
X00332662Y008154
X00303Y00851
X00268Y00841
X00286Y0079
X00141Y0077
X00137Y00851
X00163Y00841
X00171Y0089
X00225Y00896
X002Y00973
X00068Y0089
X0003Y00847
X-0009925Y007635
T02
X-00055Y004815
T03
X00039184Y-00127798
X00034Y-00107
X00076324Y-00079665
X00096136Y-00064806
X00117726Y-00104811
X00116329Y-00129449
X0011544Y-00155611
X00122933Y-00189012
X00073Y-00156
X00210173Y-00247133
X00314629Y-00237133
X00297Y-00192
X00277Y-00195
X00275753Y-00048471
X00390268Y-0010062
X0049403Y-00032004
X00608199Y-00036164
X00608Y-00077
X00605279Y-00108367
X00650364Y-00096937
X0065275Y-00071
Y-0005775
X006685Y-0006375
X0065644Y-00038477
X00746503Y-00044994
X00705863Y-00124623
X00831593Y-00112685
X00804796Y-00038009
X00930399Y-00127925
X00940421Y-00128687
X00904745Y-00154722
X00999978Y-0015
X01000478Y-00134
X01019231Y-0011459
X00993696Y-00085875
X01209978Y-0009975
X01366136Y-00135799
X01546222Y00019776
X0158925Y00117
X01556Y00229
X01554604Y00291683
X0155Y0031
X01637408Y00324703
X01512Y00301
X01502788Y00305399
X01472054Y00313654
X0145529Y00313527
X01438526
X01438018Y00296382
X01437891Y00280253
X01454401Y00280126
X01471038Y00280253
X01471292Y00295874
X01455037Y00296508
X01403474Y00303057
X01388234Y00315305
X01397Y00332
X01414777Y00331561
X01426588Y00346574
X01441505Y00346097
X01485643Y00348071
X01386Y00359
X01348102Y00313781
X0140957Y00214975
X01497076Y00213857
X01523Y00142
X01372Y00155
X01258Y00189
X01243978Y0002475
X01244295Y-00005
X011935Y00007
X01144931Y00087556
X01123Y00087
X01123169Y00101822
X01122915Y00116808
X01071478Y00098
Y00085
X00934759Y00013993
X00897759Y00027515
X00828164Y0002669
X00829688Y-00009942
X00797Y00014
X00841499Y00177764
X00895478Y00165
X00896478Y00148
X00895478Y00198
X00896478Y00214
X01115692Y00299049
X00724278Y00305526
X00562353Y00248884
X00553302Y00008899
X0055325Y-000245
X00576034Y-00029097
X006355Y-0003
X00646046Y00065369
X00721442Y00013645
X00510456Y00027899
X00494055Y00044922
X00509905Y-00023876
X00270128Y00164
X00113Y00243
X00105Y00313
X00075943Y00083911
X-00183645Y00132425
X-00052478Y004535
X00031Y00404
X00025Y00392
X00038Y00387
X00170558Y00417794
X00098Y00508
X00260474Y00531205
X00076127Y0073729
X00023619Y00702401
X01118613Y00432415
X01151Y00433
Y00417
X0115Y00401
X0116192Y00546445
X01163571Y00560923
X01149849Y0057349
X01197Y00582
X01212596Y0056769
X01222Y00589706
X01180138Y00672645
X01312161Y00729198
X01347978Y00615
X01348984Y00601506
X01347978Y00587
Y00573
X01361405Y00550382
X01355943Y00485943
X01347Y00494003
X01361564Y00461482
X01377563Y00460717
X01376662Y00419791
X0134425Y0042875
X01340736Y00399887
X01298956Y00410464
X01301626Y00431637
X0132506Y00462803
X01286Y00516
X01396668Y00491887
X01425069Y00474304
X01446781Y00473166
X01464307Y0047215
X01484246Y00466435
X01482722Y00511901
X01481Y00529
X01523Y00524
X01522Y00515
X01534Y00552
X01495Y00577
X0150609Y00607786
X01484373Y00618327
X01465958Y00617946
X01459484Y00631444
X01467609Y00593435
X01430782Y00556895
X0144005Y00502503
X01411Y00439
X01455671Y00384139
X01504Y00396
X0151401Y0043568
X01531125Y00439745
X01542Y00425
X01403096Y00663194
X01546984Y00566592
X01569589Y00567
X0158Y00551
X01587Y00547
X01569589Y00538716
X01586Y0051
X01582777Y00487771
X01582849Y00470753
X01583103Y00453227
X01571501Y00437727
X01597039Y00427683
X01546485Y00411144
X01604184Y00596787
X01550667Y00760313
X01308986Y00878296
X0103619Y00910427
X01023617Y00786219
X00787397Y00954877
X00624837Y00949162
X0039103Y00947892
X00443Y00779
X00467Y00788
X00491Y0079404
X00491903Y00826636
X00525Y00774294
X00315162Y0080104
X00271526Y00793008
X00252349Y00814832
X0022479Y00836422
X00183556Y00844056
X00178Y0078
X00141097Y00786384
X00111252Y00812419
X00104899Y00963513
X00322032Y00892324
X-00175009Y0078838
T04
X013702Y00053558
X0137Y00097
T05
X01453131Y00138787
X01454Y00165
X0019685Y00774446
T06
X01032004Y-00225141
X01052004
X01072004
Y-00205141
X01052004
X01032004
X01265952Y00551908
X01290952
X01315952
Y00583908
X01290952
X01265952
T08
X0125516Y0061388
X0131888
T10
X01514929Y00653398
Y00678398
Y00703398
X0096467Y00880023
X0093967
X0091467
X0081481Y0088002
X0078981
X0076481
Y0093002
X0081481
X0066495
X0061495
Y0088002
X0063995
X0066495
X0051509Y00880023
X0049009
X0046509
T12
X01184795Y-00036
X01278795
X01344Y00185
X01324Y00281
T13
X01309367Y00108549
X01334767
X01415031Y00107787
X01440431
X01465831
X01491231
X00743328Y00725388
X00717928
X00692528
X00667128
X00641728
X00616328
X00590928
X00565528
X00540128
X00514728
X00489328
X00463928
X00438528
X00413128
X00768728
X00794128
X00916302
X00941702
X00967102
X00992502
T14
X00135887Y00463768
X00161287
X00186687
X00212087
X00237487
T15
X00477009Y-00187107
Y-00161707
X00502409
Y-00187107
X00527809
Y-00161707
X0095738Y00165464
Y00190464
Y00215464
X0110238
Y00165464
X0047238
Y00190464
Y00215464
X0032738
Y00165464
X01514929Y00628398
Y00728398
X01614929
X01639929
Y00628398
X01614929
X01564929Y00678398
X0098967Y00880023
Y00980023
Y01005023
X0088967
Y00980023
X0093967Y00930023
X0088967Y00880023
X0083981Y0088002
X0078981Y0093002
X0073981Y0088002
X0068995
X0063995Y0093002
X0058995Y0088002
X0054009Y00880023
Y00980023
Y01005023
X0044009
Y00980023
X0049009Y00930023
X0044009Y00880023
T17
X00687486Y-00207225
Y-00157225
X00674986Y-00132225
X00799986
X00837165
X00849665Y-00157225
Y-00207225
X00787486
Y-00157225
X00949665
X00962165Y-00132225
X00949665Y-00207225
X01004004Y-00215141
X01100004
X0072888Y00208244
X0070088
X0085231Y0091502
X0072731
X0070245
X0057745
T19
X01172547Y-00205911
T20
X0034023Y00415508
Y00720308
X0108953
Y00415508
T21
X-00184Y0032943
Y0034975
X-001332Y0033959
T22
X01309367Y00083149
X01334767
T25
X0143Y0
X0
X0143Y0078
X0
T26
X0119102Y0061388
X0133502Y00530742
Y00697018
T27
X000644Y005015
M30
